<?xml version="1.0" encoding="utf-8"?>
<!-- Generator: Adobe Illustrator 19.1.0, SVG Export Plug-In . SVG Version: 6.00 Build 0)  -->
<svg version="1.1" id="Ebene_1" xmlns="http://www.w3.org/2000/svg" xmlns:xlink="http://www.w3.org/1999/xlink" x="0px" y="0px"
	 viewBox="-171 229.1 749.3 345.9" style="enable-background:new -171 229.1 749.3 345.9;" xml:space="preserve">
<style type="text/css">
	.st0{fill:#E1D5BD;}
</style>
<g>
	<path class="st0" d="M576.7,556c-1.2-15.5-0.8-35.9-1.7-52.9c-0.1-2,0.5,0.5,0.3-4c-1.1-16.4-1.2-42.4-1.1-62.4l0.2,1.2
		c0-3.8-0.5-8.5-0.6-12.5c0.1,0,0.2,1.3,0.3,0.4c-0.3-1-0.3-7.3-0.5-9c0.1-1.6,0.3-1.5,0.4-3.5l-0.4-2.3c-0.9-6.4-0.3-15.6-0.9-24.4
		c0.1,0.4,0.2,1.3,0.2,0.6c-0.8-14.1-1.1-31.7-1.6-47.5c0.1,0.6,0.3,1.2,0.5,0.3c-0.4-0.8-0.5-5.6-0.7-9.9c0.3-1.9-0.5-7.2-0.4-12.2
		l0.1,0.4c-0.4-3.7,0.1-5.4-0.4-8.4l0.2-2.3c-0.5-1.6,0.1-5.3-0.2-8.3l-0.1,0.1c-0.2-2.9,0-4.3-0.1-7l0.1-0.3
		c-0.3-6.2-0.1-9.8-0.4-9.6c0.3-2.2,0.3,6,0.6,2.6c-0.4-10.2-0.7-20.5-1-30.9l-0.4-15.6l-0.1-3.9l0-1.9l0-1c0.2,0.5-0.6,0.1-0.8,0.2
		l-9,0.2c-2.7-0.1-4.5-0.1-5.1-0.2c-2.4,0.1-9,0.3-11.2,0.5c0.8,0-1.6-0.1-2.8-0.1c-4.4,0-4.8,0.5-9.6,0.4c1.9-0.1,2.6-0.2,1.9-0.4
		c-4.1,0.3-9.6,0.4-14.4,0.6c0.8-0.1,1.9-0.1,1.7-0.2c-5.3,0.4-9.7,0.1-14.3,0.4l1.7-0.2c-7.5-0.1-2.2,0.4-8.7,0.4
		c1.5-0.1,1-0.2,1.3-0.2c-6,0.5-15.8,0.6-21.8,0.8c0.4,0,0.3-0.1,0.3-0.1c-6.5,0.2-13.4,0.2-20.6,0.5c-2.6,0,0.8-0.5-6.1-0.3
		c0.3,0.4-11.8,0.4-7.7,0.8c-5.9,0.1-15.3,0.1-19.2,0.3c2.7-0.2-2.9-0.4,2-0.5l-3.7-0.1c0.6-0.2,3.8,0,2.6-0.2
		c-2.5,0.1-9.6,0.4-11.8,0.4c-4.6,0.3-8.7,0.9-16.1,1.1c3.5-0.2-2-0.4,0.4-0.5l-10.3,1c-2.5,0.1-0.5-0.3-4.1-0.1
		c0.2,0.1-1.4,0.2-2.4,0.3c-0.9,0-10.2,0.3-11.3,0c-1.1-0.1,4-0.2,1.3-0.2c-4.5,0.1-4.7,0.2-9.3,0.3l-0.1,0c-3,0-8.8,0.4-5.6,0.5
		c2.1,0-0.8-0.2,2.3-0.2c-2.1,0.3-7.4,0.4-11.9,0.5c1.5-0.1,1.4-0.2,2-0.3c-6.1,0.4-12.6,0.7-19.4,0.9c-0.1,0.2,2.5-0.4,3.5-0.3
		c-8.7-0.1-18,0.7-25.3,0.5c1.2-0.1,0.6,0.2,0.6,0.2c-4.2,0.1-4-0.2-6.8,0c-0.3-0.1-3.5,0.1-6.3,0.2c-1.5,0.1-0.7-0.1,1.7-0.1
		c-3.9,0.2-19.7,0.8-28.8,0.8c0.2,0.1-5.6,0.5-7.7,0.5l0.8-0.3c-1.9-0.1-7,0.2-7.4,0c-4.5,0.4,17.2-0.6,11.2-0.3
		c-1.6-0.2-8.4,0.6-7.1,0.2c-4.2,0.1-8.3,0.5-12.3,0.3c1.2,0,3.4-0.4,0-0.3c-6,0.2-1.7,0.1-6.5,0.3l-3,0.2c-0.2,0.2-5.3,0.1-3.1,0.3
		c-0.7-0.2-8.7,0.3-8.1-0.1l0.8-0.3c-2.6,0.1-4.2,0.4-6.2,0.6c-0.3,0-1-0.1-0.9-0.1c-0.4,0.5-6.2,0.1-9.2,0.5
		c-5.4,0-13.7,0.3-16.3,0.1c-4.2,0.2-7.9,0.5-12.7,0.5c0.9-0.1,2.2-0.1,2.5-0.2c-3-0.1-3.7,0.1-6.4,0.2c0.6-0.1-6-0.1-9.3-0.2
		c-4.1,0.2-2.7,0.4-3.1,0.6c-3.8-0.4-11.7,0.5-16.4,0.2c1.4-0.1,6-0.4,2.6-0.4c-3.8-0.4-7.6,0.5-13.7,0.4l1.5,0.3
		c-2.7-0.2-9,0.4-8.4,0c-2,0.2-7.2,0-6.5,0.4c-10-0.1-24.3,0.7-30.5,0.2c-1.4,0.1-5,0.1-4.3,0.3c2.4,0.1,3.3-0.2,4.2-0.1
		c-1.3,0-1.6,0.1-1.7,0.2c-3.1,0-5.6,0-2.6-0.4c-6.9-0.1-7.1,0.8-15.9,0.8c0.4-0.2-0.3-0.2-2.9-0.1l-4.9,0.4
		c-5.7,0.1-3.2-0.3-3.4-0.5c-3,0.1-6.8,0.2-8.1,0.4l-3.7-0.2c2.7,0.2-2.5,0.2-3.9,0.3l1.4-0.1c-0.6-0.1-4.1,0-5.9,0.1
		c0.4,0.1,4,0.1,6,0.1c-1.5,0.1-4,0.2-6,0.3c0.7-0.3-5-0.1-7.4,0c-2.8,0-3.1,0.3-3.9,0.3c-0.1-0.1-4.5,0.1-2.4-0.2
		c0.9-0.1,2.2,0.1,3.7-0.1c-1.8-0.1-1.6-0.3-5.4,0c-2.9,0.2,0.7,0.5-4.7,0.4c1.4-0.1,1.7-0.2,2.8-0.3l-5.1,0l-0.2,0.2
		c-0.7,0-0.2-0.1-0.5-0.1c-1.5,0.3-7.8,0.2-8.9,0.5c-2.6,0.1-5.4,0-7.9,0l0.5,0c-3-0.1-7,0.1-9.5,0.3l0.1-0.1
		c-1.6,0-5.5,0.1-7.5,0.3c-4.1-0.1-1.4-0.8-6-0.4c-4.2,0.1-6.6,0.6-4.9,0.7c-7.5,0-16.1,0.6-23.1,0.4c-1.1,0.1-0.4,0.2-2.6,0.3
		c-11.1,0.2-23.3,0.8-32.1,0.5c3.2-0.2,0.2-0.2,0.1-0.4c-2.6,0.3-3.2-0.1-4.1,0.2c0.3,0.2,0,0.3,3.1,0.3c-6.6,0.3-16.6,0.5-20.3,0.4
		c1.8,0.1,0.4,0.1-1,0.2c0.5-0.3-4.4-0.3-8.1-0.1l-0.5,0.2l-2.4-0.2c-1.4,0.1-1.6,0.5-5.2,0.3c-0.2-0.1-0.4-0.1-1.1-0.2
		c-3.8,0.2-9.2,0.6-13.3,0.6l-3.4-0.2c-1.8,0.1-4.7,0.3-1.6,0.3c-7.1,0-11.6,0.1-13.8-0.1c-3,0.2-6.4,0.4-10,0.6l-2.7,0.1l-0.7,0
		l0,0c-1.6,1.4,2.1-1.9,1.7-1.6l0,0l0,0l0,0.1l0,0.1l0,0.3l0.1,1.2l0.2,4.9c0.2,6.6,0.4,13.4,0.5,19.4l-0.2-0.4
		c-0.1,3.2,0.3,1.7,0.3,3.9c-0.2-1-0.3,2.5-0.6-0.1c-0.1,4.6,0.4,6,0.6,9c0.2,0.5-0.2-2.4,0.1-1.8c0.1,0.5,0,6.4,0.3,7.1
		c-0.1,1.2-0.4,0.3-0.5-0.4l0.2,2.8c-0.3,3.5-0.9-7.9-1.3-4.2l0.1,2.6c-0.3,2.5-0.6-6.9-0.5-0.3c0.2,2.8,0.8,5.3,0.9,2.7
		c0.2,5.9,0.9,2.7,1,9.1c-0.2,1.7-0.2-5.1-0.4-3.9c-0.2,3,0.3,6,0.2,8.7c0.1-3,0.5-0.5,0.6,1.4c-0.1,3.2-0.4-2.1-0.3,2.5
		c0.2,0.7,0.5,5,0.5,1.3c0.5,1.6,0,4.8,0.4,7.3c-0.3,1.5-0.8-4.7-0.9,0.3c0.3-0.8,0.6,6.2,1,3.5c0,2-0.3,2.2-0.5,0.8
		c-0.1,2.8,0.7,6.8,0.1,7.8l0.3,1c-0.1,0.9-0.1,2.2-0.3,3.6c0,2.5,0.6,8,0.1,7.8c0.1,0.8,0.2,6.5,0.4,4.3c0.1-3.5-0.3-4.1,0.1-6
		c-0.3,2.5,0.2,5.1,0.3,7.1l-0.2,0.3c0.1,1.2,0.1,4,0.3,4.8c-0.1-0.9-0.2-0.4-0.3,0.5l0.3,1.3c0.2,4.9-0.5,1.2-0.3,6l-0.3-3.6
		c0.1,0.8-0.2,2.4,0,4.7c0.3,0.9,0.6,2.6,0.8,3.3c0.2,2.7-0.3,1.2,0.1,3.9l-0.4-3.5c-0.1-0.5-0.4,2.4-0.3,6c0.1,2.3,0.6,5.9,0.6,2.2
		c0,1.8-0.1,4.4-0.3,2.9c0.2,4.1,0.3-0.5,0.5,3c-0.1,1.5-0.3,6-0.5,8.7l-0.5-3.7l0.1,2.5c-0.4-3.2-0.2,1.6-0.6-0.2
		c0,1.7,0.1,3.7,0.3,5.3c0.5-4.9,0.9,5.5,1.4,4c0.3,6.7-1.2,4.2-0.2,11.2c0.1-1.2,0.6,2.1,0.3-2.1c0,4.2,0.6,2.8,0.5,7.8
		c-0.3-3.6-0.4,3.9-0.9-1.3c0.2,0.3,0.1-3,0-3.8c-0.2,1.7-0.5-0.3-0.4,3.9c0.1,2.6,0.2,6.2,0.5,5.7c0.3-0.1-0.1-4,0.2-2.3
		c0.2,5.2-0.2,6.1,0.4,8.2c-0.1-3.3,0.2-4.1,0.4-4.1l0.2,3.8l-0.2-0.7c0,6.1,0.4,1.8,0.5,7.7l-0.3,2.8c-0.4-1.4,0-8.7-0.6-7.6
		c0.1,3.9,0.4,5.1,0.3,8.8c-0.1-0.8-0.1-1.9-0.2-2.7c0,1.4-0.7,2.8-0.1,8.3c0.2,2.8,0.2,0.7,0.4,0.8c0.2,6.2,0.5,8.1,0.6,12
		c-0.4-0.8,0.1,7.1-0.4,2.7c0.2-2,0-11-0.5-13.2c-0.4,2.3,0-4.9-0.6-6.2c0.1,5-0.4,4.7-0.7,5.5c0,1.4,0.2,2.7,0.2,3.5
		c0.3,0.6,0.3-1.2,0.6-1.3c0,5.6,0.3,10.9,0.7,14c-0.1,1.9-0.4,1.3-0.5-0.9c0.2,6.6,0.3,13.7,0.4,19.9c0.4-4.1,0.3,7,0.6,4.2
		c0-3.4,0.3-6.3,0.6-4.4c0,2.1-0.2-0.1-0.3,0.8c0.3,2.7-0.3,4.2,0.1,6.8c-0.3-6-0.6-1.2-1-2.3c0.3,4.3-0.3-0.2-0.2,4.1
		c0.3,4.3,0.6,9.7,0.8,14.5c-0.2,6.1,0.3,15.3,0.5,20.7c-0.1,2.8-0.6,0.9-0.6,4c0.1,3.6,0.4-2.7,0.3,2.7l-0.1-0.5
		c0.1,1.6-0.1,9.8,0.6,11.4l-0.5-1.6c0,1,0.1,1.9,0.2,2.7c-0.1,0-0.3,1.2-0.4-0.4c-0.2,3.3,0.2,6.9,0.3,10.5l0.2-2.3
		c0.3,6.1,0.2,10.2,0.4,16.1l-0.3-0.2l0.2,3.5c-0.3-0.9-0.4,2.4-0.1,4.2l-0.8-9.1c0.1-2.5,0.4,2.8,0.6,1.2c0.2-1.4,0-6.8-0.3-7.7
		c0,2.1,0.1,2.2,0.2,3.8c-0.4,0.7-0.4-2.5-0.7-4.1c0,1.1,0,2.7,0.1,2.9c-0.2-2.2-0.3-4.3-0.4-7.9c0.2,2.4,0.2-1.3,0.3-0.4
		c-0.3-0.3-0.5-3.7-0.5-8.2c0.3-3.2-0.4-8.3-0.4-13.5c0.4,2.1,0.7,4.8,0.9,7.9c0.1-3.2-0.1-3.6,0-6.8c-0.3-1.6-0.7-2.7-0.9-6.9
		l0.2-0.2c-0.2-3.8-0.6-3.8-0.6-8.7c-0.1-8.3-0.3-16.9-0.4-23.3l0.2-0.2c-0.6-3.5-0.4-11.8-0.8-16.6c0.1-8.1-0.6-17.6-0.3-21.8
		c-0.5-14.3-1-26.8-1.2-41.6l0.4,2.5c-0.3-2.6,0.2-1.7,0.1-4.3c-0.2,3-0.4-3.6-0.7-5.4c0.1-6.6-0.4-15.1-0.7-20.9l0.2-0.2
		c-0.6-5.9-0.3-13-0.4-20.3c0.1-0.8,0.3-2.2,0.2-4.4c-0.5-4-0.5-6.1-0.9-11.9c-0.1-4.3-0.1-11.2-0.1-15.6
		c-0.9-16.1-0.9-32.6-1.6-49.3l0.3-1.2c-0.5-8.1-0.7-17.2-0.9-25.9l-0.1-6.5l0-1.6l0-0.4l0-0.1l0,0l0,0c-0.4,0.3,3.1-2.8,1.7-1.5h0
		l0.2,0l0.9,0l3.6-0.1c4.8-0.1,9.3-0.2,13.3-0.4l-1.6,0.4c5.1,0,11.6-0.4,10.3-0.6c5.1,0,12.7-0.5,16-0.2c5.2,0,6.4-0.3,10.7-0.5
		c10.4-0.1,14.3-0.2,24.1-0.5l-2.4,0c-1.1,0.1-1.2,0.3,1.3,0.3c3.7-0.2,13.5-0.2,9.8-0.6c10.5,0.1,24.5-0.8,34.7-0.6
		c-0.9-0.1,1.7-0.2,2.8-0.3c9.2-0.2,18.9-0.1,26.2-0.5c1.5,0-2.3,0.3,1.4,0.2c2.2-0.1,0-0.2,2.8-0.3c14.9-0.6,30.2-0.4,43.8-0.8
		c24.1-0.8,49.3-1.2,72.4-1.8l-0.3,0.1c7.7-0.5,18.2,0,24.3-0.7c1.8,0.1,7-0.1,5.6,0.1c6.2-0.4,17.3-0.1,26.2-0.7
		c-0.8,0-1.3,0-2.2,0.1c9,0,16.9-0.4,26.4-0.5c-1,0.1-2.7,0.1-3,0.2c3.7,0.1,8.7-0.6,10.7-0.2c2.1-0.1,1.5-0.3,0.2-0.2
		c20.8-0.3,43-1.1,64.6-1.6c15.5-0.1,1,0.8,13.2,0.2c1,0.1,0.7-0.2,0.9-0.1c4.7-0.2,7.4,0.4,10.7,0.1c-1.4-0.3,2.2-0.2,2.3-0.4
		c9.5,0,11.4,0.2,18.9-0.2l-0.6,0.2c8.8-0.6,18.9-0.6,26.3-1.3c48.4-1.1,94.7-2.4,141.9-3.5c23.3-0.5,46.4-1,69.5-1.5l17.4-0.4
		l8.7-0.2l4.4-0.1l1.1,0l0.5,0l0.3,0c-2.3-1.9,3.1,2.5,2.6,2.1l0,0v0.1l0,0.1l0,1.9c0.2,10,0.4,20,0.5,30.1
		c-0.3,9.5-0.2,10.2,0.2,20.6c-0.1-0.4-0.1-1.1-0.2-0.4c0.4,0.5,0.2,7.3,0.6,8.3c0.3,15,0.7,28.7,1,44.1c-0.1-2.4-0.4-3.6-0.4-0.8
		l0.3,3l-0.1,0.5c0.1,2,0.3,4.1,0.4,2.1c1.2,38.7,1.2,76.7,2.1,114.6c0,9,0.5,21.8,0.8,31.6c0.1,29,0.3,55.1,1.3,84.5
		C578.3,572,577.2,568.2,576.7,556"/>
</g>
</svg>
