<?xml version="1.0" encoding="utf-8"?>
<!-- Generator: Adobe Illustrator 19.1.0, SVG Export Plug-In . SVG Version: 6.00 Build 0)  -->
<svg version="1.1" id="Ebene_1" xmlns="http://www.w3.org/2000/svg" xmlns:xlink="http://www.w3.org/1999/xlink" x="0px" y="0px"
	 viewBox="-31 203.8 469.9 397.2" style="enable-background:new -31 203.8 469.9 397.2;" xml:space="preserve">
<style type="text/css">
	.st0{clip-path:url(#SVGID_2_);fill:#AAC6DF;}
</style>
<g>
	<defs>
		<rect id="SVGID_1_" x="-31" y="203.8" width="469.9" height="397.2"/>
	</defs>
	<clipPath id="SVGID_2_">
		<use xlink:href="#SVGID_1_"  style="overflow:visible;"/>
	</clipPath>
	<path class="st0" d="M437.5,582.5c-0.6-17.9,0-41.6-0.4-61.2c0-2.3,0.3,0.6,0.2-4.6c-0.4-19.1-0.2-49.1,0.2-72.3l0.1,1.4
		c0.1-4.4-0.2-9.8-0.2-14.5c0.1,0,0.1,1.5,0.2,0.4c-0.2-1.2-0.1-8.5-0.2-10.5c0.1-1.8,0.2-1.7,0.3-4.1l-0.2-2.7
		c-0.5-7.5,0-18.1-0.2-28.3c0,0.5,0.1,1.5,0.1,0.7c-0.3-16.3-0.2-36.8-0.3-55c0.1,0.7,0.2,1.4,0.3,0.3c-0.2-0.9-0.3-6.5-0.3-11.4
		c0.2-2.2-0.2-8.4-0.1-14.1l0,0.5c-0.2-4.2,0.1-6.3-0.1-9.7l0.2-2.7c-0.3-1.9,0.2-6.1,0-9.6l-0.1,0.1c-0.1-3.3,0.1-5,0-8.1l0-0.3
		c-0.1-7.2,0.1-11.4-0.2-11.2c0.2-2.5,0.1,7,0.4,3c-0.1-11.8-0.2-23.8-0.2-35.8l0-18v-4.5V208v-1.1c0.2,0.5-0.4,0.1-0.5,0.3h-5.7
		c-1.7-0.2-2.8-0.2-3.2-0.3c-1.5,0.1-5.7,0.1-7.1,0.3c0.5,0-1-0.2-1.8-0.2c-2.8-0.1-3,0.4-6.1,0.2c1.2-0.1,1.6-0.2,1.2-0.4
		c-2.6,0.3-6,0.2-9.1,0.3c0.5-0.1,1.2-0.1,1.1-0.2c-3.3,0.3-6.1-0.1-9,0.1l1.1-0.2c-4.7-0.3-1.4,0.5-5.5,0.3c1-0.1,0.6-0.2,0.8-0.2
		c-3.8,0.4-10,0.3-13.8,0.4c0.2,0,0.2-0.1,0.2-0.1c-4.1,0-8.5-0.1-13,0.1c-1.7-0.1,0.5-0.5-3.8-0.5c0.2,0.4-7.4,0.2-4.9,0.7
		c-3.7-0.1-9.7-0.2-12.2-0.1c1.7-0.2-1.8-0.5,1.3-0.6l-2.4-0.3c0.4-0.2,2.4,0.1,1.7-0.2c-1.6,0-6.1,0.2-7.5,0.1
		c-2.9,0.3-5.5,0.8-10.2,0.8c2.2-0.2-1.2-0.5,0.2-0.6l-6.5,0.8c-1.6,0-0.3-0.3-2.6-0.2c0.1,0.1-0.9,0.2-1.5,0.3
		c-0.6-0.1-6.5,0.1-7.1-0.3c-0.7-0.2,2.5-0.1,0.8-0.2c-2.9,0-3,0.2-5.9,0.2l-0.1-0.1c-1.9-0.1-5.6,0.2-3.5,0.4
		c1.3,0-0.5-0.3,1.5-0.1c-1.3,0.2-4.7,0.3-7.6,0.3c1-0.1,0.9-0.2,1.3-0.3c-3.9,0.3-8,0.4-12.3,0.6c-0.1,0.2,1.6-0.4,2.2-0.3
		c-5.5-0.3-11.4,0.4-16,0c0.8,0,0.4,0.3,0.4,0.2c-2.7,0-2.5-0.3-4.3-0.2c-0.2-0.2-2.2,0.1-4,0.1c-0.9,0.1-0.5-0.1,1.1-0.1
		c-2.5,0.1-12.4,0.4-18.2,0.2c0.1,0.1-3.5,0.4-4.9,0.4l0.5-0.3c-1.2-0.2-4.4,0-4.6-0.2c-2.8,0.3,10.9-0.3,7.1,0
		c-1-0.2-5.3,0.4-4.5,0.1c-2.7,0-5.2,0.3-7.8,0.1c0.7,0,2.2-0.4,0-0.4c-3.8,0-1.1,0.1-4.1,0.2l-1.9,0.1c-0.1,0.3-3.4,0-2,0.3
		c-0.5-0.2-5.5,0.1-5.1-0.3l0.5-0.3c-1.6,0-2.7,0.4-4,0.5c-0.2,0-0.6-0.1-0.6-0.2c-0.3,0.5-3.9,0-5.8,0.4c-3.4-0.2-8.7,0-10.3-0.3
		c-2.6,0.2-5,0.3-8,0.2c0.6,0,1.4-0.1,1.6-0.2c-1.9-0.2-2.3,0-4.1,0.1c0.4-0.1-3.8-0.3-5.9-0.5c-2.6,0.2-1.7,0.4-2,0.6
		c-2.4-0.5-7.4,0.3-10.4-0.1c0.9-0.1,3.8-0.3,1.6-0.4c-2.4-0.5-4.8,0.4-8.7,0.1l0.9,0.4c-1.7-0.3-5.7,0.3-5.3-0.2
		c-1.3,0.2-4.5-0.1-4.1,0.3c-6.3-0.4-15.4,0.2-19.3-0.5c-0.9,0.1-3.2,0-2.7,0.2c1.5,0.2,2.1-0.2,2.7,0c-0.8,0-1,0.1-1.1,0.2
		c-2-0.1-3.5-0.1-1.7-0.5c-4.4-0.3-4.5,0.7-10.1,0.6c0.3-0.2-0.2-0.2-1.8-0.2l-3.1,0.3c-3.6-0.1-2-0.4-2.1-0.7
		c-1.9,0.1-4.3,0-5.2,0.3l-2.3-0.4c1.7,0.3-1.6,0.2-2.5,0.2l0.9-0.1c-0.4-0.1-2.6,0-3.7,0c0.3,0.2,2.5,0.3,3.8,0.3
		c-1,0.1-2.5,0.1-3.8,0.3c0.4-0.3-3.1-0.2-4.7-0.2c-1.8-0.1-2,0.3-2.5,0.2c0-0.2-2.9,0-1.5-0.2c0.6,0,1.4,0.1,2.4,0
		c-1.2-0.1-1-0.4-3.4-0.2c-1.8,0.1,0.5,0.6-3,0.4c0.9-0.1,1.1-0.2,1.8-0.3l-3.2-0.1l-0.1,0.3c-0.4-0.1-0.1-0.1-0.3-0.1
		c-1,0.3-4.9,0.1-5.6,0.4c-1.6,0-3.4-0.2-5-0.2l0.3,0c-1.9-0.2-4.4-0.1-6,0.1l0.1-0.1c-1,0-3.5,0-4.8,0.2c-2.6-0.2-0.9-1-3.8-0.7
		c-2.6,0-4.1,0.5-3.1,0.7c-4.8-0.2-10.2,0.3-14.6-0.2c-0.7,0.1-0.3,0.2-1.7,0.2c-7-0.1-14.8,0.3-20.3-0.2c2-0.1,0.1-0.3,0.1-0.4
		c-1.7,0.2-2-0.2-2.6,0.2c0.2,0.2,0,0.4,2,0.4c-4.2,0.1-10.5,0.1-12.8-0.1c1.2,0.1,0.3,0.2-0.6,0.3c0.3-0.4-2.8-0.4-5.1-0.3
		l-0.3,0.2l-1.5-0.2c-0.9,0.1-1,0.5-3.3,0.3c-0.1-0.1-0.3-0.2-0.7-0.2c-2.4,0.2-5.8,0.5-8.4,0.3l-2.1-0.3c-1.1,0-3,0.2-1,0.3
		c-4.5-0.2-7.3-0.2-8.7-0.5c-1.9,0.2-4.1,0.3-6.3,0.4l-1.7,0.1l-0.4,0h0c-1,1.6,1.4-2.2,1.1-1.8v0l0,0l0,0.1l0,0.2l0,0.3l0,1.4
		l0.1,5.6c0.1,7.6,0.1,15.5,0,22.5l-0.1-0.4c-0.1,3.8,0.2,2,0.1,4.6c-0.1-1.2-0.2,2.9-0.4-0.1c-0.1,5.4,0.2,6.9,0.2,10.4
		c0.1,0.5-0.1-2.8,0.1-2.1c0.1,0.6-0.1,7.4,0.1,8.3c-0.1,1.3-0.2,0.3-0.3-0.4l0.1,3.3c-0.3,4-0.5-9.1-0.8-4.9l0,3
		c-0.2,2.9-0.3-8-0.3-0.4c0.1,3.3,0.4,6.1,0.5,3.2c0.1,6.9,0.5,3.2,0.5,10.5c-0.1,2,0-5.9-0.2-4.5c-0.2,3.5,0.1,7,0,10.1
		c0.1-3.4,0.3-0.5,0.3,1.7c-0.1,3.7-0.2-2.4-0.2,2.9c0.1,0.9,0.2,5.8,0.3,1.5c0.3,1.9-0.1,5.5,0.1,8.4c-0.2,1.7-0.5-5.5-0.6,0.4
		c0.2-0.9,0.3,7.2,0.6,4.1c-0.1,2.3-0.2,2.5-0.3,0.9c-0.1,3.3,0.4,7.9,0,9l0.2,1.1c-0.1,1-0.1,2.5-0.2,4.2c0,2.9,0.3,9.3,0,9
		c0,0.9,0,7.5,0.2,5c0.1-4.1-0.2-4.7,0.1-7c-0.2,2.9,0,5.9,0.1,8.3l-0.1,0.4c0,1.4,0,4.6,0.1,5.5c-0.1-1.1-0.1-0.5-0.2,0.6l0.2,1.5
		c0.1,5.7-0.3,1.4-0.3,6.9l-0.1-4.2c0,0.9-0.1,2.8-0.1,5.5c0.2,1,0.4,3,0.5,3.9c0.1,3.1-0.2,1.4,0,4.5l-0.2-4
		c-0.1-0.6-0.3,2.7-0.3,6.9c0.1,2.7,0.3,6.8,0.4,2.6c0,2.1-0.1,5-0.2,3.4c0.1,4.8,0.2-0.6,0.3,3.5c-0.1,1.7-0.3,6.9-0.4,10.1
		l-0.3-4.3l0,2.8c-0.2-3.7-0.2,1.9-0.4-0.2c0,1.9,0,4.3,0.1,6.2c0.4-5.7,0.5,6.4,0.8,4.7c0.1,7.8-0.8,4.9-0.3,13
		c0.1-1.3,0.3,2.5,0.2-2.4c0,4.8,0.3,3.3,0.2,9c-0.1-4.2-0.3,4.5-0.5-1.6c0.1,0.4,0.1-3.4,0.1-4.4c-0.1,2-0.3-0.4-0.3,4.5
		c0,3,0,7.2,0.2,6.6c0.2-0.1,0-4.6,0.2-2.7c0.1,6-0.2,7,0.1,9.5c0-3.8,0.2-4.8,0.3-4.7l0.1,4.4l-0.1-0.9c-0.1,7.1,0.2,2.1,0.2,9
		l-0.3,3.2c-0.2-1.6,0.1-10-0.3-8.8c0,4.5,0.2,6,0.1,10.2c0-0.9,0-2.2-0.1-3.1c0,1.6-0.5,3.2-0.2,9.6c0.1,3.3,0.1,0.9,0.3,1
		c0,7.2,0.2,9.3,0.2,14c-0.3-1,0,8.2-0.3,3.1c0.1-2.4,0.1-12.7-0.1-15.3c-0.3,2.6,0-5.6-0.3-7.2c0,5.8-0.3,5.5-0.5,6.4
		c0,1.6,0.1,3.1,0.1,4.1c0.2,0.7,0.2-1.4,0.4-1.5c-0.1,6.4,0.1,12.6,0.2,16.2c-0.1,2.1-0.3,1.5-0.3-1.1c0.1,7.6,0,15.8,0,23.1
		c0.3-4.7,0.1,8.1,0.3,4.9c0.1-3.9,0.3-7.2,0.4-5.1c0,2.4-0.1-0.1-0.2,0.9c0.2,3.1-0.3,4.8,0,7.9c-0.1-7-0.4-1.4-0.6-2.6
		c0.1,5-0.2-0.2-0.2,4.8c0.1,5,0.2,11.2,0.3,16.8c-0.2,7,0,17.8,0,24c-0.1,3.3-0.4,1.1-0.4,4.6c0,4.2,0.3-3.1,0.2,3.1l-0.1-0.6
		c0.1,1.9-0.2,11.3,0.2,13.2l-0.3-1.9c0,1.2,0,2.2,0.1,3.2c-0.1,0-0.2,1.4-0.2-0.5c-0.2,3.8,0,8,0,12.1l0.2-2.7
		c0.1,7.1,0,11.8,0,18.7l-0.2-0.2l0.1,4.1c-0.2-1-0.3,2.7-0.1,4.9l-0.4-10.6c0.1-2.9,0.2,3.2,0.4,1.4c0.1-1.6,0.1-7.9-0.1-9
		c0,2.4,0,2.5,0.1,4.4c-0.2,0.8-0.2-2.9-0.4-4.7c0,1.3-0.1,3.1,0,3.4c-0.1-2.5-0.1-5-0.1-9.2c0.1,2.8,0.1-1.5,0.2-0.5
		c-0.2-0.3-0.3-4.3-0.2-9.5c0.2-3.7-0.2-9.7-0.1-15.6c0.2,2.4,0.4,5.5,0.5,9.1c0.1-3.7,0-4.2,0.1-7.9c-0.2-1.8-0.4-3.1-0.5-8
		l0.2-0.3c-0.1-4.4-0.3-4.4-0.3-10.1c0.1-9.7,0.1-19.6,0.1-27l0.2-0.3c-0.3-4.1-0.1-13.7-0.3-19.2c0.1-9.4-0.1-20.4,0.1-25.2
		c-0.1-16.6-0.2-31.1-0.2-48.3l0.2,2.9c-0.2-3.1,0.1-2,0.1-5c-0.2,3.5-0.2-4.2-0.4-6.3c0.2-7.6,0-17.5-0.2-24.2l0.2-0.3
		c-0.3-6.8,0-15,0-23.6c0.1-1,0.2-2.5,0.2-5.1c-0.2-4.6-0.2-7.1-0.4-13.8c0-5,0.1-13,0.2-18.1c-0.3-18.7-0.1-37.7-0.3-57.1l0.2-1.4
		c-0.2-9.4-0.2-19.9-0.2-30l0-7.5l0-1.8V207v-0.1l0-0.1v0c-0.2,0.4,2-3.1,1.1-1.7h0l0.1,0l0.6,0l2.3,0c3,0,5.9,0,8.4-0.1l-1,0.5
		c3.2,0.1,7.3-0.1,6.5-0.5c3.2,0.1,8-0.2,10.1,0.2c3.3,0.1,4-0.2,6.8-0.3c6.6,0.2,9,0.1,15.3,0.1l-1.5,0c-0.7,0.1-0.7,0.3,0.8,0.3
		c2.3-0.1,8.5,0.1,6.2-0.4c6.6,0.3,15.5-0.3,21.9,0.2c-0.5-0.2,1.1-0.2,1.8-0.3c5.8,0,12,0.3,16.6,0c0.9,0.1-1.5,0.3,0.9,0.3
		c1.4-0.1,0-0.2,1.8-0.3c9.4-0.3,19.1,0.3,27.7,0.2c15.3-0.3,31.2-0.1,45.8-0.2L141,205c4.9-0.4,11.5,0.5,15.4-0.2
		c1.2,0.1,4.4,0.1,3.6,0.3c3.9-0.3,10.9,0.3,16.5-0.1c-0.5,0-0.8,0-1.4,0.1c5.7,0.3,10.7-0.1,16.7,0.1c-0.6,0.1-1.7,0.1-1.9,0.2
		c2.3,0.2,5.5-0.5,6.8,0.1c1.3,0,0.9-0.3,0.1-0.3c13.2,0.2,27.2-0.1,40.9-0.3c9.8,0.3,0.6,0.9,8.3,0.5c0.6,0.1,0.5-0.2,0.6-0.1
		c3-0.2,4.7,0.6,6.7,0.3c-0.9-0.3,1.4-0.2,1.4-0.4c6,0.2,7.2,0.5,11.9,0.3l-0.4,0.2c5.5-0.5,12-0.2,16.7-0.8
		c30.6-0.1,59.9-0.4,89.8-0.5c14.7,0.1,29.3,0,44,0l11,0l5.5,0l2.8,0l0.7,0l0.3,0h0.2c-1.4-2.2,1.9,3,1.6,2.5v0v0.1v0.1l0,2.2
		c0,11.5,0,23.2-0.1,34.9c-0.3,11-0.3,11.8-0.2,23.9c0-0.5-0.1-1.2-0.1-0.4c0.2,0.6,0,8.5,0.3,9.6c0,17.3,0,33.3,0,51.1
		c0-2.8-0.2-4.2-0.2-0.9l0.2,3.5l-0.1,0.6c0,2.3,0.2,4.8,0.2,2.4c0.2,44.8-0.3,88.8-0.2,132.7c-0.1,10.4,0,25.2,0,36.6
		c-0.3,33.5-0.6,63.8-0.4,97.8C438.3,601,437.6,596.6,437.5,582.5"/>
</g>
</svg>
