<?xml version="1.0" encoding="utf-8"?>
<!-- Generator: Adobe Illustrator 19.1.0, SVG Export Plug-In . SVG Version: 6.00 Build 0)  -->
<svg version="1.1" id="Layer_1" xmlns="http://www.w3.org/2000/svg" xmlns:xlink="http://www.w3.org/1999/xlink" x="0px" y="0px"
	 viewBox="0 0 239.1 121.8" style="enable-background:new 0 0 239.1 121.8;" xml:space="preserve">
<style type="text/css">
	.st0{fill:#7D9192;}
	.st1{fill:#91B6D5;}
</style>
<path class="st0" d="M239.1,121.3V94.5h-5.9v12.8c0,2.1,0.1,4,0.2,4.4h-0.1c-0.2-0.3-1.2-2.2-2.9-4.7l-8.7-12.5h-6.6v26.8h5.9v-14
	c0-1.8-0.1-3.6-0.2-3.7h0.1c0.1,0.2,1,1.8,2.7,4.2l9.6,13.5H239.1z M209.7,121.3V116h-9.9v-6h8.5v-5h-8.5v-5.2h9.6v-5.3h-16v26.8
	H209.7z M188.7,121.3v-5.2h-9.8V94.5h-6.6v26.8H188.7z M165.9,110.2V94.5h-6v16.1c0,3.7-1.4,5.9-5.2,5.9c-4,0-5.4-2-5.4-6.2V94.5
	h-6.5v16.3c0,7.3,3.9,11,11.8,11C162.1,121.8,165.9,117.8,165.9,110.2 M136.7,121.3V94.5h-6.4v10.3h-11V94.5h-6.5v26.8h6.5v-11.2h11
	v11.2H136.7z M108.9,119l-2.7-4.6c-1.3,1-3,2-5.9,2c-4.8,0-7.2-3.9-7.2-8.7c0-4.7,2.5-8.3,7.1-8.3c2.4,0,4,0.6,5.5,1.5l2.9-4.7
	c-2.1-1.4-4.7-2.2-8.2-2.2c-9.3,0-14.1,6.6-14.1,13.9c0,7.3,4.6,13.9,14,13.9C104.2,121.8,107.5,120.2,108.9,119 M83.1,113.6
	c0-4.9-3.1-6.7-6.6-8.3c-2.9-1.3-5-1.8-5-3.7c0-1.6,1.2-2.4,3.2-2.4c2.1,0,4.2,1,5.2,1.6l2.5-4.5c-1.2-0.9-3.6-2.3-8.1-2.3
	c-5,0-8.9,3-8.9,7.7c0,4.4,2.3,6.5,5.6,8.1c3.1,1.6,5.9,2.1,5.9,4.2c0,1.5-1.3,2.7-3.9,2.7c-2.9,0-5-1.5-5.6-1.9l-2.7,4.5
	c1.2,1,4.1,2.6,8.5,2.6C79.4,121.8,83.1,118.7,83.1,113.6"/>
<path class="st0" d="M193.4,64.7c0,5.6-2.7,8.5-8.2,8.5h-2.5V56.7h2.3C190.8,56.7,193.4,59.2,193.4,64.7 M200.3,64.6
	c0-7.7-4.8-13.1-15.4-13.1h-8.7v26.8h8.5C195.4,78.3,200.3,72.3,200.3,64.6 M169.9,78.3V51.5H164v12.8c0,2.1,0.1,4,0.2,4.4h-0.1
	c-0.2-0.3-1.2-2.2-2.9-4.7l-8.7-12.5h-6.6v26.8h5.9v-14c0-1.8-0.1-3.6-0.2-3.7h0.1c0.1,0.2,1,1.8,2.7,4.2l9.5,13.5H169.9z
	 M139.6,67.2V51.5h-6v16.1c0,3.7-1.5,5.9-5.2,5.9c-4,0-5.4-2-5.4-6.2V51.5h-6.5v16.3c0,7.3,3.9,11,11.8,11
	C135.8,78.8,139.6,74.8,139.6,67.2 M104.6,70.6c0-4.9-3.1-6.7-6.6-8.3c-2.9-1.3-5-1.8-5-3.7c0-1.6,1.2-2.4,3.2-2.4
	c2.1,0,4.2,1,5.2,1.6l2.5-4.5c-1.2-0.9-3.6-2.3-8.1-2.3c-5,0-8.9,3-8.9,7.7c0,4.4,2.3,6.5,5.6,8.1c3.1,1.6,5.9,2.1,5.9,4.2
	c0,1.5-1.3,2.7-3.9,2.7c-2.9,0-5-1.5-5.6-1.9l-2.7,4.5c1.2,1,4.1,2.6,8.5,2.6C100.9,78.8,104.6,75.7,104.6,70.6 M74.1,68.7h-6.6
	l1.9-5.5c0.8-2.3,1.3-4.6,1.4-4.7h0.1c0,0.1,0.5,2.4,1.3,4.7L74.1,68.7z M65.7,73.8h10.2l1.6,4.5h7.1L74,51.5h-6.2L57.5,78.3h6.6
	L65.7,73.8z M58.3,56.8v-5.3H37.2v5.3h7.3v21.5H51V56.8H58.3z M33,51.5h-6.6v26.8H33V51.5z M6.5,62.7V51.5H0v26.8h6.5V65.9l8.4,12.5
	h7.6l-10-14.5l9.6-12.4h-7.1L6.5,62.7z"/>
<path class="st1" d="M107.6,16.8c0,2.2-1.3,3.4-4,3.4h-2.8v-6.9h2.6C106.3,13.4,107.6,14.5,107.6,16.8 M116.3,35.3l-4.8-7.6
	c-1.5-2.3-2.5-3.4-3.3-4v-0.1c3-0.7,5.8-2.9,5.8-7.3c0-5.2-3.7-7.9-10.2-7.9h-9.5v26.8h6.5V24.7h0.3c1.1,0,1.6,0.2,3.3,2.9l4.8,7.7
	H116.3z M75.4,3.1c0-1.7-1.4-3.1-3.3-3.1c-1.9,0-3.2,1.5-3.2,3.1c0,1.7,1.3,3.1,3.2,3.1C74.1,6.2,75.4,4.8,75.4,3.1 M84.2,3.1
	C84.2,1.5,82.9,0,81,0c-1.9,0-3.3,1.5-3.3,3.1c0,1.7,1.4,3.1,3.3,3.1C82.9,6.2,84.2,4.8,84.2,3.1 M88,24.2V8.5h-6v16.1
	c0,3.7-1.5,5.9-5.2,5.9c-4,0-5.4-2-5.4-6.2V8.5H65v16.3c0,7.3,3.9,11,11.8,11C84.2,35.8,88,31.8,88,24.2 M60.4,13.8V8.5H44.5v26.8
	H51V24.7h8.3v-5H51v-5.9H60.4z"/>
</svg>
