<?xml version="1.0" encoding="utf-8"?>
<!-- Generator: Adobe Illustrator 19.1.0, SVG Export Plug-In . SVG Version: 6.00 Build 0)  -->
<svg version="1.1" id="Layer_1" xmlns="http://www.w3.org/2000/svg" xmlns:xlink="http://www.w3.org/1999/xlink" x="0px" y="0px"
	 viewBox="0 0 230.3 80" style="enable-background:new 0 0 230.3 80;" xml:space="preserve">
<style type="text/css">
	.st0{fill:#717A7F;}
	.st1{fill:#578EBE;}
</style>
<path class="st0" d="M230.3,75.1l-0.1-5.3l-9.9,0.2l-0.1-6l8.5-0.2l-0.1-5l-8.5,0.2l-0.1-5.2l9.6-0.2l-0.1-5.3l-16,0.4l0.6,26.8
	L230.3,75.1z M202.1,62.1c0.1,5.6-2.5,8.5-8,8.6l-2.5,0.1l-0.4-16.5h2.3C199.3,54.1,202,56.6,202.1,62.1 M209,61.8
	c-0.2-7.7-5.1-12.9-15.6-12.7l-8.7,0.2l0.6,26.8l8.5-0.2C204.4,75.7,209.1,69.5,209,61.8 M178.9,76.3l-0.6-26.8l-5.9,0.1l0.3,12.8
	c0,2.1,0.2,4,0.3,4.4h-0.1c-0.2-0.3-1.3-2.2-3-4.6l-9-12.3l-6.6,0.1l0.6,26.8l5.9-0.1l-0.3-14c0-1.8-0.2-3.6-0.2-3.7h0.1
	c0.1,0.2,1.1,1.8,2.8,4.1l9.8,13.3L178.9,76.3z M142.2,58.5c0,2.2-1.2,3.5-3.9,3.5l-2.8,0.1l-0.1-6.8l2.6-0.1
	C140.8,55.1,142.1,56.3,142.2,58.5 M151.2,76.9l-5-7.5c-1.5-2.3-2.5-3.4-3.4-3.9v-0.1c3-0.8,5.8-3,5.7-7.4
	c-0.1-5.2-3.9-7.8-10.4-7.7l-9.5,0.2l0.6,26.8l6.5-0.1l-0.2-10.6h0.3c1.1,0,1.6,0.2,3.3,2.9l4.9,7.6L151.2,76.9z M123.9,77.5
	l-0.1-5.3l-9.9,0.2l-0.1-6l8.5-0.2l-0.1-5l-8.5,0.2l-0.1-5.2l9.6-0.2l-0.1-5.3L107,51l0.6,26.8L123.9,77.5z M101.1,66.8l-0.3-15.7
	l-6,0.1l0.4,16.1c0.1,3.7-1.3,6-5,6c-4,0.1-5.4-1.9-5.5-6.1l-0.3-15.8l-6.5,0.1l0.4,16.3c0.2,7.3,4.1,10.9,12,10.7
	C97.5,78.5,101.3,74.4,101.1,66.8 M64.7,69.1l-6.6,0.1l1.8-5.6c0.7-2.3,1.2-4.6,1.3-4.7h0.1c0,0.1,0.6,2.4,1.4,4.6L64.7,69.1z
	 M56.4,74.4l10.2-0.2l1.7,4.5l7.1-0.2L64.3,51.9L58,52l-9.6,27.1L55,79L56.4,74.4z M38.3,60.8c0,2.2-1.2,3.5-3.9,3.5l-2.8,0.1
	l-0.1-6.8l2.6-0.1C36.9,57.4,38.2,58.5,38.3,60.8 M47.3,79.1l-5-7.5c-1.5-2.3-2.5-3.4-3.4-3.9v-0.1c3-0.8,5.8-3,5.7-7.4
	c-0.1-5.2-3.9-7.8-10.4-7.7l-9.5,0.2l0.6,26.8l6.5-0.1l-0.2-10.6h0.3c1.1,0,1.6,0.2,3.3,2.9l4.9,7.6L47.3,79.1z M21.3,58.2l-0.1-5.3
	L0,53.3l0.1,5.3l7.3-0.2L7.9,80l6.5-0.1l-0.5-21.5L21.3,58.2z"/>
<path class="st1" d="M109.5,16.2c0,2.2-1.2,3.5-3.9,3.5l-2.8,0.1l-0.1-6.8l2.6-0.1C108.1,12.8,109.4,14,109.5,16.2 M118.5,34.6
	l-5-7.5c-1.5-2.3-2.5-3.4-3.3-3.9v-0.1c3-0.8,5.8-3,5.7-7.4c-0.1-5.2-3.9-7.8-10.4-7.7L96,8.2L96.5,35l6.5-0.1l-0.2-10.6h0.3
	c1.1,0,1.6,0.2,3.3,2.9l4.9,7.6L118.5,34.6z M77,3.2c0-1.7-1.4-3.1-3.3-3c-1.9,0-3.2,1.5-3.2,3.2s1.4,3.1,3.3,3.1
	C75.7,6.4,77,5,77,3.2 M85.7,3c0-1.7-1.4-3.1-3.3-3c-1.9,0-3.2,1.5-3.2,3.2s1.4,3.1,3.3,3.1C84.5,6.2,85.8,4.8,85.7,3 M90.1,24
	L89.7,8.3l-6,0.1l0.4,16.1c0.1,3.7-1.3,6-5,6c-4,0.1-5.4-1.9-5.5-6.1L73.2,8.7l-6.5,0.1L67,25.2c0.2,7.3,4.1,10.9,12,10.7
	C86.5,35.7,90.2,31.6,90.1,24 M62.1,14.3L62,9L46.2,9.3l0.6,26.8l6.5-0.1L53,25.3l8.3-0.2l-0.1-5l-8.3,0.2l-0.1-5.9L62.1,14.3z"/>
</svg>
