<?xml version="1.0" encoding="utf-8"?>
<!-- Generator: Adobe Illustrator 19.1.0, SVG Export Plug-In . SVG Version: 6.00 Build 0)  -->
<svg version="1.1" id="Layer_1" xmlns="http://www.w3.org/2000/svg" xmlns:xlink="http://www.w3.org/1999/xlink" x="0px" y="0px"
	 viewBox="0 0 178.3 78.3" style="enable-background:new 0 0 178.3 78.3;" xml:space="preserve">
<style type="text/css">
	.st0{fill:#7D9192;}
	.st1{fill:#91B6D5;}
</style>
<path class="st0" d="M178.3,78.3V51.5h-5.9v12.8c0,2.1,0.1,4,0.2,4.4h-0.1c-0.2-0.3-1.2-2.2-2.9-4.7l-8.7-12.5h-6.6v26.8h5.9v-14
	c0-1.8-0.1-3.6-0.2-3.7h0.1c0.1,0.2,1,1.8,2.7,4.2l9.6,13.5H178.3z M142,59.8c0,2.2-1.3,3.4-4,3.4h-2.8v-6.9h2.6
	C140.8,56.4,142,57.5,142,59.8 M150.7,78.3l-4.8-7.6c-1.5-2.3-2.5-3.4-3.3-4v-0.1c3-0.7,5.8-2.9,5.8-7.3c0-5.2-3.7-7.9-10.2-7.9
	h-9.5v26.8h6.5V67.7h0.3c1.1,0,1.6,0.2,3.3,2.9l4.8,7.7H150.7z M123.3,78.3V73h-9.9v-6h8.5v-5h-8.5v-5.2h9.6v-5.3h-16v26.8H123.3z
	 M103.4,56.8v-5.3H82.2v5.3h7.3v21.5h6.5V56.8H103.4z M82.6,78.3v-5.2h-9.8V51.5h-6.6v26.8H82.6z M60.8,78.3V73h-9.9v-6h8.5v-5h-8.5
	v-5.2h9.6v-5.3h-16v26.8H60.8z"/>
<path class="st1" d="M63.1,16.8c0,2.2-1.3,3.4-4,3.4h-2.8v-6.9h2.6C61.9,13.4,63.1,14.5,63.1,16.8 M71.8,35.3L67,27.8
	c-1.5-2.3-2.5-3.4-3.3-4v-0.1c3-0.7,5.8-2.9,5.8-7.3c0-5.2-3.7-7.9-10.2-7.9h-9.5v26.8h6.5V24.7h0.3c1.1,0,1.6,0.2,3.3,2.9l4.8,7.7
	H71.8z M31,3.1C31,1.5,29.6,0,27.7,0s-3.2,1.5-3.2,3.1c0,1.7,1.3,3.1,3.2,3.1S31,4.8,31,3.1 M39.7,3.1c0-1.7-1.3-3.1-3.2-3.1
	c-1.9,0-3.3,1.5-3.3,3.1c0,1.7,1.4,3.1,3.3,3.1C38.4,6.2,39.7,4.8,39.7,3.1 M43.6,24.2V8.5h-6v16.1c0,3.7-1.5,5.9-5.2,5.9
	c-4,0-5.4-2-5.4-6.2V8.5h-6.5v16.3c0,7.3,3.9,11,11.8,11C39.7,35.8,43.6,31.8,43.6,24.2 M15.9,13.8V8.5H0v26.8h6.5V24.7h8.3v-5H6.5
	v-5.9H15.9z"/>
</svg>
