<?xml version="1.0" encoding="utf-8"?>
<!-- Generator: Adobe Illustrator 19.1.0, SVG Export Plug-In . SVG Version: 6.00 Build 0)  -->
<svg version="1.1" id="Layer_1" xmlns="http://www.w3.org/2000/svg" xmlns:xlink="http://www.w3.org/1999/xlink" x="0px" y="0px"
	 viewBox="-107 215.2 284.9 70.8" style="enable-background:new -107 215.2 284.9 70.8;" xml:space="preserve">
<style type="text/css">
	.st0{fill:#FFFFFF;}
	.st1{fill:#CEB994;}
</style>
<path class="st0" d="M177.9,285.5v-5.3H168v-6h8.5v-5H168V264h9.6v-5.3h-16v26.8H177.9z M154.8,258.7h-6.6v26.8h6.6V258.7z
	 M143.4,277.8c0-4.9-3.1-6.7-6.6-8.3c-2.9-1.3-5-1.8-5-3.7c0-1.6,1.2-2.4,3.2-2.4c2.1,0,4.2,1,5.2,1.6l2.5-4.5
	c-1.2-0.9-3.6-2.3-8.1-2.3c-5,0-8.9,3-8.9,7.7c0,4.4,2.3,6.5,5.6,8.1c3.1,1.6,5.9,2.1,5.9,4.2c0,1.5-1.3,2.7-3.9,2.7
	c-2.9,0-5-1.5-5.6-1.9l-2.7,4.5c1.2,1,4.1,2.6,8.5,2.6C139.6,286,143.4,282.9,143.4,277.8 M113.3,285.5v-26.8h-6.4V269h-11v-10.3
	h-6.5v26.8h6.5v-11.2h11v11.2C106.9,285.5,113.3,285.5,113.3,285.5z M85.4,283.1l-2.7-4.6c-1.3,1-3,2-5.9,2c-4.8,0-7.2-3.9-7.2-8.7
	c0-4.7,2.5-8.3,7.1-8.3c2.4,0,4,0.6,5.5,1.5l2.9-4.7c-2.1-1.4-4.7-2.2-8.2-2.2c-9.3,0-14.1,6.6-14.1,13.9s4.6,13.9,14,13.9
	C80.7,286,84.1,284.4,85.4,283.1 M57.6,258.7H51v26.8h6.6V258.7z"/>
<path class="st1" d="M124.7,242.5v-5.3h-9.9v-6h8.5v-5h-8.5V221h9.6v-5.3h-16v26.8H124.7z M104.8,221v-5.3H83.6v5.3h7.3v21.5h6.5
	V221H104.8z M79.5,215.7h-6.6v26.8h6.6V215.7z M67.3,242.5v-5.3h-9.9v-6h8.5v-5h-8.5V221H67v-5.3H51v26.8H67.3z M46.3,242.5v-5.2
	h-9.8v-21.6h-6.6v26.8H46.3z M24.3,240.5v-13.2H13.4v5h4.7v4.6c0,0-0.1,0-0.2,0.1c-0.5,0.2-1.8,0.8-3.9,0.8c-5.2,0-7.5-3.9-7.5-8.9
	s2.7-8.3,8-8.3c2.9,0,4.8,0.9,6.2,1.9l2.8-4.8c-1.9-1.5-4.5-2.5-8.9-2.5c-9.5,0-15,6.6-15,13.9c0,7.3,5,13.9,14.4,13.9
	c5.6,0,8.4-1.5,10-2.3C24.1,240.6,24.2,240.5,24.3,240.5 M-4.1,242.5v-5.3H-14v-6h8.5v-5H-14V221h9.6v-5.3h-16v26.8H-4.1z
	 M-32.5,223.5c0,2.1-1.2,3.1-3.9,3.1h-2.3v-6h2.5C-33.8,220.6-32.5,221.5-32.5,223.5 M-31.6,234.4c0,2.3-1.6,3.2-4.4,3.2h-2.7v-6.5
	h3C-32.9,231.1-31.6,232.2-31.6,234.4 M-25,235.1c0-3.9-2.7-6-5.8-6.4v-0.1c2.9-0.7,4.8-2.6,4.8-6.2c0-5.1-4.5-6.7-9.4-6.7H-45v26.8
	h9.5C-29.6,242.5-25,240.5-25,235.1 M-64.2,229.1c0,4.6-2.1,8.7-7.2,8.7c-5,0-7.2-4.1-7.2-8.9c0-4.6,2.2-8.5,7.3-8.5
	C-66.2,220.4-64.2,224.5-64.2,229.1 M-57.4,228.9c0-7.2-4.8-13.7-14-13.7s-14.1,6.7-14.1,13.9s5,13.9,14.2,13.9
	S-57.4,236.2-57.4,228.9 M-88.6,234.8c0-4.9-3.1-6.7-6.6-8.3c-2.9-1.3-5-1.8-5-3.7c0-1.6,1.2-2.4,3.2-2.4c2.1,0,4.2,1,5.2,1.6
	l2.5-4.5c-1.2-0.9-3.6-2.3-8.1-2.3c-5,0-8.9,3-8.9,7.7c0,4.4,2.3,6.5,5.6,8.1c3.1,1.6,5.9,2.1,5.9,4.2c0,1.5-1.3,2.7-3.9,2.7
	c-2.9,0-5-1.5-5.6-1.9l-2.7,4.4c1.2,1,4.1,2.6,8.5,2.6C-92.3,243-88.6,239.9-88.6,234.8"/>
</svg>
