<?xml version="1.0" encoding="utf-8"?>
<!-- Generator: Adobe Illustrator 19.1.0, SVG Export Plug-In . SVG Version: 6.00 Build 0)  -->
<svg version="1.1" id="Layer_1" xmlns="http://www.w3.org/2000/svg" xmlns:xlink="http://www.w3.org/1999/xlink" x="0px" y="0px"
	 viewBox="0 0 284.5 74" style="enable-background:new 0 0 284.5 74;" xml:space="preserve">
<style type="text/css">
	.st0{fill:#7D9192;}
	.st1{fill:#568EBE;}
</style>
<path class="st0" d="M277.7,54.1c0.1,5.6-2.5,8.5-8,8.6l-2.5,0.1l-0.4-16.5l2.3,0C274.8,46.1,277.5,48.5,277.7,54.1 M284.5,53.8
	c-0.2-7.7-5.1-12.9-15.6-12.7l-8.7,0.2l0.6,26.8l8.5-0.2C279.9,67.6,284.7,61.5,284.5,53.8 M255.4,68.2l-0.1-5.3l-9.9,0.2l-0.1-6
	l8.5-0.2l-0.1-5l-8.5,0.2l-0.1-5.2l9.6-0.2l-0.1-5.3l-16,0.4l0.6,26.8L255.4,68.2z M232.3,68.7l-0.6-26.8l-6.6,0.1l0.6,26.8
	L232.3,68.7z M219.1,69l-0.6-26.8l-6.4,0.1l0.2,10.3l-11,0.2l-0.2-10.3l-6.5,0.1l0.6,26.8l6.5-0.1l-0.2-11.2l11-0.2l0.2,11.2
	L219.1,69z M191.3,67.2l-2.8-4.5c-1.3,1-2.9,2.1-5.8,2.1c-4.8,0.1-7.3-3.7-7.4-8.5c-0.1-4.7,2.3-8.4,6.9-8.5c2.4-0.1,4,0.6,5.5,1.4
	l2.8-4.8c-2.2-1.4-4.8-2.1-8.3-2c-9.3,0.2-14,6.9-13.8,14.2c0.2,7.3,4.9,13.8,14.3,13.6C186.6,70.2,189.9,68.4,191.3,67.2
	 M165.4,62.4c-0.1-4.9-3.2-6.6-6.8-8.1c-2.9-1.2-5-1.7-5-3.6c0-1.6,1.1-2.4,3.1-2.5c2.1,0,4.3,1,5.2,1.5l2.4-4.6
	c-1.2-0.9-3.6-2.2-8.1-2.1c-5,0.1-8.9,3.2-8.8,7.9c0.1,4.4,2.4,6.4,5.8,8c3.2,1.5,6,1.9,6,4c0,1.5-1.3,2.7-3.8,2.7
	c-2.9,0.1-5.1-1.4-5.7-1.8l-2.6,4.6c1.2,0.9,4.1,2.5,8.6,2.4C161.9,70.7,165.5,67.5,165.4,62.4 M136.7,51.7c0,2.1-1.1,3.1-3.9,3.1
	l-2.3,0.1l-0.1-6l2.5-0.1C135.3,48.9,136.7,49.7,136.7,51.7 M137.8,62.6c0.1,2.3-1.5,3.2-4.3,3.3l-2.7,0.1l-0.1-6.5l3-0.1
	C136.4,59.4,137.8,60.4,137.8,62.6 M144.4,63.2c-0.1-3.9-2.8-5.9-6-6.3l0-0.1c2.9-0.8,4.7-2.7,4.6-6.3c-0.1-5.1-4.6-6.6-9.6-6.5
	l-9.6,0.2l0.6,26.8l9.5-0.2C140.1,70.7,144.5,68.6,144.4,63.2 M110.1,61.7l-6.6,0.1l1.8-5.6c0.7-2.3,1.2-4.6,1.3-4.7l0.1,0
	c0,0.1,0.6,2.4,1.4,4.6L110.1,61.7z M101.8,67l10.2-0.2l1.7,4.5l7.1-0.2l-11.1-26.6l-6.2,0.1l-9.6,27.1l6.6-0.1L101.8,67z
	 M77.1,58.4c0.1,5.6-2.5,8.5-8,8.6l-2.5,0.1l-0.4-16.5l2.3,0C74.3,50.4,77,52.9,77.1,58.4 M84,58.1c-0.2-7.7-5.1-12.9-15.6-12.7
	l-8.7,0.2l0.6,26.8l8.5-0.2C79.3,72,84.1,65.9,84,58.1 M53.9,72.6l-0.6-26.8l-5.9,0.1l0.3,12.8c0,2.1,0.2,4,0.3,4.4l-0.1,0
	c-0.2-0.3-1.3-2.2-3-4.6l-9-12.3l-6.6,0.1l0.6,26.8l5.9-0.1l-0.3-14c0-1.8-0.2-3.6-0.2-3.7l0.1,0c0.1,0.2,1.1,1.8,2.8,4.1L48,72.7
	L53.9,72.6z M23.4,62.1L23,46.4l-6,0.1l0.4,16.1c0.1,3.7-1.3,6-5,6c-4,0.1-5.4-1.9-5.5-6.1L6.5,46.8L0,46.9l0.4,16.3
	c0.2,7.3,4.1,10.9,12,10.7C19.8,73.8,23.6,69.7,23.4,62.1"/>
<path class="st1" d="M182.5,8.2c0,2.2-1.2,3.5-3.9,3.5l-2.8,0.1l-0.1-6.8l2.6-0.1C181.1,4.8,182.4,6,182.5,8.2 M191.5,26.6l-5-7.5
	c-1.5-2.3-2.5-3.4-3.4-3.9l0-0.1c3-0.8,5.8-3,5.7-7.4c-0.1-5.2-3.9-7.8-10.4-7.7l-9.5,0.2l0.6,26.8l6.5-0.1l-0.2-10.6l0.3,0
	c1.1,0,1.6,0.2,3.3,2.9l4.9,7.6L191.5,26.6z M164.2,27.2l-0.1-5.3l-9.9,0.2l-0.1-6l8.5-0.2l-0.1-5l-8.5,0.2l-0.1-5.2l9.6-0.2
	l-0.1-5.3l-16,0.4l0.6,26.8L164.2,27.2z M141.4,16.5L141,0.8l-6,0.1l0.4,16.1c0.1,3.7-1.3,6-5,6c-4,0.1-5.4-1.9-5.5-6.1l-0.3-15.8
	L118,1.3l0.4,16.3c0.2,7.3,4.1,10.9,12,10.7C137.8,28.2,141.5,24.1,141.4,16.5 M104.9,18.8l-6.6,0.1l1.8-5.6
	c0.7-2.3,1.2-4.6,1.3-4.7l0.1,0c0,0.1,0.6,2.4,1.4,4.6L104.9,18.8z M96.7,24.1l10.2-0.2l1.7,4.5l7.1-0.2L104.5,1.6l-6.2,0.1
	l-9.6,27.1l6.6-0.1L96.7,24.1z M78.6,10.5c0,2.2-1.2,3.5-3.9,3.5l-2.8,0.1l-0.1-6.8l2.6-0.1C77.2,7.1,78.5,8.2,78.6,10.5 M87.6,28.8
	l-5-7.5c-1.5-2.3-2.5-3.4-3.4-3.9l0-0.1c3-0.8,5.8-3,5.7-7.4c-0.1-5.2-3.9-7.8-10.4-7.7L65,2.5l0.6,26.8l6.5-0.1l-0.2-10.6l0.3,0
	c1.1,0,1.6,0.2,3.3,2.9l4.9,7.6L87.6,28.8z M61.5,7.9l-0.1-5.3L40.3,3l0.1,5.3l7.3-0.2l0.5,21.5l6.5-0.1L54.2,8L61.5,7.9z"/>
</svg>
