<?xml version="1.0" encoding="utf-8"?>
<!-- Generator: Adobe Illustrator 19.1.0, SVG Export Plug-In . SVG Version: 6.00 Build 0)  -->
<svg version="1.1" id="Ebene_1" xmlns="http://www.w3.org/2000/svg" xmlns:xlink="http://www.w3.org/1999/xlink" x="0px" y="0px"
	 viewBox="702.3 -157.7 239.9 414" style="enable-background:new 702.3 -157.7 239.9 414;" xml:space="preserve">
<style type="text/css">
	.st0{fill:#568FBF;}
</style>
<g>
	<path class="st0" d="M703.6,237.1c0.1,3.8,0.3-2.1,0.1,2.5C703.6,239,703.4,238.3,703.6,237.1z"/>
	<path class="st0" d="M940,243.2c-0.9-12.3,0-28.5-0.6-42c0-1.6,0.5,0.4,0.4-3.2c-0.7-13.1-0.3-33.7,0.3-49.6l0.1,1
		c0.1-3-0.4-6.7-0.3-9.9c0.1,0,0.1,1,0.3,0.3c-0.3-0.8-0.1-5.8-0.3-7.2c0.1-1.3,0.3-1.1,0.5-2.8l-0.3-1.8
		c-0.8-5.1,0.1-12.4-0.3-19.4c0.1,0.3,0.1,1,0.2,0.5c-0.5-11.2-0.4-25.2-0.6-37.7c0.1,0.5,0.3,1,0.5,0.2c-0.3-0.6-0.4-4.5-0.5-7.8
		c0.3-1.5-0.3-5.8-0.1-9.7l0.1,0.3c-0.4-2.9,0.2-4.3-0.2-6.7l0.3-1.8c-0.5-1.3,0.3-4.2,0-6.6l-0.1,0.1c-0.1-2.3,0.1-3.4,0-5.5
		l0.1-0.2c-0.1-4.9,0.1-7.8-0.2-7.7c0.3-1.7,0.1,4.8,0.6,2.1c-0.4-16.2-0.3-32.9-0.3-49.2c0.2-1.8,0.2-3,0.3-3.4
		c-0.1-1.6-0.1-6.1-0.3-7.6c0,0.5,0.2-1.1,0.2-1.9c0.1-3-0.4-3.2-0.2-6.5c0.1,1.3,0.2,1.7,0.4,1.3c-0.3-2.8-0.3-6.5-0.3-9.8
		c0.1,0.5,0.1,1.3,0.2,1.2c-0.3-3.6,0.1-6.6-0.1-9.7l0.2,1.2c0.3-5.1-0.5-1.5-0.3-5.9c0.1,1.1,0.2,0.7,0.2,0.9
		c-0.4-4.1-0.3-10.7-0.4-14.8c0,0.2,0.1,0.2,0.1,0.2c-0.1-4.4,0.1-9.1-0.1-14c0.1-1.8,0.5,0.6,0.5-4.1c-0.4,0.2-0.2-8-0.7-5.2
		c0.1-4,0.2-10.4,0.1-13c0.2,1.8,0.5-2,0.6,1.4l0.3-2.5c0.2,0.4-0.1,2.6,0.2,1.8c0-1.7-0.2-6.5-0.1-8c-0.3-3.1-0.8-5.9-0.8-11
		c0.2,2.4,0.5-1.3,0.6,0.3l-0.9-7c0-1.7,0.4-0.4,0.2-2.8c-0.1,0.1-0.2-0.9-0.3-1.7c0.1-0.6-0.1-6.9,0.3-7.7c0.2-0.7,0.1,2.7,0.2,0.9
		c0-3.1-0.2-3.2-0.2-6.3l0.1-0.1c-0.9,0.2-5.7,0.3-3.2,0.6c1.4,0-0.5-0.3,1.6-0.1c-1.4,0.3-5,0.3-8.1,0.3c1.1-0.1,0.9-0.2,1.3-0.3
		c-4.1,0.3-8.5,0.5-13.2,0.6c-0.1,0.2,1.7-0.4,2.4-0.3c-5.9-0.3-12.2,0.4-17.2,0c0.8,0,0.4,0.3,0.4,0.2c-2.9,0-2.7-0.3-4.6-0.2
		c-0.2-0.2-2.3,0.1-4.3,0.1c-1,0.1-0.5-0.1,1.2-0.1c-2.7,0.2-13.4,0.4-19.5,0.2c0.1,0.1-3.8,0.4-5.2,0.4l0.6-0.3
		c-1.3-0.2-4.8,0-5-0.2c-3,0.3,11.7-0.3,7.6,0c-1.1-0.2-5.7,0.4-4.8,0.1c-2.8,0-5.6,0.3-8.3,0.1c0.8,0,2.3-0.4,0-0.4
		c-4.1,0-1.2,0.1-4.4,0.2l-2.1,0.1c-0.1,0.3-3.6,0-2.1,0.3c-0.5-0.2-5.9,0.1-5.5-0.3l0.6-0.3c-1.7,0-2.9,0.4-4.2,0.5
		c-0.2,0-0.7-0.1-0.6-0.2c-0.3,0.5-4.2,0-6.3,0.4c-3.7-0.2-9.3,0-11.1-0.4c-2.8,0.2-5.4,0.4-8.6,0.2c0.6-0.1,1.5-0.1,1.7-0.2
		c-2-0.2-2.5,0-4.4,0.1c0.4-0.1-4-0.3-6.3-0.5c-2.8,0.2-1.8,0.4-2.1,0.6c-2.6-0.5-7.9,0.3-11.1-0.1c1-0.1,4.1-0.3,1.8-0.4
		c-2.6-0.5-5.2,0.4-9.3,0.1l1,0.4c-1.8-0.3-6.1,0.3-5.7-0.2c-1.4,0.2-4.9-0.1-4.4,0.3c-6.8-0.4-16.5,0.2-20.7-0.5
		c-1,0.1-3.4,0-2.9,0.2c1.6,0.2,2.3-0.2,2.9,0c-0.9,0-1.1,0.1-1.2,0.2c-2.1-0.1-3.8-0.1-1.8-0.5c-4.7-0.3-4.8,0.7-10.8,0.6
		c0.3-0.2-0.2-0.2-1.9-0.2l-3.3,0.3c-3.9-0.1-2.2-0.4-2.3-0.7c-2.1,0.1-4.6,0-5.5,0.3l-2.5-0.4c1.8,0.3-1.7,0.2-2.7,0.3l1-0.1
		c-0.4-0.1-2.8,0-4,0c0.3,0.2,2.7,0.3,4.1,0.3c-1.1,0.1-2.7,0.1-4.1,0.3c0.5-0.3-3.4-0.2-5-0.2c-1.9-0.1-2.1,0.3-2.7,0.3
		c0-0.2-3.1,0-1.6-0.2c0.6,0,1.5,0.1,2.5,0c-1.2-0.1-1.1-0.4-3.7-0.2c-1.9,0.1,0.5,0.6-3.2,0.4c1-0.1,1.1-0.2,1.9-0.3l-3.5-0.2
		l-0.1,0.3c-0.5-0.1-0.1-0.1-0.4-0.1c-0.3,0.1-0.7,0.1-1.3,0.1H705h-0.2h-0.1l0,0l0,0l0,0c-0.3,0.3,2.5-2.5,1.3-1.3l0,0l0,0v0.1v1
		c0,1.3,0.1,2.5,0.2,2.9c0,1.7-0.2,3.7-0.2,5.3v-0.3c-0.2,2-0.1,4.7,0.1,6.4l-0.1-0.1c0,1.1,0,3.7,0.2,5.1c-0.2,2.8-1,0.9-0.7,4
		c0,2.8,0.5,4.5,0.7,3.3c-0.2,5.1,0.3,10.9-0.2,15.6c0.1,0.7,0.2,0.3,0.2,1.8c-0.1,7.5,0.3,15.8-0.2,21.8c-0.1-2.2-0.3-0.1-0.4-0.1
		c0.2,1.8-0.2,2.2,0.2,2.8c0.2-0.2,0.4,0,0.5-2.1c0.1,4.5,0.1,11.3-0.1,13.8c0.1-1.2,0.2-0.3,0.3,0.7c-0.4-0.3-0.4,3-0.3,5.5
		l0.2,0.3l-0.2,1.6c0.1,1,0.5,1.1,0.3,3.5c-0.1,0.1-0.2,0.3-0.3,0.7c0.2,2.6,0.5,6.2,0.3,9l-0.3,2.3c0,1.2,0.2,3.2,0.3,1.1
		c-0.2,4.8-0.2,7.9-0.5,9.4c0.7,8.2,0.8,20.2,0.7,29.8l-0.7-0.4c-0.2,2.6,0.3,1.3,0.2,3.1c-0.2-0.8-0.4,2-0.6-0.1
		c-0.2,3.7,0.3,4.7,0.4,7.1c0.2,0.4-0.1-1.9,0.1-1.5c0.1,0.4-0.2,5.1,0.2,5.7c-0.1,0.9-0.4,0.2-0.5-0.3l0.2,2.2
		c-0.4,2.8-0.7-6.3-1.2-3.4l0.1,2.1c-0.4,2-0.4-5.5-0.5-0.3c0.2,2.3,0.7,4.2,0.8,2.2c0.1,4.7,0.8,2.2,0.8,7.2c-0.2,1.4,0-4-0.3-3.1
		c-0.3,2.4,0.2,4.8,0.1,6.9c0.1-2.4,0.5-0.4,0.5,1.2c-0.2,2.6-0.3-1.7-0.4,2c0.2,0.6,0.4,3.9,0.5,1.1c0.5,1.3-0.1,3.8,0.2,5.8
		c-0.3,1.2-0.7-3.7-0.9,0.3c0.3-0.6,0.4,4.9,0.9,2.8c-0.1,1.6-0.3,1.7-0.5,0.6c-0.2,2.2,0.6,5.4,0,6.2l0.3,0.8
		c-0.1,0.7-0.2,1.7-0.4,2.9c0,2,0.4,6.4,0,6.2c0,0.6,0,5.1,0.4,3.4c0.2-2.8-0.2-3.2,0.2-4.8c-0.4,2,0,4,0.2,5.7l-0.2,0.3
		c0.1,1,0,3.2,0.2,3.8c-0.1-0.7-0.2-0.4-0.3,0.4l0.3,1c0.1,3.9-0.5,0.9-0.4,4.7l-0.2-2.9c0,0.6-0.2,1.9-0.1,3.8
		c0.3,0.7,0.6,2,0.8,2.6c0.1,2.1-0.3,1,0,3.1l-0.3-2.8c-0.1-0.4-0.4,1.9-0.4,4.7c0.1,1.8,0.5,4.7,0.6,1.8c0,1.4-0.2,3.5-0.3,2.3
		c0.1,3.3,0.3-0.4,0.4,2.4c-0.2,1.2-0.4,4.7-0.7,6.9l-0.4-2.9V83c-0.3-2.5-0.3,1.3-0.6-0.1c-0.1,1.3,0.1,3,0.2,4.2
		c0.6-3.9,0.8,4.4,1.3,3.2c0.1,5.3-1.3,3.3-0.5,8.9c0.1-0.9,0.5,1.7,0.4-1.7c-0.1,3.3,0.5,2.3,0.3,6.2c-0.2-2.9-0.5,3.1-0.9-1.1
		c0.2,0.3,0.1-2.3,0.1-3c-0.2,1.4-0.5-0.3-0.5,3.1c0,2.1,0.1,4.9,0.3,4.5c0.3-0.1,0-3.2,0.3-1.8c0.1,4.1-0.4,4.8,0.2,6.5
		c0-2.6,0.3-3.3,0.5-3.2l0.1,3l-0.2-0.6c-0.1,4.9,0.4,1.4,0.3,6.2l-0.4,2.2c-0.3-1.1,0.2-6.9-0.4-6c0,3.1,0.3,4.1,0.1,7
		c0-0.6-0.1-1.5-0.1-2.2c0,1.1-0.8,2.2-0.3,6.6c0.2,2.3,0.2,0.6,0.4,0.7c0.1,4.9,0.3,6.4,0.3,9.6c-0.4-0.7,0,5.6-0.5,2.1
		c0.2-1.6,0.2-8.7-0.2-10.5c-0.5,1.8,0.1-3.9-0.4-4.9c0,3.9-0.5,3.8-0.8,4.4c0,1.1,0.1,2.2,0.2,2.8c0.3,0.5,0.3-1,0.6-1.1
		c-0.1,4.4,0.1,8.7,0.4,11.1c-0.1,1.5-0.4,1-0.5-0.7c0.1,5.2,0,10.8,0,15.8c0.5-3.2,0.1,5.6,0.5,3.4c0.1-2.7,0.4-5,0.7-3.5
		c0,1.7-0.2-0.1-0.3,0.6c0.3,2.1-0.4,3.3,0,5.4c-0.2-4.8-0.6-0.9-1-1.8c0.2,3.5-0.3-0.1-0.3,3.3c0.2,3.4,0.4,7.7,0.5,11.5
		c-0.4,4.8,0,12.2,0,16.5c-0.2,2.2-0.6,0.7-0.7,3.2c0,2.9,0.5-2.1,0.3,2.1l-0.1-0.4c0.1,1.3-0.3,7.8,0.3,9l-0.5-1.3
		c0,0.8,0.1,1.5,0.1,2.2c-0.2,0-0.3,1-0.4-0.3c-0.3,2.6,0,5.5,0.1,8.3l0.3-1.8c0.2,4.9-0.1,8.1,0,12.8l-0.3-0.1l0.2,2.8
		c-0.3-0.7-0.4,1.9-0.2,3.4l-0.7-7.3c0.2-2,0.3,2.2,0.6,0.9c0.2-1.1,0.2-5.4-0.1-6.1c0,1.7,0,1.7,0.1,3c-0.4,0.5-0.4-2-0.6-3.2
		c0,0.9-0.1,2.1,0,2.3c-0.2-1.7-0.2-3.4-0.2-6.3c0.1,1.9,0.2-1.1,0.3-0.3c-0.3-0.2-0.4-3-0.3-6.5c0.4-2.5-0.2-6.6-0.1-10.7
		c0.3,1.7,0.6,3.8,0.7,6.3c0.2-2.6,0-2.9,0.2-5.4c-0.2-1.2-0.6-2.1-0.8-5.5l0.2-0.2c-0.1-3-0.5-3-0.4-6.9c0.1-6.6,0.1-13.4,0.1-18.5
		l0.2-0.2c-0.5-2.8-0.2-9.4-0.4-13.2c0.2-6.4-0.2-14,0.2-17.3c-0.2-11.4-0.4-21.3-0.3-33.1l0.4,2c-0.3-2.1,0.2-1.4,0.2-3.4
		c-0.3,2.4-0.4-2.9-0.6-4.3c0.3-5.2,0-12-0.3-16.6l0.2-0.2c-0.5-4.7-0.1-10.3,0-16.2c0.1-0.7,0.3-1.7,0.3-3.5
		c-0.4-3.2-0.4-4.8-0.6-9.5c0-3.4,0.1-8.9,0.3-12.4c-0.6-12.8-0.2-25.9-0.5-39.1l0.3-1c-0.6-12.9-0.1-28.7-0.4-39.7l0.5,1.1
		c0.2-3.4-0.1-7.9-0.5-7c0.1-3.5-0.2-8.6,0.2-10.8c0.1-3.5-0.2-4.3-0.3-7.3c0.2-7.1,0.1-9.7,0.1-16.4v1.7c0.1,0.7,0.3,0.8,0.3-0.9
		c-0.1-2.5,0.1-9.2-0.5-6.7c0.3-7.1-0.3-16.6,0.2-23.5c-0.2,0.6-0.2-1.2-0.3-1.9c0-6.3,0.3-12.8,0-17.8c0.1-1,0.3,1.6,0.3-1
		c-0.1-1.5-0.2,0-0.3-1.9c-0.1-5.1-0.1-10.2,0-15.2l0.1-3.7v-0.9v-0.2l0,0l0,0c3.8-3.8,1.1-1.1,1.9-1.9l0,0h0.1h0.1h0.5h1.8
		c2.4,0,4.8,0.1,7.1,0c16.4-0.3,33.4-0.2,49.1-0.2l-0.2,0.1c5.2-0.4,12.3,0.5,16.5-0.2c1.2,0.1,4.7,0.1,3.8,0.3
		c4.2-0.3,11.7,0.3,17.8-0.1c-0.6,0-0.9,0-1.5,0.1c6.1,0.3,11.5-0.1,17.9,0.1c-0.7,0.1-1.8,0.1-2,0.2c2.5,0.2,5.9-0.5,7.3,0.1
		c1.4,0,1-0.3,0.1-0.3c14.1,0.2,29.2-0.1,43.9-0.3c10.5,0.3,0.6,1,8.9,0.5c0.7,0.1,0.5-0.2,0.6-0.1c3.2-0.2,5,0.6,7.2,0.3
		c-0.9-0.3,1.5-0.2,1.6-0.4c6.4,0.2,7.7,0.5,12.8,0.3l-0.4,0.2c6-0.5,12.9-0.2,17.9-0.8c8.2,0,16.3-0.1,24.4-0.1l0,0
		c-1.9-1.9,2.6,2.6,2.2,2.2l0,0v0.1v0.2v0.4v0.8v1.5v3v6l0.1,12c0.1,16,0.2,31.8,0.2,47.8c-0.1,31.6,0.2,62.6-0.2,94.7
		c-0.5,7.5-0.5,8.1-0.3,16.4c-0.1-0.3-0.1-0.9-0.2-0.3c0.4,0.4,0,5.8,0.4,6.6c-0.1,11.9,0,22.8,0,35c0-1.9-0.4-2.9-0.3-0.6l0.3,2.4
		l-0.1,0.4c0.1,1.6,0.3,3.3,0.4,1.7c0.3,30.7-0.5,60.9-0.4,91c-0.2,7.1,0,17.3,0.1,25.1c-0.5,23-0.9,43.7-0.6,67.1
		C941.3,255.9,940.2,252.9,940,243.2z"/>
	<path class="st0" d="M703.5,232.5c0.2-0.8,0.3-3.5,0.6-1.4C703.9,231.4,703.7,232.7,703.5,232.5z"/>
	<path class="st0" d="M705.5,161.1c-0.1-0.1,0.1-1,0.1-1.2c0,0.9,0.2,1.7,0.1,2.4C705.7,161.3,705.6,161.5,705.5,161.1z"/>
	<path class="st0" d="M705.7,142.8c0.2,0.3,0.3,4.2,0.3,6.5L705.7,142.8z"/>
	<path class="st0" d="M706.4,125.8c0.1-1.5,0.2-1.1,0.2,0.9C706.5,126.9,706.5,126.2,706.4,125.8z"/>
	<path class="st0" d="M706,124.6c0-1.4,0.1-2.1,0.2-2.8C706,121.8,706.3,125.1,706,124.6z"/>
	<path class="st0" d="M706.5,87.7c0-0.9-0.2-2.8,0-3.6C706.4,85,706.8,88.4,706.5,87.7z"/>
	<path class="st0" d="M706.2,70.5c0-0.6,0-0.8,0-1.4c0.1-1,0.2,0.1,0.2,0.9L706.2,70.5z"/>
	<polygon class="st0" points="790.8,-154 788.9,-153.9 789.2,-154 	"/>
	<path class="st0" d="M927.7-154c1.8-0.1,1.3,0.2,1.6,0.2C927.6-153.8,929.9-154,927.7-154z"/>
	<polygon class="st0" points="939.1,-93.3 939.1,-93.9 939.5,-93.7 	"/>
</g>
</svg>
