<?xml version="1.0" encoding="utf-8"?>
<!-- Generator: Adobe Illustrator 19.1.0, SVG Export Plug-In . SVG Version: 6.00 Build 0)  -->
<svg version="1.1" id="Ebene_1" xmlns="http://www.w3.org/2000/svg" xmlns:xlink="http://www.w3.org/1999/xlink" x="0px" y="0px"
	 viewBox="0 0 605.407 397.2" enable-background="new 0 0 605.407 397.2" xml:space="preserve">
<g>
	<defs>
		<rect id="SVGID_1_" width="605.407" height="397.2"/>
	</defs>
	<clipPath id="SVGID_2_">
		<use xlink:href="#SVGID_1_"  overflow="visible"/>
	</clipPath>
	<path clip-path="url(#SVGID_2_)" fill="#6A8DBC" d="M603.62,378.679c-0.744-17.945,0.008-41.588-0.467-61.247
		c-0.031-2.31,0.408,0.591,0.309-4.604c-0.576-19.062-0.232-49.093,0.213-72.306l0.115,1.404c0.084-4.418-0.297-9.821-0.244-14.506
		c0.076-0.032,0.109,1.502,0.213,0.419c-0.23-1.178-0.107-8.472-0.277-10.459c0.09-1.849,0.272-1.672,0.373-4.062l-0.262-2.682
		c-0.623-7.455,0.043-18.108-0.279-28.285c0.061,0.492,0.107,1.502,0.168,0.693c-0.377-16.331-0.309-36.767-0.447-55.028
		c0.092,0.727,0.26,1.397,0.365,0.332c-0.275-0.905-0.346-6.543-0.4-11.438c0.285-2.206-0.258-8.393-0.102-14.135l0.062,0.492
		c-0.297-4.24,0.172-6.293-0.184-9.733l0.223-2.697c-0.398-1.858,0.205-6.139,0.002-9.644l-0.082,0.113
		c-0.096-3.304,0.106-5.024,0.037-8.094l0.045-0.29c-0.104-7.181,0.117-11.356-0.191-11.179c0.248-2.52,0.113,6.963,0.477,3.005
		c-0.162-11.809-0.225-23.803-0.252-35.818l-0.016-18.016V6.42l0.002-2.244V3.055c0.191,0.535-0.477,0.148-0.672,0.267h-7.363
		c-2.221-0.153-3.637-0.199-4.137-0.342c-1.955,0.076-7.367,0.069-9.145,0.264c0.66-0.009-1.262-0.195-2.299-0.213
		c-3.559-0.143-3.891,0.416-7.801,0.246c1.555-0.101,2.088-0.223,1.562-0.364c-3.332,0.296-7.795,0.248-11.736,0.344
		c0.611-0.064,1.562-0.101,1.416-0.22c-4.316,0.335-7.869-0.071-11.645,0.141l1.408-0.219c-6.084-0.265-1.795,0.458-7.055,0.3
		c1.264-0.069,0.816-0.154,1.045-0.243c-4.908,0.397-12.85,0.266-17.744,0.401c0.293-0.031,0.215-0.091,0.215-0.091
		c-5.334,0.05-10.914-0.073-16.779,0.1c-2.135-0.097,0.697-0.534-4.947-0.453c0.205,0.439-9.582,0.18-6.258,0.677
		c-4.82-0.072-12.457-0.237-15.668-0.088c2.168-0.166-2.348-0.536,1.662-0.572l-3.033-0.268c0.453-0.179,3.119,0.062,2.156-0.165
		c-2.008,0.019-7.859,0.192-9.656,0.121c-3.725,0.269-7.143,0.771-13.168,0.826c2.834-0.17-1.607-0.484,0.314-0.559l-8.408,0.841
		c-2,0.021-0.43-0.346-3.33-0.232c0.146,0.117-1.117,0.188-1.996,0.283c-0.758-0.051-8.34,0.108-9.209-0.324
		c-0.893-0.168,3.264-0.09,1.043-0.244c-3.695,0.004-3.863,0.152-7.566,0.159l-0.074-0.057c-2.441-0.065-7.201,0.183-4.549,0.422
		c1.703,0.014-0.645-0.26,1.877-0.134c-1.725,0.25-6.027,0.321-9.73,0.325c1.264-0.069,1.111-0.184,1.617-0.306
		c-4.977,0.339-10.25,0.446-15.809,0.588c-0.086,0.206,2.074-0.374,2.893-0.265c-7.123-0.286-14.709,0.404-20.635-0.013
		c0.971-0.036,0.518,0.292,0.451,0.235c-3.432-0.026-3.272-0.324-5.506-0.214c-0.225-0.175-2.812,0.056-5.113,0.11
		c-1.191,0.125-0.6-0.086,1.402-0.104c-3.205,0.147-16.041,0.415-23.449,0.161c0.148,0.116-4.547,0.424-6.25,0.411l0.664-0.27
		c-1.555-0.161-5.703,0.024-5.99-0.207c-3.639,0.327,14.012-0.28,9.09-0.027c-1.277-0.225-6.856,0.431-5.799,0.062
		c-3.416,0.011-6.736,0.314-10,0.061c0.943,0.044,2.771-0.375,0.012-0.355c-4.867,0.048-1.383,0.129-5.334,0.219l-2.473,0.111
		c-0.16,0.263-4.35-0.036-2.541,0.259c-0.598-0.217-7.068,0.133-6.57-0.303l0.68-0.344c-2.102,0.025-3.445,0.363-5.094,0.514
		c-0.279-0.032-0.832-0.101-0.725-0.156c-0.34,0.526-5.022-0.044-7.523,0.363c-4.408-0.183-11.205-0.017-13.285-0.345
		c-3.393,0.16-6.484,0.349-10.349,0.236c0.772-0.05,1.822-0.064,2.042-0.178c-2.428-0.155-3.026-0.016-5.247,0.069
		c0.499-0.078-4.855-0.308-7.555-0.494c-3.365,0.157-2.208,0.441-2.547,0.614c-3.079-0.519-9.516,0.335-13.373-0.136
		c1.17-0.071,4.921-0.255,2.115-0.386c-3.079-0.518-6.211,0.384-11.172,0.135l1.217,0.43c-2.215-0.267-7.309,0.251-6.803-0.188
		c-1.663,0.155-5.859-0.142-5.307,0.277c-8.153-0.356-19.838,0.215-24.845-0.539c-1.171,0.07-4.09-0.001-3.491,0.215
		c1.941,0.234,2.713-0.168,3.438-0.009c-1.051,0.013-1.277,0.129-1.39,0.187c-2.534-0.096-4.529-0.127-2.135-0.476
		c-5.639-0.26-5.819,0.715-13.001,0.551c0.326-0.175-0.219-0.24-2.321-0.213l-3.983,0.298c-4.642-0.069-2.64-0.396-2.753-0.691
		c-2.481,0.051-5.513,0.037-6.644,0.257l-3.012-0.37c2.201,0.267-2.042,0.178-3.205,0.25l1.163-0.072
		c-0.452-0.126-3.325-0.048-4.781-0.011c0.352,0.182,3.279,0.256,4.875,0.309c-1.264,0.13-3.239,0.099-4.921,0.252
		c0.558-0.289-4.044-0.206-6.012-0.236c-2.261-0.062-2.554,0.259-3.212,0.25c-0.06-0.15-3.691-0.026-1.929-0.236
		c0.772-0.049,1.763,0.146,3.039,0.014c-1.489-0.112-1.316-0.373-4.415-0.182c-2.328,0.142,0.598,0.57-3.818,0.387
		c1.157-0.071,1.37-0.187,2.275-0.291l-4.143-0.15l-0.18,0.264c-0.558-0.068-0.173-0.091-0.425-0.125
		c-1.237,0.277-6.325,0.085-7.262,0.397c-2.088,0.028-4.403-0.182-6.398-0.212l0.386-0.024c-2.441-0.154-5.679-0.053-7.727,0.125
		l0.106-0.057c-1.33-0.021-4.475,0.02-6.151,0.175c-3.359-0.198-1.124-0.994-4.848-0.663c-3.412,0.01-5.347,0.483-3.977,0.651
		c-6.131-0.177-13.1,0.253-18.786-0.157c-0.885,0.108-0.326,0.174-2.148,0.236c-9.005-0.104-19.02,0.312-26.189-0.206
		c2.607-0.11,0.174-0.263,0.12-0.413c-2.154,0.236-2.593-0.245-3.365,0.159c0.213,0.238,0,0.354,2.534,0.45
		C64.581,4.77,56.408,4.77,53.429,4.548c1.489,0.11,0.332,0.183-0.838,0.254c0.385-0.38-3.578-0.436-6.577-0.302l-0.42,0.231
		L43.64,4.493c-1.151,0.074-1.271,0.484-4.243,0.263c-0.16-0.09-0.333-0.181-0.878-0.247c-3.099,0.189-7.475,0.51-10.84,0.314
		l-2.753-0.337c-1.436,0.037-3.863,0.24-1.33,0.337C17.85,4.62,14.153,4.594,12.331,4.302C9.857,4.48,7.104,4.615,4.186,4.717
		l-2.217,0.07L1.406,4.803H1.397C0.095,6.383,3.161,2.65,2.846,3.04v0.021l0.001,0.043l0.001,0.087l0.004,0.171l0.005,0.344
		L2.88,5.09l0.072,5.645C3.025,18.346,3.021,26.2,3,33.187l-0.143-0.42c-0.133,3.756,0.25,1.955,0.151,4.572
		c-0.136-1.212-0.296,2.859-0.462-0.089c-0.15,5.371,0.247,6.922,0.311,10.411c0.188,0.534-0.119-2.811,0.119-2.132
		c0.066,0.598-0.147,7.431,0.136,8.263c-0.111,1.348-0.319,0.299-0.434-0.428l0.138,3.279c-0.331,4.014-0.592-9.143-0.999-4.927
		l0.044,3.021c-0.296,2.891-0.334-7.996-0.436-0.404c0.14,3.295,0.55,6.106,0.676,3.174c0.078,6.858,0.675,3.174,0.651,10.549
		c-0.166,2.011-0.04-5.904-0.273-4.483c-0.228,3.473,0.128,6.963,0.048,10.056c0.106-3.433,0.392-0.533,0.445,1.688
		c-0.134,3.748-0.269-2.439-0.298,2.876c0.164,0.872,0.286,5.758,0.4,1.534c0.371,1.923-0.102,5.525,0.185,8.416
		c-0.261,1.729-0.603-5.467-0.733,0.372c0.251-0.929,0.341,7.197,0.714,4.111c-0.072,2.286-0.27,2.528-0.424,0.865
		c-0.155,3.262,0.458,7.923-0.04,8.997l0.257,1.123c-0.084,1.025-0.147,2.488-0.286,4.16c-0.004,2.875,0.348,9.271-0.04,9.014
		c0.04,0.921,0.023,7.495,0.291,4.959c0.164-4.087-0.196-4.701,0.166-6.979c-0.295,2.892,0.04,5.896,0.138,8.255l-0.15,0.388
		c0.059,1.405,0.026,4.644,0.188,5.525c-0.085-1.083-0.188-0.518-0.224,0.597l0.228,1.477c0.114,5.711-0.401,1.35-0.334,6.906
		l-0.177-4.224c0.038,0.929-0.176,2.818-0.105,5.483c0.208,1.034,0.459,2.974,0.62,3.861c0.091,3.134-0.235,1.406-0.021,4.491
		l-0.251-4.038c-0.068-0.614-0.344,2.722-0.338,6.905c0.072,2.674,0.373,6.824,0.487,2.608c0.003,2.101-0.124,5.04-0.276,3.376
		c0.072,4.758,0.224-0.63,0.353,3.475c-0.138,1.68-0.336,6.914-0.538,10.063l-0.349-4.281l-0.002,2.844
		c-0.28-3.684-0.213,1.874-0.508-0.21c-0.046,1.945,0.054,4.305,0.131,6.186c0.472-5.695,0.645,6.373,1.075,4.717
		c0.117,7.804-1.046,4.878-0.373,13.013c0.112-1.333,0.439,2.496,0.314-2.415c-0.046,4.846,0.432,3.295,0.254,9.014
		c-0.176-4.232-0.435,4.548-0.692-1.567c0.143,0.404,0.108-3.416,0.069-4.354c-0.166,1.996-0.434-0.411-0.434,4.548
		c0.041,3.029,0.05,7.18,0.274,6.575c0.246-0.121-0.027-4.62,0.222-2.683c0.086,6.033-0.289,7.045,0.149,9.539
		c-0.035-3.812,0.218-4.765,0.388-4.692l0.102,4.426l-0.163-0.855c-0.118,7.107,0.296,2.1,0.252,8.981l-0.323,3.231
		c-0.278-1.64,0.124-10.017-0.329-8.788c-0.019,4.475,0.212,5.961,0.095,10.177c-0.04-0.936-0.051-2.221-0.091-3.15
		c-0.015,1.607-0.616,3.199-0.264,9.579c0.137,3.296,0.161,0.873,0.33,0.954c0.051,7.188,0.224,9.337,0.251,13.965
		c-0.331-0.954-0.032,8.183-0.371,3.069c0.194-2.35,0.175-12.745-0.141-15.29c-0.392,2.617,0.055-5.646-0.342-7.181
		c-0.009,5.759-0.395,5.477-0.648,6.405c-0.018,1.6,0.089,3.15,0.128,4.103c0.239,0.678,0.235-1.414,0.48-1.535
		c-0.065,6.43,0.069,12.625,0.301,16.17c-0.118,2.149-0.356,1.471-0.379-1.073c0.07,7.648,0.038,15.822-0.034,23.092
		c0.389-4.7,0.091,8.102,0.414,4.895c0.088-3.893,0.365-7.237,0.539-5.088c-0.025,2.431-0.171-0.081-0.254,0.936
		c0.213,3.102-0.34,4.814-0.005,7.858c-0.126-6.986-0.473-1.356-0.778-2.641c0.171,5.04-0.216-0.218-0.216,4.773
		c0.169,5.016,0.302,11.188,0.367,16.768c-0.288,7.011-0.004,17.761,0.007,24.021c-0.154,3.279-0.498,1.059-0.558,4.613
		c0.007,4.174,0.372-3.094,0.214,3.085l-0.068-0.599c0.079,1.874-0.234,11.333,0.26,13.157l-0.372-1.904
		c-0.034,1.154,0.052,2.221,0.092,3.173c-0.122,0.048-0.232,1.39-0.312-0.485c-0.257,3.814,0.041,8.006,0.051,12.149l0.221-2.665
		c0.173,7.092-0.046,11.841,0.031,18.706l-0.216-0.21l0.13,4.087c-0.21-1.002-0.345,2.747-0.17,4.901L0.985,371.35
		c0.127-2.949,0.26,3.223,0.473,1.374c0.188-1.576,0.128-7.926-0.081-8.951c-0.024,2.433,0.024,2.546,0.102,4.435
		c-0.3,0.799-0.289-2.892-0.49-4.717c0.013,1.276-0.078,3.085,0.017,3.36c-0.147-2.505-0.17-5.024-0.177-9.193
		c0.118,2.819,0.186-1.534,0.272-0.468c-0.265-0.331-0.347-4.312-0.272-9.466c0.306-3.677-0.197-9.668-0.113-15.639
		c0.269,2.425,0.484,5.517,0.592,9.146c0.134-3.749-0.008-4.168,0.127-7.925c-0.199-1.817-0.505-3.11-0.627-7.996l0.198-0.267
		c-0.101-4.426-0.394-4.426-0.339-10.065c0.097-9.66,0.097-19.603,0.122-26.978l0.197-0.274c-0.422-4.103-0.156-13.666-0.344-19.191
		c0.191-9.393-0.188-20.403,0.153-25.217c-0.153-16.582-0.301-31.08-0.229-48.252l0.288,2.891c-0.212-3.077,0.165-2.003,0.122-5.023
		c-0.229,3.473-0.298-4.185-0.473-6.309c0.223-7.648-0.02-17.471-0.222-24.247l0.198-0.267c-0.371-6.849-0.046-15.031,0.015-23.568
		c0.082-0.978,0.267-2.521,0.245-5.064c-0.319-4.628-0.296-7.051-0.496-13.845c0-4.96,0.079-13.012,0.204-18.052
		c-0.449-18.658-0.162-37.712-0.432-57.105l0.232-1.397C-0.001,33.68-0.012,23.198,0.006,13.06l0.017-7.516l0.003-1.843l0.001-0.458
		V3.128l0.001-0.057V3.042c-0.299,0.354,2.583-3.141,1.37-1.661h0.011l0.188,0.001l0.749,0.001l2.953,0.002
		c3.885-0.001,7.552-0.025,10.856-0.103l-1.277,0.482c4.143,0.149,9.443-0.125,8.386-0.468c4.156,0.148,10.367-0.233,13.007,0.163
		c4.243,0.089,5.194-0.223,8.725-0.287c8.499,0.182,11.651,0.141,19.664,0.051l-1.988-0.031c-0.877,0.107-0.958,0.311,1.038,0.343
		c2.992-0.135,10.999,0.129,8.019-0.446c8.553,0.332,19.951-0.27,28.277,0.178c-0.705-0.158,1.396-0.188,2.274-0.294
		c7.508-0.007,15.402,0.314,21.387,0.046c1.19,0.079-1.902,0.268,1.157,0.285c1.809-0.06,0.033-0.206,2.268-0.294
		c12.163-0.293,24.625,0.303,35.677,0.226c19.658-0.303,40.167-0.15,59-0.2l-0.213,0.115c6.304-0.441,14.796,0.452,19.831-0.212
		c1.489,0.109,5.692,0.052,4.588,0.274c5.021-0.312,14.058,0.294,21.32-0.102c-0.665-0.011-1.051,0.012-1.822,0.062
		c7.335,0.255,13.806-0.094,21.547,0.137c-0.785,0.05-2.215,0.086-2.448,0.202c2.993,0.221,7.089-0.488,8.726,0.069
		c1.715-0.005,1.224-0.28,0.172-0.264c16.945,0.218,35.033-0.138,52.67-0.265c12.635,0.333,0.772,0.937,10.738,0.522
		c0.82,0.107,0.594-0.213,0.725-0.097c3.859-0.156,6.014,0.621,8.686,0.33c-1.104-0.342,1.783-0.192,1.863-0.399
		c7.727,0.221,9.275,0.529,15.375,0.27l-0.459,0.18c7.148-0.508,15.434-0.236,21.467-0.822c39.422-0.107,77.207-0.432,115.645-0.5
		c18.996,0.056,37.795,0.018,56.668,0.005l14.17-0.003l7.105,0.005l3.559,0.005l0.891,0.002l0.445,0.001h0.221
		c-1.818-2.221,2.514,3.023,2.066,2.498v0.034v0.068v0.135l-0.004,2.164c-0.017,11.547-0.053,23.158-0.117,34.874
		c-0.389,10.977-0.377,11.8-0.221,23.859c-0.062-0.492-0.078-1.243-0.137-0.435c0.318,0.597,0.031,8.488,0.334,9.635
		c-0.059,17.325,0.029,33.286,0.031,51.112c-0.033-2.819-0.295-4.231-0.275-0.88l0.205,3.497l-0.09,0.573
		c0.047,2.294,0.205,4.79,0.309,2.423c0.275,44.78-0.365,88.832-0.287,132.689c-0.133,10.412-0.012,25.233,0.055,36.558
		c-0.424,33.535-0.769,63.769-0.471,97.845C604.635,397.2,603.809,392.751,603.62,378.679"/>
</g>
</svg>
