<?xml version="1.0" encoding="utf-8"?>
<!-- Generator: Adobe Illustrator 14.0.0, SVG Export Plug-In . SVG Version: 6.00 Build 43363)  -->
<!DOCTYPE svg PUBLIC "-//W3C//DTD SVG 1.1//EN" "http://www.w3.org/Graphics/SVG/1.1/DTD/svg11.dtd">
<svg version="1.1" id="Ebene_1" xmlns="http://www.w3.org/2000/svg" xmlns:xlink="http://www.w3.org/1999/xlink" x="0px" y="0px"
	 width="841.89px" height="595.28px" viewBox="0 0 841.89 595.28" enable-background="new 0 0 841.89 595.28" xml:space="preserve">
<g>
	<path fill="#E1D5BD" d="M794.484,483.768c-1.316-18.473-0.926-42.856-1.949-63.104c-0.092-2.379,0.514,0.598,0.275-4.752
		c-1.137-19.628-1.389-50.584-1.365-74.519l0.172,1.445c0.004-4.555-0.586-10.114-0.627-14.942c0.094-0.035,0.168,1.544,0.273,0.427
		c-0.311-1.208-0.322-8.729-0.578-10.771c0.07-1.908,0.297-1.73,0.369-4.197l-0.383-2.756c-0.932-7.666-0.354-18.662-0.979-29.141
		c0.086,0.506,0.166,1.545,0.221,0.711c-0.83-16.82-1.203-37.881-1.785-56.697c0.131,0.747,0.352,1.435,0.457,0.332
		c-0.359-0.925-0.572-6.732-0.748-11.774c0.299-2.28-0.508-8.643-0.445-14.564l0.09,0.506c-0.461-4.362,0.068-6.488-0.447-10.024
		l0.213-2.786c-0.531-1.903,0.115-6.331-0.213-9.938l-0.098,0.119c-0.193-3.402,0.016-5.18-0.137-8.341l0.049-0.301
		c-0.289-7.397-0.111-11.706-0.488-11.516c0.248-2.604,0.297,7.172,0.654,3.084c-0.465-12.165-0.812-24.523-1.113-36.903
		l-0.426-18.566l-0.1-4.631l-0.049-2.313l-0.025-1.155c0.248,0.546-0.582,0.165-0.82,0.294l-9.039,0.196
		c-2.729-0.098-4.469-0.106-5.086-0.241c-2.398,0.131-9.043,0.269-11.219,0.517c0.809-0.026-1.555-0.167-2.83-0.158
		c-4.371-0.052-4.766,0.533-9.57,0.463c1.908-0.146,2.559-0.286,1.91-0.417c-4.082,0.395-9.562,0.466-14.402,0.669
		c0.75-0.082,1.916-0.146,1.734-0.265c-5.291,0.461-9.66,0.138-14.291,0.457l1.725-0.263c-7.477-0.11-2.193,0.52-8.656,0.499
		c1.551-0.106,1.002-0.182,1.277-0.279c-6.016,0.54-15.768,0.618-21.773,0.888c0.359-0.039,0.26-0.099,0.26-0.099
		c-6.545,0.194-13.4,0.217-20.594,0.552c-2.625-0.043,0.842-0.568-6.086-0.334c0.262,0.447-11.762,0.442-7.666,0.865
		c-5.922,0.056-15.299,0.09-19.238,0.329c2.658-0.229-2.893-0.489,2.029-0.634l-3.73-0.194c0.551-0.197,3.83-0.021,2.643-0.229
		c-2.465,0.073-9.646,0.408-11.854,0.384c-4.564,0.377-8.75,0.985-16.145,1.204c3.475-0.253-1.986-0.455,0.371-0.585l-10.301,1.093
		c-2.457,0.075-0.539-0.347-4.096-0.151c0.182,0.117-1.367,0.224-2.443,0.345c-0.932-0.03-10.234,0.336-11.314-0.086
		c-1.098-0.149,4.006-0.18,1.277-0.279c-4.539,0.104-4.74,0.26-9.287,0.366l-0.092-0.058c-2.998-0.001-8.838,0.382-5.574,0.557
		c2.09-0.03-0.799-0.25,2.299-0.188c-2.109,0.304-7.391,0.492-11.938,0.596c1.551-0.104,1.359-0.22,1.979-0.358
		c-6.1,0.482-12.572,0.734-19.395,1.029c-0.1,0.214,2.539-0.44,3.545-0.351c-8.75-0.104-18.049,0.81-25.334,0.54
		c1.193-0.064,0.645,0.287,0.562,0.229c-4.213,0.066-4.025-0.246-6.764-0.072c-0.281-0.175-3.453,0.134-6.277,0.25
		c-1.459,0.161-0.736-0.072,1.721-0.145c-3.932,0.238-19.684,0.858-28.783,0.794c0.182,0.115-5.574,0.56-7.666,0.591l0.811-0.296
		c-1.914-0.125-7.004,0.177-7.359-0.053c-4.459,0.435,17.195-0.664,11.16-0.272c-1.574-0.197-8.408,0.629-7.119,0.221
		c-4.195,0.103-8.262,0.504-12.275,0.331c1.158,0.02,3.395-0.461,0.006-0.367c-5.975,0.181-1.695,0.171-6.541,0.369l-3.035,0.181
		c-0.191,0.275-5.34,0.079-3.113,0.334c-0.74-0.207-8.676,0.327-8.072-0.136l0.824-0.372c-2.58,0.082-4.221,0.466-6.242,0.666
		c-0.344-0.025-1.021-0.082-0.893-0.142c-0.404,0.552-6.164,0.09-9.227,0.575c-5.416-0.069-13.756,0.283-16.319,0.001
		c-4.16,0.255-7.952,0.533-12.698,0.521c0.946-0.072,2.235-0.115,2.503-0.238c-2.983-0.094-3.716,0.064-6.439,0.212
		c0.609-0.094-5.967-0.188-9.286-0.307c-4.128,0.252-2.701,0.514-3.113,0.701c-3.792-0.453-11.676,0.6-16.421,0.218
		c1.435-0.105,6.035-0.396,2.587-0.454c-3.791-0.452-7.616,0.561-13.712,0.438l1.503,0.411c-2.725-0.216-8.966,0.454-8.355-0.012
		c-2.038,0.204-7.196,0.009-6.508,0.428c-10.018-0.148-24.35,0.752-30.514,0.109c-1.435,0.104-5.021,0.109-4.281,0.314
		c2.389,0.19,3.327-0.244,4.221-0.1c-1.29,0.041-1.565,0.166-1.702,0.229c-3.114-0.031-5.563-0.01-2.632-0.434
		c-6.929-0.117-7.128,0.893-15.948,0.915c0.395-0.188-0.275-0.241-2.854-0.156l-4.884,0.413c-5.7,0.054-3.25-0.337-3.396-0.638
		c-3.044,0.119-6.767,0.186-8.15,0.443l-3.706-0.301c2.708,0.216-2.503,0.238-3.93,0.343l1.427-0.104
		c-0.558-0.118-4.083,0.039-5.87,0.116c0.437,0.178,4.031,0.176,5.991,0.188c-1.548,0.167-3.974,0.189-6.035,0.392
		c0.679-0.312-4.969-0.104-7.386-0.082c-2.778-0.003-3.13,0.336-3.938,0.344c-0.077-0.153-4.532,0.072-2.373-0.191
		c0.946-0.07,2.167,0.103,3.731-0.067c-1.831-0.075-1.624-0.349-5.424-0.069c-2.855,0.209,0.747,0.571-4.678,0.502
		c1.419-0.104,1.677-0.229,2.786-0.36l-5.09-0.044l-0.215,0.276c-0.687-0.055-0.214-0.089-0.525-0.118
		c-1.512,0.319-7.762,0.259-8.906,0.604c-2.563,0.085-5.409-0.07-7.859-0.048l0.473-0.034c-3-0.094-6.973,0.098-9.484,0.336
		l0.129-0.062c-1.633,0.014-5.493,0.141-7.547,0.345c-4.128-0.114-1.402-0.994-5.967-0.554c-4.188,0.102-6.553,0.642-4.868,0.778
		c-7.53-0.019-16.077,0.61-23.066,0.341c-1.084,0.134-0.397,0.188-2.632,0.302c-11.057,0.134-23.342,0.829-32.155,0.488
		c3.198-0.184,0.206-0.275,0.137-0.429c-2.639,0.301-3.189-0.183-4.127,0.254c0.267,0.24,0.008,0.365,3.121,0.396
		c-6.594,0.275-16.628,0.494-20.29,0.347c1.831,0.073,0.412,0.179-1.023,0.284c0.464-0.402-4.402-0.354-8.081-0.137l-0.51,0.25
		l-2.405-0.192c-1.411,0.106-1.549,0.533-5.203,0.385c-0.198-0.089-0.412-0.178-1.083-0.23c-3.801,0.277-9.165,0.726-13.301,0.613
		l-3.387-0.273c-1.763,0.077-4.738,0.351-1.625,0.383c-7.059-0.056-11.598,0.018-13.842-0.235c-3.033,0.25-6.41,0.463-9.99,0.646
		l-2.721,0.132l-0.69,0.031h-0.011c-1.564,1.663,2.117-2.267,1.739-1.856l0.001,0.022l0.002,0.044l0.003,0.089l0.008,0.177
		l0.015,0.354l0.06,1.426l0.214,5.814c0.262,7.842,0.433,15.937,0.564,23.137l-0.184-0.43c-0.079,3.875,0.35,2.009,0.287,4.707
		c-0.194-1.244-0.299,2.955-0.569-0.078c-0.064,5.539,0.459,7.126,0.617,10.721c0.242,0.545-0.21-2.895,0.097-2.201
		c0.095,0.615-0.013,7.662,0.353,8.512c-0.106,1.393-0.385,0.316-0.542-0.43L49.655,168c-0.317,4.146-0.932-9.406-1.338-5.051
		l0.123,3.111c-0.3,2.988-0.591-8.23-0.545-0.403c0.245,3.392,0.813,6.277,0.901,3.253c0.25,7.063,0.9,3.253,1.037,10.853
		c-0.159,2.077-0.182-6.084-0.436-4.613c-0.202,3.587,0.313,7.173,0.284,10.362c0.054-3.54,0.47-0.56,0.585,1.729
		c-0.081,3.864-0.385-2.507-0.301,2.971c0.22,0.894,0.481,5.927,0.526,1.571c0.498,1.971-0.002,5.695,0.416,8.668
		c-0.282,1.788-0.864-5.619-0.892,0.401c0.287-0.964,0.581,7.407,0.969,4.219c-0.037,2.356-0.275,2.611-0.501,0.901
		c-0.117,3.366,0.74,8.153,0.153,9.273l0.341,1.15c-0.08,1.06-0.124,2.567-0.257,4.293c0.059,2.965,0.636,9.547,0.154,9.291
		c0.069,0.947,0.196,7.724,0.468,5.103c0.109-4.216-0.346-4.839,0.047-7.196c-0.297,2.988,0.181,6.075,0.355,8.504l-0.175,0.403
		c0.104,1.447,0.136,4.786,0.355,5.688c-0.129-1.112-0.243-0.526-0.262,0.622l0.313,1.518c0.269,5.882-0.462,1.4-0.255,7.126
		l-0.312-4.35c0.067,0.956-0.153,2.91-0.005,5.655c0.278,1.061,0.629,3.051,0.848,3.962c0.182,3.228-0.257,1.455,0.075,4.628
		l-0.399-4.154c-0.098-0.632-0.362,2.814-0.26,7.126c0.148,2.753,0.611,7.022,0.656,2.675c0.052,2.164-0.038,5.197-0.263,3.486
		c0.196,4.901,0.262-0.655,0.512,3.57c-0.132,1.735-0.257,7.134-0.434,10.385l-0.524-4.401l0.06,2.93
		c-0.426-3.788-0.219,1.938-0.628-0.203c-0.012,2.007,0.163,4.436,0.301,6.373c0.45-5.881,0.934,6.55,1.425,4.832
		c0.319,8.037-1.175,5.055-0.166,13.419c0.108-1.377,0.596,2.561,0.332-2.498c0.052,4.996,0.604,3.385,0.515,9.283
		c-0.312-4.357-0.432,4.698-0.885-1.596c0.184,0.412,0.056-3.524-0.014-4.489c-0.158,2.061-0.542-0.412-0.43,4.698
		c0.118,3.121,0.222,7.397,0.484,6.768c0.3-0.131-0.137-4.76,0.213-2.769c0.24,6.215-0.197,7.266,0.396,9.826
		c-0.128-3.929,0.161-4.917,0.371-4.848l0.226,4.56l-0.22-0.877c0.014,7.326,0.411,2.154,0.512,9.248l-0.324,3.339
		c-0.379-1.683-0.074-10.325-0.603-9.048c0.079,4.611,0.395,6.138,0.346,10.484c-0.069-0.964-0.112-2.287-0.182-3.243
		c0.017,1.656-0.684,3.312-0.109,9.878c0.242,3.394,0.218,0.896,0.428,0.975c0.224,7.406,0.485,9.615,0.622,14.384
		c-0.428-0.974,0.144,8.433-0.387,3.173c0.186-2.427-0.071-13.139-0.516-15.752c-0.423,2.706-0.059-5.82-0.582-7.391
		c0.118,5.935-0.362,5.653-0.652,6.618c0.014,1.648,0.181,3.243,0.25,4.225c0.309,0.693,0.257-1.463,0.555-1.595
		c0.065,6.628,0.368,13.008,0.733,16.655c-0.097,2.218-0.404,1.525-0.489-1.097c0.258,7.881,0.402,16.305,0.477,23.798
		c0.372-4.854,0.294,8.347,0.619,5.033c0.02-4.015,0.285-7.468,0.546-5.258c0.024,2.506-0.211-0.079-0.289,0.972
		c0.33,3.191-0.31,4.97,0.17,8.1c-0.312-7.197-0.612-1.387-1.014-2.701c0.323,5.188-0.271-0.22-0.159,4.925
		c0.32,5.164,0.623,11.52,0.828,17.27c-0.196,7.232,0.394,18.304,0.549,24.754c-0.116,3.384-0.588,1.104-0.582,4.769
		c0.102,4.302,0.387-3.199,0.332,3.174l-0.097-0.615c0.14,1.93-0.032,11.686,0.615,13.553l-0.5-1.954
		c-0.016,1.19,0.113,2.288,0.184,3.268c-0.149,0.053-0.254,1.438-0.394-0.491c-0.229,3.936,0.23,8.249,0.336,12.519l0.211-2.752
		c0.372,7.303,0.21,12.203,0.459,19.274l-0.27-0.21l0.251,4.209c-0.279-1.027-0.361,2.839-0.097,5.056l-0.888-10.924
		c0.09-3.041,0.392,3.315,0.612,1.404c0.193-1.63-0.022-8.17-0.301-9.222c0.026,2.507,0.087,2.623,0.225,4.568
		c-0.351,0.831-0.419-2.973-0.707-4.848c0.044,1.314-0.027,3.181,0.095,3.462c-0.236-2.578-0.32-5.173-0.423-9.469
		c0.208,2.902,0.194-1.585,0.323-0.489c-0.332-0.334-0.522-4.435-0.547-9.748c0.293-3.796-0.459-9.958-0.489-16.111
		c0.383,2.49,0.717,5.672,0.931,9.407c0.081-3.866-0.103-4.295-0.021-8.17c-0.286-1.867-0.691-3.191-0.95-8.223l0.236-0.279
		c-0.223-4.559-0.583-4.551-0.641-10.362c-0.099-9.959-0.322-20.204-0.458-27.805l0.236-0.289
		c-0.611-4.216-0.499-14.079-0.853-19.766c0.022-9.687-0.69-21.021-0.38-25.991c-0.56-17.084-1.068-32.02-1.366-49.718l0.418,2.972
		c-0.328-3.166,0.158-2.068,0.038-5.181c-0.204,3.585-0.46-4.304-0.724-6.488c0.103-7.888-0.417-18.003-0.817-24.98l0.237-0.28
		c-0.609-7.049-0.394-15.489-0.511-24.288c0.078-1.01,0.271-2.604,0.187-5.226c-0.496-4.762-0.523-7.26-0.921-14.254
		c-0.111-5.11-0.195-13.41-0.156-18.607c-0.97-19.216-1.046-38.859-1.814-58.836l0.254-1.446
		c-0.516-9.683-0.766-20.483-0.971-30.931l-0.148-7.747l-0.037-1.899l-0.01-0.472l-0.002-0.118l-0.001-0.059l-0.001-0.03
		c-0.358,0.372,3.102-3.306,1.645-1.748l0.014-0.001l0.231-0.004l0.92-0.02l3.624-0.075c4.77-0.106,9.272-0.229,13.325-0.397
		l-1.556,0.53c5.089,0.043,11.59-0.382,10.284-0.706c5.106,0.041,12.722-0.519,15.973-0.181c5.21-0.022,6.371-0.369,10.705-0.53
		c10.438-0.04,14.306-0.167,24.142-0.475l-2.441,0.022c-1.076,0.133-1.169,0.346,1.281,0.325c3.67-0.219,13.506-0.162,9.835-0.675
		c10.507,0.113,24.487-0.812,34.719-0.574c-0.87-0.144,1.71-0.23,2.785-0.363c9.217-0.208,18.915-0.089,26.257-0.524
		c1.463,0.049-2.329,0.326,1.427,0.262c2.219-0.111,0.036-0.213,2.777-0.364c14.926-0.628,30.239-0.347,43.806-0.722
		c24.126-0.84,49.308-1.231,72.427-1.787l-0.258,0.124c7.729-0.623,18.175,0.068,24.34-0.75c1.832,0.073,6.99-0.1,5.64,0.16
		c6.156-0.456,17.265-0.074,26.172-0.678c-0.817,0.008-1.29,0.041-2.236,0.113c9.011,0.067,16.946-0.466,26.455-0.435
		c-0.962,0.071-2.717,0.146-3,0.271c3.679,0.148,8.692-0.691,10.713-0.162c2.106-0.051,1.496-0.32,0.206-0.275
		c20.807-0.23,43.006-1.081,64.655-1.686c15.518,0.005,0.967,0.946,13.195,0.251c1.008,0.088,0.723-0.234,0.889-0.12
		c4.732-0.263,7.395,0.48,10.67,0.108c-1.363-0.323,2.184-0.245,2.277-0.461c9.49,0.021,11.4,0.297,18.881-0.134l-0.561,0.197
		c8.766-0.715,18.945-0.655,26.336-1.422c48.395-1.166,94.775-2.514,141.963-3.612c23.322-0.452,46.398-0.994,69.568-1.514
		l17.398-0.383l8.721-0.184l4.369-0.091l1.094-0.022l0.547-0.011l0.273-0.005c-2.283-2.241,3.152,3.047,2.59,2.518v0.036
		l0.002,0.069l0.004,0.139l0.043,2.23c0.24,11.9,0.457,23.866,0.643,35.941c-0.23,11.322-0.199,12.17,0.266,24.593
		c-0.088-0.506-0.123-1.278-0.178-0.444c0.404,0.606,0.229,8.747,0.627,9.921c0.316,17.854,0.783,34.3,1.186,52.67
		c-0.104-2.904-0.457-4.354-0.355-0.9l0.33,3.6l-0.1,0.593c0.111,2.362,0.361,4.93,0.436,2.487
		c1.346,46.14,1.547,91.553,2.631,136.747c0.07,10.733,0.553,26.003,0.889,37.671c0.232,34.57,0.49,65.735,1.621,100.844
		C796.146,502.827,795.033,498.264,794.484,483.768"/>
</g>
</svg>
