<?xml version="1.0" encoding="utf-8"?>
<!-- Generator: Adobe Illustrator 19.1.0, SVG Export Plug-In . SVG Version: 6.00 Build 0)  -->
<svg version="1.1" id="Layer_1" xmlns="http://www.w3.org/2000/svg" xmlns:xlink="http://www.w3.org/1999/xlink" x="0px" y="0px"
	 viewBox="0 0 743.4 510.4" style="enable-background:new 0 0 743.4 510.4;" xml:space="preserve">
<style type="text/css">
	.st0{fill:#FFFFFF;}
	.st1{fill:#DFD3BB;}
	.st2{fill:none;}
</style>
<rect x="0.9" y="0.6" class="st0" width="741.9" height="509.8"/>
<path class="st1" d="M1.1,405.4c0.1,5.7,0.3-3.1,0.1,3.8C1.1,408.4,0.9,407.3,1.1,405.4"/>
<path class="st1" d="M741.2,390.3c-0.9-18.5,0-42.9-0.6-63.1c0-2.4,0.5,0.6,0.4-4.7c-0.7-19.6-0.3-50.6,0.3-74.5l0.1,1.4
	c0.1-4.6-0.4-10.1-0.3-15c0.1,0,0.1,1.5,0.3,0.4c-0.3-1.2-0.1-8.7-0.3-10.8c0.1-1.9,0.3-1.7,0.5-4.2l-0.3-2.8
	c-0.8-7.7,0.1-18.7-0.3-29.2c0.1,0.5,0.1,1.5,0.2,0.7c-0.5-16.8-0.4-37.9-0.5-56.7c0.1,0.8,0.3,1.4,0.5,0.3
	c-0.3-0.9-0.4-6.7-0.5-11.8c0.3-2.3-0.3-8.7-0.1-14.6l0.1,0.5c-0.4-4.4,0.2-6.5-0.2-10l0.3-2.8c-0.5-1.9,0.3-6.3,0-9.9l-0.1,0.1
	c-0.1-3.4,0.1-5.2,0-8.3l0.1-0.3c-0.1-7.4,0.1-11.7-0.2-11.5c0.3-2.6,0.1,7.2,0.6,3.1c-0.2-12.2-0.3-24.5-0.3-36.9l0-18.6V6.6l0-2.3
	V3.1c0.2,0.6-0.6,0.2-0.8,0.3h-9c-2.7-0.2-4.5-0.2-5.1-0.4c-2.4,0.1-9,0.1-11.2,0.3c0.8,0-1.6-0.2-2.8-0.2c-4.4-0.1-4.8,0.4-9.6,0.3
	c1.9-0.1,2.6-0.2,1.9-0.4c-4.1,0.3-9.6,0.3-14.4,0.4c0.8-0.1,1.9-0.1,1.7-0.2c-5.3,0.3-9.7-0.1-14.3,0.1l1.7-0.2
	c-7.5-0.3-2.2,0.5-8.7,0.3c1.6-0.1,1-0.2,1.3-0.3c-6,0.4-15.8,0.3-21.8,0.4c0.4,0,0.3-0.1,0.3-0.1c-6.5,0.1-13.4-0.1-20.6,0.1
	c-2.6-0.1,0.9-0.5-6.1-0.5c0.3,0.5-11.8,0.2-7.7,0.7c-5.9-0.1-15.3-0.2-19.2-0.1c2.7-0.2-2.9-0.6,2-0.6l-3.7-0.3
	c0.6-0.2,3.8,0.1,2.6-0.2c-2.5,0-9.7,0.2-11.9,0.1c-4.6,0.3-8.8,0.8-16.2,0.9c3.5-0.2-2-0.5,0.4-0.6l-10.3,0.9
	c-2.5,0-0.5-0.4-4.1-0.2c0.2,0.1-1.4,0.2-2.4,0.3c-0.9-0.1-10.2,0.1-11.3-0.3c-1.1-0.2,4-0.1,1.3-0.3c-4.5,0-4.7,0.2-9.3,0.2
	l-0.1-0.1c-3-0.1-8.8,0.2-5.6,0.4c2.1,0-0.8-0.3,2.3-0.1c-2.1,0.3-7.4,0.3-11.9,0.3c1.6-0.1,1.4-0.2,2-0.3
	c-6.1,0.3-12.6,0.5-19.4,0.6C500.4,4.6,503,4,504,4.1c-8.7-0.3-18.1,0.4-25.3,0c1.2,0,0.6,0.3,0.6,0.2c-4.2,0-4-0.3-6.8-0.2
	c-0.3-0.2-3.5,0.1-6.3,0.1c-1.5,0.1-0.7-0.1,1.7-0.1c-3.9,0.2-19.7,0.4-28.8,0.2c0.2,0.1-5.6,0.4-7.7,0.4l0.8-0.3
	c-1.9-0.2-7,0-7.4-0.2c-4.5,0.3,17.2-0.3,11.2,0c-1.6-0.2-8.4,0.4-7.1,0.1c-4.2,0-8.3,0.3-12.3,0.1c1.2,0,3.4-0.4,0-0.4
	c-6,0-1.7,0.1-6.5,0.2l-3,0.1c-0.2,0.3-5.3,0-3.1,0.3c-0.7-0.2-8.7,0.1-8.1-0.3l0.8-0.4c-2.6,0-4.2,0.4-6.3,0.5
	c-0.3,0-1-0.1-0.9-0.2c-0.4,0.5-6.2,0-9.2,0.4c-5.4-0.2-13.8,0-16.3-0.4c-4.2,0.2-8,0.4-12.7,0.2c0.9-0.1,2.2-0.1,2.5-0.2
	c-3-0.2-3.7,0-6.4,0.1c0.6-0.1-6-0.3-9.3-0.5c-4.1,0.2-2.7,0.5-3.1,0.6c-3.8-0.5-11.7,0.3-16.4-0.1c1.4-0.1,6-0.3,2.6-0.4
	c-3.8-0.5-7.6,0.4-13.7,0.1l1.5,0.4c-2.7-0.3-9,0.3-8.4-0.2c-2,0.2-7.2-0.1-6.5,0.3c-10-0.4-24.4,0.2-30.5-0.6c-1.4,0.1-5,0-4.3,0.2
	c2.4,0.2,3.3-0.2,4.2,0c-1.3,0-1.6,0.1-1.7,0.2c-3.1-0.1-5.6-0.1-2.6-0.5c-6.9-0.3-7.1,0.7-16,0.6c0.4-0.2-0.3-0.2-2.8-0.2l-4.9,0.3
	c-5.7-0.1-3.2-0.4-3.4-0.7c-3,0.1-6.8,0-8.2,0.3l-3.7-0.4c2.7,0.3-2.5,0.2-3.9,0.3l1.4-0.1c-0.6-0.1-4.1,0-5.9,0
	c0.4,0.2,4,0.3,6,0.3c-1.6,0.1-4,0.1-6,0.3c0.7-0.3-5-0.2-7.4-0.2c-2.8-0.1-3.1,0.3-3.9,0.3c-0.1-0.2-4.5,0-2.4-0.2
	c0.9,0,2.2,0.2,3.7,0c-1.8-0.1-1.6-0.4-5.4-0.2c-2.9,0.1,0.7,0.6-4.7,0.4c1.4-0.1,1.7-0.2,2.8-0.3l-5.1-0.2l-0.2,0.3
	c-0.7-0.1-0.2-0.1-0.5-0.1c-1.5,0.3-7.8,0.1-8.9,0.4c-2.6,0-5.4-0.2-7.9-0.2l0.5,0c-3-0.2-7-0.1-9.5,0.1l0.1-0.1
	c-1.6,0-5.5,0-7.6,0.2c-4.1-0.2-1.4-1-6-0.7c-4.2,0-6.6,0.5-4.9,0.7c-7.5-0.2-16.1,0.3-23.1-0.2c-1.1,0.1-0.4,0.2-2.6,0.2
	c-11.1-0.1-23.4,0.3-32.2-0.2C90,4.5,87,4.3,86.9,4.2c-2.6,0.2-3.2-0.3-4.1,0.2c0.3,0.2,0,0.4,3.1,0.5c-6.6,0.1-16.6,0.1-20.3-0.1
	c1.8,0.1,0.4,0.2-1,0.3c0.5-0.4-4.4-0.5-8.1-0.3L56,4.9l-2.4-0.2c-1.4,0.1-1.6,0.5-5.2,0.3c-0.2-0.1-0.4-0.2-1.1-0.3
	C43.5,4.8,38.1,5.2,34,5l-3.4-0.3c-1.8,0-4.7,0.2-1.6,0.3c-7.1-0.2-11.6-0.2-13.8-0.5c-3,0.2-6.4,0.3-10,0.4L2.4,4.9L1.7,5h0
	C0.1,6.6,3.9,2.7,3.5,3.1v0l0,0l0,0.1l0,0.2l0,0.4l0,1.4l0.1,5.8C3.7,18.9,3.7,27,3.7,34.2l-0.2-0.4c-0.2,3.9,0.3,2,0.2,4.7
	c-0.2-1.2-0.4,2.9-0.6-0.1c-0.2,5.5,0.3,7.1,0.4,10.7c0.2,0.5-0.1-2.9,0.1-2.2c0.1,0.6-0.2,7.7,0.2,8.5c-0.1,1.4-0.4,0.3-0.5-0.4
	l0.2,3.4c-0.4,4.1-0.7-9.4-1.2-5.1l0.1,3.1c-0.4,3-0.4-8.2-0.5-0.4c0.2,3.4,0.7,6.3,0.8,3.3c0.1,7.1,0.8,3.3,0.8,10.9
	c-0.2,2.1,0-6.1-0.3-4.6c-0.3,3.6,0.2,7.2,0.1,10.4c0.1-3.5,0.5-0.5,0.5,1.7c-0.2,3.9-0.3-2.5-0.4,3c0.2,0.9,0.4,5.9,0.5,1.6
	c0.5,2-0.1,5.7,0.2,8.7c-0.3,1.8-0.7-5.6-0.9,0.4c0.3-1,0.4,7.4,0.9,4.2c-0.1,2.4-0.3,2.6-0.5,0.9c-0.2,3.4,0.6,8.2,0,9.3l0.3,1.2
	c-0.1,1.1-0.2,2.6-0.4,4.3c0,3,0.4,9.6,0,9.3c0,0.9,0,7.7,0.4,5.1c0.2-4.2-0.2-4.8,0.2-7.2c-0.4,3,0,6.1,0.2,8.5l-0.2,0.4
	c0.1,1.4,0,4.8,0.2,5.7c-0.1-1.1-0.2-0.5-0.3,0.6l0.3,1.5c0.1,5.9-0.5,1.4-0.4,7.1l-0.2-4.4c0,1-0.2,2.9-0.1,5.7
	c0.3,1.1,0.6,3.1,0.8,4c0.1,3.2-0.3,1.4,0,4.6l-0.3-4.2c-0.1-0.6-0.4,2.8-0.4,7.1c0.1,2.8,0.5,7,0.6,2.7c0,2.2-0.2,5.2-0.3,3.5
	c0.1,4.9,0.3-0.6,0.4,3.6c-0.2,1.7-0.4,7.1-0.7,10.4L3,170.7l0,2.9c-0.3-3.8-0.3,1.9-0.6-0.2c-0.1,2,0.1,4.4,0.2,6.4
	c0.6-5.9,0.8,6.6,1.3,4.9c0.1,8-1.3,5-0.5,13.4c0.1-1.4,0.5,2.6,0.4-2.5c-0.1,5,0.5,3.4,0.3,9.3c-0.2-4.4-0.5,4.7-0.8-1.6
	c0.2,0.4,0.1-3.5,0.1-4.5c-0.2,2.1-0.5-0.4-0.5,4.7c0.1,3.1,0.1,7.4,0.3,6.8c0.3-0.1,0-4.8,0.3-2.8c0.1,6.2-0.4,7.3,0.2,9.8
	c0-3.9,0.3-4.9,0.5-4.8l0.1,4.6L4,216.2c-0.1,7.3,0.4,2.2,0.3,9.3l-0.4,3.3c-0.3-1.7,0.2-10.3-0.4-9.1c0,4.6,0.3,6.1,0.1,10.5
	c0-1-0.1-2.3-0.1-3.2c0,1.7-0.8,3.3-0.3,9.9c0.2,3.4,0.2,0.9,0.4,1c0.1,7.4,0.3,9.6,0.3,14.4c-0.4-1,0,8.4-0.5,3.2
	c0.2-2.4,0.2-13.1-0.2-15.8c-0.5,2.7,0.1-5.8-0.4-7.4c0,5.9-0.5,5.6-0.8,6.6c0,1.6,0.1,3.2,0.2,4.2c0.3,0.7,0.3-1.5,0.6-1.6
	c-0.1,6.6,0.1,13,0.4,16.7c-0.1,2.2-0.4,1.5-0.5-1.1c0.1,7.9,0,16.3,0,23.8c0.5-4.8,0.1,8.4,0.5,5c0.1-4,0.4-7.5,0.7-5.2
	c0,2.5-0.2-0.1-0.3,1c0.3,3.2-0.4,5,0,8.1c-0.2-7.2-0.6-1.4-1-2.7c0.2,5.2-0.3-0.2-0.3,4.9c0.2,5.2,0.4,11.5,0.5,17.3
	c-0.4,7.2,0,18.3,0,24.8c-0.2,3.4-0.6,1.1-0.7,4.8c0,4.3,0.5-3.2,0.3,3.2l-0.1-0.6c0.1,1.9-0.3,11.7,0.3,13.6l-0.5-2
	c0,1.2,0.1,2.3,0.1,3.3c-0.1,0-0.3,1.4-0.4-0.5c-0.3,3.9,0.1,8.3,0.1,12.5l0.3-2.7c0.2,7.3-0.1,12.2,0,19.3l-0.3-0.2l0.2,4.2
	c-0.3-1-0.4,2.8-0.2,5.1l-0.6-10.9c0.2-3,0.3,3.3,0.6,1.4c0.2-1.6,0.2-8.2-0.1-9.2c0,2.5,0,2.6,0.1,4.6c-0.4,0.8-0.4-3-0.6-4.9
	c0,1.3-0.1,3.2,0,3.5C1.1,375.6,1,373,1,368.7c0.1,2.9,0.2-1.6,0.3-0.5c-0.3-0.3-0.4-4.4-0.3-9.8c0.4-3.8-0.2-10-0.1-16.1
	c0.3,2.5,0.6,5.7,0.7,9.4c0.2-3.9,0-4.3,0.2-8.2c-0.2-1.9-0.6-3.2-0.8-8.2l0.2-0.3c-0.1-4.6-0.5-4.6-0.4-10.4
	c0.1-10,0.1-20.2,0.1-27.8l0.2-0.3c-0.5-4.2-0.2-14.1-0.4-19.8c0.2-9.7-0.2-21,0.2-26c-0.2-17.1-0.4-32-0.3-49.7l0.4,3
	c-0.3-3.2,0.2-2.1,0.1-5.2c-0.3,3.6-0.4-4.3-0.6-6.5c0.3-7.9,0-18-0.3-25l0.2-0.3c-0.5-7.1-0.1-15.5,0-24.3c0.1-1,0.3-2.6,0.3-5.2
	c-0.4-4.8-0.4-7.3-0.6-14.3c0-5.1,0.1-13.4,0.2-18.6C0,85.5,0.4,65.8,0,45.8l0.3-1.4C0,34.7,0,23.9,0,13.5l0-7.7l0-1.9l0-0.5V3.2
	V3.2v0c-0.4,0.4,3.2-3.2,1.7-1.7h0H2l0.9,0l3.6,0c4.8,0,9.3,0,13.3-0.1l-1.6,0.5C23.4,2,29.9,1.7,28.6,1.3c5.1,0.2,12.7-0.2,16,0.2
	c5.2,0.1,6.4-0.2,10.7-0.3c10.4,0.2,14.3,0.1,24.1,0.1l-2.4,0c-1.1,0.1-1.2,0.3,1.3,0.4c3.7-0.1,13.5,0.1,9.8-0.5
	c10.5,0.3,24.5-0.3,34.7,0.2c-0.9-0.2,1.7-0.2,2.8-0.3c9.2,0,18.9,0.3,26.3,0c1.5,0.1-2.3,0.3,1.4,0.3c2.2-0.1,0-0.2,2.8-0.3
	c14.9-0.3,30.2,0.3,43.8,0.2C224,1,249.2,1.1,272.3,1.1l-0.3,0.1c7.7-0.5,18.2,0.5,24.4-0.2c1.8,0.1,7,0.1,5.6,0.3
	c6.2-0.3,17.3,0.3,26.2-0.1c-0.8,0-1.3,0-2.2,0.1c9,0.3,17-0.1,26.5,0.1c-1,0.1-2.7,0.1-3,0.2c3.7,0.2,8.7-0.5,10.7,0.1
	c2.1,0,1.5-0.3,0.2-0.3c20.8,0.2,43-0.1,64.7-0.3c15.5,0.3,0.9,1,13.2,0.5c1,0.1,0.7-0.2,0.9-0.1c4.7-0.2,7.4,0.6,10.7,0.3
	c-1.4-0.4,2.2-0.2,2.3-0.4c9.5,0.2,11.4,0.5,18.9,0.3l-0.6,0.2c8.8-0.5,19-0.2,26.4-0.8c48.4-0.1,94.8-0.4,142-0.5
	c23.3,0.1,46.4,0,69.6,0l17.4,0l8.7,0l4.4,0l1.1,0l0.5,0l0.3,0c-2.2-2.3,3.1,3.1,2.5,2.6v0v0.1v0.1l0,2.2c0,11.9-0.1,23.9-0.1,35.9
	c-0.5,11.3-0.5,12.2-0.3,24.6c-0.1-0.5-0.1-1.3-0.2-0.4c0.4,0.6,0,8.8,0.4,9.9c-0.1,17.9,0,34.3,0,52.7c0-2.9-0.4-4.4-0.3-0.9
	l0.3,3.6l-0.1,0.6c0.1,2.4,0.3,4.9,0.4,2.5c0.3,46.2-0.4,91.6-0.4,136.8c-0.2,10.7,0,26,0.1,37.7c-0.5,34.6-0.9,65.7-0.6,100.9
	C742.5,409.4,741.5,404.8,741.2,390.3"/>
<path class="st1" d="M1,398.5c0.2-1.2,0.3-5.3,0.6-2C1.4,396.9,1.2,398.9,1,398.5"/>
<path class="st1" d="M3,291.2c-0.1-0.1,0.1-1.5,0.1-1.9c0,1.3,0.2,2.6,0.1,3.6C3.2,291.6,3.1,291.8,3,291.2"/>
<path class="st1" d="M3.2,263.7c0.2,0.4,0.3,6.3,0.3,9.8L3.2,263.7z"/>
<path class="st1" d="M3.9,238.2c0.1-2.2,0.2-1.6,0.2,1.4C4,239.7,4,238.8,3.9,238.2"/>
<path class="st1" d="M3.5,236.3c0-2.1,0.1-3.2,0.2-4.2C3.5,232.2,3.8,237,3.5,236.3"/>
<path class="st1" d="M4,180.8c0-1.3-0.2-4.2,0-5.5C3.9,176.7,4.2,181.9,4,180.8"/>
<path class="st1" d="M3.7,155c0-0.8,0-1.2,0-2.1c0.1-1.5,0.2,0.1,0.2,1.4L3.7,155z"/>
<rect x="-213.3" y="-161.6" class="st2" width="1170" height="792"/>
<polygon class="st1" points="310.7,4.6 313.4,4.5 311.1,4.4 "/>
<path class="st1" d="M515.3,4.5c2.7-0.1,1.9,0.2,2.4,0.2C515.2,4.7,518.6,4.4,515.3,4.5"/>
<polygon class="st1" points="623.3,3.6 624.2,3.6 623.6,3.2 "/>
</svg>
