<?xml version="1.0" encoding="utf-8"?>
<!-- Generator: Adobe Illustrator 19.1.0, SVG Export Plug-In . SVG Version: 6.00 Build 0)  -->
<svg version="1.1" id="Layer_1" xmlns="http://www.w3.org/2000/svg" xmlns:xlink="http://www.w3.org/1999/xlink" x="0px" y="0px"
	 viewBox="322 -205.4 743.4 510.4" style="enable-background:new 322 -205.4 743.4 510.4;" xml:space="preserve">
<style type="text/css">
	.st0{fill:#DFD3BB;}
	.st1{fill:none;}
</style>
<path class="st0" d="M323.1,200c0.1,5.7,0.3-3.1,0.1,3.8C323.1,203,322.9,201.9,323.1,200"/>
<path class="st0" d="M1063.2,184.9c-0.9-18.5,0-42.9-0.6-63.1c0-2.4,0.5,0.6,0.4-4.7c-0.7-19.6-0.3-50.6,0.3-74.5l0.1,1.4
	c0.1-4.6-0.4-10.1-0.3-15c0.1,0,0.1,1.5,0.3,0.4c-0.3-1.2-0.1-8.7-0.3-10.8c0.1-1.9,0.3-1.7,0.5-4.2l-0.3-2.8
	c-0.8-7.7,0.1-18.7-0.3-29.2c0.1,0.5,0.1,1.5,0.2,0.7c-0.5-16.8-0.4-37.9-0.5-56.7c0.1,0.8,0.3,1.4,0.5,0.3
	c-0.3-0.9-0.4-6.7-0.5-11.8c0.3-2.3-0.3-8.7-0.1-14.6l0.1,0.5c-0.4-4.4,0.2-6.5-0.2-10l0.3-2.8c-0.5-1.9,0.3-6.3,0-9.9l-0.1,0.1
	c-0.1-3.4,0.1-5.2,0-8.3l0.1-0.3c-0.1-7.4,0.1-11.7-0.2-11.5c0.3-2.6,0.1,7.2,0.6,3.1c-0.2-12.2-0.3-24.5-0.3-36.9v-18.6v-4.5v-2.3
	v-1.2c0.2,0.6-0.6,0.2-0.8,0.3h-9c-2.7-0.2-4.5-0.2-5.1-0.4c-2.4,0.1-9,0.1-11.2,0.3c0.8,0-1.6-0.2-2.8-0.2
	c-4.4-0.1-4.8,0.4-9.6,0.3c1.9-0.1,2.6-0.2,1.9-0.4c-4.1,0.3-9.6,0.3-14.4,0.4c0.8-0.1,1.9-0.1,1.7-0.2c-5.3,0.3-9.7-0.1-14.3,0.1
	l1.7-0.2c-7.5-0.3-2.2,0.5-8.7,0.3c1.6-0.1,1-0.2,1.3-0.3c-6,0.4-15.8,0.3-21.8,0.4c0.4,0,0.3-0.1,0.3-0.1
	c-6.5,0.1-13.4-0.1-20.6,0.1c-2.6-0.1,0.9-0.5-6.1-0.5c0.3,0.5-11.8,0.2-7.7,0.7c-5.9-0.1-15.3-0.2-19.2-0.1c2.7-0.2-2.9-0.6,2-0.6
	l-3.7-0.3c0.6-0.2,3.8,0.1,2.6-0.2c-2.5,0-9.7,0.2-11.9,0.1c-4.6,0.3-8.8,0.8-16.2,0.9c3.5-0.2-2-0.5,0.4-0.6l-10.3,0.9
	c-2.5,0-0.5-0.4-4.1-0.2c0.2,0.1-1.4,0.2-2.4,0.3c-0.9-0.1-10.2,0.1-11.3-0.3c-1.1-0.2,4-0.1,1.3-0.3c-4.5,0-4.7,0.2-9.3,0.2
	l-0.1-0.1c-3-0.1-8.8,0.2-5.6,0.4c2.1,0-0.8-0.3,2.3-0.1c-2.1,0.3-7.4,0.3-11.9,0.3c1.6-0.1,1.4-0.2,2-0.3
	c-6.1,0.3-12.6,0.5-19.4,0.6c-0.5,0.3,2.1-0.3,3.1-0.2c-8.7-0.3-18.1,0.4-25.3,0c1.2,0,0.6,0.3,0.6,0.2c-4.2,0-4-0.3-6.8-0.2
	c-0.3-0.2-3.5,0.1-6.3,0.1c-1.5,0.1-0.7-0.1,1.7-0.1c-3.9,0.2-19.7,0.4-28.8,0.2c0.2,0.1-5.6,0.4-7.7,0.4l0.8-0.3
	c-1.9-0.2-7,0-7.4-0.2c-4.5,0.3,17.2-0.3,11.2,0c-1.6-0.2-8.4,0.4-7.1,0.1c-4.2,0-8.3,0.3-12.3,0.1c1.2,0,3.4-0.4,0-0.4
	c-6,0-1.7,0.1-6.5,0.2l-3,0.1c-0.2,0.3-5.3,0-3.1,0.3c-0.7-0.2-8.7,0.1-8.1-0.3l0.8-0.4c-2.6,0-4.2,0.4-6.3,0.5
	c-0.3,0-1-0.1-0.9-0.2c-0.4,0.5-6.2,0-9.2,0.4c-5.4-0.2-13.8,0-16.3-0.4c-4.2,0.2-8,0.4-12.7,0.2c0.9-0.1,2.2-0.1,2.5-0.2
	c-3-0.2-3.7,0-6.4,0.1c0.6-0.1-6-0.3-9.3-0.5c-4.1,0.2-2.7,0.5-3.1,0.6c-3.8-0.5-11.7,0.3-16.4-0.1c1.4-0.1,6-0.3,2.6-0.4
	c-3.8-0.5-7.6,0.4-13.7,0.1l1.5,0.4c-2.7-0.3-9,0.3-8.4-0.2c-2,0.2-7.2-0.1-6.5,0.3c-10-0.4-24.4,0.2-30.5-0.6c-1.4,0.1-5,0-4.3,0.2
	c2.4,0.2,3.3-0.2,4.2,0c-1.3,0-1.6,0.1-1.7,0.2c-3.1-0.1-5.6-0.1-2.6-0.5c-6.9-0.3-7.1,0.7-16,0.6c0.4-0.2-0.3-0.2-2.8-0.2l-4.9,0.3
	c-5.7-0.1-3.2-0.4-3.4-0.7c-3,0.1-6.8,0-8.2,0.3l-3.7-0.4c2.7,0.3-2.5,0.2-3.9,0.3l1.4-0.1c-0.6-0.1-4.1,0-5.9,0
	c0.4,0.2,4,0.3,6,0.3c-1.6,0.1-4,0.1-6,0.3c0.7-0.3-5-0.2-7.4-0.2c-2.8-0.1-3.1,0.3-3.9,0.3c-0.1-0.2-4.5,0-2.4-0.2
	c0.9,0,2.2,0.2,3.7,0c-1.8-0.1-1.6-0.4-5.4-0.2c-2.9,0.1,0.7,0.6-4.7,0.4c1.4-0.1,1.7-0.2,2.8-0.3l-5.1-0.2l-0.2,0.3
	c-0.7-0.1-0.2-0.1-0.5-0.1c-1.5,0.3-7.8,0.1-8.9,0.4c-2.6,0-5.4-0.2-7.9-0.2h0.5c-3-0.2-7-0.1-9.5,0.1l0.1-0.1c-1.6,0-5.5,0-7.6,0.2
	c-4.1-0.2-1.4-1-6-0.7c-4.2,0-6.6,0.5-4.9,0.7c-7.5-0.2-16.1,0.3-23.1-0.2c-1.1,0.1-0.4,0.2-2.6,0.2c-11.1-0.1-23.4,0.3-32.2-0.2
	c3.4,0,0.4-0.2,0.3-0.3c-2.6,0.2-3.2-0.3-4.1,0.2c0.3,0.2,0,0.4,3.1,0.5c-6.6,0.1-16.6,0.1-20.3-0.1c1.8,0.1,0.4,0.2-1,0.3
	c0.5-0.4-4.4-0.5-8.1-0.3l-0.5,0.1l-2.4-0.2c-1.4,0.1-1.6,0.5-5.2,0.3c-0.2-0.1-0.4-0.2-1.1-0.3c-3.8,0.1-9.2,0.5-13.3,0.3l-3.4-0.3
	c-1.8,0-4.7,0.2-1.6,0.3c-7.1-0.2-11.6-0.2-13.8-0.5c-3,0.2-6.4,0.3-10,0.4h-2.8l-0.7,0.1l0,0c-1.6,1.6,2.2-2.3,1.8-1.9l0,0l0,0v0.1
	v0.2v0.4v1.4l0.1,5.8c0.1,7.9,0.1,16,0.1,23.2l-0.2-0.4c-0.2,3.9,0.3,2,0.2,4.7c-0.2-1.2-0.4,2.9-0.6-0.1c-0.2,5.5,0.3,7.1,0.4,10.7
	c0.2,0.5-0.1-2.9,0.1-2.2c0.1,0.6-0.2,7.7,0.2,8.5c-0.1,1.4-0.4,0.3-0.5-0.4l0.2,3.4c-0.4,4.1-0.7-9.4-1.2-5.1l0.1,3.1
	c-0.4,3-0.4-8.2-0.5-0.4c0.2,3.4,0.7,6.3,0.8,3.3c0.1,7.1,0.8,3.3,0.8,10.9c-0.2,2.1,0-6.1-0.3-4.6c-0.3,3.6,0.2,7.2,0.1,10.4
	c0.1-3.5,0.5-0.5,0.5,1.7c-0.2,3.9-0.3-2.5-0.4,3c0.2,0.9,0.4,5.9,0.5,1.6c0.5,2-0.1,5.7,0.2,8.7c-0.3,1.8-0.7-5.6-0.9,0.4
	c0.3-1,0.4,7.4,0.9,4.2c-0.1,2.4-0.3,2.6-0.5,0.9c-0.2,3.4,0.6,8.2,0,9.3l0.3,1.2c-0.1,1.1-0.2,2.6-0.4,4.3c0,3,0.4,9.6,0,9.3
	c0,0.9,0,7.7,0.4,5.1c0.2-4.2-0.2-4.8,0.2-7.2c-0.4,3,0,6.1,0.2,8.5l-0.2,0.4c0.1,1.4,0,4.8,0.2,5.7c-0.1-1.1-0.2-0.5-0.3,0.6
	l0.3,1.5c0.1,5.9-0.5,1.4-0.4,7.1l-0.2-4.4c0,1-0.2,2.9-0.1,5.7c0.3,1.1,0.6,3.1,0.8,4c0.1,3.2-0.3,1.4,0,4.6l-0.3-4.2
	c-0.1-0.6-0.4,2.8-0.4,7.1c0.1,2.8,0.5,7,0.6,2.7c0,2.2-0.2,5.2-0.3,3.5c0.1,4.9,0.3-0.6,0.4,3.6c-0.2,1.7-0.4,7.1-0.7,10.4
	l-0.7-4.6v2.9c-0.3-3.8-0.3,1.9-0.6-0.2c-0.1,2,0.1,4.4,0.2,6.4c0.6-5.9,0.8,6.6,1.3,4.9c0.1,8-1.3,5-0.5,13.4
	c0.1-1.4,0.5,2.6,0.4-2.5c-0.1,5,0.5,3.4,0.3,9.3c-0.2-4.4-0.5,4.7-0.8-1.6c0.2,0.4,0.1-3.5,0.1-4.5c-0.2,2.1-0.5-0.4-0.5,4.7
	c0.1,3.1,0.1,7.4,0.3,6.8c0.3-0.1,0-4.8,0.3-2.8c0.1,6.2-0.4,7.3,0.2,9.8c0-3.9,0.3-4.9,0.5-4.8l0.1,4.6l-0.3-0.9
	c-0.1,7.3,0.4,2.2,0.3,9.3l-0.4,3.3c-0.3-1.7,0.2-10.3-0.4-9.1c0,4.6,0.3,6.1,0.1,10.5c0-1-0.1-2.3-0.1-3.2c0,1.7-0.8,3.3-0.3,9.9
	c0.2,3.4,0.2,0.9,0.4,1c0.1,7.4,0.3,9.6,0.3,14.4c-0.4-1,0,8.4-0.5,3.2c0.2-2.4,0.2-13.1-0.2-15.8c-0.5,2.7,0.1-5.8-0.4-7.4
	c0,5.9-0.5,5.6-0.8,6.6c0,1.6,0.1,3.2,0.2,4.2c0.3,0.7,0.3-1.5,0.6-1.6c-0.1,6.6,0.1,13,0.4,16.7c-0.1,2.2-0.4,1.5-0.5-1.1
	c0.1,7.9,0,16.3,0,23.8c0.5-4.8,0.1,8.4,0.5,5c0.1-4,0.4-7.5,0.7-5.2c0,2.5-0.2-0.1-0.3,1c0.3,3.2-0.4,5,0,8.1
	c-0.2-7.2-0.6-1.4-1-2.7c0.2,5.2-0.3-0.2-0.3,4.9c0.2,5.2,0.4,11.5,0.5,17.3c-0.4,7.2,0,18.3,0,24.8c-0.2,3.4-0.6,1.1-0.7,4.8
	c0,4.3,0.5-3.2,0.3,3.2l-0.1-0.6c0.1,1.9-0.3,11.7,0.3,13.6l-0.5-2c0,1.2,0.1,2.3,0.1,3.3c-0.1,0-0.3,1.4-0.4-0.5
	c-0.3,3.9,0.1,8.3,0.1,12.5l0.3-2.7c0.2,7.3-0.1,12.2,0,19.3l-0.3-0.2l0.2,4.2c-0.3-1-0.4,2.8-0.2,5.1l-0.6-10.9
	c0.2-3,0.3,3.3,0.6,1.4c0.2-1.6,0.2-8.2-0.1-9.2c0,2.5,0,2.6,0.1,4.6c-0.4,0.8-0.4-3-0.6-4.9c0,1.3-0.1,3.2,0,3.5
	c-0.2-3-0.3-5.6-0.3-9.9c0.1,2.9,0.2-1.6,0.3-0.5c-0.3-0.3-0.4-4.4-0.3-9.8c0.4-3.8-0.2-10-0.1-16.1c0.3,2.5,0.6,5.7,0.7,9.4
	c0.2-3.9,0-4.3,0.2-8.2c-0.2-1.9-0.6-3.2-0.8-8.2l0.2-0.3c-0.1-4.6-0.5-4.6-0.4-10.4c0.1-10,0.1-20.2,0.1-27.8l0.2-0.3
	c-0.5-4.2-0.2-14.1-0.4-19.8c0.2-9.7-0.2-21,0.2-26c-0.2-17.1-0.4-32-0.3-49.7l0.4,3c-0.3-3.2,0.2-2.1,0.1-5.2
	c-0.3,3.6-0.4-4.3-0.6-6.5c0.3-7.9,0-18-0.3-25l0.2-0.3c-0.5-7.1-0.1-15.5,0-24.3c0.1-1,0.3-2.6,0.3-5.2c-0.4-4.8-0.4-7.3-0.6-14.3
	c0-5.1,0.1-13.4,0.2-18.6c-0.3-19.1,0.1-38.8-0.3-58.8l0.3-1.4c-0.3-9.7-0.3-20.5-0.3-30.9v-7.7v-1.9v-0.5v-0.2l0,0l0,0
	c-0.4,0.4,3.2-3.2,1.7-1.7l0,0h0.3h0.9h3.6c4.8,0,9.3,0,13.3-0.1l-1.6,0.5c5.2,0.1,11.7-0.2,10.4-0.6c5.1,0.2,12.7-0.2,16,0.2
	c5.2,0.1,6.4-0.2,10.7-0.3c10.4,0.2,14.3,0.1,24.1,0.1H399c-1.1,0.1-1.2,0.3,1.3,0.4c3.7-0.1,13.5,0.1,9.8-0.5
	c10.5,0.3,24.5-0.3,34.7,0.2c-0.9-0.2,1.7-0.2,2.8-0.3c9.2,0,18.9,0.3,26.3,0c1.5,0.1-2.3,0.3,1.4,0.3c2.2-0.1,0-0.2,2.8-0.3
	c14.9-0.3,30.2,0.3,43.8,0.2c24.1-0.3,49.3-0.2,72.4-0.2l-0.3,0.1c7.7-0.5,18.2,0.5,24.4-0.2c1.8,0.1,7,0.1,5.6,0.3
	c6.2-0.3,17.3,0.3,26.2-0.1c-0.8,0-1.3,0-2.2,0.1c9,0.3,17-0.1,26.5,0.1c-1,0.1-2.7,0.1-3,0.2c3.7,0.2,8.7-0.5,10.7,0.1
	c2.1,0,1.5-0.3,0.2-0.3c20.8,0.2,43-0.1,64.7-0.3c15.5,0.3,0.9,1,13.2,0.5c1,0.1,0.7-0.2,0.9-0.1c4.7-0.2,7.4,0.6,10.7,0.3
	c-1.4-0.4,2.2-0.2,2.3-0.4c9.5,0.2,11.4,0.5,18.9,0.3l-0.6,0.2c8.8-0.5,19-0.2,26.4-0.8c48.4-0.1,94.8-0.4,142-0.5
	c23.3,0.1,46.4,0,69.6,0h17.4h8.7h4.4h1.1h0.5h0.3c-2.2-2.3,3.1,3.1,2.5,2.6l0,0v0.1v0.1v2.2c0,11.9-0.1,23.9-0.1,35.9
	c-0.5,11.3-0.5,12.2-0.3,24.6c-0.1-0.5-0.1-1.3-0.2-0.4c0.4,0.6,0,8.8,0.4,9.9c-0.1,17.9,0,34.3,0,52.7c0-2.9-0.4-4.4-0.3-0.9
	l0.3,3.6l-0.1,0.6c0.1,2.4,0.3,4.9,0.4,2.5c0.3,46.2-0.4,91.6-0.4,136.8c-0.2,10.7,0,26,0.1,37.7c-0.5,34.6-0.9,65.7-0.6,100.9
	C1064.5,204,1063.5,199.4,1063.2,184.9"/>
<path class="st0" d="M323,193.1c0.2-1.2,0.3-5.3,0.6-2C323.4,191.5,323.2,193.5,323,193.1"/>
<path class="st0" d="M325,85.8c-0.1-0.1,0.1-1.5,0.1-1.9c0,1.3,0.2,2.6,0.1,3.6C325.2,86.2,325.1,86.4,325,85.8"/>
<path class="st0" d="M325.2,58.3c0.2,0.4,0.3,6.3,0.3,9.8L325.2,58.3z"/>
<path class="st0" d="M325.9,32.8c0.1-2.2,0.2-1.6,0.2,1.4C326,34.3,326,33.4,325.9,32.8"/>
<path class="st0" d="M325.5,30.9c0-2.1,0.1-3.2,0.2-4.2C325.5,26.8,325.8,31.6,325.5,30.9"/>
<path class="st0" d="M326-24.6c0-1.3-0.2-4.2,0-5.5C325.9-28.7,326.2-23.5,326-24.6"/>
<path class="st0" d="M325.7-50.4c0-0.8,0-1.2,0-2.1c0.1-1.5,0.2,0.1,0.2,1.4L325.7-50.4z"/>
<rect x="108.7" y="-367" class="st1" width="1170" height="792"/>
<polygon class="st0" points="632.7,-200.8 635.4,-200.9 633.1,-201 "/>
<path class="st0" d="M837.3-200.9c2.7-0.1,1.9,0.2,2.4,0.2C837.2-200.7,840.6-201,837.3-200.9"/>
<polygon class="st0" points="945.3,-201.8 946.2,-201.8 945.6,-202.2 "/>
</svg>
