<?xml version="1.0" encoding="utf-8"?>
<!-- Generator: Adobe Illustrator 19.1.0, SVG Export Plug-In . SVG Version: 6.00 Build 0)  -->
<svg version="1.1" id="Layer_1" xmlns="http://www.w3.org/2000/svg" xmlns:xlink="http://www.w3.org/1999/xlink" x="0px" y="0px"
	 viewBox="0 0 129.4 43.5" style="enable-background:new 0 0 129.4 43.5;" xml:space="preserve">
<style type="text/css">
	.st0{fill:#568DBD;}
	.st1{fill:#4B4B4A;}
</style>
<path class="st0" d="M115.4,37.7c0-3.4-2.2-4.7-4.7-5.8c-2-0.9-3.5-1.3-3.5-2.6c0-1.1,0.8-1.7,2.2-1.7c1.5,0,3,0.7,3.6,1.1l1.8-3.2
	c-0.9-0.6-2.5-1.6-5.7-1.6c-3.5,0-6.3,2.1-6.3,5.4c0,3.1,1.6,4.6,3.9,5.7c2.2,1.1,4.2,1.4,4.2,2.9c0,1.1-0.9,1.9-2.7,1.9
	c-2.1,0-3.5-1.1-4-1.4l-1.9,3.2c0.9,0.7,2.9,1.8,6,1.8C112.8,43.5,115.4,41.3,115.4,37.7 M96.1,30.1c0,1.5-0.9,2.4-2.8,2.4h-2v-4.8
	h1.8C95.2,27.7,96.1,28.6,96.1,30.1 M102.2,43.2l-3.4-5.3c-1-1.6-1.7-2.4-2.3-2.8V35c2.1-0.5,4.1-2,4.1-5.1c0-3.6-2.6-5.6-7.2-5.6
	h-6.7v18.9h4.6v-7.5h0.2c0.8,0,1.1,0.1,2.3,2.1l3.3,5.4H102.2z M83.8,43.2v-3.7h-6.9v-4.2h6v-3.5h-6V28h6.7v-3.7H72.3v18.9H83.8z
	 M65.1,33.6c0,3.9-1.9,6-5.8,6h-1.8V27.9h1.6C63.2,27.9,65.1,29.7,65.1,33.6 M69.9,33.5c0-5.4-3.4-9.2-10.8-9.2h-6.2v18.9h6
	C66.4,43.2,69.9,38.9,69.9,33.5 M49.4,35.3v-11h-4.2v11.3c0,2.6-1,4.2-3.6,4.2c-2.8,0-3.8-1.4-3.8-4.4V24.3h-4.6v11.5
	c0,5.1,2.8,7.7,8.3,7.7C46.7,43.5,49.4,40.7,49.4,35.3 M25.9,30.1c0,1.5-0.9,2.4-2.8,2.4h-2v-4.8H23C25,27.7,25.9,28.6,25.9,30.1
	 M32,43.2l-3.4-5.3c-1-1.6-1.7-2.4-2.3-2.8V35c2.1-0.5,4.1-2,4.1-5.1c0-3.6-2.6-5.6-7.2-5.6h-6.7v18.9h4.6v-7.5h0.2
	c0.8,0,1.1,0.1,2.3,2.1l3.3,5.4H32z M8.9,29.8c0,1.5-0.8,2.2-2.8,2.2H4.5v-4.2h1.7C8,27.8,8.9,28.4,8.9,29.8 M9.5,37.5
	c0,1.6-1.1,2.2-3.1,2.2H4.5v-4.6h2.1C8.6,35.2,9.5,35.9,9.5,37.5 M14.1,38c0-2.7-1.9-4.2-4.1-4.5v-0.1c2-0.5,3.3-1.8,3.3-4.4
	c0-3.6-3.1-4.7-6.6-4.7H0v18.9h6.7C11,43.2,14.1,41.8,14.1,38"/>
<path class="st1" d="M122,12.1h-4.6l1.3-3.9c0.5-1.6,0.9-3.2,1-3.3h0.1c0,0.1,0.4,1.7,0.9,3.3L122,12.1z M116.1,15.7h7.2l1.1,3.2h5
	L122,0h-4.4l-7.2,18.9h4.6L116.1,15.7z M109.3,18.9v-3.7h-6.9v-4.2h6V7.4h-6V3.7h6.7V0H97.8v18.9H109.3z M90,5.8
	c0,1.5-0.9,2.4-2.8,2.4h-2V3.4H87C89.1,3.4,90,4.3,90,5.8 M96.1,18.9l-3.4-5.3c-1-1.6-1.7-2.4-2.3-2.8v-0.1c2.1-0.5,4.1-2,4.1-5.1
	c0-3.6-2.6-5.6-7.2-5.6h-6.7v18.9h4.6v-7.5h0.2c0.8,0,1.1,0.1,2.3,2.1l3.3,5.4H96.1z M73.3,9.3c0,3.9-1.9,6-5.8,6h-1.8V3.6h1.6
	C71.5,3.6,73.3,5.4,73.3,9.3 M78.2,9.2c0-5.4-3.4-9.2-10.8-9.2h-6.2v18.9h6C74.7,18.9,78.2,14.6,78.2,9.2 M57.6,18.9V0h-4.1v9
	c0,1.5,0.1,2.8,0.1,3.1h-0.1c-0.1-0.2-0.8-1.6-2.1-3.3L45.4,0h-4.6v18.9h4.1V9c0-1.3-0.1-2.6-0.1-2.6h0.1c0.1,0.1,0.7,1.3,1.9,2.9
	l6.7,9.5H57.6z M31.6,12.1H27l1.3-3.9c0.5-1.6,0.9-3.2,1-3.3h0.1c0,0.1,0.4,1.7,0.9,3.3L31.6,12.1z M25.7,15.7h7.2l1.1,3.2h5L31.6,0
	h-4.4L20,18.9h4.6L25.7,15.7z"/>
</svg>
