<?xml version="1.0" encoding="utf-8"?>
<!-- Generator: Adobe Illustrator 19.1.0, SVG Export Plug-In . SVG Version: 6.00 Build 0)  -->
<svg version="1.1" id="Layer_1" xmlns="http://www.w3.org/2000/svg" xmlns:xlink="http://www.w3.org/1999/xlink" x="0px" y="0px"
	 viewBox="0 0 12.6 10" style="enable-background:new 0 0 12.6 10;" xml:space="preserve">
<style type="text/css">
	.st0{opacity:0.5;}
	.st1{fill:#C1A879;}
</style>
<g class="st0">
	<path class="st1" d="M6.3,8c0.1,0.2,0.3,0.3,0.4,0.5c0-0.1,0-0.1-0.1-0.2c0.3,0.3,0-0.3,0.2,0c0,0-0.1-0.1-0.2-0.2
		c0-0.1,0.1,0.1,0.2,0.2C6.8,8.1,6.8,8,6.8,8.1c0-0.1-0.3-0.3-0.4-0.5c-0.2-0.3,0-0.1,0-0.2c0.2,0.1,0,0.1,0.1,0.2l0-0.2
		c0.1,0.1,0.2,0.3,0.1,0.2c0.2,0.1,0.1-0.1,0-0.3c0.1,0,0,0,0.1,0C6.9,7.5,7.1,7.9,7.1,8C7,8,6.9,7.7,6.9,7.7L7,7.9C6.9,7.8,7,8,7,8
		C6.9,8,6.9,7.9,6.9,7.9c0,0-0.2,0,0,0.2c0.2,0.2,0.1-0.2,0.3,0L7.1,7.8C7,7.7,6.9,7.6,6.8,7.4C7,7.6,7.1,7.7,7.2,7.7
		C7,7.5,7.1,7.4,6.9,7.2C7,7.4,6.8,7.2,6.8,7.1c0,0-0.2-0.3-0.2-0.3c0.1,0,0.1,0.2,0.3,0.2C7,7.2,7.1,7.5,7.2,7.7
		c0.1,0.1,0,0,0.1,0.1C7.2,7.6,7.2,7.5,7.1,7.4C7.1,7.2,7,6.9,7,6.8c0.3,0.4,0.1,0.4,0.4,0.9c0-0.1-0.1-0.3-0.1-0.3
		c0.2,0.2,0.1,0,0.2-0.1L7.4,7.2c0-0.1,0-0.1,0.1-0.1l0,0.1l0-0.1l0,0C7.5,7,7.6,7.1,7.6,7C7.5,6.8,7.6,7,7.5,7c0,0-0.1-0.1-0.2-0.3
		c0.1,0,0-0.3,0-0.4l-0.1,0c-0.1-0.2,0-0.1,0-0.1c0.2,0.1,0.1,0.3,0.2,0.4c0.1,0.2-0.1,0,0.1,0.3l0.2,0.3C7.8,7,8,7.2,8,7.1L7.9,7
		c-0.1-0.2,0-0.1,0,0L7.7,6.7c-0.1,0,0.1,0.3-0.1,0.1c0-0.1-0.2-0.4-0.1-0.5c0.1,0.1,0,0.1,0.1,0.2c0.1,0.1,0-0.2,0.1-0.1
		c0,0.1,0.1,0.2,0.2,0.4L7.8,6.5c0,0,0.1,0.1,0.1,0.1c0.1,0-0.2-0.3-0.1-0.2l0.1,0.1c0.1,0,0-0.1,0-0.2c0,0-0.3-0.3-0.2-0.4
		c0.1,0,0-0.2,0.2,0.1L7.8,5.8C7.9,6,7.9,5.8,7.9,5.8c0.2,0.3-0.1,0.1,0.1,0.5c0.1,0,0.1,0.2,0.2,0.3c0-0.1-0.2-0.3-0.2-0.5
		c0.1,0.1,0.1,0,0.2,0.2c0,0-0.1-0.3,0-0.2l0.2,0.4c0-0.1,0.1,0,0.1,0c0,0-0.1-0.2-0.1-0.1c-0.1-0.2,0.1-0.1,0-0.2
		c0.1,0.2,0.1,0,0.2,0.1C8.2,5.6,8.6,6.4,8.3,6C8.2,5.8,8.5,5.9,8.4,5.6C8.5,5.6,8.5,5.8,8.6,6c0,0.1-0.1,0-0.1,0.1
		c0.1,0.1,0.2,0,0.1-0.2C8.7,5.8,9,6.4,9,6.2C8.9,6,8.9,6,8.9,5.9c0-0.1,0,0,0.1,0c0-0.1-0.1-0.1-0.1-0.2c0,0,0.1,0,0.1,0.2l0,0
		c0-0.2,0.3,0.4,0.2,0c0-0.1,0,0-0.1,0C9,5.7,8.9,5.5,8.9,5.4c0.1,0.1,0,0,0.1,0c0.1,0.2,0,0.1,0,0.2l0.1,0l0,0l0-0.2
		c0,0.1-0.1-0.2-0.1-0.3c0.1,0,0.1,0,0.2,0.3c-0.1-0.2,0-0.3,0-0.3C9,5,9,4.9,9,4.8L9.2,5c0,0.1,0.1,0.2,0.2,0.4
		c0.1,0.3,0,0.1-0.1,0.1c0.3,0.4,0-0.3,0.2-0.1c0,0.1,0.1,0.2,0.1,0.2c0,0.1,0-0.2,0.1-0.1c0-0.1-0.2-0.3-0.2-0.4l0.2,0.2
		c0.1,0-0.1-0.3-0.1-0.5L9.4,4.8c-0.1-0.2,0.1,0,0-0.3c0,0,0,0.2,0,0.2c-0.1-0.2,0-0.2-0.1-0.3c0.1,0.1,0.1,0.1,0.3,0.3
		c0.2,0.4,0.1,0.5,0.4,1c0-0.1,0.1-0.3,0.2-0.1c0-0.1-0.1-0.5-0.2-0.7c0-0.1,0,0,0.1,0l0,0.1c0-0.2,0-0.3,0.1-0.3
		c0-0.1-0.1-0.3-0.2-0.5l0-0.1l0,0c-0.1-0.3,0-0.2,0-0.2C9.9,3.9,9.9,4,10,4c0.1,0.1,0.1,0,0.1-0.1c0,0.1,0.1,0.4,0,0.3l0-0.1l0,0.2
		c0-0.2,0.2,0.1,0.3,0.4c0-0.2-0.2-0.3-0.1-0.4c0.3,0.5,0.2-0.2,0.5,0.5c0-0.2,0-0.5,0-0.5c-0.1-0.2,0-0.1-0.1-0.4
		c-0.2-0.3,0,0.5-0.2,0.1c0,0.1,0.1,0.3,0.1,0.4c0,0-0.1,0-0.1-0.1c0-0.2-0.2-0.6-0.1-0.6c-0.1-0.2-0.1-0.1-0.2-0.1L10,3.3L10,2.8
		C10,2.9,10,2.9,10.1,3l0-0.4c0.1,0.1,0.2,0.3,0.2,0.4c0.1,0,0.1-0.3,0.2,0c0.1-0.1-0.1-0.2-0.1-0.3v0l-0.1,0.1
		c-0.1-0.4,0.1,0.1,0-0.3c-0.2-0.7,0.2,0.2,0.2,0.1l0.1,0.5l0-0.1c0,0.2,0.2,0.6,0.2,0.8c0.1,0,0.2,0.1,0.3,0l0.2,0.5
		c0-0.4,0.2,0.1,0.2,0.1c0-0.2-0.2-0.2-0.2-0.5c0.1,0.1,0.1,0,0.1,0c0,0.1-0.1-0.1-0.2-0.1c0,0,0-0.3-0.1-0.4l-0.1,0
		C10.9,3,11,3.2,11,3.1c0.1,0.3,0.1,0.3,0.2,0.6c0-0.1,0.1-0.2,0.2,0c0.1,0.1,0,0.1,0,0.2c0.1,0.2,0-0.1,0.1,0.1c0,0.2,0,0,0,0.1
		l0.2,0c0,0.1,0,0.2,0,0.1c0.1,0.1,0.1,0,0-0.4c0.1,0.1,0.2,0.3,0.2,0.4c0-0.1,0-0.2-0.1-0.3c0.1,0,0-0.4,0-0.4l-0.1-0.2
		c0.1,0.2-0.1-0.4,0-0.2L12,3.9c-0.1-0.2,0,0,0.1,0c-0.1-0.2,0-0.2-0.1-0.4c0-0.2,0.1,0.1,0.1-0.2C12,3.2,12,3,12,2.9
		c0.1,0,0.2,0.2,0.2,0.5c0,0-0.1-0.1,0,0.1l0.1-0.1c0.1,0.1,0.1,0.2,0.2,0.4c0-0.3,0.2,0.2,0.1-0.2c0,0.2-0.1-0.1-0.1-0.1l0-0.1l0,0
		L12.3,3c-0.1-0.2,0.1,0.3,0,0.3c-0.2-0.4,0-0.7-0.2-0.9c-0.1-0.1,0,0.3,0,0.4l0,0l0,0.2c0-0.1,0-0.3,0-0.3c-0.1,0-0.2-0.2-0.3-0.2
		c0,0.1,0.2,0.5,0.1,0.6c0,0.1-0.1-0.1-0.1-0.2c0-0.1,0-0.3,0-0.1l-0.1-0.3c0-0.4-0.1-0.7,0-0.8c-0.1-0.2,0-0.4,0.1-0.3l-0.1-0.2
		c0-0.4,0.1,0.3,0.1,0C12,1.5,12.2,2,12.2,2.3c0.1,0.1,0.1-0.1,0.1-0.2c0.1,0.3,0.1,0.4,0.2,0.7c0,0,0-0.2,0-0.4l0.1,0.1
		c0,0.1,0,0.1,0,0.1c0,0.1,0.1-0.1,0.1-0.2c0,0,0,0.1,0,0c0-0.1,0-0.3,0-0.4c0,0.2-0.1-0.2-0.1,0c0-0.1-0.1-0.3,0-0.2
		c-0.1-0.2-0.1-0.1-0.2-0.4c0.1,0.2,0-0.1,0-0.1c0-0.1-0.1,0-0.1,0.1c-0.1-0.4-0.1,0.1-0.2-0.3c0,0.1,0,0.2-0.1,0.1
		c0-0.2,0-0.3,0-0.5C12,0.6,12,1.1,12.1,1.2l0.1-0.1c0-0.1,0-0.3-0.1-0.2c0-0.2,0-0.4,0.1-0.3c0-0.1,0-0.1-0.1-0.1
		c0-0.1,0-0.5-0.1-0.6c0,0,0,0.2,0.1,0.3c0,0.1-0.2-0.1-0.2-0.3c0,0.1-0.1,0.2-0.1,0.3c-0.1-0.2,0-0.1,0-0.2l-0.1,0.1l0.1,0.2
		c-0.1-0.1-0.1,0.4-0.1,0.5c-0.1-0.3,0-0.3,0-0.5c-0.1-0.3,0,0.2-0.1,0.2l-0.1-0.2l0,0.3l0-0.1c0,0.3,0.1,0.4,0,0.6
		c0.1,0.1,0-0.2,0.1-0.2c0.1,0.2,0,0.4,0,0.5c-0.1-0.1-0.2-0.5-0.2-0.2c0-0.2-0.1-0.3,0-0.3c0-0.2-0.1-0.1-0.1-0.3
		c0,0.1,0.1,0.3,0,0.3l0,0l0,0.3c-0.1-0.1-0.1,0.4-0.3,0.1l0.1,0.3L11,1.8c0-0.2,0-0.2,0-0.3c-0.1,0-0.1,0.2-0.1,0.5
		C11,2.1,11,2.1,11.1,2.3C11.2,2.7,11,2,11,2.2c-0.1-0.3-0.1-0.3-0.2-0.5c0,0.2,0,0.2,0,0.4c-0.1-0.3-0.2-0.5-0.1-0.6
		c0.1,0.2,0.1-0.2,0.2,0l-0.1-0.2c0-0.1,0.1-0.1,0.1-0.2l0,0l-0.1-0.3l0,0c0-0.2,0-0.5,0-0.5c-0.1,0.1,0.1,0.6,0.1,0.8
		c-0.1,0-0.3-0.5-0.3-0.2c0-0.1-0.1-0.3-0.1-0.4c0-0.1,0.1,0.1,0.1-0.1c0,0-0.1-0.1-0.1,0c0.1,0.3,0.1,0.5,0.1,0.8
		c0,0.2-0.1,0.2-0.2,0.1c0,0,0-0.3-0.1-0.5c0.1,0.3-0.2-0.2,0,0.2c-0.1,0-0.2,0-0.3-0.3c0-0.1,0.1,0,0.2-0.1c0,0-0.1-0.1-0.1-0.2
		l0.1,0C10,0.3,10,0.2,9.9,0.2l0,0.1l-0.1,0L9.8,0c0,0.2-0.3-0.2-0.3,0.1l0-0.1c-0.1,0,0.1,0.6,0,0.7L9.4,0.3c0,0.2-0.1-0.1-0.2-0.1
		c0.1,0.2,0.1,0.3,0.1,0.4c0.1,0.3,0,0.3,0,0.3C9.2,0.5,9.4,0.6,9.2,0.3c-0.1,0,0,0.2,0.1,0.3c-0.1,0-0.2,0-0.3-0.2
		c0,0.3-0.1,0.2,0,0.6c0,0-0.1-0.3,0-0.2L9.1,1C9,1,8.9,0.8,8.8,0.8l0-0.1l0,0c0-0.1,0.1-0.1,0-0.3c0.1,0.3-0.1,0-0.1,0.2l0,0
		c0,0.3-0.4-0.4-0.2,0.2c0,0,0.1,0.2,0.2,0.3C8.6,1,8.6,1,8.5,0.9l0-0.1c-0.1,0-0.1,0-0.1,0C8.4,1,8.5,1.2,8.5,1.3
		C8.4,1.2,8.4,0.8,8.2,0.7l0,0.2L8.1,0.8C7.9,0.7,8,1.3,7.9,1.3c-0.1-0.3-0.1-0.5,0-0.5C7.7,0.6,7.8,1,7.6,0.9c-0.1,0,0,0.3,0.1,0.4
		c0,0.1-0.1-0.1-0.2-0.2c0.1,0.3,0,0.3-0.1,0.3L7.4,1.3l0,0.3c0,0,0.1,0.2,0.1,0.3l0,0c0.3,0.4,0-0.4,0.4,0.1L8,2.1c0,0,0,0-0.1-0.1
		C8,2.2,8,2.3,8,2.3c0.2,0.4,0,0.3,0,0.5C7.9,2.5,7.9,2.4,7.9,2.2c0,0,0,0.2,0,0.1L7.7,2c0,0.2,0.1,0.3,0.2,0.5
		c0.1,0.4-0.1,0-0.1,0.1l0-0.1c-0.1-0.1,0,0.2-0.1,0.2L7.6,2.6c0.2,0.2-0.1-0.4,0-0.3C7.4,2,7.4,1.7,7.3,1.4c0,0.1-0.1,0.1-0.2-0.1
		C7.2,1.7,6.9,1.3,7,1.7C7,1.7,7,1.5,6.9,1.5c-0.1,0-0.1,0.1-0.2,0.3c0,0-0.1-0.1-0.2-0.2c-0.3-0.1,0,0.6-0.3,0.6l0-0.2
		c-0.1,0-0.1,0,0,0.2c-0.3-0.4,0,0.4-0.4-0.1c-0.1,0,0.1,0.4,0,0.5C5.8,2.5,5.7,2.3,5.6,2.3C5.5,2.6,5.3,2.7,5.1,3l0-0.1
		C4.9,2.9,5,3.4,4.7,3.4c0,0.1,0,0.2,0.1,0.4c0,0,0.2,0.2,0.3,0.4c0,0.3-0.3-0.3-0.3-0.2C4.6,3.6,4.8,3.7,4.6,3.4l0,0.3
		C4.5,3.6,4.5,3.9,4.4,3.8c0.1,0-0.2-0.3,0-0.2l0,0.1c0.1,0-0.1-0.2,0-0.3c0,0.1-0.1,0.3-0.2,0.3c0.2,0.2,0,0.1,0.1,0.3l0,0
		C4.3,4,4.3,4.1,4.3,4.1L4.1,3.8C4.1,3.9,4.2,4,4.2,4c0,0.1-0.1,0.2-0.3-0.1c0,0.1,0.1,0.2,0,0.2L3.8,4c-0.2,0-0.2,0.2-0.5,0.1
		c0,0.1-0.1,0.2,0,0.5c0,0,0.1,0,0.2,0.2c0.1,0.1,0,0.1,0,0.2C3.4,4.8,3.4,4.9,3.3,4.8C3.1,4.5,3.3,4.9,3,4.6C3.1,4.7,2.9,4.8,3,5
		C2.9,4.8,3,4.8,2.9,4.7l0,0.1L2.8,4.7C2.7,4.7,3,5.1,3,5.2l0,0l0,0.1L2.8,5c0,0.1,0.1,0.3,0.1,0.4L2.9,5.3l0,0.1L2.8,5.4
		C3,5.6,2.9,5.6,3,5.8c-0.1,0-0.3-0.3-0.2-0.1L2.6,5.5c0-0.1,0.2,0.2,0.2,0c-0.4-0.3-0.5-0.1-0.6,0c0.1,0.3-0.4,0.1,0,0.5L2,5.8
		l-0.3,0c0,0.2-0.3,0.2-0.2,0.5L1.4,6.3c0.4,0.5-0.1,0.5,0.4,1.1C1.6,7.3,1.6,7.2,1.5,7.1c-0.1,0,0.2,0.4-0.1,0.2
		c-0.1-0.1,0-0.1-0.1-0.1C1.1,7,1.5,7.3,1.2,7.2c0.2,0.1,0.3,0.4,0.3,0.4l0,0c0.1,0.1,0.1,0.1,0.1,0.2l0,0c0,0.4,0,0.8-0.4,1
		L1.1,8.6c0.1,0.1,0,0.1-0.1,0.1l0,0C0.6,8.7,1.3,9,0.9,8.9l0,0C0.8,9,0.4,8.8,0.5,9C0.3,9,0.2,8.9,0,8.9C0,9,0.2,9.1,0.2,9.1l0,0
		c0.2,0.1,0.1,0.1,0.2,0.2c0.3,0.1,0.8,0.4,1.1,0.5C1.5,9.7,2.1,10,2.1,9.9c-0.4-0.3,0.4,0.1,0-0.2c0.2,0.2,0.2,0,0.4,0.2
		C2.8,10,2.4,9.7,2.7,9.8l0.1,0.1C2.7,9.7,3,10,3,9.9L2.8,9.8c-0.1-0.1,0.1,0,0.1,0c0,0-0.2-0.1-0.3-0.1C2.5,9.6,2.4,9.5,2.5,9.5
		c0.1,0.1,0.1,0.1,0.2,0.1c0,0,0.1,0,0.2,0C2.9,9.7,2.9,9.7,3,9.8c0.1,0,0.1,0,0.3,0.2C3,9.8,3.2,9.9,3.2,9.8c0.1,0.1,0,0,0.1,0.1
		c0.6,0.3,0-0.2,0.1-0.2l0.1,0.1C3.4,9.7,3.7,9.9,3.6,9.8c0.1,0,0.3,0.2,0.4,0.2C3.6,9.7,4,9.9,3.7,9.7l0.2,0.1
		C3.8,9.6,3.4,9.4,3.4,9.3c0.2,0,0.5,0.4,0.7,0.5L4,9.6l0.2,0.1l0,0c0-0.1,0-0.1,0.1,0c0.1,0.1,0.1,0.1,0.1,0.1
		c-0.1-0.2,0.5,0.2,0.1-0.2c0.1,0.1,0.1,0,0.3,0.1c-0.2-0.2,0.1,0,0-0.1c0.1,0.1,0.2,0.1,0.2,0.1c-0.1,0-0.2-0.1-0.3-0.2
		C4.8,9.7,4.7,9.5,5,9.7C4.9,9.6,4.7,9.4,4.5,9.3c0.2,0.1,0.2,0,0.5,0.3c0,0-0.1,0,0.1,0.1C5.2,9.7,5,9.6,5,9.5c0,0,0.2,0.1,0.3,0.2
		c0,0,0-0.1,0.1,0C5.1,9.6,5.1,9.5,5,9.4l0.2,0.2c0,0-0.2-0.1-0.2-0.2c0-0.1-0.3-0.4-0.4-0.5C4.6,9,4.7,9,4.7,9C4.7,9,5,9.3,5,9.3
		C4.8,9.1,5.2,9.4,5.3,9.4C5.2,9.3,5,9.2,5,9.1C4.9,8.9,5.1,9.2,5.2,9.3c0-0.1,0.4,0.1,0.4-0.1L5.3,9l0.2,0.2C5.3,9.1,5.1,8.7,5,8.6
		C5,8.6,5,8.5,5.1,8.7l0-0.1C5,8.5,5,8.5,4.9,8.4C5,8.5,5.1,8.5,5.2,8.6c0,0,0-0.1-0.1-0.2c0,0,0.3,0.3,0.3,0.4c0,0,0.2,0.2,0.3,0.2
		l0-0.1l0.2,0.2C6,9.2,5.8,9,5.9,9.1L5.8,8.9C6,9,6,9,6.1,9L6,8.9c-0.2-0.3,0.2,0.2,0.2,0c0-0.1-0.1-0.2-0.3-0.4
		c0-0.1,0.1,0,0.2,0.1C6,8.4,5.8,8.1,6,8.3l0.1,0.2c0.2,0.2,0.1,0,0.2,0.1C6.2,8.4,6.1,8.1,6,7.8C5.8,7.7,5.6,7.4,5.5,7.2
		c0.1,0.1,0.2,0.1,0.3,0.2c0.1,0.1,0.3,0.3,0.3,0.4C6,7.7,5.8,7.5,5.9,7.6L6.3,8c0.1,0,0.1,0.2,0.1,0.2L6.3,8z"/>
</g>
</svg>
