<?xml version="1.0" encoding="utf-8"?>
<!-- Generator: Adobe Illustrator 19.1.0, SVG Export Plug-In . SVG Version: 6.00 Build 0)  -->
<svg version="1.1" id="Layer_1" xmlns="http://www.w3.org/2000/svg" xmlns:xlink="http://www.w3.org/1999/xlink" x="0px" y="0px"
	 viewBox="0 0 51.4 65.8" style="enable-background:new 0 0 51.4 65.8;" xml:space="preserve">
<style type="text/css">
	.st0{filter:url(#Adobe_OpacityMaskFilter);}
	.st1{mask:url(#SVGID_1_);}
	.st2{fill:#6A8DC0;}
	.st3{fill:#FFFFFF;}
</style>
<g>
	<g>
		<g>
			<defs>
				<filter id="Adobe_OpacityMaskFilter" filterUnits="userSpaceOnUse" x="0" y="0" width="51.4" height="65.8">
					<feColorMatrix  type="matrix" values="1 0 0 0 0  0 1 0 0 0  0 0 1 0 0  0 0 0 1 0"/>
				</filter>
			</defs>
			<mask maskUnits="userSpaceOnUse" x="0" y="0" width="51.4" height="65.8" id="SVGID_1_">
				<g class="st0">
					<g>
						<defs>
							<rect id="SVGID_2_" x="-2.4" y="-2.4" width="68.2" height="71"/>
						</defs>
						<clipPath id="SVGID_3_">
							<use xlink:href="#SVGID_2_"  style="overflow:visible;"/>
						</clipPath>
						<g style="clip-path:url(#SVGID_3_);">
							
								<image style="overflow:visible;" width="142" height="148" xlink:href="DC535C2F0519BC62.jpg"  transform="matrix(0.48 0 0 0.48 -2.3999 -2.3994)">
							</image>
						</g>
					</g>
				</g>
			</mask>
			<g class="st1">
				<g>
					<defs>
						<rect id="SVGID_4_" y="0" width="51.4" height="65.8"/>
					</defs>
					<clipPath id="SVGID_5_">
						<use xlink:href="#SVGID_4_"  style="overflow:visible;"/>
					</clipPath>
				</g>
			</g>
		</g>
		<polygon class="st2" points="2.7,2.7 2.7,63 49,63 49,14 43.4,7.4 39,2.7 		"/>
		<g>
			<path class="st3" d="M15.5,20.6h-0.9v3.6H12V13.6h3.7c2.4,0,4.2,1.1,4.2,3.4C19.9,19.4,18.2,20.6,15.5,20.6z M15.6,15.5h-1v3.2
				h0.9c1.3,0,1.8-0.5,1.8-1.6C17.3,16,16.8,15.5,15.6,15.5z"/>
			<path class="st3" d="M25,24.2h-3.4V13.6h3.5c4.2,0,6.1,2.1,6.1,5.2C31.2,21.8,29.3,24.2,25,24.2z M25.2,15.6h-0.9v6.5h1
				c2.2,0,3.3-1.1,3.3-3.3C28.5,16.6,27.5,15.6,25.2,15.6z"/>
			<path class="st3" d="M35.7,15.7V18h3.3v2h-3.3v4.2h-2.6V13.6h6.3v2.1H35.7z"/>
		</g>
		<polygon class="st3" points="22.4,33.9 30.6,33.9 30.6,46.8 32.9,46.8 32.9,48.4 26.9,57.2 25.7,57.2 19.8,48.6 19.8,46.8 
			22.5,46.8 		"/>
	</g>
</g>
</svg>
