<?xml version="1.0" encoding="utf-8"?>
<!-- Generator: Adobe Illustrator 19.1.0, SVG Export Plug-In . SVG Version: 6.00 Build 0)  -->
<svg version="1.1" id="Ebene_1" xmlns="http://www.w3.org/2000/svg" xmlns:xlink="http://www.w3.org/1999/xlink" x="0px" y="0px"
	 viewBox="201.5 11 243.8 432.7" style="enable-background:new 201.5 11 243.8 432.7;" xml:space="preserve">
<style type="text/css">
	.st0{opacity:0.25;}
	.st1{fill:#C1A879;}
	.st2{fill:#CFBA95;}
</style>
<g>
	<g>
		<g class="st0">
			<g>
				<path class="st1" d="M342.5,76.2c-1.7,6.1-1.4,13-0.8,17.3c-2.2,1.7-7.6,0.1-9.9,1.7c-4.5-6.1,0.4-12.8-0.8-18.2
					C333.5,75.2,340.2,73.3,342.5,76.2"/>
				<path class="st1" d="M326.8,81.1c0,5.6-1.1,5.8-0.8,12.4c-1.4,2.1-5.8,1.4-8.3,2.5c-3.1-3.6,0.5-9,0-14.9
					C321.9,81.7,323.8,79.5,326.8,81.1"/>
				<path class="st1" d="M359,81.1c-2.5,2.7-1.4,9-1.6,14c-2-1.4-5.5,1.2-9.1,0.8c-3.2-5.4-0.6-11.4-0.8-15.7
					C351.3,82.8,356,77,359,81.1"/>
				<path class="st1" d="M335.1,369.4c2.1,0.1,1.2,3.8,3.3,1.7c19.6-7.1,39-14.4,61.1-19c-0.2-3.6-1.3-6.4-0.8-10.7
					c-33-0.3-81.4,0.4-114,11.6c-2.7,0.5-3.8-0.6-5.8-0.8c-2.1,16.1-4.5,36.3-5,51.2C292,389.6,314.7,380.7,335.1,369.4 M288,395.8
					c3.4-1.8,7.5-3,9.9-5.8C294.5,391.8,290.4,393,288,395.8 M334.3,213.3c-10.3,0.3-25,1.2-38,3.3c-1.7,23.3-4.6,48.4-9.1,71
					c34.9-2.5,69.2-5.7,100.8-11.6c-3.8-19.1-6-42.4-10.7-62.8c-12.2,0.5-21.5,3.9-30.6-0.8c0.1-6.7-0.7-16.7-5-23.1
					C335,193.3,332.9,206.3,334.3,213.3 M303.7,163.7c0.7,2.3-1.2,2.1-0.8,4.1c20.4,1.3,45.7-1,69.4,1.7c0.6-4.5-1-6.7-0.8-10.7
					C348.4,160.8,324,158.1,303.7,163.7 M288,157.9c5.2,0.8,6.6-2.2,11.6-1.7c0-7.6,0.5-10.9,1.7-18.2c-4.5,0.8-4,0.5-8.3,0
					C290.9,144.3,287.8,149.5,288,157.9 M329.3,137.3c0.3,8.1-1.3,9.6-0.8,18.2c3.6-0.2,6.4-1.3,10.7-0.8c0.5-5.9-1-13.6,0.8-18.2
					C335.9,136.2,332.5,136.6,329.3,137.3 M316.1,155.5h8.3c0.2-6.8,1.7-13.4,1.7-18.2c-3.3,0.6-4.7-0.8-7.4-0.8
					C315.5,141.8,320.8,153.6,316.1,155.5 M305.4,137.3c0.1,6.8-3.4,12.2-1.7,18.2c4.7,0.4,6.3-1.2,9.9,0c0.6-2.9,0.8-15.8-0.8-19
					C311.9,138.3,307.6,136.8,305.4,137.3 M357.4,154.6c2.2,1.6,7.2,0.5,10.7,0.8c0.9-4.9-1.6-16,0-19.8
					C355.1,134,358,147.4,357.4,154.6 M343.4,154.6c3.9,0.6,4.5,0.4,10.7,0.8c-1.7-6.4,0.1-14.2,2.5-19c-6.2,0.1-8-0.2-12.4-0.8
					C342.5,141.3,342.2,148.3,343.4,154.6 M371.4,154.6c4.5-0.3,8.4,0.4,15.7,0c-1.2-7.6-4-13.7-5.8-20.6c-3.7,0.6-9.6,0.9-10.7,1.7
					C372.9,138,371.7,148.8,371.4,154.6 M333.4,16.7c3.3-0.5,3.3,2.2,6.6,1.7c5.5,8.5-0.3,18.1,2.5,24c4.9,10.3,19.3,11.7,24,24
					c2.5,0.3,6.4-0.9,6.6,1.7c-2.9,4.5-9.3,2.5-14,2.5c-16.7,0-31.6,1.3-44.6,4.1c1.7,18-4.8,36.8-5,57c15.4,2.8,33.6-2.6,55.3-0.8
					c-1.1-11.7-1.7-37.5-4.1-57.8c2.2-0.8,4.4-0.8,6.6,0c0.4,15,0.7,41.6,5,54.5c-0.2,4-4.4-1.2-5,2.5c7.3,1.6,16.4,0.8,21.5,0
					c0.4,11.1,3.6,19.5,1.7,28.9c-6.7,0.1-8.1,0.9-14.9,0c10,64,18.3,133.3,33.9,194.1c4.4,0.5,8.8-2.3,12.4,0c-0.5,3.7-3,2.4-5,5.8
					c-7.8,0.4-18.9,1.1-21.5,4.1c-31.5,1.7-52.4,15.8-76.8,24.8c-17.4,6.4-32.2,17.8-46.2,27.3c-3.3,8.3-1.3,19.6-5,28.9
					c-6.5-1.7-3.7-16.4-3.3-18.2c-1.3-2.7-3.1,2.9-5,0c-1.3-2.8,3.8-5.2,5-8.3c-1.8-1.3,0.2-6.2-3.3-5.8c-0.3-3.3,3.8-2.2,4.1-5
					c9.1-59.5,12.7-126,25.6-179.2c-1.7-21.4,5.8-39.7,6.6-64.4c-3.2-1.5-10.9,2.6-14-0.8c-0.4-9.2,1.4-20.7,3.3-28.9
					c2.8-1.2,13.1,1.4,19-0.8c-1.2-15.3,3.3-38.2,5.8-55.3c-4.4-0.1-8.6,0.8-11.6-1.7c0.8-4,4.3-8.2,7.4-11.6
					c6.2-6.6,14.7-13.4,22.3-18.2C330.2,35.5,331.6,25.9,333.4,16.7"/>
				<path class="st2" d="M417.3,358.8c2.7,1.8-1.1-1.5,1.9,1.1C418.6,359.8,418,359.6,417.3,358.8"/>
				<path class="st2" d="M265,418.6c-1.9-1.9-3.7-4.1-5.5-6.5c-0.8-1.1-2-2.6-2.5-3.5l4.6,0c3.9-3,2.3-11.6,3.1-16.7
					c0.1-1.4,0.9,0.4,1-2.6c-0.3-11.3,2.2-28.8,4.5-42.3l0.2,0.8c0.5-2.6-0.2-5.9,0.3-8.5c0.2,0,0.1,0.9,0.5,0.3
					c-0.4-0.8,0.5-5,0.3-6.2c0.4-1,0.8-0.9,1.2-2.2l-0.4-1.7c-0.8-4.6,1.7-10.5,1.8-16.6c0.1,0.3,0.1,0.9,0.3,0.5
					c0.5-9.6,2.5-21.5,3.7-32.2c0.2,0.5,0.5,0.9,0.8,0.3c-0.6-0.6-0.2-3.9,0.1-6.8c0.9-1.2,0.1-5,1-8.3l0.1,0.3
					c-0.3-2.6,0.9-3.6,0.4-5.7l0.8-1.5c-0.8-1.2,1-3.5,0.8-5.6l-0.2,0c0.1-2,0.7-2.9,0.8-4.7l0.1-0.2c0.4-4.2,1.3-6.6,0.5-6.6
					c0.8-1.4-0.3,4.1,0.8,1.9c1.3-13.9,3.6-28,5.6-41.9c0.5-1.5,0.8-2.5,1.1-2.8c0.1-1.4,0.6-5.2,0.5-6.5c-0.1,0.5,0.5-0.8,0.6-1.6
					c0.6-2.5-0.4-2.9,0.3-5.6c0,1.1,0.2,1.5,0.5,1.2c-0.2-2.4,0.3-5.6,0.6-8.4c0.1,0.5,0,1.1,0.3,1.1c-0.2-3.1,1-5.5,1-8.3l0.3,1.1
					c1.1-4.2-0.7-1.4,0.2-5.1c0,0.9,0.2,0.6,0.4,0.8c-0.7-0.8,1.3-6.2-0.9-4.2c-2.3,0.1-4.6,0.1-6.3,0.2c0.2-0.1,0.2-0.2,0.2-0.2
					c-1.5-0.8-4.7,2-5-1.9c0-2,0-4-0.2-6.1c0.2-1.5,1,0.5,0.9-3.5c-0.9,0.1-0.4-6.9-1.3-4.5c0.1-3.4,0.5-8.9,0.2-11.2
					c0.3,1.5,1-1.7,1.1,1.2l0.5-2.2c0.4,0.3-0.1,2.2,0.3,1.5c0-0.7-0.1-2.1-0.2-3.5c-1.9-0.4,1.8-0.2,1.7-0.2
					c2.7-0.5,5.1-1.5,9.4-1.6c-2,0.3,1.2,0.9-0.2,1.1c1.2-0.1,5.8-2,4.3-0.7c0.1-1.4,0.7-0.2,0.7-2.3c-0.2,0.1-0.3-0.8-0.4-1.5
					c0.2-0.5,0.5-5.9,1.4-6.5c0.4-0.6-0.1,2.3,0.4,0.8c0.3-2.6,0-2.8,0.4-5.4l0.1,0c0.3-1.7,0.3-5.2-0.4-3.3
					c-0.2,1.2,0.6-0.4,0.1,1.4c-0.3-1.3-0.1-4.4,0.2-7c0,0.9,0.3,0.8,0.4,1.2c-0.2-3.6,0-7.4,0.3-11.4c-0.4-0.1,0.5,1.6,0.3,2.1
					c1.2-5,0.5-10.5,1.8-14.6c0,0.7-0.6,0.3-0.5,0.3c0.4-2.4,0.9-2.2,0.9-3.9c0.4-0.1,0.1-2,0.2-3.7c-0.1-0.9,0.2-0.4,0.1,1
					c0-0.6,0-1.6,0.1-2.8l0.1-1l0,0l0,0v0c4.4,4.9,1.2,1.4,2.2,2.5l0,0l-0.1,0l-0.1,0l-0.3,0l-0.5,0l-2.3,0.1
					c-3.2,0.1-6.9,0.1-9.5-0.1c0.1,0.1-0.8,0.3-1.7,0.5l-0.8,0.1l-0.1,0l0,0l0,0l0,0c0.4,1.1-3.8-9.2-2-4.9l0,0l0,0l0,0l0.1-0.2
					l0.2-0.3c0.3-0.4,0.6-0.7,0.8-0.9l0,0.7c1-0.6,2.9-2.9,3.3-2.7c0.7-1.1-1,0.7-2.6,2.5l-1.1,1.3l-0.1,0.1l-0.1,0.1l0,0l0,0l0,0
					c0.6,1.5-1.4-3.4,1.4,3.4h0l0,0l0.3,0l0.6,0c0.6,0,0.8,0-0.1,0.1l-0.5-0.1l-0.3,0l-0.1,0h0h0c-0.6-1.5,1.4,3.3-1.4-3.3l0,0l0,0
					l0,0l0,0l0.1-0.1l0.9-1.3c0.6-0.8,1.1-1.5,1.1-1c1.7-1.7,3-3.8,5-5.1c-0.5,0.4-0.9,1.9,0.5,0.5c2.4-2.5,0.5-0.9,2.4-3l1.1-1.4
					c-0.3-0.4,2.3-2.1,0.9-1.6c0.6,0,3.4-3.7,3.8-2.9l0.1,0.8c1-1.1,1.3-2.2,1.9-3.3c0.2-0.1,0.6-0.3,0.6-0.1
					c-0.5-0.9,2.6-2.5,3.3-4.3c2.5-2,5.7-5.6,7.2-6.2c1.5-1.9,2.8-3.7,4.9-5.5c-0.3,0.5-0.8,1-0.8,1.3c0.7-0.5,1.1-0.9,1.4-1.3
					c-0.9,1.8-0.2-0.4-0.3-0.7c0.1,0.4,1.3-3.3,2.1-5.1c0.2-2.4-0.5-1.7-0.8-2c1.5-1.9,0.8-6.8,2.3-9.3c0,0.8-0.3,3.5,0.4,1.6
					c1.5-1.9,0.2-4.5,1.5-7.9l-1,0.7c0.8-1.4,0.6-5.2,1.4-4.7l0-0.5l0-0.1l0-0.1l0,0c-3.6,1.2,4.9-1.7,4-1.4v0l0,0l0,0l0,0l0,0
					l0.2,0.2l1,0.9c0.6,0.6,1.2,0.9,1.3,0.5c1,1.1,2.2,2.2,3.4,3.3c2.7,5.3,0.8,4.4,1.4,6.8c0,3.3-0.1,6.2-0.8,8
					c0.1,0.8,0,2.9,0.4,2.5c0.5-1.4-0.3-1.9,0-2.5c0,0.8,0.2,0.9,0.4,1c-0.2,1.8-0.2,3.2-0.9,1.5c-0.5,4,1.4,4.2,1.1,9.3
					c-0.2-0.1-0.3-0.1-0.4,0.2c-1.8-3.6,0-0.5,0.1-1l2.6,1.3c2.5,2.1,1,1.8,0.7,2.3c1.5,1,3.2,2.4,4.1,2.5l1.3,1.9
					c-0.9-1.4,1.4,0.6,2.1,1l-0.7-0.4c0.1,0.4,1.8,1.5,2.7,2.1c0-0.4-1.5-1.8-2.4-2.6c0.9,0.4,2,1.3,3.1,1.8c-0.7,0.2,2,2.1,3.1,3
					c1.2,1.1,1.8,0.7,2.1,1c-0.1,0.3,2.1,1.6,0.8,1.2c-0.5-0.3-0.8-1-1.7-1.3c0.7,0.8,0.3,1.1,2.3,2.2c1.5,0.8,0.3-1.1,2.6,1.1
					c-0.7-0.4-1-0.3-1.6-0.5l2.2,2l0.4-0.3c0.2,0.3,0,0.2,0.1,0.4c1,0.1,3.6,2.5,4.6,2.4c1.2,0.8,2.3,2.1,3.4,3l-0.2-0.1l1,0.9
					l0.6,0.4l0.3,0.2l0.1,0.1l0,0l0,0l0,0c0.3,7.5,0.1,2.1,0.2,3.8v0l0,0l0,0l-0.1,0.1c-0.7,0.7-1.3,1.4-1.8,2l0-0.1
					c-0.7,0.6-2.4,2.1-3.1,3.1c-1.8,0.7-2.5,0.5-2.8-0.1c0.2,2.4,1.2,3.8,1.4,2.8c-0.1,4.4,1.1,9.3,0.6,13.4
					c0.2,0.6,0.4,0.2,0.6,1.5c0.2,6.4,1.5,13.5,0.8,18.7c-0.3-1.9-0.5-0.1-0.8,0c0.6,1.5-0.4,1.9,0.5,2.4c0.5-0.2,0.7,0,0.8-1.9
					c0.5,3.8,0.9,9.6,0.6,11.8c0.1-1.1,0.3-0.3,0.5,0.6c-0.4-0.1-0.5,0.5-0.6,1.5l0.1,1.6l0.1,0.8l0.1,0.4l0,0.1l0,0
					c-4.9-5.2-1.4-1.4-2.4-2.6h0h0l0,0h0l0.1,0l0.2,0l0.4-0.4l1.3,0.6c0.8,0,1-0.8,3.1-0.1c0.1,0.2,0.2,0.4,0.6,0.6
					c2.2-0.1,5.4-0.3,7.8,0.4l1.9,0.9c1,0.1,2.8-0.1,1-0.5l0.7,0.2l0.4,0.1h0c-2.6-2.8,3.6,3.7,2.9,3.1v0v0l0,0v0v0.1l0,0.2l0,1.3
					c0,0.8,0,1.6,0,2.3c0,1.3-0.1,2.3-0.3,3c1,3.5,1.6,7.8,2.2,12.2l0.7,6.7l0.1,1.7l0,0.4l0,0.1l0,0.1l0,0c2.6-3.6-3.6,4.9-2.9,4
					l0,0l0,0l-0.2,0l-0.8,0.2l-3.1,0.7l0.2-0.4c-2.2,0.2-1,0.8-2.5,1c0.6-0.5-1.8-0.3-0.2-1.1c-3.2,0.4-3.8,1.5-5.8,2.1
					c-0.2,0.5,1.5-0.7,1.3,0c-0.2,0.1-1.2,0.3-2.3,0.5l-0.1,0l0,0l0,0l0,0c-2.5,3.8,3.4-5.1,2.8-4.2v0l0,0l0,0l0,0.2l0.1,0.4
					l0.2,0.7c0.1,0.4,0.3,0.8,0.5,0.9c-0.1,0.8-0.7,0.3-1.1-0.1l0.6,1.9c-0.4,2.5-2.3-5.1-2.8-2.5l0.4,1.7c-0.4,1.8-1.6-4.5-1.1-0.1
					c0.6,1.9,1.9,3.3,1.9,1.6c0.8,3.9,1.9,1.6,2.5,5.9c-0.2,1.2-0.7-3.4-1.1-2.5c-0.2,2.1,1,4,1.1,5.8c-0.1-2,0.9-0.5,1.2,0.8
					c0.1,2.2-0.9-1.3-0.4,1.8c0.5,0.4,1.2,3.2,1.1,0.7c1,1,0.3,3.2,1.2,4.8c-0.4,1.1-1.9-2.9-1.7,0.5c0.5-0.6,1.5,4,2.1,2.1
					c0.1,1.4-0.4,1.6-0.9,0.7c0,2,1.8,4.4,0.8,5.2l0.7,0.6c-0.1,0.6-0.1,1.5-0.3,2.5c0.3,1.7,1.7,5.2,0.8,5.2
					c0.2,0.5,0.8,4.3,1.2,2.8c0-2.4-0.9-2.7-0.3-4.1c-0.4,1.8,0.7,3.4,1.1,4.7l-0.3,0.3c0.3,0.8,0.5,2.7,1,3.1
					c-0.3-0.6-0.5-0.2-0.5,0.4l0.7,0.8c0.8,3.3-0.8,0.9-0.1,4.1l-0.8-2.4c0.2,0.5-0.1,1.7,0.3,3.2c0.6,0.5,1.4,1.6,1.8,2
					c0.5,1.8-0.4,0.9,0.4,2.6l-1-2.2c-0.2-0.3-0.5,1.7-0.1,4.1c0.4,1.5,1.5,3.8,1.4,1.3c0.2,1.2,0.2,3-0.3,2.1
					c0.6,2.7,0.5-0.4,1.2,1.9c-0.2,1-0.1,4.1-0.3,6l-1.2-2.4l0.3,1.7c-1-2-0.3,1.2-1.2,0.1c0.1,1.1,0.5,2.5,0.9,3.5
					c0.5-3.5,2.1,3.5,3,2.3c1,4.5-2,3.2,0.4,7.7c0.1-0.8,1.3,1.3,0.5-1.5c0.4,2.8,1.3,1.7,1.5,5.1c-0.8-2.4-0.6,2.8-1.8-0.6
					c0.4,0.2-0.1-2-0.3-2.6c-0.2,1.2-1-0.1-0.6,2.8c0.4,1.7,0.8,4.1,1.3,3.7c0.6-0.2-0.5-2.7,0.3-1.6c0.8,3.5,0,4.2,1.3,5.5
					c-0.4-2.2,0.1-2.9,0.5-2.9l0.7,2.5l-0.5-0.4c0.4,4.2,0.9,1.1,1.5,5.1l-0.4,2c-0.8-0.8-0.7-5.9-1.6-5c0.4,2.6,1.1,3.4,1.2,5.9
					l-0.5-1.8c0.1,0.9-1.1,2.1,0.3,5.7c0.6,1.9,0.5,0.4,0.9,0.4c0.8,4.1,1.4,5.3,1.9,8c-0.9-0.4,0.7,4.8-0.6,1.9
					c0.2-1.4-0.8-7.5-1.8-8.8c-0.7,1.7-0.4-3.3-1.5-4c0.5,3.4-0.4,3.3-0.9,4c0.1,0.9,0.5,1.8,0.7,2.3c0.6,0.3,0.4-0.9,1-1.1
					c0.5,3.8,1.4,7.3,2.3,9.3c-0.1,1.3-0.7,1-1-0.5c0.9,4.4,1.6,9.2,2.1,13.4c0.5-2.9,1,4.7,1.4,2.7c-0.2-2.3,0.1-4.3,0.8-3.2
					c0.2,1.4-0.4,0-0.5,0.6c0.8,1.7-0.3,2.9,0.7,4.6c-1-4-1.2-0.6-2.1-1.2c0.9,2.9-0.5,0,0,2.9c0.9,2.9,1.8,6.4,2.5,9.6
					c0,4.2,1.7,10.3,2.3,13.9c0,2-1.1,0.8-0.9,2.9c0.4,2.4,0.6-1.9,0.8,1.7l-0.2-0.3c0.4,1.1,0.5,6.7,1.9,7.5l-1.1-1
					c0,0.7,0.3,1.3,0.5,1.8c-0.3,0.1-0.4,0.9-0.8-0.2c-0.2,2.3,0.9,4.6,1.3,7l0.3-1.6c1.3,3.6,0.6,8,2.3,9.8l-0.4,0.3l2.1,1.2
					c-0.8,0,0.8,1.6,2.1,2l-5.8-2.7c-1.5-2.5,2,1.4,1.3-0.4c-0.9,0-0.8-4.4-1.6-4.7c0.2,1.4,0.3,1.5,0.7,2.5c-0.6,0.6-1-1.6-1.6-2.5
					c0.1,0.7,0.1,1.8,0.4,1.9c-0.6-1.4-0.9-2.9-1.3-5.3c0.5,1.6,0.3-1,0.6-0.4c-0.6-0.1-1.2-2.4-1.5-5.4c0.4-2.3-1.4-5.5-1.8-9
					c0.9,1.3,1.7,3,2.3,5.1c0-2.2-0.4-2.4-0.5-4.6c-0.6-1-1.5-1.6-2.2-4.4l0.4-0.2c-0.7-2.5-1.3-2.4-1.8-5.7
					c-0.7-5.6-1.7-11.4-2.3-15.7l0.4-0.2c-1.4-2.2-1.7-7.9-2.7-11c-0.5-5.5-2.4-11.8-2.1-14.7c-2-9.6-3.7-17.9-5.2-27.9l0.9,1.6
					c-0.8-1.7,0.2-1.2-0.2-3c-0.2,2.1-1.1-2.3-1.7-3.5c-0.2-4.5-1.7-10.1-2.9-14l0.4-0.2c-1.5-3.8-1.6-8.7-2.2-13.7
					c0.1-0.6,0.4-1.6,0.1-3c-1.2-2.6-1.4-4-2.5-7.8c-0.5-2.9-1.1-7.6-1.3-10.6c-1.4-5.3-2.4-10.8-3.4-16.3l-1.5-8.3l-0.8-4.2l-0.2-1
					l0,0c-0.5,0.8,4.4-6.7,2.3-3.5l0,0l0,0l0.1,0l0.1,0l0.3-0.1l0.5-0.1l2.1-0.6l0.9,0.3c2.6-0.9,5.4-1.8,8.3-2.5l1.1-0.3l0.1,0
					l0.1,0l0,0l0,0c0.5-0.7-4.7,6.4-2.5,3.4l0,0l0-0.3l-0.1-0.6l-0.2-2.2l-0.3-4.5c-0.4-6-0.7-11.7-1.4-16.4l1,0.8
					c0-1.5-0.2-3.2-0.4-4.4l-0.1-0.4l-0.1-0.2l0,0l0,0l0,0v0c1.1,1.1-2.4-2.5,2.4,2.5l0,0h0l-0.1,0l-0.6,0.1
					c-0.3,0.1-0.4,0.2-0.3,0.4c-2.9-0.7-7.4-0.5-9.2-1.5c-3-0.5-3.7,0-6.3-0.2l-0.6-0.1l-0.3,0l-0.1,0l-0.1,0l0,0l0,0l0,0
					c-1.4-1.5,3.1,3.3-3.1-3.3v0l0-1l0-1.8c0-1.2-0.1-2.2-0.1-3.2c-0.1-2-0.3-4-0.6-6.9l0,1.4c0.2,0.6,0.6,0.6,0.6-0.8
					c-0.4-2.1-0.3-7.9-1.2-5.7c0.2-6.1-1.4-14.2-1-20.2c-0.3,0.5-0.4-1-0.7-1.6l-0.3-8l-0.2-3.8l-0.2-1.8l0-0.2l0-0.1l0,0l0,0
					c-1.2,2.8,1.6-3.8,1.3-3.1l0,0l0,0l0,0L365,73l0.6-0.6c0.7-0.4-0.7,1.3,1-0.1c0.9-0.9-0.2-0.3,0.9-1.5l4.8-4.4l0.2-0.1l0.1-0.1
					l0,0c-0.2-5.7,0.3,7.8,0.3,6.4l0,0l0,0l0,0l-0.3-0.2l-0.6-0.5l-1.3-1l-2.5-2c-3.4-2.7-6.7-5.6-9.8-7.9
					c-5.7-4.1-11.5-8.4-17.1-12.7l-2.1-1.6l-0.5-0.4l-0.3-0.2l0,0c1.3,2.7-1.8-3.7-1.5-3.1v0v0v-0.1l0-0.2l0-1.3l0-5.3l0-10.3
					l0.2,0.2c-0.4-2.3-0.2-4.9,0-7.4c0.9,3.8-2.8-1.9-4-1.3l-0.7-0.8l-0.2-0.2l-0.1-0.1l-0.1-0.1l0,0l0,0v0c2.8-1-6.4,2.1,6.4-2.1
					l0,0l0,0l0,0l-0.2,0.6c-0.2,0.8-0.4,1.3-0.5,0.8c-0.2,3.6-2.7,9.7-3.1,14.9c0.1-0.5,0.1-0.7,0.2-1.3c-2.3,5.6-0.3,8.4-5.2,16.3
					l0.6-0.8c0.5-0.8-0.6,1.3,1.1-2l-0.1-0.3c-3.1,4.3-3.3,5.1-5.2,5.9c-0.9,0.9-0.2,1,0.3,0.4c-8.9,8.2-17.6,17.8-26.4,26.9
					c-3.4,2.9-3.9,2.7-4,2.5c-0.1-0.1,0-0.3-0.3,0l-0.2,0.3l-0.2,0.2l-0.1,0.1l0,0l0,0l0,0c1.6,4-2.2-5.4-1.8-4.5h0l0,0l0.1,0
					c0.5,0,1.1-0.1,2-0.2c0.6,0.2,0.4-0.4,0.5-0.2c2.8-0.3,4.3,1.2,6.2,0.6c-0.8-0.7,1.3-0.4,1.3-0.8c1.4,0.1,2.5,0.2,3.4,0.3
					l1.3,0.2l0.3,0l0.1,0l0.1,0l0,0l0,0h0c-2.3-2.6,3.2,3.6,2.6,2.9l0,0l0,0l-0.1,0.6c-0.3,1.5-0.5,2.8-0.5,5l-0.3-0.4
					c0.3,5.2-0.9,11-0.3,15.4l-2.4,20.8l-1.1,10.3l-0.6,5.1l0,0.2c-1.9,1.7,4.3-3.8-4.3,3.8l0,0h0l-0.1,0l-0.3,0l-0.6,0l-1.3,0
					l-2.6,0l-10.3,0.1l-1.3,0l-0.6,0l-0.2,0c9.1-9.1,2.5-2.5,4.6-4.6l0,0v0l0,0.1l0,0.3l0,2.6l0.1,5.1l0.2,20.5l0,1.3l0,0.3l0,0.2
					l0,0.1v0c-2.2-2.2,4.8,4.8-4.8-4.8h0l0.6,0l2.5,0l5.1,0l2.5,0l1.3,0h0.1h0c-1-1.2,9,10.4,4.8,5.5l0,0l0,0.2l0,0.3l-0.1,0.6
					l-0.7,5l-2.9,20c-2,13.3-4,26.7-6.3,40.3c-1.9,6.3-1.9,6.7-2.6,13.8c-0.1-0.3-0.1-0.8-0.3-0.3c0.7,0.5-0.7,5-0.1,5.7
					c-1.6,10.1-2.8,19.4-4.4,29.8c0.2-1.7-0.3-2.6-0.6-0.6l0.2,2.1l-0.3,0.3c-0.1,1.3,0.1,2.9,0.5,1.5c-2.8,26.4-9.5,51.2-11.1,77
					c-0.9,6.1-1.4,14.8-1.9,21.4c-0.7,4.9-1.4,9.7-2.1,14.4l-1,7l-0.5,3.5l-0.2,1.8l0,0.2l0,0.1l0,0.1l0,0c-1.4,1.3,3.1-2.9-3.1,2.9
					l0,0l-0.4,0l-0.9,0l-3.5,0h-0.9h-0.4h-0.2h-0.1c1.1-2.2-2.5,4.8,2.4-4.8l0,0l0,0l0.1,0.1l1,1.5l4.1,5.9l2.1,2.9l0.1,0.2l0.1,0.1
					l0,0l0,0l0,0c-0.2,1.7,0.4-3.9-0.3,3.9l-0.3,0.3l-0.6,0.6l-1.3,1.3l-5.2,5.3C259,428.6,259.9,427,265,418.6"/>
				<path class="st2" d="M414.1,356.5c-0.3-0.7-2.1-2.3-0.3-1.6C413.8,355.4,414.5,356.4,414.1,356.5"/>
				<path class="st2" d="M401.5,298.2c-0.1-0.1,0-0.9,0-1.1c0.1,0.7,0.6,1.4,0.5,2C401.8,298.4,401.7,298.5,401.5,298.2"/>
				<path class="st2" d="M399.1,282.7c0.4,0.2,1.2,3.4,1.5,5.4L399.1,282.7z"/>
				<path class="st2" d="M398.1,268.1c0.1-1.3,0.3-1,0.6,0.7C398.5,268.9,398.3,268.4,398.1,268.1"/>
				<path class="st2" d="M397.2,267.2c-0.2-1.2-0.1-1.8,0-2.4C396.9,264.8,397.8,267.5,397.2,267.2"/>
				<path class="st2" d="M392.9,235.7c-0.1-0.7-0.7-2.3-0.4-3.1C392.4,233.5,393.5,236.2,392.9,235.7"/>
				<path class="st2" d="M390,221.3c-0.1-0.5,0-0.7-0.2-1.2c0-0.9,0.4,0,0.6,0.7L390,221.3z"/>
				<polygon class="st2" points="329.9,20.4 330.1,18.8 330.3,19.1 				"/>
				<path class="st2" d="M302,107.3c0,1.6-0.4,1.1-0.5,1.3C301.6,107.2,301.8,109.2,302,107.3"/>
				<polygon class="st2" points="283.1,153.4 283.1,153 283.8,153.1 				"/>
				<path class="st2" d="M331.2,11.4c-1.7,0.2,1,0.5-1.1,0.3C330.3,11.5,330.6,11.2,331.2,11.4"/>
				<path class="st2" d="M363.7,67.5c-5.1,2.3-12.2,1.7-17.8,3.7c-0.7,0.2,0-1-1.5-0.5c-5.4,2.2-14.4,2.8-21.3,2.2l0.4-0.3
					c-1.3-0.1-2.8,1-4.2,0.9c0-0.2,0.4-0.3,0.1-0.5c-0.3,0.6-2.5,0.3-3,0.8c-0.6-0.2-0.5-0.6-1.2-0.8l-0.8,0.6
					c-2.2,1.6-5.3-0.1-8.4,0.5c0.2-0.1,0.5-0.2,0.2-0.4c-4.5,0.9-0.8-0.4,1.7-1.8c2.5-1.4,5.3-2.1,7.8-3.1c-0.1,0.3-0.2,0.7,0.1,0.9
					c0.1-0.8,1.6-1.3,3-1.8c0.8,0.5,2.3-1.2,4.1-1.2l-0.1,0.2c1.1-0.9,1.9,0.1,2.8-0.9l0.9,0.4c0.4-1,1.9,0.2,2.9-0.4l-0.1-0.2
					c1-0.4,1.5,0.1,2.4-0.2l0.1,0.1c2.1-0.4,3.4,0,3.3-0.7c0.8,0.5-2,0.4-0.8,1.2c6.9-1.3,14.2-1.2,21.2-1.3
					c0.8,0.3,1.3,0.4,1.5,0.6c0.3-0.2,3.7-0.3,1.8,0.4c0.2-0.1-0.6-0.2-0.9-0.2c-1.3,0.1-1.1,1.1-2.6,1.2c0.5-0.3,0.6-0.6,0.4-0.8
					c-1,0.9-2.6,1.2-4,1.5c0.2-0.2,0.5-0.3,0.4-0.5c-1.4,0.9-2.8,0.3-4.1,0.9l0.4-0.5c-2.2-0.2-0.5,1-2.5,0.9
					c0.4-0.2,0.3-0.3,0.3-0.5c-1.7,0.9-4.6,0.9-6.3,1.3l0.1-0.2c-1.9,0.1-3.9,0-6.1,0.3c-0.8-0.2,0.2-1-1.8-0.9
					c0.1,0.9-3.5,0.3-2.3,1.3c-1.8-0.2-4.5-0.6-5.7-0.3c0.8-0.3-0.8-1.1,0.6-1.1l-1.1-0.6c0.2-0.3,1.1,0.2,0.8-0.3
					c-0.7,0-2.8,0.2-3.5,0.1c-1.4,0.5-2.7,1.3-4.8,1.3c1-0.3-0.5-1,0.2-1.1l-3.1,1.4c-0.7,0-0.1-0.7-1.2-0.5c0,0.2-0.4,0.3-0.8,0.5
					c-0.3-0.1-3,0-3.3-0.9c-0.3-0.4,1.2-0.1,0.4-0.4c-0.7,0-1,0-1.4,0c-1-2,0-1.1,0.2-2l0.1,0c0.7-0.6,1.5-2.3,0.5-1.8
					c-0.5,0.5,0.5,0.1-0.3,0.7c0.1-0.8,1.1-2.2,2.1-3.3c-0.3,0.5-0.1,0.6,0,0.9c1-1.8,2.7-2.9,4.4-4.4c-0.2-0.4-0.3,1.1-0.7,1.1
					c2.5-1.1,4.9-2.9,7.2-3.1c-0.3,0.2-0.3-0.5-0.3-0.4c1.3-0.3,1.4,0.3,2.1,0c0.2,0.3,1-0.3,1.8-0.6c0.4-0.3,0.2,0.1-0.5,0.3
					c1.1-0.7,5.8-1.8,8.6-1.5c-0.1-0.2,1.6-1,2.3-0.9l-0.2,0.5c0.6,0.3,2.1-0.1,2.2,0.4c1.3-0.7-5.1,0.7-3.3,0.1
					c0.5,0.4,2.5-0.9,2.1-0.2c1.3,0,2.5-0.7,3.7-0.2c-0.4-0.1-1,0.7,0,0.7c1.8-0.1,0.5-0.3,1.9-0.4l0.9-0.2c0.1-0.5,1.6,0.1,0.9-0.5
					c0.2,0.4,2.6-0.2,2.4,0.6l-0.3,0.7c0.8,0,1.3-0.7,1.9-0.9c0.1,0.1,0.3,0.2,0.2,0.3c0.2-1,1.8,0.2,2.7-0.6
					c0.8,0.2,1.8,0.3,2.7,0.3l0,0h0h0c0.6,10.5,0.2,2.9,0.3,5.2h0h0l0,0l-0.1,0l-0.2,0l-0.3,0l-0.6,0l-0.9-0.2
					c-1.1,0.5-2.2,1.1-3.5,1.1c0.3-0.1,0.6-0.2,0.7-0.5c-0.9-0.1-1.1,0.2-1.8,0.5c0.1-0.2-1.8-0.3-2.8-0.4c-1.1,0.5-0.6,1-0.7,1.3
					c-1.3-0.8-3.3,1.3-4.8,0.6c0.4-0.2,1.7-0.8,0.6-0.9c-1.3-0.8-2.1,1.2-3.9,1l0.6,0.7c-0.9-0.3-2.6,0.9-2.5,0
					c-0.6,0.4-2.2,0-1.9,0.8c-3.1-0.3-7.3,1.4-9.2-0.3c-0.4,0.1-1.5,0-1.3,0.4c0.7,0.5,1-0.3,1.3,0c-0.4,0-0.5,0.2-0.5,0.4
					c-1-0.2-1.7-0.3-0.8-0.9c-2.1-0.5-2.2,1.4-4.9,1c0.1-0.3-0.1-0.5-0.8-0.4l-0.4,0.1l-0.1,0l0,0l0,0h0c0.3,4.5-0.5-6.2-0.4-5.1h0
					l0,0l0,0l0,0l0.1-0.1l0.6-0.5c1.5-0.3,1.1,0.5,1.2,1c0.8-0.3,1.8-0.6,2.1-1.1l1.2,0.3c-0.9-0.2,0.6-0.6,0.9-0.9l-0.3,0.3
					c0.2,0.2,1.1-0.3,1.6-0.6c-0.2-0.3-1.3-0.1-1.8,0c0.3-0.4,1-0.6,1.4-1.1c0,0.6,1.5-0.1,2.1-0.3c0.8-0.2,0.7-0.8,0.9-0.9
					c0.1,0.3,1.2-0.5,0.8,0.2c-0.2,0.2-0.7,0-1,0.4c0.6,0,0.7,0.5,1.6-0.3c0.7-0.6-0.6-0.9,1-1.2c-0.3,0.3-0.3,0.5-0.5,0.8l1.5-0.3
					l-0.1-0.5c0.2,0,0.1,0.1,0.2,0.2c0.2-0.7,2.1-1,2.2-1.7c0.7-0.3,1.6-0.2,2.3-0.5l-0.1,0.1c0.9-0.1,2.1-0.5,2.7-1.1l0,0.1
					c0.5-0.1,1.6-0.5,2.1-1c1.3,0,0.9,1.8,2.1,0.9c1.3-0.2,1.9-1.3,1.3-1.5c2.3-0.3,5.4-0.7,7.6,0.2c0.4-0.1,0.2-0.3,1-0.2l2.9,1
					l0.7,0.2l0.4,0.1l0.1,0c-0.5,2.7,1-6-1,6h0h0l0,0l0,0l0,0l-0.2,0l-1.2,0.2c-1.7,0.2-3.2,0.4-4.6,0c0.9-0.3,0-0.5,0-0.8
					c-0.8,0.5-1-0.4-1.2,0.4c0.1,0.5,0.1,0.7,1,0.8c-2,0.5-5,0.6-6.2,0.2c0.6,0.2,0.1,0.4-0.3,0.5c0.1-0.8-1.3-0.8-2.5-0.6l-0.2,0.4
					l-0.7-0.5c-0.4,0.1-0.5,0.9-1.6,0.4c0-0.2-0.1-0.4-0.3-0.5c-1.2,0.4-2.9,0.8-4.2,0.2l-1-0.8c-0.5,0-1.5,0.3-0.6,0.6
					c-2.1-0.7-3.5-1.2-4-1.9c-2,0.3-4.4-0.2-6.8-0.9l-3.4-1.5l-0.8-0.4l-0.1-0.1l0,0c-0.1,1.5,0.9-13,0.5-6.8l0,0l0,0l0,0l0,0
					l0.2-0.1l0.4-0.2l1.5-0.6l0,0.4c1.2-0.1,0.3-0.8,1.2-0.8c-0.2,0.4,1.1,0.3,0.4,1c1.6-0.3,1.7-1.3,2.7-1.8c0-0.5-0.7,0.6-0.7,0
					c0.1-0.2,2.3-0.4,2.3-1.1c0.5,0.1,0.3,0.7,0.2,1l0.8-0.6c1.4,0.3-2.2,2.2-0.6,2.7l0.8-0.4c1,0.4-2,1.5,0.2,1
					c0.8-0.6,1.3-1.8,0.4-1.8c1.9-0.8,0.4-1.8,2.6-2.5c0.7,0.2-1.7,0.7-1.1,1c1.1,0.1,1.9-0.9,2.9-1c-1.1,0-0.4-0.9,0.2-1.1
					c1.2,0-0.6,0.8,1,0.5c0.2-0.4,1.6-1.1,0.2-1c0.4-1,1.7-0.2,2.5-1.1c0.6,0.5-1.4,1.8,0.4,1.7c-0.4-0.6,2.1-1.1,1-1.8
					c0.8,0.1,0.9,0.5,0.4,0.9c1.1,0.2,2.4-1.4,2.9-0.3l0.3-0.6c0.3,0.2,0.8,0.2,1.4,0.5l0.8-0.2l0,0l0,0h0c1-5.7-1.4,7.7-1.2,6.3
					l0,0h0l0,0l0,0l-0.1,0l-0.1,0l-0.2,0.1c-0.3,0.1-0.4,0-0.4-0.5c-0.3,0.1-2-0.1-1.3,0.6c0.9,0.4,1.4-0.4,1.4,0.5
					c0-0.8-1.3,0-1.8,0.2l-0.1-0.4c-0.3,0.1-1.3,0-1.5,0.4c0.3-0.2,0.1-0.4-0.2-0.5l-0.4,0.5c-1.6,0.3-0.4-0.9-2-0.8l1.2-0.4
					c-0.3,0.1-0.8-0.4-1.6-0.2l-0.1,0.1l0,0l0,0c-0.8-2.8,1.7,6.2-1.7-6.2v0l0,0l0,0l0,0l0-0.2l0.1-0.5l0.1-0.9
					c0.7-0.6,0.6,0.3,1.1-0.6l-0.7,1.1c-0.1,0.2,1.1,0.3,2.1-0.3c0.6-0.5,1.3-1.7,0.1-1.4c0.5-0.3,1.4-0.5,1.2,0.1
					c1.1-0.8-0.3-0.4,0.4-1.2c0.5,0,1.7-0.4,2.6-0.5l-0.3,1.3l0.6-0.5c-0.4,1.1,0.7,0.1,0.7,1c0.5-0.3,0.9-0.8,1.1-1.3
					c-1,0.1-0.9-0.5-0.7-1.1l0.1-0.2l0,0l0,0h0c-0.5-1.1,4,9.5,2.1,5h0l0,0l0,0l-0.1,0l-0.1,0.1l-0.4,0.3c-0.2,0.2-0.4,0.4-0.3,0.7
					c-2.4,0.2-1.4-2.5-4-1c0.4,0.3-0.8,1,0.7,0.8c-1.5-0.2-1.1,1-2.7,0.5c1.2-0.4-1.2-1.1,0.5-1.6c-0.1,0.3,0.9,0.3,1.3,0.2
					c-0.6-0.4,0.2-1-1.3-1.1c-0.9,0.1-2.1,0.1-1.9,0.6c0,0.6,1.3,0,0.8,0.5c-1.7,0.1-2-0.7-2.7,0.3c1.1,0,1.3,0.6,1.3,1l-1.2,0.2
					l0.2-0.4l-0.6-0.1l-0.2,0l0,0l0,0l0,0h0c0,1.9-0.4-16.2-0.2-8.6h0h0l0.1,0l0.2-0.3c0.1-0.2,0.2-0.4,0.9-0.5l0.8,0.7
					c-0.3,0.7-2.2,0-1.9,1c1.1-0.1,1.3-0.6,2.4-0.6l-0.7,0.3c0.3,0,1.1,1.3,2.7,0.1c0.9-0.5,0.2-0.4,0.1-0.8
					c2.1-0.7,2.7-1.2,4.5-1.5c-0.1,0.2,0.1,0.3,0.3,0.3h0.4l0.1,0l0.1,0h0l0,0l0,0c-0.4,3.2,0.9-7.2-0.9,7.2h0l0,0l-0.1,0
					c-0.3-0.1-0.5-0.1,0.1-0.4l0.1,0.1l0,0l0,0h0l0,0c1.5-13.1,0.4-3.6,0.8-6.5h0l0,0l-0.1,0l-0.1,0l-0.6,0l-1.6,0.2
					c-1.1,0.2-1.9,0.7-2.3,1.1c1,0.7-1.7,0.3-1.8,1.3c1.6-0.3,1.7,0.6,2.2,1.1c0.5-0.1,0.9-0.4,1.1-0.6c0.1-0.6-0.5-0.4-0.7-1
					l2.9-0.7l0.7-0.2l0.3-0.1l0.2-0.1l0.1,0h0c0.5-4.1-0.7,5.6-0.5,4.6h0h0h0l0,0l0,0l-0.8,0.2c-0.6-0.4-0.2-0.9,0.4-0.8
					c-1-0.1-2.2-0.3-3.3-0.5c-0.2,0-0.8-0.1-0.6-0.1c0.2,0,0.5-0.1,0.7-0.4l0.2-0.4l0-0.2v0v0c0.7,0.5-5.7-4.2-3-2.2l0,0l0,0l0,0
					l0.1-0.1c0.7-0.6,1.6-1.2,2.2-1.3c-1.7-0.4,2.4-1.1,1-1.4c-0.4-0.1-2.9,0.1-1.9-0.7c1.1-0.3,0.1,0.4,0.6,0.4
					c0.9-0.8,1.7,0.2,1-0.3c0.2,0.2,0.6,1,0.9,1.6c0.1-0.4,0.6-0.2,0.5,0.7c-0.5-1.3-1.5-3.6-0.3-6c1-1,1.7-1.8,2.2-2.9
					c0.1,2.8-1.4,0.1-2.2,0.2c-0.7-1,0.4-0.9-0.5-2.1c-0.7-2-0.9,2.5-0.4-1.9l0,0.2c0.2-0.5,2.7-1.9,2.2-3l0.3,1
					c0.3-0.2,0.4-0.5,0.5-0.8c0.2,0.2,0.7,0.1,0.5,0.6c1.2-0.5,1.4-1.9,2.2-2.9l-0.9,0.3l0.8-1.2l0.2-0.3c1.6,3.1,0.3,0.9,0.5,1.5
					l-0.7,0c-0.9-0.1-1.8-0.1-2.8,0l0.1-0.5l-1.2,0.3c0.3-0.5-0.8-0.8-1.4-0.4l3.1-1.3c0.9,0.3-0.9,0.6-0.4,1.1
					c0.5,0.4,2.4,0.3,2.6-0.2c-0.7-0.1-0.8,0.1-1.3,0.2c-0.3-0.7,0.8-0.7,1.3-1.2c-0.4,0-0.9-0.2-1,0l1.1-0.3
					c0.7,0.9-0.6-2.2,1.8,2.1l-0.5,0.7c0.3-0.8-0.6,0.1-0.6-0.3c0.4,0.5-0.2,1.5-1.3,2.6c-1.2,0.4-1.8,2.5-3.3,3.7
					c0.1-1,0.5-2,1.1-3c-1,0.6-0.9,0.9-1.9,1.4c-0.5,1.3,0.5,0.2,1.4,0.6l-0.2,0.4c1.3,0.6,1.4-0.4,3.3,1.3c0.1,6.7-3,5.3-2,8.1
					l-0.5,0.1l0.6,1.1l0.1,0.3c-0.7,2.5-0.4,0.9-0.7,1.6l-1,0.7c-1.2,0.5-2.4,0.7-2.3,1.1l-0.2,0l0,0l0,0c-1.2-0.9,2.7,2-2.7-2l0,0
					l0,0l0,0l0.1,0l0.3-0.2l0.8-0.3c1.5-0.2,1.5,0.1,1.9,0.1l2.1,0.3l2,0.4l0.2,0.1l0.1,0l0,0c0.1-0.7-0.8,6.3-0.4,3.4h0h0h0h0
					l-0.1,0l-0.3,0l-0.6-0.1c-2.2,0.5-4.3,1.4-6.8,1.9l-1.9,0.3l-0.1,0l-0.1,0l0,0h0c0.1,3.5-0.1-4.7-0.1-3.9h0h0h0.2l0.5,0l0.9,0
					l3.8,0.2l-0.9,0.6c0.9-0.5,0.6,0.4,1.5,0.3c-1-0.6,1.3-0.6,1.9-1l1.8,0.3l0.9,0l0.2,0l0.1,0h0h0c2.8,6.5,0.8,1.8,1.4,3.3l0,0
					l0,0l0,0l0,0l-0.4,0.4c-1,1-1.9,2-2.7,2.9l-0.3-0.3c-0.7,1.1-1.6,1.6-2.7,2.1l-1.7,0.7l-0.9,0.4l-0.4,0.2l-0.1,0.1l-0.1,0l0,0
					l0,0c-2.2-8-0.6-2.2-1.1-4h0h0l0,0l0.2,0c0.3,0.2,0.8,0.6,1.5,0.5c1.4-0.7,2.1-0.8,4.3-1.1c0.7,0,2.1,0.3,3.4,0.8l0,0l0,0h0
					c-1.8,9.8-0.5,2.7-0.9,4.9l0,0h0l0,0l-0.1,0l-0.2,0l-0.3,0l-0.7,0l-1.2,0c-5,1.5-10.4,2.6-15.4,5.1l-0.6-0.4
					c-1.2,0.8-2.5,1.5-3.8,2.1l-0.5,0.2l-0.3,0.1l0,0c-0.1,1.3,0.7-11,0.4-5.8h0l0,0l0,0l0.1,0l0.1,0.1l0.9,0.4l1.8,0.9
					c2.5,1.1,5,2.1,7.3,2.2l-0.6,0.8c1.3,0.6,3.2,0.4,2.9-0.3c1.4,0.4,3.5,0,4.3,0.8c1.4,0.2,1.8-0.4,3-0.4c2.9,0.4,4,0.3,6.8-0.1
					l-0.7,0c-0.3,0.2-0.3,0.6,0.4,0.6c1-0.3,3.9-0.1,2.7-1.1c1.5,0.2,3.2-0.2,4.9-0.5l0.3-0.1l0.1,0h0h0c1.1-6.2-1.5,8.5-1.2,7l0,0
					l0,0l0,0l-0.1,0l-0.5-0.1l-0.9-0.3c-0.6-0.2-1.1-0.6-1.7-0.9c0.2,0.3-0.5,0.4-0.7,0.6c-2-0.2-4.5-0.5-6.3,0.4
					c-0.4-0.1,0.5-0.6-0.5-0.5c-0.6,0.3,0.1,0.4-0.6,0.8c-3.7,1.6-8.1,2.1-11.8,3.8c-3.2,1.6-6.7,3-10.5,4.1l-0.3,0.1l-0.2,0.1
					l-0.1,0l0,0l0,0c0.1,1.7-1.1-14.4-0.6-7.6h0h0h0.6h1.3l2.5,0l4.9,0l-0.1,0.2c2.1-1.1,5.2,0.2,6.8-1.2c0.5,0.1,2-0.1,1.7,0.3
					c1.6-0.8,5-0.3,7.4-1.5l-0.6,0.2c2.6,0,4.8-1.1,7.7-1.2c-0.3,0.1-0.8,0.3-0.8,0.5c1.1,0.2,2.4-1.4,3.1-0.4
					c0.6-0.1,0.3-0.6,0-0.5l2.3-0.3l0.6-0.1l0.1,0l0,0l0,0l0,0c0.2,2.8-0.4-6.4,0.4,6.4h0l-0.1,0l-0.3,0l-1.2-0.1l-4.7-0.1
					c-3.1,0.1-6.3,0.2-9.4,0.4c-4.4-0.5-0.3-1.9-3.8-0.9c-0.3-0.2-0.2,0.4-0.2,0.2c-1.3,0.4-2.2-1-3-0.4c0.5,0.6-0.6,0.4-0.6,0.8
					c-2.7-0.2-3.3-0.5-5.2,0.4l0.1-0.4c-2.2,1.3-4.8,2-6.2,3.6c-2.6,1.5-5,3.2-6.5,5.5l-0.7,0.8l0,0.1l0,0l0,0
					c-6.3-12.8-1.7-3.5-3.1-6.4l0,0l0.2,0l0.3,0l0.6,0l2.6,0.1l5.2,0.2c6.8,0.3,13.6,0.4,20.2,0.2c6.6,0,13.1-0.7,19-2.4l2.3-0.6
					l0,0c0.7,4.2-1.6-9.4,1.6,9.5h0l0,0h-0.1l-0.2,0l-0.3,0l-0.6,0l-1.3,0l-5.1,0l-10.2,0c-3.2-0.8-3.5-0.8-6.9-0.1
					c0.1-0.2,0.3-0.2,0.1-0.3c-0.1,0.8-2.4,0.3-2.7,1c-4.9,0.3-9.3,1.3-14.1,2.5c0.7-0.3,1-0.9,0.1-0.7l-0.8,0.7l-0.2-0.1
					c-0.6,0.3-1.1,0.9-0.4,0.9c-2.9,1.1-5.8,2.1-8.6,3.4l-2.1,0.9l-0.3,0.1l-0.1,0.1c0.4,2.1-3.6-17.9-1.9-9.4h0l0,0l0,0l0.1,0
					l0.6,0l1.2,0.1l4.7,0.4c6.3,0.4,12.6,0.2,19-0.6c3.1-0.1,7.3-0.9,10.6-1.6c9.9-0.5,18.9-1.3,29.1-3
					C369,64.5,367.8,66.6,363.7,67.5"/>
				<path class="st2" d="M333.3,11.3c0.4,0.4,1.6,0.5,0.7,1.1C333.8,12,333.2,11.6,333.3,11.3"/>
				<path class="st2" d="M334.3,31c1.3-4,0.2-1.3,0.4-2.3c-0.3,1,0.6-2.4-0.8,2.3c-0.1-0.2-0.1-0.4-0.1-0.5
					C334,31,334.2,30.9,334.3,31"/>
				<path class="st2" d="M335.3,36.1c0.8,0.1-4.1,0.7-0.5-0.2C331.2,36.6,335.4,35.9,335.3,36.1"/>
				<path class="st2" d="M332.7,30.7c-0.7-0.1-0.6-0.3,0.3-0.5C333.2,30.4,332.9,30.5,332.7,30.7"/>
				<path class="st2" d="M332.4,31.6c-0.5,0.1-0.9,0-1.2-0.1C331.3,31.7,332.5,31,332.4,31.6"/>
				<path class="st2" d="M336,33.2c-0.2,0.2-0.6,0.8-1,0.7C335.4,33.9,335.9,32.7,336,33.2"/>
				<path class="st2" d="M331.2,37.2c-0.2,0.1-0.3,0.1-0.5,0.3c-0.5,0.1-0.2-0.4,0.1-0.6L331.2,37.2z"/>
				<polygon class="st2" points="336.6,61.9 335.8,62.2 335.9,61.9 				"/>
				<path class="st2" d="M310.2,60.6c-0.6,0.7-0.7,0.1-0.9,0.1C310,60.3,309.3,61.2,310.2,60.6"/>
				<polygon class="st2" points="332.6,69.5 332.4,69.5 332.5,68.8 				"/>
				<path class="st1" d="M445.2,72.5c-0.1-0.8-0.1-0.2-0.2-0.1L445.2,72.5z"/>
				<path class="st1" d="M445.1,72.3l-0.1-0.1C445,72.3,445,72.4,445.1,72.3"/>
				<path class="st1" d="M444.1,72c0-0.7,0.5,0.1,0.4-0.9C444.1,70.6,443.8,70.9,444.1,72"/>
				<polygon class="st1" points="444.5,72.5 444.4,72 444.4,72.9 				"/>
				<polygon class="st1" points="444.8,73 444.7,72.8 444.6,73.4 				"/>
				<path class="st1" d="M443.3,71.8l0.2-0.2c0.4,0.7,0.1,1,0.4,1.4c0.2-0.1-0.3-1.5,0.1-1.3c-0.2-0.7-0.5,0.1-0.7-0.9
					C442.8,70.5,443.3,71.4,443.3,71.8"/>
				<path class="st1" d="M432.5,80.3L432.5,80.3C432.5,80.4,432.6,80.4,432.5,80.3"/>
				<polygon class="st1" points="429.3,81.8 429.1,81.6 429.3,81.9 				"/>
				<path class="st1" d="M434.2,77.9l0.2,0.2C434.3,78,434.3,77.8,434.2,77.9"/>
				<polygon class="st1" points="412.2,78 412.2,77.7 412.2,77.7 412.2,78 				"/>
				<path class="st1" d="M425.9,84.2l-0.1,0.1L425.9,84.2z"/>
				<polygon class="st1" points="435.4,77.5 435.3,77.5 435.4,77.6 435.4,77.5 				"/>
				<path class="st1" d="M430.7,83l-0.1-0.1L430.7,83z"/>
				<path class="st1" d="M440,71.3c-0.1-0.1-0.1,0-0.1,0.1C439.9,71.6,440,71.6,440,71.3"/>
				<path class="st1" d="M438.8,71.7L438.8,71.7C438.8,71.6,438.8,71.6,438.8,71.7"/>
				<path class="st1" d="M438,71.8L438,71.8C438,71.7,438,71.7,438,71.8"/>
				<path class="st1" d="M439.8,71.4c-0.2-0.4-0.6-1.7-0.3-0.2l0.1,0.2c-0.2-0.3-0.1,0.3-0.2,0.4l0.1,0.4l0.2,0.1
					C439.9,72.5,439.8,71.8,439.8,71.4"/>
				<path class="st1" d="M432.5,80.1C432.6,80.3,432.6,80.2,432.5,80.1"/>
				<path class="st1" d="M433.3,78.7l-0.1,0L433.3,78.7z"/>
				<path class="st1" d="M437.2,78.2L437.2,78.2C437.2,78.3,437.2,78.3,437.2,78.2"/>
				<path class="st1" d="M433.1,78.7L433.1,78.7L433.1,78.7z"/>
				<path class="st1" d="M435.9,77.7L435.9,77.7L435.9,77.7z"/>
				<path class="st1" d="M395.9,75c0.1-0.1,0.1,0.3,0.2,0.4c0.1-1-0.3,0-0.2-0.9l-0.2,0.3l0.2,0.9C396.1,75.3,395.9,75.4,395.9,75"
					/>
				<path class="st1" d="M411,76.2L411,76.2c0-0.3,0-0.5-0.2-0.7c0,0.7,0.3,1.6,0.2,2.4c0-0.1,0.1-0.1,0.2,0
					C411,77.3,411,76.7,411,76.2"/>
				<polygon class="st1" points="411.1,77.9 411.1,78 411.2,78.2 411.3,78.3 				"/>
				<path class="st1" d="M398.5,75.3L398.5,75.3C398.5,75.2,398.5,75.2,398.5,75.3"/>
				<path class="st1" d="M423.8,72.3l0-0.3L423.8,72.3z"/>
				<polygon class="st1" points="412.9,76.9 413,77 413.1,77 				"/>
				<path class="st1" d="M408,86.7c-0.1-1.1,0,0.1-0.3-0.5l-0.1,0.6C407.8,87,407.9,86.8,408,86.7"/>
				<polygon class="st1" points="395.8,74.7 395.8,74.8 395.8,74.8 				"/>
				<path class="st1" d="M404.3,87.5l-0.1-0.1L404.3,87.5z"/>
				<path class="st1" d="M411.9,78.3l0.5,0l-0.2-0.2C412.2,78.6,411.9,77.6,411.9,78.3"/>
				<path class="st1" d="M411.5,80.7c-0.1-0.4-0.1-0.9-0.2-1.3l0,0l-0.1-0.4c-0.1-0.1-0.2-0.2-0.2,0
					C411.3,80.5,411.2,80.7,411.5,80.7 M418.6,75.8c0-0.2,0.1-0.7-0.1-1c0,0.4-0.2-0.2-0.2,0.4l0-0.1
					C418.4,75.5,418.5,75.8,418.6,75.8 M434.5,72c-0.2-0.4-0.3-0.3-0.3-0.1L434.5,72z M437.3,72.7c-0.1-0.2-0.1-0.3-0.2-0.4
					C437.2,72.6,437.3,72.8,437.3,72.7 M438.4,71.4l0,0.2l0,0L438.4,71.4z M434.8,77.9c0.2-0.5,0.2,0,0.3,0.3
					c-0.3-0.2-0.4,0.1-0.7-0.2l0.2,0.7c-0.1,0-0.2-0.2-0.4-0.8C434.1,76.9,435,78.5,434.8,77.9 M437,77.7l-0.1-0.2
					C437,77.3,437,77.2,437,77.7 M410.1,87.1l0.1,0.6c0.3-1.4,1.1,0.4,1.2-1.5c0.9,2.2,0.1-2.1,0.9-0.1l-0.1-0.3
					c1.8,0.1,3.9,1.1,5.3-0.3l0.1,0.5c2.8,0.3,5.1-1.2,7.8-1.3c0.2-0.5-0.2-1.4-0.1-2c0.1,0,0.3-0.1,0.4,0.5c-0.1,0.3,0.1,0.8,0.1,1
					c0.3-0.1,0.8,0.4,0.9-0.3l-0.4-0.7c0-0.3,0.2-0.1,0.3-0.1c0,0.4,0.3,1.1,0.3,1.3c0.2-1.9,0.6,0.7,0.9-0.1
					c-0.2-1.5,0.1-2.9,0.3-4l0.3,0.4c-0.3,0,0.2,1.1-0.1,1.1c0.4,0.4,0.5-0.3,0.8-0.1c-0.1-0.4-0.2-0.9-0.2-1.1
					c0.2,0.2,0.4,0.9,0.6,1l-0.1,0.5c0.2,0.5,0.2-0.2,0.3-0.3c0.2,0.6,0.5,0.7,0.6,1.4c0.1-0.9,0.3-0.4,0.4-1
					c-0.4-0.6-0.1-0.8-0.2-1.4l-0.3,0.3c0.5,0.3-0.1,0.1,0.1,1.2c-0.3-0.5-0.1-1.8-0.4-1.6c0.3-0.6,0.5-0.2,0.7-1.1
					c-0.2,0.3-0.1-0.7-0.3-1c0.3-0.1,0.2,0.4,0.4,1c0.2-0.1,0.4,0.5,0.4-0.3c0.4,0.3,0.1,0.8,0.4,1.2c0.1,0.8-1-0.8-0.4,1.6
					c-0.1,0.1-0.1,1-0.4,1c0.3,0.3,0.7,1,0.8,0.4l-0.3-1.3c0.2-0.1,0-1,0.2-0.9c0,0.4,0.3,0.9,0.4,0.8c-0.1-0.2-0.1-0.1-0.2-0.4
					c0.2-0.2,0.1-1.1,0.3-1.4c-0.3-0.3-0.5-0.7-0.8-1.2c-0.1-0.9,0.1-0.2,0.3-0.3l0.1,0.3l0.1-0.5c0.4,0.3,0.3,1.4,0.6,1.8
					c0.4,0.7,0.1-0.5,0.4-0.1l-0.1-0.2l0.1,0.1l0-0.1c0.1-0.2,0.3-0.1,0.2-0.9c0.1,0.3,0.1-0.1,0.1-0.4c0-0.3,0.1-1.2,0.5-0.1l0,0
					c0.2,0.1,0.5,0.4,0.5,0.8l0.4,0.2l0.2,0.9c0.2-0.3,0.1-0.8,0.1-1.8c0.3,0.5,0.6,0,0.7-0.4l0.1,0l-0.2-0.3c0.2,0,0.1-0.5,0.3-0.5
					c-0.1-0.1-0.1-0.1,0.1,0l0.1,0l-0.1,0.1l0.1,0.3c0.4,0.9,0.2-0.6,0.4-0.3l-0.1,0.1c0.2,0.2,0.6,1.5,0.5,0.7c0,0.1,0.1-0.1,0-0.3
					l0.1,0.1l-0.1-0.1c0-0.3,0-0.6,0-0.4l0.3,0.1c0.1,0.1,0.1,0,0.2-0.2l0.1,0.4c0.1-0.1,0.1,0.1,0.2,0.2c0.7,1.2,0.4-0.8,1.1,0.2
					c-0.1-0.6-0.3-0.9-0.4-1.2c-0.1-0.5,0.1-1,0.1-1.3c0.4,0.8,1.1,1.5,1.3,2.7c0.4,0-0.3-0.7-0.2-1.2l0,0c-0.1-0.1-0.3-0.5-0.5-1
					c-0.2-0.7,0.1-0.9,0.2-0.8l0.2,1c0.2-0.4-0.2-1.8-0.2-2.8c0.3,0.3,0.4,1.2,0.7,2.1l0.2-0.3l0.2,0.7c0.1-0.2,0-0.9,0.3-0.7
					c0,0.7,0.5,0.6,0.5,1.6c0.2,0.2-0.1-1.2,0.2-0.2c-0.1-0.8-0.2-0.4-0.3-0.6c-0.3-1.1,0.1-0.6,0.2-0.9c0.2,0.6,0.1,0.7,0.3,1
					c-0.1-0.4,0-0.8,0.2-0.3c-0.2-0.7,0.2-0.2,0.3-0.2c-0.1-0.1-0.4-0.6-0.5-1.2c0-0.3,0.1-0.5,0.3-0.4L441,74
					c-0.1-1.1,0.5,0.7,0.6,0.3c0,0.5-0.1,0.5,0,1l0.2-1.3l0.5,1c-0.1-0.5,0.2,0,0.1-0.7c0.4,0.4,0,0.9,0.1,1.4
					c0.4,0.4,0-1.3,0.5-0.2l0.1,0.7c0.1,0,0.2-0.4,0.3-0.1c-0.1-0.2-0.1-0.1-0.1-0.1c-0.3-1.4,0.2-1.1-0.2-2.6l-0.2-0.1
					c0.1-0.3,0-1.4,0.3-0.9c0.2,0.4,0.2,1,0.2,1.4c0.2,0-0.2-1.7,0-1.6c-0.2-0.2-0.3-0.7-0.3-1.1c-0.2-0.1-0.5-0.3-0.3,0.3l0.1,0.1
					c0.1,0.4,0,0.5,0.1,0.7c-0.2,0-0.3-0.6-0.4-0.9c-0.4-0.2,0.3,1.5,0,1.5l-0.1-0.3c0,0.4-0.2,0.5-0.1,1.4
					c-0.4-0.9-0.2,0.5-0.5-0.1c-0.5-2.1,0.5,0,0.4-1.2c-0.3-0.4-0.2-1-0.2-1.5l-0.2,1c-0.1-0.3-0.5-1.3-0.4-0.5l0,0
					c-0.1,0.3,0.1,1.1-0.1,0.9l-0.1-0.7c-0.2-0.2,0,0.5-0.1,0.7c-0.2-0.2-0.1-0.9-0.3-1.1c0,0.9-0.3-0.1-0.5,0
					c0.4,1.2-0.2,1.8,0.4,2.7l-0.2,0.9c-0.3-0.6-0.2-1.7-0.5-2.7l0.3,0c-0.4-1.5-0.4,1.1-1-0.5c-0.2,0-0.1,0.2-0.5-0.5l0.4,1.3
					c-0.2-0.3-0.4-1-0.5-1.2c-0.1,0.1-0.2,0.1-0.2,0.1v-0.5c-0.3-0.7-0.3-0.4-0.2,0c0,0.4-0.1,0.3-0.2,0.3l0-0.5l0,0.5l-0.1,0.1
					c0.1,0.2,0.3,1,0.5,1.3c-0.5-0.4-0.7-0.1-1.2-1.1c-0.1-0.4-0.1-0.9-0.1-0.9c-0.2-0.2-0.2,0.6,0,1.1l-0.1,0.1
					c-0.1-0.3-0.2-0.7-0.3-0.7l-0.2-0.2c0.2,1.1-0.2,0.6-0.2,1.1c0.1,0.1,0.2,0.1,0.2,0c0,0.7,0.1,1.6-0.1,1c0.1-0.7-0.5-1-0.2-1.4
					c-0.5-1.3,0.1,1-0.3,0.6l-0.3-0.5c-0.2-0.8,0.2-0.4,0.1-0.7l-0.1,0.1c0-0.6,0.5-0.3,0.5-1.2l-0.6-0.3c-0.4,1.1-1.5,0.2-1.7,2
					l0,0c0,0.1,0,0.2,0.1,0.5l-0.1-0.2l0,0.6c-0.3-0.7-0.6-0.8-0.9-1.3c0.2,0.4,0.2,0.4,0.4,1c0.1,0.8,0.2,1.1,0,0.9
					c-0.1-0.5,0-0.6-0.2-1c0.1,0.3,0.2,0.7,0.1,0.7c-0.2-0.3-0.4-0.4-0.5-0.9c0-0.2,0.1,0,0.1,0.1c0-0.2-0.3-0.4-0.3-0.9l-0.2,0.2
					c-0.2-0.4-0.1-0.7-0.2-1c-0.2,0.4-0.1,1.7-0.3,2.2c-0.1-0.3-0.3-1.5-0.2-1.2c-0.3-0.3-0.2,1.4-0.4,1.6c0-0.4,0.1-0.2,0.1-0.4
					c-0.9-0.3-1.5-0.2-2.5-1.2l0.1,1.3l-0.4-0.8c-0.9-0.7-1.3,0.3-2,0.8c-0.2,0.1-0.3-0.9-0.5-1.2c-0.5,0-0.3,1.4-0.8,1.8
					c0-0.4-0.1-1.5-0.3-1.5c0,0.4,0.1,0.9,0,0.7l0-0.4c-0.2-0.5-0.2,0-0.5-0.2c-0.4,0.1-0.6,1.1-0.7,2.5c-0.4-0.1-0.2-1.4-0.4-1.6
					c0.4,0.4,0.1-0.3,0.1-0.7c-0.1,0.4-0.2,0.6-0.4-0.3c-0.2,0.1-0.3,0.1-0.4,0.7c0-0.3,0.2,0.1,0.2,0.6c-0.2-0.3-0.6,0.1-0.8-1
					c-0.9,0.4-2,0.4-2.9,0.6c-0.1,0.6,0.2,0.2,0.2,0.6c-0.1,0.8-0.3-0.4-0.3,0.3l0-0.6c-0.3,0-0.4,1.2-0.6,1.8
					c-0.1-0.7-0.3-0.5-0.2-1c-0.1,0.1-0.8-3-0.8-2.3l0.7,2.9c0,0.3-0.2,0.1-0.1,0.3c-0.2-0.6-0.5-1.2-0.6-1.2
					c-0.2-0.7,0.1-0.6,0.2-0.6c-0.2-1.2-0.5-0.7-0.6-1.9c-0.2,0.2,0.1,0.6,0.1,1.1l-0.3-0.2l0.2,0.4c-0.1,0.4,0,1.4-0.4,0.7l0,1.3
					c-0.2-1-0.2-0.1-0.4-0.3l0-0.6c-0.2,0.1-0.3-0.1-0.4-0.4c-0.1-0.9,0.2,0.2,0.1-0.6l-0.2-0.3c0.1,0.6,0.1,1,0.2,1.3
					c0,1.1,0.1,1.9-0.4,1.9c-0.4-0.9,0.1-0.9-0.2-1.8c-0.5-0.3-0.1,2.5-0.4,2.5c-0.4-0.3-0.2,0.5-0.6,0.6c0-0.7-0.4-0.7-0.5-1.3
					l0-0.7c-0.1,0.2-0.2,0-0.3-0.5c0.2,0.9-0.3,0.9-0.5,1.3l0.2,0.7c-0.1,0.3-0.3,0.8-0.6,0.6c-0.3,0.3-0.1,0.9-0.2,1.8
					c-0.2-0.7-0.3-1.4-0.4-2.3c0.1,0.4,0.2,0.1,0.4,0.3c0.3-0.7,0.3-2.3,0.7-2c-0.1-1.8-0.2,0.2-0.5-0.4l0-0.2l-0.1,0
					c0.1-0.2,0.3-0.6,0.1-1.5c-0.2,0.2,0.1,1.8-0.3,1.1c-0.1,0.5-0.5-0.9-0.6-1c0,0.7,0.2,2.1-0.2,1.9l0-1c-0.4,0,0.1,1.5-0.3,1.5
					c0.1,0.1,0,1,0.3,1c0,0.6-0.3,0.7-0.5,0.4c0,0.2,0,0.3,0.1,0.7c0.3,0.7,0.2-0.7,0.6,0.3l0-1.1c0.3,0.4,0.4,1.2,0.4,1.7
					c0-0.1,0.1-0.2,0.1,0c0.3,1.6-0.3-0.6-0.2,0.9l0.1-0.1c0.2,1.1-0.2,1-0.4,0.9c-0.3-0.5-0.5-0.6-0.6-1.4l0.2-0.4
					c-0.2-0.6-0.3,0.4-0.5,0.4l-0.1-0.2l0,0.2l-0.1-0.3c-0.1,0-0.3,0.5-0.4,0.3l0.1,0.7l0-0.4c0.1,0,0.4,0.4,0.3,0.9
					c-0.2,0.5-0.5-0.8-0.6-1.4c-0.1-1.1,0.3,0,0.4-0.4c-0.2-1-0.3-0.1-0.7-0.7c0-1.2,0.3,0,0.3-1.1c-0.3-0.2-0.2,0.7-0.5,0.4
					c0-0.5,0.2-0.6,0.1-1.3l-0.2-0.3c0.4-0.1-0.3-1.4,0-1.7c-0.2-0.4-0.1,1-0.4,0.3c0.1,0.5,0.4,1.4,0.3,1.9l-0.3-0.3
					c-0.2-0.5,0.1-1.3-0.2-1.7l-0.2,0.4c0.1,0.3,0.2,0.5,0.2,1c-0.2-0.4,0,1.4-0.1,1.9c-0.1,0-0.2-0.1-0.3-0.5
					c-0.2,1.1-0.6,1.1-0.7,2.1c0.1-0.7-0.2-1.2-0.4-1.7c0.2-0.2,0.1-1.3,0-1.9c-0.1,0.1-0.1,1.3,0.1,1.6c-0.3-0.4-0.1,0.8-0.4,0.1
					c-0.2-0.4-0.1-1.1-0.2-1.5c-0.3,0,0.1,1.3-0.2,1.1l0-0.4c-0.2-0.2-0.3,0.3-0.2,0.9c-0.3-1.4-0.4,0.2-0.6-1.2
					c-0.3,0.4,0.1,0.7,0.1,1.2c-0.1,0.6-0.4,0.2-0.5,0c0.1,0,0.1-0.4,0.2-0.2l-0.2-0.9c-0.5-0.6,0,2.2-0.5,1.4c0.2-0.5,0-0.7,0-1.4
					c0,0.2-0.4,0-0.1,0.7l-0.4-0.4c-0.1,0.4-0.2,0.7-0.2,1.3c-0.2-0.1-0.5-0.7-0.6-1.1c-0.4,0.8-1-0.4-1.4,0.4l0,0.1
					c-0.4-0.1,0.3,1.2-0.1,1.3c-0.1-1.2-0.3-0.8-0.5-1.3c-0.6-0.5-0.8,0.9-1.3,0.2c0-0.2,0-0.5,0.1-0.6c-0.4-0.3-0.6-0.1-0.9-0.1
					v-0.1c-0.6-0.9-0.9,0.3-1.4,0.6c0-0.1,0-0.6,0-0.7c-0.3-0.2-0.7-0.4-0.8,0.7c-0.4-1.1-0.2,0.4-0.7-0.7c0-0.2,0-0.2,0-0.2
					c-0.2-0.4-0.4-0.2-0.6-0.4c-0.4,0.8-0.4,2.3-0.9,1.9c-0.1-1.6,0.3-0.4,0.2-1.7c-0.1,0.3-0.1,0.6-0.3,0.2c0-0.6,0-0.4,0-1
					c-0.1-0.4-0.3,1.7-0.3,1.5c0,0.3,0.1,0.5,0.2,0.4c-0.1,1-0.5,0.1-0.7,0.5c0.1,0,0.4,0.3,0.3,1.1c-0.4-0.3-0.4,1.2-0.6,1.9
					c-0.4-0.7,0.1-1.3,0-2.5c-0.1-0.4-0.3-1.3-0.2-1.7c-0.3-0.2-0.4,0.7-0.6,1l0-0.3c-0.3,0.2-0.6,1.6-0.9,0.9l0.2,0.3
					c0,0.2-0.2,0.1-0.3,0.8c0-0.5-0.3-1-0.2-1.4c-0.1,1.7-0.7,1.1-0.8,2.7c-0.1-0.4-0.1-1.1-0.1-1.5c0.2,0.1,0.3,0.5,0.4-0.2
					c-0.2,0-0.3-0.4-0.3-0.8c-0.1,1.1-0.5,1.5-0.6,2.5c-0.2-0.5-0.3-0.8-0.3-1.7c-0.5,0.6,0.4,2.7-0.2,2.7c-0.3-0.8,0.2-1.2-0.2-1.4
					l0.1-0.1c-0.4-2.2-0.1,1.6-0.5,1.6c-0.1-1.2,0.2-0.9-0.1-1.7c-0.3,0.3-0.4,2.1-0.7,1.8l0-0.5c-0.2,0.1-0.6-0.1-0.7,0
					c0-0.2,0-0.2,0-0.3c-0.4-0.4-0.1,0.6-0.4-0.2L388,80c0.2,0.4,0.4,1,0.6,0.3c-0.2,0.7,0.3,1.5,0.3,2.6l0-0.4
					c0.5,1.8,1.2,1.9,1.8,2.6c0.3-1.3,0.7,0.5,1.1-0.4c0-1.4,0.1-0.3,0.4-0.6c-0.2,0.2,0,1.1,0.2,1.3c0.1-0.4,0.1-0.5,0.2-0.6
					c0.1,0.5,0.6,1.6,0.7,0.6c0.2,0.4,0,0.5-0.1,0.8c0.1,0.7,0.1-0.6,0.2-0.1l0,0.2c0.3-0.1,0.6,0.3,0.9,0.4
					c-0.1-1.4,0.3-0.5,0.4-1.1c0,0.5,0.2,0.5,0.3,0.8l0.1-1c0.1-0.9,0.3,0.6,0.5,0.1l-0.1-0.2c0.1-0.4,0.7,0.4,0.9,1.1
					c1.4-2.8,2.6,1.4,4.3,0.5c0.1-0.4-0.1-0.7-0.1-1.3c0.2-0.2,0.2-0.1,0.4-0.1c-0.2-0.4-0.1,0.1-0.1-0.3l-0.2,0.4l0-0.3
					c-0.1,0.1-0.1,0.4-0.2,0.4c0.1-0.4,0.1-1.4,0.3-1l-0.1,0.3c0.2,0.1,0.1-0.4,0.3-0.2c0.2,0.2,0.1-0.1,0.2,0.3l0.5,0.5
					c0.1-1.2,0.5-0.1,0.6,0c0,0.9-0.3,0.3-0.3,1.2l0.2,0.7l-0.1-0.7l0.3,0.2l0,0.1c0-0.3,0-0.6,0.1-0.3l0,0.3l0.1-0.4
					c0,0.8,0.2,0.2,0.2,1.1c0.6,0.4,0.6-1.3,1.2-0.2c-0.1-0.4,0-1.4,0.2-1.3c0.1,0.2,0.2,0.4,0.1,0.7l0.2-0.5c0.4,1.3,0.6,0.4,1,0.8
					l0,0.4c0.1-0.5,0.2-0.9,0.4-0.7l0.1,0.8c0.3,0.5,0-1.6,0.3-1.2c-0.1-0.8-0.3-1.2-0.5-2c0.2,0.8,0.5,0.9,0.3,0.3
					c0.2-0.4,0.2,0,0.2,0.2l0.1-0.5c0.2,0,0.2,1.1,0.2,1.6c0.1-0.9,0.3-0.3,0.6-0.2l0,0.4l0.3,0.1c0.1-0.7,0.3-0.8,0.6-0.4l0,1.1
					c0.2,0.5,0-0.4,0.1-0.6c0.2-0.6,0.3,0.2,0.6,0.8C409.2,85.9,410,88.8,410.1,87.1"/>
				<path class="st1" d="M413.1,74.3L413.1,74.3L413.1,74.3z"/>
				<path class="st1" d="M411.1,79l0.2,0.4L411.1,79z"/>
				<path class="st1" d="M443.7,75.3l0,0.2l0.3,0.4c0.1-0.5,0-1.2-0.1-1.9c-0.1,0.7-0.3,0.4-0.5,0.7L443.7,75.3z"/>
				<path class="st1" d="M442.4,70.6c-0.1-0.2-0.3-0.6-0.3-0.7l0.1,0.4L442.4,70.6z"/>
				<path class="st1" d="M439,69.2l0.3,0.3C439.3,69.1,438.8,68.5,439,69.2"/>
				<path class="st1" d="M441.9,76.5l0-0.5c-0.2-0.4-0.3-0.3-0.2,0.3C441.7,75.9,441.7,76.5,441.9,76.5"/>
				<path class="st1" d="M438.3,69.2c0.1,0.9-0.3-0.3-0.2,0.5C438.1,69.5,438.5,70.1,438.3,69.2"/>
				<path class="st1" d="M440.5,77.4c0.3,0.8,0.2,0,0.4,0.2C440.7,77.6,440.4,76.8,440.5,77.4"/>
				<path class="st1" d="M437.6,72c-0.1-0.6,0-0.6,0.1-0.5c0,0.2,0.1,0.5,0,0.6c0.1-0.5,0.1-0.4,0.2-0.8c-0.3-0.4-0.5-0.6-0.7-1.4
					C437.3,70.5,437.4,71.4,437.6,72"/>
				<path class="st1" d="M440.1,77.6c0.2,0.2,0.4,0.8,0.5,0.7c-0.1-0.4-0.3-1-0.5-0.9l-0.1-0.7C439.8,76.1,440.4,77.6,440.1,77.6"/>
				<path class="st1" d="M436.6,70.5l0.2,0.3c0-0.6,0.3-0.4,0.2-1.3C436.7,69.6,436.6,70,436.6,70.5"/>
				<path class="st1" d="M439.2,76.4l0.2,1c0.2,0.1-0.1-0.3-0.1-0.6c0.1,0.1,0.2,0.2,0.2,0C439.3,77,439.3,76,439.2,76.4"/>
				<path class="st1" d="M438.9,77.6l-0.1,0.5l0.4,1.1C439.3,78.7,439,78.5,438.9,77.6"/>
				<path class="st1" d="M438.4,77l-0.1-0.2l0,1.6C438.4,77.7,438.5,77.8,438.4,77"/>
				<path class="st1" d="M432.8,71.4c0.1,0.4,0.4,0.9,0.2,0.5C433,71.5,432.6,71,432.8,71.4"/>
				<path class="st1" d="M435.5,79.3c-0.2-0.3-0.3,0.4-0.4,0.7C435.2,79.8,435.6,79.9,435.5,79.3"/>
				<path class="st1" d="M435,80.2l0-0.1L435,80.2z"/>
				<path class="st1" d="M429.6,83.7l0,0.1L429.6,83.7z"/>
				<path class="st1" d="M429.7,83.4c0.1,0.1,0.3-0.2,0.2-0.7c-0.1,0.3-0.2,0.4-0.3,0.9C429.7,83.6,429.8,83.9,429.7,83.4"/>
				<path class="st1" d="M428.3,83.4c0-0.3,0.1-0.2,0-0.6C428.2,82.7,428.2,83.1,428.3,83.4"/>
				<path class="st1" d="M416.9,72.5c-0.2-0.2-0.2,0-0.1,0.6C417,73.1,416.8,72.7,416.9,72.5"/>
				<polygon class="st1" points="416.7,73.3 416.6,73 416.4,72.5 				"/>
				<path class="st1" d="M415.6,72.5l0-0.3L415.6,72.5z"/>
				<path class="st1" d="M415.7,72.2L415.7,72.2L415.7,72.2z"/>
				<path class="st1" d="M415.8,72.4l0-0.3l0,0.1C415.7,72.1,415.7,72.2,415.8,72.4"/>
				<path class="st1" d="M415.4,72.4l0.3,0.9c0.1-0.5-0.3-0.5-0.3-1.5L415.4,72.4z"/>
				<path class="st1" d="M414.8,72.8c-0.2-0.3-0.2,1.3-0.5,0.1c-0.4,0.7,0.4,1.9,0,2.4c0.6,0.5-0.1-2.2,0.4-1.7
					C414.4,73,414.8,73.1,414.8,72.8"/>
				<path class="st1" d="M415.2,74.7c-0.1-0.6-0.3-0.6-0.3-0.2C415,74.5,415.3,75.3,415.2,74.7"/>
				<polygon class="st1" points="414,73.4 413.8,73 413.9,73.4 				"/>
				<path class="st1" d="M413.5,73.3l0-0.7C413.5,72.8,413.3,72.8,413.5,73.3"/>
				<path class="st1" d="M412.6,72.5c-0.2-0.2,0,1.4,0.2,1l-0.1-0.1C412.7,73.2,412.5,72.7,412.6,72.5"/>
				<path class="st1" d="M411.3,75.2c0.1,0,0.2-0.2,0.1-0.5l-0.2,0.3L411.3,75.2z"/>
				<path class="st1" d="M411.9,78.9c0.2,0.9,0.2-0.1,0.4,0.2C412.1,79,412.1,78.8,411.9,78.9"/>
				<path class="st1" d="M410.8,73.9c0-0.4,0.1-0.2,0.2-0.1C410.9,73.3,410.8,73.4,410.8,73.9"/>
				<path class="st1" d="M410.5,74.3c-0.1-0.4-0.1-0.5-0.2-0.8c-0.2-0.4-0.4-0.3-0.4,0.2c0.1,0.4,0.3,1.5,0.3,2
					c0.2-0.4,0.1-2.1,0.4-0.8l0-1.7C410.4,72.9,410.7,74.3,410.5,74.3"/>
				<path class="st1" d="M411.5,77.3l-0.2-0.5c0.1,0.5,0,0.6,0,0.8C411.5,78.8,411.4,77.4,411.5,77.3"/>
				<polygon class="st1" points="409.1,75.2 408.9,75.5 409,75.6 				"/>
				<polygon class="st1" points="408.9,74.8 408.8,74.5 408.7,75.2 				"/>
				<polygon class="st1" points="408.5,74.5 408.6,74.5 408.7,74.2 				"/>
				<path class="st1" d="M407.8,74.3l0.1,0.5c0.1-0.1,0.3,0.4,0.2-0.3C408.1,74.8,407.9,74.7,407.8,74.3"/>
				<path class="st1" d="M407.4,87.5l-0.1-0.9l0,0.9C407.3,87.4,407.3,87.3,407.4,87.5"/>
				<path class="st1" d="M406.8,86.1l-0.1,1c0.3,0.1,0.2-0.7,0.5-0.9c-0.1-0.3-0.2,0.4-0.4,0.2L406.8,86.1z"/>
				<path class="st1" d="M402,86c0-0.6-0.1-0.5,0-1c-0.2,0.4-0.4,0.3-0.7,0.4c0.1,0.4-0.1,1.1,0,0.9l0.3-0.4l0,0.4
					C401.9,86.8,401.7,85.6,402,86"/>
				<path class="st1" d="M389.3,80.1l-0.1-0.9C389.1,79.6,389.3,80,389.3,80.1"/>
				<path class="st1" d="M427.2,125.2c0.3-0.8,0.1-0.3,0-0.2L427.2,125.2z"/>
				<path class="st1" d="M427.2,125l0-0.1C427.1,125,427.1,125.1,427.2,125"/>
				<path class="st1" d="M426.9,124.3c0.3-0.6,0.2,0.3,0.6-0.6C427.5,123.1,427.2,123.3,426.9,124.3"/>
				<polygon class="st1" points="426.8,125 427,124.5 426.6,125.2 				"/>
				<polygon class="st1" points="426.7,125.5 426.8,125.3 426.4,125.7 				"/>
				<path class="st1" d="M426.6,123.8l0.2-0.1c-0.1,0.7-0.4,0.9-0.5,1.4c0.1,0.1,0.6-1.4,0.7-1.1c0.2-0.7-0.3-0.1,0.1-1.1
					C427,122.5,426.8,123.4,426.6,123.8"/>
				<path class="st1" d="M417,125.5L417,125.5C417,125.5,416.9,125.5,417,125.5"/>
				<polygon class="st1" points="414.7,125 414.8,124.7 414.7,125 				"/>
				<path class="st1" d="M419.2,124.4l-0.1,0.3L419.2,124.4z"/>
				<polygon class="st1" points="409.8,113.9 410,113.6 410,113.6 409.8,113.9 				"/>
				<path class="st1" d="M411.8,125.1l-0.1,0L411.8,125.1z"/>
				<polygon class="st1" points="420,124.7 419.9,124.7 419.9,124.8 420,124.7 				"/>
				<path class="st1" d="M414.6,126.6v-0.2V126.6z"/>
				<path class="st1" d="M425.4,122c0-0.1,0-0.1-0.1,0.1C425.2,122.2,425.2,122.2,425.4,122"/>
				<path class="st1" d="M424.7,121.8L424.7,121.8C424.8,121.7,424.8,121.7,424.7,121.8"/>
				<path class="st1" d="M424.4,121.5L424.4,121.5C424.4,121.4,424.4,121.4,424.4,121.5"/>
				<path class="st1" d="M425.3,122c0.1-0.4,0.7-1.7,0-0.3l-0.1,0.2c0.1-0.3-0.2,0.2-0.3,0.2l-0.1,0.3l0,0.2
					C424.8,122.9,425.1,122.3,425.3,122"/>
				<path class="st1" d="M417.1,125.2C417,125.5,417.1,125.4,417.1,125.2"/>
				<path class="st1" d="M418.3,124.6L418.3,124.6L418.3,124.6z"/>
				<path class="st1" d="M420.4,126.2L420.4,126.2C420.3,126.3,420.3,126.3,420.4,126.2"/>
				<path class="st1" d="M418.2,124.5L418.2,124.5L418.2,124.5z"/>
				<path class="st1" d="M420.1,125.1L420.1,125.1L420.1,125.1z"/>
				<path class="st1" d="M402.1,104.8c0.1-0.1,0,0.3,0,0.4c0.4-0.9-0.2-0.1,0.2-0.9l-0.2,0.2l-0.2,0.9
					C402.1,105.1,401.9,105.1,402.1,104.8"/>
				<path class="st1" d="M410.3,111.9L410.3,111.9c0.2-0.3,0.3-0.4,0.3-0.6c-0.4,0.5-0.8,1.4-1.3,2l0.1,0.1L410.3,111.9z"/>
				<polygon class="st1" points="409.4,113.3 409.4,113.4 409.3,113.6 409.3,113.7 				"/>
				<path class="st1" d="M403.7,105.9l0,0.1C403.8,105.8,403.8,105.8,403.7,105.9"/>
				<path class="st1" d="M418.4,115.1l0.2-0.2L418.4,115.1z"/>
				<polygon class="st1" points="410.8,113.3 410.8,113.5 410.9,113.5 				"/>
				<path class="st1" d="M403.1,119.3c0.5-0.9-0.1,0.1,0.2-0.5l-0.3,0.5C402.9,119.5,403,119.3,403.1,119.3"/>
				<polygon class="st1" points="402.1,104.5 402.1,104.5 402.1,104.5 				"/>
				<path class="st1" d="M401.2,118.6l0-0.1L401.2,118.6z"/>
				<path class="st1" d="M409.6,114l0.2,0.2l0.1-0.3C409.5,114.3,409.9,113.4,409.6,114"/>
				<path class="st1" d="M408,115.7l0.7-1.1l0,0l0.2-0.3c0-0.1,0-0.2-0.1-0.1C408,115.5,407.8,115.6,408,115.7 M414.1,115.1
					c0.1-0.1,0.5-0.5,0.6-0.8c-0.2,0.3,0.1-0.3-0.3,0.2l0,0C414.2,114.8,414.1,115.1,414.1,115.1 M422.9,120c0.2-0.4,0.1-0.3,0-0.3
					L422.9,120z M423.6,121.9l0.2-0.4C423.6,121.7,423.5,122,423.6,121.9 M424.7,121.4l-0.1,0.2h0L424.7,121.4z M419.5,124.7
					c0.4-0.3,0.1,0.1-0.1,0.4c0-0.3-0.3-0.1-0.2-0.5l-0.3,0.6c0-0.1,0-0.3,0.3-0.8C419.8,123.6,419.2,125.3,419.5,124.7
					 M420.6,125.7l0.1-0.2C420.8,125.4,420.9,125.3,420.6,125.7 M403.8,120.4l-0.3,0.6c0.9-1.1,0.2,0.8,1.3-0.8
					c-0.9,2.1,1.2-1.6,0.4,0.3l0.2-0.3c0.7,0.9,0.9,2.4,2.3,2l-0.2,0.4c0.9,1.5,2.7,1.6,3.9,2.7c0.4-0.3,0.8-1.2,1.2-1.5
					c0,0.1,0.2,0.1-0.1,0.6c-0.3,0.2-0.5,0.7-0.6,0.8c0.2,0,0,0.7,0.5,0.2l0.3-0.7c0.2-0.2,0.2,0,0.2,0.1c-0.2,0.3-0.6,1-0.7,1.1
					c1.3-1.3-0.2,0.8,0.5,0.4c0.9-1.3,1.9-2.1,2.7-2.9l-0.1,0.4c-0.1-0.1-0.6,1-0.7,0.8c-0.1,0.5,0.4,0,0.4,0.3
					c0.2-0.3,0.5-0.8,0.6-0.9c0,0.2-0.4,0.9-0.4,1l-0.4,0.3c-0.2,0.5,0.2-0.1,0.3-0.1c-0.3,0.6-0.2,0.8-0.6,1.3
					c0.6-0.7,0.4-0.2,0.8-0.6c0.2-0.7,0.5-0.7,0.8-1.2l-0.3,0.1c0,0.5-0.1,0.1-0.7,1c0.2-0.5,1.1-1.4,0.8-1.4c0.5-0.3,0.3,0.1,1-0.5
					c-0.2,0.1,0.4-0.6,0.5-0.9c0.2,0.1-0.2,0.4-0.5,1c0.1,0-0.2,0.6,0.3-0.1c0,0.4-0.5,0.7-0.6,1.1c-0.5,0.6,0.1-1.1-1.2,1
					c-0.1,0-0.7,0.7-0.8,0.6c-0.1,0.3-0.3,1.1,0.1,0.7l0.7-1.2c0.1,0,0.6-0.7,0.6-0.6c-0.2,0.3-0.5,0.8-0.3,0.8l0.2-0.4
					c0.2,0,0.7-0.8,1-0.9c0-0.4,0.2-0.8,0.4-1.3c0.5-0.8,0.2-0.1,0.3-0.1l-0.2,0.3l0.3-0.3c0,0.5-0.7,1.2-0.8,1.6
					c-0.3,0.7,0.4-0.3,0.2,0.1l0.1-0.2l0,0.1l0-0.1c0.2-0.1,0.2,0.1,0.6-0.5c-0.2,0.3,0.1,0,0.3-0.2c0.2-0.2,0.8-0.9,0.3,0.2l0,0
					c0,0.2,0,0.5-0.3,0.9l0.1,0.4l-0.5,0.8c0.3-0.1,0.6-0.6,1.2-1.4c-0.1,0.5,0.3,0.3,0.6,0l0.1,0l0.1-0.4c0.1,0.1,0.3-0.3,0.4-0.3
					c0-0.1,0-0.1,0,0l0,0.1l-0.1,0l-0.1,0.3c-0.4,0.9,0.4-0.4,0.4,0l-0.1,0.1c-0.1,0.3-0.6,1.5-0.2,0.8c0,0.1,0.1,0,0.2-0.2l0,0.1
					l0-0.2c0.2-0.2,0.3-0.5,0.3-0.3l0.1,0.2c0,0.1,0.1,0.1,0.2,0l-0.2,0.4c0.1,0,0,0.2-0.1,0.3c-0.4,1.3,0.7-0.4,0.3,0.7
					c0.3-0.5,0.4-0.9,0.5-1.2l0.8-1c-0.3,0.8-0.3,1.7-1,2.8c0.1,0.2,0.3-0.7,0.6-1.1l0,0.1c0-0.2,0.1-0.6,0.3-1
					c0.3-0.6,0.6-0.7,0.5-0.5l-0.5,0.9c0.3-0.2,1-1.6,1.5-2.4c0,0.4-0.5,1.2-0.9,2l0.3-0.2l-0.3,0.7c0.2-0.1,0.5-0.7,0.5-0.4
					c-0.4,0.6-0.1,0.7-0.6,1.5c0,0.3,0.6-1,0.2-0.1c0.4-0.7,0.1-0.4,0.2-0.6c0.4-1,0.4-0.4,0.6-0.6c-0.2,0.5-0.4,0.6-0.4,1
					c0.2-0.4,0.4-0.7,0.3-0.2c0.3-0.7,0.2-0.1,0.2,0c0-0.2,0.1-0.7,0.4-1.3c0.2-0.2,0.3-0.4,0.4-0.2l0.1-0.4
					c0.5-0.9-0.1,0.8,0.1,0.5c-0.2,0.4-0.3,0.4-0.5,0.8l0.8-1l-0.3,1c0.2-0.5,0.1,0.1,0.4-0.6c0,0.5-0.5,0.8-0.7,1.3
					c0,0.5,0.6-1.1,0.4,0.1l-0.3,0.6c0,0.1,0.3-0.2,0.2,0.1c0.1-0.2,0-0.2,0-0.2c0.6-1.4,0.7-0.8,1.2-2.3l0-0.1
					c0.2-0.2,0.7-1.2,0.6-0.6c-0.1,0.5-0.4,0.9-0.6,1.3c0.1,0.1,0.7-1.5,0.8-1.3c0-0.3,0.2-0.8,0.4-1.1c0-0.1-0.1-0.5-0.3,0.1l0,0.1
					c-0.1,0.4-0.2,0.5-0.3,0.7c-0.1,0,0.2-0.7,0.3-0.9c-0.1-0.3-0.6,1.4-0.7,1.3l0.1-0.3c-0.2,0.3-0.4,0.3-0.7,1.2
					c0.3-0.9-0.3,0.3-0.2-0.3c0.8-2,0.2,0.3,0.8-0.8c0.1-0.4,0.4-0.9,0.7-1.4l-0.6,0.8c0.1-0.3,0.4-1.3,0.1-0.6l0,0.1
					c-0.2,0.2-0.5,1-0.5,0.7l0.3-0.6c0-0.2-0.3,0.4-0.4,0.6c0-0.2,0.4-0.8,0.4-1c-0.4,0.7-0.1-0.2-0.2-0.2c-0.5,1.1-1,1.4-1.3,2.5
					l-0.6,0.7c0.2-0.6,0.9-1.5,1.2-2.5l0.1,0.1c0.6-1.4-0.8,0.8-0.1-0.8c-0.1-0.1-0.1,0.1,0-0.6l-0.6,1.2c0-0.3,0.3-1,0.5-1.2
					l-0.1-0.1l0.3-0.4c0.3-0.7,0.1-0.5-0.1-0.1c-0.2,0.3-0.2,0.2-0.3,0.2l0.3-0.4l-0.3,0.4l-0.1,0.1c-0.1,0.2-0.4,1-0.5,1.3
					c0.1-0.6-0.2-0.4,0.1-1.5c0.2-0.3,0.5-0.8,0.5-0.8c0-0.2-0.4,0.3-0.6,0.9l-0.1,0c0.1-0.3,0.3-0.6,0.3-0.7l0.1-0.3
					c-0.5,0.9-0.4,0.4-0.7,0.8l0.1,0.1c-0.4,0.6-0.8,1.3-0.6,0.8c0.4-0.5,0.4-1.1,0.7-1.2c0.5-1.3-0.5,0.8-0.4,0.3l0.2-0.5
					c0.4-0.7,0.3-0.3,0.4-0.5l-0.1,0.1c0.3-0.5,0.4,0,0.9-0.7l-0.1-0.5c-0.8,0.6-0.7-0.5-1.8,0.8l0,0c0,0.1-0.1,0.2-0.3,0.5l0.1-0.2
					l-0.3,0.5c0.3-0.7,0.2-0.9,0.4-1.4c-0.2,0.5-0.2,0.5-0.5,1c-0.4,0.7-0.6,1-0.5,0.7c0.3-0.5,0.3-0.4,0.5-0.9
					c-0.1,0.3-0.3,0.6-0.4,0.6c0.1-0.3,0.1-0.5,0.4-1c0.1-0.1,0,0.1,0,0.1c0.1-0.1,0.1-0.5,0.5-0.9l-0.2,0.1
					c0.2-0.4,0.4-0.6,0.5-0.9c-0.4,0.2-1.1,1.3-1.4,1.6c0.2-0.3,0.8-1.3,0.6-1c0.1-0.4-0.9,1-1.1,1c0.2-0.3,0.2-0.1,0.3-0.3
					c-0.2-0.6-0.5-0.9-0.2-2.1l-0.8,1l0.4-0.8c0-0.9-0.7-0.4-1.3-0.3c-0.2,0,0.4-0.8,0.5-1.1c-0.2-0.3-1,0.9-1.4,1
					c0.2-0.3,0.9-1.2,0.8-1.3c-0.2,0.3-0.5,0.8-0.5,0.5l0.2-0.3c0.3-0.5-0.1-0.1-0.1-0.4c-0.2-0.1-0.9,0.5-1.9,1.6
					c-0.1-0.2,0.8-1.1,0.9-1.4c-0.1,0.5,0.2-0.1,0.5-0.5c-0.3,0.3-0.5,0.4,0-0.4c-0.1,0-0.2-0.1-0.6,0.4c0.2-0.2,0,0.2-0.3,0.5
					c0.1-0.3-0.3-0.2,0.3-1.1c-0.6-0.1-1.1-0.7-1.6-1c-0.4,0.4-0.1,0.2-0.3,0.6c-0.5,0.6,0.1-0.4-0.3,0l0.4-0.5
					c-0.1-0.2-0.9,0.7-1.4,1.1c0.4-0.6,0.2-0.6,0.5-0.9c-0.1,0.1,1.5-2.7,1.1-2.2l-1.5,2.6c-0.2,0.2-0.2,0-0.3,0.2
					c0.3-0.5,0.5-1.2,0.5-1.2c0.4-0.6,0.4-0.4,0.5-0.4c0.7-1,0.2-0.8,0.9-1.7c-0.2,0.1-0.3,0.6-0.7,0.9l0-0.3l-0.1,0.4
					c-0.3,0.3-0.8,1-0.6,0.4l-0.8,0.9c0.5-0.8,0-0.2,0-0.5l0.4-0.5c-0.1,0-0.1-0.2,0.1-0.5c0.5-0.7,0,0.2,0.4-0.4l0-0.3
					c-0.3,0.5-0.6,0.8-0.7,1.1c-0.7,0.8-1.2,1.5-1.4,1.3c0.4-0.9,0.6-0.6,1-1.5c0-0.5-1.6,1.9-1.7,1.7c0-0.4-0.4,0.3-0.7,0.2
					c0.4-0.5,0.2-0.7,0.5-1.2l0.4-0.5c-0.2,0.1-0.1-0.1,0.2-0.5c-0.5,0.8-0.7,0.5-1,0.8l-0.4,0.7c-0.2,0.2-0.6,0.5-0.6,0.2
					c-0.3,0.1-0.6,0.7-1.1,1.3c0.3-0.6,0.7-1.3,1.2-2c-0.2,0.4,0,0.2,0,0.5c0.5-0.4,1.5-1.7,1.5-1.2c1-1.5-0.3,0.1,0-0.5l0.1-0.1
					l0-0.1c0.2-0.1,0.5-0.3,1-1.1c-0.2,0.1-1,1.5-0.8,0.7c-0.4,0.4,0.3-0.9,0.3-1.1c-0.4,0.5-1.2,1.8-1.2,1.4l0.6-0.8
					c-0.2-0.1-0.9,1.2-1,1.1c0,0.1-0.6,0.8-0.5,0.9c-0.3,0.4-0.5,0.4-0.5,0.1c-0.1,0.1-0.2,0.3-0.4,0.6c-0.2,0.7,0.5-0.5,0.1,0.5
					l0.6-0.9c-0.1,0.4-0.5,1.2-0.8,1.5c0.1,0,0.2-0.1,0.1,0c-0.8,1.4,0.2-0.6-0.6,0.6l0.1-0.1c-0.5,0.9-0.7,0.7-0.7,0.6
					c0.1-0.5,0.1-0.7,0.5-1.4l0.3-0.2c0.2-0.6-0.4,0.2-0.4,0.1l0.1-0.2l-0.1,0.2l0.1-0.3c-0.1-0.1-0.4,0.3-0.4,0l-0.3,0.6l0.2-0.3
					c0.1,0.1-0.1,0.5-0.4,0.9c-0.4,0.3,0.2-0.9,0.5-1.4c0.6-0.9,0.1,0.1,0.4-0.2c0.5-0.9-0.1-0.2,0.1-0.9c0.6-1,0.2,0.1,0.8-0.8
					c0-0.3-0.5,0.4-0.5,0.1c0.3-0.5,0.4-0.4,0.8-1l0.1-0.3c0.3,0.1,0.7-1.3,1-1.4c0.2-0.5-0.6,0.7-0.3,0c-0.2,0.5-0.6,1.3-0.9,1.6
					l0-0.4c0.2-0.5,0.8-1,0.9-1.4l-0.3,0.3c-0.2,0.3-0.2,0.5-0.5,0.9c0.1-0.4-0.8,1.1-1.1,1.5c-0.1-0.1-0.1-0.2,0.1-0.5
					c-0.7,0.8-0.9,0.6-1.6,1.4c0.5-0.5,0.6-1,0.7-1.5c0.2-0.1,0.7-1,1.1-1.6c-0.1,0.1-0.7,1-0.9,1.3c0.1-0.5-0.5,0.6-0.2-0.1
					c0.1-0.4,0.6-0.9,0.7-1.3c-0.1-0.1-0.7,1.1-0.7,0.8l0.2-0.3c0-0.2-0.3,0.1-0.6,0.6c0.6-1.3-0.3,0,0.3-1.2
					c-0.4,0.2-0.3,0.7-0.6,1.1c-0.4,0.5-0.3,0-0.3-0.3c0.1,0,0.3-0.3,0.2-0.1l0.4-0.9c0-0.7-1.2,1.8-1,1c0.4-0.4,0.4-0.6,0.8-1.2
					c-0.1,0.2-0.2-0.2-0.4,0.6l0-0.5c-0.3,0.3-0.5,0.5-0.8,1c-0.1-0.2,0.1-0.8,0.2-1.2c-0.6,0.5-0.3-0.7-1-0.2l0,0.1
					c-0.2-0.3-0.4,1.2-0.7,1c0.5-1,0.2-0.8,0.4-1.4c-0.1-0.7-0.9,0.5-0.9-0.3c0.1-0.2,0.2-0.5,0.3-0.5c-0.1-0.4-0.4-0.3-0.6-0.4
					l0.1-0.1c0-1-0.7-0.1-1.2,0c0.1-0.1,0.3-0.5,0.3-0.7c-0.1-0.3-0.3-0.6-0.8,0.4c0.2-1.2-0.3,0.3-0.1-0.9c0.1-0.2,0.1-0.2,0.1-0.2
					c0-0.4-0.1-0.3-0.2-0.5c-0.6,0.6-1.1,2-1.3,1.4c0.5-1.5,0.3-0.3,0.8-1.5c-0.2,0.2-0.3,0.5-0.3,0.1c0.3-0.6,0.1-0.4,0.4-0.9
					c0.1-0.4-0.8,1.5-0.8,1.3c-0.1,0.3-0.1,0.5,0,0.4c-0.4,0.9-0.4,0-0.7,0.3c0.1,0,0.1,0.4-0.2,1.1c-0.1-0.4-0.7,1.1-1,1.6
					c0-0.7,0.5-1.2,0.8-2.3c0.1-0.4,0.3-1.3,0.5-1.7c-0.1-0.3-0.6,0.6-0.8,0.8l0.1-0.3c-0.3,0.1-0.9,1.3-1,0.7l0,0.4
					c-0.1,0.2-0.2,0.1-0.4,0.7l0.3-1.4c-0.5,1.6-0.8,0.9-1.3,2.4c0-0.4,0.2-1.1,0.4-1.4c0.1,0.2,0.1,0.5,0.3-0.1
					c-0.1,0-0.1-0.5,0-0.8c-0.4,1-0.8,1.3-1.1,2.3c0-0.5,0-0.8,0.2-1.7c-0.5,0.4-0.4,2.7-0.8,2.5c0-0.9,0.4-1.1,0.2-1.4l0.1-0.1
					c0.3-2.2-0.5,1.5-0.7,1.4c0.2-1.2,0.3-0.8,0.3-1.7c-0.3,0.3-0.7,2-0.8,1.6l0.1-0.5c-0.1,0.1-0.3-0.2-0.5-0.2
					c0-0.2,0-0.2,0.1-0.3c-0.2-0.5-0.2,0.6-0.3-0.3l-0.1,0.6c0,0.4,0.1,1.1,0.3,0.4c-0.2,0.7-0.1,1.6-0.3,2.6l0.1-0.4
					c0,1.8,0.3,2.1,0.4,2.9c0.5-1.2,0.2,0.6,0.7-0.2c0.4-1.4,0.1-0.3,0.4-0.5c-0.1,0.1-0.3,1-0.3,1.3c0.1-0.3,0.2-0.5,0.3-0.6
					c-0.1,0.5-0.1,1.6,0.2,0.7c0,0.5-0.1,0.4-0.2,0.7c-0.1,0.7,0.2-0.5,0.1,0l-0.1,0.2c0.2,0,0.2,0.4,0.3,0.6
					c0.4-1.3,0.3-0.5,0.5-0.9c-0.2,0.4-0.1,0.5-0.1,0.8l0.4-1c0.4-0.8-0.1,0.6,0.2,0.2l0-0.2c0.2-0.4,0.2,0.5,0,1.3
					c1.7-2.2,0.7,1.9,1.8,1.6c0.2-0.4,0.2-0.7,0.5-1.2c0.1-0.1,0.1-0.1,0.2,0c0.1-0.4-0.1,0.1,0.1-0.3l-0.3,0.3l0.1-0.3
					c-0.1,0.1-0.2,0.3-0.3,0.3c0.2-0.3,0.6-1.2,0.6-0.8l-0.2,0.2c0.1,0.1,0.3-0.3,0.2-0.1c0,0.2,0.1-0.1-0.1,0.4l0,0.6
					c0.6-1.1,0.3,0.1,0.3,0.2c-0.4,0.8-0.3,0.2-0.7,1l-0.2,0.7l0.3-0.7l0,0.2l-0.1,0.1c0.1-0.3,0.3-0.5,0.2-0.3l-0.1,0.3l0.3-0.3
					c-0.4,0.7,0,0.2-0.4,1c0.1,0.5,0.9-0.9,0.6,0.3c0.1-0.4,0.7-1.2,0.7-1l-0.3,0.7l0.3-0.4c-0.5,1.3,0,0.6,0,1.1l-0.2,0.3
					c0.3-0.4,0.5-0.7,0.5-0.5l-0.4,0.7c-0.1,0.6,0.8-1.4,0.7-0.9c0.4-0.7,0.5-1.2,0.8-1.9c-0.4,0.8-0.3,1,0,0.4
					c0.3-0.2,0.1,0.1,0,0.3l0.3-0.4c0.1,0.1-0.5,1-0.7,1.4c0.5-0.8,0.3-0.1,0.3,0l-0.2,0.3l0.1,0.2c0.4-0.5,0.5-0.5,0.5-0.1
					l-0.6,0.9c-0.2,0.5,0.2-0.3,0.3-0.5c0.4-0.4,0,0.3-0.2,0.8C404,119.1,402.8,121.7,403.8,120.4"/>
				<path class="st1" d="M412.5,111.4L412.5,111.4L412.5,111.4z"/>
				<path class="st1" d="M408.8,114.2l-0.1,0.4L408.8,114.2z"/>
				<path class="st1" d="M425.1,127l-0.1,0.1l-0.1,0.5c0.3-0.4,0.6-1,0.9-1.7c-0.4,0.6-0.3,0.2-0.6,0.3L425.1,127z"/>
				<path class="st1" d="M426.8,122.4c0.1-0.2,0.2-0.7,0.2-0.7l-0.2,0.4L426.8,122.4z"/>
				<path class="st1" d="M426.1,119.7l0,0.4C426.3,119.8,426.4,119.1,426.1,119.7"/>
				<path class="st1" d="M423.5,127.1l0.3-0.4c0.1-0.4,0-0.4-0.3,0.1C423.8,126.5,423.5,127.1,423.5,127.1"/>
				<path class="st1" d="M425.9,119.5c-0.4,0.8,0.1-0.4-0.3,0.3C425.7,119.7,425.5,120.3,425.9,119.5"/>
				<path class="st1" d="M422.3,127.2c-0.3,0.8,0.1,0.1,0.1,0.4C422.3,127.5,422.6,126.7,422.3,127.2"/>
				<path class="st1" d="M424.1,121.5c0.3-0.6,0.3-0.5,0.3-0.3c-0.1,0.2-0.3,0.4-0.3,0.5c0.3-0.4,0.3-0.3,0.5-0.5
					c0.1-0.4,0.1-0.8,0.5-1.5C424.8,120.2,424.3,120.9,424.1,121.5"/>
				<path class="st1" d="M422,127.2c0,0.3-0.2,0.8-0.1,0.8c0.2-0.4,0.4-1,0.3-1l0.4-0.6C422.7,125.8,422.2,127.3,422,127.2"/>
				<path class="st1" d="M424.5,119.7l-0.1,0.3c0.4-0.5,0.3-0.1,0.8-1C425.1,119.1,424.8,119.4,424.5,119.7"/>
				<path class="st1" d="M422.3,125.8l-0.5,0.9c0,0.2,0.1-0.3,0.3-0.5c0,0.2,0,0.3,0.1,0.1C422,126.3,422.5,125.5,422.3,125.8"/>
				<path class="st1" d="M421.4,126.6l-0.3,0.3l-0.4,1.1C421,127.7,421,127.4,421.4,126.6"/>
				<path class="st1" d="M421.6,125.9l0.1-0.2l-0.9,1.2C421.2,126.4,421.1,126.5,421.6,125.9"/>
				<path class="st1" d="M422.6,118.8c-0.2,0.4-0.4,0.9-0.2,0.5C422.5,118.9,422.7,118.3,422.6,118.8"/>
				<path class="st1" d="M418.9,126.2c0.1-0.3-0.4,0.1-0.6,0.3C418.5,126.4,418.6,126.7,418.9,126.2"/>
				<path class="st1" d="M418.2,126.6L418.2,126.6L418.2,126.6z"/>
				<path class="st1" d="M413.7,126.5L413.7,126.5L413.7,126.5z"/>
				<path class="st1" d="M413.9,126.4c0,0.2,0.2,0,0.5-0.4c-0.2,0.1-0.3,0.2-0.7,0.6C413.7,126.5,413.6,126.8,413.9,126.4"/>
				<path class="st1" d="M413.2,125.7c0.2-0.2,0.2-0.1,0.4-0.4C413.7,125.1,413.4,125.4,413.2,125.7"/>
				<path class="st1" d="M415.4,111.7c0.1-0.2-0.1-0.1-0.4,0.4C415.1,112.2,415.2,111.9,415.4,111.7"/>
				<polygon class="st1" points="414.8,112.2 415,111.9 415.2,111.5 				"/>
				<path class="st1" d="M414.8,111.1l0.2-0.2L414.8,111.1z"/>
				<path class="st1" d="M415.1,110.9L415.1,110.9L415.1,110.9z"/>
				<path class="st1" d="M415,111.1l0.2-0.3l-0.1,0.1C415.1,110.9,415.1,110.9,415,111.1"/>
				<path class="st1" d="M414.7,110.9l-0.4,0.9c0.4-0.3,0.2-0.5,0.8-1.3L414.7,110.9z"/>
				<path class="st1" d="M414.3,110.9c0.1-0.3-0.9,0.9-0.3-0.1c-0.6,0.4-1,1.7-1.5,1.9c0,0.7,1.3-1.8,1.2-1.1
					C414,110.9,414.1,111.2,414.3,110.9"/>
				<path class="st1" d="M413.3,112.6c0.3-0.5,0.2-0.6,0-0.3C413.3,112.4,412.9,113.1,413.3,112.6"/>
				<polygon class="st1" points="413.5,111.1 413.6,110.6 413.4,110.9 				"/>
				<path class="st1" d="M413.3,110.7l0.4-0.5C413.6,110.4,413.5,110.3,413.3,110.7"/>
				<path class="st1" d="M413.3,109.7c0-0.2-0.8,1.1-0.5,0.9l0-0.1C412.9,110.3,413.1,109.8,413.3,109.7"/>
				<path class="st1" d="M411.1,111.2c0,0.1,0.2-0.1,0.3-0.4l-0.3,0.2L411.1,111.2z"/>
				<path class="st1" d="M409.2,114.5c-0.4,0.8,0.2,0,0.1,0.3C409.2,114.6,409.3,114.5,409.2,114.5"/>
				<path class="st1" d="M411.6,110c0.2-0.3,0.2-0.1,0.2,0C412,109.5,411.9,109.6,411.6,110"/>
				<path class="st1" d="M411.2,110.1c0.1-0.4,0.3-0.5,0.4-0.7c0.1-0.4,0-0.4-0.3,0c-0.2,0.4-0.7,1.3-1,1.7c0.3-0.2,1.3-1.7,0.7-0.5
					l1-1.3C412,109,411.3,110.2,411.2,110.1"/>
				<path class="st1" d="M409.9,113l0.2-0.5c-0.3,0.5-0.4,0.5-0.5,0.6C409,114.2,409.8,113,409.9,113"/>
				<polygon class="st1" points="410,110.2 409.7,110.4 409.7,110.5 				"/>
				<polygon class="st1" points="410.1,109.8 410.2,109.5 409.8,110 				"/>
				<polygon class="st1" points="410.1,109.4 410.1,109.4 410.3,109.2 				"/>
				<path class="st1" d="M409.8,108.9l-0.2,0.5c0.1-0.1-0.1,0.5,0.3-0.1C409.7,109.4,409.6,109.3,409.8,108.9"/>
				<path class="st1" d="M402.4,119.7l0.4-0.8L402.4,119.7C402.5,119.6,402.5,119.5,402.4,119.7"/>
				<path class="st1" d="M402.9,118.4l-0.6,0.8c0.1,0.2,0.4-0.5,0.6-0.6c0.1-0.3-0.3,0.3-0.2,0L402.9,118.4z"/>
				<path class="st1" d="M400.9,116.5c0.3-0.6,0.2-0.5,0.5-0.8c-0.3,0.3-0.3,0.1-0.5,0.2c-0.1,0.4-0.5,1-0.4,0.8l0.3-0.3l-0.2,0.4
					C400.5,117.3,401,116.2,400.9,116.5"/>
				<path class="st1" d="M396.1,107.9l0.1-0.9C396,107.4,396.1,107.9,396.1,107.9"/>
				<path class="st1" d="M243.2,71.1c-0.5,0.7-0.1,0.2,0,0.2L243.2,71.1z"/>
				<path class="st1" d="M243.2,71.3l0,0.1L243.2,71.3z"/>
				<path class="st1" d="M243.5,72.1c-0.5,0.5-0.2-0.4-0.8,0.4C242.6,73.1,243,73,243.5,72.1"/>
				<polygon class="st1" points="243.7,71.4 243.4,71.9 243.9,71.2 				"/>
				<polygon class="st1" points="243.8,71 243.7,71.1 244.2,70.8 				"/>
				<path class="st1" d="M243.8,72.7l-0.2,0.1c0.2-0.7,0.6-0.8,0.7-1.3c-0.2-0.1-0.8,1.3-0.9,1c-0.3,0.6,0.4,0.2-0.2,1.1
					C243.2,73.9,243.5,73,243.8,72.7"/>
				<path class="st1" d="M254.8,71.7l0,0.1C254.8,71.7,254.8,71.6,254.8,71.7"/>
				<polygon class="st1" points="257.4,71.9 257.4,72.2 257.5,71.9 				"/>
				<path class="st1" d="M252.5,72.9l0-0.3L252.5,72.9z"/>
				<polygon class="st1" points="266.4,82.5 266.3,82.8 266.2,82.9 266.4,82.6 				"/>
				<path class="st1" d="M260.7,71.4l0.1-0.1L260.7,71.4z"/>
				<polygon class="st1" points="251.7,72.5 251.7,72.5 251.7,72.4 251.7,72.5 				"/>
				<path class="st1" d="M257.2,70.3l0,0.2L257.2,70.3z"/>
				<path class="st1" d="M245.4,74.9c0,0.1,0.1,0.1,0.1,0C245.6,74.7,245.6,74.6,245.4,74.9"/>
				<path class="st1" d="M246.3,75.2L246.3,75.2C246.3,75.3,246.3,75.3,246.3,75.2"/>
				<path class="st1" d="M246.8,75.6L246.8,75.6C246.8,75.7,246.8,75.7,246.8,75.6"/>
				<path class="st1" d="M245.6,74.8c-0.1,0.4-0.8,1.6,0,0.4l0.1-0.2c-0.1,0.3,0.3-0.1,0.3-0.2l0.2-0.3l-0.1-0.2
					C246.2,74,245.8,74.6,245.6,74.8"/>
				<path class="st1" d="M254.7,72C254.8,71.7,254.6,71.8,254.7,72"/>
				<path class="st1" d="M253.5,72.7L253.5,72.7L253.5,72.7z"/>
				<path class="st1" d="M251.1,71L251.1,71C251.1,70.9,251.1,70.9,251.1,71"/>
				<path class="st1" d="M253.6,72.8L253.6,72.8L253.6,72.8z"/>
				<path class="st1" d="M251.5,72.1L251.5,72.1L251.5,72.1z"/>
				<path class="st1" d="M276.7,91c-0.1,0.1,0-0.3,0-0.4c-0.4,0.9,0.2,0.1-0.2,0.9l0.2-0.2l0.2-0.9C276.7,90.7,276.9,90.7,276.7,91"
					/>
				<path class="st1" d="M266.4,84.6L266.4,84.6c-0.1,0.3-0.2,0.4-0.2,0.7c0.3-0.6,0.5-1.6,0.9-2.2c-0.1,0.1-0.1,0-0.1-0.1
					L266.4,84.6z"/>
				<polygon class="st1" points="267.1,83 267.1,83 267.1,82.8 267.1,82.7 				"/>
				<path class="st1" d="M274.9,90l0-0.1C274.8,90.1,274.8,90.1,274.9,90"/>
				<path class="st1" d="M256,82.5l-0.2,0.2L256,82.5z"/>
				<polygon class="st1" points="265.4,83.3 265.4,83.1 265.3,83.2 				"/>
				<path class="st1" d="M272.8,76.2c-0.4,1,0.1-0.1,0,0.6l0.3-0.5C273,76.1,272.9,76.2,272.8,76.2"/>
				<polygon class="st1" points="276.7,91.4 276.7,91.3 276.7,91.3 				"/>
				<path class="st1" d="M275.5,76.9l0,0.2L275.5,76.9z"/>
				<path class="st1" d="M266.7,82.4l-0.3-0.2l0,0.3C266.6,82.1,266.4,83,266.7,82.4"/>
				<path class="st1" d="M268,80.4l-0.4,1.2l0,0l-0.1,0.4c0,0.1,0,0.2,0.1,0.1C268,80.7,268.2,80.5,268,80.4 M261.1,82
					c-0.1,0.1-0.4,0.5-0.4,0.9c0.2-0.4,0,0.3,0.3-0.2l0,0.1C261,82.3,261.1,82,261.1,82 M249,77.4c-0.2,0.4,0,0.4,0.1,0.3L249,77.4z
					 M247.8,75.2l-0.1,0.4C247.8,75.4,247.9,75.2,247.8,75.2 M246.4,75.6l0.1-0.2h0L246.4,75.6z M252.2,72.5c-0.4,0.3-0.1-0.1,0-0.4
					c0,0.4,0.3,0.1,0.3,0.5l0.3-0.7c0,0.1,0,0.3-0.2,0.8C252.1,73.7,252.4,71.9,252.2,72.5 M250.9,71.5l0,0.2
					C250.7,71.8,250.6,71.9,250.9,71.5 M271.6,75.2l0.2-0.6c-0.8,1.2-0.5-0.8-1.4,0.9c0.3-2.3-0.9,1.8-0.6-0.2l-0.1,0.3
					c-1.1-0.8-2-2.3-3.5-1.7l0.2-0.4c-1.5-1.4-3.5-1.2-5.2-2.2c-0.3,0.3-0.6,1.3-0.9,1.7c0-0.1-0.2-0.1,0-0.6
					c0.2-0.2,0.4-0.7,0.5-0.9c-0.2,0-0.2-0.7-0.7-0.2l-0.1,0.7c-0.2,0.3-0.2,0-0.3,0c0.2-0.3,0.4-1.1,0.5-1.2
					c-1.1,1.5,0-0.8-0.6-0.3c-0.7,1.4-1.5,2.4-2.2,3.3l0-0.4c0.2,0.1,0.4-1,0.6-0.9c0-0.5-0.4,0.1-0.5-0.2c-0.1,0.4-0.3,0.8-0.5,1
					c0-0.2,0.3-1,0.2-1.1l0.3-0.4c0.1-0.6-0.2,0.1-0.3,0.2c0.2-0.6,0.1-0.8,0.4-1.4c-0.5,0.7-0.4,0.3-0.8,0.7
					c-0.1,0.7-0.4,0.8-0.6,1.3l0.3-0.1c-0.1-0.5,0.1-0.1,0.6-1.1c-0.1,0.5-0.9,1.6-0.6,1.5c-0.5,0.4-0.4-0.1-1,0.6
					c0.3-0.1-0.3,0.6-0.4,1c-0.2-0.1,0.1-0.4,0.3-1.1c-0.1,0,0.1-0.6-0.4,0.1c-0.1-0.4,0.4-0.7,0.4-1.2c0.4-0.7,0.2,1.1,1.1-1.2
					c0.1,0,0.6-0.8,0.7-0.7c0-0.3,0.1-1.1-0.2-0.7l-0.6,1.2c-0.1,0-0.5,0.8-0.6,0.7c0.2-0.3,0.4-0.9,0.2-0.8c-0.1,0.2,0,0.2-0.1,0.4
					c-0.2,0-0.6,0.9-0.9,1c0,0.4-0.1,0.8-0.2,1.4c-0.4,0.9-0.2,0.1-0.3,0.1l0.1-0.3l-0.3,0.4c-0.1-0.5,0.6-1.3,0.6-1.7
					c0.2-0.8-0.4,0.3-0.3-0.1l-0.1,0.2l0-0.1l0,0.1c-0.2,0.1-0.3-0.1-0.6,0.6c0.1-0.3-0.1,0-0.3,0.2c-0.2,0.2-0.7,0.9-0.3-0.2l0,0
					c-0.1-0.2,0-0.6,0.2-0.9l-0.1-0.4l0.4-0.8c-0.3,0.1-0.5,0.6-1.1,1.4c0.1-0.6-0.4-0.3-0.6,0l-0.1,0l-0.1,0.4
					c-0.1-0.1-0.3,0.3-0.4,0.3c0,0.1,0,0.1,0,0l0-0.1l0.1,0l0.1-0.3c0.3-1-0.4,0.4-0.4,0l0.1-0.1c0-0.3,0.5-1.5,0.1-0.8
					c0-0.1-0.1,0-0.2,0.2l0-0.2l0,0.2c-0.2,0.2-0.3,0.5-0.2,0.3l-0.1-0.2c0-0.1-0.1-0.1-0.2,0l0.1-0.4c-0.1,0,0-0.2,0.1-0.3
					c0.4-1.3-0.7,0.4-0.4-0.8c-0.3,0.5-0.4,0.9-0.5,1.2l-0.9,1c0.3-0.9,0.3-1.7,0.9-2.8c-0.2-0.2-0.3,0.7-0.6,1.1l0-0.1
					c0,0.2-0.1,0.6-0.3,1.1c-0.3,0.6-0.6,0.7-0.6,0.5l0.5-0.9c-0.4,0.2-1,1.5-1.6,2.3c0-0.4,0.5-1.2,0.9-2l-0.3,0.1l0.3-0.7
					c-0.2,0.1-0.6,0.7-0.6,0.4c0.4-0.6,0.1-0.7,0.7-1.5c0-0.3-0.7,1-0.2,0.1c-0.4,0.7-0.1,0.4-0.2,0.6c-0.5,1-0.4,0.4-0.7,0.6
					c0.3-0.5,0.4-0.6,0.5-1c-0.2,0.4-0.5,0.6-0.3,0.1c-0.4,0.6-0.2,0.1-0.3,0c0,0.2-0.1,0.7-0.5,1.2c-0.2,0.2-0.3,0.3-0.4,0.2
					l-0.1,0.4c-0.6,0.9,0.2-0.8-0.2-0.6c0.3-0.4,0.3-0.3,0.6-0.8l-0.9,0.9l0.4-1c-0.3,0.5-0.1-0.1-0.5,0.5c0.1-0.5,0.6-0.7,0.9-1.2
					c0-0.5-0.8,1-0.4-0.1l0.4-0.6c0-0.1-0.4,0.2-0.2-0.1c-0.1,0.2,0,0.1,0,0.2c-0.8,1.3-0.8,0.7-1.6,2.1l0,0.1
					c-0.3,0.2-0.9,1-0.8,0.5c0.2-0.5,0.6-0.9,0.8-1.2c-0.1-0.2-0.9,1.4-1,1.2c0,0.3-0.3,0.7-0.6,1c0,0.1,0.1,0.5,0.4-0.1l0-0.1
					c0.2-0.3,0.3-0.4,0.5-0.6c0.1,0.1-0.3,0.6-0.4,0.9c0.1,0.3,0.8-1.3,1-1.2l-0.1,0.3c0.3-0.3,0.5-0.3,1-1.1
					c-0.4,0.9,0.4-0.2,0.2,0.3c-1,1.9-0.3-0.3-1,0.7c-0.1,0.4-0.6,0.9-0.9,1.3L245,73c-0.1,0.3-0.5,1.3-0.1,0.6l0-0.1
					c0.3-0.1,0.6-0.9,0.6-0.6l-0.4,0.6c0,0.2,0.3-0.4,0.5-0.5c0,0.2-0.5,0.7-0.5,1c0.5-0.7,0.1,0.3,0.2,0.3c0.5-1.1,1.2-1.3,1.5-2.3
					l0.6-0.6c-0.2,0.6-1,1.4-1.4,2.4l-0.2-0.1c-0.7,1.4,0.9-0.7,0.2,0.9c0.1,0.1,0.2-0.1,0,0.7l0.6-1.2c0,0.3-0.4,1-0.5,1.2l0.2,0.1
					l-0.3,0.4c-0.3,0.7-0.1,0.5,0.1,0.1c0.2-0.3,0.2-0.2,0.3-0.2l-0.3,0.4l0.3-0.4l0.1-0.1c0.1-0.2,0.4-0.9,0.5-1.3
					c0,0.6,0.3,0.4,0,1.6c-0.2,0.3-0.5,0.7-0.5,0.8c0,0.2,0.5-0.3,0.7-0.9l0.1,0c-0.1,0.3-0.3,0.7-0.2,0.7l-0.1,0.3
					c0.5-0.9,0.5-0.4,0.8-0.8l-0.1-0.1c0.4-0.6,0.9-1.3,0.7-0.7c-0.5,0.5-0.3,1.1-0.7,1.2c-0.4,1.3,0.5-0.8,0.5-0.3l-0.1,0.5
					c-0.4,0.7-0.4,0.3-0.5,0.5l0.1,0c-0.3,0.5-0.5,0-1.1,0.7l0.2,0.6c0.9-0.6,1,0.7,2.2-0.7l0,0c0-0.1,0.1-0.2,0.2-0.5l-0.1,0.2
					l0.3-0.5c-0.2,0.7-0.1,0.9-0.2,1.5c0.1-0.5,0.1-0.5,0.4-1c0.4-0.7,0.5-1,0.5-0.7c-0.2,0.5-0.3,0.5-0.4,0.9
					c0.1-0.3,0.3-0.6,0.4-0.6c-0.1,0.4,0,0.5-0.2,1c-0.1,0.1,0-0.1,0-0.2c-0.1,0.1-0.1,0.5-0.4,0.9l0.2-0.1
					c-0.1,0.5-0.4,0.6-0.5,0.9c0.4-0.2,1.1-1.3,1.4-1.6c-0.1,0.3-0.7,1.4-0.5,1.1c0,0.4,0.9-1.1,1.1-1.1c-0.2,0.3-0.2,0.2-0.3,0.3
					c0.4,0.7,0.8,0.9,0.9,2.2l0.7-1.1l-0.2,0.8c0.2,1,1,0.4,1.7,0.3c0.2,0-0.2,0.9-0.3,1.2c0.3,0.3,1-1,1.4-1.1
					c-0.2,0.3-0.7,1.3-0.6,1.4c0.2-0.3,0.4-0.9,0.4-0.6l-0.2,0.3c-0.1,0.6,0.2,0.1,0.2,0.4c0.3,0.1,1-0.6,1.8-1.8
					c0.2,0.2-0.5,1.3-0.6,1.6c0-0.5-0.2,0.2-0.4,0.5c0.2-0.3,0.5-0.4,0.2,0.4c0.2,0,0.2,0.1,0.6-0.4c-0.2,0.3-0.1-0.2,0.2-0.6
					c0,0.3,0.4,0.1,0,1.2c0.8,0.1,1.5,0.6,2.3,0.9c0.3-0.5,0-0.3,0.2-0.6c0.5-0.6,0,0.4,0.4-0.1l-0.3,0.6c0.2,0.2,0.8-0.8,1.2-1.3
					c-0.3,0.7,0,0.6-0.4,0.9c0.1-0.1-0.8,3-0.5,2.4l0.9-2.8c0.1-0.3,0.2,0,0.2-0.2c-0.1,0.6-0.2,1.3-0.2,1.3
					c-0.2,0.7-0.3,0.5-0.4,0.5c-0.4,1.2,0,0.9-0.5,1.9c0.3-0.1,0.2-0.6,0.5-1l0.1,0.3l0-0.4c0.3-0.3,0.6-1.2,0.6-0.4l0.6-1.1
					c-0.3,0.9,0.1,0.2,0.1,0.5l-0.3,0.6c0.1,0,0.1,0.2,0.1,0.6c-0.4,0.8,0-0.2-0.4,0.5l0,0.3c0.2-0.5,0.4-0.9,0.4-1.3
					c0.5-0.9,0.9-1.7,1.1-1.5c-0.2,1-0.4,0.7-0.7,1.7c0.2,0.5,1.3-2.2,1.4-2c0.1,0.5,0.4-0.4,0.7-0.4c-0.3,0.6-0.1,0.7-0.2,1.3
					l-0.3,0.6c0.1-0.2,0.1,0.1,0,0.5c0.3-0.8,0.6-0.7,0.9-1l0.2-0.7c0.2-0.2,0.6-0.6,0.6-0.3c0.3-0.2,0.5-0.8,0.9-1.5
					c-0.1,0.7-0.4,1.4-0.7,2.2c0.1-0.4-0.1-0.2-0.1-0.5c-0.5,0.5-1.2,1.9-1.4,1.5c-0.7,1.7,0.3-0.1,0.2,0.5l-0.1,0.1l0,0.1
					c-0.2,0.2-0.4,0.4-0.8,1.3c0.2-0.1,0.7-1.7,0.7-0.9c0.3-0.4,0,1,0,1.1c0.3-0.6,0.8-2,1-1.6l-0.4,0.9c0.3,0.1,0.6-1.4,0.9-1.2
					c-0.1-0.1,0.4-0.9,0.3-1c0.3-0.5,0.5-0.5,0.5-0.2c0.1-0.1,0.1-0.3,0.2-0.7c0.1-0.7-0.5,0.6-0.3-0.4l-0.5,1
					c0-0.4,0.3-1.3,0.5-1.6c-0.1,0-0.1,0.2-0.1,0c0.5-1.6,0,0.6,0.5-0.7l-0.1,0.1c0.3-1,0.5-0.8,0.7-0.7c0,0.5,0.1,0.7-0.2,1.5
					l-0.3,0.2c-0.1,0.6,0.4-0.3,0.5-0.2l0,0.2l0.1-0.2l0,0.3c0.1,0.1,0.4-0.3,0.4-0.1l0.2-0.7l-0.1,0.4c-0.1-0.1-0.1-0.5,0.2-1
					c0.4-0.4,0,0.9-0.2,1.5c-0.4,1-0.2-0.1-0.4,0.2c-0.3,1,0.2,0.2,0.2,0.9c-0.5,1.1-0.2-0.1-0.6,0.9c0.1,0.2,0.4-0.5,0.5-0.2
					c-0.2,0.5-0.4,0.5-0.6,1.1l0,0.4c-0.3,0-0.4,1.4-0.7,1.6c0,0.5,0.5-0.8,0.4-0.1c0.1-0.5,0.3-1.4,0.6-1.8l0.1,0.4
					c-0.1,0.6-0.6,1.1-0.6,1.6l0.3-0.3c0.1-0.3,0.1-0.5,0.3-1c0,0.4,0.6-1.2,0.9-1.7c0.1,0.1,0.1,0.1,0,0.5c0.6-0.9,0.9-0.8,1.4-1.6
					c-0.4,0.6-0.4,1.1-0.5,1.6c-0.2,0.1-0.6,1.1-0.8,1.8c0.1-0.1,0.6-1.1,0.6-1.5c0,0.5,0.4-0.7,0.3,0.1c0,0.4-0.4,1-0.5,1.4
					c0.2,0.1,0.5-1.2,0.6-0.9l-0.1,0.4c0,0.3,0.3-0.2,0.5-0.7c-0.3,1.4,0.4,0-0.1,1.3c0.4-0.3,0.2-0.7,0.4-1.2
					c0.3-0.5,0.3,0,0.3,0.2c-0.1,0-0.3,0.3-0.3,0.1l-0.2,0.9c0.1,0.8,0.9-2,1-1.1c-0.3,0.4-0.3,0.7-0.6,1.3c0.1-0.2,0.3,0.1,0.4-0.6
					l0.2,0.5c0.2-0.3,0.4-0.5,0.7-1.1c0.1,0.2,0.1,0.8,0,1.3c0.6-0.5,0.5,0.7,1.1,0.1l0-0.1c0.2,0.3,0.3-1.3,0.6-1.1
					c-0.4,1.1-0.1,0.8-0.2,1.4c0.2,0.7,0.9-0.6,1,0.2c-0.1,0.2-0.2,0.5-0.3,0.5c0.1,0.4,0.4,0.3,0.6,0.4l-0.1,0.1
					c0.1,1,0.8,0,1.2-0.1c-0.1,0.1-0.2,0.5-0.3,0.7c0.1,0.3,0.4,0.6,0.8-0.4c-0.1,1.2,0.3-0.3,0.2,0.9c0,0.2-0.1,0.2-0.1,0.2
					c0,0.4,0.2,0.3,0.3,0.5c0.6-0.6,1.1-2,1.3-1.5c-0.5,1.5-0.4,0.3-0.7,1.5c0.2-0.2,0.3-0.5,0.3-0.1c-0.3,0.6-0.1,0.4-0.4,0.9
					c0,0.4,0.8-1.5,0.8-1.3c0.1-0.3,0.1-0.5,0-0.4c0.4-0.9,0.4,0,0.7-0.3c-0.1,0-0.1-0.4,0.2-1.1c0.1,0.4,0.7-1,1.1-1.6
					c0,0.8-0.6,1.2-0.9,2.3c-0.1,0.4-0.3,1.3-0.5,1.7c0.1,0.3,0.6-0.6,0.8-0.7l-0.1,0.3c0.3,0,1-1.3,1-0.6l0-0.4
					c0.1-0.2,0.2,0,0.5-0.6l-0.3,1.4c0.6-1.6,0.9-0.8,1.5-2.3c-0.1,0.4-0.3,1.1-0.5,1.4c-0.1-0.2-0.1-0.5-0.4,0.1
					c0.1,0,0.1,0.5,0,0.8c0.4-1,0.9-1.2,1.3-2.2c-0.1,0.5-0.1,0.8-0.4,1.6c0.6-0.4,0.6-2.6,1.1-2.5c0,0.9-0.6,1-0.3,1.4l-0.1,0.1
					c-0.5,2.2,0.6-1.5,0.8-1.3c-0.3,1.2-0.4,0.8-0.5,1.7c0.3-0.2,1-1.9,1.1-1.5l-0.2,0.5c0.2,0,0.4,0.3,0.5,0.2
					c-0.1,0.2-0.1,0.2-0.1,0.2c0.1,0.5,0.3-0.6,0.3,0.3l0.2-0.5c0-0.4,0-1.1-0.3-0.4c0.3-0.6,0.3-1.5,0.6-2.5l-0.2,0.4
					c0.2-1.8-0.2-2.2-0.4-3c-0.7,1.1-0.3-0.6-0.9,0.1c-0.5,1.3-0.1,0.3-0.5,0.4c0.2-0.1,0.3-1,0.3-1.2c-0.2,0.3-0.3,0.4-0.4,0.5
					c0.1-0.5,0.1-1.7-0.3-0.8c0-0.5,0.2-0.4,0.3-0.7c0.2-0.7-0.3,0.5-0.2,0l0.1-0.2c-0.3,0-0.3-0.4-0.5-0.7
					c-0.4,1.3-0.4,0.4-0.7,0.9c0.2-0.4,0-0.5,0-0.8l-0.4,0.9c-0.4,0.8,0-0.6-0.3-0.2l0,0.3c-0.3,0.4-0.3-0.5-0.2-1.3
					c-2,2.2-1.3-2-2.7-1.7c-0.2,0.4-0.2,0.7-0.4,1.3c-0.2,0.1-0.2,0.1-0.3,0c0,0.4,0.1-0.1,0,0.3L277,80l-0.1,0.3
					c0.1-0.1,0.3-0.4,0.3-0.3c-0.2,0.3-0.6,1.3-0.6,0.9l0.2-0.2c-0.1-0.1-0.3,0.4-0.3,0.1c0-0.3-0.1,0.1,0-0.4l-0.2-0.6
					c-0.5,1.1-0.4-0.1-0.4-0.2c0.3-0.9,0.3-0.2,0.7-1l0.1-0.7l-0.2,0.7l-0.1-0.2l0.1-0.1c-0.1,0.3-0.2,0.5-0.2,0.3l0.1-0.3l-0.2,0.3
					c0.3-0.7,0-0.3,0.2-1.1c-0.3-0.6-0.9,1-0.9-0.3c-0.1,0.4-0.5,1.3-0.6,1.1l0.2-0.7l-0.3,0.4c0.3-1.4-0.2-0.6-0.3-1.1l0.1-0.4
					c-0.2,0.4-0.5,0.7-0.6,0.5l0.3-0.7c0-0.6-0.6,1.5-0.7,1c-0.3,0.8-0.3,1.2-0.5,2c0.2-0.8,0-1-0.1-0.4c-0.3,0.3-0.1-0.1-0.1-0.3
					l-0.3,0.4c-0.1-0.1,0.3-1.1,0.5-1.5c-0.4,0.8-0.4,0.2-0.5,0l0.2-0.3l-0.1-0.2c-0.3,0.6-0.5,0.6-0.6,0.2l0.5-1
					c0.1-0.6-0.2,0.3-0.3,0.5c-0.3,0.4-0.1-0.3,0-0.9C271.7,76.6,272.4,73.7,271.6,75.2"/>
				<path class="st1" d="M264.1,85.5L264.1,85.5L264.1,85.5z"/>
				<path class="st1" d="M267.5,82.1l0-0.4L267.5,82.1z"/>
				<path class="st1" d="M245.9,69.8l0.1-0.1l0.1-0.4c-0.4,0.3-0.7,0.9-1.2,1.5c0.5-0.5,0.4-0.2,0.7-0.2L245.9,69.8z"/>
				<path class="st1" d="M243.5,74.1c-0.1,0.2-0.3,0.6-0.3,0.7l0.2-0.4L243.5,74.1z"/>
				<path class="st1" d="M244.7,77.1l0-0.4C244.4,77,244.3,77.7,244.7,77.1"/>
				<path class="st1" d="M247.6,69.8l-0.3,0.4c-0.1,0.4,0,0.4,0.3-0.1C247.3,70.4,247.7,69.9,247.6,69.8"/>
				<path class="st1" d="M245.1,77.4c0.5-0.8,0,0.4,0.4-0.3C245.3,77.3,245.5,76.6,245.1,77.4"/>
				<path class="st1" d="M248.9,69.9c0.3-0.8-0.1-0.2-0.1-0.4C248.9,69.6,248.6,70.4,248.9,69.9"/>
				<path class="st1" d="M247.2,75.6c-0.3,0.6-0.4,0.5-0.4,0.3c0.1-0.2,0.3-0.4,0.4-0.5c-0.4,0.4-0.3,0.3-0.6,0.5
					c-0.1,0.4-0.1,0.8-0.4,1.5C246.5,77,247,76.2,247.2,75.6"/>
				<path class="st1" d="M249.2,69.9c0-0.3,0.3-0.8,0.1-0.8c-0.2,0.4-0.5,1-0.3,1l-0.4,0.6C248.5,71.2,249.1,69.8,249.2,69.9"/>
				<path class="st1" d="M246.9,77.4l0.1-0.3c-0.4,0.5-0.4,0.1-0.9,0.9C246.2,78,246.6,77.8,246.9,77.4"/>
				<path class="st1" d="M249,71.4l0.5-0.9c-0.1-0.2-0.2,0.3-0.3,0.5c0-0.1,0-0.3-0.1-0.1C249.3,70.8,248.7,71.6,249,71.4"/>
				<path class="st1" d="M249.9,70.5l0.4-0.3l0.4-1.1C250.3,69.4,250.3,69.7,249.9,70.5"/>
				<path class="st1" d="M249.8,71.3l-0.1,0.2l0.9-1.2C250.2,70.7,250.2,70.6,249.8,71.3"/>
				<path class="st1" d="M249.7,78.8c0.2-0.4,0.3-1,0.2-0.5C249.7,78.6,249.6,79.2,249.7,78.8"/>
				<path class="st1" d="M252.7,71c-0.1,0.3,0.4-0.1,0.6-0.4C253.1,70.8,252.9,70.4,252.7,71"/>
				<path class="st1" d="M253.4,70.5L253.4,70.5L253.4,70.5z"/>
				<path class="st1" d="M258.2,70.2L258.2,70.2L258.2,70.2z"/>
				<path class="st1" d="M258,70.4c0-0.2-0.2,0-0.5,0.5c0.2-0.2,0.3-0.3,0.6-0.7C258.2,70.2,258.3,69.9,258,70.4"/>
				<path class="st1" d="M258.9,71c-0.2,0.2-0.2,0.1-0.3,0.5C258.5,71.7,258.8,71.3,258.9,71"/>
				<path class="st1" d="M260.7,85.6c0,0.3,0.1,0.1,0.3-0.5C260.9,85.1,260.8,85.5,260.7,85.6"/>
				<polygon class="st1" points="261.2,85 261.1,85.4 261,85.8 				"/>
				<path class="st1" d="M261.5,86.2l-0.1,0.3L261.5,86.2z"/>
				<path class="st1" d="M261.4,86.5L261.4,86.5L261.4,86.5z"/>
				<path class="st1" d="M261.4,86.2l-0.1,0.3l0.1-0.1C261.3,86.5,261.3,86.4,261.4,86.2"/>
				<path class="st1" d="M261.7,86.3l0.2-1c-0.3,0.4,0,0.5-0.5,1.5L261.7,86.3z"/>
				<path class="st1" d="M262.2,86.2c0,0.3,0.7-1.1,0.4,0.1c0.5-0.5,0.6-1.9,1.1-2.1c-0.2-0.7-0.9,2-1.1,1.3
					C262.6,86.2,262.4,86,262.2,86.2"/>
				<path class="st1" d="M262.8,84.4c-0.2,0.5-0.1,0.6,0.1,0.3C262.9,84.6,263.1,83.8,262.8,84.4"/>
				<polygon class="st1" points="263.1,86 263,86.4 263.2,86.1 				"/>
				<path class="st1" d="M263.4,86.3l-0.3,0.6C263.2,86.7,263.3,86.8,263.4,86.3"/>
				<path class="st1" d="M263.7,87.3c0,0.2,0.6-1.2,0.3-0.9l0,0.1C263.9,86.7,263.8,87.2,263.7,87.3"/>
				<path class="st1" d="M265.8,85.4c-0.1-0.1-0.2,0.1-0.3,0.4l0.3-0.2L265.8,85.4z"/>
				<path class="st1" d="M267,81.8c0.3-0.9-0.2,0-0.2-0.3C266.8,81.7,266.8,81.9,267,81.8"/>
				<path class="st1" d="M265.5,86.8c-0.2,0.4-0.2,0.1-0.2,0C265.2,87.3,265.3,87.2,265.5,86.8"/>
				<path class="st1" d="M265.9,86.6c-0.1,0.4-0.2,0.5-0.2,0.8c0,0.5,0.1,0.4,0.4,0c0.1-0.4,0.4-1.4,0.6-1.9c-0.3,0.2-1,1.9-0.6,0.6
					l-0.7,1.5C265.4,87.8,265.8,86.4,265.9,86.6"/>
				<path class="st1" d="M266.5,83.5l-0.1,0.6c0.2-0.5,0.3-0.6,0.4-0.7C267.2,82.1,266.6,83.4,266.5,83.5"/>
				<polygon class="st1" points="267.3,86.3 267.6,86.1 267.5,86 				"/>
				<polygon class="st1" points="267.3,86.7 267.2,87 267.6,86.5 				"/>
				<polygon class="st1" points="267.4,87.1 267.4,87.1 267.2,87.3 				"/>
				<path class="st1" d="M267.8,87.5l0.1-0.5c-0.1,0.1,0-0.5-0.2,0.2C267.8,87,267.9,87.1,267.8,87.5"/>
				<path class="st1" d="M273.5,75.8l-0.3,0.9L273.5,75.8C273.5,75.9,273.4,76,273.5,75.8"/>
				<path class="st1" d="M273.3,77.2l0.5-0.9c-0.1-0.2-0.4,0.5-0.6,0.6c0,0.3,0.3-0.3,0.3,0L273.3,77.2z"/>
				<path class="st1" d="M276.4,79c-0.2,0.6-0.1,0.5-0.4,0.9c0.3-0.3,0.4-0.1,0.6-0.2c0.1-0.4,0.5-1,0.3-0.9l-0.3,0.3l0.2-0.4
					C276.8,78.3,276.5,79.4,276.4,79"/>
				<path class="st1" d="M283.2,88.3l-0.2,0.8C283.2,88.8,283.1,88.3,283.2,88.3"/>
				<path class="st1" d="M240.6,120l-0.1,0.2c-0.4-0.7-0.3-1-0.5-1.4c-0.2,0.1,0.5,1.5,0.2,1.3c0.3,0.6,0.3-0.1,0.6,0.9
					C241.1,121.3,240.6,120.4,240.6,120"/>
				<path class="st1" d="M247.6,112.4l0,0.1C247.6,112.4,247.6,112.3,247.6,112.4"/>
				<polygon class="st1" points="250,111.4 250.1,111.6 250,111.3 				"/>
				<path class="st1" d="M246.4,114.7l-0.1-0.2C246.3,114.6,246.3,114.7,246.4,114.7"/>
				<polygon class="st1" points="261.3,117.8 261.2,118.1 261.2,118.1 261.3,117.8 				"/>
				<path class="st1" d="M252.6,109.5l0.1-0.1L252.6,109.5z"/>
				<polygon class="st1" points="245.5,114.9 245.6,114.9 245.5,114.8 245.5,114.9 				"/>
				<path class="st1" d="M249,110l0.1,0.1L249,110z"/>
				<path class="st1" d="M242.8,120.6c0.1,0.1,0.1,0,0.1-0.1C242.8,120.3,242.8,120.3,242.8,120.6"/>
				<path class="st1" d="M243.5,120.3L243.5,120.3C243.5,120.4,243.5,120.4,243.5,120.3"/>
				<path class="st1" d="M244,120.2L244,120.2C244,120.3,244,120.3,244,120.2"/>
				<path class="st1" d="M242.9,120.5c0.2,0.4,0.6,1.7,0.2,0.2l-0.1-0.2c0.1,0.3,0-0.3,0.1-0.3l-0.1-0.3l-0.2-0.1
					C242.7,119.4,242.8,120.1,242.9,120.5"/>
				<path class="st1" d="M247.6,112.7C247.6,112.4,247.5,112.5,247.6,112.7"/>
				<path class="st1" d="M247,113.9L247,113.9L247,113.9z"/>
				<path class="st1" d="M244.2,114L244.2,114C244.2,113.9,244.2,114,244.2,114"/>
				<path class="st1" d="M247.2,113.9L247.2,113.9L247.2,113.9z"/>
				<path class="st1" d="M245.2,114.7L245.2,114.7L245.2,114.7z"/>
				<path class="st1" d="M272,123c-0.1,0.1-0.1-0.3-0.1-0.4c-0.1,1,0.2,0,0,0.9c0,0,0.1-0.1,0.1-0.3l0-0.9
					C271.9,122.6,272.1,122.6,272,123"/>
				<path class="st1" d="M261.9,119.8L261.9,119.8c0,0.3,0,0.5,0,0.7c0.1-0.7,0-1.6,0.1-2.4c0,0.1-0.1,0-0.1-0.1L261.9,119.8z"/>
				<polygon class="st1" points="262,118.1 262,118 261.9,117.8 261.9,117.7 				"/>
				<path class="st1" d="M270.2,122.5L270.2,122.5C270.2,122.6,270.2,122.6,270.2,122.5"/>
				<path class="st1" d="M253.1,121.5l0,0.3L253.1,121.5z"/>
				<polygon class="st1" points="260.6,118.8 260.6,118.7 260.5,118.7 				"/>
				<path class="st1" d="M265.1,109.9c-0.1,1.1,0-0.1,0.1,0.5l0.1-0.6C265.3,109.7,265.2,109.8,265.1,109.9"/>
				<polygon class="st1" points="272.1,123.3 272.1,123.2 272.1,123.2 				"/>
				<path class="st1" d="M267.6,109.7l0,0.1L267.6,109.7z"/>
				<path class="st1" d="M261.5,117.6l-0.3-0.1l0.1,0.3C261.3,117.3,261.4,118.2,261.5,117.6"/>
				<path class="st1" d="M262,115.3l-0.1,1.3l0,0l0,0.4c0,0.1,0.1,0.2,0.1,0.1C262.1,115.5,262.2,115.3,262,115.3 M256.8,119
					c0,0.2-0.1,0.6,0,1c0-0.4,0.1,0.3,0.2-0.3l0,0.1C256.9,119.3,256.8,119,256.8,119 M246.3,120.4c0.1,0.4,0.2,0.3,0.2,0.2
					L246.3,120.4z M244.4,119.4l0.2,0.4C244.5,119.5,244.4,119.3,244.4,119.4 M243.8,120.5l0-0.2h0L243.8,120.5z M245.9,114.6
					c-0.1,0.5-0.1-0.1-0.2-0.4c0.2,0.3,0.3-0.1,0.5,0.2l-0.2-0.7c0.1,0,0.2,0.3,0.3,0.8C246.5,115.7,245.8,113.9,245.9,114.6
					 M244.3,114.5l0.1,0.2C244.4,114.9,244.4,115.1,244.3,114.5 M263.8,109.2l0-0.6c-0.4,1.4-0.7-0.6-1,1.3c-0.3-2.3-0.3,2-0.6,0
					l0,0.3c-1.2-0.4-2.5-1.6-3.6-0.5l0-0.5c-1.9-0.8-3.7,0.3-5.6-0.1c-0.2,0.4,0,1.4-0.1,1.9c-0.1,0-0.2,0-0.2-0.5
					c0.1-0.3,0-0.8,0-1c-0.2,0.1-0.5-0.5-0.7,0.1l0.2,0.7c-0.1,0.3-0.2,0.1-0.3,0.1c0-0.4-0.1-1.2-0.1-1.3c-0.3,1.8-0.4-0.7-0.7,0
					c0,1.5-0.3,2.8-0.5,4l-0.2-0.4c0.2,0-0.1-1.1,0.1-1.1c-0.2-0.4-0.4,0.3-0.6,0c0.1,0.4,0.1,0.9,0.1,1.1c-0.1-0.2-0.2-1-0.4-1
					l0.1-0.5c-0.1-0.6-0.1,0.2-0.2,0.3c-0.1-0.6-0.3-0.7-0.3-1.5c-0.1,0.9-0.2,0.4-0.3,1c0.3,0.7,0,0.8,0.1,1.4l0.2-0.3
					c-0.4-0.4,0.1-0.1,0-1.2c0.2,0.5,0,1.8,0.2,1.6c-0.2,0.6-0.3,0.1-0.5,1c0.2-0.2,0,0.7,0.2,1c-0.2,0.1-0.1-0.4-0.2-1.1
					c-0.1,0-0.2-0.6-0.3,0.2c-0.2-0.3-0.1-0.8-0.2-1.3c0-0.8,0.7,0.9,0.3-1.5c0.1,0,0.1-1,0.3-0.9c-0.2-0.3-0.5-1.1-0.6-0.5l0.1,1.4
					c-0.1,0,0,1-0.1,0.9c0-0.4-0.2-1-0.2-0.8c0.1,0.2,0.1,0.1,0.1,0.4c-0.2,0.1-0.1,1-0.3,1.3c0.2,0.3,0.3,0.7,0.6,1.3
					c0.1,1-0.1,0.1-0.2,0.3l0-0.3l0,0.5c-0.3-0.4-0.1-1.4-0.4-1.8c-0.2-0.8-0.1,0.5-0.3,0l0.1,0.2l-0.1-0.1l0,0.1
					c-0.1,0.1-0.2,0.1-0.2,0.8c-0.1-0.3-0.1,0.1-0.1,0.3c0,0.3-0.1,1.2-0.3,0l0,0c-0.2-0.1-0.3-0.4-0.4-0.8l-0.3-0.2l-0.1-0.9
					c-0.2,0.3-0.1,0.8-0.1,1.8c-0.2-0.5-0.5,0-0.5,0.3l-0.1,0l0.2,0.3c-0.2,0-0.1,0.5-0.2,0.5c0,0.1,0.1,0.1,0,0l-0.1-0.1l0,0
					l-0.1-0.3c-0.3-0.9-0.1,0.6-0.3,0.3l0-0.1c-0.1-0.2-0.5-1.5-0.4-0.7c0-0.1,0,0.1,0,0.3l-0.1-0.1l0.1,0.1c0,0.3,0,0.6,0,0.4
					l-0.2-0.1c-0.1-0.1-0.1,0-0.1,0.1l-0.1-0.4c-0.1,0.1-0.1-0.2-0.1-0.3c-0.5-1.3-0.3,0.7-0.8-0.3c0.1,0.6,0.3,0.9,0.3,1.2l0,1.3
					c-0.3-0.8-0.9-1.5-1.1-2.8c-0.3-0.1,0.3,0.8,0.2,1.2l0,0c0.1,0.1,0.3,0.5,0.4,1c0.2,0.7,0,0.9-0.1,0.7l-0.2-1
					c-0.1,0.4,0.3,1.8,0.4,2.8c-0.2-0.3-0.4-1.2-0.6-2.1l-0.1,0.3l-0.2-0.7c-0.1,0.2,0.1,0.9-0.1,0.7c-0.1-0.7-0.4-0.6-0.5-1.5
					c-0.2-0.2,0.2,1.2-0.1,0.2c0.1,0.8,0.2,0.4,0.3,0.6c0.3,1.1,0,0.6-0.1,0.9c-0.2-0.6-0.1-0.7-0.3-1c0.1,0.4,0.1,0.8-0.1,0.3
					c0.2,0.7-0.1,0.2-0.2,0.2c0.1,0.1,0.4,0.6,0.5,1.2c0,0.3,0,0.5-0.1,0.4l0.2,0.3c0.2,1.1-0.4-0.7-0.5-0.3c-0.1-0.4,0-0.5-0.1-1
					l0,1.3l-0.5-1c0.1,0.5-0.2,0,0.1,0.7c-0.3-0.4-0.1-0.9-0.3-1.4c-0.4-0.4,0.2,1.2-0.4,0.2l-0.1-0.7c-0.1,0-0.1,0.4-0.2,0.1
					c0.1,0.2,0.1,0.1,0.1,0.1c0.4,1.4,0,1.1,0.5,2.5l0.1,0.1c0,0.3,0.2,1.3-0.1,0.9c-0.2-0.4-0.3-1-0.4-1.4
					c-0.2-0.1,0.4,1.6,0.2,1.5c0.2,0.2,0.3,0.7,0.4,1.1c0.1,0.1,0.4,0.3,0.1-0.3l-0.1-0.1c-0.1-0.4-0.1-0.5-0.2-0.7
					c0.1,0,0.3,0.6,0.4,0.9c0.3,0.2-0.5-1.5-0.3-1.5l0.1,0.3c0-0.4,0.1-0.5-0.2-1.4c0.4,0.9,0.1-0.4,0.4,0.1c0.7,2.1-0.4,0-0.1,1.1
					c0.2,0.4,0.3,1,0.4,1.5l0-1c0.1,0.3,0.5,1.3,0.3,0.5l0,0c0-0.3-0.3-1.1-0.1-0.9l0.2,0.7c0.2,0.2-0.1-0.5-0.1-0.7
					c0.2,0.2,0.2,0.9,0.4,1.1c-0.1-0.8,0.2,0.1,0.3,0.1c-0.4-1.2-0.1-1.7-0.6-2.7l0-0.9c0.2,0.6,0.3,1.7,0.6,2.7l-0.2,0
					c0.4,1.5,0.1-1.1,0.7,0.5c0.1,0,0-0.2,0.4,0.5L243,119c0.2,0.3,0.4,1,0.5,1.2c0-0.1,0.1-0.1,0.2,0l0,0.5c0.3,0.7,0.2,0.4,0.1,0
					c0-0.3,0-0.3,0.1-0.3l0.1,0.5l0-0.5l0-0.1c-0.1-0.2-0.3-1-0.5-1.3c0.3,0.4,0.5,0.1,0.9,1.2c0.1,0.4,0.1,0.9,0.1,0.9
					c0.1,0.2,0.1-0.5-0.1-1.1l0-0.1c0.1,0.3,0.2,0.7,0.3,0.7l0.1,0.3c-0.2-1.1,0.1-0.6,0-1.1c-0.1-0.1-0.1-0.1-0.2,0
					c-0.1-0.7-0.2-1.5,0-1c0,0.7,0.4,1.1,0.2,1.4c0.4,1.3-0.1-1,0.1-0.5l0.2,0.5c0.1,0.8-0.1,0.4,0,0.7l0.1-0.1
					c0.1,0.6-0.3,0.3-0.3,1.2l0.4,0.4c0.2-1,0.9,0,1-1.8l0,0c0-0.1,0-0.2-0.1-0.5l0.1,0.2l0-0.6c0.2,0.7,0.4,0.8,0.6,1.4
					c-0.2-0.5-0.2-0.5-0.3-1c-0.1-0.8-0.2-1.1,0-0.8c0.1,0.6,0,0.6,0.2,1c-0.1-0.3-0.1-0.7-0.1-0.7c0.1,0.3,0.3,0.4,0.3,1
					c0,0.2-0.1,0-0.1-0.1c0,0.2,0.2,0.5,0.2,0.9l0.1-0.2c0.1,0.5,0.1,0.7,0.1,1c0.1-0.4,0-1.7,0.2-2.1c0,0.3,0.2,1.5,0.2,1.2
					c0.2,0.3,0.1-1.4,0.2-1.5c0,0.4-0.1,0.2-0.1,0.4c0.5,0.4,1,0.4,1.6,1.5l0-1.3l0.2,0.8c0.6,0.8,0.9-0.1,1.3-0.5
					c0.1-0.1,0.2,0.9,0.3,1.2c0.3,0.1,0.3-1.3,0.6-1.7c0,0.4,0,1.5,0.1,1.5c0-0.4,0-1,0.1-0.7l0,0.4c0.1,0.6,0.1,0,0.3,0.2
					c0.3,0,0.5-1,0.6-2.4c0.3,0.1,0,1.4,0.1,1.7c-0.2-0.5-0.1,0.2-0.1,0.7c0.1-0.4,0.2-0.6,0.3,0.3c0.1-0.1,0.2,0,0.3-0.6
					c0,0.3-0.1-0.2-0.1-0.6c0.1,0.3,0.4,0,0.4,1.1c0.6-0.2,1.3,0,1.9-0.1c0.1-0.6-0.1-0.2,0-0.6c0.1-0.8,0.1,0.4,0.3-0.2l0,0.6
					c0.2,0.1,0.4-1.1,0.6-1.7c0,0.7,0.2,0.6,0,1c0.1-0.1,0.2,3.1,0.3,2.4l-0.1-3c0-0.3,0.1-0.1,0.1-0.3c0.1,0.6,0.2,1.3,0.2,1.3
					c0,0.8-0.1,0.6-0.2,0.6c0,1.3,0.3,0.8,0.2,1.9c0.2-0.2,0-0.6,0.1-1.1l0.1,0.3l-0.1-0.4c0.1-0.4,0.1-1.3,0.3-0.6l0.2-1.2
					c0,1,0.1,0.2,0.2,0.4l-0.1,0.6c0.1,0,0.2,0.1,0.2,0.5c-0.1,0.9-0.1-0.2-0.1,0.6l0.1,0.3c0-0.6,0.1-1,0-1.3
					c0.1-1,0.2-1.9,0.5-1.8c0.1,1-0.1,0.8-0.1,1.8c0.3,0.4,0.4-2.5,0.6-2.4c0.2,0.4,0.2-0.5,0.4-0.5c-0.1,0.7,0.2,0.7,0.2,1.3
					l-0.1,0.7c0.1-0.2,0.1,0.1,0.1,0.5c0-0.9,0.3-0.8,0.5-1.2l0-0.8c0.1-0.2,0.3-0.7,0.4-0.5c0.2-0.2,0.2-0.9,0.3-1.7
					c0.1,0.7,0.1,1.5,0,2.3c0-0.4-0.1-0.2-0.2-0.4c-0.3,0.6-0.5,2.2-0.7,1.9c-0.1,1.8,0.2-0.2,0.3,0.4l0,0.2l0,0.1
					c-0.1,0.2-0.2,0.5-0.3,1.4c0.1-0.2,0.1-1.8,0.3-1c0.1-0.5,0.2,0.9,0.3,1.1c0.1-0.7,0.1-2.1,0.3-1.9l-0.1,1
					c0.2,0,0.1-1.5,0.4-1.4c-0.1-0.1,0.1-1-0.1-1c0.1-0.5,0.3-0.6,0.4-0.3c0-0.2,0-0.3,0-0.7c-0.1-0.7-0.2,0.7-0.3-0.3l-0.1,1.1
					c-0.1-0.4-0.1-1.3,0-1.7c0,0-0.1,0.2-0.1,0c0-1.7,0.1,0.6,0.2-0.8l-0.1,0.1c0-1.1,0.2-0.9,0.4-0.9c0.1,0.5,0.2,0.7,0.2,1.5
					l-0.2,0.3c0.1,0.6,0.2-0.4,0.3-0.3l0,0.2l0-0.2l0.1,0.3c0.1,0,0.2-0.4,0.3-0.2l0-0.7l0,0.4c-0.1,0-0.2-0.5-0.1-1
					c0.2-0.5,0.2,0.9,0.2,1.5c-0.1,1.1-0.2,0-0.3,0.4c0,1.1,0.2,0.1,0.4,0.8c-0.1,1.2-0.2,0-0.3,1c0.2,0.2,0.2-0.6,0.4-0.3
					c0,0.5-0.2,0.6-0.2,1.3l0.1,0.3c-0.3,0.1,0,1.4-0.2,1.7c0.1,0.5,0.2-0.9,0.3-0.2c0-0.5-0.1-1.4,0-1.9l0.1,0.3
					c0,0.6-0.2,1.2-0.1,1.7l0.2-0.4c0-0.3-0.1-0.5,0-1c0.1,0.4,0.2-1.3,0.3-1.8c0.1,0,0.2,0.1,0.2,0.5c0.2-1,0.5-1,0.8-1.9
					c-0.2,0.7,0,1.2,0,1.7c-0.2,0.1-0.2,1.2-0.2,1.9c0.1-0.1,0.2-1.2,0.2-1.6c0.1,0.4,0.1-0.7,0.3,0c0.1,0.4-0.1,1.1-0.1,1.5
					c0.2,0.1,0.1-1.3,0.3-1.1l0,0.4c0.1,0.2,0.2-0.3,0.3-0.8c0.1,1.4,0.3-0.1,0.2,1.2c0.3-0.4,0-0.8,0.1-1.2
					c0.1-0.6,0.3-0.1,0.3,0.1c-0.1,0-0.1,0.4-0.2,0.2l0,1c0.3,0.7,0.3-2.2,0.5-1.3c-0.2,0.5-0.1,0.7-0.2,1.4c0.1-0.2,0.3,0,0.2-0.7
					l0.2,0.4c0.1-0.4,0.2-0.6,0.3-1.2c0.2,0.1,0.2,0.8,0.3,1.2c0.4-0.7,0.6,0.5,1-0.2l0-0.1c0.3,0.2-0.1-1.3,0.2-1.2
					c-0.1,1.2,0.1,0.8,0.2,1.4c0.3,0.6,0.6-0.8,0.9,0c0,0.2,0,0.5-0.1,0.6c0.2,0.4,0.4,0.1,0.6,0.2l0,0.1c0.3,1,0.7-0.2,1-0.4
					c0,0.1-0.1,0.6-0.1,0.7c0.2,0.3,0.5,0.5,0.6-0.6c0.2,1.2,0.2-0.3,0.4,0.8c0,0.2,0,0.2-0.1,0.2c0.1,0.4,0.2,0.3,0.4,0.4
					c0.3-0.7,0.5-2.2,0.8-1.8c0,1.6-0.2,0.4-0.3,1.6c0.1-0.3,0.2-0.6,0.2-0.2c-0.1,0.6,0,0.4-0.1,1c0.1,0.4,0.4-1.6,0.3-1.5
					c0-0.3,0-0.5-0.1-0.4c0.1-1,0.3-0.1,0.5-0.5c-0.1,0-0.2-0.3-0.1-1.1c0.2,0.3,0.3-1.2,0.5-1.8c0.2,0.7-0.2,1.3-0.2,2.4
					c0,0.4,0.1,1.3,0,1.7c0.2,0.2,0.4-0.7,0.5-0.9l0,0.3c0.2-0.1,0.5-1.5,0.7-0.9l-0.1-0.4c0-0.2,0.2-0.1,0.2-0.7
					c0,0.5,0.1,1,0.1,1.4c0.1-1.7,0.6-1,0.7-2.6c0.1,0.4,0,1.1,0,1.5c-0.2-0.1-0.2-0.5-0.3,0.2c0.1,0,0.2,0.4,0.2,0.8
					c0.1-1,0.5-1.4,0.5-2.5c0.1,0.5,0.2,0.8,0.1,1.7c0.4-0.5-0.2-2.7,0.3-2.7c0.2,0.8-0.2,1.1,0.1,1.4l-0.1,0.1
					c0.2,2.2,0.2-1.6,0.4-1.5c0,1.2-0.2,0.9,0,1.7c0.2-0.3,0.3-2.1,0.5-1.7l0,0.5c0.1-0.1,0.4,0.2,0.5,0.1c0,0.2,0,0.2,0,0.3
					c0.2,0.5,0.1-0.6,0.3,0.2l0.1-0.6c-0.1-0.4-0.3-1-0.4-0.3c0.1-0.7-0.2-1.5-0.1-2.6l0,0.4c-0.3-1.8-0.7-2-1.1-2.7
					c-0.3,1.2-0.4-0.5-0.7,0.3c-0.1,1.4-0.1,0.3-0.3,0.6c0.1-0.2,0-1.1,0-1.3c-0.1,0.4-0.1,0.5-0.2,0.6c0-0.5-0.3-1.6-0.4-0.7
					c-0.1-0.5,0-0.5,0.1-0.8c0-0.7-0.1,0.6-0.2,0.1l0-0.2c-0.2,0.1-0.3-0.3-0.6-0.5c-0.1,1.4-0.2,0.5-0.3,1c0-0.5-0.1-0.5-0.2-0.8
					l-0.2,1c-0.1,0.9-0.1-0.6-0.3-0.2l0,0.3c-0.1,0.4-0.4-0.4-0.5-1.2c-1.2,2.7-1.6-1.6-2.7-0.9c-0.1,0.4,0,0.7-0.1,1.3
					c-0.1,0.2-0.1,0.1-0.2,0.1c0.1,0.4,0.1-0.1,0.1,0.3l0.2-0.4l0,0.3c0.1-0.1,0.1-0.4,0.2-0.3c-0.1,0.4-0.2,1.4-0.3,1l0.1-0.3
					c-0.1-0.1-0.1,0.4-0.2,0.1c-0.1-0.2-0.1,0.1-0.1-0.4l-0.3-0.6c-0.2,1.2-0.4,0-0.4-0.1c0.1-0.9,0.2-0.3,0.3-1.2l-0.1-0.7l0,0.7
					l-0.2-0.2l0-0.1c0,0.3-0.1,0.6-0.1,0.3l0-0.3l-0.1,0.4c0.1-0.8-0.1-0.2,0-1.1c-0.4-0.5-0.5,1.2-0.8,0c0,0.4-0.2,1.4-0.3,1.2
					l0-0.8l-0.2,0.4c-0.1-1.4-0.3-0.5-0.6-1l0-0.4c-0.1,0.5-0.2,0.8-0.4,0.7l0.1-0.8c-0.2-0.6-0.2,1.6-0.4,1.1
					c0,0.8,0.1,1.3,0.1,2.1c0-0.9-0.2-1-0.2-0.4c-0.2,0.3-0.1,0-0.1-0.2l-0.1,0.5c-0.1,0,0-1.1,0.1-1.6c-0.2,0.9-0.3,0.3-0.4,0.1
					l0.1-0.4l-0.2-0.2c-0.1,0.6-0.3,0.7-0.5,0.3l0.1-1.1c-0.1-0.6-0.1,0.4-0.1,0.6c-0.2,0.5-0.2-0.2-0.3-0.8
					C264.2,110.5,264,107.5,263.8,109.2"/>
				<path class="st1" d="M260.2,121.3L260.2,121.3L260.2,121.3z"/>
				<path class="st1" d="M262.1,117l-0.1-0.4L262.1,117z"/>
				<path class="st1" d="M241.3,121.2c0.1,0.2,0.3,0.6,0.3,0.7l-0.1-0.4L241.3,121.2z"/>
				<path class="st1" d="M243.7,122.7l-0.2-0.3C243.5,122.8,243.9,123.4,243.7,122.7"/>
				<path class="st1" d="M240.9,115.5l0.1,0.5c0.2,0.4,0.3,0.3,0.1-0.3C241.1,116,241,115.4,240.9,115.5"/>
				<path class="st1" d="M244.1,122.7c-0.2-0.9,0.2,0.3,0.1-0.5C244.2,122.5,243.9,121.9,244.1,122.7"/>
				<path class="st1" d="M241.8,114.6c-0.3-0.8-0.2,0-0.3-0.2C241.6,114.4,241.9,115.2,241.8,114.6"/>
				<path class="st1" d="M244.2,120.1c0.1,0.6,0.1,0.6,0,0.5c0-0.2-0.1-0.5-0.1-0.6c0,0.5,0,0.4-0.1,0.7c0.2,0.4,0.4,0.7,0.6,1.4
					C244.6,121.5,244.5,120.6,244.2,120.1"/>
				<path class="st1" d="M242.1,114.4c-0.2-0.2-0.4-0.8-0.5-0.7c0.1,0.4,0.3,1,0.4,0.9l0.1,0.7C242.4,115.9,241.9,114.4,242.1,114.4
					"/>
				<path class="st1" d="M245.1,121.7l-0.1-0.3c0,0.6-0.2,0.3,0,1.3C245,122.5,245.1,122.1,245.1,121.7"/>
				<path class="st1" d="M242.8,115.6l-0.2-1c-0.2-0.1,0.1,0.3,0.1,0.6c-0.1-0.1-0.1-0.2-0.1,0C242.7,115,242.8,116,242.8,115.6"/>
				<path class="st1" d="M243,114.4l0.1-0.5l-0.4-1.1C242.6,113.3,242.8,113.5,243,114.4"/>
				<path class="st1" d="M243.3,115.1l0.1,0.2l-0.1-1.5C243.3,114.4,243.3,114.3,243.3,115.1"/>
				<path class="st1" d="M247.4,121.2c0-0.4-0.3-1-0.1-0.5C247.3,121,247.5,121.6,247.4,121.2"/>
				<path class="st1" d="M245.4,113.1c0.1,0.3,0.3-0.3,0.3-0.7C245.6,112.7,245.3,112.5,245.4,113.1"/>
				<path class="st1" d="M245.8,112.3l0,0.1L245.8,112.3z"/>
				<path class="st1" d="M249.9,109.5l0-0.1L249.9,109.5z"/>
				<path class="st1" d="M249.8,109.8c-0.1-0.1-0.2,0.1-0.2,0.6c0.1-0.2,0.2-0.4,0.3-0.9C249.8,109.5,249.7,109.2,249.8,109.8"/>
				<path class="st1" d="M250.8,109.9c0,0.3-0.1,0.1-0.1,0.6C250.8,110.7,250.9,110.2,250.8,109.9"/>
				<path class="st1" d="M257.6,122.5c0.1,0.2,0.1,0,0.1-0.6C257.6,121.9,257.6,122.3,257.6,122.5"/>
				<polygon class="st1" points="257.8,121.8 257.8,122.1 257.8,122.6 				"/>
				<path class="st1" d="M258.3,122.7l0,0.3L258.3,122.7z"/>
				<path class="st1" d="M258.3,123.1L258.3,123.1L258.3,123.1z"/>
				<path class="st1" d="M258.3,122.9l0,0.3l0-0.1C258.3,123.1,258.3,123,258.3,122.9"/>
				<path class="st1" d="M258.5,122.9l-0.1-1c-0.1,0.5,0.1,0.5,0,1.6L258.5,122.9z"/>
				<path class="st1" d="M258.9,122.6c0.1,0.3,0.3-1.2,0.3-0.1c0.3-0.6-0.1-1.9,0.3-2.4c-0.3-0.6-0.2,2.2-0.5,1.6
					C259.2,122.5,259,122.3,258.9,122.6"/>
				<path class="st1" d="M258.9,120.6c0,0.6,0.1,0.6,0.2,0.2C259,120.8,258.9,120,258.9,120.6"/>
				<polygon class="st1" points="259.5,122.1 259.6,122.5 259.6,122.2 				"/>
				<path class="st1" d="M259.9,122.3l-0.1,0.7C259.8,122.7,259.9,122.8,259.9,122.3"/>
				<path class="st1" d="M260.3,123.2c0.1,0.2,0.2-1.3,0-1l0,0.1C260.4,122.5,260.4,123,260.3,123.2"/>
				<path class="st1" d="M261.5,120.7c-0.1,0-0.1,0.2-0.1,0.5l0.2-0.3L261.5,120.7z"/>
				<path class="st1" d="M261.6,116.9c0-0.9-0.2,0.1-0.3-0.2C261.4,116.9,261.4,117,261.6,116.9"/>
				<path class="st1" d="M261.7,122.1c-0.1,0.4-0.1,0.1-0.2,0.1C261.5,122.7,261.6,122.6,261.7,122.1"/>
				<path class="st1" d="M261.9,121.8c0,0.4,0,0.5,0,0.8c0.1,0.4,0.2,0.4,0.3-0.1c0-0.4,0-1.5,0-2c-0.2,0.3-0.3,2.1-0.4,0.7
					l-0.2,1.7C261.8,123.1,261.8,121.7,261.9,121.8"/>
				<path class="st1" d="M261.6,118.6l0.1,0.6c0-0.5,0.1-0.6,0.1-0.8C261.8,117.2,261.7,118.5,261.6,118.6"/>
				<polygon class="st1" points="263,121.1 263.2,120.8 263.1,120.7 				"/>
				<polygon class="st1" points="263.1,121.4 263.1,121.8 263.2,121.2 				"/>
				<polygon class="st1" points="263.3,121.9 263.3,121.8 263.1,122.1 				"/>
				<path class="st1" d="M263.7,122.1l0-0.5c-0.1,0.1-0.1-0.4-0.2,0.2C263.6,121.6,263.7,121.7,263.7,122.1"/>
				<path class="st1" d="M265.6,109.2l0,0.9L265.6,109.2C265.6,109.3,265.6,109.4,265.6,109.2"/>
				<path class="st1" d="M265.8,110.6l0.2-1c-0.2-0.2-0.2,0.6-0.4,0.8c0.1,0.3,0.2-0.4,0.3-0.1L265.8,110.6z"/>
				<path class="st1" d="M268.9,111.5c0,0.6,0,0.5-0.1,1c0.2-0.4,0.3-0.2,0.5-0.3c0-0.4,0.1-1.1,0.1-0.9l-0.2,0.4l0-0.4
					C269.1,110.7,269.1,111.9,268.9,111.5"/>
				<path class="st1" d="M277,118.5l0,0.9C277.1,119,276.9,118.6,277,118.5"/>
				<path class="st2" d="M247.8,234.1c-1.6,1.7-3.9-0.3-5.8-0.8c-5.9,3.8-10.3,9-14,14.9c-4.6-1.5-4.2-6.3-9.1-7.4
					c-6.7-1.6-11.5,4.5-16.5,4.1c-2.8-1.8,1.8-4.5,0-5c5.3-2.5,13.1-6.6,20.6-4.1C229.4,232.1,244.3,224.1,247.8,234.1"/>
				<path class="st2" d="M248.6,192c2.2,1.9,4.3,4,5,7.4c9.8-2.7,18.1,2.7,20.6,9.9c-3.6,2.3-6-2.5-9.1-3.3
					c-7.5-0.9-10.6,2.6-16.5,3.3c-0.8-7.6-7.6-12.2-13.2-12.4C235,188.6,243.9,194.6,248.6,192"/>
			</g>
		</g>
	</g>
</g>
</svg>
