<?xml version="1.0" encoding="utf-8"?>
<!-- Generator: Adobe Illustrator 19.1.0, SVG Export Plug-In . SVG Version: 6.00 Build 0)  -->
<svg version="1.1" id="Layer_1" xmlns="http://www.w3.org/2000/svg" xmlns:xlink="http://www.w3.org/1999/xlink" x="0px" y="0px"
	 viewBox="-328 482.8 183.1 226.7" style="enable-background:new -328 482.8 183.1 226.7;" xml:space="preserve">
<style type="text/css">
	.st0{fill:#578EBE;}
	.st1{fill:#575756;}
	.st2{fill:#4A4A49;}
	.st3{fill:#5D7778;}
</style>
<path class="st0" d="M-278.2,505.8c-0.6,2.2-0.5,4.6-0.3,6.1c-0.8,0.6-2.7,0-3.5,0.6c-1.6-2.1,0.1-4.5-0.3-6.4
	C-281.4,505.5-279,504.8-278.2,505.8 M-283.7,507.6c0,2-0.4,2.1-0.3,4.4c-0.5,0.8-2,0.5-2.9,0.9c-1.1-1.3,0.2-3.2,0-5.2
	C-285.5,507.8-284.8,507-283.7,507.6 M-272.4,507.6c-0.9,0.9-0.5,3.2-0.6,5c-0.7-0.5-2,0.4-3.2,0.3c-1.1-1.9-0.2-4-0.3-5.5
	C-275.1,508.1-273.4,506.1-272.4,507.6"/>
<path class="st0" d="M-280.8,609.3c0.7,0,0.4,1.4,1.2,0.6c6.9-2.5,13.8-5.1,21.6-6.7c-0.1-1.3-0.5-2.3-0.3-3.8
	c-11.7-0.1-28.7,0.1-40.2,4.1c-0.9,0.2-1.4-0.2-2-0.3c-0.7,5.7-1.6,12.8-1.8,18.1C-296,616.5-288,613.3-280.8,609.3 M-297.4,618.7
	c1.2-0.6,2.6-1,3.5-2C-295.1,617.3-296.6,617.7-297.4,618.7 M-281.1,554.2c-3.6,0.1-8.8,0.4-13.4,1.2c-0.6,8.2-1.6,17.1-3.2,25.1
	c12.3-0.9,24.4-2,35.6-4.1c-1.3-6.7-2.1-15-3.8-22.2c-4.3,0.2-7.6,1.4-10.8-0.3c0-2.4-0.2-5.9-1.7-8.2
	C-280.8,547.2-281.6,551.7-281.1,554.2 M-291.9,536.7c0.2,0.8-0.4,0.8-0.3,1.5c7.2,0.4,16.1-0.4,24.5,0.6c0.2-1.6-0.4-2.4-0.3-3.8
	C-276.1,535.7-284.7,534.7-291.9,536.7 M-297.4,534.7c1.8,0.3,2.3-0.8,4.1-0.6c0-2.7,0.2-3.9,0.6-6.4c-1.6,0.3-1.4,0.2-2.9,0
	C-296.4,529.9-297.5,531.7-297.4,534.7 M-282.9,527.4c0.1,2.9-0.4,3.4-0.3,6.4c1.3-0.1,2.3-0.5,3.8-0.3c0.2-2.1-0.3-4.8,0.3-6.4
	C-280.5,527-281.7,527.1-282.9,527.4 M-287.5,533.8h2.9c0.1-2.4,0.6-4.7,0.6-6.4c-1.2,0.2-1.7-0.3-2.6-0.3
	C-287.7,529-285.9,533.1-287.5,533.8 M-291.3,527.4c0,2.4-1.2,4.3-0.6,6.4c1.7,0.1,2.2-0.4,3.5,0c0.2-1,0.3-5.6-0.3-6.7
	C-289,527.8-290.5,527.2-291.3,527.4 M-272.9,533.5c0.8,0.6,2.5,0.2,3.8,0.3c0.3-1.7-0.6-5.7,0-7
	C-273.8,526.2-272.7,530.9-272.9,533.5 M-277.9,533.5c1.4,0.2,1.6,0.1,3.8,0.3c-0.6-2.3,0-5,0.9-6.7c-2.2,0-2.8-0.1-4.4-0.3
	C-278.2,528.8-278.3,531.3-277.9,533.5 M-268,533.5c1.6-0.1,3,0.1,5.5,0c-0.4-2.7-1.4-4.8-2-7.3c-1.3,0.2-3.4,0.3-3.8,0.6
	C-267.5,527.6-267.9,531.4-268,533.5 M-281.4,484.8c1.2-0.2,1.2,0.8,2.3,0.6c1.9,3-0.1,6.4,0.9,8.5c1.7,3.6,6.8,4.1,8.5,8.5
	c0.9,0.1,2.3-0.3,2.3,0.6c-1,1.6-3.3,0.9-5,0.9c-5.9,0-11.2,0.5-15.7,1.5c0.6,6.4-1.7,13-1.8,20.1c5.4,1,11.9-0.9,19.5-0.3
	c-0.4-4.1-0.6-13.2-1.5-20.4c0.8-0.3,1.6-0.3,2.3,0c0.1,5.3,0.2,14.7,1.8,19.2c-0.1,1.4-1.6-0.4-1.8,0.9c2.6,0.6,5.8,0.3,7.6,0
	c0.1,3.9,1.3,6.9,0.6,10.2c-2.4,0.1-2.9,0.3-5.2,0c3.5,22.6,6.5,47.1,12,68.5c1.6,0.2,3.1-0.8,4.4,0c-0.2,1.3-1.1,0.9-1.8,2
	c-2.8,0.1-6.7,0.4-7.6,1.5c-11.1,0.6-18.5,5.6-27.1,8.7c-6.1,2.3-11.4,6.3-16.3,9.6c-1.2,2.9-0.5,6.9-1.8,10.2
	c-2.3-0.6-1.3-5.8-1.2-6.4c-0.5-0.9-1.1,1-1.7,0c-0.5-1,1.4-1.8,1.7-2.9c-0.6-0.5,0.1-2.2-1.2-2c-0.1-1.2,1.3-0.8,1.5-1.8
	c3.2-21,4.5-44.5,9-63.3c-0.6-7.5,2.1-14,2.3-22.7c-1.1-0.5-3.8,0.9-5-0.3c-0.2-3.3,0.5-7.3,1.2-10.2c1-0.4,4.6,0.5,6.7-0.3
	c-0.4-5.4,1.2-13.5,2-19.5c-1.5,0-3,0.3-4.1-0.6c0.3-1.4,1.5-2.9,2.6-4.1c2.2-2.3,5.2-4.7,7.9-6.4
	C-282.5,491.5-282.1,488.1-281.4,484.8"/>
<path class="st1" d="M-251.8,605.6c1,0.6-0.4-0.5,0.7,0.4C-251.3,606-251.5,605.9-251.8,605.6 M-305.6,626.7
	c-0.7-0.7-1.3-1.4-1.9-2.3c-0.3-0.4-0.7-0.9-0.9-1.2h1.6c1.4-1,0.8-4.1,1.1-5.9c0-0.5,0.3,0.2,0.3-0.9c-0.1-4,0.8-10.2,1.6-14.9
	l0.1,0.3c0.2-0.9-0.1-2.1,0.1-3c0.1,0,0,0.3,0.2,0.1c-0.2-0.3,0.2-1.8,0.1-2.2c0.1-0.4,0.3-0.3,0.4-0.8l-0.1-0.6
	c-0.3-1.6,0.6-3.7,0.6-5.8c0,0.1,0,0.3,0.1,0.2c0.2-3.4,0.9-7.6,1.3-11.4c0.1,0.2,0.2,0.3,0.3,0.1c-0.2-0.2-0.1-1.4,0-2.4
	c0.3-0.4,0-1.8,0.3-2.9v0.1c-0.1-0.9,0.3-1.3,0.1-2l0.3-0.5c-0.3-0.4,0.4-1.2,0.3-2h-0.1c0-0.7,0.2-1,0.3-1.7v-0.1
	c0.1-1.5,0.4-2.3,0.2-2.3c0.3-0.5-0.1,1.4,0.3,0.7c0.5-4.9,1.3-9.9,2-14.8c0.2-0.5,0.3-0.9,0.4-1c0-0.5,0.2-1.8,0.2-2.3
	c0,0.2,0.2-0.3,0.2-0.6c0.2-0.9-0.1-1,0.1-2c0,0.4,0.1,0.5,0.2,0.4c-0.1-0.9,0.1-2,0.2-3c0,0.2,0,0.4,0.1,0.4
	c-0.1-1.1,0.3-2,0.3-2.9l0.1,0.4c0.4-1.5-0.2-0.5,0.1-1.8c0,0.3,0.1,0.2,0.1,0.3c-0.2-0.3,0.5-2.2-0.3-1.5c-0.8,0-1.6,0-2.2,0.1
	c0.1,0,0.1-0.1,0.1-0.1c-0.5-0.3-1.6,0.7-1.8-0.7c0-0.7,0-1.4-0.1-2.2c0.1-0.5,0.4,0.2,0.3-1.2c-0.3,0.1-0.1-2.4-0.5-1.6
	c0-1.2,0.2-3.1,0.1-4c0.1,0.5,0.4-0.6,0.4,0.4l0.2-0.8c0.1,0.1,0,0.8,0.1,0.5c0-0.3,0-0.8-0.1-1.2c-0.7-0.1,0.6-0.1,0.6-0.1
	c0.9-0.2,1.8-0.5,3.3-0.6c-0.7,0.1,0.4,0.3-0.1,0.4c0.4,0,2-0.7,1.5-0.2c0-0.5,0.2-0.1,0.3-0.8c-0.1,0-0.1-0.3-0.1-0.5
	c0.1-0.2,0.2-2.1,0.5-2.3c0.1-0.2,0,0.8,0.1,0.3c0.1-0.9,0-1,0.1-1.9c0.1-0.6,0.1-1.8-0.1-1.2c-0.1,0.4,0.2-0.1,0,0.5
	c-0.1-0.5,0-1.5,0.1-2.5c0,0.3,0.1,0.3,0.2,0.4c-0.1-1.3,0-2.6,0.1-4c-0.1,0,0.2,0.5,0.1,0.7c0.4-1.8,0.2-3.7,0.7-5.2
	c0,0.2-0.2,0.1-0.2,0.1c0.1-0.9,0.3-0.8,0.3-1.4c0.1,0,0-0.7,0.1-1.3c0-0.3,0.1-0.1,0,0.4v-1.4c1.5,1.7,0.4,0.5,0.8,0.9h-4.5
	l-0.6,0.2h-0.3c0.2,0.4-1.3-3.3-0.7-1.7v-0.1l0.1-0.1c0.1-0.1,0.2-0.3,0.3-0.3v0.2c0.4-0.2,1-1,1.2-1c0.2-0.4-0.3,0.3-0.9,0.9
	l-0.4,0.5v0.1c0.2,0.5-0.5-1.2,0.5,1.2h0.3c0.2,0,0.3,0,0,0h-0.3c-0.2-0.5,0.5,1.2-0.5-1.2l0.3-0.4c0.2-0.3,0.4-0.5,0.4-0.3
	c0.6-0.6,1.1-1.3,1.8-1.8c-0.2,0.1-0.3,0.7,0.2,0.2c0.8-0.9,0.2-0.3,0.8-1.1l0.4-0.5c-0.1-0.2,0.8-0.8,0.3-0.6c0.2,0,1.2-1.3,1.3-1
	v0.3c0.4-0.4,0.4-0.8,0.7-1.2c0.1,0,0.2-0.1,0.2-0.1c-0.2-0.3,0.9-0.9,1.2-1.5c0.9-0.7,2-2,2.5-2.2c0.5-0.7,1-1.3,1.7-2
	c-0.1,0.2-0.3,0.4-0.3,0.4c0.3-0.2,0.4-0.3,0.5-0.5c-0.3,0.6-0.1-0.1-0.1-0.2c0,0.1,0.5-1.2,0.7-1.8c0.1-0.9-0.2-0.6-0.3-0.7
	c0.5-0.7,0.3-2.4,0.8-3.3c0,0.3-0.1,1.2,0.1,0.6c0.5-0.7,0.1-1.6,0.5-2.8l-0.4,0.2c0.3-0.5,0.2-1.8,0.5-1.6v-0.3
	c-1.3,0.4,1.7-0.6,1.4-0.5l0.1,0.1l0.4,0.3c0.2,0.2,0.4,0.3,0.5,0.2l1.2,1.2c1,1.9,0.3,1.5,0.5,2.4c0,1.2,0,2.2-0.3,2.8
	c0,0.3,0,1,0.1,0.9c0.2-0.5-0.1-0.7,0-0.9c0,0.3,0.1,0.3,0.1,0.3c-0.1,0.6-0.1,1.1-0.3,0.5c-0.2,1.4,0.5,1.5,0.4,3.3
	c-0.1,0-0.1,0-0.1,0.1c-0.6-1.3,0-0.2,0-0.3l0.9,0.5c0.9,0.8,0.4,0.6,0.3,0.8c0.5,0.4,1.1,0.8,1.4,0.9l0.4,0.7
	c-0.3-0.5,0.5,0.2,0.7,0.4l-0.3-0.1c0,0.1,0.6,0.5,1,0.7c0-0.2-0.5-0.6-0.8-0.9c0.3,0.1,0.7,0.4,1.1,0.6c-0.2,0.1,0.7,0.7,1.1,1.1
	s0.6,0.3,0.7,0.4c-0.1,0.1,0.7,0.6,0.3,0.4c-0.2-0.1-0.3-0.4-0.6-0.5c0.3,0.3,0.1,0.4,0.8,0.8c0.5,0.3,0.1-0.4,0.9,0.4
	c-0.3-0.1-0.4-0.1-0.6-0.2l0.8,0.7l0.1-0.1c0.1,0.1,0,0.1,0,0.1c0.4,0.1,1.3,0.9,1.6,0.9c0.4,0.3,0.8,0.8,1.2,1.1h-0.1l0.4,0.3
	l0.2,0.2l0.1,0.1c0.1,2.6,0,0.7,0.1,1.3c-0.2,0.2-0.5,0.5-0.6,0.7c-0.3,0.2-0.8,0.8-1.1,1.1c-0.6,0.2-0.9,0.2-1,0
	c0.1,0.9,0.4,1.3,0.5,1c0,1.6,0.4,3.3,0.2,4.7c0.1,0.2,0.1,0.1,0.2,0.5c0.1,2.3,0.5,4.8,0.3,6.6c-0.1-0.7-0.2,0-0.3,0
	c0.2,0.5-0.1,0.7,0.2,0.8c0.2-0.1,0.2,0,0.3-0.7c0.2,1.3,0.3,3.4,0.2,4.2c0.1-0.4,0.1-0.1,0.2,0.2c-0.1,0-0.2,0.2-0.2,0.5v1
	c-1.7-1.8-0.5-0.5-0.9-0.9h0.8l0.1-0.1l0.5,0.2c0.3,0,0.4-0.3,1.1,0c0,0.1,0.1,0.1,0.2,0.2c0.8,0,1.9-0.1,2.7,0.1l0.7,0.3
	c0.4,0,1,0,0.4-0.2l0.3,0.1h0.1c-0.9-1,1.3,1.3,1,1.1v1.4c0,0.5,0,0.8-0.1,1.1c0.3,1.2,0.6,2.7,0.8,4.3l0.2,2.4v0.7
	c0.9-1.3-1.3,1.7-1,1.4h-0.1l-0.3,0.1l-1.1,0.2l0.1-0.1c-0.8,0.1-0.3,0.3-0.9,0.3c0.2-0.2-0.6-0.1-0.1-0.4c-1.1,0.1-1.4,0.5-2,0.8
	c-0.1,0.2,0.5-0.2,0.5,0c-0.1,0-0.4,0.1-0.8,0.2c-0.9,1.3,1.2-1.8,1-1.5v0.2l0.1,0.3c0,0.2,0.1,0.3,0.2,0.3c0,0.3-0.3,0.1-0.4,0
	l0.2,0.7c-0.1,0.9-0.8-1.8-1-0.9l0.1,0.6c-0.1,0.6-0.5-1.6-0.4,0c0.2,0.7,0.7,1.2,0.7,0.6c0.3,1.4,0.7,0.6,0.9,2.1
	c-0.1,0.4-0.2-1.2-0.4-0.9c-0.1,0.7,0.3,1.4,0.4,2.1c0-0.7,0.3-0.2,0.4,0.3c0,0.8-0.3-0.5-0.1,0.6c0.2,0.2,0.4,1.1,0.4,0.3
	c0.4,0.3,0.1,1.1,0.4,1.7c-0.2,0.4-0.7-1-0.6,0.2c0.2-0.2,0.5,1.4,0.7,0.7c0,0.5-0.1,0.6-0.3,0.2c0,0.7,0.6,1.6,0.3,1.9l0.2,0.2
	c0,0.2,0,0.5-0.1,0.9c0.1,0.6,0.6,1.9,0.3,1.9c0.1,0.2,0.3,1.5,0.4,1c0-0.9-0.3-0.9-0.1-1.5c-0.1,0.6,0.2,1.2,0.4,1.7l-0.1,0.1
	c0.1,0.3,0.2,0.9,0.3,1.1c-0.1-0.2-0.2-0.1-0.2,0.2l0.2,0.3c0.3,1.2-0.3,0.3,0,1.5l-0.3-0.8c0.1,0.2,0,0.6,0.1,1.1
	c0.2,0.2,0.5,0.5,0.6,0.7c0.2,0.6-0.1,0.3,0.1,0.9l-0.3-0.8c-0.1-0.1-0.2,0.6,0,1.5c0.2,0.5,0.5,1.3,0.5,0.5
	c0.1,0.4,0.1,1.1-0.1,0.7c0.2,1,0.2-0.2,0.4,0.7c-0.1,0.4,0,1.5-0.1,2.1l-0.4-0.8l0.1,0.6c-0.4-0.7-0.1,0.4-0.4,0
	c0,0.4,0.2,0.9,0.3,1.2c0.2-1.2,0.7,1.2,1,0.8c0.4,1.6-0.7,1.1,0.1,2.7c0-0.3,0.4,0.5,0.2-0.5c0.1,1,0.5,0.6,0.5,1.8
	c-0.3-0.8-0.2,1-0.6-0.2c0.1,0.1,0-0.7-0.1-0.9c-0.1,0.4-0.4,0-0.2,1c0.1,0.6,0.3,1.5,0.4,1.3c0.2-0.1-0.2-0.9,0.1-0.6
	c0.3,1.2,0,1.5,0.4,1.9c-0.2-0.8,0-1,0.2-1l0.2,0.9l-0.2-0.2c0.1,1.5,0.3,0.4,0.5,1.8l-0.2,0.7c-0.3-0.3-0.2-2.1-0.6-1.8
	c0.1,0.9,0.4,1.2,0.4,2.1l-0.2-0.6c0,0.3-0.4,0.7,0.1,2c0.2,0.7,0.2,0.2,0.3,0.2c0.3,1.5,0.5,1.9,0.7,2.8c-0.3-0.2,0.3,1.7-0.2,0.7
	c0.1-0.5-0.3-2.6-0.6-3.1c-0.2,0.6-0.1-1.2-0.5-1.4c0.2,1.2-0.1,1.2-0.3,1.4c0,0.3,0.2,0.6,0.2,0.8c0.2,0.1,0.1-0.3,0.3-0.4
	c0.2,1.3,0.5,2.6,0.8,3.3c0,0.5-0.2,0.3-0.3-0.2c0.3,1.6,0.6,3.2,0.8,4.7c0.2-1,0.4,1.6,0.5,0.9c-0.1-0.8,0.1-1.5,0.3-1.1
	c0.1,0.5-0.1,0-0.2,0.2c0.3,0.6-0.1,1,0.3,1.6c-0.3-1.4-0.4-0.2-0.7-0.4c0.3,1-0.2,0,0,1c0.3,1,0.6,2.3,0.9,3.4
	c0,1.5,0.6,3.6,0.8,4.9c0,0.7-0.4,0.3-0.3,1c0.1,0.9,0.2-0.7,0.3,0.6l-0.1-0.1c0.1,0.4,0.2,2.4,0.7,2.7l-0.4-0.3
	c0,0.2,0.1,0.4,0.2,0.6c-0.1,0-0.1,0.3-0.3-0.1c-0.1,0.8,0.3,1.6,0.5,2.5l0.1-0.6c0.5,1.3,0.2,2.8,0.8,3.5l-0.1,0.1l0.7,0.4
	c-0.3,0,0.3,0.6,0.7,0.7l-2-1c-0.5-0.9,0.7,0.5,0.5-0.1c-0.3,0-0.3-1.5-0.6-1.7c0.1,0.5,0.1,0.5,0.2,0.9c-0.2,0.2-0.3-0.6-0.6-0.9
	c0.1,0.3,0,0.6,0.1,0.7c-0.2-0.5-0.3-1-0.5-1.9c0.2,0.6,0.1-0.3,0.2-0.1c-0.2,0-0.4-0.8-0.5-1.9c0.1-0.8-0.5-2-0.6-3.2
	c0.3,0.5,0.6,1.1,0.8,1.8c0-0.8-0.1-0.9-0.2-1.6c-0.2-0.3-0.5-0.6-0.8-1.6l0.2-0.1c-0.2-0.9-0.5-0.9-0.6-2c-0.2-2-0.6-4-0.8-5.5
	l0.2-0.1c-0.5-0.8-0.6-2.8-0.9-3.9c-0.2-2-0.8-4.2-0.7-5.2c-0.7-3.4-1.3-6.3-1.8-9.9l0.3,0.6c-0.3-0.6,0.1-0.4-0.1-1
	c-0.1,0.7-0.4-0.8-0.6-1.2c-0.1-1.6-0.6-3.6-1-4.9l0.2-0.1c-0.5-1.4-0.6-3.1-0.8-4.8c0-0.2,0.1-0.6,0-1.1c-0.4-0.9-0.5-1.4-0.9-2.8
	c-0.2-1-0.4-2.7-0.4-3.7c-0.5-1.9-0.9-3.8-1.2-5.8l-0.5-2.9l-0.3-1.5l-0.1-0.4l0.8-1.2h0.1l0.2-0.1l0.7-0.2l0.3,0.1
	c0.9-0.3,1.9-0.6,2.9-0.9l0.4-0.1c0.2-0.3-1.7,2.3-0.9,1.2v-0.3l-0.1-0.8l-0.1-1.6c0-2.1-0.1-4.1-0.3-5.8l0.4,0.3
	c0-0.5-0.1-1.1-0.2-1.5v-0.3c0.4,0.4-0.8-0.9,0.8,0.9h-0.2c-0.1,0-0.2,0.1-0.1,0.2c-1-0.2-2.6-0.2-3.2-0.5c-1.1-0.2-1.3,0-2.2-0.1
	h-0.3c-0.5-0.5,1.1,1.2-1.1-1.2v-1c0-0.4,0-0.8-0.1-1.1c0-0.7-0.1-1.4-0.2-2.4v0.5c0.1,0.2,0.2,0.2,0.2-0.3c-0.1-0.7-0.1-2.8-0.4-2
	c0.1-2.2-0.5-5-0.3-7.1c-0.1,0.2-0.1-0.3-0.2-0.6l-0.1-2.8l-0.1-1.3l-0.1-0.6v-0.1c-0.4,1,0.6-1.3,0.5-1.1l0.1-0.1l0.2-0.2
	c0.3-0.2-0.2,0.5,0.3,0c0.3-0.3-0.1-0.1,0.3-0.5l1.7-1.6h0.1c-0.1-2,0.1,2.7,0.1,2.2l-0.1-0.1l-0.2-0.2l-0.5-0.4l-0.9-0.7
	c-1.2-0.9-2.4-2-3.5-2.8c-2-1.4-4.1-3-6-4.5l-0.7-0.6l-0.2-0.1l-0.1-0.1c0.5,1-0.7-1.3-0.5-1.1v-6.1l0.1,0.1c-0.2-0.8-0.1-1.7,0-2.6
	c0.3,1.3-1-0.7-1.4-0.5l-0.3-0.3l-0.4-0.2c1-0.3-2.2,0.8,2.3-0.8l-0.1,0.2c-0.2,0.3-0.2,0.4-0.3,0.3c-0.1,1.3-1,3.4-1.1,5.3
	c0-0.2,0-0.3,0.1-0.5c-0.8,2-0.1,3-1.8,5.7l0.2-0.3c0.2-0.3-0.2,0.5,0.4-0.7v-0.1c-1.1,1.5-1.2,1.8-1.8,2.1
	c-0.3,0.3-0.1,0.4,0.1,0.2c-3.1,2.9-6.2,6.3-9.3,9.5c-1.2,1-1.4,1-1.4,0.9c0,0,0-0.1-0.1,0h-0.2l-0.1,0.1c0.6,1.4-0.8-1.9-0.6-1.6
	c0.2,0,0.4,0,0.7-0.1c0.2,0.1,0.1-0.1,0.2-0.1c1-0.1,1.5,0.4,2.2,0.2c-0.3-0.2,0.5-0.1,0.5-0.3c0.5,0,0.9,0.1,1.2,0.1l0.5,0.1h0.2
	c-0.8-0.9,1.1,1.3,0.9,1v0.2c-0.1,0.5-0.2,1-0.2,1.8h-0.2c0.1,1.8-0.3,3.9-0.1,5.4l-0.8,7.3l-0.4,3.8l-0.2,1.8v0.1
	c-0.7,0.6,1.5-1.3-1.5,1.3h-1.7l-3.6,0.1h-0.8l1.6-1.6v2.8l0.1,7.3v0.6l-1.7-1.7h4.2c-0.4-0.4,3.2,3.7,1.7,1.9v0.4l-0.3,1.8l-1,7.1
	c-0.7,4.7-1.4,9.4-2.2,14.2c-0.7,2.2-0.7,2.4-0.9,4.9c0-0.1,0-0.3-0.1-0.1c0.2,0.2-0.2,1.7,0,2c-0.6,3.6-1,6.8-1.5,10.5
	c0.1-0.6-0.1-0.9-0.2-0.2l0.1,0.7l-0.1,0.1c0,0.5,0,1,0.2,0.5c-1,9.3-3.4,18.1-3.9,27.2c-0.3,2.1-0.5,5.2-0.7,7.6
	c-0.3,1.7-0.5,3.4-0.7,5.1l-0.3,2.5l-0.2,1.2l-0.1,0.6v0.1c-0.5,0.5,1.1-1-1.1,1h-2.3c0.4-0.8-0.9,1.7,0.9-1.7l0.4,0.5l1.4,2.1
	l0.7,1v0.1c-0.1,0.6,0.1-1.4-0.1,1.4l-0.1,0.1l-0.2,0.2l-0.5,0.5l-1.8,1.9C-307.7,630.2-307.4,629.7-305.6,626.7 M-252.9,604.8
	c-0.1-0.3-0.7-0.8-0.1-0.6C-253,604.4-252.8,604.7-252.9,604.8"/>
<path class="st1" d="M-257.4,584.2v-0.4c0.1,0.3,0.2,0.5,0.2,0.7C-257.3,584.3-257.3,584.3-257.4,584.2 M-258.2,578.7
	c0.1,0.1,0.4,1.2,0.5,1.9L-258.2,578.7z M-258.6,573.6c0-0.5,0.1-0.3,0.2,0.2C-258.4,573.9-258.5,573.7-258.6,573.6 M-258.9,573.2
	c-0.1-0.4,0-0.6,0-0.9C-259,572.4-258.7,573.3-258.9,573.2 M-260.4,562.1c-0.1-0.3-0.2-0.8-0.2-1.1
	C-260.6,561.3-260.2,562.3-260.4,562.1 M-261.4,557c0-0.2,0-0.2-0.1-0.4c0-0.3,0.1,0,0.2,0.2C-261.3,556.8-261.4,557-261.4,557z"/>
<path class="st1" d="M-282.7,486.1l0.2-0.4l-0.1-0.1L-282.7,486.1z M-292.5,516.8c0,0.6-0.2,0.4-0.2,0.5
	C-292.6,516.8-292.6,517.5-292.5,516.8"/>
<path class="st1" d="M-299.2,533.1l0.3-0.1l-0.3-0.1V533.1z M-282.2,482.9c-0.6,0.1,0.4,0.2-0.4,0.1
	C-282.5,483-282.4,482.9-282.2,482.9 M-270.7,502.8c-1.8,0.8-4.3,0.6-6.3,1.3c-0.2,0.1,0-0.3-0.5-0.2c-1.9,0.8-5.1,1-7.5,0.8
	l0.1-0.1c-0.5,0-1,0.4-1.5,0.3c0-0.1,0.1-0.1,0-0.2c-0.1,0.2-0.9,0.1-1.1,0.3c-0.2-0.1-0.2-0.2-0.4-0.3l-0.3,0.2
	c-0.8,0.6-1.9-0.1-3,0.2c0.1,0,0.2-0.1,0.1-0.1c-1.6,0.3-0.3-0.1,0.6-0.7c0.9-0.5,1.9-0.7,2.8-1.1c-0.1,0.1-0.1,0.3,0.1,0.3
	c0-0.3,0.6-0.5,1.1-0.6c0.3,0.2,0.8-0.4,1.4-0.4v0.1c0.4-0.3,0.7,0,1-0.3l0.3,0.1c0.1-0.4,0.7,0.1,1-0.1v-0.1c0.3-0.1,0.5,0,0.9-0.1
	c0.7-0.1,1.2,0,1.2-0.3c0.3,0.2-0.7,0.2-0.3,0.4c2.5-0.5,5-0.4,7.5-0.5c0.3,0.1,0.5,0.1,0.5,0.2c0.1-0.1,1.3-0.1,0.6,0.2
	c0.1,0-0.2-0.1-0.3-0.1c-0.5,0-0.4,0.4-0.9,0.4c0.2-0.1,0.2-0.2,0.1-0.3c-0.4,0.3-0.9,0.4-1.4,0.5c0.1-0.1,0.2-0.1,0.2-0.2
	c-0.5,0.3-1,0.1-1.5,0.3l0.2-0.2c-0.8-0.1-0.2,0.4-0.9,0.3c0.2-0.1,0.1-0.1,0.1-0.2c-0.6,0.3-1.6,0.3-2.2,0.5V503
	c-0.7,0.1-1.4,0-2.1,0.1c-0.3-0.1,0.1-0.4-0.6-0.3c0,0.3-1.2,0.1-0.8,0.4c-0.6-0.1-1.6-0.2-2-0.1c0.3-0.1-0.3-0.4,0.2-0.4l-0.4-0.2
	c0.1-0.1,0.4,0.1,0.3-0.1c-0.3,0-1,0.1-1.2,0c-0.5,0.2-0.9,0.5-1.7,0.5c0.4-0.1-0.2-0.3,0.1-0.4l-1.1,0.5c-0.3,0,0-0.2-0.4-0.2
	c0,0.1-0.1,0.1-0.3,0.2c-0.1,0-1.1,0-1.2-0.3c-0.1-0.1,0.4,0,0.1-0.2h-0.5c-0.4-0.7,0-0.4,0.1-0.7c0.2-0.2,0.5-0.8,0.2-0.6
	c-0.2,0.2,0.2,0.1-0.1,0.3c0-0.3,0.4-0.8,0.7-1.2c-0.1,0.2,0,0.2,0,0.3c0.3-0.6,1-1,1.6-1.6c-0.1-0.1-0.1,0.4-0.2,0.4
	c0.9-0.4,1.7-1,2.6-1.1c-0.3,0.5-0.3,0.2-0.3,0.3c0.5-0.1,0.5,0.1,0.8,0c0.1,0.1,0.4-0.1,0.6-0.2c0.1-0.1,0.1,0-0.2,0.1
	c0.4-0.2,2.1-0.6,3-0.5c0-0.1,0.6-0.3,0.8-0.3v0.1c0.2,0.1,0.7,0,0.8,0.1c0.5-0.2-1.8,0.2-1.2,0c0.2,0.1,0.9-0.3,0.7-0.1
	c0.4,0,0.9-0.2,1.3-0.1c-0.1,0-0.4,0.3,0,0.2c0.6,0,0.2-0.1,0.7-0.1l0.3-0.1c0-0.2,0.6,0,0.3-0.2c0.1,0.2,0.9-0.1,0.8,0.2l-0.1,0.2
	c0.3,0,0.5-0.2,0.7-0.3l0.1,0.1c0.1-0.4,0.6,0.1,1-0.2c0.3,0.1,0.6,0.1,1,0.1c0.2,3.7,0.1,1,0.1,1.8h-0.4l-0.3-0.1
	c-0.4,0.2-0.8,0.4-1.3,0.4c0.1-0.1,0.2-0.1,0.2-0.2c-0.3,0-0.4,0.1-0.6,0.2c0.1-0.1-0.6-0.1-1-0.2c-0.4,0.2-0.2,0.3-0.2,0.5
	c-0.5-0.3-1.2,0.5-1.7,0.2c0.1-0.1,0.6-0.3,0.2-0.3c-0.4-0.3-0.7,0.4-1.4,0.4l0.2,0.3c-0.3-0.1-0.9,0.3-0.9,0
	c-0.2,0.1-0.8,0-0.7,0.3c-1.1-0.1-2.6,0.5-3.3-0.1c-0.2,0-0.5,0-0.5,0.1c0.3,0.2,0.4-0.1,0.5,0c-0.1,0-0.2,0.1-0.2,0.1
	c-0.3-0.1-0.6-0.1-0.3-0.3c-0.7-0.2-0.8,0.5-1.7,0.4c0.1-0.1,0-0.2-0.3-0.1l-0.1,0.1c0.1,1.6-0.2-2.2-0.1-1.8h0.1l0.2-0.2
	c0.5-0.1,0.4,0.2,0.4,0.4c0.3-0.1,0.6-0.2,0.7-0.4l0.4,0.1c-0.3-0.1,0.2-0.2,0.3-0.3l-0.1,0.1c0.1,0.1,0.4-0.1,0.6-0.2
	c-0.1-0.1-0.4,0-0.6,0c0.1-0.1,0.4-0.2,0.5-0.4c0,0.2,0.5,0,0.8-0.1c0.3-0.1,0.2-0.3,0.3-0.3c0,0.1,0.4-0.2,0.3,0.1
	c-0.1,0.1-0.2,0-0.4,0.1c0.2,0,0.3,0.2,0.6-0.1c0.2-0.2-0.2-0.3,0.4-0.4c-0.1,0.1-0.1,0.2-0.2,0.3l0.5-0.1v-0.2c0.1,0,0,0,0.1,0.1
	c0.1-0.2,0.7-0.3,0.8-0.6c0.2-0.1,0.6-0.1,0.8-0.2c0.3,0,0.7-0.2,1-0.4c0.2,0,0.6-0.2,0.8-0.4c0.5,0,0.3,0.6,0.7,0.3
	c0.4-0.1,0.7-0.4,0.5-0.5c0.8-0.1,1.9-0.3,2.7,0.1c0.1,0,0.1-0.1,0.3-0.1l1,0.3l0.3,0.1h0.1c-0.2,0.9,0.4-2.1-0.4,2.1h-0.1l-0.4,0.1
	c-0.6,0.1-1.1,0.1-1.6,0c0.3-0.1,0-0.2,0-0.3c-0.3,0.2-0.3-0.1-0.4,0.1c0,0.2,0,0.2,0.4,0.3c-0.7,0.2-1.8,0.2-2.2,0.1
	c0.2,0.1,0,0.1-0.1,0.2c0-0.3-0.5-0.3-0.9-0.2l-0.1,0.2l-0.3-0.2c-0.2,0-0.2,0.3-0.6,0.2c0-0.1,0-0.1-0.1-0.2
	c-0.4,0.1-1,0.3-1.5,0.1l-0.3-0.3c-0.2,0-0.5,0.1-0.2,0.2c-0.7-0.3-1.2-0.4-1.4-0.7c-0.7,0.1-1.5-0.1-2.4-0.3l-1.2-0.5l-0.3-0.1
	c0,0.5,0.3-4.6,0.2-2.4h0.1l0.1-0.1l0.5-0.2v0.1c0.4,0,0.1-0.3,0.4-0.3c-0.1,0.2,0.4,0.1,0.1,0.4c0.6-0.1,0.6-0.5,0.9-0.6
	c0-0.2-0.3,0.2-0.3,0c0-0.1,0.8-0.1,0.8-0.4c0.2,0,0.1,0.2,0.1,0.4l0.3-0.2c0.5,0.1-0.8,0.8-0.2,1l0.3-0.1c0.4,0.1-0.7,0.5,0.1,0.4
	c0.3-0.2,0.5-0.6,0.1-0.6c0.7-0.3,0.1-0.6,0.9-0.9c0.2,0.1-0.6,0.2-0.4,0.4c0.4,0,0.7-0.3,1-0.3c-0.4,0-0.1-0.3,0.1-0.4
	c0.4,0-0.2,0.3,0.4,0.2c0.1-0.2,0.6-0.4,0.1-0.4c0.1-0.4,0.6-0.1,0.9-0.4c0.2,0.2-0.5,0.6,0.2,0.6c-0.2-0.2,0.7-0.4,0.3-0.7
	c0.3,0,0.3,0.2,0.2,0.3c0.4,0.1,0.8-0.5,1-0.1l0.1-0.2c0.1,0.1,0.3,0.1,0.5,0.2l0.3-0.1c0.4-2-0.5,2.7-0.4,2.2h-0.1
	c-0.1,0-0.1,0-0.1-0.2c-0.1,0-0.7,0-0.5,0.2c0.3,0.2,0.5-0.1,0.5,0.2c0-0.3-0.5,0-0.6,0.1v-0.1c-0.1,0-0.4,0-0.5,0.1
	c0.1-0.1,0.1-0.2-0.1-0.2l-0.1,0.2c-0.6,0.1-0.1-0.3-0.7-0.3l0.4-0.2c-0.1,0-0.3-0.1-0.6-0.1c-0.3-1,0.6,2.2-0.6-2.2v-0.6
	c0.2-0.2,0.2,0.1,0.4-0.2l-0.3,0.4c0,0.1,0.4,0.1,0.8-0.1c0.2-0.2,0.4-0.6,0-0.5c0.2-0.1,0.5-0.2,0.4,0c0.4-0.3-0.1-0.1,0.1-0.4
	c0.2,0,0.6-0.1,0.9-0.2l-0.1,0.5l0.2-0.2c-0.1,0.4,0.3,0,0.3,0.3c0.2-0.1,0.3-0.3,0.4-0.4c-0.4,0-0.3-0.2-0.3-0.4v-0.1
	c-0.2-0.4,1.4,3.4,0.8,1.8l-0.3,0.4c-0.1,0.1-0.1,0.1-0.1,0.2c-0.9,0.1-0.5-0.9-1.4-0.4c0.1,0.1-0.3,0.4,0.2,0.3
	c-0.5-0.1-0.4,0.3-0.9,0.2c0.4-0.1-0.4-0.4,0.2-0.6c0,0.1,0.3,0.1,0.4,0.1c-0.2-0.1,0.1-0.4-0.5-0.4c-0.3,0-0.7,0-0.7,0.2
	s0.5,0,0.3,0.2c-0.6,0.1-0.7-0.3-1,0.1c0.4,0,0.5,0.2,0.5,0.3l-0.4,0.1l0.1-0.1h-0.3c0,0.7-0.1-5.7-0.1-3l0.1-0.1
	c0-0.1,0.1-0.2,0.3-0.2l0.3,0.2c-0.1,0.2-0.8,0-0.7,0.4c0.4,0,0.4-0.2,0.8-0.2l-0.3,0.1c0.1,0,0.4,0.4,0.9,0c0.3-0.2,0.1-0.2,0-0.3
	c0.7-0.2,1-0.4,1.6-0.5c0,0.1,0,0.1,0.1,0.1h0.1c-0.1,1.1,0.3-2.6-0.3,2.6c-0.1,0-0.2,0,0-0.2c0.5-4.6,0.2-1.3,0.3-2.3h-0.2
	l-0.6,0.1c-0.1,0.1-0.4,0.3-0.5,0.5c0.3,0.2-0.6,0-0.6,0.4c0.6-0.1,0.6,0.2,0.8,0.4c0.1-0.1,0.2-0.2,0.3-0.2c0-0.2-0.2-0.2-0.2-0.3
	l1-0.2l0.2-0.1h0.2c0.2-1.4-0.2,2-0.2,1.6l-0.3,0.1c-0.2-0.1-0.1-0.3,0.2-0.3c-0.3,0-0.8-0.1-1.2-0.2c-0.1,0-0.3,0-0.2-0.1
	c0.1,0,0.2,0,0.2-0.1l0.1-0.1V491c0.2,0.2-2-1.5-1.1-0.8c0.3-0.2,0.6-0.4,0.8-0.5c-0.6-0.1,0.8-0.4,0.4-0.5c-0.2,0-1,0-0.7-0.2
	c0.4-0.1,0,0.1,0.2,0.1c0.3-0.3,0.6,0.1,0.4-0.1c0.1,0.1,0.2,0.3,0.3,0.6c0-0.2,0.2-0.1,0.2,0.2c-0.2-0.5-0.5-1.3-0.1-2.1
	c0.3-0.3,0.6-0.6,0.8-1c0,1-0.5,0-0.8,0.1c-0.3-0.3,0.2-0.3-0.2-0.7c-0.2-0.9-0.3,0.7-0.1-0.8v0.1c0.1-0.2,1-0.7,0.8-1.1l0.1,0.3
	c0.1,0,0.1-0.2,0.2-0.2c0.1,0.1,0.2,0,0.2,0.2c0.4-0.2,0.5-0.7,0.8-1l-0.3,0.1l0.3-0.4l-0.1-0.2c0.6,1.1,0.1,0.3,0.2,0.5h-1.2v-0.2
	l-0.4,0.1c0.1-0.2-0.3-0.3-0.5-0.1l1.1-0.5c0.3,0.1-0.3,0.2-0.1,0.4c0.2,0.2,0.8,0.1,0.9-0.1c-0.3,0-0.3,0-0.5,0.1
	c-0.1-0.2,0.3-0.2,0.5-0.4c-0.1,0-0.3-0.1-0.3,0h0.3c0.2,0.3-0.2-0.8,0.6,0.7l-0.2,0.2c0.1-0.3-0.2,0-0.2-0.1
	c0.2,0.2-0.1,0.5-0.5,0.9c-0.4,0.1-0.6,0.9-1.1,1.3c0.1-0.4,0.2-0.7,0.4-1.1c-0.4,0.2-0.3,0.3-0.7,0.5c-0.2,0.5,0.2,0.1,0.5,0.2v0.3
	c0.4,0.2,0.5-0.1,1.2,0.5c0,2.4-1.1,1.9-0.7,2.9h-0.2l0.2,0.4v0.1c-0.3,0.9-0.2,0.3-0.3,0.6l-0.4,0.3c-0.4,0.2-0.9,0.2-0.8,0.4h-0.1
	c-0.4-0.3,1,0.7-1-0.7l0.3-0.2l0.3-0.1c0.5-0.1,0.5,0,0.7,0l0.7,0.1l0.7,0.1h0.1c0-0.3-0.3,2.2-0.1,1.2h-0.4
	c-0.8,0.2-1.5,0.5-2.4,0.7l-0.7,0.1v-1.4h0.6l1.3,0.1l-0.3,0.2c0.3-0.2,0.2,0.1,0.5,0.1c-0.3-0.2,0.4-0.2,0.7-0.4l0.6,0.1h0.4
	c1,2.3,0.3,0.6,0.5,1.1l-0.2,0.3c-0.3,0.3-0.7,0.7-0.9,1l-0.1-0.1c-0.2,0.4-0.6,0.6-1,0.8l-0.6,0.3l-0.3,0.1l-0.2,0.1
	c-0.8-2.8-0.2-0.8-0.4-1.4h0.1c0.1,0.1,0.3,0.2,0.5,0.2c0.5-0.3,0.7-0.3,1.5-0.4c0.2,0,0.8,0.1,1.2,0.3c-0.6,3.5-0.2,1-0.3,1.7h-0.8
	c-1.8,0.5-3.7,0.9-5.4,1.8l-0.3-0.2c-0.4,0.3-0.9,0.5-1.3,0.7l-0.2,0.1h-0.1c0,0.4,0.3-3.9,0.1-2.1l0.3,0.2l0.6,0.3
	c0.9,0.4,1.8,0.7,2.6,0.8l-0.2,0.3c0.5,0.2,1.1,0.1,1-0.1c0.5,0.2,1.2,0,1.5,0.3c0.5,0.1,0.6-0.1,1.1-0.2c1,0.1,1.4,0.1,2.4,0h-0.2
	c-0.1,0.1-0.1,0.2,0.1,0.2c0.4-0.1,1.4,0,1-0.4c0.5,0.1,1.1-0.1,1.7-0.2h0.1c0.4-2.2-0.5,3-0.4,2.5h-0.2l-0.2-0.1l-0.6-0.3
	c0.1,0.1-0.2,0.1-0.3,0.2c-0.7-0.1-1.6-0.2-2.2,0.1c-0.1,0,0.2-0.2-0.2-0.2c-0.2,0.1,0,0.1-0.2,0.3c-1.3,0.6-2.9,0.8-4.2,1.3
	c-1.1,0.6-2.4,1.1-3.7,1.4h-0.2c0,0.6-0.4-5.1-0.2-2.7h3.2v0.1c0.7-0.4,1.8,0.1,2.4-0.4c0.2,0.1,0.7-0.1,0.6,0.1
	c0.6-0.3,1.8-0.1,2.6-0.5l-0.2,0.1c0.9,0,1.7-0.4,2.7-0.4c-0.1,0.1-0.3,0.1-0.3,0.2c0.4,0.1,0.8-0.5,1.1-0.2c0.2,0,0.1-0.2,0-0.2
	l0.8-0.1h0.3c0.1,1-0.1-2.2,0.1,2.3h-2.2c-1.1,0-2.2,0.1-3.3,0.1c-1.6-0.2-0.1-0.7-1.3-0.3c-0.1-0.1-0.1,0.2-0.1,0.1
	c-0.5,0.1-0.8-0.4-1.1-0.1c0.2,0.2-0.2,0.1-0.2,0.3c-1-0.1-1.2-0.2-1.8,0.1V500c-0.8,0.4-1.7,0.7-2.2,1.3c-0.9,0.5-1.7,1.1-2.3,1.9
	l-0.2,0.3c-2.2-4.5-0.6-1.2-1.1-2.3h1.3l1.8,0.1c2.4,0.1,4.8,0.1,7.1,0.1c2.3,0,4.6-0.2,6.7-0.9l0.8-0.2c0.2,1.5-0.6-3.3,0.6,3.3
	h-6.3c-1.1-0.3-1.2-0.3-2.4-0.1c0-0.1,0.1-0.1,0-0.1c0,0.3-0.9,0.1-1,0.4c-1.7,0.1-3.3,0.5-5,0.9c0.3-0.1,0.3-0.3,0-0.2l-0.1,0.3
	c-0.2,0.1-0.4,0.3-0.2,0.3c-1,0.4-2,0.7-3,1.2l-0.7,0.3h-0.1c0.1,0.7-1.3-6.3-0.7-3.3h0.6l1.7,0.1c2.2,0.1,4.5,0.1,6.7-0.2
	c1.1,0,2.6-0.3,3.7-0.6c3.5-0.2,6.7-0.4,10.3-1C-268.8,501.7-269.3,502.4-270.7,502.8 M-281.5,482.9c0.1,0.1,0.6,0.2,0.2,0.4
	C-281.3,483.1-281.5,483-281.5,482.9"/>
<path class="st1" d="M-281.1,489.9c0.5-1.4,0.1-0.5,0.1-0.8c-0.1,0.4,0.2-0.8-0.3,0.8v-0.2C-281.2,489.8-281.1,489.8-281.1,489.9
	 M-280.7,491.7c0.3,0-1.4,0.2-0.2-0.1C-282.2,491.8-280.7,491.6-280.7,491.7 M-281.7,489.8c-0.2,0-0.2-0.1,0.1-0.2
	C-281.5,489.6-281.6,489.7-281.7,489.8 M-281.8,490.1h-0.4C-282.1,490.1-281.7,489.9-281.8,490.1 M-280.5,490.6
	c-0.1,0.1-0.2,0.3-0.4,0.2C-280.7,490.9-280.5,490.5-280.5,490.6 M-282.2,492c-0.1,0-0.1,0-0.2,0.1c-0.2,0-0.1-0.1,0-0.2
	C-282.4,491.9-282.2,492-282.2,492z"/>
<path class="st1" d="M-280.6,500.9l0.3-0.1h-0.2L-280.6,500.9z M-289.6,500.3c-0.2,0.2-0.3,0-0.3,0.1
	C-289.7,500.2-289.9,500.5-289.6,500.3"/>
<path class="st1" d="M-281.8,503.5L-281.8,503.5l0.1-0.3L-281.8,503.5z"/>
<path class="st0" d="M-241.9,504.5C-242,504.2-242,504.4-241.9,504.5z M-242,504.4C-242,504.5-242,504.5-242,504.4 M-242.3,504.3
	c0-0.2,0.2,0,0.1-0.3C-242.3,503.8-242.4,504-242.3,504.3"/>
<path class="st0" d="M-242.2,504.6v-0.3V504.6z M-242.2,504.8L-242.2,504.8l0.1-0.2L-242.2,504.8z M-242.6,504.3
	c0.2,0.2,0.1,0.3,0.2,0.4c0.1,0-0.1-0.5,0-0.5c-0.1-0.2-0.2,0-0.3-0.3C-242.8,503.8-242.6,504.1-242.6,504.3"/>
<path class="st0" d="M-247.6,507.8h0.1H-247.6L-247.6,507.8z"/>
<path class="st0" d="M-253.6,506.4v0.1v-0.2V506.4z M-243.8,504.1C-243.8,504.2-243.8,504.2-243.8,504.1 M-245.2,504.5
	C-245.2,504.4-245.2,504.4-245.2,504.5 M-160.3,525.6c-0.1-0.1-0.2-0.6-0.1-0.1L-160.3,525.6c-0.2-0.1-0.2,0.1-0.2,0.2v0.1h0.1
	C-160.3,526-160.3,525.8-160.3,525.6 M-162.9,528.7C-162.9,528.8-162.9,528.7-162.9,528.7"/>
<path class="st0" d="M-244.8,506.5C-244.8,506.6-244.8,506.5-244.8,506.5"/>
<path class="st0" d="M-259.3,505.4c0,0,0,0.1,0.1,0.1c0-0.4-0.1,0-0.1-0.3v0.4C-259.3,505.5-259.4,505.5-259.3,505.4 M-254,505.8
	c0-0.1,0-0.2-0.1-0.2c0,0.2,0.1,0.6,0.1,0.8h0.1C-254,506.2-254,506-254,505.8"/>
<path class="st0" d="M-254,506.4l0.1,0.1v0.1L-254,506.4z"/>
<path class="st0" d="M-249.5,504.5v-0.1V504.5z M-255.1,509.5c0-0.4,0,0-0.1-0.2v0.2C-255.1,509.6-255.1,509.6-255.1,509.5"/>
<path class="st0" d="M-253.7,506.5h0.2l-0.1-0.1C-253.6,506.7-253.7,506.3-253.7,506.5"/>
<path class="st0" d="M-253.8,507.4c0-0.2,0-0.3-0.1-0.5v-0.1c0,0-0.1-0.1-0.1,0C-253.9,507.3-253.9,507.4-253.8,507.4 M-251.4,505.7
	v-0.3c0,0.1-0.1-0.1-0.1,0.1C-251.4,505.6-251.4,505.7-251.4,505.7 M-245.7,504.3C-245.8,504.1-245.8,504.2-245.7,504.3
	L-245.7,504.3z M-244.7,504.6c0-0.1,0-0.1-0.1-0.1L-244.7,504.6z M-245.6,506.4c0.1-0.2,0.1,0,0.1,0.1
	C-245.6,506.4-245.6,506.6-245.6,506.4v0.2c0,0-0.1-0.1-0.1-0.3C-245.9,506.1-245.5,506.6-245.6,506.4 M-244.8,506.3
	C-244.8,506.2-244.8,506.2-244.8,506.3 M-254.3,509.7v0.2c0.1-0.5,0.4,0.2,0.4-0.5c0.3,0.8,0-0.7,0.3,0v-0.1c0.6,0,1.4,0.4,1.9-0.1
	v0.2c1,0.1,1.8-0.4,2.7-0.5c0.1-0.2-0.1-0.5,0-0.7c0,0,0.1,0,0.1,0.2v0.4c0.1,0,0.3,0.2,0.3-0.1l-0.1-0.2c0-0.1,0.1-0.1,0.1,0
	s0.1,0.4,0.1,0.5c0.1-0.7,0.2,0.2,0.3,0c-0.1-0.5,0-1,0.1-1.4l0.1,0.1c-0.1,0,0.1,0.4,0,0.4c0.1,0.1,0.2-0.1,0.3,0
	c0-0.1-0.1-0.3-0.1-0.4c0.1,0.1,0.1,0.3,0.2,0.3v0.2c0.1,0.2,0.1-0.1,0.1-0.1c0.1,0.2,0.2,0.2,0.2,0.5c0-0.3,0.1-0.2,0.1-0.4
	c-0.1-0.2,0-0.3-0.1-0.5l-0.1,0.1c0.2,0.1,0,0.1,0.1,0.4c-0.1-0.2,0-0.6-0.1-0.6c0.1-0.2,0.2-0.1,0.2-0.4c-0.1,0.1,0-0.2-0.1-0.4
	c0.1,0,0.1,0.1,0.1,0.4c0.1,0,0.1,0.2,0.1-0.1c0.1,0.1,0,0.3,0.1,0.4c0,0.3-0.3-0.3-0.1,0.6c-0.1,0,0,0.4-0.1,0.3
	c0.1,0.1,0.2,0.4,0.3,0.1l-0.1-0.5c0.1,0,0-0.3,0.1-0.3c0,0.1,0.1,0.3,0.1,0.3c0-0.1,0,0-0.1-0.1c0.1-0.1,0-0.4,0.1-0.5
	c-0.1-0.1-0.2-0.2-0.3-0.4c0-0.3,0-0.1,0.1-0.1v0.1v-0.2c0.1,0.1,0.1,0.5,0.2,0.6c0.1,0.3,0.1-0.2,0.1,0v-0.1c0-0.1,0.1-0.1,0.1-0.3
	v-0.1c0-0.1,0-0.4,0.2,0c0.1,0,0.2,0.1,0.2,0.3l0.1,0.1l0.1,0.3c0.1-0.1,0-0.3,0-0.6c0.1,0.2,0.2,0,0.2-0.1l-0.1-0.1
	c0.1,0,0-0.2,0.1-0.2v0.1c0.1,0.3,0.1-0.2,0.2-0.1s0.2,0.5,0.2,0.2v-0.2h0.1l0.1-0.1v0.1l0.1,0.1c0.2,0.4,0.1-0.3,0.4,0.1
	c0-0.2-0.1-0.3-0.1-0.4v-0.5c0.1,0.3,0.4,0.5,0.5,1c0.1,0-0.1-0.3-0.1-0.4c-0.1,0-0.1-0.2-0.2-0.3c-0.1-0.2,0-0.3,0.1-0.3l0.1,0.3
	c0.1-0.1-0.1-0.6-0.1-1c0.1,0.1,0.1,0.4,0.2,0.7l0.1-0.1l0.1,0.3c0-0.1,0-0.3,0.1-0.2c0,0.3,0.2,0.2,0.2,0.5c0.1,0.1,0-0.4,0.1-0.1
	c0-0.3-0.1-0.1-0.1-0.2c-0.1-0.4,0.1-0.2,0.1-0.3c0.1,0.2,0,0.2,0.1,0.4c0-0.2,0-0.3,0.1-0.1c-0.1-0.3,0.1-0.1,0.1-0.1
	c-0.1,0-0.2-0.2-0.2-0.4c0-0.1,0-0.2,0.1-0.1l-0.1-0.1c0-0.4,0.2,0.2,0.2,0.1v0.4l0.1-0.5l0.2,0.4c0-0.2,0.1,0,0-0.3
	c0.1,0.1,0,0.3,0,0.5c0.2,0.1,0-0.4,0.2-0.1v0.2c0,0,0.1-0.1,0.1,0c0-0.1,0,0-0.1,0c-0.1-0.5,0.1-0.4-0.1-0.9h-0.1
	c0-0.1,0-0.5,0.1-0.3c0.1,0.2,0.1,0.4,0.1,0.5c0.1,0-0.1-0.6,0-0.6c-0.1-0.1-0.1-0.3-0.1-0.4c-0.1,0-0.2-0.1-0.1,0.1v0.3
	c-0.1,0-0.1-0.2-0.1-0.3c-0.1-0.1,0.1,0.5,0,0.5v-0.1c0,0.1-0.1,0.2,0,0.5c-0.1-0.3-0.1,0.2-0.2,0c-0.2-0.7,0.2,0,0.1-0.4
	c0.3-0.5,0.3-0.7,0.3-0.9l-0.1,0.4c0-0.1-0.2-0.5-0.1-0.2v0.3v-0.2c-0.1-0.1,0,0.2,0,0.3c-0.1-0.1,0-0.3-0.1-0.4c0,0.3-0.1,0-0.2,0
	c0.1,0.4-0.1,0.6,0.1,1l-0.1,0.3c-0.1-0.2-0.1-0.6-0.2-1h0.1c-0.1-0.5-0.1,0.4-0.3-0.2c-0.1,0,0,0.1-0.2-0.2l0.1,0.5
	c-0.1-0.1-0.2-0.3-0.2-0.4h-0.1v-0.2c-0.1-0.2-0.1-0.2-0.1,0c0,0.1,0,0.1-0.1,0.1V504v0.3c0,0.1,0.1,0.3,0.2,0.5
	c-0.2-0.2-0.2,0-0.4-0.4v-0.3c-0.1-0.1-0.1,0.2,0,0.4c0-0.1-0.1-0.2-0.1-0.3l-0.2-0.1c0.1,0.4-0.1,0.2-0.1,0.4h0.1v0.4
	c0-0.3-0.2-0.4-0.1-0.5c-0.2-0.5,0,0.3-0.1,0.2l-0.1-0.2c-0.1-0.3,0.1-0.2,0-0.3c0-0.2,0.2-0.1,0.2-0.4l-0.2-0.1
	c-0.2,0.4-0.5,0.1-0.6,0.7v0.2v-0.1v0.2c-0.1-0.2-0.2-0.3-0.3-0.5c0.1,0.2,0.1,0.2,0.1,0.4c0.1,0.3,0.1,0.4,0,0.3
	c0-0.2,0-0.2-0.1-0.3c0,0.1,0.1,0.2,0,0.3c-0.1-0.1-0.1-0.1-0.2-0.3c0-0.1,0,0,0.1,0c0-0.1-0.1-0.2-0.1-0.3l-0.1,0.1
	c-0.1-0.2,0-0.3-0.1-0.4c-0.1,0.2,0,0.6-0.1,0.8c0-0.1-0.1-0.5-0.1-0.4c-0.1-0.1-0.1,0.5-0.1,0.6v-0.2c-0.3-0.1-0.5-0.1-0.9-0.4v0.5
	l-0.1-0.3c-0.3-0.2-0.5,0.1-0.7,0.3c-0.1,0-0.1-0.3-0.2-0.4c-0.2,0-0.1,0.5-0.3,0.6c0-0.1,0-0.5-0.1-0.5v0.3v-0.1
	c-0.1-0.2-0.1,0-0.2-0.1c-0.1,0-0.2,0.4-0.3,0.9c-0.1,0-0.1-0.5-0.1-0.6c0.1,0.1,0-0.1,0-0.2c0,0.1-0.1,0.2-0.2-0.1
	c-0.1,0-0.1,0-0.1,0.3c0-0.1,0.1,0.1,0.1,0.2c-0.1-0.1-0.2,0-0.3-0.4c-0.3,0.1-0.7,0.1-1,0.2c0,0.2,0.1,0.1,0.1,0.2
	c0,0.3-0.1-0.1-0.1,0.1V505c-0.1,0-0.1,0.4-0.2,0.6c0-0.3-0.1-0.2-0.1-0.4c0,0.1-0.3-1-0.3-0.8l0.2,1c0,0.1-0.1,0.1,0,0.1l-0.2-0.4
	c-0.1-0.3,0-0.2,0.1-0.2c-0.1-0.4-0.2-0.3-0.2-0.7c-0.1,0.1,0.1,0.2,0,0.4l-0.1-0.1l0.1,0.1c0,0.1,0,0.5-0.1,0.3v0.4
	c-0.1-0.3-0.1-0.1-0.1-0.1V505c-0.1,0-0.1,0-0.1-0.2c0-0.3,0.1,0.1,0-0.2l-0.1-0.1c0,0.2,0,0.4,0.1,0.5c0,0.4,0,0.7-0.1,0.7
	c-0.1-0.3,0-0.3-0.1-0.6c-0.2-0.1,0,0.9-0.1,0.9c-0.1-0.1-0.1,0.2-0.2,0.2c0-0.2-0.1-0.2-0.2-0.4v-0.2c0,0.1-0.1,0-0.1-0.2
	c0.1,0.3-0.1,0.3-0.2,0.5l0.1,0.3c-0.1,0.1-0.1,0.3-0.2,0.2c-0.1,0.1,0,0.3-0.1,0.6c-0.1-0.2-0.1-0.5-0.1-0.8c0,0.1,0.1,0,0.1,0.1
	c0.1-0.2,0.1-0.8,0.3-0.7c0-0.6-0.1,0.1-0.2-0.1v-0.1c0-0.1,0.1-0.2,0.1-0.5c-0.1,0.1,0,0.6-0.1,0.4c0,0.2-0.2-0.3-0.2-0.3
	c0,0.2,0.1,0.8-0.1,0.7v-0.4c-0.1,0,0,0.5-0.1,0.5c0,0,0,0.4,0.1,0.4c0,0.2-0.1,0.2-0.2,0.2v0.2c0.1,0.2,0.1-0.3,0.2,0.1v-0.4
	c0.1,0.1,0.1,0.4,0.1,0.6c0,0,0-0.1,0,0c0.1,0.6-0.1-0.2-0.1,0.3c0.1,0.4-0.1,0.3-0.1,0.3c-0.1-0.2-0.2-0.2-0.2-0.5l0.1-0.1
	c-0.1-0.2-0.1,0.1-0.2,0.1v-0.1v0.1v-0.1c-0.1,0-0.1,0.2-0.2,0.1v0.2v-0.1c0,0,0.1,0.1,0.1,0.3c-0.1,0.2-0.2-0.3-0.2-0.5
	c0-0.4,0.1,0,0.1-0.1c-0.1-0.4-0.1,0-0.2-0.3c0-0.4,0.1,0,0.1-0.4c-0.1-0.1-0.1,0.2-0.2,0.1c0-0.2,0.1-0.2,0-0.5l-0.1-0.1
	c0.1,0-0.1-0.5,0-0.6c-0.1-0.2,0,0.3-0.1,0.1c0,0.2,0.1,0.5,0.1,0.7l-0.1-0.1c-0.1-0.2,0-0.4-0.1-0.6l-0.1,0.1
	c0,0.1,0.1,0.2,0.1,0.3c-0.1-0.1,0,0.5,0,0.7c0,0-0.1,0-0.1-0.2c-0.1,0.4-0.2,0.4-0.3,0.7c0-0.3-0.1-0.4-0.1-0.6
	c0.1-0.1,0-0.4,0-0.7v0.6c-0.1-0.1,0,0.3-0.1,0c-0.1-0.1,0-0.4-0.1-0.5c-0.1,0,0,0.5-0.1,0.4v-0.1c-0.1-0.1-0.1,0.1-0.1,0.3
	c-0.1-0.5-0.1,0.1-0.2-0.4c-0.1,0.1,0.1,0.3,0,0.4c0,0.2-0.1,0.1-0.2,0c0,0,0-0.2,0.1-0.1l-0.1-0.3c-0.2-0.2,0,0.8-0.2,0.5
	c0.1-0.2,0-0.3,0-0.5c0,0.1-0.1,0,0,0.3l-0.2-0.1c0,0.1-0.1,0.2-0.1,0.5c-0.1,0-0.2-0.3-0.2-0.4c-0.1,0.3-0.3-0.1-0.5,0.2
	c-0.1,0,0.1,0.4,0,0.4c0-0.4-0.1-0.3-0.2-0.5c-0.2-0.2-0.3,0.3-0.5,0.1V506c-0.1-0.1-0.2,0-0.3,0v-0.1c-0.2-0.3-0.3,0.1-0.5,0.2
	v-0.3c-0.1-0.1-0.2-0.1-0.3,0.2c-0.1-0.4-0.1,0.1-0.2-0.3v-0.1c-0.1-0.1-0.1-0.1-0.2-0.1c-0.1,0.3-0.1,0.8-0.3,0.7
	c0-0.6,0.1-0.1,0.1-0.6c0,0.1-0.1,0.2-0.1,0.1v-0.3c0-0.1-0.1,0.6-0.1,0.5c0,0.1,0,0.2,0.1,0.1c0,0.3-0.2,0-0.2,0.2
	c0,0,0.1,0.1,0.1,0.4c-0.1-0.1-0.1,0.4-0.2,0.7c-0.1-0.2,0.1-0.5,0-0.9c0-0.1-0.1-0.5-0.1-0.6c-0.1-0.1-0.1,0.3-0.2,0.4v-0.1
	c-0.1,0.1-0.2,0.5-0.3,0.3l0.1,0.1c0,0.1-0.1,0-0.1,0.3c0-0.2-0.1-0.3-0.1-0.5c0,0.6-0.3,0.4-0.3,0.9v-0.5c0.1,0,0.1,0.2,0.1-0.1
	c-0.1,0-0.1-0.1-0.1-0.3c0,0.4-0.2,0.5-0.2,0.9c-0.1-0.2-0.1-0.3-0.1-0.6c-0.2,0.2,0.1,0.9-0.1,0.9c-0.1-0.3,0.1-0.4-0.1-0.5v-0.1
	c-0.1-0.8,0,0.6-0.2,0.6c0-0.4,0.1-0.3,0-0.6c-0.1,0.1-0.1,0.8-0.2,0.6v-0.2h-0.3v-0.1c-0.1-0.2,0,0.2-0.2-0.1v0.2
	c0.1,0.1,0.2,0.3,0.2,0.1c-0.1,0.2,0.1,0.5,0.1,0.9v-0.1c0.2,0.6,0.4,0.7,0.6,0.9c0.1-0.4,0.2,0.2,0.4-0.2c0-0.5,0-0.1,0.1-0.2
	c-0.1,0.1,0,0.4,0.1,0.4c0-0.1,0-0.2,0.1-0.2c0,0.2,0.2,0.6,0.3,0.2c0.1,0.2,0,0.2,0,0.3c0,0.3,0.1-0.2,0.1,0v0.1
	c0.1,0,0.2,0.1,0.3,0.2c0-0.5,0.1-0.2,0.2-0.4c0,0.2,0.1,0.2,0.1,0.3v-0.4c0-0.3,0.1,0.2,0.2,0v-0.1c0.1-0.2,0.2,0.1,0.3,0.4
	c0.5-1,0.9,0.5,1.5,0.2c0-0.2-0.1-0.2,0-0.5c0.1-0.1,0.1,0,0.1-0.1c-0.1-0.1,0,0,0-0.1l-0.1,0.1V509c0,0,0,0.1-0.1,0.1
	c0-0.1,0-0.5,0.1-0.4v0.1c0.1,0,0-0.1,0.1-0.1l0.1,0.1l0.2,0.2c0-0.4,0.2,0,0.2,0c0,0.3-0.1,0.1-0.1,0.4l0.1,0.2v-0.3l0.1,0.1v0.1
	v-0.1c0,0.3,0.1,0.1,0.1,0.4c0.2,0.1,0.2-0.5,0.4-0.1c0-0.1,0-0.5,0.1-0.4c0,0.1,0.1,0.1,0,0.3l0.1-0.2c0.1,0.5,0.2,0.1,0.3,0.3v0.1
	c0-0.2,0.1-0.3,0.1-0.3v0.3c0.1,0.2,0-0.6,0.1-0.4c0-0.3-0.1-0.4-0.2-0.7c0.1,0.3,0.2,0.3,0.1,0.1c0.1-0.1,0.1,0,0.1,0.1v-0.2
	c0.1,0,0.1,0.4,0.1,0.6c0-0.3,0.1-0.1,0.2-0.1v0.1h0.1c0-0.2,0.1-0.3,0.2-0.2v0.4c0.1,0.2,0-0.1,0-0.2c0.1-0.2,0.1,0.1,0.2,0.3
	C-254.7,509.2-254.4,510.3-254.3,509.7"/>
<path class="st0" d="M-253.9,506.9l-0.1-0.1L-253.9,506.9z M-242.5,505.5l0.1,0.2V505c0,0.3-0.1,0.1-0.2,0.2L-242.5,505.5z
	 M-242.9,503.8c0-0.1-0.1-0.2-0.1-0.2L-242.9,503.8z M-244.1,503.3l0.1,0.1C-244,503.3-244.2,503.1-244.1,503.3 M-243.1,505.9v-0.2
	C-243.2,505.6-243.2,505.6-243.1,505.9C-243.2,505.7-243.2,505.9-243.1,505.9 M-244.4,503.4c0,0.3-0.1-0.1-0.1,0.2
	C-244.4,503.4-244.3,503.7-244.4,503.4 M-243.6,506.2c0.1,0.3,0.1,0,0.1,0.1C-243.5,506.3-243.7,506-243.6,506.2 M-244.6,504.3v-0.2
	V504.3c0.1-0.1,0.1-0.1,0.1-0.2c-0.1-0.1-0.2-0.2-0.2-0.5C-244.7,503.8-244.7,504.1-244.6,504.3 M-243.7,506.3
	c0.1,0.1,0.1,0.3,0.2,0.2C-243.6,506.4-243.7,506.2-243.7,506.3V506C-243.9,505.8-243.7,506.3-243.7,506.3 M-245,503.8l0.1,0.1
	c0-0.2,0.1-0.1,0.1-0.5C-244.9,503.5-245,503.6-245,503.8 M-244.1,505.9l0.1,0.4c0.1,0,0-0.1,0-0.2c0,0,0.1,0.1,0.1,0
	C-244,506.1-244,505.7-244.1,505.9 M-244.2,506.3v0.2l0.2,0.4C-244,506.7-244.1,506.6-244.2,506.3 M-246.3,504.1
	c0,0.2,0.1,0.3,0.1,0.2C-246.3,504.2-246.4,504-246.3,504.1 M-245.4,506.9c-0.1-0.1-0.1,0.1-0.1,0.3
	C-245.5,507.1-245.3,507.1-245.4,506.9"/>
<path class="st0" d="M-247.4,508.4c0,0,0.1-0.1,0.1-0.2C-247.4,508.2-247.4,508.3-247.4,508.4C-247.4,508.4-247.4,508.5-247.4,508.4
	 M-247.9,508.4v-0.2C-247.9,508.1-248,508.3-247.9,508.4 M-251.9,504.5c-0.1-0.1-0.1,0,0,0.2C-251.9,504.7-252,504.6-251.9,504.5"/>
<path class="st0" d="M-252,504.8L-252,504.8l-0.1-0.3L-252,504.8z M-252.4,504.5v-0.1V504.5z M-252.3,504.5v-0.1V504.5
	C-252.4,504.4-252.4,504.4-252.3,504.5 M-252.5,504.5l0.1,0.3c0-0.2-0.1-0.2-0.1-0.5V504.5z M-252.7,504.6c-0.1-0.1-0.1,0.4-0.2,0
	c-0.1,0.2,0.1,0.7,0,0.9c0.2,0.2,0-0.8,0.2-0.6C-252.8,504.7-252.7,504.7-252.7,504.6 M-252.5,505.3
	C-252.6,505.1-252.6,505.1-252.5,505.3C-252.6,505.2-252.5,505.5-252.5,505.3"/>
<path class="st0" d="M-253,504.8h0.1H-253L-253,504.8z M-253.1,504.8v-0.2C-253.1,504.6-253.2,504.6-253.1,504.8 M-253.4,504.5
	c-0.1-0.1,0,0.5,0.1,0.3C-253.4,504.8-253.5,504.6-253.4,504.5 M-253.9,505.5c0,0,0.1-0.1,0-0.2V505.5z M-253.7,506.8
	c0.1,0.3,0.1,0,0.1,0.1C-253.6,506.8-253.6,506.7-253.7,506.8 M-254.1,505C-254.1,504.9-254,504.9-254.1,505
	C-254,504.8-254.1,504.8-254.1,505 M-254.2,505.1c0-0.1,0-0.2-0.1-0.3c-0.1-0.1-0.1-0.1-0.1,0.1c0,0.1,0.1,0.5,0.1,0.7
	c0.1-0.1,0-0.8,0.2-0.3v-0.6C-254.2,504.7-254.1,505.2-254.2,505.1 M-253.8,506.2l-0.1-0.2L-253.8,506.2
	C-253.9,506.7-253.9,506.2-253.8,506.2"/>
<path class="st0" d="M-254.8,505.6L-254.8,505.6l0.1-0.1L-254.8,505.6z M-254.8,505.5v-0.3V505.5z M-254.9,505.2l0.1-0.1
	L-254.9,505.2z M-255.1,505.2v0.2c0-0.1,0.1,0.1,0.1-0.1C-255,505.3-255.1,505.3-255.1,505.2 M-255.3,509.8v-0.3V509.8
	C-255.3,509.8-255.3,509.7-255.3,509.8 M-255.5,509.3v0.4c0.1,0,0.1-0.2,0.2-0.3c0-0.1-0.1,0.1-0.1,0.1L-255.5,509.3z M-257.2,509.3
	V509c-0.1,0.1-0.1,0.1-0.2,0.1v0.3l0.1-0.1v0.2C-257.2,509.6-257.3,509.2-257.2,509.3 M-261.7,507.2v-0.3
	C-261.8,507-261.7,507.2-261.7,507.2 M-248.3,523.1C-248.2,522.9-248.3,523-248.3,523.1z M-248.5,522.5c0.1-0.2,0.1,0.1,0.2-0.2
	C-248.3,522.1-248.4,522.1-248.5,522.5"/>
<path class="st0" d="M-248.5,523.1l0.1-0.1v-0.1L-248.5,523.1z M-248.6,523.3l0.1-0.1v-0.1L-248.6,523.3z M-248.5,522.6
	c0,0.2-0.1,0.3-0.1,0.5c0.1,0,0.2-0.5,0.2-0.4c0.1-0.2-0.1,0,0-0.4C-248.4,522.2-248.4,522.5-248.5,522.6"/>
<path class="st0" d="M-250.7,523.5"/>
<path class="st0" d="M-257.2,515.9L-257.2,515.9c0.2-0.2-0.1,0.1,0.1-0.2L-257.2,515.9l-0.1,0.2C-257.2,516-257.2,516-257.2,515.9
	 M-254.3,518.4c0.1-0.1,0.1-0.1,0.1-0.2c-0.1,0.2-0.3,0.5-0.4,0.7L-254.3,518.4z"/>
<path class="st0" d="M-254.6,518.9v0.2V518.9z"/>
<path class="st0" d="M-254.1,519L-254.1,519L-254.1,519z M-256.8,521c0.2-0.3,0,0,0.1-0.2L-256.8,521
	C-256.9,521.1-256.8,521-256.8,521"/>
<path class="st0" d="M-254.5,519.2C-254.5,519.3-254.4,519-254.5,519.2"/>
<path class="st0" d="M-255.1,519.8l0.2-0.4l0.1-0.1c0,0,0-0.1,0,0C-255.1,519.7-255.1,519.7-255.1,519.8 M-252.9,519.5
	c0,0,0.2-0.2,0.2-0.3c-0.1,0.1,0-0.1-0.1,0.1C-252.9,519.4-252.9,519.5-252.9,519.5 M-249.8,521.3
	C-249.8,521.1-249.8,521.2-249.8,521.3z M-249.6,522l0.1-0.2C-249.6,521.9-249.6,522-249.6,522z M-251,523
	C-250.9,522.9-251,523-251,523s-0.1,0.1-0.1-0.1l-0.1,0.2c0,0,0-0.1,0.1-0.3C-250.9,522.5-251.1,523.2-251,523 M-250.6,523.3
	C-250.6,523.2-250.5,523.1-250.6,523.3 M-256.6,521.4l-0.1,0.2c0.3-0.4,0.1,0.3,0.5-0.3c-0.3,0.8,0.4-0.6,0.2,0.1l0.1-0.1
	c0.2,0.3,0.3,0.9,0.8,0.7l-0.1,0.1c0.3,0.5,1,0.5,1.4,1c0.1-0.1,0.3-0.4,0.4-0.5c0,0,0.1,0-0.1,0.2c-0.1,0.1-0.2,0.2-0.2,0.3
	c0.1,0,0,0.3,0.2,0.1l0.1-0.2c0.1-0.1,0.1,0,0.1,0c-0.1,0.1-0.2,0.4-0.3,0.4c0.5-0.5-0.1,0.3,0.2,0.1c0.3-0.4,0.7-0.8,0.9-1v0.1
	c0,0-0.2,0.3-0.3,0.3c0,0.2,0.1,0,0.1,0.1c0.1-0.1,0.2-0.3,0.2-0.3c0,0.1-0.2,0.3-0.1,0.4l-0.1,0.1c-0.1,0.2,0.1,0,0.1,0
	c-0.1,0.2-0.1,0.3-0.2,0.5c0.2-0.2,0.1-0.1,0.3-0.2c0.1-0.2,0.2-0.2,0.3-0.4h-0.1c0,0.2,0,0-0.2,0.4c0.1-0.2,0.4-0.5,0.3-0.5
	c0.2-0.1,0.1,0,0.4-0.2c-0.1,0,0.1-0.2,0.2-0.3c0.1,0-0.1,0.1-0.2,0.3c0,0-0.1,0.2,0.1,0c0,0.1-0.2,0.2-0.2,0.4
	c-0.2,0.2,0-0.4-0.4,0.4c0,0-0.2,0.2-0.3,0.2c0,0.1-0.1,0.4,0,0.3l0.3-0.4c0,0,0.2-0.3,0.2-0.2c-0.1,0.1-0.2,0.3-0.1,0.3l0.1-0.1
	c0.1,0,0.2-0.3,0.4-0.3c0-0.1,0.1-0.3,0.1-0.5c0.2-0.3,0.1,0,0.1,0l-0.1,0.1l0.1-0.1c0,0.2-0.3,0.4-0.3,0.6c-0.1,0.3,0.1-0.1,0.1,0
	v-0.1c0.1,0,0.1,0,0.2-0.2l0.1-0.1c0.1-0.1,0.3-0.3,0.1,0.1c0,0.1,0,0.2-0.1,0.3v0.1l-0.2,0.3c0.1,0,0.2-0.2,0.4-0.5
	c-0.1,0.2,0.1,0.1,0.2,0v-0.1c0,0,0.1-0.1,0.2-0.1v0.1c-0.1,0.3,0.2-0.1,0.1,0c0,0.1-0.2,0.5-0.1,0.3l0.1-0.1v0.1v-0.1
	c0.1-0.1,0.1-0.2,0.1-0.1v0.1h0.1l-0.1,0.1v0.1c-0.1,0.5,0.2-0.1,0.1,0.3c0.1-0.2,0.1-0.3,0.2-0.4l0.3-0.4c-0.1,0.3-0.1,0.6-0.3,1
	c0.1,0.1,0.1-0.3,0.2-0.4c0-0.1,0.1-0.2,0.1-0.4c0.1-0.2,0.2-0.3,0.2-0.2l-0.2,0.3c0.1-0.1,0.3-0.5,0.5-0.8c0,0.1-0.2,0.4-0.3,0.7
	l0.1-0.1l-0.1,0.2c0.1,0,0.2-0.3,0.2-0.1c-0.1,0.2,0,0.3-0.2,0.5c0,0.1,0.2-0.4,0.1,0c0.1-0.2,0-0.1,0.1-0.2
	c0.2-0.4,0.1-0.1,0.2-0.2c-0.1,0.2-0.1,0.2-0.1,0.4c0.1-0.1,0.1-0.2,0.1-0.1c0.1-0.2,0.1,0,0.1,0c0-0.1,0-0.2,0.1-0.4l0.1-0.1v-0.1
	c0.2-0.3-0.1,0.3,0,0.2c-0.1,0.1-0.1,0.1-0.2,0.3l0.3-0.4l-0.1,0.4l0.1-0.2c0,0.2-0.2,0.3-0.2,0.4c0,0.2,0.2-0.4,0.1,0l-0.1,0.2
	c0,0,0.1-0.1,0.1,0V524c0.2-0.5,0.2-0.3,0.4-0.8c0.1-0.1,0.2-0.4,0.2-0.2s-0.1,0.3-0.2,0.5c0,0.1,0.2-0.5,0.3-0.5
	c0-0.1,0.1-0.3,0.1-0.4c0,0,0-0.2-0.1,0.1v0.1c-0.1,0.1-0.1,0.2-0.1,0.2s0.1-0.2,0.1-0.3c0-0.1-0.2,0.5-0.3,0.5v-0.1
	c-0.1,0.1-0.1,0.1-0.3,0.4c0.1-0.3-0.1,0.1-0.1-0.1c0.3-0.7,0.1,0.1,0.3-0.3c0-0.2,0.2-0.3,0.2-0.5l-0.2,0.3c0-0.1,0.2-0.5,0-0.2
	c-0.1,0.1-0.2,0.4-0.2,0.2l0.1-0.2c0-0.1-0.1,0.1-0.1,0.2c0-0.1,0.1-0.3,0.1-0.4c-0.2,0.3,0-0.1-0.1-0.1c-0.2,0.4-0.4,0.5-0.5,0.9
	l-0.2,0.2c0.1-0.2,0.3-0.5,0.4-0.9h0.1c0.2-0.5-0.3,0.3-0.1-0.3v-0.2l-0.2,0.4c0-0.1,0.1-0.4,0.2-0.4l0.1-0.1c0.1-0.2,0-0.2,0,0
	v-0.2l0.1-0.2l-0.2,0.2c0,0.1-0.1,0.3-0.2,0.5c0-0.2-0.1-0.1,0-0.5c0.1-0.1,0.2-0.3,0.2-0.3c0-0.1-0.1,0.1-0.2,0.3
	c0.1-0.1,0.1-0.2,0.1-0.3v-0.1c-0.2,0.3-0.2,0.1-0.2,0.3c-0.1,0.2-0.3,0.5-0.2,0.3c0.2-0.2,0.1-0.4,0.3-0.4c0.2-0.5-0.2,0.3-0.2,0.1
	l0.1-0.2c0.1-0.2,0.1-0.1,0.2-0.2c0.1-0.2,0.1,0,0.3-0.3v-0.2c-0.3,0.2-0.2-0.2-0.6,0.3c0,0,0,0.1-0.1,0.2v-0.1l-0.1,0.2
	c0.1-0.2,0.1-0.3,0.2-0.5c-0.1,0.2-0.1,0.2-0.2,0.3c-0.1,0.2-0.2,0.3-0.2,0.2c0.1-0.2,0.1-0.2,0.2-0.3c0,0.1-0.1,0.2-0.1,0.2
	c0-0.1,0-0.2,0.1-0.3v0.1c0,0,0.1-0.2,0.2-0.3h-0.1c0.1-0.2,0.1-0.2,0.2-0.3c-0.1,0.1-0.4,0.5-0.5,0.5c0.1-0.1,0.3-0.5,0.2-0.4
	c0-0.1-0.3,0.4-0.4,0.4l0.1-0.1c-0.1-0.2-0.2-0.3-0.1-0.8l-0.3,0.4l0.1-0.3c0-0.3-0.2-0.2-0.5-0.1c-0.1,0,0.1-0.3,0.2-0.4
	c-0.1-0.1-0.4,0.3-0.5,0.3c0.1-0.1,0.3-0.4,0.3-0.5c-0.1,0.1-0.2,0.3-0.2,0.2l0.1-0.1c0.1-0.2,0,0,0-0.1c-0.1,0-0.3,0.2-0.7,0.6
	c0-0.1,0.3-0.4,0.3-0.5c0,0.2,0.1,0,0.2-0.2c-0.1,0.1-0.2,0.1,0-0.1c0,0-0.1,0-0.2,0.1c0.1-0.1,0,0.1-0.1,0.2c0-0.1-0.1-0.1,0.1-0.4
	c-0.2,0-0.4-0.2-0.6-0.4c-0.1,0.2,0,0.1-0.1,0.2c-0.2,0.2,0-0.1-0.1,0l0.1-0.2c0-0.1-0.3,0.2-0.5,0.4c0.1-0.2,0.1-0.2,0.2-0.3
	c0,0,0.5-0.9,0.4-0.8l-0.5,0.9c-0.1,0.1-0.1,0-0.1,0.1l0.2-0.4c0.1-0.2,0.1-0.2,0.2-0.1c0.2-0.4,0.1-0.3,0.3-0.6
	c-0.1,0-0.1,0.2-0.2,0.3v-0.1v0.1c-0.1,0.1-0.3,0.4-0.2,0.1l-0.3,0.3c0.2-0.3,0-0.1,0-0.2l0.1-0.2v-0.2c0.2-0.2,0,0.1,0.2-0.2v-0.1
	c-0.1,0.2-0.2,0.3-0.2,0.4c-0.2,0.3-0.4,0.5-0.5,0.5c0.1-0.3,0.2-0.2,0.4-0.5c0-0.2-0.6,0.7-0.6,0.6c0-0.2-0.2,0.1-0.2,0.1l0.2-0.4
	l0.2-0.2c-0.1,0,0,0,0.1-0.2c-0.2,0.3-0.2,0.2-0.4,0.3l-0.1,0.2c-0.1,0.1-0.2,0.2-0.2,0.1c-0.1,0-0.2,0.2-0.4,0.5
	c0.1-0.2,0.2-0.5,0.4-0.7c-0.1,0.1,0,0.1,0,0.2c0.2-0.2,0.5-0.6,0.5-0.4c0.4-0.5-0.1,0,0-0.2c0.1-0.1,0.2-0.1,0.3-0.4
	c-0.1,0-0.4,0.5-0.3,0.3c-0.1,0.1,0.1-0.3,0.1-0.4c-0.2,0.2-0.4,0.6-0.4,0.5l0.2-0.3c-0.1-0.1-0.3,0.4-0.4,0.4
	c0,0.1-0.2,0.3-0.2,0.3c-0.1,0.2-0.2,0.2-0.2,0c0,0-0.1,0.1-0.1,0.2c-0.1,0.2,0.2-0.2,0,0.2l0.2-0.3c0,0.1-0.2,0.4-0.3,0.5
	c0,0,0.1,0,0,0c-0.3,0.5,0.1-0.2-0.2,0.2c-0.2,0.3-0.2,0.2-0.3,0.2c0.1-0.2,0.1-0.3,0.2-0.5l0.1-0.1c0.1-0.2-0.1,0.1-0.2,0v-0.1v0.1
	v-0.1c0,0-0.1,0.1-0.1,0l-0.1,0.2l0.1-0.1c0,0,0,0.2-0.1,0.3c-0.1,0.1,0.1-0.3,0.2-0.5c0.2-0.3,0.1,0,0.1-0.1c0.2-0.3,0-0.1,0-0.3
	c0.2-0.3,0.1,0,0.3-0.3c0-0.1-0.2,0.2-0.2,0c0.1-0.2,0.2-0.1,0.3-0.4v-0.1c0.1,0,0.2-0.4,0.4-0.5c0.1-0.2-0.2,0.3-0.1,0
	c-0.1,0.2-0.2,0.5-0.3,0.6v-0.1c0.1-0.2,0.3-0.3,0.3-0.5l-0.1,0.1c-0.1,0.1-0.1,0.2-0.2,0.3c0-0.1-0.3,0.4-0.4,0.5v-0.2
	c-0.2,0.3-0.3,0.2-0.5,0.5c0.2-0.2,0.2-0.4,0.3-0.5c0.1,0,0.3-0.4,0.4-0.6c-0.1,0-0.3,0.4-0.3,0.5c0-0.2-0.2,0.2-0.1,0
	c0-0.1,0.2-0.3,0.3-0.5c0,0-0.2,0.4-0.3,0.3l0.1-0.1c0-0.1-0.1,0.1-0.2,0.2c0.2-0.5-0.1,0,0.1-0.4c-0.1,0.1-0.1,0.2-0.2,0.4
	s-0.1,0-0.1-0.1c0,0,0.1-0.1,0.1,0l0.1-0.3c0-0.3-0.4,0.6-0.4,0.3c0.1-0.1,0.1-0.2,0.3-0.4c-0.1,0.1-0.1-0.1-0.2,0.2V517
	c-0.1,0.1-0.2,0.2-0.3,0.4c0-0.1,0-0.3,0.1-0.4c-0.2,0.2-0.1-0.3-0.3-0.1c-0.1-0.1-0.2,0.4-0.2,0.4c0.2-0.4,0.1-0.3,0.1-0.5
	c0-0.2-0.3,0.2-0.3-0.1c0-0.1,0.1-0.2,0.1-0.2c0-0.2-0.1-0.1-0.2-0.2c0-0.4-0.3,0-0.4,0l0.1-0.2c0-0.1-0.1-0.2-0.3,0.1
	c0.1-0.4-0.1,0.1-0.1-0.3v-0.1c0-0.1,0-0.1-0.1-0.2c-0.2,0.2-0.4,0.7-0.5,0.5c0.2-0.5,0.1-0.1,0.3-0.5c-0.1,0.1-0.1,0.2-0.1,0
	c0.1-0.2,0-0.1,0.1-0.3c0-0.2-0.3,0.5-0.3,0.5v0.2c-0.1,0.3-0.1,0-0.2,0.1c0,0,0,0.1-0.1,0.4c0-0.1-0.2,0.4-0.4,0.6
	c0-0.3,0.2-0.4,0.3-0.8c0-0.1,0.1-0.4,0.2-0.6c0-0.1-0.2,0.2-0.3,0.3v-0.1c-0.1,0-0.3,0.5-0.3,0.2v0.1c0,0.1-0.1,0-0.1,0.2l0.1-0.5
	c-0.2,0.6-0.3,0.3-0.5,0.8c0-0.1,0.1-0.4,0.1-0.5c0,0.1,0,0.2,0.1,0v-0.3c-0.1,0.3-0.3,0.5-0.4,0.8c0-0.2,0-0.3,0.1-0.6
	c-0.2,0.2-0.1,0.9-0.3,0.9c0-0.3,0.1-0.4,0.1-0.5c0.1-0.8-0.2,0.5-0.2,0.5c0.1-0.4,0.1-0.3,0.1-0.6c-0.1,0.1-0.2,0.7-0.3,0.6v-0.2
	c-0.1,0-0.1-0.1-0.2-0.1v-0.1c-0.1-0.2-0.1,0.2-0.1-0.1l-0.1,0.2c0,0.2,0,0.4,0.1,0.1c-0.1,0.2,0,0.6-0.1,0.9v-0.1
	c0,0.6,0.1,0.8,0.2,1c0.2-0.4,0.1,0.2,0.2-0.1c0.1-0.5,0-0.1,0.1-0.2c-0.1,0.1-0.1,0.4-0.1,0.4c0-0.1,0.1-0.2,0.1-0.2
	c0,0.2-0.1,0.6,0.1,0.3c0,0.2-0.1,0.2-0.1,0.3c-0.1,0.3,0.1-0.2,0.1,0v0.1c0.1,0,0.1,0.1,0.1,0.2c0.1-0.5,0.1-0.2,0.2-0.3
	c-0.1,0.2,0,0.2,0,0.3l0.1-0.3c0.1-0.3,0,0.2,0.1,0.1v-0.1c0.1-0.1,0.1,0.2,0,0.5c0.6-0.8,0.2,0.7,0.6,0.6c0.1-0.1,0.1-0.2,0.2-0.4
	h0.1v-0.1l0.2,0.1v-0.1l-0.1,0.1c0.1-0.1,0.2-0.4,0.2-0.3l-0.1,0.1c0,0,0.1-0.1,0.1,0v0.3c0.2-0.4,0.1,0,0.1,0.1
	c-0.1,0.3-0.1,0.1-0.2,0.4l-0.1,0.2l0.1-0.2v0.1c0-0.1,0.1-0.2,0.1-0.1l-0.1,0.1l0.1-0.1c-0.1,0.2,0,0.1-0.1,0.4
	c0,0.2,0.3-0.3,0.2,0.1c0.1-0.1,0.2-0.4,0.2-0.4l-0.1,0.2l0.1-0.1c-0.2,0.5,0,0.2,0,0.4l-0.1,0.1l0.2-0.2l-0.1,0.2
	c0,0.2,0.3-0.5,0.3-0.3c0.1-0.3,0.2-0.4,0.3-0.7c-0.1,0.3-0.1,0.3,0,0.1c0.1-0.1,0,0,0,0.1l0.1-0.1c0,0-0.2,0.3-0.3,0.5
	c0.2-0.3,0.1,0,0.1,0v0.2c0.1-0.2,0.2-0.2,0.2-0.1l-0.2,0.3c-0.1,0.2,0.1-0.1,0.1-0.2c0.1-0.1,0,0.1-0.1,0.3
	C-256.5,521-256.9,521.9-256.6,521.4"/>
<path class="st0" d="M-254.8,519.4v-0.1V519.4z M-249,523.7l-0.1,0.2c0.1-0.1,0.2-0.4,0.3-0.6c-0.1,0.2-0.1,0.1-0.2,0.1
	C-249,523.4-249,523.7-249,523.7z M-248.4,522.1c0-0.1,0.1-0.2,0.1-0.3l-0.1,0.1V522.1z M-248.7,521.2L-248.7,521.2
	C-248.6,521.2-248.6,521-248.7,521.2 M-249.6,523.8l0.1-0.1C-249.5,523.6-249.5,523.6-249.6,523.8
	C-249.5,523.6-249.6,523.8-249.6,523.8 M-248.8,521.1c-0.1,0.3,0-0.1-0.1,0.1C-248.8,521.2-248.9,521.4-248.8,521.1 M-250,523.8
	c-0.1,0.3,0,0.1,0,0.1S-249.9,523.6-250,523.8 M-249.4,521.8C-249.3,521.6-249.3,521.6-249.4,521.8L-249.4,521.8
	c0.1-0.1,0.1,0,0.2-0.1c0-0.2,0-0.3,0.2-0.5C-249.2,521.3-249.3,521.6-249.4,521.8"/>
<path class="st0" d="M-250.1,523.8c0,0.1-0.1,0.3,0,0.3C-250.1,524-250,523.7-250.1,523.8l0.2-0.3
	C-249.9,523.3-250.1,523.9-250.1,523.8 M-249.2,521.2L-249.2,521.2c0.1-0.1,0.1,0,0.3-0.2C-249,521-249.2,521.1-249.2,521.2
	 M-250,523.3l-0.2,0.3c0,0.1,0.1-0.1,0.1-0.2c0,0.1,0,0.1,0,0C-250.1,523.5-249.9,523.2-250,523.3 M-250.3,523.6l-0.1,0.1l-0.1,0.4
	C-250.5,524-250.5,523.9-250.3,523.6 M-250.3,523.4l-0.3,0.4C-250.4,523.6-250.4,523.6-250.3,523.4 M-249.9,520.8
	c-0.1,0.1-0.1,0.3-0.1,0.2C-249.9,520.9-249.9,520.7-249.9,520.8 M-251.2,523.5c0-0.1-0.1,0-0.2,0.1
	C-251.4,523.5-251.3,523.7-251.2,523.5"/>
<path class="st0" d="M-253,523.5c0,0.1,0.1,0,0.2-0.1C-252.9,523.4-253,523.5-253,523.5C-253.1,523.6-253.1,523.7-253,523.5
	 M-253.2,523.3c0.1-0.1,0.1,0,0.1-0.2C-253.1,523.1-253.2,523.2-253.2,523.3 M-252.5,518.4c0-0.1,0,0-0.1,0.2
	C-252.6,518.5-252.5,518.4-252.5,518.4"/>
<path class="st0" d="M-252.7,518.5L-252.7,518.5l0.2-0.2L-252.7,518.5z M-252.6,518.1l0.1-0.1L-252.6,518.1 M-252.7,518.1l-0.2,0.3
	c0.1-0.1,0.1-0.2,0.3-0.5C-252.6,517.9-252.7,518.1-252.7,518.1z M-252.9,518.1c0-0.1-0.3,0.3-0.1,0c-0.2,0.1-0.3,0.6-0.5,0.7
	c0,0.2,0.5-0.6,0.4-0.4C-253,518.1-252.9,518.2-252.9,518.1 M-253.2,518.7c0.1-0.2,0.1-0.2,0-0.1
	C-253.2,518.6-253.4,518.9-253.2,518.7"/>
<path class="st0" d="M-253.2,518.1L-253.2,518.1L-253.2,518.1L-253.2,518.1z M-253.2,518l0.2-0.2
	C-253.1,517.9-253.1,517.8-253.2,518 M-253.2,517.6c0-0.1-0.3,0.4-0.2,0.3C-253.3,517.9-253.3,517.7-253.2,517.6 M-254,518.2
	c0,0,0.1,0,0.1-0.1L-254,518.2z M-254.7,519.3c-0.2,0.3,0.1,0,0,0.1C-254.6,519.4-254.6,519.3-254.7,519.3 M-253.8,517.7
	C-253.7,517.6-253.7,517.7-253.8,517.7C-253.7,517.6-253.7,517.6-253.8,517.7"/>
<path class="st0" d="M-253.9,517.8c0.1-0.1,0.1-0.2,0.1-0.2c0-0.2,0-0.2-0.1,0c-0.1,0.1-0.2,0.5-0.3,0.6c0.1-0.1,0.5-0.6,0.2-0.2
	l0.3-0.5C-253.7,517.4-253.9,517.8-253.9,517.8 M-254.4,518.8l0.1-0.2c-0.1,0.2-0.1,0.2-0.2,0.2
	C-254.7,519.2-254.4,518.8-254.4,518.8"/>
<path class="st0" d="M-254.5,517.9l0.1-0.1L-254.5,517.9z M-254.5,517.8l0.1-0.1l0.1-0.1L-254.5,517.8z M-254.4,517.5L-254.4,517.5
	L-254.4,517.5z M-254.4,517.4l-0.1,0.2C-254.5,517.6-254.5,517.8-254.4,517.4C-254.5,517.6-254.5,517.5-254.4,517.4 M-257,521.2
	l0.2-0.3L-257,521.2C-257,521.1-257,521.1-257,521.2 M-256.9,520.7l-0.2,0.3C-257.1,521.1-256.9,520.8-256.9,520.7
	c0.1,0-0.1,0.2-0.1,0.1L-256.9,520.7z M-257.6,520.1c0.1-0.2,0.1-0.2,0.2-0.3c-0.1,0.1-0.1,0.1-0.2,0.1c0,0.1-0.2,0.3-0.1,0.3
	L-257.6,520.1l-0.1,0.1C-257.7,520.3-257.6,519.9-257.6,520.1 M-259.3,517v-0.3V517 M-313.3,504C-313.4,504.3-313.3,504.1-313.3,504
	z"/>
<path class="st0" d="M-313.1,504.4c-0.2,0.2-0.1-0.1-0.3,0.2C-313.5,504.7-313.3,504.7-313.1,504.4"/>
<path class="st0" d="M-313.1,504.1l-0.1,0.2l0.2-0.2H-313.1z M-313,504h-0.1l0.2-0.1L-313,504z M-313,504.6c0-0.2,0.1-0.3,0.2-0.4
	c-0.1,0-0.3,0.5-0.3,0.3c-0.1,0.2,0.1,0.1-0.1,0.4C-313.3,505-313.1,504.7-313,504.6"/>
<path class="st0" d="M-308.2,504.3v0.1V504.3z M-310,504.6v-0.1V504.6z M-305.1,508.2v-0.1V508.2z M-312.5,505.3
	C-312.5,505.4-312.5,505.4-312.5,505.3C-312.4,505.3-312.4,505.3-312.5,505.3"/>
<path class="st0" d="M-312.4,505.3c0,0.1-0.3,0.6,0,0.1V505.3c0,0.2,0.1,0,0.2,0l0.1-0.1v-0.1C-312.2,505-312.3,505.2-312.4,505.3
	 M-309.2,504.3C-309.2,504.2-309.2,504.3-309.2,504.3"/>
<path class="st0" d="M-310.5,504C-310.5,503.9-310.5,504-310.5,504"/>
<path class="st0" d="M-301.4,511.1V511c-0.2,0.3,0.1,0-0.1,0.3L-301.4,511.1l0.1-0.2C-301.5,510.9-301.4,510.9-301.4,511.1
	 M-305.1,508.8c0,0.1-0.1,0.2-0.1,0.2c0.1-0.2,0.2-0.6,0.3-0.8C-304.9,508.2-305.1,508.8-305.1,508.8z"/>
<path class="st0" d="M-304.8,508.2v-0.1V508.2z"/>
<path class="st0" d="M-305.5,508.3h0.1H-305.5z M-302.8,505.8c-0.1,0.4,0,0,0,0.2V505.8C-302.7,505.8-302.8,505.8-302.8,505.8"/>
<path class="st0" d="M-301.4,511.1l-0.1,0.1L-301.4,511.1z M-305,508l-0.1-0.1v0.1C-305,507.9-305.1,508.2-305,508"/>
<path class="st0" d="M-304.5,507.3l-0.2,0.4v0.1c0,0,0,0.1,0,0C-304.5,507.4-304.4,507.3-304.5,507.3 M-306.9,507.9
	c0,0.1-0.1,0.2-0.1,0.3c0.1-0.1,0,0.1,0.1-0.1C-307,508-306.9,507.9-306.9,507.9 M-311.2,506.2
	C-311.3,506.4-311.2,506.3-311.2,506.2L-311.2,506.2z M-311.6,505.5l-0.1,0.2C-311.7,505.5-311.6,505.5-311.6,505.5z M-310.1,504.5
	c-0.1,0.1,0-0.1,0-0.2c0,0.1,0.1,0,0.1,0.2l0.1-0.2c0,0,0,0.1-0.1,0.3C-310.1,504.9-310,504.3-310.1,504.5 M-310.5,504.1
	C-310.6,504.3-310.6,504.3-310.5,504.1 M-303.2,505.5l0.1-0.2c-0.3,0.4-0.2-0.3-0.5,0.3c0.1-0.8-0.3,0.7-0.2-0.1v0.1
	c-0.4-0.3-0.7-0.8-1.2-0.6l0.1-0.2c-0.5-0.5-1.3-0.4-1.8-0.8c-0.1,0.1-0.2,0.5-0.3,0.6c0,0-0.1,0,0-0.2c0.1-0.1,0.1-0.3,0.2-0.3
	c-0.1,0-0.1-0.3-0.2-0.1v0.3c-0.1,0.1-0.1,0-0.1,0c0.1-0.1,0.1-0.4,0.2-0.4c-0.4,0.5,0-0.3-0.2-0.1c-0.2,0.5-0.5,0.8-0.8,1.2v-0.1
	c0.1,0,0.2-0.4,0.2-0.3c0-0.2-0.2,0-0.2-0.1c0,0.1-0.1,0.3-0.2,0.3c0-0.1,0.1-0.3,0.1-0.4l0.1-0.1c0.1-0.2-0.1,0-0.1,0.1
	c0.1-0.2,0-0.3,0.1-0.5c-0.2,0.3-0.1,0.1-0.3,0.2c0,0.2-0.1,0.3-0.2,0.4l0.1-0.1c0-0.2,0.1,0,0.2-0.4c0,0.2-0.3,0.6-0.2,0.5
	c-0.2,0.1-0.1,0-0.4,0.2c0.1,0-0.1,0.2-0.1,0.3c-0.1,0,0-0.1,0.1-0.4c0,0,0-0.2-0.1,0c0-0.1,0.1-0.3,0.2-0.4
	c0.1-0.2,0.1,0.4,0.4-0.4c0,0,0.2-0.3,0.3-0.2c0-0.1,0-0.4-0.1-0.2l-0.2,0.4c0,0-0.2,0.3-0.2,0.2c0.1-0.1,0.1-0.3,0.1-0.3v0.1
	c-0.1,0-0.2,0.3-0.3,0.4c0,0.1,0,0.3-0.1,0.5c-0.2,0.3-0.1,0-0.1,0.1l0.1-0.1l-0.1,0.1c0-0.2,0.2-0.4,0.2-0.6c0.1-0.3-0.1,0.1-0.1,0
	v0.1c-0.1,0-0.1,0-0.2,0.2c0-0.1,0,0-0.1,0.1c-0.1,0.1-0.2,0.3-0.1-0.1c0-0.1,0-0.2,0.1-0.3v-0.1l0.1-0.3c-0.1,0-0.2,0.2-0.4,0.5
	c0-0.2-0.1-0.1-0.2,0v0.1c-0.1,0-0.1,0.1-0.2,0.1v-0.1c0.1-0.3-0.2,0.1-0.1,0c0-0.1,0.2-0.5,0-0.3l-0.1,0.1v-0.1v0.1
	c-0.1,0.1-0.1,0.2-0.1,0.1v-0.1h-0.1V504c0.1-0.5-0.2,0.1-0.2-0.3c-0.1,0.2-0.1,0.3-0.2,0.4l-0.3,0.4c0.1-0.3,0.1-0.6,0.3-1
	c-0.1-0.1-0.1,0.3-0.2,0.4c0,0.1,0,0.2-0.1,0.4c-0.1,0.2-0.2,0.2-0.2,0.2l0.2-0.3c-0.1,0.1-0.4,0.5-0.6,0.8c0-0.2,0.2-0.4,0.3-0.7
	h-0.1l0.1-0.2c-0.1,0-0.2,0.3-0.2,0.1c0.2-0.2,0-0.3,0.2-0.5c0-0.1-0.2,0.3-0.1,0c-0.2,0.2,0,0.1-0.1,0.2c-0.2,0.4-0.2,0.1-0.2,0.2
	c0.1-0.2,0.1-0.2,0.2-0.3c-0.1,0.1-0.2,0.2-0.1,0c-0.1,0.2-0.1,0-0.1,0c0,0.1-0.1,0.2-0.2,0.4l-0.1,0.1v0.1
	c-0.2,0.3,0.1-0.3-0.1-0.2c0.1-0.1,0.1-0.1,0.2-0.3l-0.3,0.3l0.1-0.4c-0.1,0.2,0,0-0.2,0.2c0-0.2,0.2-0.2,0.3-0.4
	c0-0.2-0.3,0.3-0.1,0l0.1-0.2c0,0-0.1,0.1-0.1,0v0.1c-0.3,0.4-0.3,0.3-0.6,0.7c-0.1,0.1-0.3,0.4-0.3,0.2c0.1-0.2,0.2-0.3,0.3-0.4
	c0-0.1-0.3,0.5-0.4,0.4c0,0.1-0.1,0.3-0.2,0.4c0,0,0,0.2,0.1,0v-0.1c0.1-0.1,0.1-0.2,0.2-0.2c0,0-0.1,0.2-0.1,0.3
	c0,0.1,0.3-0.5,0.3-0.4v0.1c0.1-0.1,0.2-0.1,0.3-0.4c-0.1,0.3,0.1-0.1,0.1,0.1c-0.4,0.7-0.1-0.1-0.3,0.2c0,0.2-0.2,0.3-0.3,0.4
	l0.3-0.2c0,0.1-0.2,0.4,0,0.2c0.1-0.1,0.2-0.3,0.2-0.2l-0.1,0.2c0,0.1,0.1-0.1,0.2-0.2c0,0.1-0.2,0.3-0.2,0.4c0.2-0.2,0,0.1,0.1,0.1
	c0.2-0.4,0.4-0.4,0.5-0.8l0.2-0.2c-0.1,0.2-0.3,0.5-0.5,0.8l-0.1-0.1c-0.2,0.5,0.3-0.2,0.1,0.3c0,0,0.1,0,0,0.2l0.2-0.4
	c0,0.1-0.1,0.4-0.2,0.4h0.1l-0.1,0.1c-0.1,0.3,0,0.2,0,0l0.1-0.1l-0.2,0.5l0.1-0.1c0-0.1,0.1-0.3,0.2-0.5c0,0.2,0.1,0.2,0,0.6
	c0,0-0.1,0.1-0.1,0.2s0.2-0.1,0.2-0.3c0,0.1-0.1,0.2-0.1,0.3v0.1c0.2-0.3,0.2-0.1,0.3-0.3v-0.1c0.1-0.2,0.3-0.5,0.2-0.3
	c-0.2,0.2-0.1,0.4-0.3,0.4c-0.2,0.5,0.2-0.3,0.2-0.1v0.2c-0.1,0.2-0.1,0.1-0.2,0.2c-0.1,0.2-0.2,0-0.4,0.2l0.1,0.2
	c0.3-0.2,0.4,0.2,0.8-0.2c0,0,0-0.1,0.1-0.2v0.1l0.1-0.2c-0.1,0.3,0,0.3-0.1,0.5c0-0.2,0-0.2,0.1-0.4c0.1-0.2,0.2-0.4,0.2-0.2
	c-0.1,0.2-0.1,0.2-0.1,0.3c0-0.1,0.1-0.2,0.1-0.2c0,0.1,0,0.2-0.1,0.4v-0.1c0,0,0,0.2-0.1,0.3h0.1c0,0.2-0.1,0.2-0.2,0.3
	c0.1-0.1,0.4-0.5,0.5-0.6c0,0.1-0.2,0.5-0.2,0.4c0,0.1,0.3-0.4,0.4-0.4l-0.1,0.1c0.1,0.3,0.3,0.3,0.3,0.8l0.2-0.4v0.5
	c0.1,0.3,0.4,0.1,0.6,0.1c0.1,0-0.1,0.3-0.1,0.4c0.1,0.1,0.3-0.4,0.5-0.4c-0.1,0.1-0.2,0.5-0.2,0.5c0.1-0.1,0.1-0.3,0.1-0.2v0.1
	c0,0.2,0.1,0,0.1,0.1c0.1,0,0.3-0.2,0.6-0.6c0.1,0.1-0.2,0.4-0.2,0.5c0-0.2-0.1,0.1-0.2,0.2c0.1-0.1,0.2-0.2,0.1,0.1
	c0.1,0,0.1,0,0.2-0.2c-0.1,0.1,0-0.1,0.1-0.2c0,0.1,0.2,0.1,0,0.4c0.3,0,0.5,0.2,0.8,0.3c0.1-0.2,0-0.1,0.1-0.2c0.2-0.2,0,0.2,0.1,0
	l-0.1,0.2c0.1,0.1,0.3-0.3,0.4-0.4c-0.1,0.2,0,0.2-0.1,0.3c0.1,0-0.3,1-0.2,0.8l0.3-1c0-0.1,0.1,0,0.1-0.1c0,0.2-0.1,0.5-0.1,0.5
	c-0.1,0.3-0.1,0.2-0.1,0.2c-0.2,0.4,0,0.3-0.2,0.7c0.1,0,0.1-0.2,0.2-0.4v0.1v-0.2c0.1-0.1,0.2-0.4,0.2-0.2l0.2-0.4
	c-0.1,0.3,0,0.1,0,0.2l-0.1,0.2v0.2c-0.1,0.3,0-0.1-0.1,0.2v0.1c0.1-0.2,0.2-0.3,0.2-0.4c0.2-0.3,0.3-0.6,0.4-0.5
	c-0.1,0.3-0.2,0.3-0.2,0.6c0.1,0.2,0.4-0.8,0.5-0.7c0,0.2,0.1-0.1,0.2-0.1c-0.1,0.2,0,0.3-0.1,0.5l-0.1,0.2c0.1-0.1,0,0,0,0.2
	c0.1-0.3,0.2-0.2,0.3-0.4l0.1-0.3c0.1-0.1,0.2-0.2,0.2-0.1c0.1-0.1,0.2-0.3,0.3-0.5c0,0.2-0.1,0.5-0.3,0.8v-0.2
	c-0.2,0.2-0.4,0.7-0.5,0.5c-0.3,0.6,0.1,0,0.1,0.2v0.1c-0.1,0.1-0.2,0.1-0.3,0.4c0.1,0,0.3-0.6,0.2-0.3c0.1-0.2,0,0.3,0,0.4
	c0.1-0.2,0.3-0.7,0.3-0.6l-0.2,0.3c0.1,0,0.2-0.5,0.3-0.4c0-0.1,0.1-0.3,0.1-0.4c0.1-0.2,0.2-0.2,0.2-0.1c0,0,0-0.1,0.1-0.2
	c0-0.3-0.2,0.2-0.1-0.2l-0.2,0.4c0-0.2,0.1-0.4,0.2-0.6c0,0,0,0.1,0,0c0.2-0.6,0,0.2,0.2-0.2c0.1-0.4,0.2-0.3,0.2-0.2
	c0,0.2,0,0.3-0.1,0.5v0.2c0,0.2,0.1-0.1,0.2-0.1v0.1V508v0.1c0,0,0.1-0.1,0.1,0l0.1-0.2l-0.1,0.1c0,0,0-0.2,0.1-0.3
	c0.1-0.1,0,0.3-0.1,0.5c-0.1,0.4-0.1,0-0.2,0.1c-0.1,0.4,0.1,0.1,0.1,0.3c-0.2,0.4-0.1,0-0.2,0.3c0,0.1,0.1-0.2,0.2-0.1l-0.2,0.4
	v0.1c-0.1,0-0.1,0.5-0.3,0.6c0,0.2,0.2-0.3,0.1,0c0-0.2,0.1-0.5,0.2-0.6v0.1c0,0.2-0.2,0.4-0.2,0.6l0.1-0.1c0-0.1,0-0.2,0.1-0.3
	c0,0.1,0.2-0.4,0.3-0.6v0.2c0.2-0.3,0.3-0.3,0.5-0.6c-0.1,0.2-0.1,0.4-0.2,0.6c-0.1,0-0.2,0.4-0.3,0.6c0.1,0,0.2-0.4,0.2-0.5
	c0,0.2,0.1-0.2,0.1,0c0,0.1-0.1,0.4-0.2,0.5c0.1,0,0.2-0.4,0.2-0.3v0.1c0,0.1,0.1-0.1,0.2-0.2c-0.1,0.5,0.1,0,0,0.4
	c0.1-0.1,0.1-0.3,0.1-0.4c0.1-0.2,0.1,0,0.1,0.1c0,0-0.1,0.1-0.1,0l0.1,0.3c0,0.3,0.3-0.7,0.3-0.4c-0.1,0.1-0.1,0.2-0.2,0.5
	c0-0.1,0.1,0,0.1-0.2l0.1,0.2c0.1-0.1,0.1-0.2,0.2-0.4v0.4c0.2-0.2,0.2,0.2,0.4,0c0.1,0.1,0.1-0.4,0.2-0.4c-0.1,0.4,0,0.3-0.1,0.5
	c0.1,0.2,0.3-0.2,0.4,0.1c0,0.1-0.1,0.2-0.1,0.2c0.1,0.2,0.1,0.1,0.2,0.1c0,0.4,0.3,0,0.4,0l-0.1,0.2c0,0.1,0.1,0.2,0.3-0.1
	c0,0.4,0.1-0.1,0.1,0.3v0.1c0,0.1,0.1,0.1,0.1,0.2c0.2-0.2,0.4-0.7,0.5-0.5c-0.2,0.5-0.1,0.1-0.3,0.5c0.1-0.1,0.1-0.2,0.1,0
	c-0.1,0.2,0,0.1-0.1,0.3c0,0.2,0.3-0.5,0.3-0.5v-0.2c0.1-0.3,0.1,0,0.2-0.1c0,0-0.1-0.1,0.1-0.4c0.1,0.1,0.2-0.4,0.4-0.6
	c0,0.3-0.2,0.4-0.3,0.8c0,0.1-0.1,0.4-0.2,0.6c0,0.1,0.2-0.2,0.3-0.3v0.1c0.1,0,0.3-0.4,0.4-0.2v-0.1c0-0.1,0.1,0,0.2-0.2l-0.1,0.5
	c0.2-0.6,0.3-0.3,0.5-0.8c0,0.1-0.1,0.4-0.2,0.5c0-0.1,0-0.2-0.1,0v0.3c0.2-0.3,0.3-0.4,0.5-0.8c0,0.2,0,0.3-0.1,0.6
	c0.2-0.1,0.2-0.9,0.4-0.9c0,0.3-0.2,0.4-0.1,0.5c-0.2,0.8,0.2-0.5,0.3-0.5c-0.1,0.4-0.2,0.3-0.2,0.6c0.1-0.1,0.3-0.7,0.4-0.5
	l-0.1,0.2c0.1,0,0.1,0.1,0.2,0.1v0.1c0,0.2,0.1-0.2,0.1,0.1l0.1-0.2c0-0.2,0-0.4-0.1-0.2c0.1-0.2,0.1-0.5,0.2-0.9l-0.1,0.1
	c0.1-0.6-0.1-0.8-0.1-1c-0.2,0.4-0.1-0.2-0.3,0c-0.2,0.5-0.1,0.1-0.2,0.2c0.1,0,0.1-0.4,0.1-0.4c-0.1,0.1-0.1,0.2-0.1,0.2
	c0-0.2,0-0.6-0.1-0.3c0-0.2,0.1-0.1,0.1-0.2c0.1-0.3-0.1,0.2-0.1,0v-0.1c-0.1,0-0.1-0.1-0.2-0.2c-0.2,0.5-0.1,0.1-0.2,0.3
	c0.1-0.1,0-0.2,0-0.3l-0.4,0.5c-0.1,0.3,0-0.2-0.1-0.1v0.1c-0.1,0.1-0.1-0.2-0.1-0.5c-0.7,0.8-0.5-0.7-1-0.6
	c-0.1,0.1-0.1,0.2-0.1,0.4h-0.1v0.1l0.1-0.1v0.1l0.1-0.1c-0.1,0.1-0.2,0.5-0.2,0.3l0.1-0.1c0,0-0.1,0.1-0.1,0v-0.1l-0.1-0.2
	c-0.2,0.4-0.1,0-0.1-0.1c0.1-0.3,0.1-0.1,0.2-0.4v-0.2l-0.1,0.2v-0.1c0,0.1-0.1,0.2-0.1,0.1v-0.1l-0.1,0.1c0.1-0.2,0-0.1,0.1-0.4
	c-0.1-0.2-0.3,0.3-0.3-0.1c0,0.1-0.2,0.5-0.2,0.4l0.1-0.3l-0.1,0.1c0.1-0.5-0.1-0.2-0.1-0.4v-0.1c-0.1,0.1-0.2,0.3-0.2,0.2l0.1-0.3
	c0-0.2-0.2,0.5-0.2,0.3c-0.1,0.3-0.1,0.4-0.2,0.7c0.1-0.3,0-0.4,0-0.1c-0.1,0.1,0,0,0-0.1l-0.2,0.4c0,0,0.1-0.4,0.2-0.5
	c-0.1,0.3-0.1,0.1-0.2,0l0.1-0.1l-0.1-0.1c-0.1,0.2-0.2,0.2-0.2,0.1l0.2-0.4c0-0.2-0.1,0.1-0.1,0.2c-0.1,0.2-0.1-0.1,0-0.3
	C-303.2,505.9-303,504.9-303.2,505.5"/>
<path class="st0" d="M-304.7,507.9v-0.1C-304.7,507.8-304.7,507.9-304.7,507.9z M-312.3,503.5l0.1-0.2c-0.1,0.1-0.3,0.3-0.4,0.5
	c0.2-0.2,0.1-0.1,0.3-0.1C-312.3,503.7-312.3,503.5-312.3,503.5z M-313.1,505.1c0,0.1-0.1,0.2-0.1,0.2l0.1-0.1V505.1z M-312.8,506.1
	v-0.2C-312.8,506.1-312.9,506.3-312.8,506.1 M-311.7,503.6l-0.1,0.1c0,0.1,0,0.1,0.1,0C-311.8,503.8-311.7,503.6-311.7,503.6
	 M-312.6,506.2c0.2-0.3,0,0.2,0.1-0.1C-312.5,506.2-312.5,506-312.6,506.2 M-311.2,503.6c0.1-0.3,0-0.1,0-0.1
	C-311.3,503.5-311.4,503.8-311.2,503.6 M-311.9,505.6c-0.1,0.2-0.1,0.2-0.1,0.1C-311.9,505.7-311.9,505.6-311.9,505.6
	c-0.1,0.1-0.1,0-0.2,0.1c0,0.2,0,0.3-0.2,0.5C-312.1,506.1-311.9,505.8-311.9,505.6"/>
<path class="st0" d="M-311.1,503.6c0-0.1,0.1-0.3,0-0.3C-311.2,503.5-311.3,503.7-311.1,503.6l-0.2,0.3
	C-311.4,504.1-311.2,503.6-311.1,503.6 M-312,506.3L-312,506.3c-0.1,0.1-0.2-0.1-0.3,0.2C-312.2,506.5-312.1,506.4-312,506.3
	 M-311.2,504.1l0.2-0.3c0-0.1-0.1,0.1-0.1,0.2c0-0.1,0-0.1,0,0C-311.1,503.9-311.3,504.2-311.2,504.1 M-310.9,503.8l0.1-0.1l0.1-0.4
	C-310.8,503.4-310.7,503.5-310.9,503.8 M-310.9,504.1l0.3-0.4C-310.8,503.9-310.8,503.8-310.9,504.1 M-311,506.7
	c0.1-0.1,0.1-0.3,0.1-0.2C-311,506.7-311,506.9-311,506.7 M-309.9,504c0,0.1,0.1,0,0.2-0.1C-309.8,503.9-309.8,503.8-309.9,504"/>
<path class="st0" d="M-308,503.8c0-0.1-0.1,0-0.2,0.2C-308.1,503.9-308.1,503.8-308,503.8C-308,503.7-307.9,503.6-308,503.8
	 M-307.7,504c-0.1,0.1-0.1,0-0.1,0.2C-307.9,504.2-307.8,504.1-307.7,504 M-307.1,509.1c0,0.1,0,0,0.1-0.2
	C-307,509-307,509.1-307.1,509.1"/>
<path class="st0" d="M-307,509v0.2l0.1-0.3L-307,509z M-306.8,509.4v0.1V509.4C-306.9,509.4-306.9,509.4-306.8,509.4 M-306.7,509.4
	l0.1-0.3c-0.1,0.1,0,0.2-0.2,0.5L-306.7,509.4z M-306.5,509.4c0,0.1,0.3-0.4,0.1,0c0.2-0.2,0.2-0.7,0.4-0.8
	c-0.1-0.2-0.3,0.7-0.4,0.5C-306.4,509.4-306.5,509.3-306.5,509.4 M-306.3,508.7C-306.4,508.9-306.3,508.9-306.3,508.7
	C-306.3,508.8-306.2,508.5-306.3,508.7"/>
<path class="st0" d="M-306.3,509.4l0.1-0.1L-306.3,509.4z M-306.1,509.4l-0.1,0.2C-306.2,509.5-306.2,509.6-306.1,509.4 M-306,509.7
	c0,0.1,0.2-0.4,0.1-0.3S-306,509.7-306,509.7 M-305.3,509.1c0,0-0.1,0-0.1,0.1L-305.3,509.1z M-304.9,507.8c0.1-0.3-0.1,0-0.1-0.1
	L-304.9,507.8 M-305.4,509.6C-305.4,509.7-305.4,509.6-305.4,509.6C-305.5,509.7-305.4,509.7-305.4,509.6"/>
<path class="st0" d="M-305.2,509.5c0,0.1-0.1,0.2-0.1,0.3c0,0.2,0,0.2,0.1,0c0-0.1,0.1-0.5,0.2-0.7c-0.1,0.1-0.3,0.7-0.2,0.2
	l-0.3,0.5C-305.4,509.9-305.3,509.4-305.2,509.5 M-305,508.4v0.2c0.1-0.2,0.1-0.2,0.1-0.3C-304.8,507.9-305,508.4-305,508.4"/>
<path class="st0" d="M-304.8,509.4l0.1-0.1L-304.8,509.4z M-304.8,509.5v0.1l0.1-0.2L-304.8,509.5z M-304.8,509.7L-304.8,509.7
	L-304.8,509.7z M-304.6,509.8v-0.2c0,0,0-0.2-0.1,0.1C-304.6,509.6-304.5,509.7-304.6,509.8 M-302.6,505.7l-0.1,0.3L-302.6,505.7
	 M-302.6,506.2l0.2-0.3C-302.5,505.8-302.6,506-302.6,506.2c-0.1,0,0-0.2,0.1-0.1L-302.6,506.2z M-301.5,506.8
	c-0.1,0.2-0.1,0.2-0.1,0.3c0.1-0.1,0.1-0.1,0.2-0.1c0-0.1,0.2-0.4,0.1-0.3L-301.5,506.8l0.1-0.1C-301.4,506.5-301.5,507-301.5,506.8
	 M-299.1,510.1l-0.1,0.3C-299.1,510.3-299.2,510.1-299.1,510.1 M-314.2,521.3c-0.2-0.2-0.1-0.3-0.2-0.4c-0.1,0,0.2,0.5,0.1,0.5
	c0.1,0.2,0.1,0,0.2,0.3C-314,521.7-314.2,521.4-314.2,521.3"/>
<path class="st0" d="M-310.9,518.2l0.1,0.1L-310.9,518.2z M-312.1,519.4C-312.2,519.4-312.2,519.4-312.1,519.4"/>
<path class="st0" d="M-312.9,519.2C-312.9,519.1-312.9,519.2-312.9,519.2"/>
<path class="st0" d="M-303.1,522.3L-303.1,522.3c-0.1,0.3,0.1-0.1,0,0.2v-0.4V522.3 M-306.7,521.2v0.2c0-0.2,0-0.6,0.1-0.8
	L-306.7,521.2z"/>
<path class="st0" d="M-306.6,520.6L-306.6,520.6l-0.1-0.1L-306.6,520.6z"/>
<path class="st0" d="M-309.8,521.9v-0.1V521.9z M-307.1,520.8v0.1V520.8z M-305.5,517.7v0.2V517.7
	C-305.5,517.6-305.5,517.7-305.5,517.7"/>
<path class="st0" d="M-306.8,520.4h-0.1H-306.8C-306.9,520.3-306.8,520.7-306.8,520.4"/>
<path class="st0" d="M-306.6,519.6v0.6c0,0,0,0.1,0,0C-306.6,519.7-306.5,519.6-306.6,519.6 M-308.5,520.9c0,0.1-0.1,0.2,0,0.3
	c0-0.1,0,0.1,0.1-0.1L-308.5,520.9 M-312.2,521.4C-312.1,521.6-312.1,521.5-312.2,521.4z M-312.8,521.1l0.1,0.2
	C-312.8,521.1-312.8,521-312.8,521.1z M-312.3,519.4c0,0.2-0.1,0-0.1-0.1C-312.3,519.4-312.3,519.3-312.3,519.4v-0.2
	C-312.3,519.2-312.2,519.3-312.3,519.4C-312.1,519.8-312.4,519.1-312.3,519.4 M-312.9,519.4C-312.8,519.5-312.8,519.5-312.9,519.4
	 M-306,517.5v-0.2c-0.1,0.5-0.2-0.2-0.4,0.5c-0.1-0.8-0.1,0.7-0.2,0v0.1c-0.4-0.1-0.9-0.6-1.3-0.2v-0.2c-0.7-0.3-1.3,0.1-2,0
	c-0.1,0.2,0,0.5,0,0.7c0,0-0.1,0-0.1-0.2v-0.4c-0.1,0-0.2-0.2-0.2,0.1l0.1,0.3c0,0.1-0.1,0-0.1,0c0-0.1-0.1-0.4,0-0.5
	c-0.1,0.6-0.1-0.3-0.2,0c0,0.5-0.1,1-0.2,1.4l-0.1-0.1c0.1,0,0-0.4,0-0.4c-0.1-0.1-0.1,0.1-0.2,0v0.4c0-0.1-0.1-0.3-0.1-0.4v-0.2
	c0-0.2-0.1,0.1-0.1,0.1c0-0.2-0.1-0.3-0.1-0.5c0,0.3-0.1,0.1-0.1,0.3c0.1,0.2,0,0.3,0,0.5l0.1-0.1c-0.1-0.1,0,0,0-0.4
	c0.1,0.2,0,0.6,0.1,0.6c-0.1,0.2-0.1,0-0.2,0.4c0.1-0.1,0,0.3,0.1,0.4c-0.1,0,0-0.1-0.1-0.4c0,0-0.1-0.2-0.1,0.1
	c-0.1-0.1,0-0.3-0.1-0.4c0-0.3,0.2,0.3,0.1-0.5c0,0,0-0.3,0.1-0.3c-0.1-0.1-0.2-0.4-0.2-0.2l0.1,0.5c0,0,0,0.3-0.1,0.3
	c0-0.1-0.1-0.3-0.1-0.3v0.1c-0.1,0,0,0.4-0.1,0.5c0.1,0.1,0.1,0.3,0.2,0.5c0,0.3,0,0.1-0.1,0.1v-0.1v0.2c-0.1-0.1,0-0.5-0.1-0.6
	c-0.1-0.3,0,0.2-0.1,0v0.1c0,0.1-0.1,0-0.1,0.3v0.1c0,0.1,0,0.4-0.1,0v-0.7h-0.1v-0.3c-0.1,0.1,0,0.3,0,0.6c-0.1-0.2-0.2,0-0.2,0.1
	l0.1,0.1c-0.1,0,0,0.2-0.1,0.2v-0.1c-0.1-0.3,0,0.2-0.1,0.1c0-0.1-0.2-0.5-0.1-0.2v0.2h-0.1v-0.2c-0.2-0.4-0.1,0.3-0.3-0.1
	c0,0.2,0.1,0.3,0.1,0.4v0.5c-0.1-0.3-0.3-0.5-0.4-1c-0.1,0,0.1,0.3,0.1,0.4l0.2,0.4c0.1,0.2,0,0.3,0,0.3l-0.1-0.3
	c0,0.1,0.1,0.6,0.1,1c-0.1-0.1-0.1-0.4-0.2-0.7v0.1l-0.4-0.5c0,0.1,0,0.3-0.1,0.2c0-0.2-0.1-0.2-0.2-0.5c-0.1-0.1,0.1,0.4,0,0.1
	c0.1,0.3,0.1,0.1,0.1,0.2c0.1,0.4,0,0.2,0,0.3c-0.1-0.2,0-0.2-0.1-0.4v0.1c0.1,0.3,0,0.1-0.1,0.1l0.2,0.4c0,0.1,0,0.2-0.1,0.1
	l0.1,0.1c0.1,0.4-0.1-0.2-0.2-0.1V520v0.5l-0.2-0.3c0.1,0.2-0.1,0,0,0.2c-0.1-0.1,0-0.3-0.1-0.5c-0.1-0.1,0.1,0.4-0.1,0.1l-0.1-0.2
	c0,0,0,0.1-0.1,0c0,0.1,0,0,0,0c0.1,0.5,0,0.4,0.2,0.9c0,0.1,0.1,0.5,0,0.3s-0.1-0.4-0.1-0.5c-0.1,0,0.2,0.6,0.1,0.5
	c0.1,0.1,0.1,0.3,0.1,0.4c0,0,0.1,0.1,0.1-0.1c0-0.1,0-0.2-0.1-0.3c0,0,0.1,0.2,0.1,0.3c0.1,0.1-0.2-0.5-0.1-0.5v0.1
	c0-0.1,0-0.2-0.1-0.5c0.1,0.3,0-0.2,0.1,0c0.2,0.7-0.1,0,0,0.4c0.1,0.1,0.1,0.4,0.1,0.5V521c0,0.1,0.2,0.5,0.1,0.2
	c0-0.1-0.1-0.4,0-0.3l0.1,0.2c0.1,0.1,0-0.2,0-0.2c0.1,0.1,0.1,0.3,0.1,0.4c0-0.3,0.1,0,0.1,0c-0.1-0.4,0-0.6-0.2-1V520
	c0.1,0.2,0.1,0.6,0.2,0.9h-0.1c0.2,0.5,0-0.4,0.2,0.2c0,0,0-0.1,0.1,0.2l-0.1-0.5c0.1,0.1,0.1,0.3,0.2,0.4h0.1v0.2
	c0.1,0.3,0.1,0.2,0,0v-0.1v0.2v-0.2c0-0.1-0.1-0.3-0.2-0.5c0.1,0.2,0.2,0.1,0.3,0.4c0,0.1,0,0.3,0.1,0.3v-0.4c0,0.1,0.1,0.2,0.1,0.3
	v0.1c-0.1-0.4,0-0.2,0-0.4h-0.1c0-0.3-0.1-0.5,0-0.3c0,0.2,0.1,0.4,0.1,0.5c0.2,0.5,0-0.3,0-0.2l0.1,0.2c0.1,0.3,0,0.1,0,0.2
	c0,0.2-0.1,0.1-0.1,0.4l0.1,0.1c0.1-0.4,0.3,0,0.3-0.6v-0.2v0.1v-0.2c0.1,0.3,0.1,0.3,0.2,0.5c0.4-0.1,0.4-0.1,0.4-0.3
	c0-0.3-0.1-0.4,0-0.3c0,0.2,0,0.2,0.1,0.3V521c0,0.1,0.1,0.1,0.1,0.3c0,0.1,0,0,0,0c0,0.1,0.1,0.2,0.1,0.3v-0.1c0,0.2,0,0.3,0.1,0.4
	c0-0.1,0-0.6,0.1-0.7c0,0.1,0.1,0.5,0.1,0.4c0.1,0.1,0-0.5,0.1-0.5v0.1c0.2,0.1,0.3,0.1,0.6,0.5v-0.5l0.1,0.3c0.2,0.3,0.3,0,0.5-0.2
	c0,0,0.1,0.3,0.1,0.4c0.1,0,0.1-0.5,0.2-0.6v0.3c0,0.2,0.1,0,0.1,0.1c0.1,0,0.2-0.3,0.2-0.9c0.1,0,0,0.5,0,0.6c-0.1-0.2,0,0.1,0,0.2
	c0-0.1,0.1-0.2,0.1,0.1c0,0,0.1,0,0.1-0.2v-0.2c0,0.1,0.1,0,0.1,0.4c0.2-0.1,0.5,0,0.7,0v-0.2c0-0.3,0,0.1,0.1-0.1v0.2
	c0.1,0,0.1-0.4,0.2-0.6c0,0.3,0.1,0.2,0,0.4c0,0,0.1,1.1,0.1,0.9l-0.1-1V521c0,0.2,0.1,0.4,0.1,0.4c0,0.3,0,0.2-0.1,0.2
	c0,0.4,0.1,0.3,0.1,0.7c0.1-0.1,0-0.2,0-0.4v0.1v-0.1c0-0.1,0.1-0.5,0.1-0.2l0.1-0.4c0,0.3,0,0.1,0.1,0.1v0.2c0,0,0.1,0,0.1,0.2
	v-0.2c0-0.4,0.1-0.7,0.2-0.6c0,0.3-0.1,0.3,0,0.6c0.1,0.1,0.1-0.9,0.2-0.8c0.1,0.1,0.1-0.2,0.2-0.2c0,0.2,0.1,0.2,0.1,0.5v0.4
	c0-0.3,0.1-0.3,0.2-0.4v-0.3c0-0.1,0.1-0.3,0.2-0.2c0.1-0.1,0.1-0.3,0.1-0.6v0.8c0-0.1,0-0.1-0.1-0.1c-0.1,0.2-0.2,0.8-0.3,0.7
	c0,0.6,0.1-0.1,0.1,0.2v0.1c0,0.1-0.1,0.2-0.1,0.5c0.1-0.1,0-0.6,0.1-0.4c0-0.2,0.1,0.3,0.1,0.4c0-0.2,0-0.8,0.1-0.7v0.4
	c0.1,0,0.1-0.5,0.1-0.5V521c0-0.2,0.1-0.2,0.1-0.1v-0.2c0-0.3-0.1,0.2-0.1-0.1v-0.2c0,0,0,0.1,0,0c0-0.6,0.1,0.2,0.1-0.3
	c0-0.4,0.1-0.3,0.1-0.3c0,0.2,0.1,0.2,0.1,0.5l-0.1,0.1c0,0.2,0.1-0.1,0.1-0.1v0.1v-0.1v0.1c0,0,0.1-0.2,0.1-0.1v-0.2v0.1
	c0,0-0.1-0.2,0-0.3c0.1-0.2,0.1,0.3,0.1,0.5c0,0.4-0.1,0-0.1,0.1c0,0.4,0.1,0,0.1,0.3c0,0.4-0.1,0-0.1,0.4c0.1,0.1,0.1-0.2,0.1-0.1
	c0,0.2-0.1,0.2-0.1,0.4v0.1c-0.1,0,0,0.5-0.1,0.6c0,0.2,0.1-0.3,0.1-0.1v-0.7v0.1c0,0.2-0.1,0.4,0,0.6l0.1-0.1v-0.4
	c0,0.1,0.1-0.5,0.1-0.6c0,0,0.1,0,0.1,0.2c0.1-0.4,0.2-0.3,0.3-0.7c-0.1,0.2,0,0.4,0,0.6c-0.1,0-0.1,0.4-0.1,0.7
	c0,0,0.1-0.4,0.1-0.6c0.1,0.2,0-0.3,0.1,0v0.5c0.1,0,0-0.5,0.1-0.4v0.1c0,0.1,0.1-0.1,0.1-0.3c0,0.5,0.1-0.1,0.1,0.4
	c0.1-0.1,0-0.3,0-0.4c0-0.2,0.1,0,0.1,0s0,0.1-0.1,0.1v0.3c0.1,0.2,0.1-0.8,0.2-0.5c-0.1,0.2,0,0.3-0.1,0.5c0-0.1,0.1,0,0.1-0.2
	l0.1,0.2c0-0.1,0.1-0.2,0.1-0.4c0.1,0,0.1,0.3,0.1,0.4c0.1-0.2,0.2,0.2,0.3-0.1c0.1,0.1,0-0.4,0.1-0.4c0,0.4,0,0.3,0.1,0.5
	c0.1,0.2,0.2-0.3,0.3,0v0.2c0.1,0.1,0.2,0.1,0.2,0.1v0.1c0.1,0.3,0.2-0.1,0.4-0.2v0.3c0.1,0.1,0.2,0.2,0.2-0.2
	c0.1,0.4,0.1-0.1,0.1,0.3v0.1c0,0.1,0.1,0.1,0.1,0.1c0.1-0.3,0.2-0.8,0.3-0.6c0,0.6-0.1,0.1-0.1,0.6c0-0.1,0.1-0.2,0.1-0.1v0.3
	c0,0.1,0.1-0.6,0.1-0.5v-0.2c0-0.3,0.1,0,0.2-0.2c0,0-0.1-0.1,0-0.4c0.1,0.1,0.1-0.4,0.2-0.6c0.1,0.3-0.1,0.5-0.1,0.9v0.6
	c0.1,0.1,0.1-0.3,0.2-0.3v0.1c0.1,0,0.2-0.5,0.3-0.3v-0.1c0-0.1,0.1,0,0.1-0.3v0.5c0-0.6,0.2-0.4,0.3-0.9v0.5
	c-0.8,0.1-0.8,0-0.8,0.2c0,0,0.1,0.1,0.1,0.3c0.1-0.4,0.2-0.5,0.2-0.9c0,0.2,0.1,0.3,0,0.6c0.1-0.2-0.1-0.9,0.1-0.9
	c0.1,0.3-0.1,0.4,0,0.5c0.1,0.8,0.1-0.6,0.1-0.5c0,0.4-0.1,0.3,0,0.6c0.1-0.1,0.1-0.7,0.2-0.6v0.2c0,0,0.1,0.1,0.2,0v0.1
	c0.1,0.2,0-0.2,0.1,0.1v-0.2c0-0.2-0.1-0.4-0.1-0.1c0-0.2-0.1-0.5,0-0.9v0.1c-0.1-0.6-0.3-0.7-0.4-1c-0.1,0.4-0.1-0.2-0.3,0.1
	c0,0.5,0,0.1-0.1,0.2v-0.5c0,0.1,0,0.2-0.1,0.2c0-0.2-0.1-0.6-0.2-0.2v-0.3c0-0.3,0,0.2-0.1,0v-0.1c-0.1,0-0.1-0.1-0.2-0.2
	c0,0.5-0.1,0.2-0.1,0.4c0-0.2,0-0.2-0.1-0.3l0.1,0.6c-0.1,0.3-0.1-0.2-0.1-0.1v0.1c0,0.1-0.1-0.2-0.2-0.4c-0.4,0.9-0.6-0.6-1-0.3
	v0.5c0,0.1-0.1,0-0.1,0v0.1l0.1-0.1v0.1c0,0,0-0.1,0.1-0.1c0,0.1-0.1,0.5-0.1,0.4v-0.1c0,0,0,0.1-0.1,0v-0.1l-0.1-0.2
	c-0.1,0.4-0.1,0-0.1,0c0-0.3,0.1-0.1,0.1-0.4V518v0.3l-0.1-0.1v-0.1v0.1v-0.4c-0.1-0.2-0.2,0.4-0.3,0c0,0.1-0.1,0.5-0.1,0.4v-0.3
	l-0.1,0.2c0-0.5-0.1-0.2-0.2-0.3v-0.1c0,0.2-0.1,0.3-0.1,0.2v-0.3c-0.1-0.2-0.1,0.6-0.1,0.4v0.7c0-0.3-0.1-0.3-0.1-0.1
	c-0.1,0.1,0,0,0-0.1v-0.4c-0.1,0.3-0.1,0.1-0.1,0V518l-0.1-0.1c-0.1,0.2-0.1,0.2-0.2,0.1l0.1-0.4v0.2c-0.1,0.2-0.1-0.1-0.1-0.3
	C-305.8,517.9-305.9,516.9-306,517.5"/>
<path class="st0" d="M-306.6,520.2v-0.1V520.2z M-313.9,521.7c0,0.1,0.1,0.2,0.1,0.2L-313.9,521.7z M-313.1,522.3l-0.1-0.1
	C-313.1,522.3-313,522.5-313.1,522.3 M-314.1,519.7v0.2C-314,520-314,520-314.1,519.7C-314,519.9-314,519.7-314.1,519.7 M-313,522.2
	c-0.1-0.3,0.1,0.1,0-0.2C-312.9,522.2-313,521.9-313,522.2 M-313.7,519.4c-0.1-0.3-0.1,0-0.1-0.1
	C-313.8,519.3-313.7,519.6-313.7,519.4 M-312.9,521.3c0,0.1-0.1,0.1-0.1,0.2c0.1,0.1,0.1,0.2,0.2,0.5
	C-312.8,521.8-312.8,521.5-312.9,521.3"/>
<path class="st0" d="M-313.7,519.3c-0.1-0.1-0.1-0.3-0.2-0.2C-313.8,519.2-313.7,519.4-313.7,519.3v0.3
	C-313.5,519.8-313.7,519.3-313.7,519.3 M-312.6,521.9v-0.1c0,0.2-0.1,0.1,0,0.4V521.9 M-313.4,519.7l-0.1-0.4c-0.1,0,0,0.1,0,0.2
	c0,0-0.1-0.1,0,0C-313.4,519.5-313.4,519.9-313.4,519.7 M-313.3,519.3v-0.2l-0.2-0.3C-313.5,518.9-313.4,519-313.3,519.3
	 M-313.2,519.5V519V519.5 M-311.8,521.7c0-0.2-0.1-0.3,0-0.2C-311.8,521.6-311.7,521.8-311.8,521.7 M-312.5,518.8
	c0,0.1,0.1-0.1,0.1-0.2C-312.4,518.7-312.5,518.6-312.5,518.8"/>
<path class="st0" d="M-310.9,517.7c0,0-0.1,0-0.1,0.2C-311,517.8-310.9,517.7-310.9,517.7C-310.9,517.6-311,517.5-310.9,517.7
	 M-308.2,522.2V522V522.2"/>
<path class="st0" d="M-308.1,522v0.2V522L-308.1,522z M-307.9,522.3v0.1V522.3C-307.9,522.4-307.9,522.4-307.9,522.3 M-307.9,522.3
	V522v0.5V522.3z M-307.7,522.2c0,0.1,0.1-0.4,0.1,0c0.1-0.2,0-0.7,0.1-0.8c-0.1-0.2-0.1,0.8-0.2,0.6
	C-307.6,522.2-307.7,522.1-307.7,522.2 M-307.7,521.5C-307.7,521.7-307.7,521.7-307.7,521.5C-307.7,521.6-307.7,521.3-307.7,521.5"
	/>
<path class="st0" d="M-307.5,522.2V522V522.2z M-307.2,522.4c0,0.1,0.1-0.5,0-0.3V522.4 M-306.8,521.5v0.2V521.5z M-306.8,520.2
	C-306.8,519.9-306.8,520.2-306.8,520.2 M-306.7,522C-306.8,522.2-306.8,522.1-306.7,522C-306.8,522.2-306.8,522.2-306.7,522
	 M-306.6,521.9v0.3c0,0.2,0.1,0.1,0.1-0.1v-0.7c-0.1,0.1-0.1,0.7-0.1,0.3l-0.1,0.6C-306.7,522.4-306.7,521.9-306.6,521.9
	 M-306.8,520.8v0.2C-306.7,520.8-306.7,520.8-306.8,520.8C-306.7,520.3-306.7,520.8-306.8,520.8"/>
<path class="st0" d="M-306.3,521.7l0.1-0.1v-0.1L-306.3,521.7z M-306.2,521.8v0.1V521.8L-306.2,521.8z M-306.2,522L-306.2,522
	L-306.2,522z M-306,522v-0.2C-306,521.9-306.1,521.7-306,522C-306.1,521.9-306,521.9-306,522 M-305.4,517.5v0.3V517.5
	C-305.3,517.5-305.4,517.5-305.4,517.5 M-305.3,518l0.1-0.3C-305.3,517.6-305.3,517.9-305.3,518C-305.4,518-305.3,517.8-305.3,518
	L-305.3,518z M-304.2,518.3v0.3c0.1-0.1,0.1-0.1,0.2-0.1c0-0.1,0.1-0.4,0-0.3L-304.2,518.3l0.1-0.1
	C-304.1,518-304.1,518.4-304.2,518.3 M-301.3,520.7v0.3C-301.3,520.9-301.4,520.8-301.3,520.7"/>
<path class="st1" d="M-311.6,561.6c-0.6,0.6-1.4-0.1-2-0.3c-2.1,1.3-3.6,3.2-5,5.2c-1.6-0.5-1.5-2.2-3.2-2.6c-2.4-0.6-4,1.6-5.8,1.5
	c-1-0.6,0.6-1.6,0-1.8c1.9-0.9,4.6-2.3,7.3-1.5C-318.1,560.9-312.9,558-311.6,561.6 M-311.3,546.7c0.8,0.7,1.5,1.4,1.7,2.6
	c3.5-1,6.4,0.9,7.3,3.5c-1.3,0.8-2.1-0.9-3.2-1.2c-2.6-0.3-3.7,0.9-5.8,1.2c-0.3-2.7-2.7-4.3-4.7-4.4
	C-316.2,545.5-313,547.6-311.3,546.7"/>
<path class="st2" d="M-181.8,632.8h-4.6l1.3-3.9c0.5-1.6,0.9-3.2,1-3.3h0.1c0,0.1,0.4,1.7,0.9,3.3L-181.8,632.8z M-187.7,636.5h7.2
	l1.1,3.2h5l-7.4-18.9h-4.4l-7.2,18.9h4.6L-187.7,636.5L-187.7,636.5z M-194.5,639.6v-3.7h-6.9v-4.2h6v-3.5h-6v-3.7h6.7v-3.7H-206
	v18.9h11.5V639.6z M-213.8,626.6c0,1.5-0.9,2.4-2.8,2.4h-2v-4.8h1.8C-214.7,624.2-213.8,625-213.8,626.6 M-207.7,639.6l-3.4-5.3
	c-1-1.6-1.7-2.4-2.3-2.8v-0.1c2.1-0.5,4.1-2,4.1-5.1c0-3.6-2.6-5.6-7.2-5.6h-6.7v18.9h4.6v-7.5h0.2c0.8,0,1.1,0.1,2.3,2.1l3.3,5.4
	H-207.7L-207.7,639.6z M-230.4,630.1c0,3.9-1.9,6-5.8,6h-1.8v-11.6h1.6C-232.3,624.4-230.4,626.2-230.4,630.1 M-225.6,630
	c0-5.4-3.4-9.2-10.8-9.2h-6.2v18.9h6C-229.1,639.6-225.6,635.4-225.6,630 M-246.1,639.6v-18.8h-4.1v9c0,1.5,0.1,2.8,0.1,3.1h-0.1
	c-0.1-0.2-0.8-1.6-2.1-3.3l-6.1-8.8h-4.6v18.9h4.1v-9.9c0-1.3-0.1-2.6-0.1-2.6c0.1,0.1,0.7,1.3,1.9,2.9l6.7,9.5H-246.1z
	 M-272.2,632.8h-4.7l1.3-3.9c0.5-1.6,0.9-3.2,1-3.3h0.1c0,0.1,0.4,1.7,0.9,3.3L-272.2,632.8z M-278.1,636.5h7.2l1.1,3.2h5l-7.4-18.9
	h-4.4l-7.2,18.9h4.6C-279.2,639.7-278.1,636.5-278.1,636.5z"/>
<path class="st0" d="M-190.2,658.5c0-3.4-2.2-4.7-4.7-5.8c-2-0.9-3.5-1.3-3.5-2.6c0-1.1,0.8-1.7,2.2-1.7c1.5,0,3,0.7,3.6,1.1
	l1.8-3.2c-0.9-0.6-2.5-1.6-5.7-1.6c-3.5,0-6.3,2.1-6.3,5.4c0,3.1,1.6,4.6,3.9,5.7c2.2,1.1,4.2,1.4,4.2,2.9c0,1.1-0.9,1.9-2.7,1.9
	c-2.1,0-3.5-1.1-4-1.4l-1.9,3.2c0.8,0.7,2.9,1.8,6,1.8C-192.8,664.3-190.2,662.1-190.2,658.5 M-209.5,650.9c0,1.5-0.9,2.4-2.8,2.4
	h-2v-4.8h1.8C-210.4,648.5-209.5,649.3-209.5,650.9 M-203.4,663.9l-3.4-5.3c-1-1.6-1.7-2.4-2.3-2.8c2.1-0.5,4.1-2,4.1-5.1
	c0-3.6-2.6-5.6-7.2-5.6h-6.7V664h4.6v-7.5h0.2c0.8,0,1.1,0.1,2.3,2.1l3.3,5.4L-203.4,663.9L-203.4,663.9z M-221.8,663.9v-3.7h-6.9
	V656h6v-3.5h-6v-3.7h6.7v-3.7h-11.3V664h11.5L-221.8,663.9z M-240.6,654.4c0,3.9-1.9,6-5.8,6h-1.8v-11.6h1.6
	C-242.4,648.7-240.6,650.5-240.6,654.4 M-235.7,654.2c0-5.4-3.4-9.2-10.8-9.2h-6.2v18.9h6C-239.2,663.9-235.7,659.7-235.7,654.2
	 M-256.2,656.1v-11h-4.2v11.3c0,2.6-1,4.2-3.6,4.2c-2.8,0-3.8-1.4-3.8-4.4v-11.1h-4.6v11.5c0,5.1,2.8,7.7,8.3,7.7
	C-258.9,664.3-256.2,661.4-256.2,656.1 M-279.7,650.9c0,1.5-0.9,2.4-2.8,2.4h-2v-4.8h1.8C-280.6,648.5-279.7,649.3-279.7,650.9
	 M-273.6,663.9l-3.4-5.3c-1-1.6-1.7-2.4-2.3-2.8c2.1-0.5,4.1-2,4.1-5.1c0-3.6-2.6-5.6-7.2-5.6h-6.7V664h4.6v-7.5h0.2
	c0.8,0,1.1,0.1,2.3,2.1l3.3,5.4L-273.6,663.9L-273.6,663.9z M-296.7,650.6c0,1.5-0.9,2.2-2.8,2.2h-1.6v-4.2h1.7
	C-297.6,648.5-296.7,649.1-296.7,650.6 M-296.1,658.2c0,1.6-1.1,2.2-3.1,2.2h-1.9v-4.6h2.1C-297,655.9-296.1,656.7-296.1,658.2
	 M-291.5,658.7c0-2.7-1.9-4.2-4.1-4.5v-0.1c2-0.5,3.3-1.8,3.3-4.4c0-3.6-3.1-4.7-6.6-4.7h-6.7v18.9h6.6
	C-294.6,663.9-291.5,662.6-291.5,658.7"/>
<path class="st3" d="M-220.2,672.1h-0.9v8.1h0.9V672.1z M-223.1,680.1v-0.8h-3.3v-3.1h2.8v-0.8h-2.8v-2.6h3.2V672h-4.2v8.1H-223.1z
	 M-230.5,674.1c0,0.9-0.5,1.4-1.8,1.4h-1.1v-2.7h1.1C-231.1,672.8-230.5,673.2-230.5,674.1 M-230.1,677.9c0,1-0.6,1.5-2.1,1.5h-1.1
	v-3.1h1.2C-230.7,676.3-230.1,676.9-230.1,677.9 M-229.2,677.9c0-1.1-0.8-1.8-1.8-2c0.9-0.2,1.4-0.8,1.4-1.8c0-1.5-1.1-2-2.6-2h-2.1
	v8.1h2.1C-230.4,680.1-229.2,679.5-229.2,677.9 M-239.1,679.5V676h-2.7v0.8h1.7v2.3c0,0-0.6,0.5-2,0.5c-2.1,0-3.1-1.7-3.1-3.4
	s0.9-3.4,3.1-3.4c1,0,1.6,0.3,2.1,0.7l0.5-0.7c-0.4-0.3-1.2-0.8-2.6-0.8c-2.6,0-4.1,2-4.1,4.2s1.5,4.2,4,4.2
	C-240.1,680.3-239.2,679.6-239.1,679.5 M-247.9,680.1V672h-0.9v6.7l-0.8-1.2l-3.8-5.5h-0.9v8.1h0.9v-6.8c0,0,0.4,0.6,0.6,1l4,5.8
	C-248.8,680.1-247.9,680.1-247.9,680.1z M-256.5,677.1v-5h-0.9v5.1c0,1.4-0.7,2.3-2.2,2.3s-2.2-0.8-2.2-2.5v-4.9h-0.9v5.1
	c0,1.9,0.9,3.2,3.1,3.2C-257.5,680.3-256.5,679.1-256.5,677.1 M-264.1,672.9v-0.8h-5.6v0.8h2.3v7.3h1v-7.3H-264.1z M-271.1,672.1
	h-0.9v8.1h0.9V672.1z M-274,680.1v-0.8h-3.3v-3.1h2.8v-0.8h-2.8v-2.6h3.2V672h-4.2v8.1L-274,680.1L-274,680.1z M-279.8,680.1v-0.8
	h-3.2V672h-1v8.1H-279.8z M-286.1,679.5V676h-2.7v0.8h1.8v2.3c0,0-0.6,0.5-2,0.5c-2.1,0-3.1-1.7-3.1-3.4c0-1.7,0.9-3.4,3.1-3.4
	c1,0,1.6,0.3,2.1,0.7l0.5-0.7c-0.4-0.3-1.2-0.8-2.6-0.8c-2.6,0-4.1,2-4.1,4.2c0,2.2,1.5,4.2,4,4.2
	C-287,680.3-286.2,679.6-286.1,679.5 M-294.4,680.1v-0.8h-3.3v-3.1h2.8v-0.8h-2.8v-2.6h3.2V672h-4.2v8.1L-294.4,680.1L-294.4,680.1z
	 M-301.8,674.1c0,0.9-0.5,1.4-1.8,1.4h-1.1v-2.7h1.1C-302.4,672.8-301.8,673.2-301.8,674.1 M-301.5,677.9c0,1-0.6,1.5-2.1,1.5h-1.1
	v-3.1h1.2C-302,676.3-301.5,676.9-301.5,677.9 M-300.5,677.9c0-1.1-0.8-1.8-1.8-2c0.9-0.2,1.4-0.8,1.4-1.8c0-1.5-1.1-2-2.6-2h-2.1
	v8.1h2.1C-301.7,680.1-300.5,679.5-300.5,677.9"/>
<path class="st3" d="M-171.8,690.6c0,2.2-1.2,3.3-3.6,3.3h-1v-6.5h0.9C-173,687.4-171.8,688.4-171.8,690.6 M-170.8,690.6
	c0-2.3-1.4-3.9-4.6-3.9h-1.9v8.1h1.8C-172.2,694.7-170.8,692.9-170.8,690.6 M-179.2,694.7v-0.8h-3.3v-3.1h2.8V690h-2.8v-2.6h3.2
	v-0.8h-4.2v8.1H-179.2L-179.2,694.7z M-185.8,686.6h-0.9v8.1h0.9V686.6z M-189.2,694.7v-8.1h-0.9v3.4h-4.6v-3.4h-0.9v8.1h0.9v-3.9
	h4.6v3.9H-189.2L-189.2,694.7z M-197.3,694.1l-0.4-0.7c-0.5,0.4-1.1,0.7-2,0.7c-2,0-3-1.7-3-3.4c0-1.8,1-3.4,2.9-3.4
	c0.8,0,1.3,0.2,1.8,0.5l0.5-0.7c-0.6-0.4-1.2-0.6-2.3-0.6c-2.5,0-4,2-4,4.2s1.4,4.2,3.9,4.2C-198.6,694.9-197.7,694.4-197.3,694.1
	 M-204.9,692.7c0-1.6-1.2-2.1-2.3-2.6c-0.8-0.4-1.5-0.8-1.5-1.6c0-0.7,0.6-1.2,1.4-1.2c0.9,0,1.4,0.3,1.7,0.6l0.5-0.7
	c-0.3-0.2-0.9-0.6-2.1-0.6c-1.2,0-2.4,0.7-2.4,2.1c0,1.3,0.9,1.8,1.9,2.3c0.9,0.5,1.9,0.9,1.9,1.9c0,0.7-0.7,1.4-1.7,1.4
	c-1.1,0-1.7-0.5-1.8-0.7l-0.5,0.7c0.3,0.3,1.1,0.8,2.3,0.8C-205.9,694.9-204.9,694-204.9,692.7 M-212.3,688.7c0,0.9-0.5,1.4-1.8,1.4
	h-1.1v-2.7h1.1C-212.9,687.4-212.3,687.8-212.3,688.7 M-212,692.5c0,1-0.6,1.5-2.1,1.5h-1.1v-3.1h1.2
	C-212.5,690.9-212,691.5-212,692.5 M-211,692.5c0-1.1-0.8-1.8-1.8-2c0.9-0.2,1.4-0.8,1.4-1.8c0-1.5-1.1-2-2.6-2h-2.1v8.1h2.1
	C-212.2,694.7-211,694.1-211,692.5 M-219.6,691.9h-3.1l1-2.8c0.3-0.7,0.5-1.4,0.5-1.4s0.2,0.7,0.5,1.4L-219.6,691.9z M-223,692.7
	h3.7l0.7,2h1l-3.1-8.1h-0.9l-3.1,8.1h0.9L-223,692.7z M-229.3,690.6c0,2.2-1.2,3.3-3.6,3.3h-1v-6.5h0.9
	C-230.4,687.4-229.3,688.4-229.3,690.6 M-228.3,690.6c0-2.3-1.4-3.9-4.6-3.9h-1.9v8.1h1.8C-229.7,694.7-228.3,692.9-228.3,690.6
	 M-237,694.7v-8.1h-0.9v6.7l-0.8-1.2l-3.8-5.5h-0.9v8.1h0.9v-6.8c0,0,0.4,0.6,0.6,1l4,5.8C-237.9,694.7-237,694.7-237,694.7z
	 M-245.6,691.7v-5h-0.9v5.1c0,1.4-0.7,2.3-2.2,2.3s-2.2-0.8-2.2-2.5v-4.9h-0.9v5.1c0,1.9,0.9,3.2,3.1,3.2
	C-246.6,694.9-245.6,693.6-245.6,691.7 M-257.5,688.8c0,0.9-0.5,1.4-1.8,1.4h-1.2v-2.8h1.1C-258.1,687.4-257.5,687.9-257.5,688.8
	 M-255.9,694.7l-2-2.8c-0.5-0.7-0.7-0.9-0.8-1c1.3-0.1,2.3-0.8,2.3-2.1c0-1.4-1-2.1-2.7-2.1h-2.2v8.1h0.9v-3.7h0.1
	c0.5,0,0.7,0.1,1.6,1.4l1.6,2.3h1.2V694.7z M-263.3,694.7v-0.8h-3.3v-3.1h2.8V690h-2.8v-2.6h3.2v-0.8h-4.2v8.1L-263.3,694.7
	L-263.3,694.7z M-269.8,691.7v-5h-0.9v5.1c0,1.4-0.7,2.3-2.2,2.3s-2.2-0.8-2.2-2.5v-4.9h-0.9v5.1c0,1.9,0.9,3.2,3.1,3.2
	C-270.7,694.9-269.8,693.6-269.8,691.7 M-279.4,691.9h-3.1l1-2.8c0.3-0.7,0.5-1.4,0.5-1.4s0.2,0.7,0.5,1.4L-279.4,691.9z
	 M-282.8,692.7h3.7l0.7,2h1l-3.1-8.1h-0.9l-3.1,8.1h0.9C-283.6,694.7-282.8,692.7-282.8,692.7z M-286.5,688.8c0,0.9-0.5,1.4-1.8,1.4
	h-1.2v-2.8h1.1C-287.1,687.4-286.5,687.9-286.5,688.8 M-285,694.7l-2-2.8c-0.5-0.7-0.7-0.9-0.9-1c1.3-0.1,2.3-0.8,2.3-2.1
	c0-1.4-1-2.1-2.7-2.1h-2.2v8.1h0.9v-3.7h0.1c0.5,0,0.7,0.1,1.6,1.4l1.6,2.3h1.3V694.7z M-291.9,687.4v-0.8h-5.6v0.8h2.3v7.3h1v-7.3
	H-291.9z"/>
</svg>
