<svg id="Layer_1" xmlns="http://www.w3.org/2000/svg" viewBox="0 0 183.1 226.7">
  <style>
    .st0{fill:#578EBE;} .st1{fill:#575756;} .st2{fill:none;} .st3{fill:#4A4A49;} .st4{font-family:&apos;Kievit-ExtraBold&apos;;} .st5{font-size:28.35px;} .st6{fill:#5D7778;} .st7{font-family:&apos;Kievit-RegularSC&apos;;} .st8{font-size:12.15px;}
  </style>
  <path class="st0" d="M49.8 23c-.6 2.2-.5 4.6-.3 6.1-.8.6-2.7 0-3.5.6-1.6-2.1.1-4.5-.3-6.4.9-.6 3.3-1.3 4.1-.3m-5.5 1.8c0 2-.4 2.1-.3 4.4-.5.8-2 .5-2.9.9-1.1-1.3.2-3.2 0-5.2 1.4.1 2.1-.7 3.2-.1m11.3 0c-.9.9-.5 3.2-.6 5-.7-.5-2 .4-3.2.3-1.1-1.9-.2-4-.3-5.5 1.4.7 3.1-1.3 4.1.2"/>
  <path class="st0" d="M47.2 126.5c.7 0 .4 1.4 1.2.6 6.9-2.5 13.8-5.1 21.6-6.7-.1-1.3-.5-2.3-.3-3.8-11.7-.1-28.7.1-40.2 4.1-.9.2-1.4-.2-2-.3-.7 5.7-1.6 12.8-1.8 18.1 6.3-4.8 14.3-8 21.5-12m-16.6 9.4c1.2-.6 2.6-1 3.5-2-1.2.6-2.7 1-3.5 2m16.3-64.5c-3.6.1-8.8.4-13.4 1.2-.6 8.2-1.6 17.1-3.2 25.1 12.3-.9 24.4-2 35.6-4.1-1.3-6.7-2.1-15-3.8-22.2-4.3.2-7.6 1.4-10.8-.3 0-2.4-.2-5.9-1.7-8.2-2.4 1.5-3.2 6-2.7 8.5M36.1 53.9c.2.8-.4.8-.3 1.5 7.2.4 16.1-.4 24.5.6.2-1.6-.4-2.4-.3-3.8-8.1.7-16.7-.3-23.9 1.7m-5.5-2c1.8.3 2.3-.8 4.1-.6 0-2.7.2-3.9.6-6.4-1.6.3-1.4.2-2.9 0-.8 2.2-1.9 4-1.8 7m14.5-7.3c.1 2.9-.4 3.4-.3 6.4 1.3-.1 2.3-.5 3.8-.3.2-2.1-.3-4.8.3-6.4-1.4-.1-2.6 0-3.8.3M40.5 51h2.9c.1-2.4.6-4.7.6-6.4-1.2.2-1.7-.3-2.6-.3-1.1 1.9.7 6-.9 6.7m-3.8-6.4c0 2.4-1.2 4.3-.6 6.4 1.7.1 2.2-.4 3.5 0 .2-1 .3-5.6-.3-6.7-.3.7-1.8.1-2.6.3m18.4 6.1c.8.6 2.5.2 3.8.3.3-1.7-.6-5.7 0-7-4.7-.6-3.6 4.1-3.8 6.7m-5 0c1.4.2 1.6.1 3.8.3-.6-2.3 0-5 .9-6.7-2.2 0-2.8-.1-4.4-.3-.6 2-.7 4.5-.3 6.7m9.9 0c1.6-.1 3 .1 5.5 0-.4-2.7-1.4-4.8-2-7.3-1.3.2-3.4.3-3.8.6.8.8.4 4.6.3 6.7M46.6 2c1.2-.2 1.2.8 2.3.6 1.9 3-.1 6.4.9 8.5 1.7 3.6 6.8 4.1 8.5 8.5.9.1 2.3-.3 2.3.6-1 1.6-3.3.9-5 .9-5.9 0-11.2.5-15.7 1.5.6 6.4-1.7 13-1.8 20.1 5.4 1 11.9-.9 19.5-.3-.4-4.1-.6-13.2-1.5-20.4.8-.3 1.6-.3 2.3 0 .1 5.3.2 14.7 1.8 19.2-.1 1.4-1.6-.4-1.8.9 2.6.6 5.8.3 7.6 0 .1 3.9 1.3 6.9.6 10.2-2.4.1-2.9.3-5.2 0 3.5 22.6 6.5 47.1 12 68.5 1.6.2 3.1-.8 4.4 0-.2 1.3-1.1.9-1.8 2-2.8.1-6.7.4-7.6 1.5-11.1.6-18.5 5.6-27.1 8.7-6.1 2.3-11.4 6.3-16.3 9.6-1.2 2.9-.5 6.9-1.8 10.2-2.3-.6-1.3-5.8-1.2-6.4-.5-.9-1.1 1-1.7 0-.5-1 1.4-1.8 1.7-2.9-.6-.5.1-2.2-1.2-2-.1-1.2 1.3-.8 1.5-1.8 3.2-21 4.5-44.5 9-63.3-.6-7.5 2.1-14 2.3-22.7-1.1-.5-3.8.9-5-.3-.2-3.3.5-7.3 1.2-10.2 1-.4 4.6.5 6.7-.3-.4-5.4 1.2-13.5 2-19.5-1.5 0-3 .3-4.1-.6.3-1.4 1.5-2.9 2.6-4.1 2.2-2.3 5.2-4.7 7.9-6.4.6-3.6 1-7 1.7-10.3"/>
  <path class="st1" d="M76.2 122.8c1 .6-.4-.5.7.4-.2 0-.4-.1-.7-.4m-53.8 21.1c-.7-.7-1.3-1.4-1.9-2.3-.3-.4-.7-.9-.9-1.2h1.6c1.4-1 .8-4.1 1.1-5.9 0-.5.3.2.3-.9-.1-4 .8-10.2 1.6-14.9l.1.3c.2-.9-.1-2.1.1-3 .1 0 0 .3.2.1-.2-.3.2-1.8.1-2.2.1-.4.3-.3.4-.8l-.1-.6c-.3-1.6.6-3.7.6-5.8 0 .1 0 .3.1.2.2-3.4.9-7.6 1.3-11.4.1.2.2.3.3.1-.2-.2-.1-1.4 0-2.4.3-.4 0-1.8.3-2.9v.1c-.1-.9.3-1.3.1-2l.3-.5c-.3-.4.4-1.2.3-2h-.1c0-.7.2-1 .3-1.7v-.1c.1-1.5.4-2.3.2-2.3.3-.5-.1 1.4.3.7.5-4.9 1.3-9.9 2-14.8.2-.5.3-.9.4-1 0-.5.2-1.8.2-2.3 0 .2.2-.3.2-.6.2-.9-.1-1 .1-2 0 .4.1.5.2.4-.1-.9.1-2 .2-3 0 .2 0 .4.1.4-.1-1.1.3-2 .3-2.9l.1.4c.4-1.5-.2-.5.1-1.8 0 .3.1.2.1.3-.2-.3.5-2.2-.3-1.5-.8 0-1.6 0-2.2.1.1 0 .1-.1.1-.1-.5-.3-1.6.7-1.8-.7 0-.7 0-1.4-.1-2.2.1-.5.4.2.3-1.2-.3.1-.1-2.4-.5-1.6 0-1.2.2-3.1.1-4 .1.5.4-.6.4.4l.2-.8c.1.1 0 .8.1.5 0-.3 0-.8-.1-1.2-.7-.1.6-.1.6-.1.9-.2 1.8-.5 3.3-.6-.7.1.4.3-.1.4.4 0 2-.7 1.5-.2 0-.5.2-.1.3-.8-.1 0-.1-.3-.1-.5.1-.2.2-2.1.5-2.3.1-.2 0 .8.1.3.1-.9 0-1 .1-1.9.1-.6.1-1.8-.1-1.2-.1.4.2-.1 0 .5-.1-.5 0-1.5.1-2.5 0 .3.1.3.2.4-.1-1.3 0-2.6.1-4-.1 0 .2.5.1.7.4-1.8.2-3.7.7-5.2 0 .2-.2.1-.2.1.1-.9.3-.8.3-1.4.1 0 0-.7.1-1.3 0-.3.1-.1 0 .4v-1.4c1.5 1.7.4.5.8.9H33l-.6.2h-.3c.2.4-1.3-3.3-.7-1.7V22l.1-.1c.1-.1.2-.3.3-.3v.2c.4-.2 1-1 1.2-1 .2-.4-.3.3-.9.9l-.4.5v.1c.2.5-.5-1.2.5 1.2h.3c.2 0 .3 0 0 0h-.3c-.2-.5.5 1.2-.5-1.2l.3-.4c.2-.3.4-.5.4-.3.6-.6 1.1-1.3 1.8-1.8-.2.1-.3.7.2.2.8-.9.2-.3.8-1.1l.4-.5c-.1-.2.8-.8.3-.6.2 0 1.2-1.3 1.3-1v.3c.4-.4.4-.8.7-1.2.1 0 .2-.1.2-.1-.2-.3.9-.9 1.2-1.5.9-.7 2-2 2.5-2.2.5-.7 1-1.3 1.7-2-.1.2-.3.4-.3.4.3-.2.4-.3.5-.5-.3.6-.1-.1-.1-.2 0 .1.5-1.2.7-1.8.1-.9-.2-.6-.3-.7.5-.7.3-2.4.8-3.3 0 .3-.1 1.2.1.6.5-.7.1-1.6.5-2.8L45 2c.3-.5.2-1.8.5-1.6V.1c-1.3.4 1.7-.6 1.4-.5l.1.1.4.3c.2.2.4.3.5.2l1.2 1.2c1 1.9.3 1.5.5 2.4 0 1.2 0 2.2-.3 2.8 0 .3 0 1 .1.9.2-.5-.1-.7 0-.9 0 .3.1.3.1.3-.1.6-.1 1.1-.3.5-.2 1.4.5 1.5.4 3.3-.1 0-.1 0-.1.1-.6-1.3 0-.2 0-.3l.9.5c.9.8.4.6.3.8.5.4 1.1.8 1.4.9l.4.7c-.3-.5.5.2.7.4l-.3-.1c0 .1.6.5 1 .7 0-.2-.5-.6-.8-.9.3.1.7.4 1.1.6-.2.1.7.7 1.1 1.1.4.4.6.3.7.4-.1.1.7.6.3.4-.2-.1-.3-.4-.6-.5.3.3.1.4.8.8.5.3.1-.4.9.4-.3-.1-.4-.1-.6-.2l.8.7.1-.1c.1.1 0 .1 0 .1.4.1 1.3.9 1.6.9.4.3.8.8 1.2 1.1h-.1l.4.3.2.2.1.1c.1 2.6 0 .7.1 1.3-.2.2-.5.5-.6.7-.3.2-.8.8-1.1 1.1-.6.2-.9.2-1 0 .1.9.4 1.3.5 1 0 1.6.4 3.3.2 4.7.1.2.1.1.2.5.1 2.3.5 4.8.3 6.6-.1-.7-.2 0-.3 0 .2.5-.1.7.2.8.2-.1.2 0 .3-.7.2 1.3.3 3.4.2 4.2.1-.4.1-.1.2.2-.1 0-.2.2-.2.5v1c-1.7-1.8-.5-.5-.9-.9h.8l.1-.1.5.2c.3 0 .4-.3 1.1 0 0 .1.1.1.2.2.8 0 1.9-.1 2.7.1l.7.3c.4 0 1 0 .4-.2l.3.1h.1c-.9-1 1.3 1.3 1 1.1v1.4c0 .5 0 .8-.1 1.1.3 1.2.6 2.7.8 4.3l.2 2.4v.7c.9-1.3-1.3 1.7-1 1.4h-.1l-.3.1-1.1.2.1-.1c-.8.1-.3.3-.9.3.2-.2-.6-.1-.1-.4-1.1.1-1.4.5-2 .8-.1.2.5-.2.5 0-.1 0-.4.1-.8.2-.9 1.3 1.2-1.8 1-1.5v.2l.1.3c0 .2.1.3.2.3 0 .3-.3.1-.4 0l.2.7c-.1.9-.8-1.8-1-.9l.1.6c-.1.6-.5-1.6-.4 0 .2.7.7 1.2.7.6.3 1.4.7.6.9 2.1-.1.4-.2-1.2-.4-.9-.1.7.3 1.4.4 2.1 0-.7.3-.2.4.3 0 .8-.3-.5-.1.6.2.2.4 1.1.4.3.4.3.1 1.1.4 1.7-.2.4-.7-1-.6.2.2-.2.5 1.4.7.7 0 .5-.1.6-.3.2 0 .7.6 1.6.3 1.9l.2.2c0 .2 0 .5-.1.9.1.6.6 1.9.3 1.9.1.2.3 1.5.4 1 0-.9-.3-.9-.1-1.5-.1.6.2 1.2.4 1.7l-.1.1c.1.3.2.9.3 1.1-.1-.2-.2-.1-.2.2l.2.3c.3 1.2-.3.3 0 1.5l-.3-.8c.1.2 0 .6.1 1.1.2.2.5.5.6.7.2.6-.1.3.1.9l-.3-.8c-.1-.1-.2.6 0 1.5.2.5.5 1.3.5.5.1.4.1 1.1-.1.7.2 1 .2-.2.4.7-.1.4 0 1.5-.1 2.1l-.4-.8.1.6c-.4-.7-.1.4-.4 0 0 .4.2.9.3 1.2.2-1.2.7 1.2 1 .8.4 1.6-.7 1.1.1 2.7 0-.3.4.5.2-.5.1 1 .5.6.5 1.8-.3-.8-.2 1-.6-.2.1.1 0-.7-.1-.9-.1.4-.4 0-.2 1 .1.6.3 1.5.4 1.3.2-.1-.2-.9.1-.6.3 1.2 0 1.5.4 1.9-.2-.8 0-1 .2-1l.2.9-.2-.2c.1 1.5.3.4.5 1.8l-.2.7c-.3-.3-.2-2.1-.6-1.8.1.9.4 1.2.4 2.1l-.2-.6c0 .3-.4.7.1 2 .2.7.2.2.3.2.3 1.5.5 1.9.7 2.8-.3-.2.3 1.7-.2.7.1-.5-.3-2.6-.6-3.1-.2.6-.1-1.2-.5-1.4.2 1.2-.1 1.2-.3 1.4 0 .3.2.6.2.8.2.1.1-.3.3-.4.2 1.3.5 2.6.8 3.3 0 .5-.2.3-.3-.2.3 1.6.6 3.2.8 4.7.2-1 .4 1.6.5.9-.1-.8.1-1.5.3-1.1.1.5-.1 0-.2.2.3.6-.1 1 .3 1.6-.3-1.4-.4-.2-.7-.4.3 1-.2 0 0 1 .3 1 .6 2.3.9 3.4 0 1.5.6 3.6.8 4.9 0 .7-.4.3-.3 1 .1.9.2-.7.3.6l-.1-.1c.1.4.2 2.4.7 2.7l-.4-.3c0 .2.1.4.2.6-.1 0-.1.3-.3-.1-.1.8.3 1.6.5 2.5l.1-.6c.5 1.3.2 2.8.8 3.5l-.1.1.7.4c-.3 0 .3.6.7.7l-2-1c-.5-.9.7.5.5-.1-.3 0-.3-1.5-.6-1.7.1.5.1.5.2.9-.2.2-.3-.6-.6-.9.1.3 0 .6.1.7-.2-.5-.3-1-.5-1.9.2.6.1-.3.2-.1-.2 0-.4-.8-.5-1.9.1-.8-.5-2-.6-3.2.3.5.6 1.1.8 1.8 0-.8-.1-.9-.2-1.6-.2-.3-.5-.6-.8-1.6l.2-.1c-.2-.9-.5-.9-.6-2-.2-2-.6-4-.8-5.5l.2-.1c-.5-.8-.6-2.8-.9-3.9-.2-2-.8-4.2-.7-5.2-.7-3.4-1.3-6.3-1.8-9.9l.3.6c-.3-.6.1-.4-.1-1-.1.7-.4-.8-.6-1.2-.1-1.6-.6-3.6-1-4.9l.2-.1c-.5-1.4-.6-3.1-.8-4.8 0-.2.1-.6 0-1.1-.4-.9-.5-1.4-.9-2.8-.2-1-.4-2.7-.4-3.7-.5-1.9-.9-3.8-1.2-5.8l-.5-2.9-.3-1.5-.1-.4.8-1.2h.1l.2-.1.7-.2.3.1c.9-.3 1.9-.6 2.9-.9l.4-.1c.2-.3-1.7 2.3-.9 1.2v-.3l-.1-.8-.1-1.6c0-2.1-.1-4.1-.3-5.8l.4.3c0-.5-.1-1.1-.2-1.5v-.3c.4.4-.8-.9.8.9h-.2c-.1 0-.2.1-.1.2-1-.2-2.6-.2-3.2-.5-1.1-.2-1.3 0-2.2-.1h-.3c-.5-.5 1.1 1.2-1.1-1.2v-1c0-.4 0-.8-.1-1.1 0-.7-.1-1.4-.2-2.4v.5c.1.2.2.2.2-.3-.1-.7-.1-2.8-.4-2 .1-2.2-.5-5-.3-7.1-.1.2-.1-.3-.2-.6l-.1-2.8-.1-1.3-.1-.6v-.1c-.4 1 .6-1.3.5-1.1l.1-.1.2-.2c.3-.2-.2.5.3 0 .3-.3-.1-.1.3-.5l1.7-1.6h.1c-.1-2 .1 2.7.1 2.2l-.1-.1-.2-.2-.5-.4-.9-.7c-1.2-.9-2.4-2-3.5-2.8-2-1.4-4.1-3-6-4.5l-.7-.6-.2-.1-.1-.1c.5 1-.7-1.3-.5-1.1V5.3l.1.1c-.2-.8-.1-1.7 0-2.6.3 1.3-1-.7-1.4-.5l-.3-.3-.4-.2c1-.3-2.2.8 2.3-.8l-.1.2c-.2.3-.2.4-.3.3-.1 1.3-1 3.4-1.1 5.3 0-.2 0-.3.1-.5-.8 2-.1 3-1.8 5.7l.2-.3c.2-.3-.2.5.4-.7v-.1c-1.1 1.5-1.2 1.8-1.8 2.1-.3.3-.1.4.1.2-3.1 2.9-6.2 6.3-9.3 9.5-1.2 1-1.4 1-1.4.9 0 0 0-.1-.1 0H33l-.1.1c.6 1.4-.8-1.9-.6-1.6.2 0 .4 0 .7-.1.2.1.1-.1.2-.1 1-.1 1.5.4 2.2.2-.3-.2.5-.1.5-.3.5 0 .9.1 1.2.1l.5.1h.2c-.8-.9 1.1 1.3.9 1v.2c-.1.5-.2 1-.2 1.8h-.2c.1 1.8-.3 3.9-.1 5.4l-.8 7.3-.4 3.8-.2 1.8v.1c-.7.6 1.5-1.3-1.5 1.3h-1.7l-3.6.1h-.8l1.6-1.6V46l.1 7.3v.6l-1.7-1.7h4.2c-.4-.4 3.2 3.7 1.7 1.9v.4l-.3 1.8-1 7.1c-.7 4.7-1.4 9.4-2.2 14.2-.7 2.2-.7 2.4-.9 4.9 0-.1 0-.3-.1-.1.2.2-.2 1.7 0 2-.6 3.6-1 6.8-1.5 10.5.1-.6-.1-.9-.2-.2l.1.7-.1.1c0 .5 0 1 .2.5-1 9.3-3.4 18.1-3.9 27.2-.3 2.1-.5 5.2-.7 7.6-.3 1.7-.5 3.4-.7 5.1l-.3 2.5-.2 1.2-.1.6v.1c-.5.5 1.1-1-1.1 1h-2.3c.4-.8-.9 1.7.9-1.7l.4.5 1.4 2.1.7 1v.1c-.1.6.1-1.4-.1 1.4l-.1.1-.2.2-.5.5-1.8 1.9c-.2 0 .1-.5 1.9-3.5M75.1 122c-.1-.3-.7-.8-.1-.6 0 .2.2.5.1.6"/>
  <path class="st1" d="M70.6 101.4v-.4c.1.3.2.5.2.7-.1-.2-.1-.2-.2-.3m-.8-5.5c.1.1.4 1.2.5 1.9l-.5-1.9zm-.4-5.1c0-.5.1-.3.2.2 0 .1-.1-.1-.2-.2m-.3-.4c-.1-.4 0-.6 0-.9-.1.1.2 1 0 .9m-1.5-11.1c-.1-.3-.2-.8-.2-1.1 0 .3.4 1.3.2 1.1m-1-5.1c0-.2 0-.2-.1-.4 0-.3.1 0 .2.2l-.1.2z"/>
  <path class="st2" d="M0 0h183.1v226.7H0z"/>
  <path class="st1" d="M45.3 3.3l.2-.4-.1-.1zM35.5 34c0 .6-.2.4-.2.5.1-.5.1.2.2-.5"/>
  <path class="st2" d="M0 0h183.1v226.7H0z"/>
  <path class="st1" d="M28.8 50.3l.3-.1-.3-.1zM45.8.1c-.6.1.4.2-.4.1.1 0 .2-.1.4-.1M57.3 20c-1.8.8-4.3.6-6.3 1.3-.2.1 0-.3-.5-.2-1.9.8-5.1 1-7.5.8l.1-.1c-.5 0-1 .4-1.5.3 0-.1.1-.1 0-.2-.1.2-.9.1-1.1.3-.2-.1-.2-.2-.4-.3l-.3.2c-.8.6-1.9-.1-3 .2.1 0 .2-.1.1-.1-1.6.3-.3-.1.6-.7.9-.5 1.9-.7 2.8-1.1-.1.1-.1.3.1.3 0-.3.6-.5 1.1-.6.3.2.8-.4 1.4-.4v.1c.4-.3.7 0 1-.3l.3.1c.1-.4.7.1 1-.1v-.1c.3-.1.5 0 .9-.1.7-.1 1.2 0 1.2-.3.3.2-.7.2-.3.4 2.5-.5 5-.4 7.5-.5.3.1.5.1.5.2.1-.1 1.3-.1.6.2.1 0-.2-.1-.3-.1-.5 0-.4.4-.9.4.2-.1.2-.2.1-.3-.4.3-.9.4-1.4.5.1-.1.2-.1.2-.2-.5.3-1 .1-1.5.3l.2-.2c-.8-.1-.2.4-.9.3.2-.1.1-.1.1-.2-.6.3-1.6.3-2.2.5v-.1c-.7.1-1.4 0-2.1.1-.3-.1.1-.4-.6-.3 0 .3-1.2.1-.8.4-.6-.1-1.6-.2-2-.1.3-.1-.3-.4.2-.4l-.4-.2c.1-.1.4.1.3-.1-.3 0-1 .1-1.2 0-.5.2-.9.5-1.7.5.4-.1-.2-.3.1-.4l-1.1.5c-.3 0 0-.2-.4-.2 0 .1-.1.1-.3.2-.1 0-1.1 0-1.2-.3-.1-.1.4 0 .1-.2h-.5c-.4-.7 0-.4.1-.7.2-.2.5-.8.2-.6-.2.2.2.1-.1.3 0-.3.4-.8.7-1.2-.1.2 0 .2 0 .3.3-.6 1-1 1.6-1.6-.1-.1-.1.4-.2.4.9-.4 1.7-1 2.6-1.1-.3.5-.3.2-.3.3.5-.1.5.1.8 0 .1.1.4-.1.6-.2.1-.1.1 0-.2.1.4-.2 2.1-.6 3-.5 0-.1.6-.3.8-.3v.1c.2.1.7 0 .8.1.5-.2-1.8.2-1.2 0 .2.1.9-.3.7-.1.4 0 .9-.2 1.3-.1-.1 0-.4.3 0 .2.6 0 .2-.1.7-.1l.3-.1c0-.2.6 0 .3-.2.1.2.9-.1.8.2l-.1.2c.3 0 .5-.2.7-.3l.1.1c.1-.4.6.1 1-.2.3.1.6.1 1 .1.2 3.7.1 1 .1 1.8h-.4l-.3-.1c-.4.2-.8.4-1.3.4.1-.1.2-.1.2-.2-.3 0-.4.1-.6.2.1-.1-.6-.1-1-.2-.4.2-.2.3-.2.5-.5-.3-1.2.5-1.7.2.1-.1.6-.3.2-.3-.4-.3-.7.4-1.4.4l.2.3c-.3-.1-.9.3-.9 0-.2.1-.8 0-.7.3-1.1-.1-2.6.5-3.3-.1-.2 0-.5 0-.5.1.3.2.4-.1.5 0-.1 0-.2.1-.2.1-.3-.1-.6-.1-.3-.3-.7-.2-.8.5-1.7.4.1-.1 0-.2-.3-.1l-.1.1c.1 1.6-.2-2.2-.1-1.8h.1l.2-.2c.5-.1.4.2.4.4.3-.1.6-.2.7-.4l.4.1c-.3-.1.2-.2.3-.3l-.1.1c.1.1.4-.1.6-.2-.1-.1-.4 0-.6 0 .1-.1.4-.2.5-.4 0 .2.5 0 .8-.1.3-.1.2-.3.3-.3 0 .1.4-.2.3.1-.1.1-.2 0-.4.1.2 0 .3.2.6-.1.2-.2-.2-.3.4-.4-.1.1-.1.2-.2.3l.5-.1v-.2c.1 0 0 0 .1.1.1-.2.7-.3.8-.6.2-.1.6-.1.8-.2.3 0 .7-.2 1-.4.2 0 .6-.2.8-.4.5 0 .3.6.7.3.4-.1.7-.4.5-.5.8-.1 1.9-.3 2.7.1.1 0 .1-.1.3-.1l1 .3.3.1h.1c-.2.9.4-2.1-.4 2.1H53l-.4.1c-.6.1-1.1.1-1.6 0 .3-.1 0-.2 0-.3-.3.2-.3-.1-.4.1 0 .2 0 .2.4.3-.7.2-1.8.2-2.2.1.2.1 0 .1-.1.2 0-.3-.5-.3-.9-.2l-.1.2-.3-.2c-.2 0-.2.3-.6.2 0-.1 0-.1-.1-.2-.4.1-1 .3-1.5.1l-.3-.3c-.2 0-.5.1-.2.2-.7-.3-1.2-.4-1.4-.7-.7.1-1.5-.1-2.4-.3l-1.2-.5-.3-.1c0 .5.3-4.6.2-2.4h.1l.1-.1.5-.2v.1c.4 0 .1-.3.4-.3-.1.2.4.1.1.4.6-.1.6-.5.9-.6 0-.2-.3.2-.3 0 0-.1.8-.1.8-.4.2 0 .1.2.1.4l.3-.2c.5.1-.8.8-.2 1l.3-.1c.4.1-.7.5.1.4.3-.2.5-.6.1-.6.7-.3.1-.6.9-.9.2.1-.6.2-.4.4.4 0 .7-.3 1-.3-.4 0-.1-.3.1-.4.4 0-.2.3.4.2.1-.2.6-.4.1-.4.1-.4.6-.1.9-.4.2.2-.5.6.2.6-.2-.2.7-.4.3-.7.3 0 .3.2.2.3.4.1.8-.5 1-.1l.1-.2c.1.1.3.1.5.2l.3-.1c.4-2-.5 2.7-.4 2.2H48c-.1 0-.1 0-.1-.2-.1 0-.7 0-.5.2.3.2.5-.1.5.2 0-.3-.5 0-.6.1v-.1c-.1 0-.4 0-.5.1.1-.1.1-.2-.1-.2l-.1.2c-.6.1-.1-.3-.7-.3l.4-.2c-.1 0-.3-.1-.6-.1-.3-1 .6 2.2-.6-2.2v-.6c.2-.2.2.1.4-.2l-.3.4c0 .1.4.1.8-.1.2-.2.4-.6 0-.5.2-.1.5-.2.4 0 .4-.3-.1-.1.1-.4.2 0 .6-.1.9-.2l-.1.5.2-.2c-.1.4.3 0 .3.3.2-.1.3-.3.4-.4-.4 0-.3-.2-.3-.4v-.1c-.2-.4 1.4 3.4.8 1.8l-.3.4c-.1.1-.1.1-.1.2-.9.1-.5-.9-1.4-.4.1.1-.3.4.2.3-.5-.1-.4.3-.9.2.4-.1-.4-.4.2-.6 0 .1.3.1.4.1-.2-.1.1-.4-.5-.4-.3 0-.7 0-.7.2s.5 0 .3.2c-.6.1-.7-.3-1 .1.4 0 .5.2.5.3l-.4.1.1-.1h-.3c0 .7-.1-5.7-.1-3l.1-.1c0-.1.1-.2.3-.2l.3.2c-.1.2-.8 0-.7.4.4 0 .4-.2.8-.2l-.3.1c.1 0 .4.4.9 0 .3-.2.1-.2 0-.3.7-.2 1-.4 1.6-.5 0 .1 0 .1.1.1h.1c-.1 1.1.3-2.6-.3 2.6-.1 0-.2 0 0-.2.5-4.6.2-1.3.3-2.3h-.2l-.6.1c-.1.1-.4.3-.5.5.3.2-.6 0-.6.4.6-.1.6.2.8.4.1-.1.2-.2.3-.2 0-.2-.2-.2-.2-.3l1-.2.2-.1h.2c.2-1.4-.2 2-.2 1.6l-.3.1c-.2-.1-.1-.3.2-.3-.3 0-.8-.1-1.2-.2-.1 0-.3 0-.2-.1.1 0 .2 0 .2-.1l.1-.1v-.1c.2.2-2-1.5-1.1-.8.3-.2.6-.4.8-.5-.6-.1.8-.4.4-.5-.2 0-1 0-.7-.2.4-.1 0 .1.2.1.3-.3.6.1.4-.1.1.1.2.3.3.6 0-.2.2-.1.2.2-.2-.5-.5-1.3-.1-2.1.3-.3.6-.6.8-1 0 1-.5 0-.8.1-.3-.3.2-.3-.2-.7-.2-.9-.3.7-.1-.8v.1c.1-.2 1-.7.8-1.1l.1.3c.1 0 .1-.2.2-.2.1.1.2 0 .2.2.4-.2.5-.7.8-1l-.3.1.3-.4-.1-.2c.6 1.1.1.3.2.5H48V.6l-.4.1c.1-.2-.3-.3-.5-.1l1.1-.5c.3.1-.3.2-.1.4.2.2.8.1.9-.1-.3 0-.3 0-.5.1-.1-.2.3-.2.5-.4-.1 0-.3-.1-.3 0h.3c.2.3-.2-.8.6.7l-.2.2c.1-.3-.2 0-.2-.1.2.2-.1.5-.5.9-.4.1-.6.9-1.1 1.3.1-.4.2-.7.4-1.1-.4.2-.3.3-.7.5-.2.5.2.1.5.2V3c.4.2.5-.1 1.2.5 0 2.4-1.1 1.9-.7 2.9h-.2l.2.4v.1c-.3.9-.2.3-.3.6l-.4.3c-.4.2-.9.2-.8.4h-.1c-.4-.3 1 .7-1-.7l.3-.2.3-.1c.5-.1.5 0 .7 0l.7.1.7.1h.1c0-.3-.3 2.2-.1 1.2H48c-.8.2-1.5.5-2.4.7l-.7.1V8h.6l1.3.1-.3.2c.3-.2.2.1.5.1-.3-.2.4-.2.7-.4l.6.1h.4c1 2.3.3.6.5 1.1l-.2.3c-.3.3-.7.7-.9 1l-.1-.1c-.2.4-.6.6-1 .8l-.6.3-.3.1-.2.1c-.8-2.8-.2-.8-.4-1.4h.1c.1.1.3.2.5.2.5-.3.7-.3 1.5-.4.2 0 .8.1 1.2.3-.6 3.5-.2 1-.3 1.7h-.8c-1.8.5-3.7.9-5.4 1.8l-.3-.2c-.4.3-.9.5-1.3.7l-.2.1h-.1c0 .4.3-3.9.1-2.1l.3.2.6.3c.9.4 1.8.7 2.6.8l-.2.3c.5.2 1.1.1 1-.1.5.2 1.2 0 1.5.3.5.1.6-.1 1.1-.2 1 .1 1.4.1 2.4 0h-.2c-.1.1-.1.2.1.2.4-.1 1.4 0 1-.4.5.1 1.1-.1 1.7-.2h.1c.4-2.2-.5 3-.4 2.5h-.2l-.2-.1-.6-.3c.1.1-.2.1-.3.2-.7-.1-1.6-.2-2.2.1-.1 0 .2-.2-.2-.2-.2.1 0 .1-.2.3-1.3.6-2.9.8-4.2 1.3-1.1.6-2.4 1.1-3.7 1.4h-.2c0 .6-.4-5.1-.2-2.7h3.2v.1c.7-.4 1.8.1 2.4-.4.2.1.7-.1.6.1.6-.3 1.8-.1 2.6-.5l-.2.1c.9 0 1.7-.4 2.7-.4-.1.1-.3.1-.3.2.4.1.8-.5 1.1-.2.2 0 .1-.2 0-.2l.8-.1h.3c.1 1-.1-2.2.1 2.3H51c-1.1 0-2.2.1-3.3.1-1.6-.2-.1-.7-1.3-.3-.1-.1-.1.2-.1.1-.5.1-.8-.4-1.1-.1.2.2-.2.1-.2.3-1-.1-1.2-.2-1.8.1v-.1c-.8.4-1.7.7-2.2 1.3-.9.5-1.7 1.1-2.3 1.9l-.2.3c-2.2-4.5-.6-1.2-1.1-2.3h1.3l1.8.1c2.4.1 4.8.1 7.1.1s4.6-.2 6.7-.9l.8-.2c.2 1.5-.6-3.3.6 3.3h-6.3c-1.1-.3-1.2-.3-2.4-.1 0-.1.1-.1 0-.1 0 .3-.9.1-1 .4-1.7.1-3.3.5-5 .9.3-.1.3-.3 0-.2l-.1.3c-.2.1-.4.3-.2.3-1 .4-2 .7-3 1.2l-.7.3h-.1c.1.7-1.3-6.3-.7-3.3h.6l1.7.1c2.2.1 4.5.1 6.7-.2 1.1 0 2.6-.3 3.7-.6 3.5-.2 6.7-.4 10.3-1 0 .1-.5.8-1.9 1.2M46.5.1c.1.1.6.2.2.4 0-.2-.2-.3-.2-.4"/>
  <path class="st1" d="M46.9 7.1c.5-1.4.1-.5.1-.8-.1.4.2-.8-.3.8v-.2c.1.1.2.1.2.2m.4 1.8c.3 0-1.4.2-.2-.1-1.3.2.2 0 .2.1m-1-1.9c-.2 0-.2-.1.1-.2.1 0 0 .1-.1.2m-.1.3h-.4c.1 0 .5-.2.4 0m1.3.5c-.1.1-.2.3-.4.2.2.1.4-.3.4-.2m-1.7 1.4c-.1 0-.1 0-.2.1-.2 0-.1-.1 0-.2l.2.1z"/>
  <path class="st2" d="M0 0h183.1v226.7H0z"/>
  <path class="st1" d="M47.4 18.1l.3-.1h-.2zm-9-.6c-.2.2-.3 0-.3.1.2-.2 0 .1.3-.1"/>
  <path class="st2" d="M0 0h183.1v226.7H0z"/>
  <path class="st1" d="M46.2 20.7h.1v-.3z"/>
  <path class="st0" d="M86.1 21.7c-.1-.3-.1-.1 0 0zm-.1-.1c0 .1 0 .1 0 0m-.3-.1c0-.2.2 0 .1-.3-.1-.2-.2 0-.1.3"/>
  <path class="st2" d="M0 0h183.1v226.7H0z"/>
  <path class="st0" d="M85.8 21.8v-.3zm0 .2l.1-.1v-.1zm-.4-.5c.2.2.1.3.2.4.1 0-.1-.5 0-.5-.1-.2-.2 0-.3-.3-.1-.1.1.2.1.4m-3.8 3"/>
  <path class="st2" d="M0 0h183.1v226.7H0z"/>
  <path class="st0" d="M80.4 25h.1l-.1-.1zm1.8-1.4"/>
  <path class="st2" d="M0 0h183.1v226.7H0z"/>
  <path class="st0" d="M74.4 23.6v.1-.2zm4.8 2.3zm3.4-2.4zm-1.7 1.9zm3.3-4.1c0 .1 0 .1 0 0m-1.4.4c0-.1 0-.1 0 0m84.9 21.1c-.1-.1-.2-.6-.1-.1l.1.1c-.2-.1-.2.1-.2.2v.1h.1c.1.1.1-.1.1-.3m-2.6 3.1c0 .1 0 0 0 0"/>
  <path class="st2" d="M0 0h183.1v226.7H0z"/>
  <path class="st0" d="M81.8 23.9zm1.4-.2c0 .1 0 0 0 0"/>
  <path class="st2" d="M0 0h183.1v226.7H0z"/>
  <path class="st0" d="M81.8 23.9zm1-.4zm-14.1-.9s0 .1.1.1c0-.4-.1 0-.1-.3v.4c0-.1-.1-.1 0-.2m5.3.4c0-.1 0-.2-.1-.2 0 .2.1.6.1.8h.1c-.1-.2-.1-.4-.1-.6"/>
  <path class="st2" d="M0 0h183.1v226.7H0z"/>
  <path class="st0" d="M74 23.6l.1.1v.1l-.1-.2zm-4.4-.9"/>
  <path class="st2" d="M0 0h183.1v226.7H0z"/>
  <path class="st0" d="M78.5 21.7v-.1.1zm-3.8 1.6zm-1.8 3.4c0-.4 0 0-.1-.2v.2c.1.1.1.1.1 0"/>
  <path class="st2" d="M0 0h183.1v226.7H0z"/>
  <path class="st0" d="M68.6 22.5zm3 4.5zm2.7-3.3h.2l-.1-.1c0 .3-.1-.1-.1.1"/>
  <path class="st0" d="M74.2 24.6c0-.2 0-.3-.1-.5V24s-.1-.1-.1 0c.1.5.1.6.2.6m2.4-1.7v-.3c0 .1-.1-.1-.1.1.1.1.1.2.1.2m5.7-1.4c-.1-.2-.1-.1-.1-.1l.1.1zm1 .3c0-.1 0-.1-.1-.1l.1.1m.3-.5zm-1.2 2.3c.1-.2.1 0 .1.1-.1-.1-.1.1-.2-.1l.1.2s-.1-.1-.1-.3c-.2-.2.2.3.1.1m.8-.1c0-.1 0-.1 0 0m-9.5 3.4v.2c.1-.5.4.2.4-.5.3.8 0-.7.3 0v-.1c.6 0 1.4.4 1.9-.1v.2c1 .1 1.8-.4 2.7-.5.1-.2-.1-.5 0-.7 0 0 .1 0 .1.2v.4c.1 0 .3.2.3-.1l-.1-.2c0-.1.1-.1.1 0s.1.4.1.5c.1-.7.2.2.3 0-.1-.5 0-1 .1-1.4l.1.1c-.1 0 .1.4 0 .4.1.1.2-.1.3 0 0-.1-.1-.3-.1-.4.1.1.1.3.2.3v.2c.1.2.1-.1.1-.1.1.2.2.2.2.5 0-.3.1-.2.1-.4-.1-.2 0-.3-.1-.5l-.1.1c.2.1 0 .1.1.4-.1-.2 0-.6-.1-.6.1-.2.2-.1.2-.4-.1.1 0-.2-.1-.4.1 0 .1.1.1.4.1 0 .1.2.1-.1.1.1 0 .3.1.4 0 .3-.3-.3-.1.6-.1 0 0 .4-.1.3.1.1.2.4.3.1l-.1-.5c.1 0 0-.3.1-.3 0 .1.1.3.1.3 0-.1 0 0-.1-.1.1-.1 0-.4.1-.5-.1-.1-.2-.2-.3-.4 0-.3 0-.1.1-.1v.1-.2c.1.1.1.5.2.6.1.3.1-.2.1 0v-.1c0-.1.1-.1.1-.3v-.1c0-.1 0-.4.2 0 .1 0 .2.1.2.3l.1.1.1.3c.1-.1 0-.3 0-.6.1.2.2 0 .2-.1l-.1-.1c.1 0 0-.2.1-.2v.1c.1.3.1-.2.2-.1s.2.5.2.2v-.2h.1l.1-.1v.1l.1.1c.2.4.1-.3.4.1 0-.2-.1-.3-.1-.4v-.5c.1.3.4.5.5 1 .1 0-.1-.3-.1-.4-.1 0-.1-.2-.2-.3-.1-.2 0-.3.1-.3l.1.3c.1-.1-.1-.6-.1-1 .1.1.1.4.2.7l.1-.1.1.3c0-.1 0-.3.1-.2 0 .3.2.2.2.5.1.1 0-.4.1-.1 0-.3-.1-.1-.1-.2-.1-.4.1-.2.1-.3.1.2 0 .2.1.4 0-.2 0-.3.1-.1-.1-.3.1-.1.1-.1-.1 0-.2-.2-.2-.4 0-.1 0-.2.1-.1l-.1-.1c0-.4.2.2.2.1v.4l.1-.5.2.4c0-.2.1 0 0-.3.1.1 0 .3 0 .5.2.1 0-.4.2-.1v.2s.1-.1.1 0c0-.1 0 0-.1 0-.1-.5.1-.4-.1-.9h-.1c0-.1 0-.5.1-.3s.1.4.1.5c.1 0-.1-.6 0-.6-.1-.1-.1-.3-.1-.4-.1 0-.2-.1-.1.1v.3c-.1 0-.1-.2-.1-.3-.1-.1.1.5 0 .5v-.1c0 .1-.1.2 0 .5-.1-.3-.1.2-.2 0-.2-.7.2 0 .1-.4.3-.5.3-.7.3-.9l-.1.4c0-.1-.2-.5-.1-.2v.3-.2c-.1-.1 0 .2 0 .3-.1-.1 0-.3-.1-.4 0 .3-.1 0-.2 0 .1.4-.1.6.1 1l-.1.3c-.1-.2-.1-.6-.2-1h.1c-.1-.5-.1.4-.3-.2-.1 0 0 .1-.2-.2l.1.5c-.1-.1-.2-.3-.2-.4h-.1v-.2c-.1-.2-.1-.2-.1 0 0 .1 0 .1-.1.1v-.2.3c0 .1.1.3.2.5-.2-.2-.2 0-.4-.4v-.3c-.1-.1-.1.2 0 .4 0-.1-.1-.2-.1-.3l-.2-.1c.1.4-.1.2-.1.4h.1v.4c0-.3-.2-.4-.1-.5-.2-.5 0 .3-.1.2l-.1-.2c-.1-.3.1-.2 0-.3 0-.2.2-.1.2-.4l-.2-.1c-.2.4-.5.1-.6.7v.2-.1.2c-.1-.2-.2-.3-.3-.5.1.2.1.2.1.4.1.3.1.4 0 .3 0-.2 0-.2-.1-.3 0 .1.1.2 0 .3-.1-.1-.1-.1-.2-.3 0-.1 0 0 .1 0 0-.1-.1-.2-.1-.3l-.1.1c-.1-.2 0-.3-.1-.4-.1.2 0 .6-.1.8 0-.1-.1-.5-.1-.4-.1-.1-.1.5-.1.6v-.2c-.3-.1-.5-.1-.9-.4v.5l-.1-.3c-.3-.2-.5.1-.7.3-.1 0-.1-.3-.2-.4-.2 0-.1.5-.3.6 0-.1 0-.5-.1-.5v.3-.1c-.1-.2-.1 0-.2-.1-.1 0-.2.4-.3.9-.1 0-.1-.5-.1-.6.1.1 0-.1 0-.2 0 .1-.1.2-.2-.1-.1 0-.1 0-.1.3 0-.1.1.1.1.2-.1-.1-.2 0-.3-.4-.3.1-.7.1-1 .2 0 .2.1.1.1.2 0 .3-.1-.1-.1.1v-.2c-.1 0-.1.4-.2.6 0-.3-.1-.2-.1-.4 0 .1-.3-1-.3-.8l.2 1c0 .1-.1.1 0 .1l-.2-.4c-.1-.3 0-.2.1-.2-.1-.4-.2-.3-.2-.7-.1.1.1.2 0 .4l-.1-.1.1.1c0 .1 0 .5-.1.3v.4c-.1-.3-.1-.1-.1-.1v-.2c-.1 0-.1 0-.1-.2 0-.3.1.1 0-.2l-.1-.1c0 .2 0 .4.1.5 0 .4 0 .7-.1.7-.1-.3 0-.3-.1-.6-.2-.1 0 .9-.1.9-.1-.1-.1.2-.2.2 0-.2-.1-.2-.2-.4v-.2c0 .1-.1 0-.1-.2.1.3-.1.3-.2.5l.1.3c-.1.1-.1.3-.2.2-.1.1 0 .3-.1.6-.1-.2-.1-.5-.1-.8 0 .1.1 0 .1.1.1-.2.1-.8.3-.7 0-.6-.1.1-.2-.1v-.1c0-.1.1-.2.1-.5-.1.1 0 .6-.1.4 0 .2-.2-.3-.2-.3 0 .2.1.8-.1.7v-.4c-.1 0 0 .5-.1.5 0 0 0 .4.1.4 0 .2-.1.2-.2.2v.2c.1.2.1-.3.2.1v-.4c.1.1.1.4.1.6 0 0 0-.1 0 0 .1.6-.1-.2-.1.3.1.4-.1.3-.1.3-.1-.2-.2-.2-.2-.5l.1-.1c-.1-.2-.1.1-.2.1v-.1.1-.1c-.1 0-.1.2-.2.1v.2-.1s.1.1.1.3c-.1.2-.2-.3-.2-.5 0-.4.1 0 .1-.1-.1-.4-.1 0-.2-.3 0-.4.1 0 .1-.4-.1-.1-.1.2-.2.1 0-.2.1-.2 0-.5l-.1-.1c.1 0-.1-.5 0-.6-.1-.2 0 .3-.1.1 0 .2.1.5.1.7l-.1-.1c-.1-.2 0-.4-.1-.6l-.1.1c0 .1.1.2.1.3-.1-.1 0 .5 0 .7 0 0-.1 0-.1-.2-.1.4-.2.4-.3.7 0-.3-.1-.4-.1-.6.1-.1 0-.4 0-.7v.6c-.1-.1 0 .3-.1 0-.1-.1 0-.4-.1-.5-.1 0 0 .5-.1.4V23c-.1-.1-.1.1-.1.3-.1-.5-.1.1-.2-.4-.1.1.1.3 0 .4 0 .2-.1.1-.2 0 0 0 0-.2.1-.1l-.1-.3c-.2-.2 0 .8-.2.5.1-.2 0-.3 0-.5 0 .1-.1 0 0 .3l-.2-.1c0 .1-.1.2-.1.5-.1 0-.2-.3-.2-.4-.1.3-.3-.1-.5.2-.1 0 .1.4 0 .4 0-.4-.1-.3-.2-.5-.2-.2-.3.3-.5.1v-.2c-.1-.1-.2 0-.3 0v-.1c-.2-.3-.3.1-.5.2V23c-.1-.1-.2-.1-.3.2-.1-.4-.1.1-.2-.3v-.1c-.1-.1-.1-.1-.2-.1-.1.3-.1.8-.3.7 0-.6.1-.1.1-.6 0 .1-.1.2-.1.1v-.3c0-.1-.1.6-.1.5 0 .1 0 .2.1.1 0 .3-.2 0-.2.2 0 0 .1.1.1.4-.1-.1-.1.4-.2.7-.1-.2.1-.5 0-.9 0-.1-.1-.5-.1-.6-.1-.1-.1.3-.2.4v-.1c-.1.1-.2.5-.3.3l.1.1c0 .1-.1 0-.1.3 0-.2-.1-.3-.1-.5 0 .6-.3.4-.3.9v-.5c.1 0 .1.2.1-.1-.1 0-.1-.1-.1-.3 0 .4-.2.5-.2.9-.1-.2-.1-.3-.1-.6-.2.2.1.9-.1.9-.1-.3.1-.4-.1-.5v-.1c-.1-.8 0 .6-.2.6 0-.4.1-.3 0-.6-.1.1-.1.8-.2.6v-.2h-.3v-.1c-.1-.2 0 .2-.2-.1v.2c.1.1.2.3.2.1-.1.2.1.5.1.9v-.1c.2.6.4.7.6.9.1-.4.2.2.4-.2 0-.5 0-.1.1-.2-.1.1 0 .4.1.4 0-.1 0-.2.1-.2 0 .2.2.6.3.2.1.2 0 .2 0 .3 0 .3.1-.2.1 0v.1c.1 0 .2.1.3.2 0-.5.1-.2.2-.4 0 .2.1.2.1.3v-.4c0-.3.1.2.2 0v-.1c.1-.2.2.1.3.4.5-1 .9.5 1.5.2 0-.2-.1-.2 0-.5.1-.1.1 0 .1-.1-.1-.1 0 0 0-.1l-.1.1v-.1s0 .1-.1.1c0-.1 0-.5.1-.4v.1c.1 0 0-.1.1-.1l.1.1.2.2c0-.4.2 0 .2 0 0 .3-.1.1-.1.4l.1.2v-.3l.1.1v.1-.1c0 .3.1.1.1.4.2.1.2-.5.4-.1 0-.1 0-.5.1-.4 0 .1.1.1 0 .3l.1-.2c.1.5.2.1.3.3v.1c0-.2.1-.3.1-.3v.3c.1.2 0-.6.1-.4 0-.3-.1-.4-.2-.7.1.3.2.3.1.1.1-.1.1 0 .1.1v-.2c.1 0 .1.4.1.6 0-.3.1-.1.2-.1v.1h.1c0-.2.1-.3.2-.2v.4c.1.2 0-.1 0-.2.1-.2.1.1.2.3.6-.4.9.7 1 .1"/>
  <path class="st2" d="M0 0h183.1v226.7H0z"/>
  <path class="st0" d="M74.7 22.4zm-.6 1.7L74 24l.1.1zm11.4-1.4l.1.2v-.7c0 .3-.1.1-.2.2l.1.3zm-.4-1.7c0-.1-.1-.2-.1-.2l.1.2zm-1.2-.5l.1.1c0-.1-.2-.3-.1-.1m1 2.6v-.2c-.1-.1-.1-.1 0 .2-.1-.2-.1 0 0 0m-1.3-2.5c0 .3-.1-.1-.1.2.1-.2.2.1.1-.2m.8 2.8c.1.3.1 0 .1.1 0 0-.2-.3-.1-.1m-1-1.9v-.2.2c.1-.1.1-.1.1-.2-.1-.1-.2-.2-.2-.5 0 .2 0 .5.1.7m.9 2c.1.1.1.3.2.2-.1-.1-.2-.3-.2-.2v-.3c-.2-.2 0 .3 0 .3M83 21l.1.1c0-.2.1-.1.1-.5-.1.1-.2.2-.2.4m.9 2.1l.1.4c.1 0 0-.1 0-.2 0 0 .1.1.1 0-.1 0-.1-.4-.2-.2m-.1.4v.2l.2.4c0-.2-.1-.3-.2-.6m-2.1-2.2c0 .2.1.3.1.2-.1-.1-.2-.3-.1-.2m.9 2.8c-.1-.1-.1.1-.1.3 0-.1.2-.1.1-.3"/>
  <path class="st2" d="M0 0h183.1v226.7H0z"/>
  <path class="st0" d="M82.5 24.4zm-2 1.3zm.1-.1s.1-.1.1-.2c-.1 0-.1.1-.1.2 0 0 0 .1 0 0m-.5 0v-.2c0-.1-.1.1 0 .2m-4-3.9c-.1-.1-.1 0 0 .2 0 0-.1-.1 0-.2"/>
  <path class="st2" d="M0 0h183.1v226.7H0z"/>
  <path class="st0" d="M76 22v-.1l-.1-.2zm-.4-.3v-.1.1zm0-.1zm.1.1v-.1.1c-.1-.1-.1-.1 0 0m-.2 0l.1.3c0-.2-.1-.2-.1-.5v.2zm-.2.1c-.1-.1-.1.4-.2 0-.1.2.1.7 0 .9.2.2 0-.8.2-.6-.1-.2 0-.2 0-.3m.2.7c-.1-.2-.1-.2 0 0-.1-.1 0 .2 0 0"/>
  <path class="st2" d="M0 0h183.1v226.7H0z"/>
  <path class="st0" d="M75 22h.1l-.1-.1zm-.1 0v-.2s-.1 0 0 .2m-.3-.3c-.1-.1 0 .5.1.3-.1 0-.2-.2-.1-.3m-.5 1s.1-.1 0-.2v.2zm.2 1.3c.1.3.1 0 .1.1 0-.1 0-.2-.1-.1m-.4-1.8c0-.1.1-.1 0 0 .1-.2 0-.2 0 0m-.1.1c0-.1 0-.2-.1-.3-.1-.1-.1-.1-.1.1 0 .1.1.5.1.7.1-.1 0-.8.2-.3v-.6c-.1 0 0 .5-.1.4m.4 1.1l-.1-.2v.3c0 .4 0-.1.1-.1"/>
  <path class="st2" d="M0 0h183.1v226.7H0z"/>
  <path class="st0" d="M73.2 22.8h.1v-.1zm0-.1v-.3zm-.1-.3l.1-.1zm-.2 0v.2c0-.1.1.1.1-.1 0 0-.1 0-.1-.1m-.2 4.6v-.3.3s0-.1 0 0m-.2-.5v.4c.1 0 .1-.2.2-.3 0-.1-.1.1-.1.1l-.1-.2zm-1.7 0v-.3c-.1.1-.1.1-.2.1v.3l.1-.1v.2c.1.1 0-.3.1-.2m-4.5-2.1v-.3c-.1.1 0 .3 0 .3m13.4 15.9c.1-.2 0-.1 0 0zm-.2-.6c.1-.2.1.1.2-.2 0-.2-.1-.2-.2.2"/>
  <path class="st2" d="M0 0h183.1v226.7H0z"/>
  <path class="st0" d="M79.5 40.3l.1-.1v-.1zm-.1.2l.1-.1v-.1zm.1-.7c0 .2-.1.3-.1.5.1 0 .2-.5.2-.4.1-.2-.1 0 0-.4 0-.1 0 .2-.1.3m-3.4.6"/>
  <path class="st2" d="M0 0h183.1v226.7H0z"/>
  <path class="st0" d="M75.3 40.2v-.1zm1.6-.1zm-3.3-3.8v-.1zm.6 4zm2.9-.1v-.1zm-1.9.6zm3.9-1.6c0-.1 0 0 0 0-.1 0-.1.1 0 0m-.8-.4C-.1-.1.1-.6-.1-.1V0c0-.2-.1 0-.1 0v.2c-.1.1.1-.1.1-.2m76.2 40.3c0 .1 0 .1 0 0"/>
  <path class="st2" d="M0 0h183.1v226.7H0z"/>
  <path class="st0" d="M76.6 40.1zm.7.6"/>
  <path class="st2" d="M0 0h183.1v226.7H0z"/>
  <path class="st0" d="M76.5 40.1zm.7.2zm-6.4-7.2v.1c.2-.3-.1 0 .1-.3l-.1.2-.1.2c.1-.1.1-.1.1-.2m2.9 2.5c.1-.1.1-.1.1-.2-.1.2-.3.5-.4.7l.3-.5z"/>
  <path class="st2" d="M0 0h183.1v226.7H0z"/>
  <path class="st0" d="M73.4 36.1v.2-.2zm-2-2.6"/>
  <path class="st2" d="M0 0h183.1v226.7H0z"/>
  <path class="st0" d="M76.6 36.7zm-2.7-.5v-.1zm-2.7 2c.2-.3 0 0 .1-.2l-.1.2c-.1.1 0 0 0 0"/>
  <path class="st2" d="M0 0h183.1v226.7H0z"/>
  <path class="st0" d="M70.8 33zm-.3 5zm3-1.6c0 .1.1-.2 0 0"/>
  <path class="st0" d="M72.9 37l.2-.4.1-.1s0-.1 0 0c-.3.4-.3.4-.3.5m2.2-.3s.2-.2.2-.3c-.1.1 0-.1-.1.1-.1.1-.1.2-.1.2m3.1 1.8c0-.2 0-.1 0 0zm.2.7l.1-.2c-.1.1-.1.2-.1.2m.4-.2zM77 40.2c.1-.1 0 0 0 .1 0-.1-.1 0-.1-.2l-.1.2s0-.1.1-.3c.2-.3 0 .4.1.2m.4.3c0-.1.1-.2 0 0m-6-1.9l-.1.2c.3-.4.1.3.5-.3-.3.8.4-.6.2.1l.1-.1c.2.3.3.9.8.7l-.1.1c.3.5 1 .5 1.4 1 .1-.1.3-.4.4-.5 0 0 .1 0-.1.2-.1.1-.2.2-.2.3.1 0 0 .3.2.1l.1-.2c.1-.1.1 0 .1 0-.1.1-.2.4-.3.4.5-.5-.1.3.2.1.3-.4.7-.8.9-1v.1s-.2.3-.3.3c0 .2.1 0 .1.1.1-.1.2-.3.2-.3 0 .1-.2.3-.1.4l-.1.1c-.1.2.1 0 .1 0-.1.2-.1.3-.2.5.2-.2.1-.1.3-.2.1-.2.2-.2.3-.4h-.1c0 .2 0 0-.2.4.1-.2.4-.5.3-.5.2-.1.1 0 .4-.2-.1 0 .1-.2.2-.3.1 0-.1.1-.2.3 0 0-.1.2.1 0 0 .1-.2.2-.2.4-.2.2 0-.4-.4.4 0 0-.2.2-.3.2 0 .1-.1.4 0 .3l.3-.4s.2-.3.2-.2c-.1.1-.2.3-.1.3l.1-.1c.1 0 .2-.3.4-.3 0-.1.1-.3.1-.5.2-.3.1 0 .1 0l-.1.1.1-.1c0 .2-.3.4-.3.6-.1.3.1-.1.1 0v-.1c.1 0 .1 0 .2-.2l.1-.1c.1-.1.3-.3.1.1 0 .1 0 .2-.1.3v.1l-.2.3c.1 0 .2-.2.4-.5-.1.2.1.1.2 0v-.1s.1-.1.2-.1v.1c-.1.3.2-.1.1 0 0 .1-.2.5-.1.3l.1-.1v.1-.1c.1-.1.1-.2.1-.1v.1h.1l-.1.1v.1c-.1.5.2-.1.1.3.1-.2.1-.3.2-.4l.3-.4c-.1.3-.1.6-.3 1 .1.1.1-.3.2-.4 0-.1.1-.2.1-.4.1-.2.2-.3.2-.2l-.2.3c.1-.1.3-.5.5-.8 0 .1-.2.4-.3.7l.1-.1-.1.2c.1 0 .2-.3.2-.1-.1.2 0 .3-.2.5 0 .1.2-.4.1 0 .1-.2 0-.1.1-.2.2-.4.1-.1.2-.2-.1.2-.1.2-.1.4.1-.1.1-.2.1-.1.1-.2.1 0 .1 0 0-.1 0-.2.1-.4l.1-.1v-.1c.2-.3-.1.3 0 .2-.1.1-.1.1-.2.3l.3-.4-.1.4.1-.2c0 .2-.2.3-.2.4 0 .2.2-.4.1 0l-.1.2s.1-.1.1 0v-.1c.2-.5.2-.3.4-.8.1-.1.2-.4.2-.2s-.1.3-.2.5c0 .1.2-.5.3-.5 0-.1.1-.3.1-.4 0 0 0-.2-.1.1v.1c-.1.1-.1.2-.1.2s.1-.2.1-.3c0-.1-.2.5-.3.5v-.1c-.1.1-.1.1-.3.4.1-.3-.1.1-.1-.1.3-.7.1.1.3-.3 0-.2.2-.3.2-.5l-.2.3c0-.1.2-.5 0-.2-.1.1-.2.4-.2.2l.1-.2c0-.1-.1.1-.1.2 0-.1.1-.3.1-.4-.2.3 0-.1-.1-.1-.2.4-.4.5-.5.9l-.2.2c.1-.2.3-.5.4-.9h.1c.2-.5-.3.3-.1-.3v-.2l-.2.4c0-.1.1-.4.2-.4l.1-.1c.1-.2 0-.2 0 0V39l.1-.2-.2.2c0 .1-.1.3-.2.5 0-.2-.1-.1 0-.5.1-.1.2-.3.2-.3 0-.1-.1.1-.2.3.1-.1.1-.2.1-.3v-.1c-.2.3-.2.1-.2.3-.1.2-.3.5-.2.3.2-.2.1-.4.3-.4.2-.5-.2.3-.2.1l.1-.2c.1-.2.1-.1.2-.2.1-.2.1 0 .3-.3V38c-.3.2-.2-.2-.6.3 0 0 0 .1-.1.2v-.1l-.1.2c.1-.2.1-.3.2-.5-.1.2-.1.2-.2.3-.1.2-.2.3-.2.2.1-.2.1-.2.2-.3 0 .1-.1.2-.1.2 0-.1 0-.2.1-.3v.1s.1-.2.2-.3h-.1c.1-.2.1-.2.2-.3-.1.1-.4.5-.5.5.1-.1.3-.5.2-.4 0-.1-.3.4-.4.4l.1-.1c-.1-.2-.2-.3-.1-.8l-.3.4.1-.3c0-.3-.2-.2-.5-.1-.1 0 .1-.3.2-.4-.1-.1-.4.3-.5.3.1-.1.3-.4.3-.5-.1.1-.2.3-.2.2l.1-.1c.1-.2 0 0 0-.1-.1 0-.3.2-.7.6 0-.1.3-.4.3-.5 0 .2.1 0 .2-.2-.1.1-.2.1 0-.1 0 0-.1 0-.2.1.1-.1 0 .1-.1.2 0-.1-.1-.1.1-.4-.2 0-.4-.2-.6-.4-.1.2 0 .1-.1.2-.2.2 0-.1-.1 0l.1-.2c0-.1-.3.2-.5.4.1-.2.1-.2.2-.3 0 0 .5-.9.4-.8l-.5.9c-.1.1-.1 0-.1.1l.2-.4c.1-.2.1-.2.2-.1.2-.4.1-.3.3-.6-.1 0-.1.2-.2.3v-.1.1c-.1.1-.3.4-.2.1l-.3.3c.2-.3 0-.1 0-.2l.1-.2v-.2c.2-.2 0 .1.2-.2V35c-.1.2-.2.3-.2.4-.2.3-.4.5-.5.5.1-.3.2-.2.4-.5 0-.2-.6.7-.6.6 0-.2-.2.1-.2.1l.2-.4.2-.2c-.1 0 0 0 .1-.2-.2.3-.2.2-.4.3l-.1.2c-.1.1-.2.2-.2.1-.1 0-.2.2-.4.5.1-.2.2-.5.4-.7-.1.1 0 .1 0 .2.2-.2.5-.6.5-.4.4-.5-.1 0 0-.2.1-.1.2-.1.3-.4-.1 0-.4.5-.3.3-.1.1.1-.3.1-.4-.2.2-.4.6-.4.5l.2-.3c-.1-.1-.3.4-.4.4 0 .1-.2.3-.2.3-.1.2-.2.2-.2 0 0 0-.1.1-.1.2-.1.2.2-.2 0 .2l.2-.3c0 .1-.2.4-.3.5 0 0 .1 0 0 0-.3.5.1-.2-.2.2-.2.3-.2.2-.3.2.1-.2.1-.3.2-.5l.1-.1c.1-.2-.1.1-.2 0V36v.1-.1s-.1.1-.1 0l-.1.2.1-.1s0 .2-.1.3c-.1.1.1-.3.2-.5.2-.3.1 0 .1-.1.2-.3 0-.1 0-.3.2-.3.1 0 .3-.3 0-.1-.2.2-.2 0 .1-.2.2-.1.3-.4v-.1c.1 0 .2-.4.4-.5.1-.2-.2.3-.1 0-.1.2-.2.5-.3.6v-.1c.1-.2.3-.3.3-.5l-.1.1c-.1.1-.1.2-.2.3 0-.1-.3.4-.4.5v-.2c-.2.3-.3.2-.5.5.2-.2.2-.4.3-.5.1 0 .3-.4.4-.6-.1 0-.3.4-.3.5 0-.2-.2.2-.1 0 0-.1.2-.3.3-.5 0 0-.2.4-.3.3l.1-.1c0-.1-.1.1-.2.2.2-.5-.1 0 .1-.4-.1.1-.1.2-.2.4s-.1 0-.1-.1c0 0 .1-.1.1 0l.1-.3c0-.3-.4.6-.4.3.1-.1.1-.2.3-.4-.1.1-.1-.1-.2.2v-.2c-.1.1-.2.2-.3.4 0-.1 0-.3.1-.4-.2.2-.1-.3-.3-.1-.1-.1-.2.4-.2.4.2-.4.1-.3.1-.5s-.3.2-.3-.1c0-.1.1-.2.1-.2 0-.2-.1-.1-.2-.2 0-.4-.3 0-.4 0l.1-.2c0-.1-.1-.2-.3.1.1-.4-.1.1-.1-.3V33c0-.1 0-.1-.1-.2-.2.2-.4.7-.5.5.2-.5.1-.1.3-.5-.1.1-.1.2-.1 0 .1-.2 0-.1.1-.3 0-.2-.3.5-.3.5v.2c-.1.3-.1 0-.2.1 0 0 0 .1-.1.4 0-.1-.2.4-.4.6 0-.3.2-.4.3-.8 0-.1.1-.4.2-.6 0-.1-.2.2-.3.3v-.1c-.1 0-.3.5-.3.2v.1c0 .1-.1 0-.1.2l.1-.5c-.2.6-.3.3-.5.8 0-.1.1-.4.1-.5 0 .1 0 .2.1 0v-.3c-.1.3-.3.5-.4.8 0-.2 0-.3.1-.6-.2.2-.1.9-.3.9 0-.3.1-.4.1-.5.1-.8-.2.5-.2.5.1-.4.1-.3.1-.6-.1.1-.2.7-.3.6V34c-.1 0-.1-.1-.2-.1v-.1c-.1-.2-.1.2-.1-.1l-.1.2c0 .2 0 .4.1.1-.1.2 0 .6-.1.9v-.1c0 .6.1.8.2 1 .2-.4.1.2.2-.1.1-.5 0-.1.1-.2-.1.1-.1.4-.1.4 0-.1.1-.2.1-.2 0 .2-.1.6.1.3 0 .2-.1.2-.1.3-.1.3.1-.2.1 0v.1c.1 0 .1.1.1.2.1-.5.1-.2.2-.3-.1.2 0 .2 0 .3l.1-.3c.1-.3 0 .2.1.1v-.1c.1-.1.1.2 0 .5.6-.8.2.7.6.6.1-.1.1-.2.2-.4h.1v-.1l.2.1v-.1l-.1.1c.1-.1.2-.4.2-.3l-.1.1s.1-.1.1 0v.3c.2-.4.1 0 .1.1-.1.3-.1.1-.2.4l-.1.2.1-.2v.1c0-.1.1-.2.1-.1l-.1.1.1-.1c-.1.2 0 .1-.1.4 0 .2.3-.3.2.1.1-.1.2-.4.2-.4l-.1.2.1-.1c-.2.5 0 .2 0 .4l-.1.1.2-.2-.1.2c0 .2.3-.5.3-.3.1-.3.2-.4.3-.7-.1.3-.1.3 0 .1.1-.1 0 0 0 .1l.1-.1s-.2.3-.3.5c.2-.3.1 0 .1 0v.2c.1-.2.2-.2.2-.1l-.2.3c-.1.2.1-.1.1-.2.1-.1 0 .1-.1.3.3-.2-.1.7.2.2"/>
  <path class="st2" d="M0 0h183.1v226.7H0z"/>
  <path class="st0" d="M74.5 35.4zm-1.3 1.2v-.1.1zm5.8 4.3l-.1.2c.1-.1.2-.4.3-.6-.1.2-.1.1-.2.1v.3zm.6-1.6c0-.1.1-.2.1-.3l-.1.1v.2zm-.3-.9v.1c.1-.1.1-.3 0-.1m-.9 2.6l.1-.1c0-.1 0-.1-.1 0 .1-.1 0 .1 0 .1m.8-2.7c-.1.3 0-.1-.1.1.1 0 0 .2.1-.1M78 41c-.1.3 0 .1 0 .1s.1-.3 0-.1m.6-2c.1-.2.1-.2.1-.1l-.1.1c.1-.1.1 0 .2-.1 0-.2 0-.3.2-.5-.2.1-.3.4-.4.6"/>
  <path class="st0" d="M77.9 41c0 .1-.1.3 0 .3 0-.1.1-.4 0-.3l.2-.3c0-.2-.2.4-.2.3m.9-2.6v.1c.1-.2.1-.1.3-.3-.1 0-.3.1-.3.2m-.8 2.1l-.2.3c0 .1.1-.1.1-.2 0 .1 0 .1 0 0 0 .1.2-.2.1-.1m-.3.3l-.1.1-.1.4c0-.1 0-.2.2-.5m0-.2l-.3.4c.2-.2.2-.2.3-.4m.4-2.6c-.1.1-.1.3-.1.2.1-.1.1-.3.1-.2m-1.3 2.7c0-.1-.1 0-.2.1 0-.1.1.1.2-.1"/>
  <path class="st2" d="M0 0h183.1v226.7H0z"/>
  <path class="st0" d="M76.5 40.8zm-1.6 0zm.1-.1c0 .1.1 0 .2-.1-.1 0-.2.1-.2.1-.1.1-.1.2 0 0m-.2-.2c.1-.1.1 0 .1-.2 0 0-.1.1-.1.2m.7-4.9c0-.1 0 0-.1.2 0-.1.1-.2.1-.2"/>
  <path class="st2" d="M0 0h183.1v226.7H0z"/>
  <path class="st0" d="M75.3 35.7l.1-.1.1-.1zm0-.4zm.1 0zm0 0l.1-.1-.1.1m-.1 0l-.2.3c.1-.1.1-.2.3-.5l-.1.2zm-.2 0c0-.1-.3.3-.1 0-.2.1-.3.6-.5.7 0 .2.5-.6.4-.4.1-.3.2-.2.2-.3m-.3.6c.1-.2.1-.2 0-.1 0 0-.2.3 0 .1"/>
  <path class="st2" d="M0 0h183.1v226.7H0z"/>
  <path class="st0" d="M74.8 35.3h.1v-.1zm0-.1l.2-.2c-.1.1-.1 0-.2.2m0-.4c0-.1-.3.4-.2.3.1 0 .1-.2.2-.3m-.8.6s.1 0 .1-.1l-.1.1zm-.7 1.1c-.2.3.1 0 0 .1.1 0 .1-.1 0-.1m.9-1.6c.1-.1.1 0 0 0 .1-.1.1-.1 0 0"/>
  <path class="st0" d="M74.1 35c.1-.1.1-.2.1-.2 0-.2 0-.2-.1 0-.1.1-.2.5-.3.6.1-.1.5-.6.2-.2l.3-.5c0-.1-.2.3-.2.3m-.5 1l.1-.2c-.1.2-.1.2-.2.2-.2.4.1 0 .1 0"/>
  <path class="st2" d="M0 0h183.1v226.7H0z"/>
  <path class="st0" d="M73.5 35.1l.1-.1zm0-.1l.1-.1.1-.1zm.1-.3h.1zm0-.1l-.1.2s0 .2.1-.1c-.1.1-.1 0 0-.1M71 38.4l.2-.3-.2.3c0-.1 0-.1 0 0m.1-.5l-.2.3c0 .1.2-.2.2-.3.1 0-.1.2-.1.1l.1-.1zm-.7-.6c.1-.2.1-.2.2-.3-.1.1-.1.1-.2.1 0 .1-.2.3-.1.3l.1-.1-.1.1c0 .1.1-.3.1-.1m-1.7-3.1v-.3.3m-54-13c-.1.3 0 .1 0 0z"/>
  <path class="st2" d="M0 0h183.1v226.7H0z"/>
  <path class="st0" d="M14.7 21.3zm.2.3c-.2.2-.1-.1-.3.2-.1.1.1.1.3-.2"/>
  <path class="st2" d="M0 0h183.1v226.7H0z"/>
  <path class="st0" d="M14.9 21.3l-.1.2.2-.2zm.1-.1h-.1l.2-.1zm0 .6c0-.2.1-.3.2-.4-.1 0-.3.5-.3.3-.1.2.1.1-.1.4-.1.1.1-.2.2-.3m3.8-.4"/>
  <path class="st2" d="M0 0h183.1v226.7H0z"/>
  <path class="st0" d="M19.8 21.5v.1-.1zm-1.8.3v-.1.1zm4.9 3.6v-.1zm-2-4.1zm-3.2.4zm2-.7zm-4.2 1.5c0 .1 0 .1 0 0 .1 0 .1 0 0 0m1 .6"/>
  <path class="st0" d="M15.6 22.5c0 .1-.3.6 0 .1v-.1c0 .2.1 0 .2 0l.1-.1v-.1c-.1-.1-.2.1-.3.2m3.2-1c0-.1 0 0 0 0"/>
  <path class="st2" d="M0 0h183.1v226.7H0z"/>
  <path class="st0" d="M18.4 21.8zm-.9-.6c0-.1 0 0 0 0"/>
  <path class="st2" d="M0 0h183.1v226.7H0z"/>
  <path class="st0" d="M18.4 21.8zm-.7-.2zm8.9 6.7v-.1c-.2.3.1 0-.1.3l.1-.2.1-.2c-.2 0-.1 0-.1.2M22.9 26c0 .1-.1.2-.1.2.1-.2.2-.6.3-.8l-.2.6z"/>
  <path class="st2" d="M0 0h183.1v226.7H0z"/>
  <path class="st0" d="M23.2 25.4v-.1zm2.7 2.5"/>
  <path class="st2" d="M0 0h183.1v226.7H0z"/>
  <path class="st0" d="M19.2 25.3zm3.3.2h.1zm2.7-2.5c-.1.4 0 0 0 .2V23c.1 0 0 0 0 0"/>
  <path class="st2" d="M0 0h183.1v226.7H0z"/>
  <path class="st0" d="M26.6 28.3l-.1.1.1-.1zm-.5-5zM23 25.2l-.1-.1v.1c.1-.1 0 .2.1 0"/>
  <path class="st0" d="M23.5 24.5l-.2.4v.1s0 .1 0 0c.2-.4.3-.5.2-.5m-2.4.6c0 .1-.1.2-.1.3.1-.1 0 .1.1-.1-.1-.1 0-.2 0-.2m-4.3-1.7c-.1.2 0 .1 0 .1v-.1zm-.4-.7l-.1.2c0-.2.1-.2.1-.2m-.5.1zm2-1.1c-.1.1 0-.1 0-.2 0 .1.1 0 .1.2l.1-.2s0 .1-.1.3c-.1.3 0-.3-.1-.1m-.4-.4c-.1.2-.1.2 0 0m7.3 1.4l.1-.2c-.3.4-.2-.3-.5.3.1-.8-.3.7-.2-.1v.1c-.4-.3-.7-.8-1.2-.6l.1-.2c-.5-.5-1.3-.4-1.8-.8-.1.1-.2.5-.3.6 0 0-.1 0 0-.2.1-.1.1-.3.2-.3-.1 0-.1-.3-.2-.1v.3c-.1.1-.1 0-.1 0 .1-.1.1-.4.2-.4-.4.5 0-.3-.2-.1-.2.5-.5.8-.8 1.2v-.1c.1 0 .2-.4.2-.3 0-.2-.2 0-.2-.1 0 .1-.1.3-.2.3 0-.1.1-.3.1-.4l.1-.1c.1-.2-.1 0-.1.1.1-.2 0-.3.1-.5-.2.3-.1.1-.3.2 0 .2-.1.3-.2.4l.1-.1c0-.2.1 0 .2-.4 0 .2-.3.6-.2.5-.2.1-.1 0-.4.2.1 0-.1.2-.1.3-.1 0 0-.1.1-.4 0 0 0-.2-.1 0 0-.1.1-.3.2-.4.1-.2.1.4.4-.4 0 0 .2-.3.3-.2 0-.1 0-.4-.1-.2l-.2.4s-.2.3-.2.2c.1-.1.1-.3.1-.3v.1c-.1 0-.2.3-.3.4 0 .1 0 .3-.1.5-.2.3-.1 0-.1.1l.1-.1-.1.1c0-.2.2-.4.2-.6.1-.3-.1.1-.1 0v.1c-.1 0-.1 0-.2.2 0-.1 0 0-.1.1s-.2.3-.1-.1c0-.1 0-.2.1-.3v-.1l.1-.3c-.1 0-.2.2-.4.5 0-.2-.1-.1-.2 0v.1c-.1 0-.1.1-.2.1v-.1c.1-.3-.2.1-.1 0 0-.1.2-.5 0-.3l-.1.1v-.1.1c-.1.1-.1.2-.1.1v-.1h-.1v-.2c.1-.5-.2.1-.2-.3-.1.2-.1.3-.2.4l-.3.4c.1-.3.1-.6.3-1-.1-.1-.1.3-.2.4 0 .1 0 .2-.1.4s-.2.2-.2.2l.2-.3c-.1.1-.4.5-.6.8 0-.2.2-.4.3-.7h-.1l.1-.2c-.1 0-.2.3-.2.1.2-.2 0-.3.2-.5 0-.1-.2.3-.1 0-.2.2 0 .1-.1.2-.2.4-.2.1-.2.2.1-.2.1-.2.2-.3-.1.1-.2.2-.1 0-.1.2-.1 0-.1 0 0 .1-.1.2-.2.4l-.1.1v.1c-.2.3.1-.3-.1-.2.1-.1.1-.1.2-.3l-.3.3.1-.4c-.1.2 0 0-.2.2 0-.2.2-.2.3-.4 0-.2-.3.3-.1 0l.1-.2s-.1.1-.1 0v.1c-.3.4-.3.3-.6.7-.1.1-.3.4-.3.2.1-.2.2-.3.3-.4 0-.1-.3.5-.4.4 0 .1-.1.3-.2.4 0 0 0 .2.1 0v-.1c.1-.1.1-.2.2-.2 0 0-.1.2-.1.3 0 .1.3-.5.3-.4v.1c.1-.1.2-.1.3-.4-.1.3.1-.1.1.1-.4.7-.1-.1-.3.2 0 .2-.2.3-.3.4l.3-.2c0 .1-.2.4 0 .2.1-.1.2-.3.2-.2l-.1.2c0 .1.1-.1.2-.2 0 .1-.2.3-.2.4.2-.2 0 .1.1.1.2-.4.4-.4.5-.8l.2-.2c-.1.2-.3.5-.5.8l-.1-.1c-.2.5.3-.2.1.3 0 0 .1 0 0 .2l.2-.4c0 .1-.1.4-.2.4h.1l-.1.1c-.1.3 0 .2 0 0l.1-.1-.2.5.1-.1c0-.1.1-.3.2-.5 0 .2.1.2 0 .6 0 0-.1.1-.1.2s.2-.1.2-.3c0 .1-.1.2-.1.3v.1c.2-.3.2-.1.3-.3v-.1c.1-.2.3-.5.2-.3-.2.2-.1.4-.3.4-.2.5.2-.3.2-.1v.2c-.1.2-.1.1-.2.2-.1.2-.2 0-.4.2l.1.2c.3-.2.4.2.8-.2 0 0 0-.1.1-.2v.1l.1-.2c-.1.3 0 .3-.1.5 0-.2 0-.2.1-.4s.2-.4.2-.2c-.1.2-.1.2-.1.3 0-.1.1-.2.1-.2 0 .1 0 .2-.1.4v-.1s0 .2-.1.3h.1c0 .2-.1.2-.2.3.1-.1.4-.5.5-.6 0 .1-.2.5-.2.4 0 .1.3-.4.4-.4l-.1.1c.1.3.3.3.3.8l.2-.4v.5c.1.3.4.1.6.1.1 0-.1.3-.1.4.1.1.3-.4.5-.4-.1.1-.2.5-.2.5.1-.1.1-.3.1-.2v.1c0 .2.1 0 .1.1.1 0 .3-.2.6-.6.1.1-.2.4-.2.5 0-.2-.1.1-.2.2.1-.1.2-.2.1.1.1 0 .1 0 .2-.2-.1.1 0-.1.1-.2 0 .1.2.1 0 .4.3 0 .5.2.8.3.1-.2 0-.1.1-.2.2-.2 0 .2.1 0l-.1.2c.1.1.3-.3.4-.4-.1.2 0 .2-.1.3.1 0-.3 1-.2.8l.3-1c0-.1.1 0 .1-.1 0 .2-.1.5-.1.5-.1.3-.1.2-.1.2-.2.4 0 .3-.2.7.1 0 .1-.2.2-.4v.1-.2c.1-.1.2-.4.2-.2l.2-.4c-.1.3 0 .1 0 .2l-.1.2v.2c-.1.3 0-.1-.1.2v.1c.1-.2.2-.3.2-.4.2-.3.3-.6.4-.5-.1.3-.2.3-.2.6.1.2.4-.8.5-.7 0 .2.1-.1.2-.1-.1.2 0 .3-.1.5l-.1.2c.1-.1 0 0 0 .2.1-.3.2-.2.3-.4l.1-.3c.1-.1.2-.2.2-.1.1-.1.2-.3.3-.5 0 .2-.1.5-.3.8v-.2c-.2.2-.4.7-.5.5-.3.6.1 0 .1.2v.1c-.1.1-.2.1-.3.4.1 0 .3-.6.2-.3.1-.2 0 .3 0 .4.1-.2.3-.7.3-.6l-.2.3c.1 0 .2-.5.3-.4 0-.1.1-.3.1-.4.1-.2.2-.2.2-.1 0 0 0-.1.1-.2 0-.3-.2.2-.1-.2l-.2.4c0-.2.1-.4.2-.6 0 0 0 .1 0 0 .2-.6 0 .2.2-.2.1-.4.2-.3.2-.2 0 .2 0 .3-.1.5v.2c0 .2.1-.1.2-.1v.1-.1.1s.1-.1.1 0l.1-.2-.1.1s0-.2.1-.3c.1-.1 0 .3-.1.5-.1.4-.1 0-.2.1-.1.4.1.1.1.3-.2.4-.1 0-.2.3 0 .1.1-.2.2-.1l-.2.4v.1c-.1 0-.1.5-.3.6 0 .2.2-.3.1 0 0-.2.1-.5.2-.6v.1c0 .2-.2.4-.2.6l.1-.1c0-.1 0-.2.1-.3 0 .1.2-.4.3-.6v.2c.2-.3.3-.3.5-.6-.1.2-.1.4-.2.6-.1 0-.2.4-.3.6.1 0 .2-.4.2-.5 0 .2.1-.2.1 0 0 .1-.1.4-.2.5.1 0 .2-.4.2-.3v.1c0 .1.1-.1.2-.2-.1.5.1 0 0 .4.1-.1.1-.3.1-.4.1-.2.1 0 .1.1 0 0-.1.1-.1 0l.1.3c0 .3.3-.7.3-.4-.1.1-.1.2-.2.5 0-.1.1 0 .1-.2l.1.2c.1-.1.1-.2.2-.4v.4c.2-.2.2.2.4 0 .1.1.1-.4.2-.4-.1.4 0 .3-.1.5.1.2.3-.2.4.1 0 .1-.1.2-.1.2.1.2.1.1.2.1 0 .4.3 0 .4 0l-.1.2c0 .1.1.2.3-.1 0 .4.1-.1.1.3v.1c0 .1.1.1.1.2.2-.2.4-.7.5-.5-.2.5-.1.1-.3.5.1-.1.1-.2.1 0-.1.2 0 .1-.1.3 0 .2.3-.5.3-.5v-.2c.1-.3.1 0 .2-.1 0 0-.1-.1.1-.4.1.1.2-.4.4-.6 0 .3-.2.4-.3.8 0 .1-.1.4-.2.6 0 .1.2-.2.3-.3v.1c.1 0 .3-.4.4-.2v-.1c0-.1.1 0 .2-.2l-.1.5c.2-.6.3-.3.5-.8 0 .1-.1.4-.2.5 0-.1 0-.2-.1 0v.3c.2-.3.3-.4.5-.8 0 .2 0 .3-.1.6.2-.1.2-.9.4-.9 0 .3-.2.4-.1.5-.2.8.2-.5.3-.5-.1.4-.2.3-.2.6.1-.1.3-.7.4-.5l-.1.2c.1 0 .1.1.2.1v.1c0 .2.1-.2.1.1l.1-.2c0-.2 0-.4-.1-.2.1-.2.1-.5.2-.9l-.1.1c.1-.6-.1-.8-.1-1-.2.4-.1-.2-.3 0-.2.5-.1.1-.2.2.1 0 .1-.4.1-.4-.1.1-.1.2-.1.2 0-.2 0-.6-.1-.3 0-.2.1-.1.1-.2.1-.3-.1.2-.1 0v-.1c-.1 0-.1-.1-.2-.2-.2.5-.1.1-.2.3.1-.1 0-.2 0-.3l-.4.5c-.1.3 0-.2-.1-.1v.1c-.1.1-.1-.2-.1-.5-.7.8-.5-.7-1-.6-.1.1-.1.2-.1.4h-.1v.1l.1-.1v.1l.1-.1c-.1.1-.2.5-.2.3l.1-.1s-.1.1-.1 0v-.1l-.1-.2c-.2.4-.1 0-.1-.1.1-.3.1-.1.2-.4v-.2l-.1.2v-.1c0 .1-.1.2-.1.1v-.1l-.1.1c.1-.2 0-.1.1-.4-.1-.2-.3.3-.3-.1 0 .1-.2.5-.2.4l.1-.3-.1.1c.1-.5-.1-.2-.1-.4v-.1c-.1.1-.2.3-.2.2l.1-.3c0-.2-.2.5-.2.3-.1.3-.1.4-.2.7.1-.3 0-.4 0-.1-.1.1 0 0 0-.1l-.2.4s.1-.4.2-.5c-.1.3-.1.1-.2 0l.1-.1-.1-.1c-.1.2-.2.2-.2.1l.2-.4c0-.2-.1.1-.1.2-.1.2-.1-.1 0-.3-.2.2 0-.8-.2-.2"/>
  <path class="st2" d="M0 0h183.1v226.7H0z"/>
  <path class="st0" d="M22.1 26.3zm1.2-1.2V25v.1zm-7.6-4.4l.1-.2c-.1.1-.3.3-.4.5.2-.2.1-.1.3-.1v-.2zm-.8 1.6c0 .1-.1.2-.1.2l.1-.1v-.1zm.3 1v-.2c0 .2-.1.4 0 .2m1.1-2.5l-.1.1c0 .1 0 .1.1 0-.1.1 0-.1 0-.1m-.9 2.6c.2-.3 0 .2.1-.1 0 .1 0-.1-.1.1m1.4-2.6c.1-.3 0-.1 0-.1-.1 0-.2.3 0 .1m-.7 2c-.1.2-.1.2-.1.1.1 0 .1-.1.1-.1-.1.1-.1 0-.2.1 0 .2 0 .3-.2.5.2-.1.4-.4.4-.6"/>
  <path class="st0" d="M16.9 20.8c0-.1.1-.3 0-.3-.1.2-.2.4 0 .3l-.2.3c-.1.2.1-.3.2-.3m-.9 2.7v-.1c-.1.2-.2 0-.3.3.1 0 .2-.1.3-.2m.8-2.2l.2-.3c0-.1-.1.1-.1.2 0-.1 0-.1 0 0 0-.1-.2.2-.1.1m.3-.3l.1-.1.1-.4c-.1.1 0 .2-.2.5m0 .3l.3-.4c-.2.2-.2.1-.3.4m-.1 2.6c.1-.1.1-.3.1-.2-.1.2-.1.4-.1.2m1.1-2.7c0 .1.1 0 .2-.1-.1 0-.1-.1-.2.1"/>
  <path class="st2" d="M0 0h183.1v226.7H0z"/>
  <path class="st0" d="M18.3 21.1zm1.7-.2zm0 .1c0-.1-.1 0-.2.2.1-.1.1-.2.2-.2 0-.1.1-.2 0 0m.3.2c-.1.1-.1 0-.1.2-.1 0 0-.1.1-.2m.6 5.1c0 .1 0 0 .1-.2 0 .1 0 .2-.1.2"/>
  <path class="st2" d="M0 0h183.1v226.7H0z"/>
  <path class="st0" d="M21 26.2v.2l.1-.3zm.2.4zm-.1 0zm.1 0v.1-.1c-.1 0-.1 0 0 0m.1 0l.1-.3c-.1.1 0 .2-.2.5l.1-.2zm.2 0c0 .1.3-.4.1 0 .2-.2.2-.7.4-.8-.1-.2-.3.7-.4.5 0 .3-.1.2-.1.3m.2-.7c-.1.2 0 .2 0 .1 0 0 .1-.3 0-.1"/>
  <path class="st2" d="M0 0h183.1v226.7H0z"/>
  <path class="st0" d="M21.7 26.6l.1-.1zm.2 0l-.1.2c0-.1 0 0 .1-.2m.1.3c0 .1.2-.4.1-.3-.1.1-.1.3-.1.3m.7-.6s-.1 0-.1.1l.1-.1zm.4-1.3c.1-.3-.1 0-.1-.1l.1.1m-.5 1.8c0 .1 0 0 0 0-.1.1 0 .1 0 0"/>
  <path class="st0" d="M22.8 26.7c0 .1-.1.2-.1.3 0 .2 0 .2.1 0 0-.1.1-.5.2-.7-.1.1-.3.7-.2.2l-.3.5c.1.1.2-.4.3-.3m.2-1.1v.2c.1-.2.1-.2.1-.3.1-.4-.1.1-.1.1"/>
  <path class="st2" d="M0 0h183.1v226.7H0z"/>
  <path class="st0" d="M23.2 26.6l.1-.1zm0 .1v.1l.1-.2zm0 .2h.1zm.2.1v-.2s0-.2-.1.1c.1-.1.2 0 .1.1m2-4.1l-.1.3.1-.3m0 .5l.2-.3c-.1-.1-.2.1-.2.3-.1 0 0-.2.1-.1l-.1.1zm1.1.6c-.1.2-.1.2-.1.3.1-.1.1-.1.2-.1 0-.1.2-.4.1-.3l-.2.1.1-.1c0-.2-.1.3-.1.1m2.4 3.3l-.1.3c.1-.1 0-.3.1-.3M13.8 38.5c-.2-.2-.1-.3-.2-.4-.1 0 .2.5.1.5.1.2.1 0 .2.3.1 0-.1-.3-.1-.4m2.5-2.7"/>
  <path class="st2" d="M0 0h183.1v226.7H0z"/>
  <path class="st0" d="M17.1 35.4l.1.1-.1-.1zm-1.2 1.2c-.1 0-.1 0 0 0"/>
  <path class="st2" d="M0 0h183.1v226.7H0z"/>
  <path class="st0" d="M21.1 37.8v-.1zm-3-3zm-2.5 1.9zm1.2-1.7zm-2.2 3.7c0-.1 0-.1 0 0m.2-.1c.1 0 .1 0 0 0m-.4 0c.1.2.2.7 0 0 .1.1.1-.1.1-.1v-.1h-.1V0m16.5 35.9c0-.1 0-.1 0 0"/>
  <path class="st2" d="M0 0h183.1v226.7H0z"/>
  <path class="st0" d="M16.1 36.3zm-1 .1c0-.1 0 0 0 0"/>
  <path class="st2" d="M0 0h183.1v226.7H0z"/>
  <path class="st0" d="M16.1 36.3zm-.7.3zm9.5 2.9v-.1c-.1.4.1 0 0 .3v-.4.2m-3.6-1.1v.2c0-.2 0-.6.1-.8l-.1.6z"/>
  <path class="st2" d="M0 0h183.1v226.7H0z"/>
  <path class="st0" d="M21.4 37.8v-.1h-.1zm2.9 1.6"/>
  <path class="st2" d="M0 0h183.1v226.7H0z"/>
  <path class="st0" d="M18.2 39.1V39v.1zm2.7-1.1v.1-.1zm1.6-3.1v.2-.2c0-.1 0 0 0 0"/>
  <path class="st2" d="M0 0h183.1v226.7H0z"/>
  <path class="st0" d="M24.9 39.6zm-1.5-4.7zm-2.2 2.7h-.1.1c-.1-.1 0 .3 0 0"/>
  <path class="st0" d="M21.4 36.8v.6s0 .1 0 0c0-.5.1-.6 0-.6m-1.9 1.3c0 .1-.1.2 0 .3 0-.1 0 .1.1-.1l-.1-.2m-3.7.5c.1.2.1.1 0 0zm-.6-.3l.1.2c-.1-.2-.1-.3-.1-.2m-.3.4zm.8-2.1c0 .2-.1 0-.1-.1.1.1.1 0 .2.1l-.1-.2s.1.1.1.3c.1.3-.2-.4-.1-.1m-.6 0c.1.1.1.1 0 0m6.9-1.9v-.2c-.1.5-.2-.2-.4.5-.1-.8-.1.7-.2 0v.1c-.4-.1-.9-.6-1.3-.2v-.2c-.7-.3-1.3.1-2 0-.1.2 0 .5 0 .7 0 0-.1 0-.1-.2v-.4c-.1 0-.2-.2-.2.1l.1.3c0 .1-.1 0-.1 0 0-.1-.1-.4 0-.5-.1.6-.1-.3-.2 0 0 .5-.1 1-.2 1.4l-.1-.1c.1 0 0-.4 0-.4-.1-.1-.1.1-.2 0v.4c0-.1-.1-.3-.1-.4v-.2c0-.2-.1.1-.1.1 0-.2-.1-.3-.1-.5 0 .3-.1.1-.1.3.1.2 0 .3 0 .5l.1-.1c-.1-.1 0 0 0-.4.1.2 0 .6.1.6-.1.2-.1 0-.2.4.1-.1 0 .3.1.4-.1 0 0-.1-.1-.4 0 0-.1-.2-.1.1-.1-.1 0-.3-.1-.4 0-.3.2.3.1-.5 0 0 0-.3.1-.3-.1-.1-.2-.4-.2-.2l.1.5s0 .3-.1.3c0-.1-.1-.3-.1-.3v.1c-.1 0 0 .4-.1.5.1.1.1.3.2.5 0 .3 0 .1-.1.1v-.1.2c-.1-.1 0-.5-.1-.6-.1-.3 0 .2-.1 0v.1c0 .1-.1 0-.1.3v.1c0 .1 0 .4-.1 0V36h-.1v-.3c-.1.1 0 .3 0 .6-.1-.2-.2 0-.2.1l.1.1c-.1 0 0 .2-.1.2v-.1c-.1-.3 0 .2-.1.1 0-.1-.2-.5-.1-.2v.2h-.1v-.2c-.2-.4-.1.3-.3-.1 0 .2.1.3.1.4v.5c-.1-.3-.3-.5-.4-1-.1 0 .1.3.1.4l.2.4c.1.2 0 .3 0 .3l-.1-.3c0 .1.1.6.1 1-.1-.1-.1-.4-.2-.7v.1l-.4-.5c0 .1 0 .3-.1.2 0-.2-.1-.2-.2-.5-.1-.1.1.4 0 .1.1.3.1.1.1.2.1.4 0 .2 0 .3-.1-.2 0-.2-.1-.4v.1c.1.3 0 .1-.1.1l.2.4c0 .1 0 .2-.1.1l.1.1c.1.4-.1-.2-.2-.1v-.4.5l-.2-.3c.1.2-.1 0 0 .2-.1-.1 0-.3-.1-.5-.1-.1.1.4-.1.1l-.1-.2s0 .1-.1 0c0 .1 0 0 0 0 .1.5 0 .4.2.9 0 .1.1.5 0 .3s-.1-.4-.1-.5c-.1 0 .2.6.1.5.1.1.1.3.1.4 0 0 .1.1.1-.1 0-.1 0-.2-.1-.3 0 0 .1.2.1.3.1.1-.2-.5-.1-.5v.1c0-.1 0-.2-.1-.5.1.3 0-.2.1 0 .2.7-.1 0 0 .4.1.1.1.4.1.5v-.3c0 .1.2.5.1.2 0-.1-.1-.4 0-.3l.1.2c.1.1 0-.2 0-.2.1.1.1.3.1.4 0-.3.1 0 .1 0-.1-.4 0-.6-.2-1v-.3c.1.2.1.6.2.9h-.1c.2.5 0-.4.2.2 0 0 0-.1.1.2l-.1-.5c.1.1.1.3.2.4h.1v.2c.1.3.1.2 0 0v-.1.2-.2c0-.1-.1-.3-.2-.5.1.2.2.1.3.4 0 .1 0 .3.1.3v-.4c0 .1.1.2.1.3v.1c-.1-.4 0-.2 0-.4h-.1c0-.3-.1-.5 0-.3 0 .2.1.4.1.5.2.5 0-.3 0-.2l.1.2c.1.3 0 .1 0 .2 0 .2-.1.1-.1.4l.1.1c.1-.4.3 0 .3-.6v-.2.1-.2c.1.3.1.3.2.5.4-.1.4-.1.4-.3 0-.3-.1-.4 0-.3 0 .2 0 .2.1.3v-.3c0 .1.1.1.1.3 0 .1 0 0 0 0 0 .1.1.2.1.3v-.1c0 .2 0 .3.1.4 0-.1 0-.6.1-.7 0 .1.1.5.1.4.1.1 0-.5.1-.5v.1c.2.1.3.1.6.5v-.5l.1.3c.2.3.3 0 .5-.2 0 0 .1.3.1.4.1 0 .1-.5.2-.6v.3c0 .2.1 0 .1.1.1 0 .2-.3.2-.9.1 0 0 .5 0 .6-.1-.2 0 .1 0 .2 0-.1.1-.2.1.1 0 0 .1 0 .1-.2v-.2c0 .1.1 0 .1.4.2-.1.5 0 .7 0v-.2c0-.3 0 .1.1-.1v.2c.1 0 .1-.4.2-.6 0 .3.1.2 0 .4 0 0 .1 1.1.1.9l-.1-1v-.1c0 .2.1.4.1.4 0 .3 0 .2-.1.2 0 .4.1.3.1.7.1-.1 0-.2 0-.4v.1-.1c0-.1.1-.5.1-.2l.1-.4c0 .3 0 .1.1.1v.2s.1 0 .1.2v-.2c0-.4.1-.7.2-.6 0 .3-.1.3 0 .6.1.1.1-.9.2-.8.1.1.1-.2.2-.2 0 .2.1.2.1.5v.4c0-.3.1-.3.2-.4V38c0-.1.1-.3.2-.2.1-.1.1-.3.1-.6v.8c0-.1 0-.1-.1-.1-.1.2-.2.8-.3.7 0 .6.1-.1.1.2v.1c0 .1-.1.2-.1.5.1-.1 0-.6.1-.4 0-.2.1.3.1.4 0-.2 0-.8.1-.7v.4c.1 0 .1-.5.1-.5v-.4c0-.2.1-.2.1-.1v-.2c0-.3-.1.2-.1-.1v-.2s0 .1 0 0c0-.6.1.2.1-.3 0-.4.1-.3.1-.3 0 .2.1.2.1.5l-.1.1c0 .2.1-.1.1-.1v.1-.1.1s.1-.2.1-.1v-.2.1s-.1-.2 0-.3c.1-.2.1.3.1.5 0 .4-.1 0-.1.1 0 .4.1 0 .1.3 0 .4-.1 0-.1.4.1.1.1-.2.1-.1 0 .2-.1.2-.1.4v.1c-.1 0 0 .5-.1.6 0 .2.1-.3.1-.1v-.7.1c0 .2-.1.4 0 .6l.1-.1v-.4c0 .1.1-.5.1-.6 0 0 .1 0 .1.2.1-.4.2-.3.3-.7-.1.2 0 .4 0 .6-.1 0-.1.4-.1.7 0 0 .1-.4.1-.6.1.2 0-.3.1 0v.5c.1 0 0-.5.1-.4v.1c0 .1.1-.1.1-.3 0 .5.1-.1.1.4.1-.1 0-.3 0-.4 0-.2.1 0 .1 0s0 .1-.1.1v.3c.1.2.1-.8.2-.5-.1.2 0 .3-.1.5 0-.1.1 0 .1-.2l.1.2c0-.1.1-.2.1-.4.1 0 .1.3.1.4.1-.2.2.2.3-.1.1.1 0-.4.1-.4 0 .4 0 .3.1.5s.2-.3.3 0v.2c.1.1.2.1.2.1v.1c.1.3.2-.1.4-.2v.3c.1.1.2.2.2-.2.1.4.1-.1.1.3v.1c0 .1.1.1.1.1.1-.3.2-.8.3-.6 0 .6-.1.1-.1.6 0-.1.1-.2.1-.1v.3c0 .1.1-.6.1-.5V39c0-.3.1 0 .2-.2 0 0-.1-.1 0-.4.1.1.1-.4.2-.6.1.3-.1.5-.1.9v.6c.1.1.1-.3.2-.3v.1c.1 0 .2-.5.3-.3v-.1c0-.1.1 0 .1-.3v.5c0-.6.2-.4.3-.9v.5c-.8.1-.8 0-.8.2 0 0 .1.1.1.3.1-.4.2-.5.2-.9 0 .2.1.3 0 .6.1-.2-.1-.9.1-.9.1.3-.1.4 0 .5.1.8.1-.6.1-.5 0 .4-.1.3 0 .6.1-.1.1-.7.2-.6v.2s.1.1.2 0v.1c.1.2 0-.2.1.1V38c0-.2-.1-.4-.1-.1 0-.2-.1-.5 0-.9v.1c-.1-.6-.3-.7-.4-1-.1.4-.1-.2-.3.1 0 .5 0 .1-.1.2v-.5c0 .1 0 .2-.1.2 0-.2-.1-.6-.2-.2v-.3c0-.3 0 .2-.1 0v-.1c-.1 0-.1-.1-.2-.2 0 .5-.1.2-.1.4 0-.2 0-.2-.1-.3l.1.6c-.1.3-.1-.2-.1-.1v.1c0 .1-.1-.2-.2-.4-.4.9-.6-.6-1-.3v.5c0 .1-.1 0-.1 0v.1l.1-.1v.1s0-.1.1-.1c0 .1-.1.5-.1.4v-.1s0 .1-.1 0V36l-.1-.2c-.1.4-.1 0-.1 0 0-.3.1-.1.1-.4v-.2.3l-.1-.1v-.1.1-.4c-.1-.2-.2.4-.3 0 0 .1-.1.5-.1.4v-.3l-.1.2c0-.5-.1-.2-.2-.3v-.1c0 .2-.1.3-.1.2v-.3c-.1-.2-.1.6-.1.4v.7c0-.3-.1-.3-.1-.1-.1.1 0 0 0-.1v-.4c-.1.3-.1.1-.1 0v-.1l-.1-.1c-.1.2-.1.2-.2.1l.1-.4v.2c-.1.2-.1-.1-.1-.3-.2.4-.3-.6-.4 0"/>
  <path class="st2" d="M0 0h183.1v226.7H0z"/>
  <path class="st0" d="M20.7 39zm.7-1.6v-.1.1zm-7.3 1.5c0 .1.1.2.1.2l-.1-.2zm.8.6l-.1-.1c.1.1.2.3.1.1m-1-2.6v.2c.1.1.1.1 0-.2.1.2.1 0 0 0m1.1 2.5c-.1-.3.1.1 0-.2.1.2 0-.1 0 .2m-.7-2.8c-.1-.3-.1 0-.1-.1 0 0 .1.3.1.1m.8 1.9c0 .1-.1.1-.1.2.1.1.1.2.2.5 0-.2 0-.5-.1-.7"/>
  <path class="st0" d="M14.3 36.5c-.1-.1-.1-.3-.2-.2.1.1.2.3.2.2v.3c.2.2 0-.3 0-.3m1.1 2.6V39c0 .2-.1.1 0 .4v-.3m-.8-2.2l-.1-.4c-.1 0 0 .1 0 .2 0 0-.1-.1 0 0 .1 0 .1.4.1.2m.1-.4v-.2l-.2-.3c0 .1.1.2.2.5m.1.2v-.5.5m1.4 2.2c0-.2-.1-.3 0-.2 0 .1.1.3 0 .2m-.7-2.9c0 .1.1-.1.1-.2 0 .1-.1 0-.1.2"/>
  <path class="st2" d="M0 0h183.1v226.7H0z"/>
  <path class="st0" d="M15.6 35.8zm1.5-1zm0 .1s-.1 0-.1.2c0-.1.1-.2.1-.2 0-.1-.1-.2 0 0m2.7 4.5v-.2.2"/>
  <path class="st2" d="M0 0h183.1v226.7H0z"/>
  <path class="st0" d="M19.9 39.2v.2-.3zm.2.4zm0 0zm0-.1v.1-.1c0 .1 0 .1 0 0m0 0v-.3.5-.2zm.2-.1c0 .1.1-.4.1 0 .1-.2 0-.7.1-.8-.1-.2-.1.8-.2.6.1.2 0 .1 0 .2m0-.7c0 .2 0 .2 0 0 0 .1 0-.2 0 0"/>
  <path class="st2" d="M0 0h183.1v226.7H0z"/>
  <path class="st0" d="M20.5 39.4v-.2zm.3.2c0 .1.1-.5 0-.3v.3m.4-.9v.2-.2zm0-1.3c0-.3 0 0 0 0m.1 1.8c-.1.2-.1.1 0 0-.1.2-.1.2 0 0m.1-.1v.3c0 .2.1.1.1-.1v-.7c-.1.1-.1.7-.1.3l-.1.6c0 .1 0-.4.1-.4m-.2-1.1v.2c.1-.2.1-.2 0-.2.1-.5.1 0 0 0"/>
  <path class="st2" d="M0 0h183.1v226.7H0z"/>
  <path class="st0" d="M21.7 38.9l.1-.1v-.1zm.1.1v.1-.2zm0 .2v-.1zm.2 0V39c0 .1-.1-.1 0 .2-.1-.1 0-.1 0 0m.6-4.5v.3-.3c.1 0 0 0 0 0m.1.5l.1-.3c-.1-.1-.1.2-.1.3-.1 0 0-.2 0-.1v.1zm1.1.3v.3c.1-.1.1-.1.2-.1 0-.1.1-.4 0-.3l-.2.1.1-.1c0-.2 0 .2-.1.1m2.9 2.4v.3c0-.1-.1-.2 0-.3"/>
  <path class="st1" d="M16.4 78.8c-.6.6-1.4-.1-2-.3-2.1 1.3-3.6 3.2-5 5.2-1.6-.5-1.5-2.2-3.2-2.6-2.4-.6-4 1.6-5.8 1.5-1-.6.6-1.6 0-1.8 1.9-.9 4.6-2.3 7.3-1.5 2.2-1.2 7.4-4.1 8.7-.5m.3-14.9c.8.7 1.5 1.4 1.7 2.6 3.5-1 6.4.9 7.3 3.5-1.3.8-2.1-.9-3.2-1.2-2.6-.3-3.7.9-5.8 1.2-.3-2.7-2.7-4.3-4.7-4.4-.2-2.9 3-.8 4.7-1.7"/>
  <path class="st2" d="M0 0h183.1v226.7H0z"/>
  <text transform="translate(22.387 156.846)">
    <tspan x="0" y="0" class="st3 st4 st5"></tspan><tspan x="17.6" y="0" class="st3 st4 st5"></tspan>
  </text>
  <path class="st3" d="M146.2 150h-4.6l1.3-3.9c.5-1.6.9-3.2 1-3.3h.1c0 .1.4 1.7.9 3.3l1.3 3.9zm-5.9 3.7h7.2l1.1 3.2h5l-7.4-18.9h-4.4l-7.2 18.9h4.6l1.1-3.2zm-6.8 3.1v-3.7h-6.9v-4.2h6v-3.5h-6v-3.7h6.7V138H122v18.9h11.5zm-19.3-13c0 1.5-.9 2.4-2.8 2.4h-2v-4.8h1.8c2.1 0 3 .8 3 2.4m6.1 13l-3.4-5.3c-1-1.6-1.7-2.4-2.3-2.8v-.1c2.1-.5 4.1-2 4.1-5.1 0-3.6-2.6-5.6-7.2-5.6h-6.7v18.9h4.6v-7.5h.2c.8 0 1.1.1 2.3 2.1l3.3 5.4h5.1zm-22.7-9.5c0 3.9-1.9 6-5.8 6H90v-11.6h1.6c4.1-.1 6 1.7 6 5.6m4.8-.1c0-5.4-3.4-9.2-10.8-9.2h-6.2v18.9h6c7.5-.1 11-4.3 11-9.7m-20.5 9.6V138h-4.1v9c0 1.5.1 2.8.1 3.1h-.1c-.1-.2-.8-1.6-2.1-3.3l-6.1-8.8H65v18.9h4.1V147c0-1.3-.1-2.6-.1-2.6.1.1.7 1.3 1.9 2.9l6.7 9.5h4.3zM55.8 150h-4.7l1.3-3.9c.5-1.6.9-3.2 1-3.3h.1c0 .1.4 1.7.9 3.3l1.4 3.9zm-5.9 3.7h7.2l1.1 3.2h5L55.8 138h-4.4l-7.2 18.9h4.6l1.1-3.2z"/>
  <path class="st2" d="M0 0h183.1v226.7H0z"/>
  <text transform="translate(153.616 156.846)" class="st3 st4 st5">
    
  </text>
  <path class="st0" d="M137.8 175.7c0-3.4-2.2-4.7-4.7-5.8-2-.9-3.5-1.3-3.5-2.6 0-1.1.8-1.7 2.2-1.7 1.5 0 3 .7 3.6 1.1l1.8-3.2c-.9-.6-2.5-1.6-5.7-1.6-3.5 0-6.3 2.1-6.3 5.4 0 3.1 1.6 4.6 3.9 5.7 2.2 1.1 4.2 1.4 4.2 2.9 0 1.1-.9 1.9-2.7 1.9-2.1 0-3.5-1.1-4-1.4l-1.9 3.2c.8.7 2.9 1.8 6 1.8 4.5.1 7.1-2.1 7.1-5.7m-19.3-7.6c0 1.5-.9 2.4-2.8 2.4h-2v-4.8h1.8c2.1 0 3 .8 3 2.4m6.1 13l-3.4-5.3c-1-1.6-1.7-2.4-2.3-2.8 2.1-.5 4.1-2 4.1-5.1 0-3.6-2.6-5.6-7.2-5.6h-6.7v18.9h4.6v-7.5h.2c.8 0 1.1.1 2.3 2.1l3.3 5.4h5.1zm-18.4 0v-3.7h-6.9v-4.2h6v-3.5h-6V166h6.7v-3.7H94.7v18.9h11.5zm-18.8-9.5c0 3.9-1.9 6-5.8 6h-1.8V166h1.6c4.2-.1 6 1.7 6 5.6m4.9-.2c0-5.4-3.4-9.2-10.8-9.2h-6.2v18.9h6c7.5 0 11-4.2 11-9.7m-20.5 1.9v-11h-4.2v11.3c0 2.6-1 4.2-3.6 4.2-2.8 0-3.8-1.4-3.8-4.4v-11.1h-4.6v11.5c0 5.1 2.8 7.7 8.3 7.7 5.2 0 7.9-2.9 7.9-8.2m-23.5-5.2c0 1.5-.9 2.4-2.8 2.4h-2v-4.8h1.8c2.1 0 3 .8 3 2.4m6.1 13l-3.4-5.3c-1-1.6-1.7-2.4-2.3-2.8 2.1-.5 4.1-2 4.1-5.1 0-3.6-2.6-5.6-7.2-5.6h-6.7v18.9h4.6v-7.5h.2c.8 0 1.1.1 2.3 2.1l3.3 5.4h5.1zm-23.1-13.3c0 1.5-.9 2.2-2.8 2.2h-1.6v-4.2h1.7c1.8-.1 2.7.5 2.7 2m.6 7.6c0 1.6-1.1 2.2-3.1 2.2h-1.9V173H29c2 .1 2.9.9 2.9 2.4m4.6.5c0-2.7-1.9-4.2-4.1-4.5v-.1c2-.5 3.3-1.8 3.3-4.4 0-3.6-3.1-4.7-6.6-4.7h-6.7v18.9H29c4.4 0 7.5-1.3 7.5-5.2"/>
  <path class="st6" d="M107.8 189.3h-.9v8.1h.9v-8.1zm-2.9 8v-.8h-3.3v-3.1h2.8v-.8h-2.8V190h3.2v-.8h-4.2v8.1h4.3zm-7.4-6c0 .9-.5 1.4-1.8 1.4h-1.1V190h1.1c1.2 0 1.8.4 1.8 1.3m.4 3.8c0 1-.6 1.5-2.1 1.5h-1.1v-3.1h1.2c1.4 0 2 .6 2 1.6m.9 0c0-1.1-.8-1.8-1.8-2 .9-.2 1.4-.8 1.4-1.8 0-1.5-1.1-2-2.6-2h-2.1v8.1h2.1c1.8-.1 3-.7 3-2.3m-9.9 1.6v-3.5h-2.7v.8h1.7v2.3s-.6.5-2 .5c-2.1 0-3.1-1.7-3.1-3.4s.9-3.4 3.1-3.4c1 0 1.6.3 2.1.7l.5-.7c-.4-.3-1.2-.8-2.6-.8-2.6 0-4.1 2-4.1 4.2s1.5 4.2 4 4.2c2.1-.1 3-.8 3.1-.9m-8.8.6v-8.1h-.9v6.7l-.8-1.2-3.8-5.5h-.9v8.1h.9v-6.8s.4.6.6 1l4 5.8h.9zm-8.6-3v-5h-.9v5.1c0 1.4-.7 2.3-2.2 2.3-1.5 0-2.2-.8-2.2-2.5v-4.9h-.9v5.1c0 1.9.9 3.2 3.1 3.2 2.1-.1 3.1-1.3 3.1-3.3m-7.6-4.2v-.8h-5.6v.8h2.3v7.3h1v-7.3h2.3zm-7-.8H56v8.1h.9v-8.1zm-2.9 8v-.8h-3.3v-3.1h2.8v-.8h-2.8V190h3.2v-.8h-4.2v8.1H54zm-5.8 0v-.8H45v-7.3h-1v8.1h4.2zm-6.3-.6v-3.5h-2.7v.8H41v2.3s-.6.5-2 .5c-2.1 0-3.1-1.7-3.1-3.4s.9-3.4 3.1-3.4c1 0 1.6.3 2.1.7l.5-.7c-.4-.3-1.2-.8-2.6-.8-2.6 0-4.1 2-4.1 4.2s1.5 4.2 4 4.2c2.1-.1 2.9-.8 3-.9m-8.3.6v-.8h-3.3v-3.1h2.8v-.8h-2.8V190h3.2v-.8h-4.2v8.1h4.3zm-7.4-6c0 .9-.5 1.4-1.8 1.4h-1.1V190h1.1c1.2 0 1.8.4 1.8 1.3m.3 3.8c0 1-.6 1.5-2.1 1.5h-1.1v-3.1h1.2c1.5 0 2 .6 2 1.6m1 0c0-1.1-.8-1.8-1.8-2 .9-.2 1.4-.8 1.4-1.8 0-1.5-1.1-2-2.6-2h-2.1v8.1h2.1c1.8-.1 3-.7 3-2.3"/>
  <path class="st2" d="M0 0h183.1v226.7H0z"/>
  <text transform="translate(107.786 197.346)" class="st6 st7 st8">
    
  </text>
  <text transform="translate(22.384 211.926)" class="st6 st7 st8">
    
  </text>
  <path class="st6" d="M156.2 207.8c0 2.2-1.2 3.3-3.6 3.3h-1v-6.5h.9c2.5 0 3.7 1 3.7 3.2m1 0c0-2.3-1.4-3.9-4.6-3.9h-1.9v8.1h1.8c3.3-.1 4.7-1.9 4.7-4.2m-8.4 4.1v-.8h-3.3V208h2.8v-.8h-2.8v-2.6h3.2v-.8h-4.2v8.1h4.3zm-6.6-8.1h-.9v8.1h.9v-8.1zm-3.4 8.1v-8.1h-.9v3.4h-4.6v-3.4h-.9v8.1h.9V208h4.6v3.9h.9zm-8.1-.6l-.4-.7c-.5.4-1.1.7-2 .7-2 0-3-1.7-3-3.4 0-1.8 1-3.4 2.9-3.4.8 0 1.3.2 1.8.5l.5-.7c-.6-.4-1.2-.6-2.3-.6-2.5 0-4 2-4 4.2s1.4 4.2 3.9 4.2c1.3 0 2.2-.5 2.6-.8m-7.6-1.4c0-1.6-1.2-2.1-2.3-2.6-.8-.4-1.5-.8-1.5-1.6 0-.7.6-1.2 1.4-1.2.9 0 1.4.3 1.7.6l.5-.7c-.3-.2-.9-.6-2.1-.6-1.2 0-2.4.7-2.4 2.1 0 1.3.9 1.8 1.9 2.3.9.5 1.9.9 1.9 1.9 0 .7-.7 1.4-1.7 1.4-1.1 0-1.7-.5-1.8-.7l-.5.7c.3.3 1.1.8 2.3.8 1.6-.2 2.6-1.1 2.6-2.4m-7.4-4c0 .9-.5 1.4-1.8 1.4h-1.1v-2.7h1.1c1.2 0 1.8.4 1.8 1.3m.3 3.8c0 1-.6 1.5-2.1 1.5h-1.1v-3.1h1.2c1.5 0 2 .6 2 1.6m1 0c0-1.1-.8-1.8-1.8-2 .9-.2 1.4-.8 1.4-1.8 0-1.5-1.1-2-2.6-2h-2.1v8.1h2.1c1.8-.1 3-.7 3-2.3m-8.6-.6h-3.1l1-2.8c.3-.7.5-1.4.5-1.4s.2.7.5 1.4l1.1 2.8zm-3.4.8h3.7l.7 2h1l-3.1-8.1h-.9l-3.1 8.1h.9l.8-2zm-6.3-2.1c0 2.2-1.2 3.3-3.6 3.3h-1v-6.5h.9c2.6 0 3.7 1 3.7 3.2m1 0c0-2.3-1.4-3.9-4.6-3.9h-1.9v8.1H95c3.3-.1 4.7-1.9 4.7-4.2m-8.7 4.1v-8.1h-.9v6.7l-.8-1.2-3.8-5.5h-.9v8.1h.9v-6.8s.4.6.6 1l4 5.8h.9zm-8.6-3v-5h-.9v5.1c0 1.4-.7 2.3-2.2 2.3-1.5 0-2.2-.8-2.2-2.5v-4.9h-.9v5.1c0 1.9.9 3.2 3.1 3.2 2.1-.1 3.1-1.4 3.1-3.3M70.5 206c0 .9-.5 1.4-1.8 1.4h-1.2v-2.8h1.1c1.3 0 1.9.5 1.9 1.4m1.6 5.9l-2-2.8c-.5-.7-.7-.9-.8-1 1.3-.1 2.3-.8 2.3-2.1 0-1.4-1-2.1-2.7-2.1h-2.2v8.1h.9v-3.7h.1c.5 0 .7.1 1.6 1.4l1.6 2.3h1.2zm-7.4 0v-.8h-3.3V208h2.8v-.8h-2.8v-2.6h3.2v-.8h-4.2v8.1h4.3zm-6.5-3v-5h-.9v5.1c0 1.4-.7 2.3-2.2 2.3-1.5 0-2.2-.8-2.2-2.5v-4.9H52v5.1c0 1.9.9 3.2 3.1 3.2 2.2-.1 3.1-1.4 3.1-3.3m-9.6.2h-3.1l1-2.8c.3-.7.5-1.4.5-1.4s.2.7.5 1.4l1.1 2.8zm-3.4.8h3.7l.7 2h1l-3.1-8.1h-.9l-3.1 8.1h.9l.8-2zm-3.7-3.9c0 .9-.5 1.4-1.8 1.4h-1.2v-2.8h1.1c1.3 0 1.9.5 1.9 1.4m1.5 5.9l-2-2.8c-.5-.7-.7-.9-.9-1 1.3-.1 2.3-.8 2.3-2.1 0-1.4-1-2.1-2.7-2.1h-2.2v8.1h.9v-3.7h.1c.5 0 .7.1 1.6 1.4l1.6 2.3H43zm-6.9-7.3v-.8h-5.6v.8h2.3v7.3h1v-7.3h2.3z"/>
</svg>
