<?xml version="1.0" encoding="utf-8"?>
<!-- Generator: Adobe Illustrator 19.1.0, SVG Export Plug-In . SVG Version: 6.00 Build 0)  -->
<svg version="1.1" id="Layer_1" xmlns="http://www.w3.org/2000/svg" xmlns:xlink="http://www.w3.org/1999/xlink" x="0px" y="0px"
	 viewBox="0 0 183.1 226.7" style="enable-background:new 0 0 183.1 226.7;" xml:space="preserve">
<style type="text/css">
	.st0{fill:#578EBE;}
	.st1{fill:#575756;}
	.st2{fill:none;}
	.st3{fill:#4A4A49;}
	.st4{font-family:'Kievit-ExtraBold';}
	.st5{font-size:28.35px;}
	.st6{fill:#5D7778;}
	.st7{font-family:'Kievit-RegularSC';}
	.st8{font-size:12.15px;}
</style>
<path class="st0" d="M49.8,23c-0.6,2.2-0.5,4.6-0.3,6.1c-0.8,0.6-2.7,0-3.5,0.6c-1.6-2.1,0.1-4.5-0.3-6.4C46.6,22.7,49,22,49.8,23"
	/>
<path class="st0" d="M44.3,24.8c0,2-0.4,2.1-0.3,4.4c-0.5,0.8-2,0.5-2.9,0.9c-1.1-1.3,0.2-3.2,0-5.2C42.5,25,43.2,24.2,44.3,24.8"/>
<path class="st0" d="M55.6,24.8c-0.9,0.9-0.5,3.2-0.6,5c-0.7-0.5-2,0.4-3.2,0.3c-1.1-1.9-0.2-4-0.3-5.5
	C52.9,25.3,54.6,23.3,55.6,24.8"/>
<path class="st0" d="M47.2,126.5c0.7,0,0.4,1.4,1.2,0.6c6.9-2.5,13.8-5.1,21.6-6.7c-0.1-1.3-0.5-2.3-0.3-3.8
	c-11.7-0.1-28.7,0.1-40.2,4.1c-0.9,0.2-1.4-0.2-2-0.3c-0.7,5.7-1.6,12.8-1.8,18.1C32,133.7,40,130.5,47.2,126.5 M30.6,135.9
	c1.2-0.6,2.6-1,3.5-2C32.9,134.5,31.4,134.9,30.6,135.9 M46.9,71.4c-3.6,0.1-8.8,0.4-13.4,1.2c-0.6,8.2-1.6,17.1-3.2,25.1
	c12.3-0.9,24.4-2,35.6-4.1c-1.3-6.7-2.1-15-3.8-22.2c-4.3,0.2-7.6,1.4-10.8-0.3c0-2.4-0.2-5.9-1.7-8.2
	C47.2,64.4,46.4,68.9,46.9,71.4 M36.1,53.9c0.2,0.8-0.4,0.8-0.3,1.5C43,55.8,51.9,55,60.3,56c0.2-1.6-0.4-2.4-0.3-3.8
	C51.9,52.9,43.3,51.9,36.1,53.9 M30.6,51.9c1.8,0.3,2.3-0.8,4.1-0.6c0-2.7,0.2-3.9,0.6-6.4c-1.6,0.3-1.4,0.2-2.9,0
	C31.6,47.1,30.5,48.9,30.6,51.9 M45.1,44.6c0.1,2.9-0.4,3.4-0.3,6.4c1.3-0.1,2.3-0.5,3.8-0.3c0.2-2.1-0.3-4.8,0.3-6.4
	C47.5,44.2,46.3,44.3,45.1,44.6 M40.5,51h2.9c0.1-2.4,0.6-4.7,0.6-6.4c-1.2,0.2-1.7-0.3-2.6-0.3C40.3,46.2,42.1,50.3,40.5,51
	 M36.7,44.6c0,2.4-1.2,4.3-0.6,6.4c1.7,0.1,2.2-0.4,3.5,0c0.2-1,0.3-5.6-0.3-6.7C39,45,37.5,44.4,36.7,44.6 M55.1,50.7
	c0.8,0.6,2.5,0.2,3.8,0.3c0.3-1.7-0.6-5.7,0-7C54.2,43.4,55.3,48.1,55.1,50.7 M50.1,50.7c1.4,0.2,1.6,0.1,3.8,0.3
	c-0.6-2.3,0-5,0.9-6.7c-2.2,0-2.8-0.1-4.4-0.3C49.8,46,49.7,48.5,50.1,50.7 M60,50.7c1.6-0.1,3,0.1,5.5,0c-0.4-2.7-1.4-4.8-2-7.3
	c-1.3,0.2-3.4,0.3-3.8,0.6C60.5,44.8,60.1,48.6,60,50.7 M46.6,2c1.2-0.2,1.2,0.8,2.3,0.6c1.9,3-0.1,6.4,0.9,8.5
	c1.7,3.6,6.8,4.1,8.5,8.5c0.9,0.1,2.3-0.3,2.3,0.6c-1,1.6-3.3,0.9-5,0.9c-5.9,0-11.2,0.5-15.7,1.5c0.6,6.4-1.7,13-1.8,20.1
	c5.4,1,11.9-0.9,19.5-0.3c-0.4-4.1-0.6-13.2-1.5-20.4c0.8-0.3,1.6-0.3,2.3,0c0.1,5.3,0.2,14.7,1.8,19.2c-0.1,1.4-1.6-0.4-1.8,0.9
	c2.6,0.6,5.8,0.3,7.6,0c0.1,3.9,1.3,6.9,0.6,10.2c-2.4,0.1-2.9,0.3-5.2,0c3.5,22.6,6.5,47.1,12,68.5c1.6,0.2,3.1-0.8,4.4,0
	c-0.2,1.3-1.1,0.9-1.8,2c-2.8,0.1-6.7,0.4-7.6,1.5c-11.1,0.6-18.5,5.6-27.1,8.7c-6.1,2.3-11.4,6.3-16.3,9.6
	c-1.2,2.9-0.5,6.9-1.8,10.2c-2.3-0.6-1.3-5.8-1.2-6.4c-0.5-0.9-1.1,1-1.7,0c-0.5-1,1.4-1.8,1.7-2.9c-0.6-0.5,0.1-2.2-1.2-2
	c-0.1-1.2,1.3-0.8,1.5-1.8c3.2-21,4.5-44.5,9-63.3c-0.6-7.5,2.1-14,2.3-22.7c-1.1-0.5-3.8,0.9-5-0.3c-0.2-3.3,0.5-7.3,1.2-10.2
	c1-0.4,4.6,0.5,6.7-0.3c-0.4-5.4,1.2-13.5,2-19.5c-1.5,0-3,0.3-4.1-0.6c0.3-1.4,1.5-2.9,2.6-4.1c2.2-2.3,5.2-4.7,7.9-6.4
	C45.5,8.7,45.9,5.3,46.6,2"/>
<path class="st1" d="M76.2,122.8c1,0.6-0.4-0.5,0.7,0.4C76.7,123.2,76.5,123.1,76.2,122.8"/>
<path class="st1" d="M22.4,143.9c-0.7-0.7-1.3-1.4-1.9-2.3c-0.3-0.4-0.7-0.9-0.9-1.2l1.6,0c1.4-1,0.8-4.1,1.1-5.9
	c0-0.5,0.3,0.2,0.3-0.9c-0.1-4,0.8-10.2,1.6-14.9l0.1,0.3c0.2-0.9-0.1-2.1,0.1-3c0.1,0,0,0.3,0.2,0.1c-0.2-0.3,0.2-1.8,0.1-2.2
	c0.1-0.4,0.3-0.3,0.4-0.8l-0.1-0.6c-0.3-1.6,0.6-3.7,0.6-5.8c0,0.1,0,0.3,0.1,0.2c0.2-3.4,0.9-7.6,1.3-11.4c0.1,0.2,0.2,0.3,0.3,0.1
	c-0.2-0.2-0.1-1.4,0-2.4c0.3-0.4,0-1.8,0.3-2.9l0,0.1c-0.1-0.9,0.3-1.3,0.1-2l0.3-0.5c-0.3-0.4,0.4-1.2,0.3-2l-0.1,0
	c0-0.7,0.2-1,0.3-1.7l0-0.1c0.1-1.5,0.4-2.3,0.2-2.3c0.3-0.5-0.1,1.4,0.3,0.7c0.5-4.9,1.3-9.9,2-14.8c0.2-0.5,0.3-0.9,0.4-1
	c0-0.5,0.2-1.8,0.2-2.3c0,0.2,0.2-0.3,0.2-0.6c0.2-0.9-0.1-1,0.1-2c0,0.4,0.1,0.5,0.2,0.4c-0.1-0.9,0.1-2,0.2-3c0,0.2,0,0.4,0.1,0.4
	c-0.1-1.1,0.3-2,0.3-2.9l0.1,0.4c0.4-1.5-0.2-0.5,0.1-1.8c0,0.3,0.1,0.2,0.1,0.3c-0.2-0.3,0.5-2.2-0.3-1.5c-0.8,0-1.6,0-2.2,0.1
	c0.1,0,0.1-0.1,0.1-0.1c-0.5-0.3-1.6,0.7-1.8-0.7c0-0.7,0-1.4-0.1-2.2c0.1-0.5,0.4,0.2,0.3-1.2c-0.3,0.1-0.1-2.4-0.5-1.6
	c0-1.2,0.2-3.1,0.1-4c0.1,0.5,0.4-0.6,0.4,0.4l0.2-0.8c0.1,0.1,0,0.8,0.1,0.5c0-0.3,0-0.8-0.1-1.2c-0.7-0.1,0.6-0.1,0.6-0.1
	c0.9-0.2,1.8-0.5,3.3-0.6c-0.7,0.1,0.4,0.3-0.1,0.4c0.4,0,2-0.7,1.5-0.2c0-0.5,0.2-0.1,0.3-0.8c-0.1,0-0.1-0.3-0.1-0.5
	c0.1-0.2,0.2-2.1,0.5-2.3c0.1-0.2,0,0.8,0.1,0.3c0.1-0.9,0-1,0.1-1.9l0,0c0.1-0.6,0.1-1.8-0.1-1.2c-0.1,0.4,0.2-0.1,0,0.5
	c-0.1-0.5,0-1.5,0.1-2.5c0,0.3,0.1,0.3,0.2,0.4c-0.1-1.3,0-2.6,0.1-4c-0.1,0,0.2,0.5,0.1,0.7c0.4-1.8,0.2-3.7,0.7-5.2
	c0,0.2-0.2,0.1-0.2,0.1c0.1-0.9,0.3-0.8,0.3-1.4c0.1,0,0-0.7,0.1-1.3c0-0.3,0.1-0.1,0,0.4c0-0.2,0-0.6,0-1l0-0.4l0,0v0v0
	c1.5,1.7,0.4,0.5,0.8,0.9l0,0l0,0l0,0l-0.1,0l-0.2,0l-0.8,0c-1.1,0-2.4,0-3.4,0c0,0-0.3,0.1-0.6,0.2l-0.3,0l0,0l0,0h0l0,0
	c0.2,0.4-1.3-3.3-0.7-1.7l0,0l0,0l0-0.1l0.1-0.1c0.1-0.1,0.2-0.3,0.3-0.3l0,0.2c0.4-0.2,1-1,1.2-1c0.2-0.4-0.3,0.3-0.9,0.9l-0.4,0.5
	l0,0.1l0,0l0,0l0,0l0,0c0.2,0.5-0.5-1.2,0.5,1.2h0l0,0l0.1,0l0.2,0c0.2,0,0.3,0,0,0l-0.2,0l-0.1,0l0,0h0h0c-0.2-0.5,0.5,1.2-0.5-1.2
	l0,0l0,0l0,0l0,0l0,0l0.3-0.4c0.2-0.3,0.4-0.5,0.4-0.3c0.6-0.6,1.1-1.3,1.8-1.8c-0.2,0.1-0.3,0.7,0.2,0.2c0.8-0.9,0.2-0.3,0.8-1.1
	l0.4-0.5c-0.1-0.2,0.8-0.8,0.3-0.6c0.2,0,1.2-1.3,1.3-1l0,0.3c0.4-0.4,0.4-0.8,0.7-1.2c0.1,0,0.2-0.1,0.2-0.1
	c-0.2-0.3,0.9-0.9,1.2-1.5c0.9-0.7,2-2,2.5-2.2c0.5-0.7,1-1.3,1.7-2c-0.1,0.2-0.3,0.4-0.3,0.4c0.3-0.2,0.4-0.3,0.5-0.5
	c-0.3,0.6-0.1-0.1-0.1-0.2c0,0.1,0.5-1.2,0.7-1.8c0.1-0.9-0.2-0.6-0.3-0.7c0.5-0.7,0.3-2.4,0.8-3.3c0,0.3-0.1,1.2,0.1,0.6
	c0.5-0.7,0.1-1.6,0.5-2.8l-0.4,0.2c0.3-0.5,0.2-1.8,0.5-1.6l0-0.2l0-0.1l0,0l0,0c-1.3,0.4,1.7-0.6,1.4-0.5v0l0,0l0,0l0,0l0.1,0.1
	l0.4,0.3c0.2,0.2,0.4,0.3,0.5,0.2c0.4,0.4,0.8,0.8,1.2,1.2c1,1.9,0.3,1.5,0.5,2.4c0,1.2,0,2.2-0.3,2.8c0,0.3,0,1,0.1,0.9
	c0.2-0.5-0.1-0.7,0-0.9c0,0.3,0.1,0.3,0.1,0.3c-0.1,0.6-0.1,1.1-0.3,0.5c-0.2,1.4,0.5,1.5,0.4,3.3c-0.1,0-0.1,0-0.1,0.1
	c-0.6-1.3,0-0.2,0-0.3l0.9,0.5c0.9,0.8,0.4,0.6,0.3,0.8c0.5,0.4,1.1,0.8,1.4,0.9l0.4,0.7c-0.3-0.5,0.5,0.2,0.7,0.4l-0.3-0.1
	c0,0.1,0.6,0.5,1,0.7c0-0.2-0.5-0.6-0.8-0.9c0.3,0.1,0.7,0.4,1.1,0.6c-0.2,0.1,0.7,0.7,1.1,1.1c0.4,0.4,0.6,0.3,0.7,0.4
	c-0.1,0.1,0.7,0.6,0.3,0.4c-0.2-0.1-0.3-0.4-0.6-0.5c0.3,0.3,0.1,0.4,0.8,0.8c0.5,0.3,0.1-0.4,0.9,0.4c-0.3-0.1-0.4-0.1-0.6-0.2
	l0.8,0.7l0.1-0.1c0.1,0.1,0,0.1,0,0.1c0.4,0.1,1.3,0.9,1.6,0.9c0.4,0.3,0.8,0.8,1.2,1.1l-0.1,0l0.4,0.3l0.2,0.2l0.1,0.1l0,0l0,0l0,0
	h0c0.1,2.6,0,0.7,0.1,1.3l0,0l0,0l0,0c-0.2,0.2-0.5,0.5-0.6,0.7l0,0c-0.3,0.2-0.8,0.8-1.1,1.1c-0.6,0.2-0.9,0.2-1,0
	c0.1,0.9,0.4,1.3,0.5,1c0,1.6,0.4,3.3,0.2,4.7c0.1,0.2,0.1,0.1,0.2,0.5c0.1,2.3,0.5,4.8,0.3,6.6c-0.1-0.7-0.2,0-0.3,0
	c0.2,0.5-0.1,0.7,0.2,0.8c0.2-0.1,0.2,0,0.3-0.7c0.2,1.3,0.3,3.4,0.2,4.2c0.1-0.4,0.1-0.1,0.2,0.2c-0.1,0-0.2,0.2-0.2,0.5l0,0.6
	l0,0.3l0,0.1l0,0l0,0c-1.7-1.8-0.5-0.5-0.9-0.9h0h0l0,0h0l0,0H60l0.1-0.1l0.5,0.2c0.3,0,0.4-0.3,1.1,0c0,0.1,0.1,0.1,0.2,0.2
	c0.8,0,1.9-0.1,2.7,0.1l0.7,0.3c0.4,0,1,0,0.4-0.2l0.3,0.1l0.1,0h0c-0.9-1,1.3,1.3,1,1.1v0v0v0v0l0,0v0.1l0,0.5c0,0.3,0,0.6,0,0.8
	c0,0.5,0,0.8-0.1,1.1c0.3,1.2,0.6,2.7,0.8,4.3l0.2,2.4l0,0.6l0,0.1l0,0l0,0v0c0.9-1.3-1.3,1.7-1,1.4l0,0l0,0l-0.1,0l-0.3,0.1
	l-1.1,0.2l0.1-0.1c-0.8,0.1-0.3,0.3-0.9,0.3c0.2-0.2-0.6-0.1-0.1-0.4c-1.1,0.1-1.4,0.5-2,0.8c-0.1,0.2,0.5-0.2,0.5,0
	c-0.1,0-0.4,0.1-0.8,0.2l0,0l0,0l0,0l0,0c-0.9,1.3,1.2-1.8,1-1.5v0v0l0,0l0,0.1l0,0.1l0.1,0.3c0,0.2,0.1,0.3,0.2,0.3
	c0,0.3-0.3,0.1-0.4,0l0.2,0.7c-0.1,0.9-0.8-1.8-1-0.9l0.1,0.6c-0.1,0.6-0.5-1.6-0.4,0c0.2,0.7,0.7,1.2,0.7,0.6
	c0.3,1.4,0.7,0.6,0.9,2.1c-0.1,0.4-0.2-1.2-0.4-0.9c-0.1,0.7,0.3,1.4,0.4,2.1c0-0.7,0.3-0.2,0.4,0.3c0,0.8-0.3-0.5-0.1,0.6
	c0.2,0.2,0.4,1.1,0.4,0.3c0.4,0.3,0.1,1.1,0.4,1.7c-0.2,0.4-0.7-1-0.6,0.2c0.2-0.2,0.5,1.4,0.7,0.7c0,0.5-0.1,0.6-0.3,0.2
	c0,0.7,0.6,1.6,0.3,1.9l0.2,0.2c0,0.2,0,0.5-0.1,0.9c0.1,0.6,0.6,1.9,0.3,1.9c0.1,0.2,0.3,1.5,0.4,1c0-0.9-0.3-0.9-0.1-1.5
	c-0.1,0.6,0.2,1.2,0.4,1.7l-0.1,0.1c0.1,0.3,0.2,0.9,0.3,1.1c-0.1-0.2-0.2-0.1-0.2,0.2l0.2,0.3c0.3,1.2-0.3,0.3,0,1.5l-0.3-0.8
	c0.1,0.2,0,0.6,0.1,1.1c0.2,0.2,0.5,0.5,0.6,0.7c0.2,0.6-0.1,0.3,0.1,0.9l-0.3-0.8c-0.1-0.1-0.2,0.6,0,1.5c0.2,0.5,0.5,1.3,0.5,0.5
	c0.1,0.4,0.1,1.1-0.1,0.7c0.2,1,0.2-0.2,0.4,0.7c-0.1,0.4,0,1.5-0.1,2.1l-0.4-0.8l0.1,0.6c-0.4-0.7-0.1,0.4-0.4,0
	c0,0.4,0.2,0.9,0.3,1.2c0.2-1.2,0.7,1.2,1,0.8c0.4,1.6-0.7,1.1,0.1,2.7c0-0.3,0.4,0.5,0.2-0.5c0.1,1,0.5,0.6,0.5,1.8
	c-0.3-0.8-0.2,1-0.6-0.2c0.1,0.1,0-0.7-0.1-0.9c-0.1,0.4-0.4,0-0.2,1c0.1,0.6,0.3,1.5,0.4,1.3c0.2-0.1-0.2-0.9,0.1-0.6
	c0.3,1.2,0,1.5,0.4,1.9c-0.2-0.8,0-1,0.2-1l0.2,0.9l-0.2-0.2c0.1,1.5,0.3,0.4,0.5,1.8l-0.2,0.7c-0.3-0.3-0.2-2.1-0.6-1.8
	c0.1,0.9,0.4,1.2,0.4,2.1l-0.2-0.6c0,0.3-0.4,0.7,0.1,2c0.2,0.7,0.2,0.2,0.3,0.2c0.3,1.5,0.5,1.9,0.7,2.8c-0.3-0.2,0.3,1.7-0.2,0.7
	c0.1-0.5-0.3-2.6-0.6-3.1c-0.2,0.6-0.1-1.2-0.5-1.4c0.2,1.2-0.1,1.2-0.3,1.4c0,0.3,0.2,0.6,0.2,0.8c0.2,0.1,0.1-0.3,0.3-0.4
	c0.2,1.3,0.5,2.6,0.8,3.3c0,0.5-0.2,0.3-0.3-0.2c0.3,1.6,0.6,3.2,0.8,4.7c0.2-1,0.4,1.6,0.5,0.9c-0.1-0.8,0.1-1.5,0.3-1.1
	c0.1,0.5-0.1,0-0.2,0.2c0.3,0.6-0.1,1,0.3,1.6c-0.3-1.4-0.4-0.2-0.7-0.4c0.3,1-0.2,0,0,1c0.3,1,0.6,2.3,0.9,3.4
	c0,1.5,0.6,3.6,0.8,4.9c0,0.7-0.4,0.3-0.3,1c0.1,0.9,0.2-0.7,0.3,0.6l-0.1-0.1c0.1,0.4,0.2,2.4,0.7,2.7l-0.4-0.3
	c0,0.2,0.1,0.4,0.2,0.6c-0.1,0-0.1,0.3-0.3-0.1c-0.1,0.8,0.3,1.6,0.5,2.5l0.1-0.6c0.5,1.3,0.2,2.8,0.8,3.5l-0.1,0.1l0.7,0.4
	c-0.3,0,0.3,0.6,0.7,0.7l-2-1c-0.5-0.9,0.7,0.5,0.5-0.1c-0.3,0-0.3-1.5-0.6-1.7c0.1,0.5,0.1,0.5,0.2,0.9c-0.2,0.2-0.3-0.6-0.6-0.9
	c0.1,0.3,0,0.6,0.1,0.7c-0.2-0.5-0.3-1-0.5-1.9c0.2,0.6,0.1-0.3,0.2-0.1c-0.2,0-0.4-0.8-0.5-1.9c0.1-0.8-0.5-2-0.6-3.2
	c0.3,0.5,0.6,1.1,0.8,1.8c0-0.8-0.1-0.9-0.2-1.6c-0.2-0.3-0.5-0.6-0.8-1.6l0.2-0.1c-0.2-0.9-0.5-0.9-0.6-2c-0.2-2-0.6-4-0.8-5.5
	l0.2-0.1c-0.5-0.8-0.6-2.8-0.9-3.9c-0.2-2-0.8-4.2-0.7-5.2c-0.7-3.4-1.3-6.3-1.8-9.9l0.3,0.6c-0.3-0.6,0.1-0.4-0.1-1
	c-0.1,0.7-0.4-0.8-0.6-1.2c-0.1-1.6-0.6-3.6-1-4.9l0.2-0.1c-0.5-1.4-0.6-3.1-0.8-4.8c0-0.2,0.1-0.6,0-1.1c-0.4-0.9-0.5-1.4-0.9-2.8
	c-0.2-1-0.4-2.7-0.4-3.7c-0.5-1.9-0.9-3.8-1.2-5.8l-0.5-2.9l-0.3-1.5l-0.1-0.4l0,0c-0.2,0.3,1.6-2.4,0.8-1.2l0,0l0,0l0,0l0,0l0.1,0
	l0.2-0.1l0.7-0.2l0.3,0.1c0.9-0.3,1.9-0.6,2.9-0.9l0.4-0.1l0,0l0,0l0,0h0c0.2-0.3-1.7,2.3-0.9,1.2v0l0-0.1l0-0.2l-0.1-0.8l-0.1-1.6
	C65.1,48,65,46,64.8,44.3l0.4,0.3c0-0.5-0.1-1.1-0.2-1.5l0-0.2l0-0.1l0,0l0,0l0,0c0.4,0.4-0.8-0.9,0.8,0.9h0h0l0,0l-0.2,0
	c-0.1,0-0.2,0.1-0.1,0.2c-1-0.2-2.6-0.2-3.2-0.5c-1.1-0.2-1.3,0-2.2-0.1l-0.2,0l-0.1,0l0,0l0,0l0,0h0h0c-0.5-0.5,1.1,1.2-1.1-1.2v0
	l0-0.4l0-0.6c0-0.4,0-0.8-0.1-1.1c0-0.7-0.1-1.4-0.2-2.4l0,0.5c0.1,0.2,0.2,0.2,0.2-0.3c-0.1-0.7-0.1-2.8-0.4-2
	c0.1-2.2-0.5-5-0.3-7.1c-0.1,0.2-0.1-0.3-0.2-0.6l-0.1-2.8l-0.1-1.3l-0.1-0.6l0-0.1l0,0l0,0v0c-0.4,1,0.6-1.3,0.5-1.1l0,0l0,0
	l0.1-0.1l0.2-0.2c0.3-0.2-0.2,0.5,0.3,0c0.3-0.3-0.1-0.1,0.3-0.5l1.7-1.6l0.1,0l0,0l0,0c-0.1-2,0.1,2.7,0.1,2.2l0,0l0,0l0,0
	l-0.1-0.1l-0.2-0.2l-0.5-0.4l-0.9-0.7c-1.2-0.9-2.4-2-3.5-2.8c-2-1.4-4.1-3-6-4.5l-0.7-0.6l-0.2-0.1l-0.1-0.1l0,0
	c0.5,1-0.7-1.3-0.5-1.1v0v0v0v-0.1l0-0.5l0-1.9l0-3.6l0.1,0.1c-0.2-0.8-0.1-1.7,0-2.6c0.3,1.3-1-0.7-1.4-0.5l-0.3-0.3L46,1.8l0,0
	l0,0l0,0l0,0v0c1-0.3-2.2,0.8,2.3-0.8v0l0,0l0,0l-0.1,0.2C48,1.5,48,1.6,47.9,1.5c-0.1,1.3-1,3.4-1.1,5.3c0-0.2,0-0.3,0.1-0.5
	c-0.8,2-0.1,3-1.8,5.7l0.2-0.3c0.2-0.3-0.2,0.5,0.4-0.7l0-0.1c-1.1,1.5-1.2,1.8-1.8,2.1c-0.3,0.3-0.1,0.4,0.1,0.2
	c-3.1,2.9-6.2,6.3-9.3,9.5c-1.2,1-1.4,1-1.4,0.9c0,0,0-0.1-0.1,0L33,23.6l-0.1,0.1l0,0l0,0l0,0l0,0c0.6,1.4-0.8-1.9-0.6-1.6h0l0,0
	l0,0c0.2,0,0.4,0,0.7-0.1c0.2,0.1,0.1-0.1,0.2-0.1c1-0.1,1.5,0.4,2.2,0.2c-0.3-0.2,0.5-0.1,0.5-0.3c0.5,0,0.9,0.1,1.2,0.1l0.5,0.1
	l0.1,0l0.1,0l0,0l0,0h0h0c-0.8-0.9,1.1,1.3,0.9,1v0l0,0l0,0.2c-0.1,0.5-0.2,1-0.2,1.8L38.3,25c0.1,1.8-0.3,3.9-0.1,5.4l-0.8,7.3
	L37,41.5l-0.2,1.8l0,0.1c-0.7,0.6,1.5-1.3-1.5,1.3h0h0h0l-0.1,0l-0.2,0l-0.5,0l-0.9,0l-3.6,0.1l-0.5,0l-0.2,0l-0.1,0
	c3.2-3.2,0.9-0.9,1.6-1.6v0v0v0l0,0.1l0,0.9l0,1.8l0.1,7.3l0,0.4l0,0.1l0,0.1v0v0c-0.8-0.8,1.7,1.7-1.7-1.7h0l0.2,0l0.9,0l1.8,0
	l0.9,0h0.4h0h0c-0.4-0.4,3.2,3.7,1.7,1.9l0,0l0,0.1l0,0.1l0,0.2l-0.3,1.8l-1,7.1c-0.7,4.7-1.4,9.4-2.2,14.2
	c-0.7,2.2-0.7,2.4-0.9,4.9c0-0.1,0-0.3-0.1-0.1c0.2,0.2-0.2,1.7,0,2c-0.6,3.6-1,6.8-1.5,10.5c0.1-0.6-0.1-0.9-0.2-0.2l0.1,0.7
	l-0.1,0.1c0,0.5,0,1,0.2,0.5c-1,9.3-3.4,18.1-3.9,27.2c-0.3,2.1-0.5,5.2-0.7,7.6c-0.3,1.7-0.5,3.4-0.7,5.1l-0.3,2.5l-0.2,1.2
	l-0.1,0.6l0,0.1l0,0l0,0v0c-0.5,0.5,1.1-1-1.1,1l0,0l-0.2,0l-0.3,0l-1.2,0h-0.3h-0.2h-0.1h0c0.4-0.8-0.9,1.7,0.9-1.7l0,0l0,0l0,0
	l0.4,0.5l1.4,2.1l0.7,1l0,0.1l0,0l0,0l0,0l0,0c-0.1,0.6,0.1-1.4-0.1,1.4l-0.1,0.1l-0.2,0.2l-0.5,0.5l-1.8,1.9
	C20.3,147.4,20.6,146.9,22.4,143.9"/>
<path class="st1" d="M75.1,122c-0.1-0.3-0.7-0.8-0.1-0.6C75,121.6,75.2,121.9,75.1,122"/>
<path class="st1" d="M70.6,101.4c0,0,0-0.3,0-0.4c0.1,0.3,0.2,0.5,0.2,0.7C70.7,101.5,70.7,101.5,70.6,101.4"/>
<path class="st1" d="M69.8,95.9c0.1,0.1,0.4,1.2,0.5,1.9L69.8,95.9z"/>
<path class="st1" d="M69.4,90.8c0-0.5,0.1-0.3,0.2,0.2C69.6,91.1,69.5,90.9,69.4,90.8"/>
<path class="st1" d="M69.1,90.4c-0.1-0.4,0-0.6,0-0.9C69,89.6,69.3,90.5,69.1,90.4"/>
<path class="st1" d="M67.6,79.3c-0.1-0.3-0.2-0.8-0.2-1.1C67.4,78.5,67.8,79.5,67.6,79.3"/>
<path class="st1" d="M66.6,74.2c0-0.2,0-0.2-0.1-0.4c0-0.3,0.1,0,0.2,0.2L66.6,74.2z"/>
<rect class="st2" width="183.1" height="226.7"/>
<polygon class="st1" points="45.3,3.3 45.5,2.9 45.4,2.8 "/>
<path class="st1" d="M35.5,34c0,0.6-0.2,0.4-0.2,0.5C35.4,34,35.4,34.7,35.5,34"/>
<rect class="st2" width="183.1" height="226.7"/>
<polygon class="st1" points="28.8,50.3 29.1,50.2 28.8,50.1 "/>
<path class="st1" d="M45.8,0.1c-0.6,0.1,0.4,0.2-0.4,0.1C45.5,0.2,45.6,0.1,45.8,0.1"/>
<path class="st1" d="M57.3,20c-1.8,0.8-4.3,0.6-6.3,1.3c-0.2,0.1,0-0.3-0.5-0.2c-1.9,0.8-5.1,1-7.5,0.8l0.1-0.1
	c-0.5,0-1,0.4-1.5,0.3c0-0.1,0.1-0.1,0-0.2c-0.1,0.2-0.9,0.1-1.1,0.3c-0.2-0.1-0.2-0.2-0.4-0.3l-0.3,0.2c-0.8,0.6-1.9-0.1-3,0.2
	c0.1,0,0.2-0.1,0.1-0.1c-1.6,0.3-0.3-0.1,0.6-0.7c0.9-0.5,1.9-0.7,2.8-1.1c-0.1,0.1-0.1,0.3,0.1,0.3c0-0.3,0.6-0.5,1.1-0.6
	c0.3,0.2,0.8-0.4,1.4-0.4l0,0.1c0.4-0.3,0.7,0,1-0.3l0.3,0.1c0.1-0.4,0.7,0.1,1-0.1l0-0.1c0.3-0.1,0.5,0,0.9-0.1l0,0
	c0.7-0.1,1.2,0,1.2-0.3c0.3,0.2-0.7,0.2-0.3,0.4c2.5-0.5,5-0.4,7.5-0.5c0.3,0.1,0.5,0.1,0.5,0.2c0.1-0.1,1.3-0.1,0.6,0.2
	c0.1,0-0.2-0.1-0.3-0.1c-0.5,0-0.4,0.4-0.9,0.4c0.2-0.1,0.2-0.2,0.1-0.3c-0.4,0.3-0.9,0.4-1.4,0.5c0.1-0.1,0.2-0.1,0.2-0.2
	c-0.5,0.3-1,0.1-1.5,0.3l0.2-0.2c-0.8-0.1-0.2,0.4-0.9,0.3c0.2-0.1,0.1-0.1,0.1-0.2c-0.6,0.3-1.6,0.3-2.2,0.5l0-0.1
	c-0.7,0.1-1.4,0-2.1,0.1c-0.3-0.1,0.1-0.4-0.6-0.3c0,0.3-1.2,0.1-0.8,0.4c-0.6-0.1-1.6-0.2-2-0.1c0.3-0.1-0.3-0.4,0.2-0.4l-0.4-0.2
	c0.1-0.1,0.4,0.1,0.3-0.1c-0.3,0-1,0.1-1.2,0c-0.5,0.2-0.9,0.5-1.7,0.5c0.4-0.1-0.2-0.3,0.1-0.4l-1.1,0.5c-0.3,0,0-0.2-0.4-0.2
	c0,0.1-0.1,0.1-0.3,0.2c-0.1,0-1.1,0-1.2-0.3c-0.1-0.1,0.4,0,0.1-0.2c-0.2,0-0.4,0-0.5,0c-0.4-0.7,0-0.4,0.1-0.7l0,0
	c0.2-0.2,0.5-0.8,0.2-0.6c-0.2,0.2,0.2,0.1-0.1,0.3c0-0.3,0.4-0.8,0.7-1.2c-0.1,0.2,0,0.2,0,0.3c0.3-0.6,1-1,1.6-1.6
	c-0.1-0.1-0.1,0.4-0.2,0.4c0.9-0.4,1.7-1,2.6-1.1C42,16,42,15.7,42,15.8c0.5-0.1,0.5,0.1,0.8,0c0.1,0.1,0.4-0.1,0.6-0.2
	c0.1-0.1,0.1,0-0.2,0.1c0.4-0.2,2.1-0.6,3-0.5c0-0.1,0.6-0.3,0.8-0.3L47,15c0.2,0.1,0.7,0,0.8,0.1c0.5-0.2-1.8,0.2-1.2,0
	c0.2,0.1,0.9-0.3,0.7-0.1c0.4,0,0.9-0.2,1.3-0.1c-0.1,0-0.4,0.3,0,0.2c0.6,0,0.2-0.1,0.7-0.1l0.3-0.1c0-0.2,0.6,0,0.3-0.2
	c0.1,0.2,0.9-0.1,0.8,0.2l-0.1,0.2c0.3,0,0.5-0.2,0.7-0.3c0,0,0.1,0.1,0.1,0.1c0.1-0.4,0.6,0.1,1-0.2c0.3,0.1,0.6,0.1,1,0.1l0,0h0h0
	c0.2,3.7,0.1,1,0.1,1.8h0l0,0l0,0l-0.1,0l-0.1,0l-0.2,0l-0.3-0.1c-0.4,0.2-0.8,0.4-1.3,0.4c0.1-0.1,0.2-0.1,0.2-0.2
	c-0.3,0-0.4,0.1-0.6,0.2c0.1-0.1-0.6-0.1-1-0.2c-0.4,0.2-0.2,0.3-0.2,0.5c-0.5-0.3-1.2,0.5-1.7,0.2c0.1-0.1,0.6-0.3,0.2-0.3
	c-0.4-0.3-0.7,0.4-1.4,0.4l0.2,0.3c-0.3-0.1-0.9,0.3-0.9,0c-0.2,0.1-0.8,0-0.7,0.3c-1.1-0.1-2.6,0.5-3.3-0.1c-0.2,0-0.5,0-0.5,0.1
	c0.3,0.2,0.4-0.1,0.5,0c-0.1,0-0.2,0.1-0.2,0.1c-0.3-0.1-0.6-0.1-0.3-0.3c-0.7-0.2-0.8,0.5-1.7,0.4c0.1-0.1,0-0.2-0.3-0.1l-0.1,0.1
	l0,0l0,0l0,0h0c0.1,1.6-0.2-2.2-0.1-1.8l0,0l0,0l0,0l0.1,0l0.2-0.2c0.5-0.1,0.4,0.2,0.4,0.4c0.3-0.1,0.6-0.2,0.7-0.4l0.4,0.1
	c-0.3-0.1,0.2-0.2,0.3-0.3l-0.1,0.1c0.1,0.1,0.4-0.1,0.6-0.2c-0.1-0.1-0.4,0-0.6,0c0.1-0.1,0.4-0.2,0.5-0.4c0,0.2,0.5,0,0.8-0.1
	c0.3-0.1,0.2-0.3,0.3-0.3c0,0.1,0.4-0.2,0.3,0.1c-0.1,0.1-0.2,0-0.4,0.1c0.2,0,0.3,0.2,0.6-0.1c0.2-0.2-0.2-0.3,0.4-0.4
	c-0.1,0.1-0.1,0.2-0.2,0.3l0.5-0.1l0-0.2c0.1,0,0,0,0.1,0.1c0.1-0.2,0.7-0.3,0.8-0.6c0.2-0.1,0.6-0.1,0.8-0.2l0,0
	c0.3,0,0.7-0.2,1-0.4l0,0c0.2,0,0.6-0.2,0.8-0.4c0.5,0,0.3,0.6,0.7,0.3c0.4-0.1,0.7-0.4,0.5-0.5c0.8-0.1,1.9-0.3,2.7,0.1
	c0.1,0,0.1-0.1,0.3-0.1l1,0.3l0.3,0.1l0.1,0l0,0c-0.2,0.9,0.4-2.1-0.4,2.1h0h0l0,0l0,0l0,0l-0.1,0l-0.4,0.1c-0.6,0.1-1.1,0.1-1.6,0
	c0.3-0.1,0-0.2,0-0.3c-0.3,0.2-0.3-0.1-0.4,0.1c0,0.2,0,0.2,0.4,0.3c-0.7,0.2-1.8,0.2-2.2,0.1c0.2,0.1,0,0.1-0.1,0.2
	c0-0.3-0.5-0.3-0.9-0.2l-0.1,0.2l-0.3-0.2c-0.2,0-0.2,0.3-0.6,0.2c0-0.1,0-0.1-0.1-0.2c-0.4,0.1-1,0.3-1.5,0.1l-0.3-0.3
	c-0.2,0-0.5,0.1-0.2,0.2c-0.7-0.3-1.2-0.4-1.4-0.7c-0.7,0.1-1.5-0.1-2.4-0.3l-1.2-0.5l-0.3-0.1l0,0l0,0c0,0.5,0.3-4.6,0.2-2.4v0l0,0
	l0,0l0,0l0.1,0l0.1-0.1l0.5-0.2l0,0.1c0.4,0,0.1-0.3,0.4-0.3c-0.1,0.2,0.4,0.1,0.1,0.4c0.6-0.1,0.6-0.5,0.9-0.6c0-0.2-0.3,0.2-0.3,0
	c0-0.1,0.8-0.1,0.8-0.4c0.2,0,0.1,0.2,0.1,0.4l0.3-0.2c0.5,0.1-0.8,0.8-0.2,1l0.3-0.1c0.4,0.1-0.7,0.5,0.1,0.4
	c0.3-0.2,0.5-0.6,0.1-0.6c0.7-0.3,0.1-0.6,0.9-0.9c0.2,0.1-0.6,0.2-0.4,0.4c0.4,0,0.7-0.3,1-0.3c-0.4,0-0.1-0.3,0.1-0.4
	c0.4,0-0.2,0.3,0.4,0.2c0.1-0.2,0.6-0.4,0.1-0.4c0.1-0.4,0.6-0.1,0.9-0.4c0.2,0.2-0.5,0.6,0.2,0.6c-0.2-0.2,0.7-0.4,0.3-0.7
	c0.3,0,0.3,0.2,0.2,0.3c0.4,0.1,0.8-0.5,1-0.1l0.1-0.2c0.1,0.1,0.3,0.1,0.5,0.2l0.3-0.1l0,0l0,0h0c0.4-2-0.5,2.7-0.4,2.2h0h0l0,0
	l0,0l0,0l0,0l-0.1,0c-0.1,0-0.1,0-0.1-0.2c-0.1,0-0.7,0-0.5,0.2c0.3,0.2,0.5-0.1,0.5,0.2c0-0.3-0.5,0-0.6,0.1l0-0.1
	c-0.1,0-0.4,0-0.5,0.1c0.1-0.1,0.1-0.2-0.1-0.2l-0.1,0.2c-0.6,0.1-0.1-0.3-0.7-0.3l0.4-0.2c-0.1,0-0.3-0.1-0.6-0.1l0,0l0,0l0,0
	c-0.3-1,0.6,2.2-0.6-2.2v0l0,0v0l0,0l0-0.1l0-0.2l0-0.3c0.2-0.2,0.2,0.1,0.4-0.2l-0.3,0.4c0,0.1,0.4,0.1,0.8-0.1
	c0.2-0.2,0.4-0.6,0-0.5c0.2-0.1,0.5-0.2,0.4,0c0.4-0.3-0.1-0.1,0.1-0.4c0.2,0,0.6-0.1,0.9-0.2l-0.1,0.5l0.2-0.2
	c-0.1,0.4,0.3,0,0.3,0.3c0.2-0.1,0.3-0.3,0.4-0.4c-0.4,0-0.3-0.2-0.3-0.4l0-0.1v0v0h0c-0.2-0.4,1.4,3.4,0.8,1.8l0,0l0,0l0,0l0,0
	L48.4,10c-0.1,0.1-0.1,0.1-0.1,0.2c-0.9,0.1-0.5-0.9-1.4-0.4c0.1,0.1-0.3,0.4,0.2,0.3c-0.5-0.1-0.4,0.3-0.9,0.2
	c0.4-0.1-0.4-0.4,0.2-0.6c0,0.1,0.3,0.1,0.4,0.1c-0.2-0.1,0.1-0.4-0.5-0.4c-0.3,0-0.7,0-0.7,0.2c0,0.2,0.5,0,0.3,0.2
	c-0.6,0.1-0.7-0.3-1,0.1c0.4,0,0.5,0.2,0.5,0.3l-0.4,0.1l0.1-0.1l-0.2,0l-0.1,0l0,0h0l0,0h0c0,0.7-0.1-5.7-0.1-3h0l0,0l0.1-0.1
	c0-0.1,0.1-0.2,0.3-0.2l0.3,0.2c-0.1,0.2-0.8,0-0.7,0.4c0.4,0,0.4-0.2,0.8-0.2l-0.3,0.1c0.1,0,0.4,0.4,0.9,0c0.3-0.2,0.1-0.2,0-0.3
	c0.7-0.2,1-0.4,1.6-0.5c0,0.1,0,0.1,0.1,0.1h0.1l0,0l0,0h0l0,0c-0.1,1.1,0.3-2.6-0.3,2.6h0l0,0l0,0c-0.1,0-0.2,0,0-0.2l0,0l0,0l0,0
	v0c0.5-4.6,0.2-1.3,0.3-2.3l0,0l0,0l0,0l-0.2,0l-0.6,0.1C47,7,46.7,7.2,46.6,7.4C46.9,7.6,46,7.4,46,7.8c0.6-0.1,0.6,0.2,0.8,0.4
	C46.9,8.1,47,8,47.1,8c0-0.2-0.2-0.2-0.2-0.3l1-0.2l0.2-0.1l0.1,0l0.1,0l0,0c0.2-1.4-0.2,2-0.2,1.6h0h0h0l0,0l0,0l-0.3,0.1
	c-0.2-0.1-0.1-0.3,0.2-0.3c-0.3,0-0.8-0.1-1.2-0.2c-0.1,0-0.3,0-0.2-0.1c0.1,0,0.2,0,0.2-0.1l0.1-0.1l0-0.1v0v0
	c0.2,0.2-2-1.5-1.1-0.8l0,0l0,0l0,0l0,0c0.3-0.2,0.6-0.4,0.8-0.5c-0.6-0.1,0.8-0.4,0.4-0.5c-0.2,0-1,0-0.7-0.2
	c0.4-0.1,0,0.1,0.2,0.1c0.3-0.3,0.6,0.1,0.4-0.1c0.1,0.1,0.2,0.3,0.3,0.6c0-0.2,0.2-0.1,0.2,0.2c-0.2-0.5-0.5-1.3-0.1-2.1
	c0.3-0.3,0.6-0.6,0.8-1c0,1-0.5,0-0.8,0.1c-0.3-0.3,0.2-0.3-0.2-0.7C46.9,2.4,46.8,4,47,2.5l0,0.1c0.1-0.2,1-0.7,0.8-1.1l0.1,0.3
	C48,1.8,48,1.6,48.1,1.6c0.1,0.1,0.2,0,0.2,0.2c0.4-0.2,0.5-0.7,0.8-1l-0.3,0.1l0.3-0.4L49,0.3c0.6,1.1,0.1,0.3,0.2,0.5l-0.2,0
	c-0.3,0-0.6,0-1,0l0-0.2l-0.4,0.1c0.1-0.2-0.3-0.3-0.5-0.1l1.1-0.5c0.3,0.1-0.3,0.2-0.1,0.4c0.2,0.2,0.8,0.1,0.9-0.1
	c-0.3,0-0.3,0-0.5,0.1c-0.1-0.2,0.3-0.2,0.5-0.4c-0.1,0-0.3-0.1-0.3,0L49,0.1c0.2,0.3-0.2-0.8,0.6,0.7l-0.2,0.2
	c0.1-0.3-0.2,0-0.2-0.1c0.2,0.2-0.1,0.5-0.5,0.9c-0.4,0.1-0.6,0.9-1.1,1.3c0.1-0.4,0.2-0.7,0.4-1.1c-0.4,0.2-0.3,0.3-0.7,0.5
	c-0.2,0.5,0.2,0.1,0.5,0.2L47.8,3c0.4,0.2,0.5-0.1,1.2,0.5c0,2.4-1.1,1.9-0.7,2.9l-0.2,0l0.2,0.4l0,0.1c-0.3,0.9-0.2,0.3-0.3,0.6
	l-0.4,0.3c-0.4,0.2-0.9,0.2-0.8,0.4l-0.1,0l0,0l0,0c-0.4-0.3,1,0.7-1-0.7h0l0,0l0,0l0,0L46,7.3l0.3-0.1c0.5-0.1,0.5,0,0.7,0l0.7,0.1
	l0.7,0.1l0.1,0l0,0l0,0c0-0.3-0.3,2.2-0.1,1.2h0h0h0l0,0l-0.1,0L48,8.6c-0.8,0.2-1.5,0.5-2.4,0.7l-0.7,0.1l0,0l0,0l0,0h0
	c0,1.2,0-1.7,0-1.4h0h0h0.1l0.2,0l0.3,0l1.3,0.1l-0.3,0.2c0.3-0.2,0.2,0.1,0.5,0.1c-0.3-0.2,0.4-0.2,0.7-0.4l0.6,0.1l0.3,0l0.1,0
	l0,0h0c1,2.3,0.3,0.6,0.5,1.1l0,0l0,0l0,0l0,0L49,9.5c-0.3,0.3-0.7,0.7-0.9,1L48,10.4c-0.2,0.4-0.6,0.6-1,0.8l-0.6,0.3l-0.3,0.1
	l-0.2,0.1l0,0l0,0l0,0h0c-0.8-2.8-0.2-0.8-0.4-1.4h0h0l0,0l0.1,0c0.1,0.1,0.3,0.2,0.5,0.2c0.5-0.3,0.7-0.3,1.5-0.4
	c0.2,0,0.8,0.1,1.2,0.3l0,0l0,0c-0.6,3.5-0.2,1-0.3,1.7l0,0h0l0,0l0,0l-0.1,0l-0.1,0l-0.2,0l-0.4,0c-1.8,0.5-3.7,0.9-5.4,1.8
	L42,13.7c-0.4,0.3-0.9,0.5-1.3,0.7l-0.2,0.1l-0.1,0l0,0c0,0.4,0.3-3.9,0.1-2.1h0l0,0l0,0l0,0l0,0l0.3,0.2l0.6,0.3
	c0.9,0.4,1.8,0.7,2.6,0.8l-0.2,0.3c0.5,0.2,1.1,0.1,1-0.1c0.5,0.2,1.2,0,1.5,0.3c0.5,0.1,0.6-0.1,1.1-0.2c1,0.1,1.4,0.1,2.4,0
	l-0.2,0c-0.1,0.1-0.1,0.2,0.1,0.2c0.4-0.1,1.4,0,1-0.4c0.5,0.1,1.1-0.1,1.7-0.2l0.1,0l0,0h0h0c0.4-2.2-0.5,3-0.4,2.5l0,0h0l0,0l0,0
	l-0.2,0L51.7,16c-0.2-0.1-0.4-0.2-0.6-0.3c0.1,0.1-0.2,0.1-0.3,0.2c-0.7-0.1-1.6-0.2-2.2,0.1c-0.1,0,0.2-0.2-0.2-0.2
	c-0.2,0.1,0,0.1-0.2,0.3c-1.3,0.6-2.9,0.8-4.2,1.3c-1.1,0.6-2.4,1.1-3.7,1.4l-0.1,0l-0.1,0l0,0l0,0l0,0c0,0.6-0.4-5.1-0.2-2.7h0h0
	h0.2h0.4l0.9,0l1.7,0l0,0.1c0.7-0.4,1.8,0.1,2.4-0.4c0.2,0.1,0.7-0.1,0.6,0.1c0.6-0.3,1.8-0.1,2.6-0.5l-0.2,0.1
	c0.9,0,1.7-0.4,2.7-0.4c-0.1,0.1-0.3,0.1-0.3,0.2c0.4,0.1,0.8-0.5,1.1-0.2c0.2,0,0.1-0.2,0-0.2l0.8-0.1l0.2,0l0.1,0l0,0l0,0l0,0
	c0.1,1-0.1-2.2,0.1,2.3h0l0,0l-0.1,0l-0.4,0l-1.7,0c-1.1,0-2.2,0.1-3.3,0.1c-1.6-0.2-0.1-0.7-1.3-0.3c-0.1-0.1-0.1,0.2-0.1,0.1
	c-0.5,0.1-0.8-0.4-1.1-0.1c0.2,0.2-0.2,0.1-0.2,0.3c-1-0.1-1.2-0.2-1.8,0.1l0-0.1c-0.8,0.4-1.7,0.7-2.2,1.3
	c-0.9,0.5-1.7,1.1-2.3,1.9l-0.2,0.3l0,0l0,0l0,0c-2.2-4.5-0.6-1.2-1.1-2.3l0,0l0.1,0l0.1,0l0.2,0l0.9,0l1.8,0.1
	c2.4,0.1,4.8,0.1,7.1,0.1c2.3,0,4.6-0.2,6.7-0.9l0.8-0.2l0,0c0.2,1.5-0.6-3.3,0.6,3.3h0l0,0h0l-0.1,0l-0.1,0l-0.2,0l-0.5,0l-1.8,0
	l-3.6,0c-1.1-0.3-1.2-0.3-2.4-0.1c0-0.1,0.1-0.1,0-0.1c0,0.3-0.9,0.1-1,0.4c-1.7,0.1-3.3,0.5-5,0.9c0.3-0.1,0.3-0.3,0-0.2L40.9,22
	L40.9,22c-0.2,0.1-0.4,0.3-0.2,0.3c-1,0.4-2,0.7-3,1.2l-0.7,0.3l-0.1,0l0,0c0.1,0.7-1.3-6.3-0.7-3.3h0l0,0l0,0l0,0l0.2,0l0.4,0
	l1.7,0.1c2.2,0.1,4.5,0.1,6.7-0.2c1.1,0,2.6-0.3,3.7-0.6c3.5-0.2,6.7-0.4,10.3-1C59.2,18.9,58.7,19.6,57.3,20"/>
<path class="st1" d="M46.5,0.1c0.1,0.1,0.6,0.2,0.2,0.4C46.7,0.3,46.5,0.2,46.5,0.1"/>
<path class="st1" d="M46.9,7.1c0.5-1.4,0.1-0.5,0.1-0.8c-0.1,0.4,0.2-0.8-0.3,0.8c0-0.1,0-0.1,0-0.2C46.8,7,46.9,7,46.9,7.1"/>
<path class="st1" d="M47.3,8.9c0.3,0-1.4,0.2-0.2-0.1C45.8,9,47.3,8.8,47.3,8.9"/>
<path class="st1" d="M46.3,7c-0.2,0-0.2-0.1,0.1-0.2C46.5,6.8,46.4,6.9,46.3,7"/>
<path class="st1" d="M46.2,7.3c-0.2,0-0.3,0-0.4,0C45.9,7.3,46.3,7.1,46.2,7.3"/>
<path class="st1" d="M47.5,7.8c-0.1,0.1-0.2,0.3-0.4,0.2C47.3,8.1,47.5,7.7,47.5,7.8"/>
<path class="st1" d="M45.8,9.2c-0.1,0-0.1,0-0.2,0.1c-0.2,0-0.1-0.1,0-0.2L45.8,9.2z"/>
<rect class="st2" width="183.1" height="226.7"/>
<polygon class="st1" points="47.4,18.1 47.7,18 47.5,18 "/>
<path class="st1" d="M38.4,17.5c-0.2,0.2-0.3,0-0.3,0.1C38.3,17.4,38.1,17.7,38.4,17.5"/>
<rect class="st2" width="183.1" height="226.7"/>
<polygon class="st1" points="46.2,20.7 46.3,20.7 46.3,20.4 "/>
<path class="st0" d="M86.1,21.7C86,21.4,86,21.6,86.1,21.7L86.1,21.7z"/>
<path class="st0" d="M86,21.6L86,21.6C86,21.7,86,21.7,86,21.6"/>
<path class="st0" d="M85.7,21.5c0-0.2,0.2,0,0.1-0.3C85.7,21,85.6,21.2,85.7,21.5"/>
<rect class="st2" width="183.1" height="226.7"/>
<polygon class="st0" points="85.8,21.8 85.8,21.7 85.8,21.5 "/>
<polygon class="st0" points="85.8,22 85.9,21.9 85.9,21.8 "/>
<path class="st0" d="M85.4,21.5L85.4,21.5c0.2,0.2,0.1,0.3,0.2,0.4c0.1,0-0.1-0.5,0-0.5c-0.1-0.2-0.2,0-0.3-0.3
	C85.2,21,85.4,21.3,85.4,21.5"/>
<path class="st0" d="M81.6,24.5L81.6,24.5C81.6,24.5,81.6,24.5,81.6,24.5"/>
<rect class="st2" width="183.1" height="226.7"/>
<polygon class="st0" points="80.4,25 80.5,25 80.4,24.9 "/>
<path class="st0" d="M82.2,23.6L82.2,23.6C82.2,23.6,82.2,23.6,82.2,23.6"/>
<rect class="st2" width="183.1" height="226.7"/>
<polygon class="st0" points="74.4,23.6 74.4,23.7 74.4,23.6 74.4,23.5 "/>
<path class="st0" d="M79.2,25.9L79.2,25.9L79.2,25.9z"/>
<polygon class="st0" points="82.6,23.5 82.6,23.5 82.6,23.5 82.6,23.5 "/>
<path class="st0" d="M80.9,25.4L80.9,25.4L80.9,25.4z"/>
<path class="st0" d="M84.2,21.3C84.2,21.3,84.2,21.3,84.2,21.3C84.2,21.4,84.2,21.4,84.2,21.3"/>
<path class="st0" d="M83.8,21.4L83.8,21.4C83.8,21.4,83.8,21.4,83.8,21.4"/>
<path class="st0" d="M83.5,21.5L83.5,21.5C83.5,21.4,83.5,21.4,83.5,21.5"/>
<path class="st0" d="M84.2,21.3c-0.1-0.1-0.2-0.6-0.1-0.1L84.2,21.3C84,21.2,84,21.4,84,21.5l0,0.1l0.1,0
	C84.2,21.7,84.2,21.5,84.2,21.3"/>
<path class="st0" d="M81.6,24.4C81.6,24.5,81.6,24.4,81.6,24.4"/>
<rect class="st2" width="183.1" height="226.7"/>
<path class="st0" d="M81.8,23.9L81.8,23.9L81.8,23.9z"/>
<path class="st0" d="M83.2,23.7L83.2,23.7C83.2,23.8,83.2,23.7,83.2,23.7"/>
<rect class="st2" width="183.1" height="226.7"/>
<path class="st0" d="M81.8,23.9L81.8,23.9L81.8,23.9z"/>
<path class="st0" d="M82.8,23.5L82.8,23.5L82.8,23.5z"/>
<path class="st0" d="M68.7,22.6c0,0,0,0.1,0.1,0.1c0-0.4-0.1,0-0.1-0.3L68.7,22.6l0,0.2C68.7,22.7,68.6,22.7,68.7,22.6"/>
<path class="st0" d="M74,23L74,23c0-0.1,0-0.2-0.1-0.2c0,0.2,0.1,0.6,0.1,0.8c0,0,0,0,0.1,0C74,23.4,74,23.2,74,23"/>
<rect class="st2" width="183.1" height="226.7"/>
<polygon class="st0" points="74,23.6 74.1,23.7 74.1,23.8 74,23.6 "/>
<path class="st0" d="M69.6,22.7L69.6,22.7C69.6,22.7,69.6,22.7,69.6,22.7"/>
<rect class="st2" width="183.1" height="226.7"/>
<path class="st0" d="M78.5,21.7l0-0.1L78.5,21.7z"/>
<polygon class="st0" points="74.7,23.3 74.7,23.3 74.7,23.3 "/>
<path class="st0" d="M72.9,26.7c0-0.4,0,0-0.1-0.2l0,0.2C72.9,26.8,72.9,26.8,72.9,26.7"/>
<rect class="st2" width="183.1" height="226.7"/>
<polygon class="st0" points="68.6,22.5 68.6,22.5 68.6,22.5 "/>
<path class="st0" d="M71.6,27L71.6,27L71.6,27z"/>
<path class="st0" d="M74.3,23.7l0.2,0l-0.1-0.1C74.4,23.9,74.3,23.5,74.3,23.7"/>
<path class="st0" d="M74.2,24.6c0-0.2,0-0.3-0.1-0.5l0,0l0-0.1c0,0-0.1-0.1-0.1,0C74.1,24.5,74.1,24.6,74.2,24.6 M76.6,22.9
	c0-0.1,0-0.2,0-0.3c0,0.1-0.1-0.1-0.1,0.1l0,0C76.6,22.8,76.6,22.9,76.6,22.9 M82.3,21.5c-0.1-0.2-0.1-0.1-0.1-0.1L82.3,21.5z
	 M83.3,21.8c0-0.1,0-0.1-0.1-0.1C83.2,21.7,83.3,21.8,83.3,21.8 M83.6,21.3L83.6,21.3L83.6,21.3z M82.4,23.6c0.1-0.2,0.1,0,0.1,0.1
	c-0.1-0.1-0.1,0.1-0.2-0.1l0.1,0.2c0,0-0.1-0.1-0.1-0.3C82.1,23.3,82.5,23.8,82.4,23.6 M83.2,23.5L83.2,23.5
	C83.2,23.4,83.2,23.4,83.2,23.5 M73.7,26.9l0,0.2c0.1-0.5,0.4,0.2,0.4-0.5c0.3,0.8,0-0.7,0.3,0l0-0.1c0.6,0,1.4,0.4,1.9-0.1l0,0.2
	c1,0.1,1.8-0.4,2.7-0.5c0.1-0.2-0.1-0.5,0-0.7c0,0,0.1,0,0.1,0.2c0,0.1,0,0.3,0,0.4c0.1,0,0.3,0.2,0.3-0.1l-0.1-0.2
	c0-0.1,0.1-0.1,0.1,0c0,0.1,0.1,0.4,0.1,0.5c0.1-0.7,0.2,0.2,0.3,0c-0.1-0.5,0-1,0.1-1.4l0.1,0.1c-0.1,0,0.1,0.4,0,0.4
	c0.1,0.1,0.2-0.1,0.3,0c0-0.1-0.1-0.3-0.1-0.4c0.1,0.1,0.1,0.3,0.2,0.3l0,0.2c0.1,0.2,0.1-0.1,0.1-0.1c0.1,0.2,0.2,0.2,0.2,0.5
	c0-0.3,0.1-0.2,0.1-0.4c-0.1-0.2,0-0.3-0.1-0.5l-0.1,0.1c0.2,0.1,0,0.1,0.1,0.4c-0.1-0.2,0-0.6-0.1-0.6c0.1-0.2,0.2-0.1,0.2-0.4
	c-0.1,0.1,0-0.2-0.1-0.4c0.1,0,0.1,0.1,0.1,0.4c0.1,0,0.1,0.2,0.1-0.1c0.1,0.1,0,0.3,0.1,0.4c0,0.3-0.3-0.3-0.1,0.6
	c-0.1,0,0,0.4-0.1,0.3c0.1,0.1,0.2,0.4,0.3,0.1l-0.1-0.5c0.1,0,0-0.3,0.1-0.3c0,0.1,0.1,0.3,0.1,0.3c0-0.1,0,0-0.1-0.1
	c0.1-0.1,0-0.4,0.1-0.5c-0.1-0.1-0.2-0.2-0.3-0.4c0-0.3,0-0.1,0.1-0.1l0,0.1l0-0.2c0.1,0.1,0.1,0.5,0.2,0.6c0.1,0.3,0.1-0.2,0.1,0
	l0-0.1l0,0l0,0c0-0.1,0.1-0.1,0.1-0.3c0,0.1,0,0,0-0.1c0-0.1,0-0.4,0.2,0l0,0c0.1,0,0.2,0.1,0.2,0.3l0.1,0.1l0.1,0.3
	c0.1-0.1,0-0.3,0-0.6c0.1,0.2,0.2,0,0.2-0.1l0,0l-0.1-0.1c0.1,0,0-0.2,0.1-0.2c0,0,0,0,0,0l0,0l0,0l0,0.1c0.1,0.3,0.1-0.2,0.2-0.1
	l0,0c0.1,0.1,0.2,0.5,0.2,0.2c0,0,0,0,0-0.1l0,0l0,0c0-0.1,0-0.2,0-0.1l0.1,0c0,0,0,0,0.1-0.1l0,0.1c0,0,0.1,0.1,0.1,0.1
	c0.2,0.4,0.1-0.3,0.4,0.1c0-0.2-0.1-0.3-0.1-0.4c0-0.2,0-0.3,0-0.5c0.1,0.3,0.4,0.5,0.5,1c0.1,0-0.1-0.3-0.1-0.4l0,0
	c-0.1,0-0.1-0.2-0.2-0.3c-0.1-0.2,0-0.3,0.1-0.3l0.1,0.3c0.1-0.1-0.1-0.6-0.1-1c0.1,0.1,0.1,0.4,0.2,0.7l0.1-0.1l0.1,0.3
	c0-0.1,0-0.3,0.1-0.2c0,0.3,0.2,0.2,0.2,0.5c0.1,0.1,0-0.4,0.1-0.1c0-0.3-0.1-0.1-0.1-0.2c-0.1-0.4,0.1-0.2,0.1-0.3
	c0.1,0.2,0,0.2,0.1,0.4c0-0.2,0-0.3,0.1-0.1c-0.1-0.3,0.1-0.1,0.1-0.1c-0.1,0-0.2-0.2-0.2-0.4c0-0.1,0-0.2,0.1-0.1l-0.1-0.1
	c0-0.4,0.2,0.2,0.2,0.1c0,0.2,0,0.2,0,0.4l0.1-0.5l0.2,0.4c0-0.2,0.1,0,0-0.3c0.1,0.1,0,0.3,0,0.5c0.2,0.1,0-0.4,0.2-0.1l0,0.2
	c0,0,0.1-0.1,0.1,0c0-0.1,0,0-0.1,0c-0.1-0.5,0.1-0.4-0.1-0.9l-0.1,0c0-0.1,0-0.5,0.1-0.3c0.1,0.2,0.1,0.4,0.1,0.5
	c0.1,0-0.1-0.6,0-0.6c-0.1-0.1-0.1-0.3-0.1-0.4c-0.1,0-0.2-0.1-0.1,0.1l0,0c0,0.1,0,0.2,0,0.3c-0.1,0-0.1-0.2-0.1-0.3
	c-0.1-0.1,0.1,0.5,0,0.5l0-0.1c0,0.1-0.1,0.2,0,0.5c-0.1-0.3-0.1,0.2-0.2,0c-0.2-0.7,0.2,0,0.1-0.4C85,21.7,85,21.5,85,21.3
	l-0.1,0.4c0-0.1-0.2-0.5-0.1-0.2l0,0c0,0.1,0,0.4,0,0.3l0-0.2c-0.1-0.1,0,0.2,0,0.3c-0.1-0.1,0-0.3-0.1-0.4c0,0.3-0.1,0-0.2,0
	c0.1,0.4-0.1,0.6,0.1,1l-0.1,0.3c-0.1-0.2-0.1-0.6-0.2-1l0.1,0c-0.1-0.5-0.1,0.4-0.3-0.2c-0.1,0,0,0.1-0.2-0.2l0.1,0.5
	c-0.1-0.1-0.2-0.3-0.2-0.4c0,0-0.1,0-0.1,0l0-0.2c-0.1-0.2-0.1-0.2-0.1,0c0,0.1,0,0.1-0.1,0.1l0-0.2l0,0.2l0,0.1
	c0,0.1,0.1,0.3,0.2,0.5c-0.2-0.2-0.2,0-0.4-0.4c0-0.1,0-0.3,0-0.3c-0.1-0.1-0.1,0.2,0,0.4l0,0c0-0.1-0.1-0.2-0.1-0.3L83,21.3
	c0.1,0.4-0.1,0.2-0.1,0.4c0,0,0.1,0,0.1,0c0,0.3,0,0.6,0,0.4c0-0.3-0.2-0.4-0.1-0.5c-0.2-0.5,0,0.3-0.1,0.2l-0.1-0.2
	c-0.1-0.3,0.1-0.2,0-0.3l0,0c0-0.2,0.2-0.1,0.2-0.4l-0.2-0.1c-0.2,0.4-0.5,0.1-0.6,0.7l0,0c0,0,0,0.1,0,0.2l0-0.1l0,0.2
	c-0.1-0.2-0.2-0.3-0.3-0.5c0.1,0.2,0.1,0.2,0.1,0.4c0.1,0.3,0.1,0.4,0,0.3c0-0.2,0-0.2-0.1-0.3c0,0.1,0.1,0.2,0,0.3
	c-0.1-0.1-0.1-0.1-0.2-0.3c0-0.1,0,0,0.1,0c0-0.1-0.1-0.2-0.1-0.3l-0.1,0.1c-0.1-0.2,0-0.3-0.1-0.4c-0.1,0.2,0,0.6-0.1,0.8
	c0-0.1-0.1-0.5-0.1-0.4c-0.1-0.1-0.1,0.5-0.1,0.6c0-0.1,0-0.1,0-0.2c-0.3-0.1-0.5-0.1-0.9-0.4l0,0.5l-0.1-0.3
	c-0.3-0.2-0.5,0.1-0.7,0.3c-0.1,0-0.1-0.3-0.2-0.4c-0.2,0-0.1,0.5-0.3,0.6c0-0.1,0-0.5-0.1-0.5c0,0.1,0,0.3,0,0.3l0-0.1
	c-0.1-0.2-0.1,0-0.2-0.1c-0.1,0-0.2,0.4-0.3,0.9c-0.1,0-0.1-0.5-0.1-0.6c0.1,0.1,0-0.1,0-0.2c0,0.1-0.1,0.2-0.2-0.1
	c-0.1,0-0.1,0-0.1,0.3c0-0.1,0.1,0.1,0.1,0.2c-0.1-0.1-0.2,0-0.3-0.4c-0.3,0.1-0.7,0.1-1,0.2c0,0.2,0.1,0.1,0.1,0.2
	c0,0.3-0.1-0.1-0.1,0.1l0-0.2c-0.1,0-0.1,0.4-0.2,0.6c0-0.3-0.1-0.2-0.1-0.4c0,0.1-0.3-1-0.3-0.8l0.2,1c0,0.1-0.1,0.1,0,0.1
	c-0.1-0.2-0.2-0.4-0.2-0.4c-0.1-0.3,0-0.2,0.1-0.2c-0.1-0.4-0.2-0.3-0.2-0.7c-0.1,0.1,0.1,0.2,0,0.4l-0.1-0.1l0.1,0.1
	c0,0.1,0,0.5-0.1,0.3l0,0.4c-0.1-0.3-0.1-0.1-0.1-0.1l0-0.2c-0.1,0-0.1,0-0.1-0.2c0-0.3,0.1,0.1,0-0.2l-0.1-0.1c0,0.2,0,0.4,0.1,0.5
	c0,0.4,0,0.7-0.1,0.7c-0.1-0.3,0-0.3-0.1-0.6c-0.2-0.1,0,0.9-0.1,0.9c-0.1-0.1-0.1,0.2-0.2,0.2c0-0.2-0.1-0.2-0.2-0.4l0-0.2
	c0,0.1-0.1,0-0.1-0.2c0.1,0.3-0.1,0.3-0.2,0.5l0.1,0.3c-0.1,0.1-0.1,0.3-0.2,0.2c-0.1,0.1,0,0.3-0.1,0.6c-0.1-0.2-0.1-0.5-0.1-0.8
	c0,0.1,0.1,0,0.1,0.1c0.1-0.2,0.1-0.8,0.3-0.7c0-0.6-0.1,0.1-0.2-0.1l0-0.1l0,0c0-0.1,0.1-0.2,0.1-0.5c-0.1,0.1,0,0.6-0.1,0.4
	c0,0.2-0.2-0.3-0.2-0.3c0,0.2,0.1,0.8-0.1,0.7l0-0.4c-0.1,0,0,0.5-0.1,0.5c0,0,0,0.4,0.1,0.4c0,0.2-0.1,0.2-0.2,0.2
	c0,0.1,0,0.1,0,0.2c0.1,0.2,0.1-0.3,0.2,0.1l0-0.4c0.1,0.1,0.1,0.4,0.1,0.6c0,0,0-0.1,0,0c0.1,0.6-0.1-0.2-0.1,0.3l0,0
	c0.1,0.4-0.1,0.3-0.1,0.3c-0.1-0.2-0.2-0.2-0.2-0.5l0.1-0.1c-0.1-0.2-0.1,0.1-0.2,0.1l0-0.1l0,0.1l0-0.1c-0.1,0-0.1,0.2-0.2,0.1
	l0,0.2l0-0.1c0,0,0.1,0.1,0.1,0.3c-0.1,0.2-0.2-0.3-0.2-0.5c0-0.4,0.1,0,0.1-0.1c-0.1-0.4-0.1,0-0.2-0.3c0-0.4,0.1,0,0.1-0.4
	c-0.1-0.1-0.1,0.2-0.2,0.1c0-0.2,0.1-0.2,0-0.5l-0.1-0.1c0.1,0-0.1-0.5,0-0.6c-0.1-0.2,0,0.3-0.1,0.1c0,0.2,0.1,0.5,0.1,0.7
	l-0.1-0.1c-0.1-0.2,0-0.4-0.1-0.6l-0.1,0.1c0,0.1,0.1,0.2,0.1,0.3c-0.1-0.1,0,0.5,0,0.7c0,0-0.1,0-0.1-0.2c-0.1,0.4-0.2,0.4-0.3,0.7
	c0-0.3-0.1-0.4-0.1-0.6c0.1-0.1,0-0.4,0-0.7c0,0,0,0.4,0,0.6c-0.1-0.1,0,0.3-0.1,0c-0.1-0.1,0-0.4-0.1-0.5c-0.1,0,0,0.5-0.1,0.4
	l0-0.1c-0.1-0.1-0.1,0.1-0.1,0.3c-0.1-0.5-0.1,0.1-0.2-0.4c-0.1,0.1,0.1,0.3,0,0.4c0,0.2-0.1,0.1-0.2,0c0,0,0-0.2,0.1-0.1l-0.1-0.3
	c-0.2-0.2,0,0.8-0.2,0.5c0.1-0.2,0-0.3,0-0.5c0,0.1-0.1,0,0,0.3l-0.2-0.1c0,0.1-0.1,0.2-0.1,0.5c-0.1,0-0.2-0.3-0.2-0.4
	c-0.1,0.3-0.3-0.1-0.5,0.2l0,0c-0.1,0,0.1,0.4,0,0.4c0-0.4-0.1-0.3-0.2-0.5c-0.2-0.2-0.3,0.3-0.5,0.1c0-0.1,0-0.2,0-0.2
	c-0.1-0.1-0.2,0-0.3,0v-0.1c-0.2-0.3-0.3,0.1-0.5,0.2c0-0.1,0-0.2,0-0.3c-0.1-0.1-0.2-0.1-0.3,0.2c-0.1-0.4-0.1,0.1-0.2-0.3
	c0-0.1,0-0.1,0-0.1c-0.1-0.1-0.1-0.1-0.2-0.1c-0.1,0.3-0.1,0.8-0.3,0.7c0-0.6,0.1-0.1,0.1-0.6c0,0.1-0.1,0.2-0.1,0.1
	c0-0.2,0-0.1,0-0.3c0-0.1-0.1,0.6-0.1,0.5c0,0.1,0,0.2,0.1,0.1c0,0.3-0.2,0-0.2,0.2c0,0,0.1,0.1,0.1,0.4c-0.1-0.1-0.1,0.4-0.2,0.7
	c-0.1-0.2,0.1-0.5,0-0.9c0-0.1-0.1-0.5-0.1-0.6c-0.1-0.1-0.1,0.3-0.2,0.4l0-0.1c-0.1,0.1-0.2,0.5-0.3,0.3l0.1,0.1
	c0,0.1-0.1,0-0.1,0.3c0-0.2-0.1-0.3-0.1-0.5c0,0.6-0.3,0.4-0.3,0.9c0-0.1,0-0.4,0-0.5c0.1,0,0.1,0.2,0.1-0.1c-0.1,0-0.1-0.1-0.1-0.3
	c0,0.4-0.2,0.5-0.2,0.9c-0.1-0.2-0.1-0.3-0.1-0.6c-0.2,0.2,0.1,0.9-0.1,0.9c-0.1-0.3,0.1-0.4-0.1-0.5l0-0.1c-0.1-0.8,0,0.6-0.2,0.6
	c0-0.4,0.1-0.3,0-0.6c-0.1,0.1-0.1,0.8-0.2,0.6l0-0.2c-0.1,0-0.2,0-0.3,0c0-0.1,0-0.1,0-0.1c-0.1-0.2,0,0.2-0.2-0.1l0,0.2
	c0.1,0.1,0.2,0.3,0.2,0.1c-0.1,0.2,0.1,0.5,0.1,0.9l0-0.1c0.2,0.6,0.4,0.7,0.6,0.9c0.1-0.4,0.2,0.2,0.4-0.2c0-0.5,0-0.1,0.1-0.2
	c-0.1,0.1,0,0.4,0.1,0.4c0-0.1,0-0.2,0.1-0.2c0,0.2,0.2,0.6,0.3,0.2c0.1,0.2,0,0.2,0,0.3c0,0.3,0.1-0.2,0.1,0l0,0.1
	c0.1,0,0.2,0.1,0.3,0.2c0-0.5,0.1-0.2,0.2-0.4c0,0.2,0.1,0.2,0.1,0.3l0-0.4c0-0.3,0.1,0.2,0.2,0l0-0.1c0.1-0.2,0.2,0.1,0.3,0.4
	c0.5-1,0.9,0.5,1.5,0.2c0-0.2-0.1-0.2,0-0.5c0.1-0.1,0.1,0,0.1-0.1c-0.1-0.1,0,0,0-0.1l-0.1,0.1l0-0.1c0,0,0,0.1-0.1,0.1
	c0-0.1,0-0.5,0.1-0.4l0,0.1c0.1,0,0-0.1,0.1-0.1c0.1,0.1,0,0,0.1,0.1l0.2,0.2c0-0.4,0.2,0,0.2,0c0,0.3-0.1,0.1-0.1,0.4l0.1,0.2
	l0-0.3l0.1,0.1v0.1c0-0.1,0-0.2,0-0.1l0,0.1l0-0.1c0,0.3,0.1,0.1,0.1,0.4c0.2,0.1,0.2-0.5,0.4-0.1c0-0.1,0-0.5,0.1-0.4
	c0,0.1,0.1,0.1,0,0.3l0.1-0.2c0.1,0.5,0.2,0.1,0.3,0.3l0,0.1c0-0.2,0.1-0.3,0.1-0.3l0,0.3c0.1,0.2,0-0.6,0.1-0.4
	c0-0.3-0.1-0.4-0.2-0.7c0.1,0.3,0.2,0.3,0.1,0.1c0.1-0.1,0.1,0,0.1,0.1l0-0.2c0.1,0,0.1,0.4,0.1,0.6c0-0.3,0.1-0.1,0.2-0.1l0,0.1
	l0.1,0c0-0.2,0.1-0.3,0.2-0.2l0,0.4c0.1,0.2,0-0.1,0-0.2c0.1-0.2,0.1,0.1,0.2,0.3C73.3,26.4,73.6,27.5,73.7,26.9"/>
<rect class="st2" width="183.1" height="226.7"/>
<path class="st0" d="M74.7,22.4L74.7,22.4L74.7,22.4z"/>
<path class="st0" d="M74.1,24.1L74,24L74.1,24.1z"/>
<path class="st0" d="M85.5,22.7L85.5,22.7l0.1,0.2c0-0.2,0-0.4,0-0.7c0,0.3-0.1,0.1-0.2,0.2L85.5,22.7z"/>
<path class="st0" d="M85.1,21c0-0.1-0.1-0.2-0.1-0.2L85.1,21L85.1,21z"/>
<path class="st0" d="M83.9,20.5l0.1,0.1C84,20.5,83.8,20.3,83.9,20.5"/>
<path class="st0" d="M84.9,23.1l0-0.2C84.8,22.8,84.8,22.8,84.9,23.1C84.8,22.9,84.8,23.1,84.9,23.1"/>
<path class="st0" d="M83.6,20.6c0,0.3-0.1-0.1-0.1,0.2C83.6,20.6,83.7,20.9,83.6,20.6"/>
<path class="st0" d="M84.4,23.4c0.1,0.3,0.1,0,0.1,0.1C84.5,23.5,84.3,23.2,84.4,23.4"/>
<path class="st0" d="M83.4,21.5c0-0.2,0-0.2,0-0.2C83.4,21.4,83.4,21.5,83.4,21.5c0.1-0.1,0.1-0.1,0.1-0.2c-0.1-0.1-0.2-0.2-0.2-0.5
	C83.3,21,83.3,21.3,83.4,21.5"/>
<path class="st0" d="M84.3,23.5c0.1,0.1,0.1,0.3,0.2,0.2C84.4,23.6,84.3,23.4,84.3,23.5l0-0.3C84.1,23,84.3,23.5,84.3,23.5"/>
<path class="st0" d="M83,21l0.1,0.1c0-0.2,0.1-0.1,0.1-0.5C83.1,20.7,83,20.8,83,21"/>
<path class="st0" d="M83.9,23.1l0.1,0.4c0.1,0,0-0.1,0-0.2c0,0,0.1,0.1,0.1,0C84,23.3,84,22.9,83.9,23.1"/>
<path class="st0" d="M83.8,23.5l0,0.2l0.2,0.4C84,23.9,83.9,23.8,83.8,23.5"/>
<path class="st0" d="M83.7,23.3L83.7,23.3l0,0.5C83.7,23.6,83.7,23.6,83.7,23.3"/>
<path class="st0" d="M81.7,21.3c0,0.2,0.1,0.3,0.1,0.2C81.7,21.4,81.6,21.2,81.7,21.3"/>
<path class="st0" d="M82.6,24.1c-0.1-0.1-0.1,0.1-0.1,0.3C82.5,24.3,82.7,24.3,82.6,24.1"/>
<rect class="st2" width="183.1" height="226.7"/>
<path class="st0" d="M82.5,24.4L82.5,24.4L82.5,24.4z"/>
<path class="st0" d="M80.5,25.7L80.5,25.7L80.5,25.7z"/>
<path class="st0" d="M80.6,25.6c0,0,0.1-0.1,0.1-0.2C80.6,25.4,80.6,25.5,80.6,25.6C80.6,25.6,80.6,25.7,80.6,25.6"/>
<path class="st0" d="M80.1,25.6c0-0.1,0-0.1,0-0.2C80.1,25.3,80,25.5,80.1,25.6"/>
<path class="st0" d="M76.1,21.7c-0.1-0.1-0.1,0,0,0.2C76.1,21.9,76,21.8,76.1,21.7"/>
<rect class="st2" width="183.1" height="226.7"/>
<polygon class="st0" points="76,22 76,21.9 75.9,21.7 "/>
<path class="st0" d="M75.6,21.7l0-0.1L75.6,21.7z"/>
<path class="st0" d="M75.6,21.6L75.6,21.6L75.6,21.6z"/>
<path class="st0" d="M75.7,21.7l0-0.1L75.7,21.7C75.6,21.6,75.6,21.6,75.7,21.7"/>
<path class="st0" d="M75.5,21.7l0.1,0.3c0-0.2-0.1-0.2-0.1-0.5L75.5,21.7z"/>
<path class="st0" d="M75.3,21.8c-0.1-0.1-0.1,0.4-0.2,0c-0.1,0.2,0.1,0.7,0,0.9c0.2,0.2,0-0.8,0.2-0.6
	C75.2,21.9,75.3,21.9,75.3,21.8"/>
<path class="st0" d="M75.5,22.5C75.4,22.3,75.4,22.3,75.5,22.5C75.4,22.4,75.5,22.7,75.5,22.5"/>
<rect class="st2" width="183.1" height="226.7"/>
<polygon class="st0" points="75,22 75.1,22 75,21.9 "/>
<path class="st0" d="M74.9,22l0-0.2C74.9,21.8,74.8,21.8,74.9,22"/>
<path class="st0" d="M74.6,21.7c-0.1-0.1,0,0.5,0.1,0.3l0,0C74.6,22,74.5,21.8,74.6,21.7"/>
<path class="st0" d="M74.1,22.7c0,0,0.1-0.1,0-0.2L74.1,22.7L74.1,22.7z"/>
<path class="st0" d="M74.3,24c0.1,0.3,0.1,0,0.1,0.1C74.4,24,74.4,23.9,74.3,24"/>
<path class="st0" d="M73.9,22.2C73.9,22.1,74,22.1,73.9,22.2C74,22,73.9,22,73.9,22.2"/>
<path class="st0" d="M73.8,22.3c0-0.1,0-0.2-0.1-0.3c-0.1-0.1-0.1-0.1-0.1,0.1c0,0.1,0.1,0.5,0.1,0.7c0.1-0.1,0-0.8,0.2-0.3l0-0.6
	C73.8,21.9,73.9,22.4,73.8,22.3"/>
<path class="st0" d="M74.2,23.4l-0.1-0.2c0,0.2,0,0.2,0,0.3C74.1,23.9,74.1,23.4,74.2,23.4"/>
<rect class="st2" width="183.1" height="226.7"/>
<polygon class="st0" points="73.2,22.8 73.3,22.8 73.3,22.7 "/>
<polygon class="st0" points="73.2,22.7 73.2,22.5 73.2,22.4 "/>
<polygon class="st0" points="73.1,22.4 73.1,22.4 73.2,22.3 "/>
<path class="st0" d="M72.9,22.4l0,0.2c0-0.1,0.1,0.1,0.1-0.1C73,22.5,72.9,22.5,72.9,22.4"/>
<path class="st0" d="M72.7,27l0-0.3L72.7,27C72.7,27,72.7,26.9,72.7,27"/>
<path class="st0" d="M72.5,26.5l0,0.4c0.1,0,0.1-0.2,0.2-0.3c0-0.1-0.1,0.1-0.1,0.1L72.5,26.5z"/>
<path class="st0" d="M70.8,26.5c0-0.2,0-0.2,0-0.3c-0.1,0.1-0.1,0.1-0.2,0.1c0,0.1,0,0.4,0,0.3l0.1-0.1l0,0.2
	C70.8,26.8,70.7,26.4,70.8,26.5"/>
<path class="st0" d="M66.3,24.4l0-0.3C66.2,24.2,66.3,24.4,66.3,24.4"/>
<path class="st0" d="M79.7,40.3C79.8,40.1,79.7,40.2,79.7,40.3L79.7,40.3z"/>
<path class="st0" d="M79.7,40.3L79.7,40.3C79.7,40.3,79.7,40.3,79.7,40.3"/>
<path class="st0" d="M79.6,40c0.1-0.2,0.1,0.1,0.2-0.2C79.8,39.6,79.7,39.6,79.6,40"/>
<rect class="st2" width="183.1" height="226.7"/>
<polygon class="st0" points="79.5,40.3 79.6,40.2 79.6,40.1 "/>
<polygon class="st0" points="79.4,40.5 79.5,40.4 79.5,40.3 "/>
<path class="st0" d="M79.5,39.8L79.5,39.8c0,0.2-0.1,0.3-0.1,0.5c0.1,0,0.2-0.5,0.2-0.4c0.1-0.2-0.1,0,0-0.4
	C79.6,39.4,79.6,39.7,79.5,39.8"/>
<path class="st0" d="M76.1,40.4L76.1,40.4C76.1,40.4,76.1,40.4,76.1,40.4"/>
<rect class="st2" width="183.1" height="226.7"/>
<polygon class="st0" points="75.3,40.2 75.3,40.2 75.3,40.1 "/>
<path class="st0" d="M76.9,40.1L76.9,40.1L76.9,40.1z"/>
<polygon class="st0" points="73.6,36.3 73.6,36.3 73.6,36.2 73.6,36.2 "/>
<path class="st0" d="M74.2,40.3L74.2,40.3L74.2,40.3z"/>
<polygon class="st0" points="77.1,40.2 77.1,40.1 77.1,40.1 77.1,40.1 "/>
<path class="st0" d="M75.2,40.8L75.2,40.8L75.2,40.8z"/>
<path class="st0" d="M79.1,39.2C79.1,39.1,79.1,39.2,79.1,39.2C79,39.2,79,39.3,79.1,39.2"/>
<path class="st0" d="M78.8,39.1L78.8,39.1C78.8,39.1,78.8,39.1,78.8,39.1"/>
<path class="st0" d="M78.7,39L78.7,39C78.7,39,78.7,39,78.7,39"/>
<path class="st0" d="M79,39.2c0-0.1,0.2-0.6,0-0.1L79,39.2c0-0.2-0.1,0-0.1,0l0,0.1l0,0.1C78.8,39.5,79,39.3,79,39.2"/>
<path class="st0" d="M76.1,40.3C76.1,40.4,76.1,40.4,76.1,40.3"/>
<rect class="st2" width="183.1" height="226.7"/>
<path class="st0" d="M76.6,40.1L76.6,40.1L76.6,40.1z"/>
<path class="st0" d="M77.3,40.7L77.3,40.7C77.3,40.7,77.3,40.7,77.3,40.7"/>
<rect class="st2" width="183.1" height="226.7"/>
<path class="st0" d="M76.5,40.1L76.5,40.1L76.5,40.1z"/>
<path class="st0" d="M77.2,40.3L77.2,40.3L77.2,40.3z"/>
<path class="st0" d="M70.8,33.1c0,0,0,0.1,0,0.1c0.2-0.3-0.1,0,0.1-0.3L70.8,33.1l-0.1,0.2C70.8,33.2,70.8,33.2,70.8,33.1"/>
<path class="st0" d="M73.7,35.6L73.7,35.6c0.1-0.1,0.1-0.1,0.1-0.2c-0.1,0.2-0.3,0.5-0.4,0.7l0,0L73.7,35.6z"/>
<rect class="st2" width="183.1" height="226.7"/>
<polygon class="st0" points="73.4,36.1 73.4,36.2 73.4,36.3 73.4,36.1 "/>
<path class="st0" d="M71.4,33.5L71.4,33.5C71.4,33.5,71.4,33.5,71.4,33.5"/>
<rect class="st2" width="183.1" height="226.7"/>
<path class="st0" d="M76.6,36.7L76.6,36.7L76.6,36.7z"/>
<polygon class="st0" points="73.9,36.2 73.9,36.2 73.9,36.1 "/>
<path class="st0" d="M71.2,38.2c0.2-0.3,0,0,0.1-0.2L71.2,38.2C71.1,38.3,71.2,38.2,71.2,38.2"/>
<rect class="st2" width="183.1" height="226.7"/>
<polygon class="st0" points="70.8,33 70.8,33 70.8,33 "/>
<path class="st0" d="M70.5,38L70.5,38L70.5,38z"/>
<path class="st0" d="M73.5,36.4L73.5,36.4L73.5,36.4C73.5,36.5,73.6,36.2,73.5,36.4"/>
<path class="st0" d="M72.9,37l0.2-0.4l0,0l0.1-0.1c0,0,0-0.1,0,0C72.9,36.9,72.9,36.9,72.9,37 M75.1,36.7c0,0,0.2-0.2,0.2-0.3
	c-0.1,0.1,0-0.1-0.1,0.1l0,0C75.1,36.6,75.1,36.7,75.1,36.7 M78.2,38.5C78.2,38.3,78.2,38.4,78.2,38.5L78.2,38.5z M78.4,39.2
	l0.1-0.2C78.4,39.1,78.4,39.2,78.4,39.2 M78.8,39L78.8,39L78.8,39z M77,40.2c0.1-0.1,0,0,0,0.1c0-0.1-0.1,0-0.1-0.2l-0.1,0.2
	c0,0,0-0.1,0.1-0.3C77.1,39.7,76.9,40.4,77,40.2 M77.4,40.5L77.4,40.5C77.4,40.4,77.5,40.3,77.4,40.5 M71.4,38.6l-0.1,0.2
	c0.3-0.4,0.1,0.3,0.5-0.3c-0.3,0.8,0.4-0.6,0.2,0.1l0.1-0.1c0.2,0.3,0.3,0.9,0.8,0.7l-0.1,0.1c0.3,0.5,1,0.5,1.4,1
	c0.1-0.1,0.3-0.4,0.4-0.5c0,0,0.1,0-0.1,0.2c-0.1,0.1-0.2,0.2-0.2,0.3c0.1,0,0,0.3,0.2,0.1l0.1-0.2c0.1-0.1,0.1,0,0.1,0
	c-0.1,0.1-0.2,0.4-0.3,0.4c0.5-0.5-0.1,0.3,0.2,0.1c0.3-0.4,0.7-0.8,0.9-1l0,0.1c0,0-0.2,0.3-0.3,0.3c0,0.2,0.1,0,0.1,0.1
	c0.1-0.1,0.2-0.3,0.2-0.3c0,0.1-0.2,0.3-0.1,0.4l-0.1,0.1c-0.1,0.2,0.1,0,0.1,0c-0.1,0.2-0.1,0.3-0.2,0.5c0.2-0.2,0.1-0.1,0.3-0.2
	c0.1-0.2,0.2-0.2,0.3-0.4l-0.1,0c0,0.2,0,0-0.2,0.4c0.1-0.2,0.4-0.5,0.3-0.5c0.2-0.1,0.1,0,0.4-0.2c-0.1,0,0.1-0.2,0.2-0.3
	c0.1,0-0.1,0.1-0.2,0.3c0,0-0.1,0.2,0.1,0c0,0.1-0.2,0.2-0.2,0.4c-0.2,0.2,0-0.4-0.4,0.4c0,0-0.2,0.2-0.3,0.2c0,0.1-0.1,0.4,0,0.3
	l0.3-0.4c0,0,0.2-0.3,0.2-0.2c-0.1,0.1-0.2,0.3-0.1,0.3l0.1-0.1c0.1,0,0.2-0.3,0.4-0.3c0-0.1,0.1-0.3,0.1-0.5c0.2-0.3,0.1,0,0.1,0
	l-0.1,0.1l0.1-0.1c0,0.2-0.3,0.4-0.3,0.6c-0.1,0.3,0.1-0.1,0.1,0l0-0.1l0,0l0,0c0.1,0,0.1,0,0.2-0.2c-0.1,0.1,0,0,0.1-0.1
	c0.1-0.1,0.3-0.3,0.1,0.1l0,0c0,0.1,0,0.2-0.1,0.3l0,0.1l-0.2,0.3c0.1,0,0.2-0.2,0.4-0.5c-0.1,0.2,0.1,0.1,0.2,0l0,0l0-0.1
	c0,0,0.1-0.1,0.2-0.1c0,0,0,0,0,0l0,0l0,0l0,0.1c-0.1,0.3,0.2-0.1,0.1,0l0,0c0,0.1-0.2,0.5-0.1,0.3c0,0,0,0,0.1-0.1l0,0.1l0-0.1
	c0.1-0.1,0.1-0.2,0.1-0.1l0,0.1c0,0,0,0,0.1,0l-0.1,0.1c0,0,0,0.1,0,0.1c-0.1,0.5,0.2-0.1,0.1,0.3c0.1-0.2,0.1-0.3,0.2-0.4l0.3-0.4
	c-0.1,0.3-0.1,0.6-0.3,1c0.1,0.1,0.1-0.3,0.2-0.4l0,0c0-0.1,0.1-0.2,0.1-0.4c0.1-0.2,0.2-0.3,0.2-0.2l-0.2,0.3
	c0.1-0.1,0.3-0.5,0.5-0.8c0,0.1-0.2,0.4-0.3,0.7l0.1-0.1l-0.1,0.2c0.1,0,0.2-0.3,0.2-0.1c-0.1,0.2,0,0.3-0.2,0.5
	c0,0.1,0.2-0.4,0.1,0c0.1-0.2,0-0.1,0.1-0.2c0.2-0.4,0.1-0.1,0.2-0.2c-0.1,0.2-0.1,0.2-0.1,0.4c0.1-0.1,0.1-0.2,0.1-0.1
	c0.1-0.2,0.1,0,0.1,0c0-0.1,0-0.2,0.1-0.4c0.1-0.1,0.1-0.1,0.1-0.1l0-0.1c0.2-0.3-0.1,0.3,0,0.2c-0.1,0.1-0.1,0.1-0.2,0.3l0.3-0.4
	l-0.1,0.4c0.1-0.2,0,0,0.1-0.2c0,0.2-0.2,0.3-0.2,0.4c0,0.2,0.2-0.4,0.1,0l-0.1,0.2c0,0,0.1-0.1,0.1,0c0-0.1,0-0.1,0-0.1
	c0.2-0.5,0.2-0.3,0.4-0.8l0,0c0.1-0.1,0.2-0.4,0.2-0.2c0,0.2-0.1,0.3-0.2,0.5c0,0.1,0.2-0.5,0.3-0.5c0-0.1,0.1-0.3,0.1-0.4
	c0,0,0-0.2-0.1,0.1l0,0.1c-0.1,0.1-0.1,0.2-0.1,0.2c0,0,0.1-0.2,0.1-0.3c0-0.1-0.2,0.5-0.3,0.5l0-0.1c-0.1,0.1-0.1,0.1-0.3,0.4
	c0.1-0.3-0.1,0.1-0.1-0.1c0.3-0.7,0.1,0.1,0.3-0.3c0-0.2,0.2-0.3,0.2-0.5l-0.2,0.3c0-0.1,0.2-0.5,0-0.2l0,0
	c-0.1,0.1-0.2,0.4-0.2,0.2l0.1-0.2c0-0.1-0.1,0.1-0.1,0.2c0-0.1,0.1-0.3,0.1-0.4c-0.2,0.3,0-0.1-0.1-0.1c-0.2,0.4-0.4,0.5-0.5,0.9
	l-0.2,0.2c0.1-0.2,0.3-0.5,0.4-0.9l0.1,0c0.2-0.5-0.3,0.3-0.1-0.3c0,0,0,0,0-0.2l-0.2,0.4c0-0.1,0.1-0.4,0.2-0.4l0,0l0.1-0.1
	c0.1-0.2,0-0.2,0,0C78.8,39,78.8,39,78.8,39l0.1-0.2L78.7,39l0,0c0,0.1-0.1,0.3-0.2,0.5c0-0.2-0.1-0.1,0-0.5
	c0.1-0.1,0.2-0.3,0.2-0.3c0-0.1-0.1,0.1-0.2,0.3l0,0c0.1-0.1,0.1-0.2,0.1-0.3l0-0.1c-0.2,0.3-0.2,0.1-0.2,0.3l0,0
	c-0.1,0.2-0.3,0.5-0.2,0.3c0.2-0.2,0.1-0.4,0.3-0.4c0.2-0.5-0.2,0.3-0.2,0.1l0.1-0.2c0.1-0.2,0.1-0.1,0.2-0.2l0,0
	c0.1-0.2,0.1,0,0.3-0.3l0-0.2c-0.3,0.2-0.2-0.2-0.6,0.3l0,0c0,0,0,0.1-0.1,0.2l0-0.1l-0.1,0.2c0.1-0.2,0.1-0.3,0.2-0.5
	c-0.1,0.2-0.1,0.2-0.2,0.3c-0.1,0.2-0.2,0.3-0.2,0.2c0.1-0.2,0.1-0.2,0.2-0.3c0,0.1-0.1,0.2-0.1,0.2c0-0.1,0-0.2,0.1-0.3
	c0,0,0,0,0,0.1c0,0,0.1-0.2,0.2-0.3l-0.1,0c0.1-0.2,0.1-0.2,0.2-0.3c-0.1,0.1-0.4,0.5-0.5,0.5c0.1-0.1,0.3-0.5,0.2-0.4
	c0-0.1-0.3,0.4-0.4,0.4c0.1-0.1,0.1-0.1,0.1-0.1c-0.1-0.2-0.2-0.3-0.1-0.8l-0.3,0.4l0.1-0.3c0-0.3-0.2-0.2-0.5-0.1
	c-0.1,0,0.1-0.3,0.2-0.4c-0.1-0.1-0.4,0.3-0.5,0.3c0.1-0.1,0.3-0.4,0.3-0.5c-0.1,0.1-0.2,0.3-0.2,0.2l0.1-0.1c0.1-0.2,0,0,0-0.1
	c-0.1,0-0.3,0.2-0.7,0.6c0-0.1,0.3-0.4,0.3-0.5c0,0.2,0.1,0,0.2-0.2c-0.1,0.1-0.2,0.1,0-0.1c0,0-0.1,0-0.2,0.1
	c0.1-0.1,0,0.1-0.1,0.2c0-0.1-0.1-0.1,0.1-0.4c-0.2,0-0.4-0.2-0.6-0.4c-0.1,0.2,0,0.1-0.1,0.2c-0.2,0.2,0-0.1-0.1,0l0.1-0.2
	c0-0.1-0.3,0.2-0.5,0.4c0.1-0.2,0.1-0.2,0.2-0.3c0,0,0.5-0.9,0.4-0.8l-0.5,0.9c-0.1,0.1-0.1,0-0.1,0.1c0.1-0.2,0.2-0.4,0.2-0.4
	c0.1-0.2,0.1-0.2,0.2-0.1c0.2-0.4,0.1-0.3,0.3-0.6c-0.1,0-0.1,0.2-0.2,0.3l0-0.1l0,0.1c-0.1,0.1-0.3,0.4-0.2,0.1l-0.3,0.3
	c0.2-0.3,0-0.1,0-0.2l0.1-0.2c0,0,0-0.1,0-0.2c0.2-0.2,0,0.1,0.2-0.2l0-0.1c-0.1,0.2-0.2,0.3-0.2,0.4c-0.2,0.3-0.4,0.5-0.5,0.5
	c0.1-0.3,0.2-0.2,0.4-0.5c0-0.2-0.6,0.7-0.6,0.6c0-0.2-0.2,0.1-0.2,0.1c0.1-0.2,0.1-0.2,0.2-0.4l0.2-0.2c-0.1,0,0,0,0.1-0.2
	c-0.2,0.3-0.2,0.2-0.4,0.3l-0.1,0.2c-0.1,0.1-0.2,0.2-0.2,0.1c-0.1,0-0.2,0.2-0.4,0.5c0.1-0.2,0.2-0.5,0.4-0.7c-0.1,0.1,0,0.1,0,0.2
	c0.2-0.2,0.5-0.6,0.5-0.4c0.4-0.5-0.1,0,0-0.2l0,0l0,0c0.1-0.1,0.2-0.1,0.3-0.4c-0.1,0-0.4,0.5-0.3,0.3c-0.1,0.1,0.1-0.3,0.1-0.4
	c-0.2,0.2-0.4,0.6-0.4,0.5l0.2-0.3c-0.1-0.1-0.3,0.4-0.4,0.4c0,0.1-0.2,0.3-0.2,0.3c-0.1,0.2-0.2,0.2-0.2,0c0,0-0.1,0.1-0.1,0.2
	c-0.1,0.2,0.2-0.2,0,0.2l0.2-0.3c0,0.1-0.2,0.4-0.3,0.5c0,0,0.1,0,0,0c-0.3,0.5,0.1-0.2-0.2,0.2l0,0c-0.2,0.3-0.2,0.2-0.3,0.2
	c0.1-0.2,0.1-0.3,0.2-0.5l0.1-0.1c0.1-0.2-0.1,0.1-0.2,0l0-0.1l0,0.1l0-0.1c0,0-0.1,0.1-0.1,0l-0.1,0.2l0.1-0.1c0,0,0,0.2-0.1,0.3
	c-0.1,0.1,0.1-0.3,0.2-0.5c0.2-0.3,0.1,0,0.1-0.1c0.2-0.3,0-0.1,0-0.3c0.2-0.3,0.1,0,0.3-0.3c0-0.1-0.2,0.2-0.2,0
	c0.1-0.2,0.2-0.1,0.3-0.4l0-0.1c0.1,0,0.2-0.4,0.4-0.5c0.1-0.2-0.2,0.3-0.1,0c-0.1,0.2-0.2,0.5-0.3,0.6l0-0.1
	c0.1-0.2,0.3-0.3,0.3-0.5l-0.1,0.1c-0.1,0.1-0.1,0.2-0.2,0.3c0-0.1-0.3,0.4-0.4,0.5c0,0,0-0.1,0-0.2c-0.2,0.3-0.3,0.2-0.5,0.5
	c0.2-0.2,0.2-0.4,0.3-0.5c0.1,0,0.3-0.4,0.4-0.6c-0.1,0-0.3,0.4-0.3,0.5c0-0.2-0.2,0.2-0.1,0c0-0.1,0.2-0.3,0.3-0.5
	c0,0-0.2,0.4-0.3,0.3l0.1-0.1c0-0.1-0.1,0.1-0.2,0.2c0.2-0.5-0.1,0,0.1-0.4c-0.1,0.1-0.1,0.2-0.2,0.4c-0.1,0.2-0.1,0-0.1-0.1
	c0,0,0.1-0.1,0.1,0l0.1-0.3c0-0.3-0.4,0.6-0.4,0.3c0.1-0.1,0.1-0.2,0.3-0.4c-0.1,0.1-0.1-0.1-0.2,0.2l0-0.2
	c-0.1,0.1-0.2,0.2-0.3,0.4c0-0.1,0-0.3,0.1-0.4c-0.2,0.2-0.1-0.3-0.3-0.1l0,0c-0.1-0.1-0.2,0.4-0.2,0.4c0.2-0.4,0.1-0.3,0.1-0.5
	c0-0.2-0.3,0.2-0.3-0.1c0-0.1,0.1-0.2,0.1-0.2c0-0.2-0.1-0.1-0.2-0.2l0,0c0-0.4-0.3,0-0.4,0c0,0,0.1-0.2,0.1-0.2
	c0-0.1-0.1-0.2-0.3,0.1c0.1-0.4-0.1,0.1-0.1-0.3c0-0.1,0-0.1,0-0.1c0-0.1,0-0.1-0.1-0.2c-0.2,0.2-0.4,0.7-0.5,0.5
	c0.2-0.5,0.1-0.1,0.3-0.5c-0.1,0.1-0.1,0.2-0.1,0c0.1-0.2,0-0.1,0.1-0.3c0-0.2-0.3,0.5-0.3,0.5c0,0.1,0,0.2,0,0.2
	c-0.1,0.3-0.1,0-0.2,0.1c0,0,0,0.1-0.1,0.4c0-0.1-0.2,0.4-0.4,0.6c0-0.3,0.2-0.4,0.3-0.8c0-0.1,0.1-0.4,0.2-0.6
	c0-0.1-0.2,0.2-0.3,0.3l0-0.1c-0.1,0-0.3,0.5-0.3,0.2l0,0.1c0,0.1-0.1,0-0.1,0.2l0.1-0.5c-0.2,0.6-0.3,0.3-0.5,0.8
	c0-0.1,0.1-0.4,0.1-0.5c0,0.1,0,0.2,0.1,0c0,0,0-0.2,0-0.3c-0.1,0.3-0.3,0.5-0.4,0.8c0-0.2,0-0.3,0.1-0.6c-0.2,0.2-0.1,0.9-0.3,0.9
	c0-0.3,0.1-0.4,0.1-0.5l0,0c0.1-0.8-0.2,0.5-0.2,0.5c0.1-0.4,0.1-0.3,0.1-0.6c-0.1,0.1-0.2,0.7-0.3,0.6l0-0.2
	c-0.1,0-0.1-0.1-0.2-0.1c0-0.1,0-0.1,0-0.1c-0.1-0.2-0.1,0.2-0.1-0.1l-0.1,0.2c0,0.2,0,0.4,0.1,0.1c-0.1,0.2,0,0.6-0.1,0.9l0-0.1
	c0,0.6,0.1,0.8,0.2,1c0.2-0.4,0.1,0.2,0.2-0.1c0.1-0.5,0-0.1,0.1-0.2c-0.1,0.1-0.1,0.4-0.1,0.4c0-0.1,0.1-0.2,0.1-0.2
	c0,0.2-0.1,0.6,0.1,0.3c0,0.2-0.1,0.2-0.1,0.3c-0.1,0.3,0.1-0.2,0.1,0l0,0.1c0.1,0,0.1,0.1,0.1,0.2c0.1-0.5,0.1-0.2,0.2-0.3
	c-0.1,0.2,0,0.2,0,0.3l0.1-0.3c0.1-0.3,0,0.2,0.1,0.1l0-0.1c0.1-0.1,0.1,0.2,0,0.5c0.6-0.8,0.2,0.7,0.6,0.6c0.1-0.1,0.1-0.2,0.2-0.4
	c0.1,0,0.1,0,0.1,0c0-0.1,0,0,0-0.1L70.3,37l0-0.1c0,0-0.1,0.1-0.1,0.1c0.1-0.1,0.2-0.4,0.2-0.3l-0.1,0.1c0,0,0.1-0.1,0.1,0
	c0,0.1,0,0,0,0.1l0,0.2c0.2-0.4,0.1,0,0.1,0.1c-0.1,0.3-0.1,0.1-0.2,0.4l-0.1,0.2l0.1-0.2l0,0.1l0,0c0-0.1,0.1-0.2,0.1-0.1l-0.1,0.1
	l0.1-0.1c-0.1,0.2,0,0.1-0.1,0.4c0,0.2,0.3-0.3,0.2,0.1c0.1-0.1,0.2-0.4,0.2-0.4l-0.1,0.2l0.1-0.1c-0.2,0.5,0,0.2,0,0.4l-0.1,0.1
	c0.1-0.1,0.2-0.2,0.2-0.2l-0.1,0.2c0,0.2,0.3-0.5,0.3-0.3c0.1-0.3,0.2-0.4,0.3-0.7c-0.1,0.3-0.1,0.3,0,0.1c0.1-0.1,0,0,0,0.1
	l0.1-0.1c0,0-0.2,0.3-0.3,0.5c0.2-0.3,0.1,0,0.1,0L71.2,38l0,0.1c0.1-0.2,0.2-0.2,0.2-0.1l-0.2,0.3c-0.1,0.2,0.1-0.1,0.1-0.2
	c0.1-0.1,0,0.1-0.1,0.3C71.5,38.2,71.1,39.1,71.4,38.6"/>
<rect class="st2" width="183.1" height="226.7"/>
<path class="st0" d="M74.5,35.4L74.5,35.4L74.5,35.4z"/>
<path class="st0" d="M73.2,36.6l0-0.1L73.2,36.6z"/>
<path class="st0" d="M79,40.9L79,40.9l-0.1,0.2c0.1-0.1,0.2-0.4,0.3-0.6c-0.1,0.2-0.1,0.1-0.2,0.1L79,40.9z"/>
<path class="st0" d="M79.6,39.3c0-0.1,0.1-0.2,0.1-0.3l-0.1,0.1L79.6,39.3z"/>
<path class="st0" d="M79.3,38.4l0,0.1C79.4,38.4,79.4,38.2,79.3,38.4"/>
<path class="st0" d="M78.4,41l0.1-0.1c0-0.1,0-0.1-0.1,0C78.5,40.8,78.4,41,78.4,41"/>
<path class="st0" d="M79.2,38.3c-0.1,0.3,0-0.1-0.1,0.1C79.2,38.4,79.1,38.6,79.2,38.3"/>
<path class="st0" d="M78,41c-0.1,0.3,0,0.1,0,0.1C78,41.1,78.1,40.8,78,41"/>
<path class="st0" d="M78.6,39c0.1-0.2,0.1-0.2,0.1-0.1C78.7,38.9,78.6,39,78.6,39c0.1-0.1,0.1,0,0.2-0.1c0-0.2,0-0.3,0.2-0.5
	C78.8,38.5,78.7,38.8,78.6,39"/>
<path class="st0" d="M77.9,41c0,0.1-0.1,0.3,0,0.3C77.9,41.2,78,40.9,77.9,41l0.2-0.3C78.1,40.5,77.9,41.1,77.9,41"/>
<path class="st0" d="M78.8,38.4l0,0.1c0.1-0.2,0.1-0.1,0.3-0.3C79,38.2,78.8,38.3,78.8,38.4"/>
<path class="st0" d="M78,40.5l-0.2,0.3c0,0.1,0.1-0.1,0.1-0.2c0,0.1,0,0.1,0,0C77.9,40.7,78.1,40.4,78,40.5"/>
<path class="st0" d="M77.7,40.8l-0.1,0.1l-0.1,0.4C77.5,41.2,77.5,41.1,77.7,40.8"/>
<path class="st0" d="M77.7,40.6L77.7,40.6l-0.3,0.4C77.6,40.8,77.6,40.8,77.7,40.6"/>
<path class="st0" d="M78.1,38c-0.1,0.1-0.1,0.3-0.1,0.2C78.1,38.1,78.1,37.9,78.1,38"/>
<path class="st0" d="M76.8,40.7c0-0.1-0.1,0-0.2,0.1C76.6,40.7,76.7,40.9,76.8,40.7"/>
<rect class="st2" width="183.1" height="226.7"/>
<path class="st0" d="M76.5,40.8L76.5,40.8L76.5,40.8z"/>
<path class="st0" d="M74.9,40.8L74.9,40.8L74.9,40.8z"/>
<path class="st0" d="M75,40.7c0,0.1,0.1,0,0.2-0.1C75.1,40.6,75,40.7,75,40.7C74.9,40.8,74.9,40.9,75,40.7"/>
<path class="st0" d="M74.8,40.5c0.1-0.1,0.1,0,0.1-0.2C74.9,40.3,74.8,40.4,74.8,40.5"/>
<path class="st0" d="M75.5,35.6c0-0.1,0,0-0.1,0.2C75.4,35.7,75.5,35.6,75.5,35.6"/>
<rect class="st2" width="183.1" height="226.7"/>
<polygon class="st0" points="75.3,35.7 75.4,35.6 75.5,35.5 "/>
<path class="st0" d="M75.3,35.3L75.3,35.3L75.3,35.3z"/>
<path class="st0" d="M75.4,35.3L75.4,35.3L75.4,35.3z"/>
<path class="st0" d="M75.4,35.3l0.1-0.1L75.4,35.3C75.4,35.3,75.4,35.3,75.4,35.3"/>
<path class="st0" d="M75.3,35.3l-0.2,0.3c0.1-0.1,0.1-0.2,0.3-0.5L75.3,35.3z"/>
<path class="st0" d="M75.1,35.3c0-0.1-0.3,0.3-0.1,0c-0.2,0.1-0.3,0.6-0.5,0.7c0,0.2,0.5-0.6,0.4-0.4C75,35.3,75.1,35.4,75.1,35.3"
	/>
<path class="st0" d="M74.8,35.9c0.1-0.2,0.1-0.2,0-0.1C74.8,35.8,74.6,36.1,74.8,35.9"/>
<rect class="st2" width="183.1" height="226.7"/>
<polygon class="st0" points="74.8,35.3 74.9,35.3 74.9,35.2 "/>
<path class="st0" d="M74.8,35.2l0.2-0.2C74.9,35.1,74.9,35,74.8,35.2"/>
<path class="st0" d="M74.8,34.8c0-0.1-0.3,0.4-0.2,0.3l0,0C74.7,35.1,74.7,34.9,74.8,34.8"/>
<path class="st0" d="M74,35.4c0,0,0.1,0,0.1-0.1L74,35.4L74,35.4z"/>
<path class="st0" d="M73.3,36.5c-0.2,0.3,0.1,0,0,0.1C73.4,36.6,73.4,36.5,73.3,36.5"/>
<path class="st0" d="M74.2,34.9C74.3,34.8,74.3,34.9,74.2,34.9C74.3,34.8,74.3,34.8,74.2,34.9"/>
<path class="st0" d="M74.1,35c0.1-0.1,0.1-0.2,0.1-0.2c0-0.2,0-0.2-0.1,0c-0.1,0.1-0.2,0.5-0.3,0.6c0.1-0.1,0.5-0.6,0.2-0.2l0.3-0.5
	C74.3,34.6,74.1,35,74.1,35"/>
<path class="st0" d="M73.6,36l0.1-0.2c-0.1,0.2-0.1,0.2-0.2,0.2C73.3,36.4,73.6,36,73.6,36"/>
<rect class="st2" width="183.1" height="226.7"/>
<polygon class="st0" points="73.5,35.1 73.5,35.1 73.6,35 "/>
<polygon class="st0" points="73.5,35 73.6,34.9 73.7,34.8 "/>
<polygon class="st0" points="73.6,34.7 73.6,34.7 73.7,34.7 "/>
<path class="st0" d="M73.6,34.6l-0.1,0.2c0,0,0,0.2,0.1-0.1C73.5,34.8,73.5,34.7,73.6,34.6"/>
<path class="st0" d="M71,38.4l0.2-0.3L71,38.4C71,38.3,71,38.3,71,38.4"/>
<path class="st0" d="M71.1,37.9l-0.2,0.3C70.9,38.3,71.1,38,71.1,37.9c0.1,0-0.1,0.2-0.1,0.1L71.1,37.9z"/>
<path class="st0" d="M70.4,37.3c0.1-0.2,0.1-0.2,0.2-0.3c-0.1,0.1-0.1,0.1-0.2,0.1c0,0.1-0.2,0.3-0.1,0.3L70.4,37.3l-0.1,0.1
	C70.3,37.5,70.4,37.1,70.4,37.3"/>
<path class="st0" d="M68.7,34.2l0-0.3C68.7,34,68.7,34.2,68.7,34.2"/>
<path class="st0" d="M14.7,21.2C14.6,21.5,14.7,21.3,14.7,21.2L14.7,21.2z"/>
<rect class="st2" width="183.1" height="226.7"/>
<path class="st0" d="M14.7,21.3L14.7,21.3L14.7,21.3z"/>
<path class="st0" d="M14.9,21.6c-0.2,0.2-0.1-0.1-0.3,0.2C14.5,21.9,14.7,21.9,14.9,21.6"/>
<rect class="st2" width="183.1" height="226.7"/>
<polygon class="st0" points="14.9,21.3 14.8,21.5 15,21.3 "/>
<polygon class="st0" points="15,21.2 14.9,21.2 15.1,21.1 "/>
<path class="st0" d="M15,21.8L15,21.8c0-0.2,0.1-0.3,0.2-0.4c-0.1,0-0.3,0.5-0.3,0.3c-0.1,0.2,0.1,0.1-0.1,0.4
	C14.7,22.2,14.9,21.9,15,21.8"/>
<path class="st0" d="M18.8,21.4L18.8,21.4C18.8,21.4,18.8,21.4,18.8,21.4"/>
<rect class="st2" width="183.1" height="226.7"/>
<polygon class="st0" points="19.8,21.5 19.8,21.6 19.8,21.5 "/>
<path class="st0" d="M18,21.8l0-0.1L18,21.8z"/>
<polygon class="st0" points="22.9,25.4 22.9,25.4 22.9,25.3 22.9,25.3 "/>
<path class="st0" d="M20.9,21.3L20.9,21.3L20.9,21.3z"/>
<polygon class="st0" points="17.7,21.7 17.7,21.7 17.7,21.7 "/>
<path class="st0" d="M19.7,21L19.7,21L19.7,21z"/>
<path class="st0" d="M15.5,22.5C15.5,22.6,15.5,22.6,15.5,22.5C15.6,22.5,15.6,22.5,15.5,22.5"/>
<path class="st0" d="M15.8,22.7L15.8,22.7C15.8,22.7,15.8,22.7,15.8,22.7"/>
<path class="st0" d="M16,22.8L16,22.8C16,22.8,16,22.8,16,22.8"/>
<path class="st0" d="M15.6,22.5c0,0.1-0.3,0.6,0,0.1L15.6,22.5c0,0.2,0.1,0,0.2,0l0.1-0.1l0-0.1C15.8,22.2,15.7,22.4,15.6,22.5"/>
<path class="st0" d="M18.8,21.5C18.8,21.4,18.8,21.5,18.8,21.5"/>
<rect class="st2" width="183.1" height="226.7"/>
<path class="st0" d="M18.4,21.8L18.4,21.8L18.4,21.8z"/>
<path class="st0" d="M17.5,21.2L17.5,21.2C17.5,21.1,17.5,21.2,17.5,21.2"/>
<rect class="st2" width="183.1" height="226.7"/>
<path class="st0" d="M18.4,21.8L18.4,21.8L18.4,21.8z"/>
<path class="st0" d="M17.7,21.6L17.7,21.6L17.7,21.6z"/>
<path class="st0" d="M26.6,28.3c0,0,0-0.1,0-0.1c-0.2,0.3,0.1,0-0.1,0.3L26.6,28.3l0.1-0.2C26.5,28.1,26.6,28.1,26.6,28.3"/>
<path class="st0" d="M22.9,26L22.9,26c0,0.1-0.1,0.2-0.1,0.2c0.1-0.2,0.2-0.6,0.3-0.8c0,0,0,0,0,0L22.9,26z"/>
<rect class="st2" width="183.1" height="226.7"/>
<polygon class="st0" points="23.2,25.4 23.2,25.4 23.2,25.3 23.2,25.3 "/>
<path class="st0" d="M25.9,27.9L25.9,27.9C25.9,27.9,25.9,27.9,25.9,27.9"/>
<rect class="st2" width="183.1" height="226.7"/>
<path class="st0" d="M19.2,25.3L19.2,25.3L19.2,25.3z"/>
<polygon class="st0" points="22.5,25.5 22.6,25.5 22.6,25.5 "/>
<path class="st0" d="M25.2,23c-0.1,0.4,0,0,0,0.2L25.2,23C25.3,23,25.2,23,25.2,23"/>
<rect class="st2" width="183.1" height="226.7"/>
<polygon class="st0" points="26.6,28.3 26.5,28.4 26.6,28.3 "/>
<path class="st0" d="M26.1,23.3L26.1,23.3L26.1,23.3z"/>
<path class="st0" d="M23,25.2l-0.1-0.1l0,0.1C23,25.1,22.9,25.4,23,25.2"/>
<path class="st0" d="M23.5,24.5l-0.2,0.4l0,0l0,0.1c0,0,0,0.1,0,0C23.5,24.6,23.6,24.5,23.5,24.5 M21.1,25.1c0,0.1-0.1,0.2-0.1,0.3
	c0.1-0.1,0,0.1,0.1-0.1l0,0C21,25.2,21.1,25.1,21.1,25.1 M16.8,23.4c-0.1,0.2,0,0.1,0,0.1L16.8,23.4z M16.4,22.7l-0.1,0.2
	C16.3,22.7,16.4,22.7,16.4,22.7 M15.9,22.8L15.9,22.8L15.9,22.8L15.9,22.8z M17.9,21.7c-0.1,0.1,0-0.1,0-0.2c0,0.1,0.1,0,0.1,0.2
	l0.1-0.2c0,0,0,0.1-0.1,0.3C17.9,22.1,18,21.5,17.9,21.7 M17.5,21.3L17.5,21.3C17.4,21.5,17.4,21.5,17.5,21.3 M24.8,22.7l0.1-0.2
	c-0.3,0.4-0.2-0.3-0.5,0.3c0.1-0.8-0.3,0.7-0.2-0.1l0,0.1c-0.4-0.3-0.7-0.8-1.2-0.6l0.1-0.2c-0.5-0.5-1.3-0.4-1.8-0.8
	c-0.1,0.1-0.2,0.5-0.3,0.6c0,0-0.1,0,0-0.2c0.1-0.1,0.1-0.3,0.2-0.3c-0.1,0-0.1-0.3-0.2-0.1l0,0.3c-0.1,0.1-0.1,0-0.1,0
	c0.1-0.1,0.1-0.4,0.2-0.4c-0.4,0.5,0-0.3-0.2-0.1c-0.2,0.5-0.5,0.8-0.8,1.2l0-0.1c0.1,0,0.2-0.4,0.2-0.3c0-0.2-0.2,0-0.2-0.1
	c0,0.1-0.1,0.3-0.2,0.3c0-0.1,0.1-0.3,0.1-0.4l0.1-0.1c0.1-0.2-0.1,0-0.1,0.1c0.1-0.2,0-0.3,0.1-0.5c-0.2,0.3-0.1,0.1-0.3,0.2
	c0,0.2-0.1,0.3-0.2,0.4l0.1-0.1c0-0.2,0.1,0,0.2-0.4c0,0.2-0.3,0.6-0.2,0.5c-0.2,0.1-0.1,0-0.4,0.2c0.1,0-0.1,0.2-0.1,0.3
	c-0.1,0,0-0.1,0.1-0.4c0,0,0-0.2-0.1,0c0-0.1,0.1-0.3,0.2-0.4c0.1-0.2,0.1,0.4,0.4-0.4c0,0,0.2-0.3,0.3-0.2c0-0.1,0-0.4-0.1-0.2
	l-0.2,0.4c0,0-0.2,0.3-0.2,0.2c0.1-0.1,0.1-0.3,0.1-0.3c0,0.1,0,0.1,0,0.1c-0.1,0-0.2,0.3-0.3,0.4c0,0.1,0,0.3-0.1,0.5
	c-0.2,0.3-0.1,0-0.1,0.1l0.1-0.1l-0.1,0.1c0-0.2,0.2-0.4,0.2-0.6c0.1-0.3-0.1,0.1-0.1,0l0,0.1l0,0l0,0c-0.1,0-0.1,0-0.2,0.2
	c0-0.1,0,0-0.1,0.1c-0.1,0.1-0.2,0.3-0.1-0.1l0,0c0-0.1,0-0.2,0.1-0.3l0-0.1l0.1-0.3c-0.1,0-0.2,0.2-0.4,0.5c0-0.2-0.1-0.1-0.2,0
	l0,0l0,0.1c-0.1,0-0.1,0.1-0.2,0.1c0,0,0,0,0,0l0,0l0,0l0-0.1c0.1-0.3-0.2,0.1-0.1,0l0,0c0-0.1,0.2-0.5,0-0.3c0,0,0,0-0.1,0.1l0-0.1
	l0,0.1c-0.1,0.1-0.1,0.2-0.1,0.1l0-0.1c0,0,0,0-0.1,0l0-0.1c0,0,0-0.1,0-0.1c0.1-0.5-0.2,0.1-0.2-0.3c-0.1,0.2-0.1,0.3-0.2,0.4
	l-0.3,0.4c0.1-0.3,0.1-0.6,0.3-1c-0.1-0.1-0.1,0.3-0.2,0.4l0,0c0,0.1,0,0.2-0.1,0.4c-0.1,0.2-0.2,0.2-0.2,0.2l0.2-0.3
	c-0.1,0.1-0.4,0.5-0.6,0.8c0-0.2,0.2-0.4,0.3-0.7l-0.1,0l0.1-0.2c-0.1,0-0.2,0.3-0.2,0.1c0.2-0.2,0-0.3,0.2-0.5c0-0.1-0.2,0.3-0.1,0
	c-0.2,0.2,0,0.1-0.1,0.2c-0.2,0.4-0.2,0.1-0.2,0.2c0.1-0.2,0.1-0.2,0.2-0.3c-0.1,0.1-0.2,0.2-0.1,0c-0.1,0.2-0.1,0-0.1,0
	c0,0.1-0.1,0.2-0.2,0.4c-0.1,0.1-0.1,0.1-0.1,0.1l0,0.1c-0.2,0.3,0.1-0.3-0.1-0.2c0.1-0.1,0.1-0.1,0.2-0.3l-0.3,0.3l0.1-0.4
	c-0.1,0.2,0,0-0.2,0.2c0-0.2,0.2-0.2,0.3-0.4c0-0.2-0.3,0.3-0.1,0l0.1-0.2c0,0-0.1,0.1-0.1,0c0,0.1,0,0.1,0,0.1
	c-0.3,0.4-0.3,0.3-0.6,0.7l0,0c-0.1,0.1-0.3,0.4-0.3,0.2c0.1-0.2,0.2-0.3,0.3-0.4c0-0.1-0.3,0.5-0.4,0.4c0,0.1-0.1,0.3-0.2,0.4
	c0,0,0,0.2,0.1,0l0-0.1c0.1-0.1,0.1-0.2,0.2-0.2c0,0-0.1,0.2-0.1,0.3c0,0.1,0.3-0.5,0.3-0.4l0,0.1c0.1-0.1,0.2-0.1,0.3-0.4
	c-0.1,0.3,0.1-0.1,0.1,0.1c-0.4,0.7-0.1-0.1-0.3,0.2c0,0.2-0.2,0.3-0.3,0.4l0.3-0.2c0,0.1-0.2,0.4,0,0.2v0c0.1-0.1,0.2-0.3,0.2-0.2
	l-0.1,0.2c0,0.1,0.1-0.1,0.2-0.2c0,0.1-0.2,0.3-0.2,0.4c0.2-0.2,0,0.1,0.1,0.1c0.2-0.4,0.4-0.4,0.5-0.8l0.2-0.2
	c-0.1,0.2-0.3,0.5-0.5,0.8l-0.1-0.1c-0.2,0.5,0.3-0.2,0.1,0.3c0,0,0.1,0,0,0.2l0.2-0.4c0,0.1-0.1,0.4-0.2,0.4l0.1,0l-0.1,0.1
	c-0.1,0.3,0,0.2,0,0c0.1-0.1,0.1-0.1,0.1-0.1L15.8,23l0.1-0.1l0,0c0-0.1,0.1-0.3,0.2-0.5c0,0.2,0.1,0.2,0,0.6
	C16.1,23,16,23.1,16,23.2c0,0.1,0.2-0.1,0.2-0.3l0,0c0,0.1-0.1,0.2-0.1,0.3l0,0.1c0.2-0.3,0.2-0.1,0.3-0.3l0-0.1
	c0.1-0.2,0.3-0.5,0.2-0.3c-0.2,0.2-0.1,0.4-0.3,0.4c-0.2,0.5,0.2-0.3,0.2-0.1l0,0.2c-0.1,0.2-0.1,0.1-0.2,0.2l0,0
	c-0.1,0.2-0.2,0-0.4,0.2l0.1,0.2c0.3-0.2,0.4,0.2,0.8-0.2l0,0c0,0,0-0.1,0.1-0.2l0,0.1l0.1-0.2c-0.1,0.3,0,0.3-0.1,0.5
	c0-0.2,0-0.2,0.1-0.4c0.1-0.2,0.2-0.4,0.2-0.2c-0.1,0.2-0.1,0.2-0.1,0.3c0-0.1,0.1-0.2,0.1-0.2c0,0.1,0,0.2-0.1,0.4c0,0,0,0,0-0.1
	c0,0,0,0.2-0.1,0.3l0.1,0c0,0.2-0.1,0.2-0.2,0.3c0.1-0.1,0.4-0.5,0.5-0.6c0,0.1-0.2,0.5-0.2,0.4c0,0.1,0.3-0.4,0.4-0.4
	c-0.1,0.1-0.1,0.1-0.1,0.1c0.1,0.3,0.3,0.3,0.3,0.8l0.2-0.4L18,24.5c0.1,0.3,0.4,0.1,0.6,0.1c0.1,0-0.1,0.3-0.1,0.4
	c0.1,0.1,0.3-0.4,0.5-0.4c-0.1,0.1-0.2,0.5-0.2,0.5c0.1-0.1,0.1-0.3,0.1-0.2L18.9,25c0,0.2,0.1,0,0.1,0.1c0.1,0,0.3-0.2,0.6-0.6
	c0.1,0.1-0.2,0.4-0.2,0.5c0-0.2-0.1,0.1-0.2,0.2c0.1-0.1,0.2-0.2,0.1,0.1c0.1,0,0.1,0,0.2-0.2c-0.1,0.1,0-0.1,0.1-0.2
	c0,0.1,0.2,0.1,0,0.4c0.3,0,0.5,0.2,0.8,0.3c0.1-0.2,0-0.1,0.1-0.2c0.2-0.2,0,0.2,0.1,0l-0.1,0.2c0.1,0.1,0.3-0.3,0.4-0.4
	c-0.1,0.2,0,0.2-0.1,0.3c0.1,0-0.3,1-0.2,0.8l0.3-1c0-0.1,0.1,0,0.1-0.1c0,0.2-0.1,0.5-0.1,0.5c-0.1,0.3-0.1,0.2-0.1,0.2
	c-0.2,0.4,0,0.3-0.2,0.7c0.1,0,0.1-0.2,0.2-0.4l0,0.1l0-0.2c0.1-0.1,0.2-0.4,0.2-0.2l0.2-0.4c-0.1,0.3,0,0.1,0,0.2l-0.1,0.2
	c0,0,0,0.1,0,0.2c-0.1,0.3,0-0.1-0.1,0.2l0,0.1c0.1-0.2,0.2-0.3,0.2-0.4c0.2-0.3,0.3-0.6,0.4-0.5c-0.1,0.3-0.2,0.3-0.2,0.6
	c0.1,0.2,0.4-0.8,0.5-0.7c0,0.2,0.1-0.1,0.2-0.1c-0.1,0.2,0,0.3-0.1,0.5L21.9,26c0.1-0.1,0,0,0,0.2c0.1-0.3,0.2-0.2,0.3-0.4l0.1-0.3
	c0.1-0.1,0.2-0.2,0.2-0.1c0.1-0.1,0.2-0.3,0.3-0.5c0,0.2-0.1,0.5-0.3,0.8c0-0.1,0-0.1,0-0.2c-0.2,0.2-0.4,0.7-0.5,0.5
	c-0.3,0.6,0.1,0,0.1,0.2l0,0.1l0,0c-0.1,0.1-0.2,0.1-0.3,0.4c0.1,0,0.3-0.6,0.2-0.3c0.1-0.2,0,0.3,0,0.4c0.1-0.2,0.3-0.7,0.3-0.6
	l-0.2,0.3c0.1,0,0.2-0.5,0.3-0.4c0-0.1,0.1-0.3,0.1-0.4c0.1-0.2,0.2-0.2,0.2-0.1c0,0,0-0.1,0.1-0.2c0-0.3-0.2,0.2-0.1-0.2l-0.2,0.4
	c0-0.2,0.1-0.4,0.2-0.6c0,0,0,0.1,0,0c0.2-0.6,0,0.2,0.2-0.2l0,0c0.1-0.4,0.2-0.3,0.2-0.2c0,0.2,0,0.3-0.1,0.5L23,25.3
	c0,0.2,0.1-0.1,0.2-0.1l0,0.1l0-0.1l0,0.1c0,0,0.1-0.1,0.1,0l0.1-0.2l-0.1,0.1c0,0,0-0.2,0.1-0.3c0.1-0.1,0,0.3-0.1,0.5
	c-0.1,0.4-0.1,0-0.2,0.1c-0.1,0.4,0.1,0.1,0.1,0.3c-0.2,0.4-0.1,0-0.2,0.3c0,0.1,0.1-0.2,0.2-0.1c-0.1,0.2-0.1,0.2-0.2,0.4l0,0.1
	c-0.1,0-0.1,0.5-0.3,0.6c0,0.2,0.2-0.3,0.1,0c0-0.2,0.1-0.5,0.2-0.6l0,0.1c0,0.2-0.2,0.4-0.2,0.6l0.1-0.1c0-0.1,0-0.2,0.1-0.3
	c0,0.1,0.2-0.4,0.3-0.6c0,0,0,0.1,0,0.2c0.2-0.3,0.3-0.3,0.5-0.6c-0.1,0.2-0.1,0.4-0.2,0.6c-0.1,0-0.2,0.4-0.3,0.6
	c0.1,0,0.2-0.4,0.2-0.5c0,0.2,0.1-0.2,0.1,0c0,0.1-0.1,0.4-0.2,0.5c0.1,0,0.2-0.4,0.2-0.3l0,0.1c0,0.1,0.1-0.1,0.2-0.2
	c-0.1,0.5,0.1,0,0,0.4c0.1-0.1,0.1-0.3,0.1-0.4c0.1-0.2,0.1,0,0.1,0.1c0,0-0.1,0.1-0.1,0L24,27c0,0.3,0.3-0.7,0.3-0.4
	c-0.1,0.1-0.1,0.2-0.2,0.5c0-0.1,0.1,0,0.1-0.2l0.1,0.2c0.1-0.1,0.1-0.2,0.2-0.4c0,0.1,0,0.3,0,0.4c0.2-0.2,0.2,0.2,0.4,0l0,0
	c0.1,0.1,0.1-0.4,0.2-0.4c-0.1,0.4,0,0.3-0.1,0.5c0.1,0.2,0.3-0.2,0.4,0.1c0,0.1-0.1,0.2-0.1,0.2c0.1,0.2,0.1,0.1,0.2,0.1l0,0
	c0,0.4,0.3,0,0.4,0c0,0-0.1,0.2-0.1,0.2c0,0.1,0.1,0.2,0.3-0.1c0,0.4,0.1-0.1,0.1,0.3c0,0.1,0,0.1,0,0.1c0,0.1,0.1,0.1,0.1,0.2
	c0.2-0.2,0.4-0.7,0.5-0.5c-0.2,0.5-0.1,0.1-0.3,0.5c0.1-0.1,0.1-0.2,0.1,0c-0.1,0.2,0,0.1-0.1,0.3c0,0.2,0.3-0.5,0.3-0.5
	c0-0.1,0-0.2,0-0.2c0.1-0.3,0.1,0,0.2-0.1c0,0-0.1-0.1,0.1-0.4c0.1,0.1,0.2-0.4,0.4-0.6c0,0.3-0.2,0.4-0.3,0.8
	c0,0.1-0.1,0.4-0.2,0.6c0,0.1,0.2-0.2,0.3-0.3l0,0.1c0.1,0,0.3-0.4,0.4-0.2l0-0.1c0-0.1,0.1,0,0.2-0.2l-0.1,0.5
	c0.2-0.6,0.3-0.3,0.5-0.8c0,0.1-0.1,0.4-0.2,0.5c0-0.1,0-0.2-0.1,0c0,0,0,0.2,0,0.3c0.2-0.3,0.3-0.4,0.5-0.8c0,0.2,0,0.3-0.1,0.6
	c0.2-0.1,0.2-0.9,0.4-0.9c0,0.3-0.2,0.4-0.1,0.5l0,0c-0.2,0.8,0.2-0.5,0.3-0.5c-0.1,0.4-0.2,0.3-0.2,0.6c0.1-0.1,0.3-0.7,0.4-0.5
	l-0.1,0.2c0.1,0,0.1,0.1,0.2,0.1c0,0.1,0,0.1,0,0.1c0,0.2,0.1-0.2,0.1,0.1l0.1-0.2c0-0.2,0-0.4-0.1-0.2c0.1-0.2,0.1-0.5,0.2-0.9
	l-0.1,0.1c0.1-0.6-0.1-0.8-0.1-1c-0.2,0.4-0.1-0.2-0.3,0c-0.2,0.5-0.1,0.1-0.2,0.2c0.1,0,0.1-0.4,0.1-0.4c-0.1,0.1-0.1,0.2-0.1,0.2
	c0-0.2,0-0.6-0.1-0.3c0-0.2,0.1-0.1,0.1-0.2c0.1-0.3-0.1,0.2-0.1,0l0-0.1c-0.1,0-0.1-0.1-0.2-0.2c-0.2,0.5-0.1,0.1-0.2,0.3
	c0.1-0.1,0-0.2,0-0.3L28,25c-0.1,0.3,0-0.2-0.1-0.1l0,0.1c-0.1,0.1-0.1-0.2-0.1-0.5c-0.7,0.8-0.5-0.7-1-0.6
	c-0.1,0.1-0.1,0.2-0.1,0.4c-0.1,0-0.1,0-0.1,0c0,0.1,0,0,0,0.1l0.1-0.1l0,0.1c0,0,0.1-0.1,0.1-0.1c-0.1,0.1-0.2,0.5-0.2,0.3l0.1-0.1
	c0,0-0.1,0.1-0.1,0c0-0.1,0,0,0-0.1l-0.1-0.2c-0.2,0.4-0.1,0-0.1-0.1c0.1-0.3,0.1-0.1,0.2-0.4l0-0.2l-0.1,0.2l0-0.1l0,0
	c0,0.1-0.1,0.2-0.1,0.1l0-0.1l-0.1,0.1c0.1-0.2,0-0.1,0.1-0.4c-0.1-0.2-0.3,0.3-0.3-0.1c0,0.1-0.2,0.5-0.2,0.4l0.1-0.3l-0.1,0.1
	c0.1-0.5-0.1-0.2-0.1-0.4l0-0.1c-0.1,0.1-0.2,0.3-0.2,0.2l0.1-0.3c0-0.2-0.2,0.5-0.2,0.3c-0.1,0.3-0.1,0.4-0.2,0.7
	c0.1-0.3,0-0.4,0-0.1c-0.1,0.1,0,0,0-0.1L25.1,24c0,0,0.1-0.4,0.2-0.5c-0.1,0.3-0.1,0.1-0.2,0l0.1-0.1l-0.1-0.1
	c-0.1,0.2-0.2,0.2-0.2,0.1l0.2-0.4c0-0.2-0.1,0.1-0.1,0.2c-0.1,0.2-0.1-0.1,0-0.3C24.8,23.1,25,22.1,24.8,22.7"/>
<rect class="st2" width="183.1" height="226.7"/>
<path class="st0" d="M22.1,26.3L22.1,26.3L22.1,26.3z"/>
<path class="st0" d="M23.3,25.1l0-0.1L23.3,25.1z"/>
<path class="st0" d="M15.7,20.7L15.7,20.7l0.1-0.2c-0.1,0.1-0.3,0.3-0.4,0.5c0.2-0.2,0.1-0.1,0.3-0.1L15.7,20.7z"/>
<path class="st0" d="M14.9,22.3c0,0.1-0.1,0.2-0.1,0.2l0.1-0.1L14.9,22.3z"/>
<path class="st0" d="M15.2,23.3l0-0.2C15.2,23.3,15.1,23.5,15.2,23.3"/>
<path class="st0" d="M16.3,20.8l-0.1,0.1c0,0.1,0,0.1,0.1,0C16.2,21,16.3,20.8,16.3,20.8"/>
<path class="st0" d="M15.4,23.4c0.2-0.3,0,0.2,0.1-0.1C15.5,23.4,15.5,23.2,15.4,23.4"/>
<path class="st0" d="M16.8,20.8c0.1-0.3,0-0.1,0-0.1C16.7,20.7,16.6,21,16.8,20.8"/>
<path class="st0" d="M16.1,22.8C16,23,16,23,16,22.9C16.1,22.9,16.1,22.8,16.1,22.8c-0.1,0.1-0.1,0-0.2,0.1c0,0.2,0,0.3-0.2,0.5
	C15.9,23.3,16.1,23,16.1,22.8"/>
<path class="st0" d="M16.9,20.8c0-0.1,0.1-0.3,0-0.3C16.8,20.7,16.7,20.9,16.9,20.8l-0.2,0.3C16.6,21.3,16.8,20.8,16.9,20.8"/>
<path class="st0" d="M16,23.5l0-0.1c-0.1,0.2-0.2,0-0.3,0.3C15.8,23.7,15.9,23.6,16,23.5"/>
<path class="st0" d="M16.8,21.3L17,21c0-0.1-0.1,0.1-0.1,0.2c0-0.1,0-0.1,0,0C16.9,21.1,16.7,21.4,16.8,21.3"/>
<path class="st0" d="M17.1,21l0.1-0.1l0.1-0.4C17.2,20.6,17.3,20.7,17.1,21"/>
<path class="st0" d="M17.1,21.3L17.1,21.3l0.3-0.4C17.2,21.1,17.2,21,17.1,21.3"/>
<path class="st0" d="M17,23.9c0.1-0.1,0.1-0.3,0.1-0.2C17,23.9,17,24.1,17,23.9"/>
<path class="st0" d="M18.1,21.2c0,0.1,0.1,0,0.2-0.1C18.2,21.1,18.2,21,18.1,21.2"/>
<rect class="st2" width="183.1" height="226.7"/>
<path class="st0" d="M18.3,21.1L18.3,21.1L18.3,21.1z"/>
<path class="st0" d="M20,20.9L20,20.9L20,20.9z"/>
<path class="st0" d="M20,21c0-0.1-0.1,0-0.2,0.2C19.9,21.1,19.9,21,20,21C20,20.9,20.1,20.8,20,21"/>
<path class="st0" d="M20.3,21.2c-0.1,0.1-0.1,0-0.1,0.2C20.1,21.4,20.2,21.3,20.3,21.2"/>
<path class="st0" d="M20.9,26.3c0,0.1,0,0,0.1-0.2C21,26.2,21,26.3,20.9,26.3"/>
<rect class="st2" width="183.1" height="226.7"/>
<polygon class="st0" points="21,26.2 21,26.4 21.1,26.1 "/>
<path class="st0" d="M21.2,26.6L21.2,26.6L21.2,26.6z"/>
<path class="st0" d="M21.1,26.6L21.1,26.6L21.1,26.6z"/>
<path class="st0" d="M21.2,26.6l0,0.1L21.2,26.6C21.1,26.6,21.1,26.6,21.2,26.6"/>
<path class="st0" d="M21.3,26.6l0.1-0.3c-0.1,0.1,0,0.2-0.2,0.5L21.3,26.6z"/>
<path class="st0" d="M21.5,26.6c0,0.1,0.3-0.4,0.1,0c0.2-0.2,0.2-0.7,0.4-0.8c-0.1-0.2-0.3,0.7-0.4,0.5
	C21.6,26.6,21.5,26.5,21.5,26.6"/>
<path class="st0" d="M21.7,25.9c-0.1,0.2,0,0.2,0,0.1C21.7,26,21.8,25.7,21.7,25.9"/>
<rect class="st2" width="183.1" height="226.7"/>
<polygon class="st0" points="21.7,26.6 21.8,26.5 21.8,26.5 "/>
<path class="st0" d="M21.9,26.6l-0.1,0.2C21.8,26.7,21.8,26.8,21.9,26.6"/>
<path class="st0" d="M22,26.9c0,0.1,0.2-0.4,0.1-0.3l0,0C22,26.7,22,26.9,22,26.9"/>
<path class="st0" d="M22.7,26.3c0,0-0.1,0-0.1,0.1L22.7,26.3L22.7,26.3z"/>
<path class="st0" d="M23.1,25c0.1-0.3-0.1,0-0.1-0.1C23.1,25,23.1,25,23.1,25"/>
<path class="st0" d="M22.6,26.8C22.6,26.9,22.6,26.8,22.6,26.8C22.5,26.9,22.6,26.9,22.6,26.8"/>
<path class="st0" d="M22.8,26.7c0,0.1-0.1,0.2-0.1,0.3c0,0.2,0,0.2,0.1,0c0-0.1,0.1-0.5,0.2-0.7c-0.1,0.1-0.3,0.7-0.2,0.2L22.5,27
	C22.6,27.1,22.7,26.6,22.8,26.7"/>
<path class="st0" d="M23,25.6l0,0.2c0.1-0.2,0.1-0.2,0.1-0.3C23.2,25.1,23,25.6,23,25.6"/>
<rect class="st2" width="183.1" height="226.7"/>
<polygon class="st0" points="23.2,26.6 23.3,26.5 23.3,26.5 "/>
<polygon class="st0" points="23.2,26.7 23.2,26.8 23.3,26.6 "/>
<polygon class="st0" points="23.2,26.9 23.3,26.9 23.3,26.9 "/>
<path class="st0" d="M23.4,27l0-0.2c0,0,0-0.2-0.1,0.1C23.4,26.8,23.5,26.9,23.4,27"/>
<path class="st0" d="M25.4,22.9l-0.1,0.3L25.4,22.9C25.4,22.9,25.4,22.9,25.4,22.9"/>
<path class="st0" d="M25.4,23.4l0.2-0.3C25.5,23,25.4,23.2,25.4,23.4c-0.1,0,0-0.2,0.1-0.1L25.4,23.4z"/>
<path class="st0" d="M26.5,24c-0.1,0.2-0.1,0.2-0.1,0.3c0.1-0.1,0.1-0.1,0.2-0.1c0-0.1,0.2-0.4,0.1-0.3L26.5,24l0.1-0.1
	C26.6,23.7,26.5,24.2,26.5,24"/>
<path class="st0" d="M28.9,27.3l-0.1,0.3C28.9,27.5,28.8,27.3,28.9,27.3"/>
<path class="st0" d="M13.8,38.5L13.8,38.5c-0.2-0.2-0.1-0.3-0.2-0.4c-0.1,0,0.2,0.5,0.1,0.5c0.1,0.2,0.1,0,0.2,0.3
	C14,38.9,13.8,38.6,13.8,38.5"/>
<path class="st0" d="M16.3,35.8L16.3,35.8C16.3,35.8,16.3,35.8,16.3,35.8"/>
<rect class="st2" width="183.1" height="226.7"/>
<polygon class="st0" points="17.1,35.4 17.2,35.5 17.1,35.4 "/>
<path class="st0" d="M15.9,36.6L15.9,36.6C15.8,36.6,15.8,36.6,15.9,36.6"/>
<rect class="st2" width="183.1" height="226.7"/>
<polygon class="st0" points="21.1,37.8 21.1,37.8 21.1,37.7 21.1,37.7 "/>
<path class="st0" d="M18.1,34.8L18.1,34.8L18.1,34.8z"/>
<polygon class="st0" points="15.6,36.7 15.6,36.7 15.6,36.7 "/>
<path class="st0" d="M16.8,35L16.8,35L16.8,35z"/>
<path class="st0" d="M14.6,38.7C14.6,38.7,14.6,38.7,14.6,38.7C14.6,38.6,14.6,38.6,14.6,38.7"/>
<path class="st0" d="M14.8,38.6L14.8,38.6C14.9,38.6,14.9,38.6,14.8,38.6"/>
<path class="st0" d="M15,38.6L15,38.6C15,38.6,15,38.6,15,38.6"/>
<path class="st0" d="M14.6,38.6C14.7,38.8,14.8,39.3,14.6,38.6L14.6,38.6c0.1,0.1,0.1-0.1,0.1-0.1l0-0.1l-0.1,0
	C14.6,38.3,14.6,38.5,14.6,38.6"/>
<path class="st0" d="M16.3,35.9C16.3,35.8,16.3,35.8,16.3,35.9"/>
<rect class="st2" width="183.1" height="226.7"/>
<path class="st0" d="M16.1,36.3L16.1,36.3L16.1,36.3z"/>
<path class="st0" d="M15.1,36.4L15.1,36.4C15.1,36.3,15.1,36.4,15.1,36.4"/>
<rect class="st2" width="183.1" height="226.7"/>
<path class="st0" d="M16.1,36.3L16.1,36.3L16.1,36.3z"/>
<path class="st0" d="M15.4,36.6L15.4,36.6L15.4,36.6z"/>
<path class="st0" d="M24.9,39.5c0,0,0-0.1,0-0.1c-0.1,0.4,0.1,0,0,0.3C24.9,39.7,24.9,39.7,24.9,39.5l0-0.2
	C24.9,39.4,24.9,39.4,24.9,39.5"/>
<path class="st0" d="M21.3,38.4L21.3,38.4c0,0.1,0,0.2,0,0.2c0-0.2,0-0.6,0.1-0.8c0,0,0,0,0,0L21.3,38.4z"/>
<rect class="st2" width="183.1" height="226.7"/>
<polygon class="st0" points="21.4,37.8 21.4,37.8 21.4,37.7 21.3,37.7 "/>
<path class="st0" d="M24.3,39.4L24.3,39.4C24.3,39.4,24.3,39.4,24.3,39.4"/>
<rect class="st2" width="183.1" height="226.7"/>
<path class="st0" d="M18.2,39.1l0-0.1L18.2,39.1z"/>
<polygon class="st0" points="20.9,38 20.9,38.1 20.9,38 "/>
<path class="st0" d="M22.5,34.9c0,0.4,0,0,0,0.2L22.5,34.9C22.5,34.8,22.5,34.9,22.5,34.9"/>
<rect class="st2" width="183.1" height="226.7"/>
<polygon class="st0" points="24.9,39.6 24.9,39.6 24.9,39.6 "/>
<path class="st0" d="M23.4,34.9L23.4,34.9L23.4,34.9z"/>
<path class="st0" d="M21.2,37.6l-0.1,0L21.2,37.6C21.1,37.5,21.2,37.9,21.2,37.6"/>
<path class="st0" d="M21.4,36.8l0,0.5l0,0l0,0.1c0,0,0,0.1,0,0C21.4,36.9,21.5,36.8,21.4,36.8 M19.5,38.1c0,0.1-0.1,0.2,0,0.3
	c0-0.1,0,0.1,0.1-0.1l0,0C19.6,38.3,19.5,38.1,19.5,38.1 M15.8,38.6C15.9,38.8,15.9,38.7,15.8,38.6L15.8,38.6z M15.2,38.3l0.1,0.2
	C15.2,38.3,15.2,38.2,15.2,38.3 M14.9,38.7L14.9,38.7L14.9,38.7L14.9,38.7z M15.7,36.6c0,0.2-0.1,0-0.1-0.1c0.1,0.1,0.1,0,0.2,0.1
	l-0.1-0.2c0,0,0.1,0.1,0.1,0.3C15.9,37,15.6,36.3,15.7,36.6 M15.1,36.6L15.1,36.6C15.2,36.7,15.2,36.7,15.1,36.6 M22,34.7l0-0.2
	c-0.1,0.5-0.2-0.2-0.4,0.5c-0.1-0.8-0.1,0.7-0.2,0l0,0.1c-0.4-0.1-0.9-0.6-1.3-0.2l0-0.2c-0.7-0.3-1.3,0.1-2,0c-0.1,0.2,0,0.5,0,0.7
	c0,0-0.1,0-0.1-0.2c0-0.1,0-0.3,0-0.4c-0.1,0-0.2-0.2-0.2,0.1l0.1,0.3c0,0.1-0.1,0-0.1,0c0-0.1-0.1-0.4,0-0.5
	c-0.1,0.6-0.1-0.3-0.2,0c0,0.5-0.1,1-0.2,1.4l-0.1-0.1c0.1,0,0-0.4,0-0.4c-0.1-0.1-0.1,0.1-0.2,0c0,0.1,0,0.3,0,0.4
	c0-0.1-0.1-0.3-0.1-0.4l0-0.2c0-0.2-0.1,0.1-0.1,0.1c0-0.2-0.1-0.3-0.1-0.5c0,0.3-0.1,0.1-0.1,0.3c0.1,0.2,0,0.3,0,0.5l0.1-0.1
	c-0.1-0.1,0,0,0-0.4c0.1,0.2,0,0.6,0.1,0.6c-0.1,0.2-0.1,0-0.2,0.4c0.1-0.1,0,0.3,0.1,0.4c-0.1,0,0-0.1-0.1-0.4c0,0-0.1-0.2-0.1,0.1
	c-0.1-0.1,0-0.3-0.1-0.4c0-0.3,0.2,0.3,0.1-0.5c0,0,0-0.3,0.1-0.3c-0.1-0.1-0.2-0.4-0.2-0.2l0.1,0.5c0,0,0,0.3-0.1,0.3
	c0-0.1-0.1-0.3-0.1-0.3c0,0.1,0,0.1,0,0.1c-0.1,0,0,0.4-0.1,0.5c0.1,0.1,0.1,0.3,0.2,0.5c0,0.3,0,0.1-0.1,0.1l0-0.1l0,0.2
	c-0.1-0.1,0-0.5-0.1-0.6c-0.1-0.3,0,0.2-0.1,0l0,0.1l0,0l0,0c0,0.1-0.1,0-0.1,0.3c0-0.1,0,0,0,0.1c0,0.1,0,0.4-0.1,0l0,0
	C16,36.3,16,36.2,16,36L15.9,36l0-0.3c-0.1,0.1,0,0.3,0,0.6c-0.1-0.2-0.2,0-0.2,0.1l0,0l0.1,0.1c-0.1,0,0,0.2-0.1,0.2c0,0,0,0,0,0
	l0,0l0,0l0-0.1c-0.1-0.3,0,0.2-0.1,0.1l0,0c0-0.1-0.2-0.5-0.1-0.2c0,0,0,0,0,0.1l0,0l0,0c0,0.1,0,0.2,0,0.1l-0.1,0c0,0,0,0,0,0
	l0-0.1c0,0,0-0.1,0-0.1c-0.2-0.4-0.1,0.3-0.3-0.1c0,0.2,0.1,0.3,0.1,0.4l0,0.5c-0.1-0.3-0.3-0.5-0.4-1c-0.1,0,0.1,0.3,0.1,0.4l0,0
	c0,0,0.1,0.2,0.2,0.4c0.1,0.2,0,0.3,0,0.3l-0.1-0.3c0,0.1,0.1,0.6,0.1,1c-0.1-0.1-0.1-0.4-0.2-0.7l0,0.1L14.5,37
	c0,0.1,0,0.3-0.1,0.2c0-0.2-0.1-0.2-0.2-0.5c-0.1-0.1,0.1,0.4,0,0.1c0.1,0.3,0.1,0.1,0.1,0.2c0.1,0.4,0,0.2,0,0.3
	c-0.1-0.2,0-0.2-0.1-0.4c0,0.2,0,0.3,0,0.1c0.1,0.3,0,0.1-0.1,0.1c0,0,0.1,0.2,0.2,0.4c0,0.1,0,0.2-0.1,0.1l0.1,0.1
	c0.1,0.4-0.1-0.2-0.2-0.1c0-0.2,0-0.2,0-0.4l0,0.5l-0.2-0.3c0.1,0.2-0.1,0,0,0.2c-0.1-0.1,0-0.3-0.1-0.5c-0.1-0.1,0.1,0.4-0.1,0.1
	L13.6,37c0,0,0,0.1-0.1,0c0,0.1,0,0,0,0c0.1,0.5,0,0.4,0.2,0.9l0,0c0,0.1,0.1,0.5,0,0.3c-0.1-0.2-0.1-0.4-0.1-0.5
	c-0.1,0,0.2,0.6,0.1,0.5c0.1,0.1,0.1,0.3,0.1,0.4c0,0,0.1,0.1,0.1-0.1l0,0c0-0.1,0-0.2-0.1-0.3c0,0,0.1,0.2,0.1,0.3
	c0.1,0.1-0.2-0.5-0.1-0.5l0,0.1c0-0.1,0-0.2-0.1-0.5c0.1,0.3,0-0.2,0.1,0c0.2,0.7-0.1,0,0,0.4c0.1,0.1,0.1,0.4,0.1,0.5l0-0.3
	c0,0.1,0.2,0.5,0.1,0.2l0,0c0-0.1-0.1-0.4,0-0.3l0.1,0.2c0.1,0.1,0-0.2,0-0.2c0.1,0.1,0.1,0.3,0.1,0.4c0-0.3,0.1,0,0.1,0
	c-0.1-0.4,0-0.6-0.2-1l0-0.3c0.1,0.2,0.1,0.6,0.2,0.9l-0.1,0c0.2,0.5,0-0.4,0.2,0.2c0,0,0-0.1,0.1,0.2l-0.1-0.5
	c0.1,0.1,0.1,0.3,0.2,0.4c0,0,0,0,0.1,0l0,0.2c0.1,0.3,0.1,0.2,0,0c0-0.1,0-0.1,0-0.1l0,0.2l0-0.2l0,0c0-0.1-0.1-0.3-0.2-0.5
	c0.1,0.2,0.2,0.1,0.3,0.4c0,0.1,0,0.3,0.1,0.3c0,0.1,0-0.2,0-0.4l0,0c0,0.1,0.1,0.2,0.1,0.3l0,0.1c-0.1-0.4,0-0.2,0-0.4
	c0,0,0,0-0.1,0c0-0.3-0.1-0.5,0-0.3c0,0.2,0.1,0.4,0.1,0.5c0.2,0.5,0-0.3,0-0.2l0.1,0.2c0.1,0.3,0,0.1,0,0.2l0,0
	c0,0.2-0.1,0.1-0.1,0.4l0.1,0.1c0.1-0.4,0.3,0,0.3-0.6l0,0c0,0,0-0.1,0-0.2l0,0.1l0-0.2c0.1,0.3,0.1,0.3,0.2,0.5
	C16,38.7,16,38.7,16,38.5c0-0.3-0.1-0.4,0-0.3c0,0.2,0,0.2,0.1,0.3c0-0.1,0-0.2,0-0.3c0,0.1,0.1,0.1,0.1,0.3c0,0.1,0,0,0,0
	c0,0.1,0.1,0.2,0.1,0.3l0-0.1c0,0.2,0,0.3,0.1,0.4c0-0.1,0-0.6,0.1-0.7c0,0.1,0.1,0.5,0.1,0.4c0.1,0.1,0-0.5,0.1-0.5
	c0,0.1,0,0.1,0,0.1c0.2,0.1,0.3,0.1,0.6,0.5l0-0.5l0.1,0.3c0.2,0.3,0.3,0,0.5-0.2c0,0,0.1,0.3,0.1,0.4c0.1,0,0.1-0.5,0.2-0.6
	c0,0.1,0,0.5,0,0.5c0-0.1,0-0.3,0-0.3l0,0.1c0,0.2,0.1,0,0.1,0.1c0.1,0,0.2-0.3,0.2-0.9c0.1,0,0,0.5,0,0.6c-0.1-0.2,0,0.1,0,0.2
	c0-0.1,0.1-0.2,0.1,0.1c0,0,0.1,0,0.1-0.2c0,0.1,0-0.1,0-0.2c0,0.1,0.1,0,0.1,0.4c0.2-0.1,0.5,0,0.7,0c0-0.2,0-0.1,0-0.2
	c0-0.3,0,0.1,0.1-0.1l0,0.2c0.1,0,0.1-0.4,0.2-0.6c0,0.3,0.1,0.2,0,0.4c0,0,0.1,1.1,0.1,0.9l-0.1-1c0-0.1,0,0,0-0.1
	c0,0.2,0.1,0.4,0.1,0.4c0,0.3,0,0.2-0.1,0.2c0,0.4,0.1,0.3,0.1,0.7c0.1-0.1,0-0.2,0-0.4l0,0.1l0-0.1c0-0.1,0.1-0.5,0.1-0.2l0.1-0.4
	c0,0.3,0,0.1,0.1,0.1l0,0.2c0,0,0.1,0,0.1,0.2c0,0.3,0-0.1,0,0.2l0,0.1c0-0.2,0-0.4,0-0.5c0-0.4,0.1-0.7,0.2-0.6
	c0,0.3-0.1,0.3,0,0.6c0.1,0.1,0.1-0.9,0.2-0.8c0.1,0.1,0.1-0.2,0.2-0.2c0,0.2,0.1,0.2,0.1,0.5l0,0.2c0-0.1,0,0,0,0.2
	c0-0.3,0.1-0.3,0.2-0.4l0-0.3c0-0.1,0.1-0.3,0.2-0.2c0.1-0.1,0.1-0.3,0.1-0.6c0,0.2,0,0.5,0,0.8c0-0.1,0-0.1-0.1-0.1
	c-0.1,0.2-0.2,0.8-0.3,0.7c0,0.6,0.1-0.1,0.1,0.2l0,0.1l0,0c0,0.1-0.1,0.2-0.1,0.5c0.1-0.1,0-0.6,0.1-0.4c0-0.2,0.1,0.3,0.1,0.4
	c0-0.2,0-0.8,0.1-0.7l0,0.4c0.1,0,0.1-0.5,0.1-0.5c0,0,0-0.4,0-0.4c0-0.2,0.1-0.2,0.1-0.1c0-0.1,0-0.1,0-0.2c0-0.3-0.1,0.2-0.1-0.1
	l0,0.4c0-0.1,0-0.5,0-0.6c0,0,0,0.1,0,0c0-0.6,0.1,0.2,0.1-0.3l0,0c0-0.4,0.1-0.3,0.1-0.3c0,0.2,0.1,0.2,0.1,0.5l-0.1,0.1
	c0,0.2,0.1-0.1,0.1-0.1l0,0.1l0-0.1l0,0.1c0,0,0.1-0.2,0.1-0.1l0-0.2l0,0.1c0,0-0.1-0.2,0-0.3c0.1-0.2,0.1,0.3,0.1,0.5
	c0,0.4-0.1,0-0.1,0.1c0,0.4,0.1,0,0.1,0.3c0,0.4-0.1,0-0.1,0.4c0.1,0.1,0.1-0.2,0.1-0.1c0,0.2-0.1,0.2-0.1,0.4l0,0.1
	c-0.1,0,0,0.5-0.1,0.6c0,0.2,0.1-0.3,0.1-0.1c0-0.2,0-0.5,0-0.7l0,0.1c0,0.2-0.1,0.4,0,0.6l0.1-0.1c0-0.1,0-0.2,0-0.4
	c0,0.1,0.1-0.5,0.1-0.6c0,0,0.1,0,0.1,0.2c0.1-0.4,0.2-0.3,0.3-0.7c-0.1,0.2,0,0.4,0,0.6c-0.1,0-0.1,0.4-0.1,0.7
	c0,0,0.1-0.4,0.1-0.6c0.1,0.2,0-0.3,0.1,0c0,0.1,0,0.4,0,0.5c0.1,0,0-0.5,0.1-0.4l0,0.1c0,0.1,0.1-0.1,0.1-0.3
	c0,0.5,0.1-0.1,0.1,0.4c0.1-0.1,0-0.3,0-0.4c0-0.2,0.1,0,0.1,0c0,0,0,0.1-0.1,0.1l0,0.3c0.1,0.2,0.1-0.8,0.2-0.5
	c-0.1,0.2,0,0.3-0.1,0.5c0-0.1,0.1,0,0.1-0.2l0.1,0.2c0-0.1,0.1-0.2,0.1-0.4c0.1,0,0.1,0.3,0.1,0.4c0.1-0.2,0.2,0.2,0.3-0.1l0,0
	c0.1,0.1,0-0.4,0.1-0.4c0,0.4,0,0.3,0.1,0.5c0.1,0.2,0.2-0.3,0.3,0c0,0.1,0,0.2,0,0.2c0.1,0.1,0.2,0.1,0.2,0.1l0,0.1
	c0.1,0.3,0.2-0.1,0.4-0.2c0,0.1,0,0.2,0,0.3c0.1,0.1,0.2,0.2,0.2-0.2c0.1,0.4,0.1-0.1,0.1,0.3c0,0.1,0,0.1,0,0.1
	c0,0.1,0.1,0.1,0.1,0.1c0.1-0.3,0.2-0.8,0.3-0.6c0,0.6-0.1,0.1-0.1,0.6c0-0.1,0.1-0.2,0.1-0.1c0,0.2,0,0.1,0,0.3
	c0,0.1,0.1-0.6,0.1-0.5c0-0.1,0-0.2,0-0.2c0-0.3,0.1,0,0.2-0.2c0,0-0.1-0.1,0-0.4c0.1,0.1,0.1-0.4,0.2-0.6c0.1,0.3-0.1,0.5-0.1,0.9
	c0,0.1,0,0.5,0,0.6c0.1,0.1,0.1-0.3,0.2-0.3l0,0.1c0.1,0,0.2-0.5,0.3-0.3l0-0.1c0-0.1,0.1,0,0.1-0.3c0,0.2,0,0.4,0,0.5
	c0-0.6,0.2-0.4,0.3-0.9c0,0.1,0,0.4,0,0.5C26,38.6,26,38.5,26,38.7c0,0,0.1,0.1,0.1,0.3c0.1-0.4,0.2-0.5,0.2-0.9
	c0,0.2,0.1,0.3,0,0.6c0.1-0.2-0.1-0.9,0.1-0.9c0.1,0.3-0.1,0.4,0,0.5l0,0c0.1,0.8,0.1-0.6,0.1-0.5c0,0.4-0.1,0.3,0,0.6
	c0.1-0.1,0.1-0.7,0.2-0.6l0,0.2c0,0,0.1,0.1,0.2,0c0,0.1,0,0.1,0,0.1c0.1,0.2,0-0.2,0.1,0.1l0-0.2c0-0.2-0.1-0.4-0.1-0.1
	c0-0.2-0.1-0.5,0-0.9l0,0.1c-0.1-0.6-0.3-0.7-0.4-1c-0.1,0.4-0.1-0.2-0.3,0.1c0,0.5,0,0.1-0.1,0.2c0-0.1,0-0.4,0-0.5
	c0,0.1,0,0.2-0.1,0.2c0-0.2-0.1-0.6-0.2-0.2c0-0.2,0-0.2,0-0.3c0-0.3,0,0.2-0.1,0l0-0.1c-0.1,0-0.1-0.1-0.2-0.2
	c0,0.5-0.1,0.2-0.1,0.4c0-0.2,0-0.2-0.1-0.3L25.4,36c-0.1,0.3-0.1-0.2-0.1-0.1l0,0.1c0,0.1-0.1-0.2-0.2-0.4c-0.4,0.9-0.6-0.6-1-0.3
	c0,0.1,0,0.3,0,0.5c0,0.1-0.1,0-0.1,0c0,0.1,0,0,0,0.1l0.1-0.1l0,0.1c0,0,0-0.1,0.1-0.1c0,0.1-0.1,0.5-0.1,0.4l0-0.1
	c0,0,0,0.1-0.1,0c0-0.1,0,0,0-0.1l-0.1-0.2c-0.1,0.4-0.1,0-0.1,0c0-0.3,0.1-0.1,0.1-0.4l0-0.2l0,0.3l-0.1-0.1l0-0.1
	c0,0.1,0,0.2,0,0.1l0-0.1l0,0.1c0-0.3,0-0.1,0-0.4c-0.1-0.2-0.2,0.4-0.3,0c0,0.1-0.1,0.5-0.1,0.4l0-0.3l-0.1,0.2
	c0-0.5-0.1-0.2-0.2-0.3l0-0.1c0,0.2-0.1,0.3-0.1,0.2l0-0.3c-0.1-0.2-0.1,0.6-0.1,0.4c0,0.3,0,0.4,0,0.7c0-0.3-0.1-0.3-0.1-0.1
	c-0.1,0.1,0,0,0-0.1l0,0.2c0,0,0-0.4,0-0.6c-0.1,0.3-0.1,0.1-0.1,0l0-0.1l-0.1-0.1c-0.1,0.2-0.1,0.2-0.2,0.1l0.1-0.4
	c0-0.2,0,0.1,0,0.2c-0.1,0.2-0.1-0.1-0.1-0.3C22.2,35.1,22.1,34.1,22,34.7"/>
<rect class="st2" width="183.1" height="226.7"/>
<path class="st0" d="M20.7,39L20.7,39L20.7,39z"/>
<path class="st0" d="M21.4,37.4l0-0.1L21.4,37.4z"/>
<path class="st0" d="M14.1,38.9c0,0.1,0.1,0.2,0.1,0.2L14.1,38.9L14.1,38.9z"/>
<path class="st0" d="M14.9,39.5l-0.1-0.1C14.9,39.5,15,39.7,14.9,39.5"/>
<path class="st0" d="M13.9,36.9l0,0.2C14,37.2,14,37.2,13.9,36.9C14,37.1,14,36.9,13.9,36.9"/>
<path class="st0" d="M15,39.4c-0.1-0.3,0.1,0.1,0-0.2C15.1,39.4,15,39.1,15,39.4"/>
<path class="st0" d="M14.3,36.6c-0.1-0.3-0.1,0-0.1-0.1C14.2,36.5,14.3,36.8,14.3,36.6"/>
<path class="st0" d="M15.1,38.5c0,0.2,0,0.2,0,0.2C15.1,38.6,15.1,38.5,15.1,38.5c0,0.1-0.1,0.1-0.1,0.2c0.1,0.1,0.1,0.2,0.2,0.5
	C15.2,39,15.2,38.7,15.1,38.5"/>
<path class="st0" d="M14.3,36.5c-0.1-0.1-0.1-0.3-0.2-0.2C14.2,36.4,14.3,36.6,14.3,36.5l0,0.3C14.5,37,14.3,36.5,14.3,36.5"/>
<path class="st0" d="M15.4,39.1l0-0.1c0,0.2-0.1,0.1,0,0.4C15.4,39.4,15.4,39.2,15.4,39.1"/>
<path class="st0" d="M14.6,36.9l-0.1-0.4c-0.1,0,0,0.1,0,0.2c0,0-0.1-0.1,0,0C14.6,36.7,14.6,37.1,14.6,36.9"/>
<path class="st0" d="M14.7,36.5l0-0.2L14.5,36C14.5,36.1,14.6,36.2,14.7,36.5"/>
<path class="st0" d="M14.8,36.7L14.8,36.7l0-0.5C14.8,36.5,14.8,36.5,14.8,36.7"/>
<path class="st0" d="M16.2,38.9c0-0.2-0.1-0.3,0-0.2C16.2,38.8,16.3,39,16.2,38.9"/>
<path class="st0" d="M15.5,36c0,0.1,0.1-0.1,0.1-0.2C15.6,35.9,15.5,35.8,15.5,36"/>
<rect class="st2" width="183.1" height="226.7"/>
<path class="st0" d="M15.6,35.8L15.6,35.8L15.6,35.8z"/>
<path class="st0" d="M17.1,34.8L17.1,34.8L17.1,34.8z"/>
<path class="st0" d="M17.1,34.9c0,0-0.1,0-0.1,0.2C17,35,17.1,34.9,17.1,34.9C17.1,34.8,17,34.7,17.1,34.9"/>
<path class="st0" d="M17.4,34.9c0,0.1,0,0.1,0,0.2C17.4,35.2,17.4,35,17.4,34.9"/>
<path class="st0" d="M19.8,39.4c0,0.1,0,0,0-0.2C19.8,39.2,19.8,39.3,19.8,39.4"/>
<rect class="st2" width="183.1" height="226.7"/>
<polygon class="st0" points="19.9,39.2 19.9,39.4 19.9,39.1 "/>
<path class="st0" d="M20.1,39.6L20.1,39.6L20.1,39.6z"/>
<path class="st0" d="M20.1,39.6L20.1,39.6L20.1,39.6z"/>
<path class="st0" d="M20.1,39.5l0,0.1L20.1,39.5C20.1,39.6,20.1,39.6,20.1,39.5"/>
<path class="st0" d="M20.1,39.5l0-0.3c0,0.2,0,0.2,0,0.5L20.1,39.5z"/>
<path class="st0" d="M20.3,39.4c0,0.1,0.1-0.4,0.1,0c0.1-0.2,0-0.7,0.1-0.8c-0.1-0.2-0.1,0.8-0.2,0.6C20.4,39.4,20.3,39.3,20.3,39.4
	"/>
<path class="st0" d="M20.3,38.7C20.3,38.9,20.3,38.9,20.3,38.7C20.3,38.8,20.3,38.5,20.3,38.7"/>
<rect class="st2" width="183.1" height="226.7"/>
<polygon class="st0" points="20.5,39.4 20.5,39.2 20.5,39.2 "/>
<path class="st0" d="M20.6,39.3l0,0.2C20.6,39.4,20.6,39.5,20.6,39.3"/>
<path class="st0" d="M20.8,39.6c0,0.1,0.1-0.5,0-0.3l0,0C20.8,39.4,20.8,39.6,20.8,39.6"/>
<path class="st0" d="M21.2,38.7c0,0,0,0.1,0,0.2L21.2,38.7L21.2,38.7z"/>
<path class="st0" d="M21.2,37.4C21.2,37.1,21.2,37.4,21.2,37.4C21.2,37.4,21.2,37.4,21.2,37.4"/>
<path class="st0" d="M21.3,39.2C21.2,39.4,21.2,39.3,21.3,39.2C21.2,39.4,21.2,39.4,21.3,39.2"/>
<path class="st0" d="M21.4,39.1c0,0.1,0,0.2,0,0.3c0,0.2,0.1,0.1,0.1-0.1c0-0.1,0-0.5,0-0.7c-0.1,0.1-0.1,0.7-0.1,0.3l-0.1,0.6
	C21.3,39.6,21.3,39.1,21.4,39.1"/>
<path class="st0" d="M21.2,38l0,0.2C21.3,38,21.3,38,21.2,38C21.3,37.5,21.3,38,21.2,38"/>
<rect class="st2" width="183.1" height="226.7"/>
<polygon class="st0" points="21.7,38.9 21.8,38.8 21.8,38.7 "/>
<polygon class="st0" points="21.8,39 21.8,39.1 21.8,38.9 "/>
<polygon class="st0" points="21.8,39.2 21.8,39.1 21.8,39.1 "/>
<path class="st0" d="M22,39.2l0-0.2C22,39.1,21.9,38.9,22,39.2C21.9,39.1,22,39.1,22,39.2"/>
<path class="st0" d="M22.6,34.7l0,0.3L22.6,34.7C22.7,34.7,22.6,34.7,22.6,34.7"/>
<path class="st0" d="M22.7,35.2l0.1-0.3C22.7,34.8,22.7,35.1,22.7,35.2c-0.1,0,0-0.2,0-0.1L22.7,35.2z"/>
<path class="st0" d="M23.8,35.5c0,0.2,0,0.2,0,0.3c0.1-0.1,0.1-0.1,0.2-0.1c0-0.1,0.1-0.4,0-0.3L23.8,35.5l0.1-0.1
	C23.9,35.2,23.9,35.6,23.8,35.5"/>
<path class="st0" d="M26.7,37.9l0,0.3C26.7,38.1,26.6,38,26.7,37.9"/>
<path class="st1" d="M16.4,78.8c-0.6,0.6-1.4-0.1-2-0.3c-2.1,1.3-3.6,3.2-5,5.2c-1.6-0.5-1.5-2.2-3.2-2.6c-2.4-0.6-4,1.6-5.8,1.5
	c-1-0.6,0.6-1.6,0-1.8c1.9-0.9,4.6-2.3,7.3-1.5C9.9,78.1,15.1,75.2,16.4,78.8"/>
<path class="st1" d="M16.7,63.9c0.8,0.7,1.5,1.4,1.7,2.6c3.5-1,6.4,0.9,7.3,3.5c-1.3,0.8-2.1-0.9-3.2-1.2c-2.6-0.3-3.7,0.9-5.8,1.2
	c-0.3-2.7-2.7-4.3-4.7-4.4C11.8,62.7,15,64.8,16.7,63.9"/>
<rect class="st2" width="183.1" height="226.7"/>
<text transform="matrix(1 0 0 1 22.3867 156.8456)"><tspan x="0" y="0" class="st3 st4 st5">    </tspan><tspan x="17.6" y="0" class="st3 st4 st5"> </tspan></text>
<path class="st3" d="M146.2,150h-4.6l1.3-3.9c0.5-1.6,0.9-3.2,1-3.3h0.1c0,0.1,0.4,1.7,0.9,3.3L146.2,150z M140.3,153.7h7.2l1.1,3.2
	h5l-7.4-18.9h-4.4l-7.2,18.9h4.6L140.3,153.7z M133.5,156.8v-3.7h-6.9v-4.2h6v-3.5h-6v-3.7h6.7V138H122v18.9H133.5z M114.2,143.8
	c0,1.5-0.9,2.4-2.8,2.4h-2v-4.8h1.8C113.3,141.4,114.2,142.2,114.2,143.8 M120.3,156.8l-3.4-5.3c-1-1.6-1.7-2.4-2.3-2.8v-0.1
	c2.1-0.5,4.1-2,4.1-5.1c0-3.6-2.6-5.6-7.2-5.6h-6.7v18.9h4.6v-7.5h0.2c0.8,0,1.1,0.1,2.3,2.1l3.3,5.4H120.3z M97.6,147.3
	c0,3.9-1.9,6-5.8,6H90v-11.6h1.6C95.7,141.6,97.6,143.4,97.6,147.3 M102.4,147.2c0-5.4-3.4-9.2-10.8-9.2h-6.2v18.9h6
	C98.9,156.8,102.4,152.6,102.4,147.2 M81.9,156.8V138h-4.1v9c0,1.5,0.1,2.8,0.1,3.1h-0.1c-0.1-0.2-0.8-1.6-2.1-3.3l-6.1-8.8H65v18.9
	h4.1V147c0-1.3-0.1-2.6-0.1-2.6H69c0.1,0.1,0.7,1.3,1.9,2.9l6.7,9.5H81.9z M55.8,150h-4.7l1.3-3.9c0.5-1.6,0.9-3.2,1-3.3h0.1
	c0,0.1,0.4,1.7,0.9,3.3L55.8,150z M49.9,153.7h7.2l1.1,3.2h5L55.8,138h-4.4l-7.2,18.9h4.6L49.9,153.7z"/>
<rect class="st2" width="183.1" height="226.7"/>
<text transform="matrix(1 0 0 1 153.6162 156.8456)" class="st3 st4 st5"> </text>
<path class="st0" d="M137.8,175.7c0-3.4-2.2-4.7-4.7-5.8c-2-0.9-3.5-1.3-3.5-2.6c0-1.1,0.8-1.7,2.2-1.7c1.5,0,3,0.7,3.6,1.1l1.8-3.2
	c-0.9-0.6-2.5-1.6-5.7-1.6c-3.5,0-6.3,2.1-6.3,5.4c0,3.1,1.6,4.6,3.9,5.7c2.2,1.1,4.2,1.4,4.2,2.9c0,1.1-0.9,1.9-2.7,1.9
	c-2.1,0-3.5-1.1-4-1.4l-1.9,3.2c0.8,0.7,2.9,1.8,6,1.8C135.2,181.5,137.8,179.3,137.8,175.7 M118.5,168.1c0,1.5-0.9,2.4-2.8,2.4h-2
	v-4.8h1.8C117.6,165.7,118.5,166.5,118.5,168.1 M124.6,181.1l-3.4-5.3c-1-1.6-1.7-2.4-2.3-2.8V173c2.1-0.5,4.1-2,4.1-5.1
	c0-3.6-2.6-5.6-7.2-5.6h-6.7v18.9h4.6v-7.5h0.2c0.8,0,1.1,0.1,2.3,2.1l3.3,5.4H124.6z M106.2,181.1v-3.7h-6.9v-4.2h6v-3.5h-6V166
	h6.7v-3.7H94.7v18.9H106.2z M87.4,171.6c0,3.9-1.9,6-5.8,6h-1.8v-11.6h1.6C85.6,165.9,87.4,167.7,87.4,171.6 M92.3,171.4
	c0-5.4-3.4-9.2-10.8-9.2h-6.2v18.9h6C88.8,181.1,92.3,176.9,92.3,171.4 M71.8,173.3v-11h-4.2v11.3c0,2.6-1,4.2-3.6,4.2
	c-2.8,0-3.8-1.4-3.8-4.4v-11.1h-4.6v11.5c0,5.1,2.8,7.7,8.3,7.7C69.1,181.5,71.8,178.6,71.8,173.3 M48.3,168.1
	c0,1.5-0.9,2.4-2.8,2.4h-2v-4.8h1.8C47.4,165.7,48.3,166.5,48.3,168.1 M54.4,181.1l-3.4-5.3c-1-1.6-1.7-2.4-2.3-2.8V173
	c2.1-0.5,4.1-2,4.1-5.1c0-3.6-2.6-5.6-7.2-5.6h-6.7v18.9h4.6v-7.5h0.2c0.8,0,1.1,0.1,2.3,2.1l3.3,5.4H54.4z M31.3,167.8
	c0,1.5-0.9,2.2-2.8,2.2h-1.6v-4.2h1.7C30.4,165.7,31.3,166.3,31.3,167.8 M31.9,175.4c0,1.6-1.1,2.2-3.1,2.2h-1.9v-4.6H29
	C31,173.1,31.9,173.9,31.9,175.4 M36.5,175.9c0-2.7-1.9-4.2-4.1-4.5v-0.1c2-0.5,3.3-1.8,3.3-4.4c0-3.6-3.1-4.7-6.6-4.7h-6.7v18.9H29
	C33.4,181.1,36.5,179.8,36.5,175.9"/>
<path class="st6" d="M107.8,189.3h-0.9v8.1h0.9V189.3z M104.9,197.3v-0.8h-3.3v-3.1h2.8v-0.8h-2.8v-2.6h3.2v-0.8h-4.2v8.1H104.9z
	 M97.5,191.3c0,0.9-0.5,1.4-1.8,1.4h-1.1V190h1.1C96.9,190,97.5,190.4,97.5,191.3 M97.9,195.1c0,1-0.6,1.5-2.1,1.5h-1.1v-3.1h1.2
	C97.3,193.5,97.9,194.1,97.9,195.1 M98.8,195.1c0-1.1-0.8-1.8-1.8-2v0c0.9-0.2,1.4-0.8,1.4-1.8c0-1.5-1.1-2-2.6-2h-2.1v8.1h2.1
	C97.6,197.3,98.8,196.7,98.8,195.1 M88.9,196.7v-3.5h-2.7v0.8h1.7v2.3c0,0-0.6,0.5-2,0.5c-2.1,0-3.1-1.7-3.1-3.4
	c0-1.7,0.9-3.4,3.1-3.4c1,0,1.6,0.3,2.1,0.7l0.5-0.7c-0.4-0.3-1.2-0.8-2.6-0.8c-2.6,0-4.1,2-4.1,4.2c0,2.2,1.5,4.2,4,4.2
	C87.9,197.5,88.8,196.8,88.9,196.7 M80.1,197.3v-8.1h-0.9v5.6c0,0.6,0,1.1,0,1.1h0c0,0-0.4-0.6-0.8-1.2l-3.8-5.5h-0.9v8.1h0.9v-5.9
	c0-0.4,0-0.9,0-0.9h0c0,0,0.4,0.6,0.6,1l4,5.8H80.1z M71.5,194.3v-5h-0.9v5.1c0,1.4-0.7,2.3-2.2,2.3c-1.5,0-2.2-0.8-2.2-2.5v-4.9
	h-0.9v5.1c0,1.9,0.9,3.2,3.1,3.2C70.5,197.5,71.5,196.3,71.5,194.3 M63.9,190.1v-0.8h-5.6v0.8h2.3v7.3h1v-7.3H63.9z M56.9,189.3H56
	v8.1h0.9V189.3z M54,197.3v-0.8h-3.3v-3.1h2.8v-0.8h-2.8v-2.6h3.2v-0.8h-4.2v8.1H54z M48.2,197.3v-0.8H45v-7.3H44v8.1H48.2z
	 M41.9,196.7v-3.5h-2.7v0.8H41v2.3c0,0-0.6,0.5-2,0.5c-2.1,0-3.1-1.7-3.1-3.4c0-1.7,0.9-3.4,3.1-3.4c1,0,1.6,0.3,2.1,0.7l0.5-0.7
	c-0.4-0.3-1.2-0.8-2.6-0.8c-2.6,0-4.1,2-4.1,4.2c0,2.2,1.5,4.2,4,4.2C41,197.5,41.8,196.8,41.9,196.7 M33.6,197.3v-0.8h-3.3v-3.1
	h2.8v-0.8h-2.8v-2.6h3.2v-0.8h-4.2v8.1H33.6z M26.2,191.3c0,0.9-0.5,1.4-1.8,1.4h-1.1V190h1.1C25.6,190,26.2,190.4,26.2,191.3
	 M26.5,195.1c0,1-0.6,1.5-2.1,1.5h-1.1v-3.1h1.2C26,193.5,26.5,194.1,26.5,195.1 M27.5,195.1c0-1.1-0.8-1.8-1.8-2v0
	c0.9-0.2,1.4-0.8,1.4-1.8c0-1.5-1.1-2-2.6-2h-2.1v8.1h2.1C26.3,197.3,27.5,196.7,27.5,195.1"/>
<rect class="st2" width="183.1" height="226.7"/>
<text transform="matrix(1 0 0 1 107.7861 197.3456)" class="st6 st7 st8"> </text>
<text transform="matrix(1 0 0 1 22.3838 211.9256)" class="st6 st7 st8">   </text>
<path class="st6" d="M156.2,207.8c0,2.2-1.2,3.3-3.6,3.3h-1v-6.5h0.9C155,204.6,156.2,205.6,156.2,207.8 M157.2,207.8
	c0-2.3-1.4-3.9-4.6-3.9h-1.9v8.1h1.8C155.8,211.9,157.2,210.1,157.2,207.8 M148.8,211.9v-0.8h-3.3V208h2.8v-0.8h-2.8v-2.6h3.2v-0.8
	h-4.2v8.1H148.8z M142.2,203.8h-0.9v8.1h0.9V203.8z M138.8,211.9v-8.1h-0.9v3.4h-4.6v-3.4h-0.9v8.1h0.9v-3.9h4.6v3.9H138.8z
	 M130.7,211.3l-0.4-0.7c-0.5,0.4-1.1,0.7-2,0.7c-2,0-3-1.7-3-3.4c0-1.8,1-3.4,2.9-3.4c0.8,0,1.3,0.2,1.8,0.5l0.5-0.7
	c-0.6-0.4-1.2-0.6-2.3-0.6c-2.5,0-4,2-4,4.2c0,2.2,1.4,4.2,3.9,4.2C129.4,212.1,130.3,211.6,130.7,211.3 M123.1,209.9
	c0-1.6-1.2-2.1-2.3-2.6c-0.8-0.4-1.5-0.8-1.5-1.6c0-0.7,0.6-1.2,1.4-1.2c0.9,0,1.4,0.3,1.7,0.6l0.5-0.7c-0.3-0.2-0.9-0.6-2.1-0.6
	c-1.2,0-2.4,0.7-2.4,2.1c0,1.3,0.9,1.8,1.9,2.3c0.9,0.5,1.9,0.9,1.9,1.9c0,0.7-0.7,1.4-1.7,1.4c-1.1,0-1.7-0.5-1.8-0.7l-0.5,0.7
	c0.3,0.3,1.1,0.8,2.3,0.8C122.1,212.1,123.1,211.2,123.1,209.9 M115.7,205.9c0,0.9-0.5,1.4-1.8,1.4h-1.1v-2.7h1.1
	C115.1,204.6,115.7,205,115.7,205.9 M116,209.7c0,1-0.6,1.5-2.1,1.5h-1.1v-3.1h1.2C115.5,208.1,116,208.7,116,209.7 M117,209.7
	c0-1.1-0.8-1.8-1.8-2v0c0.9-0.2,1.4-0.8,1.4-1.8c0-1.5-1.1-2-2.6-2h-2.1v8.1h2.1C115.8,211.9,117,211.3,117,209.7 M108.4,209.1h-3.1
	l1-2.8c0.3-0.7,0.5-1.4,0.5-1.4h0c0,0,0.2,0.7,0.5,1.4L108.4,209.1z M105,209.9h3.7l0.7,2h1l-3.1-8.1h-0.9l-3.1,8.1h0.9L105,209.9z
	 M98.7,207.8c0,2.2-1.2,3.3-3.6,3.3h-1v-6.5h0.9C97.6,204.6,98.7,205.6,98.7,207.8 M99.7,207.8c0-2.3-1.4-3.9-4.6-3.9h-1.9v8.1h1.8
	C98.3,211.9,99.7,210.1,99.7,207.8 M91,211.9v-8.1h-0.9v5.6c0,0.6,0,1.1,0,1.1h0c0,0-0.4-0.6-0.8-1.2l-3.8-5.5h-0.9v8.1h0.9V206
	c0-0.4,0-0.9,0-0.9h0c0,0,0.4,0.6,0.6,1l4,5.8H91z M82.4,208.9v-5h-0.9v5.1c0,1.4-0.7,2.3-2.2,2.3c-1.5,0-2.2-0.8-2.2-2.5v-4.9h-0.9
	v5.1c0,1.9,0.9,3.2,3.1,3.2C81.4,212.1,82.4,210.8,82.4,208.9 M70.5,206c0,0.9-0.5,1.4-1.8,1.4h-1.2v-2.8h1.1
	C69.9,204.6,70.5,205.1,70.5,206 M72.1,211.9l-2-2.8c-0.5-0.7-0.7-0.9-0.8-1v0c1.3-0.1,2.3-0.8,2.3-2.1c0-1.4-1-2.1-2.7-2.1h-2.2
	v8.1h0.9v-3.7h0.1c0.5,0,0.7,0.1,1.6,1.4l1.6,2.3H72.1z M64.7,211.9v-0.8h-3.3V208h2.8v-0.8h-2.8v-2.6h3.2v-0.8h-4.2v8.1H64.7z
	 M58.2,208.9v-5h-0.9v5.1c0,1.4-0.7,2.3-2.2,2.3c-1.5,0-2.2-0.8-2.2-2.5v-4.9H52v5.1c0,1.9,0.9,3.2,3.1,3.2
	C57.3,212.1,58.2,210.8,58.2,208.9 M48.6,209.1h-3.1l1-2.8c0.3-0.7,0.5-1.4,0.5-1.4h0c0,0,0.2,0.7,0.5,1.4L48.6,209.1z M45.2,209.9
	h3.7l0.7,2h1l-3.1-8.1h-0.9l-3.1,8.1h0.9L45.2,209.9z M41.5,206c0,0.9-0.5,1.4-1.8,1.4h-1.2v-2.8h1.1
	C40.9,204.6,41.5,205.1,41.5,206 M43,211.9l-2-2.8c-0.5-0.7-0.7-0.9-0.9-1v0c1.3-0.1,2.3-0.8,2.3-2.1c0-1.4-1-2.1-2.7-2.1h-2.2v8.1
	h0.9v-3.7h0.1c0.5,0,0.7,0.1,1.6,1.4l1.6,2.3H43z M36.1,204.6v-0.8h-5.6v0.8h2.3v7.3h1v-7.3H36.1z"/>
</svg>
