<?xml version="1.0" encoding="utf-8"?>
<!-- Generator: Adobe Illustrator 19.1.0, SVG Export Plug-In . SVG Version: 6.00 Build 0)  -->
<svg version="1.1" id="Ebene_1" xmlns="http://www.w3.org/2000/svg" xmlns:xlink="http://www.w3.org/1999/xlink" x="0px" y="0px"
	 viewBox="652 -113 977.8 327" style="enable-background:new 652 -113 977.8 327;" xml:space="preserve">
<style type="text/css">
	.st0{opacity:0.5;}
	.st1{clip-path:url(#SVGID_2_);fill:#E7DCC9;}
	.st2{clip-path:url(#SVGID_4_);fill:#E7DCC9;}
	.st3{clip-path:url(#SVGID_6_);fill:#E7DCC9;}
	.st4{clip-path:url(#SVGID_8_);fill:#E7DCC9;}
	.st5{clip-path:url(#SVGID_10_);fill:#E7DCC9;}
	.st6{fill:#D7C6A8;}
</style>
<g>
	<g>
		<g class="st0">
			<g>
				<g>
					<defs>
						<rect id="SVGID_1_" x="986.5" y="80.2" width="643.3" height="51"/>
					</defs>
					<clipPath id="SVGID_2_">
						<use xlink:href="#SVGID_1_"  style="overflow:visible;"/>
					</clipPath>
					<path class="st1" d="M1628.8,129.3V82h-11.4v18.1h-19.4V82h-11.5v47.3h11.5v-19.8h19.4v19.8H1628.8z M1577.7,125.2l-4.7-8
						c-2.3,1.7-5.3,3.6-10.4,3.6c-8.5,0-12.7-6.8-12.7-15.3c0-8.3,4.4-14.7,12.5-14.7c4.3,0,7.1,1.1,9.7,2.7l5-8.3
						c-3.8-2.5-8.3-3.8-14.5-3.8c-16.5,0-24.9,11.6-24.9,24.4c0,12.9,8.1,24.6,24.7,24.6C1569.4,130.2,1575.3,127.3,1577.7,125.2
						 M1526.4,82h-11.6v47.3h11.6V82z M1503.9,129.3v-9.2h-17.3V82H1475v47.3H1503.9z M1461.5,129.3V82h-11.4v18.1h-19.4V82h-11.5
						v47.3h11.5v-19.8h19.4v19.8H1461.5z M1410.4,125.2l-4.7-8c-2.3,1.7-5.3,3.6-10.4,3.6c-8.5,0-12.7-6.8-12.7-15.3
						c0-8.3,4.4-14.7,12.5-14.7c4.3,0,7.1,1.1,9.7,2.7l5-8.3c-3.8-2.5-8.3-3.8-14.5-3.8c-16.5,0-24.9,11.6-24.9,24.4
						c0,12.9,8.1,24.6,24.6,24.6C1402.1,130.2,1408,127.3,1410.4,125.2 M1359.1,82h-11.6v47.3h11.6V82z M1335.5,129.3V120h-17.4
						v-10.6h14.9v-8.7h-14.9v-9.2h16.9V82h-28.3v47.3H1335.5z M1298.1,82h-10.9l-5.5,22.4c-0.9,3.8-1.6,8.5-1.7,9h-0.2
						c-0.1-0.4-0.9-5.3-1.8-9.3l-5.5-22h-11.2l-5.6,22.1c-1,3.8-1.8,8.7-1.9,9.2h-0.1c-0.1-0.5-0.8-5-1.7-8.8l-5.3-22.5h-12.2
						l12.7,47.3h10.6l6.8-24.4c1.1-3.9,2-8.4,2.1-8.7h0.1c0.1,0.4,0.9,4.8,1.8,8.7l6.1,24.4h10.6L1298.1,82z M1229.1,115.7
						c0-8.6-5.5-11.8-11.7-14.6c-5-2.3-8.7-3.2-8.7-6.5c0-2.8,2.1-4.3,5.6-4.3c3.8,0,7.5,1.8,9.1,2.8l4.5-8c-2.1-1.6-6.3-4-14.3-4
						c-8.9,0-15.8,5.3-15.8,13.5c0,7.7,4,11.4,9.9,14.4c5.5,2.8,10.4,3.6,10.4,7.3c0,2.7-2.3,4.7-6.8,4.7c-5.2,0-8.9-2.7-9.9-3.4
						l-4.7,8c2.1,1.7,7.2,4.6,15,4.6C1222.6,130.2,1229.1,124.7,1229.1,115.7 M1187.8,109.7V82h-10.5v28.4c0,6.5-2.6,10.4-9.1,10.4
						c-7,0-9.5-3.5-9.5-10.9V82h-11.5v28.8c0,12.8,6.9,19.4,20.8,19.4C1181,130.2,1187.8,123,1187.8,109.7 M1121.3,112.3h-11.7
						l3.3-9.7c1.3-4,2.3-8,2.4-8.2h0.1c0.1,0.2,0.9,4.2,2.3,8.2L1121.3,112.3z M1106.6,121.4h18l2.8,8h12.5L1121.3,82h-11l-18,47.3
						h11.6L1106.6,121.4z M1083.6,129.3V82h-10.4v22.6c0,3.7,0.2,7.1,0.3,7.7h-0.1c-0.3-0.5-2.1-3.9-5.2-8.3l-15.3-22h-11.6v47.3
						h10.4v-24.7c0-3.2-0.2-6.4-0.3-6.6h0.1c0.1,0.3,1.8,3.2,4.8,7.4l16.8,23.9L1083.6,129.3L1083.6,129.3z M1028.1,109.7V82h-10.5
						v28.4c0,6.5-2.6,10.4-9.1,10.4c-7,0-9.5-3.5-9.5-10.9V82h-11.5v28.8c0,12.8,6.9,19.4,20.8,19.4
						C1021.4,130.2,1028.1,123,1028.1,109.7"/>
				</g>
			</g>
		</g>
		<g class="st0">
			<g>
				<g>
					<defs>
						<rect id="SVGID_3_" x="706.6" y="133.4" width="487.3" height="80.6"/>
					</defs>
					<clipPath id="SVGID_4_">
						<use xlink:href="#SVGID_3_"  style="overflow:visible;"/>
					</clipPath>
					<path class="st2" d="M1192.8,189.8c0-13.8-8.8-18.9-18.8-23.4c-8.1-3.6-14-5.1-14-10.5c0-4.6,3.3-6.8,9-6.8c6,0,12,3,14.6,4.6
						l7.2-12.8c-3.4-2.5-10.1-6.5-22.9-6.5c-14.2,0-25.3,8.4-25.3,21.6c0,12.4,6.5,18.3,15.8,23c8.9,4.4,16.7,5.8,16.7,11.7
						c0,4.3-3.8,7.5-10.9,7.5c-8.3,0-14.2-4.3-15.9-5.5l-7.5,12.8c3.4,2.7,11.5,7.4,24,7.4C1182.4,213,1192.8,204.1,1192.8,189.8
						 M1130.4,189.8c0-13.8-8.8-18.9-18.8-23.4c-8.1-3.6-14-5.1-14-10.5c0-4.6,3.3-6.8,9-6.8c6,0,12,3,14.6,4.6l7.2-12.8
						c-3.4-2.5-10.1-6.5-22.9-6.5c-14.2,0-25.3,8.4-25.3,21.6c0,12.4,6.5,18.3,15.8,23c8.9,4.4,16.7,5.8,16.7,11.7
						c0,4.3-3.8,7.5-10.9,7.5c-8.3,0-14.2-4.3-16-5.5l-7.5,12.8c3.4,2.7,11.5,7.4,24,7.4C1119.9,213,1130.4,204.1,1130.4,189.8
						 M1064.1,180.1v-44.3h-16.9v45.6c0,10.5-4.1,16.7-14.6,16.7c-11.3,0-15.3-5.6-15.3-17.5v-44.8h-18.5v46.1
						c0,20.5,11.1,31.1,33.4,31.1C1053.3,213,1064.1,201.5,1064.1,180.1 M985.9,211.6v-14.7h-27.7v-61.2h-18.6v75.9H985.9z
						 M918,211.6v-75.9h-18.2v29.1h-31.1v-29.1h-18.5v75.9h18.5v-31.8h31.1v31.8H918z M836,204.9l-7.5-12.9
						c-3.8,2.7-8.4,5.7-16.6,5.7c-13.7,0-20.4-10.9-20.4-24.6c0-13.3,7.1-23.6,20.1-23.6c6.8,0,11.4,1.8,15.5,4.3l8.1-13.3
						c-6-4-13.3-6.2-23.2-6.2c-26.4,0-39.9,18.6-39.9,39.2c0,20.7,13,39.4,39.5,39.4C822.7,213,832.1,208.3,836,204.9 M759.7,189.8
						c0-13.8-8.8-18.9-18.8-23.4c-8.1-3.6-14-5.1-14-10.5c0-4.6,3.3-6.8,9-6.8c6,0,12,3,14.6,4.6l7.2-12.8
						c-3.4-2.5-10.1-6.5-22.9-6.5c-14.2,0-25.3,8.4-25.3,21.6c0,12.4,6.5,18.3,15.8,23c8.9,4.4,16.7,5.8,16.7,11.7
						c0,4.3-3.8,7.5-10.9,7.5c-8.3,0-14.2-4.3-16-5.5l-7.5,12.8c3.4,2.7,11.5,7.4,24,7.4C749.2,213,759.7,204.1,759.7,189.8"/>
				</g>
			</g>
		</g>
		<g class="st0">
			<g>
				<g>
					<defs>
						<rect id="SVGID_5_" x="652" y="21.3" width="389.5" height="53.7"/>
					</defs>
					<clipPath id="SVGID_6_">
						<use xlink:href="#SVGID_5_"  style="overflow:visible;"/>
					</clipPath>
					<path class="st3" d="M1040.5,73.1V23.2h-10.9v23.8c0,3.9,0.2,7.5,0.3,8.2h-0.2c-0.3-0.5-2.2-4.1-5.5-8.8l-16.2-23.2h-12.2v49.9
						h10.9v-26c0-3.4-0.2-6.7-0.3-7h0.2c0.2,0.3,1.9,3.4,5.1,7.8l17.8,25.2L1040.5,73.1L1040.5,73.1z M983.7,73.1v-9.9h-18.4V52.1
						H981v-9.2h-15.7v-9.7h17.8v-9.9h-29.8v49.9L983.7,73.1L983.7,73.1z M928.2,38.7c0,4-2.4,6.4-7.4,6.4h-5.2V32.3h4.8
						C925.8,32.3,928.2,34.5,928.2,38.7 M944.2,73.1l-8.9-14.1c-2.7-4.3-4.6-6.4-6.1-7.4v-0.1c5.5-1.4,10.9-5.4,10.9-13.6
						c0-9.6-6.9-14.7-19-14.7h-17.7v49.9h12.1V53.4h0.6c2,0,2.9,0.4,6.1,5.5l8.8,14.2L944.2,73.1L944.2,73.1z M879.5,48.3
						c0,8.6-3.8,16.1-13.3,16.1c-9.3,0-13.3-7.7-13.3-16.5c0-8.6,4.1-15.9,13.6-15.9C875.8,32,879.5,39.6,879.5,48.3 M892.2,47.9
						c0-13.3-8.8-25.6-26.1-25.6c-17.1,0-26.2,12.4-26.2,25.9c0,13.4,9.3,25.8,26.5,25.8S892.2,61.4,892.2,47.9 M834.4,73.1v-9.7
						h-18.2V23.2h-12.2v49.9H834.4z M778.6,38.7c0,4-2.4,6.4-7.4,6.4h-5.2V32.3h4.8C776.2,32.3,778.6,34.5,778.6,38.7 M794.6,73.1
						l-8.9-14.1c-2.7-4.3-4.6-6.4-6.1-7.4v-0.1c5.5-1.4,10.9-5.4,10.9-13.6c0-9.6-6.9-14.7-19-14.7h-17.7v49.9h12.1V53.4h0.6
						c2,0,2.9,0.4,6.1,5.5l8.8,14.2L794.6,73.1L794.6,73.1z M741.6,73.1v-9.9h-18.4V52.1H739v-9.2h-15.7v-9.7h17.8v-9.9h-29.8v49.9
						L741.6,73.1L741.6,73.1z M702.3,23.2h-12.1l-9.4,28.4c-1.3,3.7-2.3,7.9-2.4,8.2h-0.2c-0.1-0.5-1.2-4.4-2.5-8.2l-9.7-28.4H653
						l19.3,49.9h11.5L702.3,23.2z"/>
				</g>
			</g>
		</g>
		<g class="st0">
			<g>
				<g>
					<defs>
						<rect id="SVGID_7_" x="978.7" y="-63.1" width="411.3" height="68.2"/>
					</defs>
					<clipPath id="SVGID_8_">
						<use xlink:href="#SVGID_7_"  style="overflow:visible;"/>
					</clipPath>
					<path class="st4" d="M1373.1-31c0,4-2.4,6.3-7.4,6.3h-5.2v-12.7h4.8C1370.7-37.4,1373.1-35.2,1373.1-31 M1389,3.2l-8.9-14
						c-2.7-4.2-4.5-6.3-6-7.4v-0.1c5.5-1.3,10.8-5.4,10.8-13.5c0-9.5-6.8-14.6-18.9-14.6h-17.6V3.2h12.1v-19.6h0.6
						c2,0,2.9,0.4,6,5.4l8.8,14.1L1389,3.2L1389,3.2z M1336.3,3.2v-9.8H1318v-11.1h15.6v-9.2H1318v-9.7h17.7v-9.8h-29.6V3.2H1336.3z
						 M1270,3.2l7.3-23.5c1-3.4,1.9-6.8,2-7.1h0.2c0.1,0.3,0.4,3.6,0.8,7.3l2.8,23.4h12.3l-6.8-49.6h-11.7l-9.7,29.6
						c-1.1,3.4-2.3,8-2.4,8.3h-0.2c-0.1-0.3-1.3-4.8-2.3-8.3l-9.3-29.6h-11.7l-6.8,49.6h10.8l2.9-23.3c0.4-3.3,0.6-7.2,0.6-7.4h0.1
						c0,0.1,1,4,1.9,7.1l7.3,23.5H1270z M1201.5,3.2l7.3-23.5c1-3.4,1.9-6.8,2-7.1h0.1c0.1,0.3,0.4,3.6,0.8,7.3l2.8,23.4h12.3
						l-6.8-49.6h-11.7l-9.7,29.6c-1.1,3.4-2.3,8-2.4,8.3h-0.1c-0.1-0.3-1.3-4.8-2.3-8.3l-9.3-29.6h-11.7L1166,3.2h10.8l2.9-23.3
						c0.4-3.3,0.6-7.2,0.6-7.4h0.2c0,0.1,1,4,1.9,7.1l7.3,23.5H1201.5z M1154.3-46.4h-12.1V3.2h12.1V-46.4z M1100.8-31
						c0,4-2.4,6.3-7.4,6.3h-5.2v-12.7h4.8C1098.4-37.4,1100.8-35.2,1100.8-31 M1116.7,3.2l-8.9-14c-2.7-4.2-4.5-6.3-6-7.4v-0.1
						c5.5-1.3,10.8-5.4,10.8-13.5c0-9.5-6.8-14.6-18.9-14.6h-17.6V3.2h12.1v-19.6h0.6c2,0,2.9,0.4,6,5.4l8.8,14.1L1116.7,3.2
						L1116.7,3.2z M1039.1-56.3c0-3.1-2.5-5.7-6-5.7c-3.5,0-6,2.7-6,5.7c0,3.2,2.5,5.8,6,5.8C1036.6-50.5,1039.1-53.1,1039.1-56.3
						 M1055.3-56.3c0-3.1-2.5-5.7-6-5.7s-6,2.7-6,5.7c0,3.2,2.5,5.8,6,5.8S1055.3-53.1,1055.3-56.3 M1062.4-17.4v-29h-11v29.8
						c0,6.8-2.7,10.9-9.5,10.9c-7.4,0-10-3.6-10-11.5v-29.3h-12.1v30.2c0,13.4,7.2,20.3,21.8,20.3
						C1055.3,4.1,1062.4-3.4,1062.4-17.4 M1009-36.5v-9.8h-29.3V3.2h12.1v-19.7h15.3v-9.2h-15.3v-10.9L1009-36.5L1009-36.5z"/>
				</g>
			</g>
		</g>
		<g class="st0">
			<g>
				<g>
					<defs>
						<rect id="SVGID_9_" x="735.6" y="-113" width="211.4" height="77"/>
					</defs>
					<clipPath id="SVGID_10_">
						<use xlink:href="#SVGID_9_"  style="overflow:visible;"/>
					</clipPath>
					<path class="st5" d="M945.9-59.2c0-13.1-8.4-18-17.9-22.3c-7.7-3.5-13.4-4.9-13.4-10c0-4.3,3.2-6.5,8.6-6.5
						c5.8,0,11.4,2.8,13.9,4.3l6.8-12.2c-3.3-2.4-9.7-6.2-21.8-6.2c-13.6,0-24.1,8-24.1,20.6c0,11.8,6.2,17.5,15.1,21.9
						c8.5,4.2,16,5.5,16,11.2c0,4.1-3.6,7.2-10.4,7.2c-7.9,0-13.6-4.1-15.2-5.2l-7.2,12.2c3.3,2.6,11,7.1,22.9,7.1
						C935.9-37.1,945.9-45.5,945.9-59.2 M882.7-68.5v-42.3h-16.1v43.5c0,10-3.9,16-13.9,16c-10.8,0-14.6-5.3-14.6-16.7v-42.7h-17.6
						v44c0,19.6,10.5,29.7,31.8,29.7C872.4-37.1,882.7-48,882.7-68.5 M781.1-64.4h-17.8l5.1-14.9c2.1-6.1,3.6-12.3,3.7-12.6h0.2
						c0.1,0.3,1.4,6.4,3.6,12.6L781.1-64.4z M758.5-50.5H786l4.3,12.2h19.1L781-110.7h-16.8l-27.6,72.4h17.7L758.5-50.5z"/>
				</g>
			</g>
		</g>
		<path class="st6" d="M1183.4,149.1c0-6.4-4.1-8.8-8.8-10.9c-3.8-1.7-6.5-2.4-6.5-4.9c0-2.1,1.5-3.2,4.2-3.2c2.8,0,5.6,1.4,6.8,2.1
			l3.3-6c-1.6-1.2-4.7-3-10.7-3c-6.6,0-11.8,3.9-11.8,10.1c0,5.8,3,8.6,7.4,10.7c4.1,2.1,7.8,2.7,7.8,5.5c0,2-1.8,3.5-5.1,3.5
			c-3.9,0-6.6-2-7.4-2.5l-3.5,6c1.6,1.3,5.4,3.5,11.2,3.5C1178.5,159.9,1183.4,155.8,1183.4,149.1 M1154.2,149.1
			c0-6.4-4.1-8.8-8.8-10.9c-3.8-1.7-6.5-2.4-6.5-4.9c0-2.1,1.5-3.2,4.2-3.2c2.8,0,5.6,1.4,6.8,2.1l3.3-6c-1.6-1.2-4.7-3-10.7-3
			c-6.6,0-11.8,3.9-11.8,10.1c0,5.8,3,8.6,7.4,10.7c4.1,2.1,7.8,2.7,7.8,5.5c0,2-1.8,3.5-5.1,3.5c-3.9,0-6.6-2-7.4-2.5l-3.5,6
			c1.6,1.3,5.4,3.5,11.2,3.5C1149.4,159.9,1154.2,155.8,1154.2,149.1 M1123.3,144.6v-20.7h-7.9v21.3c0,4.9-1.9,7.8-6.8,7.8
			c-5.3,0-7.1-2.6-7.1-8.2v-20.9h-8.6v21.5c0,9.6,5.2,14.5,15.6,14.5C1118.3,159.9,1123.3,154.6,1123.3,144.6 M1086.9,159.3v-6.9
			H1074v-28.5h-8.7v35.4H1086.9z M1055.2,159.3v-35.4h-8.5v13.5h-14.5v-13.5h-8.6v35.4h8.6v-14.8h14.5v14.8H1055.2z M1017,156.1
			l-3.5-6c-1.8,1.3-3.9,2.7-7.8,2.7c-6.4,0-9.5-5.1-9.5-11.5c0-6.2,3.3-11,9.4-11c3.2,0,5.3,0.9,7.2,2l3.8-6.2
			c-2.8-1.9-6.2-2.9-10.8-2.9c-12.3,0-18.6,8.7-18.6,18.3c0,9.7,6.1,18.4,18.4,18.4C1010.7,159.9,1015.2,157.7,1017,156.1
			 M981.4,149.1c0-6.4-4.1-8.8-8.8-10.9c-3.8-1.7-6.5-2.4-6.5-4.9c0-2.1,1.5-3.2,4.2-3.2c2.8,0,5.6,1.4,6.8,2.1l3.3-6
			c-1.6-1.2-4.7-3-10.7-3c-6.6,0-11.8,3.9-11.8,10.1c0,5.8,3,8.6,7.4,10.7c4.1,2.1,7.8,2.7,7.8,5.5c0,2-1.8,3.5-5.1,3.5
			c-3.9,0-6.6-2-7.4-2.5l-3.5,6c1.6,1.3,5.4,3.5,11.2,3.5C976.5,159.9,981.4,155.8,981.4,149.1"/>
		<path class="st6" d="M1448.9,91.9V63.8h-6.8v10.8h-11.5V63.8h-6.8v28.1h6.8V80.1h11.5v11.8H1448.9z M1418.5,89.4l-2.8-4.8
			c-1.4,1-3.1,2.1-6.2,2.1c-5.1,0-7.6-4.1-7.6-9.1c0-4.9,2.6-8.7,7.4-8.7c2.5,0,4.2,0.7,5.7,1.6l3-4.9c-2.2-1.5-4.9-2.3-8.6-2.3
			c-9.8,0-14.8,6.9-14.8,14.5c0,7.7,4.8,14.6,14.7,14.6C1413.6,92.4,1417.1,90.7,1418.5,89.4 M1388,63.8h-6.9v28.1h6.9V63.8z
			 M1374.6,91.9v-5.4h-10.3V63.8h-6.9v28.1H1374.6z M1349.5,91.9V63.8h-6.8v10.8h-11.5V63.8h-6.8v28.1h6.8V80.1h11.5v11.8H1349.5z
			 M1319,89.4l-2.8-4.8c-1.4,1-3.1,2.1-6.2,2.1c-5.1,0-7.6-4.1-7.6-9.1c0-4.9,2.6-8.7,7.4-8.7c2.5,0,4.2,0.7,5.7,1.6l3-4.9
			c-2.2-1.5-4.9-2.3-8.6-2.3c-9.8,0-14.8,6.9-14.8,14.5c0,7.7,4.8,14.6,14.7,14.6C1314.1,92.4,1317.6,90.7,1319,89.4 M1288.5,63.8
			h-6.9v28.1h6.9V63.8z M1274.5,91.9v-5.6h-10.3V80h8.9v-5.2h-8.9v-5.5h10.1v-5.6h-16.8v28.1L1274.5,91.9L1274.5,91.9z M1252.3,63.8
			h-6.5l-3.3,13.3c-0.5,2.3-1,5-1,5.3h-0.1c0-0.3-0.5-3.2-1.1-5.5l-3.3-13.1h-6.7l-3.3,13.1c-0.6,2.3-1.1,5.2-1.1,5.5h-0.1
			c0-0.3-0.5-3-1-5.2l-3.2-13.4h-7.3l7.6,28.1h6.3l4.1-14.5c0.6-2.3,1.2-5,1.2-5.2h0.1c0,0.2,0.5,2.9,1.1,5.2l3.6,14.5h6.3
			L1252.3,63.8z M1211.2,83.8c0-5.1-3.3-7-7-8.7c-3-1.4-5.2-1.9-5.2-3.9c0-1.7,1.2-2.5,3.3-2.5c2.2,0,4.4,1.1,5.4,1.7l2.7-4.7
			c-1.3-0.9-3.8-2.4-8.5-2.4c-5.3,0-9.4,3.1-9.4,8c0,4.6,2.4,6.8,5.9,8.5c3.3,1.6,6.2,2.2,6.2,4.4c0,1.6-1.4,2.8-4.1,2.8
			c-3.1,0-5.3-1.6-5.9-2l-2.8,4.7c1.3,1,4.3,2.7,8.9,2.7C1207.4,92.4,1211.2,89.1,1211.2,83.8 M1186.7,80.2V63.8h-6.2v16.9
			c0,3.9-1.5,6.2-5.4,6.2c-4.2,0-5.7-2.1-5.7-6.5V63.8h-6.8v17.1c0,7.6,4.1,11.5,12.4,11.5C1182.7,92.4,1186.7,88.1,1186.7,80.2
			 M1147.2,81.8h-6.9l2-5.8c0.8-2.4,1.4-4.8,1.4-4.9h0.1c0,0.1,0.5,2.5,1.4,4.9L1147.2,81.8z M1138.4,87.2h10.7l1.7,4.7h7.4
			l-11.1-28.1h-6.5l-10.7,28.1h6.9L1138.4,87.2z M1124.7,91.9V63.8h-6.2v13.4c0,2.2,0.1,4.2,0.2,4.6h-0.1c-0.2-0.3-1.3-2.3-3.1-4.9
			l-9.1-13.1h-6.9v28.1h6.2V77.3c0-1.9-0.1-3.8-0.2-3.9h0.1c0.1,0.2,1.1,1.9,2.9,4.4l10,14.2L1124.7,91.9L1124.7,91.9z M1091.8,80.2
			V63.8h-6.3v16.9c0,3.9-1.5,6.2-5.4,6.2c-4.2,0-5.7-2.1-5.7-6.5V63.8h-6.8v17.1c0,7.6,4.1,11.5,12.4,11.5
			C1087.7,92.4,1091.8,88.1,1091.8,80.2"/>
		<path class="st6" d="M950.8,91.9V56.5h-7.8v16.9c0,2.8,0.2,5.3,0.2,5.8h-0.1c-0.2-0.4-1.6-2.9-3.9-6.2l-11.5-16.5h-8.7v35.4h7.8
			V73.5c0-2.4-0.2-4.8-0.2-4.9h0.1c0.1,0.2,1.4,2.4,3.6,5.5L943,91.9L950.8,91.9L950.8,91.9z M910.5,91.9v-7h-13V77h11.2v-6.5h-11.2
			v-6.9h12.6v-7H889v35.4H910.5z M871.2,67.5c0,2.9-1.7,4.5-5.3,4.5h-3.7v-9h3.4C869.5,63,871.2,64.5,871.2,67.5 M882.6,91.9
			l-6.3-10c-1.9-3-3.2-4.5-4.3-5.3v-0.1c3.9-1,7.7-3.8,7.7-9.6c0-6.8-4.9-10.4-13.5-10.4h-12.5v35.4h8.6v-14h0.4
			c1.4,0,2.1,0.3,4.3,3.9l6.3,10.1L882.6,91.9L882.6,91.9z M836.7,74.3c0,6.1-2.7,11.4-9.5,11.4c-6.6,0-9.5-5.5-9.5-11.7
			c0-6.1,2.9-11.3,9.7-11.3C834.1,62.7,836.7,68.1,836.7,74.3 M845.7,74c0-9.5-6.3-18.1-18.5-18.1c-12.1,0-18.5,8.8-18.5,18.4
			c0,9.5,6.6,18.3,18.8,18.3C839.6,92.5,845.7,83.6,845.7,74 M804.7,91.9v-6.9h-12.9V56.5h-8.7v35.4H804.7z M765.1,67.5
			c0,2.9-1.7,4.5-5.3,4.5h-3.7v-9h3.4C763.4,63,765.1,64.5,765.1,67.5 M776.5,91.9l-6.3-10c-1.9-3-3.2-4.5-4.3-5.3v-0.1
			c3.9-1,7.7-3.8,7.7-9.6c0-6.8-4.9-10.4-13.5-10.4h-12.5v35.4h8.6v-14h0.4c1.4,0,2.1,0.3,4.3,3.9l6.3,10.1L776.5,91.9L776.5,91.9z
			 M738.9,91.9v-7h-13V77H737v-6.5h-11.2v-6.9h12.6v-7h-21.1v35.4H738.9z M711,56.5h-8.6l-6.6,20.1c-0.9,2.7-1.6,5.6-1.7,5.8H694
			c-0.1-0.3-0.9-3.1-1.8-5.8l-6.9-20.1h-9.3l13.7,35.4h8.1L711,56.5z"/>
		<path class="st6" d="M1211.6,17.7c0,2.2-1.3,3.4-4,3.4h-2.8v-6.8h2.6C1210.3,14.3,1211.6,15.5,1211.6,17.7 M1220.2,36.1l-4.8-7.5
			c-1.4-2.3-2.4-3.4-3.2-4v-0.1c3-0.7,5.8-2.9,5.8-7.2c0-5.1-3.7-7.8-10.1-7.8h-9.4v26.6h6.5V25.6h0.3c1.1,0,1.6,0.2,3.2,2.9
			l4.7,7.6L1220.2,36.1L1220.2,36.1z M1191.9,36.1v-5.3h-9.8v-6h8.4V20h-8.4v-5.2h9.5V9.5h-15.9v26.6L1191.9,36.1L1191.9,36.1z
			 M1156.4,36.1l3.9-12.6c0.6-1.8,1-3.7,1.1-3.8h0.1c0,0.2,0.2,2,0.4,3.9l1.5,12.5h6.6l-3.6-26.6h-6.3l-5.2,15.9
			c-0.6,1.8-1.2,4.3-1.3,4.4h-0.1c0-0.2-0.7-2.6-1.2-4.4l-5-15.9h-6.3l-3.7,26.6h5.8l1.6-12.5c0.2-1.8,0.3-3.9,0.3-4h0.1
			c0,0.1,0.5,2.2,1,3.8l3.9,12.6H1156.4z M1119.6,36.1l3.9-12.6c0.6-1.8,1-3.7,1.1-3.8h0.1c0,0.2,0.2,2,0.4,3.9l1.5,12.5h6.6
			l-3.6-26.6h-6.3l-5.2,15.9c-0.6,1.8-1.2,4.3-1.3,4.4h-0.1c0-0.2-0.7-2.6-1.2-4.4l-5-15.9h-6.3l-3.7,26.6h5.8l1.6-12.5
			c0.2-1.8,0.3-3.9,0.3-4h0.1c0,0.1,0.5,2.2,1,3.8l3.9,12.6H1119.6z M1094.3,9.5h-6.5v26.6h6.5V9.5z M1065.6,17.7
			c0,2.2-1.3,3.4-4,3.4h-2.8v-6.8h2.6C1064.3,14.3,1065.6,15.5,1065.6,17.7 M1074.1,36.1l-4.8-7.5c-1.4-2.3-2.4-3.4-3.2-4v-0.1
			c3-0.7,5.8-2.9,5.8-7.2c0-5.1-3.7-7.8-10.1-7.8h-9.4v26.6h6.5V25.6h0.3c1.1,0,1.6,0.2,3.2,2.9l4.7,7.6L1074.1,36.1L1074.1,36.1z
			 M1032.5,4.1c0-1.6-1.4-3.1-3.2-3.1c-1.9,0-3.2,1.4-3.2,3.1c0,1.7,1.3,3.1,3.2,3.1C1031.1,7.3,1032.5,5.9,1032.5,4.1 M1041.1,4.1
			c0-1.6-1.3-3.1-3.2-3.1s-3.2,1.4-3.2,3.1c0,1.7,1.4,3.1,3.2,3.1S1041.1,5.9,1041.1,4.1 M1045,25V9.5h-5.9v16
			c0,3.7-1.4,5.9-5.1,5.9c-4,0-5.4-2-5.4-6.1V9.5h-6.5v16.2c0,7.2,3.9,10.9,11.7,10.9C1041.2,36.6,1045,32.5,1045,25 M1016.3,14.8
			V9.5h-15.7v26.6h6.5V25.6h8.2v-4.9h-8.2v-5.9L1016.3,14.8L1016.3,14.8z"/>
		<path class="st6" d="M934.9-21.6c0-8.4-5.3-11.5-11.5-14.2c-4.9-2.2-8.5-3.1-8.5-6.4c0-2.8,2-4.2,5.5-4.2c3.7,0,7.3,1.8,8.9,2.8
			l4.4-7.8c-2.1-1.5-6.2-4-14-4c-8.7,0-15.4,5.1-15.4,13.2c0,7.6,4,11.2,9.7,14c5.4,2.7,10.2,3.5,10.2,7.2c0,2.6-2.3,4.6-6.7,4.6
			c-5.1,0-8.7-2.6-9.7-3.3l-4.6,7.8c2.1,1.7,7,4.5,14.6,4.5C928.5-7.4,934.9-12.8,934.9-21.6 M894.5-27.5v-27h-10.3v27.8
			c0,6.4-2.5,10.2-8.9,10.2c-6.9,0-9.3-3.4-9.3-10.7v-27.3h-11.2v28.1c0,12.5,6.7,19,20.3,19C887.9-7.4,894.5-14.4,894.5-27.5
			 M829.6-24.9h-11.4l3.3-9.5c1.3-3.9,2.3-7.8,2.4-8.1h0.1c0.1,0.2,0.9,4.1,2.3,8.1L829.6-24.9z M815.1-16h17.6l2.8,7.8h12.2
			l-18.2-46.2h-10.8L801.1-8.3h11.3L815.1-16z"/>
	</g>
</g>
</svg>
