<?xml version="1.0" encoding="utf-8"?>
<!-- Generator: Adobe Illustrator 19.1.0, SVG Export Plug-In . SVG Version: 6.00 Build 0)  -->
<svg version="1.1" id="Layer_1" xmlns="http://www.w3.org/2000/svg" xmlns:xlink="http://www.w3.org/1999/xlink" x="0px" y="0px"
	 viewBox="239 87 977.8 327" style="enable-background:new 239 87 977.8 327;" xml:space="preserve">
<style type="text/css">
	.st0{opacity:0.6;fill:#E6DCC9;}
	.st1{fill:#D7C6A8;}
</style>
<path class="st0" d="M1215.8,329.4v-47.3h-11.4v18.1H1185v-18.1h-11.5v47.3h11.5v-19.8h19.4v19.8H1215.8z M1164.7,325.2l-4.7-8
	c-2.3,1.7-5.3,3.6-10.4,3.6c-8.5,0-12.7-6.8-12.7-15.3c0-8.3,4.4-14.7,12.5-14.7c4.3,0,7.1,1.1,9.7,2.7l5-8.3
	c-3.8-2.5-8.3-3.8-14.5-3.8c-16.5,0-24.9,11.6-24.9,24.4c0,12.9,8.1,24.6,24.6,24.6C1156.4,330.2,1162.3,327.3,1164.7,325.2
	 M1113.4,282.1h-11.6v47.3h11.6V282.1z M1090.9,329.4v-9.2h-17.3v-38.1H1062v47.3L1090.9,329.4L1090.9,329.4z M1048.5,329.4v-47.3
	h-11.4v18.1h-19.4v-18.1h-11.5v47.3h11.5v-19.8h19.4v19.8H1048.5z M997.4,325.2l-4.7-8c-2.3,1.7-5.3,3.6-10.4,3.6
	c-8.5,0-12.7-6.8-12.7-15.3c0-8.3,4.4-14.7,12.5-14.7c4.3,0,7.1,1.1,9.7,2.7l5-8.3c-3.8-2.5-8.3-3.8-14.5-3.8
	c-16.5,0-24.9,11.6-24.9,24.4c0,12.9,8.1,24.6,24.7,24.6C989.1,330.2,995,327.3,997.4,325.2 M946.1,282.1h-11.6v47.3h11.6V282.1z
	 M922.5,329.4V320h-17.4v-10.6H920v-8.7h-14.9v-9.2H922v-9.4h-28.3v47.3L922.5,329.4L922.5,329.4z M885.1,282.1h-10.9l-5.5,22.4
	c-0.9,3.8-1.6,8.5-1.7,9h-0.2c-0.1-0.4-0.9-5.3-1.8-9.3l-5.5-22h-11.2l-5.6,22.1c-1,3.8-1.8,8.7-1.9,9.2h-0.1
	c-0.1-0.5-0.8-5-1.7-8.8l-5.3-22.5h-12.2l12.7,47.3h10.6l6.8-24.4c1.1-3.9,2-8.4,2.1-8.7h0.1c0.1,0.4,0.9,4.8,1.8,8.7l6.1,24.4h10.6
	L885.1,282.1z M816.1,315.7c0-8.6-5.5-11.8-11.7-14.6c-5-2.3-8.7-3.2-8.7-6.5c0-2.8,2.1-4.3,5.6-4.3c3.8,0,7.5,1.8,9.1,2.8l4.5-8
	c-2.1-1.6-6.3-4-14.3-4c-8.9,0-15.8,5.3-15.8,13.5c0,7.7,4,11.4,9.9,14.4c5.5,2.8,10.4,3.6,10.4,7.3c0,2.7-2.3,4.7-6.8,4.7
	c-5.2,0-8.9-2.7-9.9-3.4l-4.7,8c2.1,1.7,7.2,4.6,15,4.6C809.6,330.2,816.1,324.7,816.1,315.7 M774.8,309.7v-27.6h-10.5v28.4
	c0,6.5-2.6,10.4-9.1,10.4c-7,0-9.5-3.5-9.5-10.9v-27.9h-11.5v28.8c0,12.8,6.9,19.4,20.8,19.4C768,330.2,774.8,323,774.8,309.7
	 M708.3,312.3h-11.6l3.3-9.7c1.4-4,2.3-8,2.4-8.2h0.1c0.1,0.2,0.9,4.2,2.3,8.2L708.3,312.3z M693.6,321.4h18l2.8,8h12.5l-18.6-47.3
	h-11l-18,47.3h11.6L693.6,321.4z M670.6,329.4v-47.3h-10.4v22.6c0,3.7,0.2,7.1,0.3,7.7h-0.1c-0.3-0.5-2.1-3.9-5.2-8.3l-15.3-22
	h-11.6v47.3h10.4v-24.7c0-3.2-0.2-6.4-0.3-6.6h0.1c0.1,0.3,1.8,3.2,4.8,7.4l16.8,23.9L670.6,329.4L670.6,329.4z M615.1,309.7v-27.6
	h-10.5v28.4c0,6.5-2.6,10.4-9.1,10.4c-7,0-9.5-3.5-9.5-10.9v-27.9h-11.5v28.8c0,12.8,6.9,19.4,20.8,19.4
	C608.4,330.2,615.1,323,615.1,309.7"/>
<path class="st0" d="M779.8,389.8c0-13.8-8.8-18.9-18.8-23.4c-8.1-3.6-14-5.1-14-10.5c0-4.6,3.3-6.8,9-6.8c6,0,12,3,14.6,4.6
	l7.2-12.8c-3.4-2.5-10.1-6.5-22.9-6.5c-14.2,0-25.3,8.4-25.3,21.6c0,12.4,6.5,18.3,15.8,23c8.9,4.4,16.7,5.8,16.7,11.7
	c0,4.3-3.8,7.5-10.9,7.5c-8.3,0-14.2-4.3-16-5.5l-7.5,12.8c3.4,2.7,11.5,7.4,24,7.4C769.4,413,779.8,404.1,779.8,389.8 M717.4,389.8
	c0-13.8-8.8-18.9-18.8-23.4c-8.1-3.6-14-5.1-14-10.5c0-4.6,3.3-6.8,9-6.8c6,0,12,3,14.6,4.6l7.2-12.8c-3.4-2.5-10.1-6.5-22.9-6.5
	c-14.2,0-25.3,8.4-25.3,21.6c0,12.4,6.5,18.3,15.8,23c8.9,4.4,16.7,5.8,16.7,11.7c0,4.3-3.8,7.5-10.9,7.5c-8.3,0-14.2-4.3-16-5.5
	l-7.5,12.8c3.4,2.7,11.5,7.4,24,7.4C706.9,413,717.4,404.1,717.4,389.8 M651.1,380.1v-44.3h-16.9v45.6c0,10.5-4.1,16.7-14.6,16.7
	c-11.3,0-15.3-5.6-15.3-17.5v-44.8h-18.5v46.1c0,20.5,11.1,31.1,33.4,31.1C640.3,413,651.1,401.5,651.1,380.1 M572.9,411.7V397
	h-27.7v-61.2h-18.6v75.9H572.9z M505,411.7v-75.9h-18.2v29.1h-31.1v-29.1h-18.5v75.9h18.5v-31.8h31.1v31.8H505z M423,404.9
	l-7.5-12.9c-3.8,2.7-8.4,5.7-16.6,5.7c-13.7,0-20.4-10.9-20.4-24.6c0-13.3,7.1-23.6,20.1-23.6c6.8,0,11.4,1.8,15.5,4.3l8.1-13.3
	c-6-4-13.3-6.2-23.2-6.2c-26.4,0-39.9,18.6-39.9,39.2c0,20.7,13,39.4,39.5,39.4C409.7,413,419.1,408.4,423,404.9 M346.7,389.8
	c0-13.8-8.8-18.9-18.8-23.4c-8.1-3.6-14-5.1-14-10.5c0-4.6,3.3-6.8,9-6.8c6,0,12,3,14.6,4.6l7.2-12.8c-3.4-2.5-10.1-6.5-22.9-6.5
	c-14.2,0-25.3,8.4-25.3,21.6c0,12.4,6.5,18.3,15.8,23c8.9,4.4,16.7,5.8,16.7,11.7c0,4.3-3.8,7.5-10.9,7.5c-8.3,0-14.2-4.3-16-5.5
	l-7.5,12.8c3.4,2.7,11.5,7.4,24,7.4C336.2,413,346.7,404.1,346.7,389.8"/>
<path class="st0" d="M627.5,273.2v-49.9h-10.9v23.8c0,3.9,0.2,7.5,0.3,8.2h-0.1c-0.3-0.5-2.2-4.1-5.5-8.8l-16.2-23.2h-12.2v49.9
	h10.9v-26c0-3.4-0.2-6.7-0.3-7h0.1c0.1,0.3,1.9,3.4,5.1,7.8l17.8,25.2L627.5,273.2L627.5,273.2z M570.7,273.2v-9.9h-18.4v-11.2H568
	v-9.2h-15.7v-9.7h17.8v-9.9h-29.8v49.9H570.7L570.7,273.2z M515.2,238.7c0,4-2.4,6.4-7.4,6.4h-5.2v-12.7h4.8
	C512.8,232.3,515.2,234.5,515.2,238.7 M531.2,273.2l-8.9-14.1c-2.7-4.3-4.6-6.4-6.1-7.4v-0.1c5.5-1.3,10.9-5.4,10.9-13.6
	c0-9.6-6.9-14.7-19-14.7h-17.7v49.9h12.1v-19.7h0.6c2,0,2.9,0.4,6.1,5.5l8.8,14.2L531.2,273.2L531.2,273.2z M466.5,248.3
	c0,8.6-3.8,16.1-13.3,16.1c-9.3,0-13.3-7.7-13.3-16.5c0-8.6,4.1-15.9,13.6-15.9C462.8,232,466.5,239.6,466.5,248.3 M479.2,247.9
	c0-13.3-8.8-25.6-26.1-25.6c-17.1,0-26.2,12.4-26.2,25.9c0,13.4,9.3,25.8,26.5,25.8S479.2,261.4,479.2,247.9 M421.4,273.2v-9.7
	h-18.2v-40.2H391v49.9H421.4L421.4,273.2z M365.6,238.7c0,4-2.4,6.4-7.4,6.4H353v-12.7h4.8C363.2,232.3,365.6,234.5,365.6,238.7
	 M381.6,273.2l-8.9-14.1c-2.7-4.3-4.6-6.4-6.1-7.4v-0.1c5.5-1.3,10.9-5.4,10.9-13.6c0-9.6-6.9-14.7-19-14.7h-17.7v49.9h12.1v-19.7
	h0.6c2,0,2.9,0.4,6.1,5.5l8.8,14.2L381.6,273.2L381.6,273.2z M328.6,273.2v-9.9h-18.4v-11.2H326v-9.2h-15.8v-9.7H328v-9.9h-29.8
	v49.9H328.6L328.6,273.2z M289.3,223.3h-12.1l-9.4,28.4c-1.3,3.7-2.3,7.9-2.4,8.2h-0.1c-0.2-0.4-1.2-4.4-2.5-8.2l-9.7-28.4H240
	l19.3,49.9h11.5L289.3,223.3z"/>
<path class="st0" d="M960.1,169c0,4-2.4,6.3-7.4,6.3h-5.2v-12.6h4.8C957.7,162.7,960.1,164.8,960.1,169 M976,203.2l-8.9-14
	c-2.7-4.2-4.5-6.3-6-7.4v-0.1c5.5-1.3,10.8-5.4,10.8-13.5c0-9.5-6.8-14.6-18.9-14.6h-17.6v49.6h12.1v-19.5h0.6c2,0,2.9,0.4,6,5.4
	l8.8,14.1H976z M923.3,203.2v-9.8H905v-11.1h15.6v-9.2H905v-9.7h17.7v-9.8h-29.6v49.6C893.1,203.2,923.3,203.2,923.3,203.2z
	 M857,203.2l7.3-23.5c1-3.4,1.9-6.8,2-7.1h0.1c0.1,0.3,0.4,3.6,0.8,7.3l2.8,23.4h12.3l-6.8-49.6h-11.7l-9.7,29.6
	c-1.1,3.4-2.3,8-2.4,8.3h-0.1c-0.1-0.3-1.3-4.8-2.3-8.3l-9.3-29.6h-11.7l-6.8,49.6h10.8l2.9-23.3c0.4-3.3,0.6-7.2,0.6-7.4h0.1
	c0,0.1,1,4,1.9,7.1l7.3,23.5H857z M788.5,203.2l7.3-23.5c1-3.4,1.9-6.8,2-7.1h0.1c0.1,0.3,0.4,3.6,0.8,7.3l2.8,23.4h12.3l-6.8-49.6
	h-11.7l-9.7,29.6c-1.1,3.4-2.3,8-2.4,8.3h-0.1c-0.1-0.3-1.3-4.8-2.3-8.3l-9.3-29.6h-11.7l-6.8,49.6h10.8l2.9-23.3
	c0.4-3.3,0.6-7.2,0.6-7.4h0.1c0,0.1,1,4,1.9,7.1l7.3,23.5H788.5z M741.3,153.7h-12.1v49.6h12.1V153.7z M687.8,169
	c0,4-2.4,6.3-7.4,6.3h-5.2v-12.6h4.8C685.4,162.7,687.8,164.8,687.8,169 M703.7,203.2l-8.9-14c-2.7-4.2-4.5-6.3-6-7.4v-0.1
	c5.5-1.3,10.8-5.4,10.8-13.5c0-9.5-6.8-14.6-18.9-14.6h-17.6v49.6h12.1v-19.5h0.6c2,0,2.9,0.4,6,5.4l8.8,14.1H703.7z M626.1,143.7
	c0-3.1-2.5-5.7-6-5.7s-6,2.7-6,5.7c0,3.2,2.5,5.8,6,5.8S626.1,146.9,626.1,143.7 M642.3,143.7c0-3.1-2.5-5.7-6-5.7s-6,2.7-6,5.7
	c0,3.2,2.5,5.8,6,5.8S642.3,146.9,642.3,143.7 M649.4,182.6v-29h-11v29.8c0,6.8-2.7,10.9-9.5,10.9c-7.4,0-10-3.6-10-11.5v-29.1
	h-12.1v30.2c0,13.4,7.2,20.3,21.8,20.3C642.3,204.1,649.4,196.6,649.4,182.6 M596,163.5v-9.8h-29.3v49.6h12.1v-19.7H594v-9.2h-15.3
	v-10.9H596z"/>
<path class="st0" d="M532.9,140.8c0-13.1-8.4-18-17.9-22.3c-7.7-3.5-13.4-4.9-13.4-10c0-4.3,3.2-6.5,8.6-6.5
	c5.8,0,11.4,2.8,13.9,4.3l6.9-12.1c-3.3-2.4-9.7-6.2-21.8-6.2c-13.6,0-24.2,8-24.2,20.6c0,11.8,6.2,17.5,15.1,21.9
	c8.5,4.2,16,5.5,16,11.2c0,4.1-3.6,7.2-10.4,7.2c-7.9,0-13.6-4.1-15.2-5.2l-7.2,12.2c3.3,2.6,11,7.1,22.9,7.1
	C522.9,163,532.9,154.5,532.9,140.8 M469.7,131.6V89.3h-16.1v43.5c0,10-3.9,16-13.9,16c-10.8,0-14.6-5.3-14.6-16.7V89.3h-17.6v44
	c0,19.6,10.5,29.7,31.8,29.7C459.4,163,469.7,152,469.7,131.6 M368.1,135.6h-17.8l5.1-14.9c2.1-6.1,3.6-12.3,3.7-12.6h0.2
	c0.1,0.3,1.4,6.4,3.6,12.6L368.1,135.6z M345.5,149.5H373l4.3,12.2h19.1L368,89.3h-16.8l-27.6,72.4h17.7L345.5,149.5z"/>
<path class="st1" d="M770.4,349.1c0-6.4-4.1-8.8-8.8-10.9c-3.8-1.7-6.5-2.4-6.5-4.9c0-2.1,1.5-3.2,4.2-3.2c2.8,0,5.6,1.4,6.8,2.1
	l3.3-6c-1.6-1.2-4.7-3-10.7-3c-6.6,0-11.8,3.9-11.8,10.1c0,5.8,3,8.6,7.4,10.7c4.1,2.1,7.8,2.7,7.8,5.5c0,2-1.8,3.5-5.1,3.5
	c-3.9,0-6.6-2-7.4-2.5l-3.5,5.9c1.6,1.3,5.4,3.5,11.2,3.5C765.5,359.9,770.4,355.8,770.4,349.1 M741.3,349.1c0-6.4-4.1-8.8-8.8-10.9
	c-3.8-1.7-6.5-2.4-6.5-4.9c0-2.1,1.5-3.2,4.2-3.2c2.8,0,5.6,1.4,6.8,2.1l3.3-6c-1.6-1.2-4.7-3-10.7-3c-6.6,0-11.8,3.9-11.8,10.1
	c0,5.8,3,8.6,7.4,10.7c4.1,2.1,7.8,2.7,7.8,5.5c0,2-1.8,3.5-5.1,3.5c-3.9,0-6.6-2-7.4-2.5l-3.5,5.9c1.6,1.3,5.4,3.5,11.2,3.5
	C736.4,359.9,741.3,355.8,741.3,349.1 M710.3,344.6v-20.7h-7.9v21.3c0,4.9-1.9,7.8-6.8,7.8c-5.3,0-7.1-2.6-7.1-8.2v-20.9h-8.6v21.5
	c0,9.6,5.2,14.5,15.6,14.5C705.3,359.9,710.3,354.6,710.3,344.6 M673.9,359.3v-6.9H661v-28.5h-8.7v35.4H673.9z M642.2,359.3v-35.4
	h-8.5v13.5h-14.5v-13.5h-8.6v35.4h8.6v-14.8h14.5v14.8H642.2z M604,356.2l-3.5-6c-1.8,1.3-3.9,2.7-7.8,2.7c-6.4,0-9.5-5.1-9.5-11.5
	c0-6.2,3.3-11,9.4-11c3.2,0,5.3,0.9,7.2,2l3.8-6.2c-2.8-1.9-6.2-2.9-10.8-2.9c-12.3,0-18.6,8.7-18.6,18.3c0,9.7,6.1,18.4,18.4,18.4
	C597.7,359.9,602.2,357.8,604,356.2 M568.4,349.1c0-6.4-4.1-8.8-8.8-10.9c-3.8-1.7-6.5-2.4-6.5-4.9c0-2.1,1.5-3.2,4.2-3.2
	c2.8,0,5.6,1.4,6.8,2.1l3.3-6c-1.6-1.2-4.7-3-10.7-3c-6.6,0-11.8,3.9-11.8,10.1c0,5.8,3,8.6,7.4,10.7c4.1,2.1,7.8,2.7,7.8,5.5
	c0,2-1.8,3.5-5.1,3.5c-3.9,0-6.6-2-7.4-2.5l-3.5,5.9c1.6,1.3,5.4,3.5,11.2,3.5C563.5,359.9,568.4,355.8,568.4,349.1"/>
<path class="st1" d="M1035.9,291.9v-28.1h-6.8v10.8h-11.5v-10.8h-6.8v28.1h6.8v-11.8h11.5v11.8H1035.9z M1005.5,289.4l-2.8-4.8
	c-1.4,1-3.1,2.1-6.2,2.1c-5.1,0-7.6-4.1-7.6-9.1c0-4.9,2.6-8.7,7.4-8.7c2.5,0,4.2,0.7,5.7,1.6l3-4.9c-2.2-1.5-4.9-2.3-8.6-2.3
	c-9.8,0-14.8,6.9-14.8,14.5c0,7.7,4.8,14.6,14.7,14.6C1000.6,292.4,1004.1,290.7,1005.5,289.4 M975,263.8h-6.9v28.1h6.9V263.8z
	 M961.6,291.9v-5.4h-10.3v-22.7h-6.9v28.1L961.6,291.9L961.6,291.9z M936.5,291.9v-28.1h-6.8v10.8h-11.5v-10.8h-6.8v28.1h6.8v-11.8
	h11.5v11.8H936.5z M906,289.4l-2.8-4.8c-1.4,1-3.1,2.1-6.2,2.1c-5.1,0-7.6-4.1-7.6-9.1c0-4.9,2.6-8.7,7.4-8.7c2.5,0,4.2,0.7,5.7,1.6
	l3-4.9c-2.2-1.5-4.9-2.3-8.6-2.3c-9.8,0-14.8,6.9-14.8,14.5c0,7.7,4.8,14.6,14.7,14.6C901.1,292.4,904.6,290.7,906,289.4
	 M875.5,263.8h-6.9v28.1h6.9V263.8z M861.5,291.9v-5.6h-10.3V280h8.9v-5.2h-8.9v-5.5h10.1v-5.6h-16.8v28.1h17V291.9z M839.3,263.8
	h-6.5l-3.3,13.3c-0.5,2.3-1,5-1,5.3h-0.1c0-0.3-0.5-3.2-1.1-5.5l-3.3-13.1h-6.7l-3.3,13.1c-0.6,2.3-1.1,5.2-1.1,5.5h-0.1
	c0-0.3-0.5-3-1-5.2l-3.2-13.4h-7.3l7.6,28.1h6.3l4.1-14.5c0.6-2.3,1.2-5,1.2-5.2h0.1c0,0.2,0.5,2.9,1.1,5.2l3.6,14.5h6.3
	L839.3,263.8z M798.2,283.8c0-5.1-3.3-7-7-8.7c-3-1.4-5.2-1.9-5.2-3.9c0-1.7,1.2-2.5,3.3-2.5c2.2,0,4.4,1.1,5.4,1.7l2.7-4.7
	c-1.3-0.9-3.8-2.4-8.5-2.4c-5.3,0-9.4,3.1-9.4,8c0,4.6,2.4,6.8,5.9,8.5c3.3,1.6,6.2,2.2,6.2,4.4c0,1.6-1.4,2.8-4.1,2.8
	c-3.1,0-5.3-1.6-5.9-2l-2.8,4.7c1.3,1,4.3,2.7,8.9,2.7C794.4,292.4,798.2,289.1,798.2,283.8 M773.7,280.2v-16.4h-6.3v16.9
	c0,3.9-1.5,6.2-5.4,6.2c-4.2,0-5.7-2.1-5.7-6.5v-16.6h-6.8v17.1c0,7.6,4.1,11.5,12.4,11.5C769.7,292.4,773.7,288.2,773.7,280.2
	 M734.2,281.8h-6.9l2-5.8c0.8-2.4,1.4-4.8,1.4-4.9h0.1c0,0.1,0.5,2.5,1.4,4.9L734.2,281.8z M725.4,287.2h10.7l1.7,4.7h7.4
	l-11.1-28.1h-6.5l-10.7,28.1h6.9L725.4,287.2z M711.7,291.9v-28.1h-6.2v13.4c0,2.2,0.1,4.2,0.2,4.6h-0.1c-0.2-0.3-1.3-2.3-3.1-4.9
	l-9.1-13.1h-6.9v28.1h6.2v-14.7c0-1.9-0.1-3.8-0.2-3.9h0.1c0.1,0.2,1.1,1.9,2.9,4.4l10,14.2H711.7z M678.8,280.2v-16.4h-6.3v16.9
	c0,3.9-1.5,6.2-5.4,6.2c-4.2,0-5.7-2.1-5.7-6.5v-16.6h-6.8v17.1c0,7.6,4.1,11.5,12.4,11.5C674.7,292.4,678.8,288.2,678.8,280.2"/>
<path class="st1" d="M537.8,291.9v-35.4H530v16.9c0,2.8,0.2,5.3,0.2,5.8h-0.1c-0.2-0.4-1.6-2.9-3.9-6.2l-11.5-16.5H506v35.4h7.8
	v-18.4c0-2.4-0.2-4.8-0.2-4.9h0.1c0.1,0.2,1.4,2.4,3.6,5.5l12.6,17.9h7.9V291.9z M497.5,291.9v-7h-13V277h11.2v-6.5h-11.2v-6.9h12.6
	v-7H476V292h21.5V291.9z M458.2,267.5c0,2.9-1.7,4.5-5.3,4.5h-3.7v-9h3.4C456.5,263,458.2,264.5,458.2,267.5 M469.6,291.9l-6.3-10
	c-1.9-3-3.2-4.5-4.3-5.3v-0.1c3.9-1,7.7-3.8,7.7-9.6c0-6.8-4.9-10.4-13.5-10.4h-12.5v35.4h8.6v-14h0.4c1.4,0,2.1,0.3,4.3,3.9
	l6.3,10.1H469.6z M423.7,274.3c0,6.1-2.7,11.4-9.5,11.4c-6.6,0-9.5-5.5-9.5-11.7c0-6.1,2.9-11.3,9.7-11.3
	C421.1,262.8,423.7,268.1,423.7,274.3 M432.7,274c0-9.5-6.3-18.1-18.5-18.1c-12.1,0-18.5,8.8-18.5,18.4c0,9.5,6.6,18.3,18.8,18.3
	C426.6,292.6,432.7,283.6,432.7,274 M391.7,291.9V285h-12.9v-28.5h-8.7v35.4H391.7z M352.1,267.5c0,2.9-1.7,4.5-5.3,4.5h-3.7v-9h3.4
	C350.4,263,352.1,264.5,352.1,267.5 M363.5,291.9l-6.3-10c-1.9-3-3.2-4.5-4.3-5.3v-0.1c3.9-1,7.7-3.8,7.7-9.6
	c0-6.8-4.9-10.4-13.5-10.4h-12.5v35.4h8.6v-14h0.4c1.4,0,2.1,0.3,4.3,3.9l6.3,10.1H363.5z M325.9,291.9v-7h-13V277H324v-6.5h-11.1
	v-6.9h12.6v-7h-21.1V292h21.5V291.9z M298.1,256.5h-8.6l-6.6,20.1c-0.9,2.7-1.6,5.6-1.7,5.8H281c-0.1-0.3-0.8-3.1-1.8-5.8l-6.9-20.1
	H263l13.7,35.4h8.1L298.1,256.5z"/>
<path class="st1" d="M798.6,217.7c0,2.2-1.3,3.4-4,3.4h-2.8v-6.8h2.6C797.3,214.4,798.6,215.5,798.6,217.7 M807.2,236.1l-4.8-7.5
	c-1.4-2.3-2.4-3.4-3.2-4v-0.1c3-0.7,5.8-2.9,5.8-7.2c0-5.1-3.7-7.8-10.1-7.8h-9.4v26.6h6.5v-10.5h0.3c1.1,0,1.6,0.2,3.2,2.9l4.7,7.6
	H807.2z M778.9,236.1v-5.3h-9.8v-5.9h8.4V220h-8.4v-5.2h9.5v-5.3h-15.9v26.6H778.9z M743.4,236.1l3.9-12.6c0.6-1.8,1-3.7,1.1-3.8
	h0.1c0,0.2,0.2,2,0.4,3.9l1.5,12.5h6.6l-3.6-26.6H747l-5.2,15.9c-0.6,1.8-1.2,4.3-1.3,4.4h-0.1c0-0.2-0.7-2.6-1.2-4.4l-5-15.9H728
	l-3.7,26.6h5.8l1.6-12.5c0.2-1.8,0.3-3.9,0.3-4h0.1c0,0.1,0.5,2.2,1,3.8L737,236h6.4V236.1z M706.6,236.1l3.9-12.6
	c0.6-1.8,1-3.7,1.1-3.8h0.1c0,0.2,0.2,2,0.4,3.9l1.5,12.5h6.6l-3.6-26.6h-6.3l-5.2,15.9c-0.6,1.8-1.2,4.3-1.3,4.4h-0.1
	c0-0.2-0.7-2.6-1.2-4.4l-5-15.9h-6.3l-3.7,26.6h5.8l1.6-12.5c0.2-1.8,0.3-3.9,0.3-4h0.1c0,0.1,0.5,2.2,1,3.8l3.9,12.6h6.4V236.1z
	 M681.3,209.5h-6.5v26.6h6.5V209.5z M652.6,217.7c0,2.2-1.3,3.4-4,3.4h-2.8v-6.8h2.6C651.3,214.4,652.6,215.5,652.6,217.7
	 M661.1,236.1l-4.8-7.5c-1.4-2.3-2.4-3.4-3.2-4v-0.1c3-0.7,5.8-2.9,5.8-7.2c0-5.1-3.7-7.8-10.1-7.8h-9.4v26.6h6.5v-10.5h0.3
	c1.1,0,1.6,0.2,3.2,2.9l4.7,7.6H661.1z M619.5,204.2c0-1.6-1.4-3.1-3.2-3.1c-1.9,0-3.2,1.4-3.2,3.1s1.3,3.1,3.2,3.1
	C618.1,207.3,619.5,205.9,619.5,204.2 M628.1,204.2c0-1.6-1.3-3.1-3.2-3.1s-3.2,1.4-3.2,3.1s1.4,3.1,3.2,3.1
	C626.8,207.3,628.1,205.9,628.1,204.2 M632,225.1v-15.5h-5.9v16c0,3.7-1.4,5.9-5.1,5.9c-4,0-5.4-2-5.4-6.1v-15.7h-6.5v16.2
	c0,7.2,3.9,10.9,11.7,10.9C628.2,236.6,632,232.6,632,225.1 M603.3,214.8v-5.3h-15.7v26.6h6.5v-10.5h8.2v-4.9h-8.2v-5.9
	C594.1,214.8,603.3,214.8,603.3,214.8z"/>
<path class="st1" d="M521.9,178.4c0-8.4-5.3-11.5-11.5-14.2c-4.9-2.2-8.5-3.1-8.5-6.4c0-2.8,2-4.2,5.5-4.2c3.7,0,7.3,1.8,8.9,2.8
	l4.4-7.8c-2.1-1.5-6.2-4-14-4c-8.7,0-15.4,5.1-15.4,13.2c0,7.6,4,11.2,9.6,14c5.4,2.7,10.2,3.5,10.2,7.2c0,2.6-2.3,4.6-6.7,4.6
	c-5.1,0-8.7-2.6-9.7-3.3l-4.6,7.8c2.1,1.7,7,4.5,14.6,4.5C515.5,192.6,521.9,187.2,521.9,178.4 M481.5,172.5v-27h-10.3v27.8
	c0,6.4-2.5,10.2-8.9,10.2c-6.9,0-9.3-3.4-9.3-10.7v-27.3h-11.2v28.1c0,12.5,6.7,19,20.3,19C474.9,192.6,481.5,185.6,481.5,172.5
	 M416.6,175.1h-11.4l3.3-9.5c1.3-3.9,2.3-7.8,2.4-8.1h0.1c0.1,0.2,0.9,4.1,2.3,8.1L416.6,175.1z M402.1,184h17.6l2.8,7.8h12.2
	l-18.2-46.2h-10.8l-17.6,46.2h11.3L402.1,184z"/>
</svg>
