<svg id="Ebene_1" xmlns="http://www.w3.org/2000/svg" xmlns:xlink="http://www.w3.org/1999/xlink" viewBox="652 -113 977.8 327">
  <style>
    .st0{opacity:0.5;} .st1{clip-path:url(#SVGID_2_);fill:#E7DCC9;} .st2{clip-path:url(#SVGID_4_);fill:#E7DCC9;} .st3{clip-path:url(#SVGID_6_);fill:#E7DCC9;} .st4{clip-path:url(#SVGID_8_);fill:#E7DCC9;} .st5{clip-path:url(#SVGID_10_);fill:#E7DCC9;} .st6{fill:#D7C6A8;}
  </style>
  <g class="st0">
    <defs>
      <path id="SVGID_1_" d="M986.5 80.2h643.3v51H986.5z"/>
    </defs>
    <clipPath id="SVGID_2_">
      <use xlink:href="#SVGID_1_" overflow="visible"/>
    </clipPath>
    <path class="st1" d="M1628.8 129.3V82h-11.4v18.1H1598V82h-11.5v47.3h11.5v-19.8h19.4v19.8h11.4zm-51.1-4.1l-4.7-8c-2.3 1.7-5.3 3.6-10.4 3.6-8.5 0-12.7-6.8-12.7-15.3 0-8.3 4.4-14.7 12.5-14.7 4.3 0 7.1 1.1 9.7 2.7l5-8.3c-3.8-2.5-8.3-3.8-14.5-3.8-16.5 0-24.9 11.6-24.9 24.4 0 12.9 8.1 24.6 24.7 24.6 7-.2 12.9-3.1 15.3-5.2M1526.4 82h-11.6v47.3h11.6V82zm-22.5 47.3v-9.2h-17.3V82H1475v47.3h28.9zm-42.4 0V82h-11.4v18.1h-19.4V82h-11.5v47.3h11.5v-19.8h19.4v19.8h11.4zm-51.1-4.1l-4.7-8c-2.3 1.7-5.3 3.6-10.4 3.6-8.5 0-12.7-6.8-12.7-15.3 0-8.3 4.4-14.7 12.5-14.7 4.3 0 7.1 1.1 9.7 2.7l5-8.3c-3.8-2.5-8.3-3.8-14.5-3.8-16.5 0-24.9 11.6-24.9 24.4 0 12.9 8.1 24.6 24.6 24.6 7.1-.2 13-3.1 15.4-5.2M1359.1 82h-11.6v47.3h11.6V82zm-23.6 47.3V120h-17.4v-10.6h14.9v-8.7h-14.9v-9.2h16.9V82h-28.3v47.3h28.8zM1298.1 82h-10.9l-5.5 22.4c-.9 3.8-1.6 8.5-1.7 9h-.2c-.1-.4-.9-5.3-1.8-9.3l-5.5-22h-11.2l-5.6 22.1c-1 3.8-1.8 8.7-1.9 9.2h-.1c-.1-.5-.8-5-1.7-8.8l-5.3-22.5h-12.2l12.7 47.3h10.6l6.8-24.4c1.1-3.9 2-8.4 2.1-8.7h.1c.1.4.9 4.8 1.8 8.7l6.1 24.4h10.6l12.8-47.4zm-69 33.7c0-8.6-5.5-11.8-11.7-14.6-5-2.3-8.7-3.2-8.7-6.5 0-2.8 2.1-4.3 5.6-4.3 3.8 0 7.5 1.8 9.1 2.8l4.5-8c-2.1-1.6-6.3-4-14.3-4-8.9 0-15.8 5.3-15.8 13.5 0 7.7 4 11.4 9.9 14.4 5.5 2.8 10.4 3.6 10.4 7.3 0 2.7-2.3 4.7-6.8 4.7-5.2 0-8.9-2.7-9.9-3.4l-4.7 8c2.1 1.7 7.2 4.6 15 4.6 10.9 0 17.4-5.5 17.4-14.5m-41.3-6V82h-10.5v28.4c0 6.5-2.6 10.4-9.1 10.4-7 0-9.5-3.5-9.5-10.9V82h-11.5v28.8c0 12.8 6.9 19.4 20.8 19.4 13 0 19.8-7.2 19.8-20.5m-66.5 2.6h-11.7l3.3-9.7c1.3-4 2.3-8 2.4-8.2h.1c.1.2.9 4.2 2.3 8.2l3.6 9.7zm-14.7 9.1h18l2.8 8h12.5L1121.3 82h-11l-18 47.3h11.6l2.7-7.9zm-23 7.9V82h-10.4v22.6c0 3.7.2 7.1.3 7.7h-.1c-.3-.5-2.1-3.9-5.2-8.3l-15.3-22h-11.6v47.3h10.4v-24.7c0-3.2-.2-6.4-.3-6.6h.1c.1.3 1.8 3.2 4.8 7.4l16.8 23.9h10.5zm-55.5-19.6V82h-10.5v28.4c0 6.5-2.6 10.4-9.1 10.4-7 0-9.5-3.5-9.5-10.9V82h-11.5v28.8c0 12.8 6.9 19.4 20.8 19.4 13.1 0 19.8-7.2 19.8-20.5"/>
  </g>
  <g class="st0">
    <defs>
      <path id="SVGID_3_" d="M706.6 133.4h487.3V214H706.6z"/>
    </defs>
    <clipPath id="SVGID_4_">
      <use xlink:href="#SVGID_3_" overflow="visible"/>
    </clipPath>
    <path class="st2" d="M1192.8 189.8c0-13.8-8.8-18.9-18.8-23.4-8.1-3.6-14-5.1-14-10.5 0-4.6 3.3-6.8 9-6.8 6 0 12 3 14.6 4.6l7.2-12.8c-3.4-2.5-10.1-6.5-22.9-6.5-14.2 0-25.3 8.4-25.3 21.6 0 12.4 6.5 18.3 15.8 23 8.9 4.4 16.7 5.8 16.7 11.7 0 4.3-3.8 7.5-10.9 7.5-8.3 0-14.2-4.3-15.9-5.5l-7.5 12.8c3.4 2.7 11.5 7.4 24 7.4 17.6.1 28-8.8 28-23.1m-62.4 0c0-13.8-8.8-18.9-18.8-23.4-8.1-3.6-14-5.1-14-10.5 0-4.6 3.3-6.8 9-6.8 6 0 12 3 14.6 4.6l7.2-12.8c-3.4-2.5-10.1-6.5-22.9-6.5-14.2 0-25.3 8.4-25.3 21.6 0 12.4 6.5 18.3 15.8 23 8.9 4.4 16.7 5.8 16.7 11.7 0 4.3-3.8 7.5-10.9 7.5-8.3 0-14.2-4.3-16-5.5l-7.5 12.8c3.4 2.7 11.5 7.4 24 7.4 17.6.1 28.1-8.8 28.1-23.1m-66.3-9.7v-44.3h-16.9v45.6c0 10.5-4.1 16.7-14.6 16.7-11.3 0-15.3-5.6-15.3-17.5v-44.8h-18.5v46.1c0 20.5 11.1 31.1 33.4 31.1 21.1 0 31.9-11.5 31.9-32.9m-78.2 31.5v-14.7h-27.7v-61.2h-18.6v75.9h46.3zm-67.9 0v-75.9h-18.2v29.1h-31.1v-29.1h-18.5v75.9h18.5v-31.8h31.1v31.8H918zm-82-6.7l-7.5-12.9c-3.8 2.7-8.4 5.7-16.6 5.7-13.7 0-20.4-10.9-20.4-24.6 0-13.3 7.1-23.6 20.1-23.6 6.8 0 11.4 1.8 15.5 4.3l8.1-13.3c-6-4-13.3-6.2-23.2-6.2-26.4 0-39.9 18.6-39.9 39.2 0 20.7 13 39.4 39.5 39.4 11.1.1 20.5-4.6 24.4-8m-76.3-15.1c0-13.8-8.8-18.9-18.8-23.4-8.1-3.6-14-5.1-14-10.5 0-4.6 3.3-6.8 9-6.8 6 0 12 3 14.6 4.6l7.2-12.8c-3.4-2.5-10.1-6.5-22.9-6.5-14.2 0-25.3 8.4-25.3 21.6 0 12.4 6.5 18.3 15.8 23 8.9 4.4 16.7 5.8 16.7 11.7 0 4.3-3.8 7.5-10.9 7.5-8.3 0-14.2-4.3-16-5.5l-7.5 12.8c3.4 2.7 11.5 7.4 24 7.4 17.6.1 28.1-8.8 28.1-23.1"/>
  </g>
  <g class="st0">
    <defs>
      <path id="SVGID_5_" d="M652 21.3h389.5V75H652z"/>
    </defs>
    <clipPath id="SVGID_6_">
      <use xlink:href="#SVGID_5_" overflow="visible"/>
    </clipPath>
    <path class="st3" d="M1040.5 73.1V23.2h-10.9V47c0 3.9.2 7.5.3 8.2h-.2c-.3-.5-2.2-4.1-5.5-8.8L1008 23.2h-12.2v49.9h10.9v-26c0-3.4-.2-6.7-.3-7h.2c.2.3 1.9 3.4 5.1 7.8l17.8 25.2h11zm-56.8 0v-9.9h-18.4V52.1H981v-9.2h-15.7v-9.7h17.8v-9.9h-29.8v49.9l30.4-.1zm-55.5-34.4c0 4-2.4 6.4-7.4 6.4h-5.2V32.3h4.8c5.4 0 7.8 2.2 7.8 6.4m16 34.4L935.3 59c-2.7-4.3-4.6-6.4-6.1-7.4v-.1c5.5-1.4 10.9-5.4 10.9-13.6 0-9.6-6.9-14.7-19-14.7h-17.7v49.9h12.1V53.4h.6c2 0 2.9.4 6.1 5.5l8.8 14.2h13.2zm-64.7-24.8c0 8.6-3.8 16.1-13.3 16.1-9.3 0-13.3-7.7-13.3-16.5 0-8.6 4.1-15.9 13.6-15.9 9.3 0 13 7.6 13 16.3m12.7-.4c0-13.3-8.8-25.6-26.1-25.6-17.1 0-26.2 12.4-26.2 25.9 0 13.4 9.3 25.8 26.5 25.8s25.8-12.6 25.8-26.1m-57.8 25.2v-9.7h-18.2V23.2H804v49.9h30.4zm-55.8-34.4c0 4-2.4 6.4-7.4 6.4H766V32.3h4.8c5.4 0 7.8 2.2 7.8 6.4m16 34.4L785.7 59c-2.7-4.3-4.6-6.4-6.1-7.4v-.1c5.5-1.4 10.9-5.4 10.9-13.6 0-9.6-6.9-14.7-19-14.7h-17.7v49.9h12.1V53.4h.6c2 0 2.9.4 6.1 5.5l8.8 14.2h13.2zm-53 0v-9.9h-18.4V52.1H739v-9.2h-15.7v-9.7h17.8v-9.9h-29.8v49.9l30.3-.1zm-39.3-49.9h-12.1l-9.4 28.4c-1.3 3.7-2.3 7.9-2.4 8.2h-.2c-.1-.5-1.2-4.4-2.5-8.2L666 23.2h-13l19.3 49.9h11.5l18.5-49.9z"/>
  </g>
  <g class="st0">
    <defs>
      <path id="SVGID_7_" d="M978.7-63.1H1390V5.1H978.7z"/>
    </defs>
    <clipPath id="SVGID_8_">
      <use xlink:href="#SVGID_7_" overflow="visible"/>
    </clipPath>
    <path class="st4" d="M1373.1-31c0 4-2.4 6.3-7.4 6.3h-5.2v-12.7h4.8c5.4 0 7.8 2.2 7.8 6.4M1389 3.2l-8.9-14c-2.7-4.2-4.5-6.3-6-7.4v-.1c5.5-1.3 10.8-5.4 10.8-13.5 0-9.5-6.8-14.6-18.9-14.6h-17.6V3.2h12.1v-19.6h.6c2 0 2.9.4 6 5.4l8.8 14.1 13.1.1zm-52.7 0v-9.8H1318v-11.1h15.6v-9.2H1318v-9.7h17.7v-9.8h-29.6V3.2h30.2zm-66.3 0l7.3-23.5c1-3.4 1.9-6.8 2-7.1h.2c.1.3.4 3.6.8 7.3l2.8 23.4h12.3l-6.8-49.6h-11.7l-9.7 29.6c-1.1 3.4-2.3 8-2.4 8.3h-.2c-.1-.3-1.3-4.8-2.3-8.3l-9.3-29.6h-11.7l-6.8 49.6h10.8l2.9-23.3c.4-3.3.6-7.2.6-7.4h.1c0 .1 1 4 1.9 7.1l7.3 23.5h11.9zm-68.5 0l7.3-23.5c1-3.4 1.9-6.8 2-7.1h.1c.1.3.4 3.6.8 7.3l2.8 23.4h12.3l-6.8-49.6h-11.7l-9.7 29.6c-1.1 3.4-2.3 8-2.4 8.3h-.1c-.1-.3-1.3-4.8-2.3-8.3l-9.3-29.6h-11.7L1166 3.2h10.8l2.9-23.3c.4-3.3.6-7.2.6-7.4h.2c0 .1 1 4 1.9 7.1l7.3 23.5h11.8zm-47.2-49.6h-12.1V3.2h12.1v-49.6zM1100.8-31c0 4-2.4 6.3-7.4 6.3h-5.2v-12.7h4.8c5.4 0 7.8 2.2 7.8 6.4m15.9 34.2l-8.9-14c-2.7-4.2-4.5-6.3-6-7.4v-.1c5.5-1.3 10.8-5.4 10.8-13.5 0-9.5-6.8-14.6-18.9-14.6h-17.6V3.2h12.1v-19.6h.6c2 0 2.9.4 6 5.4l8.8 14.1 13.1.1zm-77.6-59.5c0-3.1-2.5-5.7-6-5.7s-6 2.7-6 5.7c0 3.2 2.5 5.8 6 5.8s6-2.6 6-5.8m16.2 0c0-3.1-2.5-5.7-6-5.7s-6 2.7-6 5.7c0 3.2 2.5 5.8 6 5.8s6-2.6 6-5.8m7.1 38.9v-29h-11v29.8c0 6.8-2.7 10.9-9.5 10.9-7.4 0-10-3.6-10-11.5v-29.3h-12.1v30.2c0 13.4 7.2 20.3 21.8 20.3 13.7.1 20.8-7.4 20.8-21.4M1009-36.5v-9.8h-29.3V3.2h12.1v-19.7h15.3v-9.2h-15.3v-10.9l17.2.1z"/>
  </g>
  <g class="st0">
    <defs>
      <path id="SVGID_9_" d="M735.6-113H947v77H735.6z"/>
    </defs>
    <clipPath id="SVGID_10_">
      <use xlink:href="#SVGID_9_" overflow="visible"/>
    </clipPath>
    <path class="st5" d="M945.9-59.2c0-13.1-8.4-18-17.9-22.3-7.7-3.5-13.4-4.9-13.4-10 0-4.3 3.2-6.5 8.6-6.5 5.8 0 11.4 2.8 13.9 4.3l6.8-12.2c-3.3-2.4-9.7-6.2-21.8-6.2-13.6 0-24.1 8-24.1 20.6 0 11.8 6.2 17.5 15.1 21.9 8.5 4.2 16 5.5 16 11.2 0 4.1-3.6 7.2-10.4 7.2-7.9 0-13.6-4.1-15.2-5.2l-7.2 12.2c3.3 2.6 11 7.1 22.9 7.1 16.7 0 26.7-8.4 26.7-22.1m-63.2-9.3v-42.3h-16.1v43.5c0 10-3.9 16-13.9 16-10.8 0-14.6-5.3-14.6-16.7v-42.7h-17.6v44c0 19.6 10.5 29.7 31.8 29.7 20.1-.1 30.4-11 30.4-31.5m-101.6 4.1h-17.8l5.1-14.9c2.1-6.1 3.6-12.3 3.7-12.6h.2c.1.3 1.4 6.4 3.6 12.6l5.2 14.9zm-22.6 13.9H786l4.3 12.2h19.1L781-110.7h-16.8l-27.6 72.4h17.7l4.2-12.2z"/>
  </g>
  <path class="st6" d="M1183.4 149.1c0-6.4-4.1-8.8-8.8-10.9-3.8-1.7-6.5-2.4-6.5-4.9 0-2.1 1.5-3.2 4.2-3.2 2.8 0 5.6 1.4 6.8 2.1l3.3-6c-1.6-1.2-4.7-3-10.7-3-6.6 0-11.8 3.9-11.8 10.1 0 5.8 3 8.6 7.4 10.7 4.1 2.1 7.8 2.7 7.8 5.5 0 2-1.8 3.5-5.1 3.5-3.9 0-6.6-2-7.4-2.5l-3.5 6c1.6 1.3 5.4 3.5 11.2 3.5 8.2-.1 13.1-4.2 13.1-10.9m-29.2 0c0-6.4-4.1-8.8-8.8-10.9-3.8-1.7-6.5-2.4-6.5-4.9 0-2.1 1.5-3.2 4.2-3.2 2.8 0 5.6 1.4 6.8 2.1l3.3-6c-1.6-1.2-4.7-3-10.7-3-6.6 0-11.8 3.9-11.8 10.1 0 5.8 3 8.6 7.4 10.7 4.1 2.1 7.8 2.7 7.8 5.5 0 2-1.8 3.5-5.1 3.5-3.9 0-6.6-2-7.4-2.5l-3.5 6c1.6 1.3 5.4 3.5 11.2 3.5 8.3-.1 13.1-4.2 13.1-10.9m-30.9-4.5v-20.7h-7.9v21.3c0 4.9-1.9 7.8-6.8 7.8-5.3 0-7.1-2.6-7.1-8.2v-20.9h-8.6v21.5c0 9.6 5.2 14.5 15.6 14.5 9.8 0 14.8-5.3 14.8-15.3m-36.4 14.7v-6.9H1074v-28.5h-8.7v35.4h21.6zm-31.7 0v-35.4h-8.5v13.5h-14.5v-13.5h-8.6v35.4h8.6v-14.8h14.5v14.8h8.5zm-38.2-3.2l-3.5-6c-1.8 1.3-3.9 2.7-7.8 2.7-6.4 0-9.5-5.1-9.5-11.5 0-6.2 3.3-11 9.4-11 3.2 0 5.3.9 7.2 2l3.8-6.2c-2.8-1.9-6.2-2.9-10.8-2.9-12.3 0-18.6 8.7-18.6 18.3 0 9.7 6.1 18.4 18.4 18.4 5.1 0 9.6-2.2 11.4-3.8m-35.6-7c0-6.4-4.1-8.8-8.8-10.9-3.8-1.7-6.5-2.4-6.5-4.9 0-2.1 1.5-3.2 4.2-3.2 2.8 0 5.6 1.4 6.8 2.1l3.3-6c-1.6-1.2-4.7-3-10.7-3-6.6 0-11.8 3.9-11.8 10.1 0 5.8 3 8.6 7.4 10.7 4.1 2.1 7.8 2.7 7.8 5.5 0 2-1.8 3.5-5.1 3.5-3.9 0-6.6-2-7.4-2.5l-3.5 6c1.6 1.3 5.4 3.5 11.2 3.5 8.2-.1 13.1-4.2 13.1-10.9m467.5-57.2V63.8h-6.8v10.8h-11.5V63.8h-6.8v28.1h6.8V80.1h11.5v11.8h6.8zm-30.4-2.5l-2.8-4.8c-1.4 1-3.1 2.1-6.2 2.1-5.1 0-7.6-4.1-7.6-9.1 0-4.9 2.6-8.7 7.4-8.7 2.5 0 4.2.7 5.7 1.6l3-4.9c-2.2-1.5-4.9-2.3-8.6-2.3-9.8 0-14.8 6.9-14.8 14.5 0 7.7 4.8 14.6 14.7 14.6 4.3 0 7.8-1.7 9.2-3M1388 63.8h-6.9v28.1h6.9V63.8zm-13.4 28.1v-5.4h-10.3V63.8h-6.9v28.1h17.2zm-25.1 0V63.8h-6.8v10.8h-11.5V63.8h-6.8v28.1h6.8V80.1h11.5v11.8h6.8zm-30.5-2.5l-2.8-4.8c-1.4 1-3.1 2.1-6.2 2.1-5.1 0-7.6-4.1-7.6-9.1 0-4.9 2.6-8.7 7.4-8.7 2.5 0 4.2.7 5.7 1.6l3-4.9c-2.2-1.5-4.9-2.3-8.6-2.3-9.8 0-14.8 6.9-14.8 14.5 0 7.7 4.8 14.6 14.7 14.6 4.3 0 7.8-1.7 9.2-3m-30.5-25.6h-6.9v28.1h6.9V63.8zm-14 28.1v-5.6h-10.3V80h8.9v-5.2h-8.9v-5.5h10.1v-5.6h-16.8v28.1l17 .1zm-22.2-28.1h-6.5l-3.3 13.3c-.5 2.3-1 5-1 5.3h-.1c0-.3-.5-3.2-1.1-5.5l-3.3-13.1h-6.7l-3.3 13.1c-.6 2.3-1.1 5.2-1.1 5.5h-.1c0-.3-.5-3-1-5.2l-3.2-13.4h-7.3l7.6 28.1h6.3l4.1-14.5c.6-2.3 1.2-5 1.2-5.2h.1c0 .2.5 2.9 1.1 5.2l3.6 14.5h6.3l7.7-28.1zm-41.1 20c0-5.1-3.3-7-7-8.7-3-1.4-5.2-1.9-5.2-3.9 0-1.7 1.2-2.5 3.3-2.5 2.2 0 4.4 1.1 5.4 1.7l2.7-4.7c-1.3-.9-3.8-2.4-8.5-2.4-5.3 0-9.4 3.1-9.4 8 0 4.6 2.4 6.8 5.9 8.5 3.3 1.6 6.2 2.2 6.2 4.4 0 1.6-1.4 2.8-4.1 2.8-3.1 0-5.3-1.6-5.9-2l-2.8 4.7c1.3 1 4.3 2.7 8.9 2.7 6.7 0 10.5-3.3 10.5-8.6m-24.5-3.6V63.8h-6.2v16.9c0 3.9-1.5 6.2-5.4 6.2-4.2 0-5.7-2.1-5.7-6.5V63.8h-6.8v17.1c0 7.6 4.1 11.5 12.4 11.5 7.7 0 11.7-4.3 11.7-12.2m-39.5 1.6h-6.9l2-5.8c.8-2.4 1.4-4.8 1.4-4.9h.1c0 .1.5 2.5 1.4 4.9l2 5.8zm-8.8 5.4h10.7l1.7 4.7h7.4l-11.1-28.1h-6.5l-10.7 28.1h6.9l1.6-4.7zm-13.7 4.7V63.8h-6.2v13.4c0 2.2.1 4.2.2 4.6h-.1c-.2-.3-1.3-2.3-3.1-4.9l-9.1-13.1h-6.9v28.1h6.2V77.3c0-1.9-.1-3.8-.2-3.9h.1c.1.2 1.1 1.9 2.9 4.4l10 14.2 6.2-.1zm-32.9-11.7V63.8h-6.3v16.9c0 3.9-1.5 6.2-5.4 6.2-4.2 0-5.7-2.1-5.7-6.5V63.8h-6.8v17.1c0 7.6 4.1 11.5 12.4 11.5 7.7 0 11.8-4.3 11.8-12.2m-141 11.7V56.5H943v16.9c0 2.8.2 5.3.2 5.8h-.1c-.2-.4-1.6-2.9-3.9-6.2l-11.5-16.5H919v35.4h7.8V73.5c0-2.4-.2-4.8-.2-4.9h.1c.1.2 1.4 2.4 3.6 5.5L943 91.9h7.8zm-40.3 0v-7h-13V77h11.2v-6.5h-11.2v-6.9h12.6v-7H889V92h21.5zm-39.3-24.4c0 2.9-1.7 4.5-5.3 4.5h-3.7v-9h3.4c3.9 0 5.6 1.5 5.6 4.5m11.4 24.4l-6.3-10c-1.9-3-3.2-4.5-4.3-5.3v-.1c3.9-1 7.7-3.8 7.7-9.6 0-6.8-4.9-10.4-13.5-10.4h-12.5v35.4h8.6v-14h.4c1.4 0 2.1.3 4.3 3.9l6.3 10.1h9.3zm-45.9-17.6c0 6.1-2.7 11.4-9.5 11.4-6.6 0-9.5-5.5-9.5-11.7 0-6.1 2.9-11.3 9.7-11.3 6.7 0 9.3 5.4 9.3 11.6m9-.3c0-9.5-6.3-18.1-18.5-18.1-12.1 0-18.5 8.8-18.5 18.4 0 9.5 6.6 18.3 18.8 18.3 12.1-.1 18.2-9 18.2-18.6m-41 17.9V85h-12.9V56.5h-8.7v35.4h21.6zm-39.6-24.4c0 2.9-1.7 4.5-5.3 4.5h-3.7v-9h3.4c3.9 0 5.6 1.5 5.6 4.5m11.4 24.4l-6.3-10c-1.9-3-3.2-4.5-4.3-5.3v-.1c3.9-1 7.7-3.8 7.7-9.6 0-6.8-4.9-10.4-13.5-10.4h-12.5v35.4h8.6v-14h.4c1.4 0 2.1.3 4.3 3.9l6.3 10.1h9.3zm-37.6 0v-7h-13V77H737v-6.5h-11.2v-6.9h12.6v-7h-21.1V92h21.6zM711 56.5h-8.6l-6.6 20.1c-.9 2.7-1.6 5.6-1.7 5.8h-.1c-.1-.3-.9-3.1-1.8-5.8l-6.9-20.1H676l13.7 35.4h8.1L711 56.5zm500.6-38.8c0 2.2-1.3 3.4-4 3.4h-2.8v-6.8h2.6c2.9 0 4.2 1.2 4.2 3.4m8.6 18.4l-4.8-7.5c-1.4-2.3-2.4-3.4-3.2-4v-.1c3-.7 5.8-2.9 5.8-7.2 0-5.1-3.7-7.8-10.1-7.8h-9.4v26.6h6.5V25.6h.3c1.1 0 1.6.2 3.2 2.9l4.7 7.6h7zm-28.3 0v-5.3h-9.8v-6h8.4V20h-8.4v-5.2h9.5V9.5h-15.9v26.6h16.2zm-35.5 0l3.9-12.6c.6-1.8 1-3.7 1.1-3.8h.1c0 .2.2 2 .4 3.9l1.5 12.5h6.6l-3.6-26.6h-6.3l-5.2 15.9c-.6 1.8-1.2 4.3-1.3 4.4h-.1c0-.2-.7-2.6-1.2-4.4l-5-15.9h-6.3l-3.7 26.6h5.8l1.6-12.5c.2-1.8.3-3.9.3-4h.1c0 .1.5 2.2 1 3.8L1150 36h6.4zm-36.8 0l3.9-12.6c.6-1.8 1-3.7 1.1-3.8h.1c0 .2.2 2 .4 3.9l1.5 12.5h6.6l-3.6-26.6h-6.3l-5.2 15.9c-.6 1.8-1.2 4.3-1.3 4.4h-.1c0-.2-.7-2.6-1.2-4.4l-5-15.9h-6.3l-3.7 26.6h5.8l1.6-12.5c.2-1.8.3-3.9.3-4h.1c0 .1.5 2.2 1 3.8l3.9 12.6h6.4zm-25.3-26.6h-6.5v26.6h6.5V9.5zm-28.7 8.2c0 2.2-1.3 3.4-4 3.4h-2.8v-6.8h2.6c2.9 0 4.2 1.2 4.2 3.4m8.5 18.4l-4.8-7.5c-1.4-2.3-2.4-3.4-3.2-4v-.1c3-.7 5.8-2.9 5.8-7.2 0-5.1-3.7-7.8-10.1-7.8h-9.4v26.6h6.5V25.6h.3c1.1 0 1.6.2 3.2 2.9l4.7 7.6h7zm-41.6-32c0-1.6-1.4-3.1-3.2-3.1-1.9 0-3.2 1.4-3.2 3.1 0 1.7 1.3 3.1 3.2 3.1 1.8.1 3.2-1.3 3.2-3.1m8.6 0c0-1.6-1.3-3.1-3.2-3.1s-3.2 1.4-3.2 3.1c0 1.7 1.4 3.1 3.2 3.1s3.2-1.3 3.2-3.1M1045 25V9.5h-5.9v16c0 3.7-1.4 5.9-5.1 5.9-4 0-5.4-2-5.4-6.1V9.5h-6.5v16.2c0 7.2 3.9 10.9 11.7 10.9 7.4 0 11.2-4.1 11.2-11.6m-28.7-10.2V9.5h-15.7v26.6h6.5V25.6h8.2v-4.9h-8.2v-5.9h9.2zm-81.4-36.4c0-8.4-5.3-11.5-11.5-14.2-4.9-2.2-8.5-3.1-8.5-6.4 0-2.8 2-4.2 5.5-4.2 3.7 0 7.3 1.8 8.9 2.8l4.4-7.8c-2.1-1.5-6.2-4-14-4-8.7 0-15.4 5.1-15.4 13.2 0 7.6 4 11.2 9.7 14 5.4 2.7 10.2 3.5 10.2 7.2 0 2.6-2.3 4.6-6.7 4.6-5.1 0-8.7-2.6-9.7-3.3l-4.6 7.8c2.1 1.7 7 4.5 14.6 4.5 10.7 0 17.1-5.4 17.1-14.2m-40.4-5.9v-27h-10.3v27.8c0 6.4-2.5 10.2-8.9 10.2-6.9 0-9.3-3.4-9.3-10.7v-27.3h-11.2v28.1c0 12.5 6.7 19 20.3 19 12.8 0 19.4-7 19.4-20.1m-64.9 2.6h-11.4l3.3-9.5c1.3-3.9 2.3-7.8 2.4-8.1h.1c.1.2.9 4.1 2.3 8.1l3.3 9.5zM815.1-16h17.6l2.8 7.8h12.2l-18.2-46.2h-10.8L801.1-8.3h11.3l2.7-7.7z"/>
</svg>
