<?xml version="1.0" encoding="utf-8"?>
<!-- Generator: Adobe Illustrator 19.1.0, SVG Export Plug-In . SVG Version: 6.00 Build 0)  -->
<svg version="1.1" id="Ebene_1" xmlns="http://www.w3.org/2000/svg" xmlns:xlink="http://www.w3.org/1999/xlink" x="0px" y="0px"
	 viewBox="97 421.8 106.3 82.1" style="enable-background:new 97 421.8 106.3 82.1;" xml:space="preserve">
<style type="text/css">
	.st0{opacity:0.4;}
	.st1{fill:#CFBA95;}
</style>
<g>
	<g>
		<g class="st0">
			<g>
				<path class="st1" d="M164.7,483.4c-2.4,2.4-5.7-0.4-8.4-1.2c-8.6,5.5-15,13.2-20.5,21.7c-6.7-2.2-6.2-9.2-13.3-10.9
					c-9.8-2.3-16.8,6.6-24.1,6c-4.1-2.6,2.6-6.6,0-7.2c7.8-3.6,19.2-9.6,30.2-6C137.8,480.5,159.6,468.8,164.7,483.4"/>
				<path class="st1" d="M165.9,421.8c3.2,2.8,6.3,5.8,7.2,10.9c14.4-4,26.4,3.9,30.2,14.5c-5.2,3.4-8.8-3.6-13.3-4.8
					c-10.9-1.2-15.5,3.8-24.1,4.8c-1.2-11.1-11.1-17.8-19.3-18.1C146,416.9,159,425.7,165.9,421.8"/>
			</g>
		</g>
	</g>
</g>
</svg>
